<?xml version="1.0" encoding="utf-8"?>
<!-- Generator: Adobe Illustrator 19.0.0, SVG Export Plug-In . SVG Version: 6.00 Build 0)  -->
<svg version="1.1" id="Layer_1" xmlns="http://www.w3.org/2000/svg" xmlns:xlink="http://www.w3.org/1999/xlink" x="0px" y="0px"
	 viewBox="173.9 162.7 560.3 287.9" style="enable-background:new 173.9 162.7 560.3 287.9;" xml:space="preserve">
<style type="text/css">
	.st0{fill:#FFFFFF;}
	.st1{fill:#FFFFFF;stroke:#FFFFFF;stroke-width:3;stroke-miterlimit:10;}
</style>
<g>
	<g>
		<g>
			<path class="st0" d="M224.1,212c5.2-7.6,31.5-13.8,38.8-22.4c6.9-8.2-3.8-22.5-4.7-23.7c-0.1,0.4-2.5,2.3-22.1,13
				C211.4,192.2,223,213.6,224.1,212"/>
			<path class="st0" d="M277.4,308.9c-2.8,0.2-5,1.3-7,3.4c-9.7,9.5-19.2,13.2-31.7,13.2c-20.7,0-32.6-15.3-37.1-30.2
				c11.3,0.9,22.3,1.1,31.7,1.2c3.3,0,17.6,0.2,25.5-0.6c7.8-0.7,17.4-1.9,23.5-8.2c8.3-8.6,8.4-18.4,6.9-25.7
				c-1.7-8.3-6.2-16.3-12.4-22.6c-7.1-7.2-19-16.8-40.2-16.8c-16.2,0-31.2,6.7-42.2,18.9c-10.8,11.9-16.7,28-16.7,45.2v0.4
				c0,16.6,5.2,28.6,18.1,41.7c11.3,11.5,26.4,17.8,42.6,17.8c19.5,0,33.8-6,47.8-19.9c2.8-2.8,6.5-7.4,6.5-7.4
				S283.6,308.4,277.4,308.9 M236.2,243.4l0.5,0c21.3,0,28,11.4,30.1,16.6c2.4,6.2,2.1,11.8-0.2,13.4c-0.9,0.7-3,2.4-21.6,2.4
				c-15.9,0-35.1-0.5-43.9-1.4C204.6,255.7,218.2,243.6,236.2,243.4"/>
			<path class="st0" d="M626.9,338.2c8.8,6.3,20.7,9.9,32.6,9.9c21.1,0,38-7.8,48.3-20.6c2.9-3.6,10.6-11.9,10.6-28.8v-24.9
				c0-15.1-4.3-28.2-13-37c-9.2-9.2-22.4-13.9-39.2-13.9c-11.7,0-22,2-33.6,6.5l-0.1,0c-1.7,0.7-3.5,1.4-5.3,2.2
				c-0.4,0.2-11,4.8-11,4.8s6.1,10.5,6.5,11.2l0.1,0.1l0,0c2,2.6,5,4.4,8.4,4.4c1.5,0,3.3-0.4,4.8-1.2c9.9-4.7,19.3-6.9,29.5-6.9
				c19.7,0,30.5,10.6,31.4,28c-6.8-1.5-17.1-3.3-31.6-3.3c-17.1,0-30.5,3.2-39.8,9.6c-9.7,6.7-14.6,16.3-14.6,28.7v0.4
				C610.8,320.1,616.4,330.7,626.9,338.2 M633.2,306.4c0-5.3,2-8.7,6-11.3c5.7-3.8,12.5-5.9,25.4-5.8c14.1,0.1,25.2,2.1,32.5,3.9
				v4.9c0,16.5-15.9,29-36.9,29c-13.4,0-27-6.9-27-20.2L633.2,306.4L633.2,306.4z"/>
			<path class="st0" d="M712.8,360.9c-4.5,3.1-11.5,6.3-11.5,6.3c-33.7,15.3-71.8,6.2-102-17c-30.7-23.6-44.6-54.2-49-63.7
				l44.4-50.5l-7.9-6.9c-4.4-3.9-10.7-3.4-14.7,1.1l-35.1,40.4v0l-4.6,5.3v-94.8h-11c-6.1,0-10.8,4.7-10.8,11v88.1l0,0v55.4
				c0,5.5,3.6,9.8,8.7,10.8c0.3,0.1,0.6,0.1,0.9,0.1l0,0c0.5,0.1,0.9,0.1,1.4,0.1c0.2,0,0.4,0,0.6,0h10.1v-10.4c0-0.2,0-0.4,0-0.5
				v-37.7c5.5,10.8,20.2,38.5,49.6,62.8c15.1,12.5,33.8,23.5,55,29c10.1,2.6,20.5,3.9,31.5,3.6c20-0.6,42.7-7.7,61.9-24.4
				C720.7,354.7,716.3,358.5,712.8,360.9"/>
			<path class="st0" d="M256.7,164.7C256.7,164.7,256.7,164.7,256.7,164.7C256.8,164.7,256.7,164.7,256.7,164.7"/>
			<path class="st0" d="M455.8,209.6c7,0,12.4-5.4,12.4-12.2v-3.8c0-6.9-5.5-12.2-12.4-12.2c-6.8,0-12.2,5.4-12.2,12.2v3.8
				C443.5,204.2,448.9,209.6,455.8,209.6"/>
			<path class="st0" d="M476.7,328.7l-1.3,0.2c-3.2,0.5-5.5-0.3-6.9-2.4c-1-1.6-1.6-4.8-1.6-7.7v-95.7h-11.1c-2.7,0-5,0.9-6.9,2.4
				c-2.5,2-4,5.1-4,8.7c0,7.9,0,33.5,0,55v1c0,17.2,0,31.6,0,31.8c0.1,2.5,0.2,4.8,0.4,6.9c0.3,3.1,0.5,6,2,8.7
				c1.5,2.8,3.1,4.8,6,6.4l0.1,0c2.5,1.3,4.4,2.3,8.8,2.3c0,0,1,0,1.5,0c4.4-0.2,7.8-1.7,10.1-4.4c4-4.8,3.1-11.5,3.1-11.8
				L476.7,328.7z"/>
			<path class="st0" d="M400.8,282c-7.5-4.5-17.5-6.7-28.8-9c-15.4-3.1-27.3-6-27.6-14.2l0-0.4c-0.3-8.3,7.7-14.4,19.4-14.8
				c9.2-0.4,18,1.6,27.5,6.7c0.8,0.5,3.1,1.7,6.1,1.5c7.9-0.6,9.1-5.7,13.7-15.2c0.2-0.4-7.3-4.2-7.9-4.6c-4.8-2.5-9.8-4.7-15-6.3
				c-1.5-0.4-2.9-0.8-4.4-1.2c-1.9-0.4-3.9-0.8-5.8-1.1c-2.1-0.3-4.2-0.6-6.3-0.8c-2.7-0.2-5.5-0.3-8.2-0.2
				c-11.8,0.5-22.3,4.4-29.7,11.2c-7.6,7-11.6,16.5-11.2,26.9l0,0.4c0.9,22.8,22.7,28.1,40.2,32.4c0,0,6.3,1.5,7.6,1.8
				c15.9,3.7,22,5.8,22.2,13l0,0.4c0.4,9.3-8.2,16.1-20.9,16.6c-12,0.5-23.2-2.9-34.5-10.3c-1.9-1.3-4.5-2-6.9-1.9
				c-3.5,0.1-6.6,2.1-8.5,4.8l-5.2,9.5c0,0,9.5,6.3,9.5,6.3c12.9,8.3,30.6,13.3,45.7,12.7c11.9-0.5,22.7-4.5,30.4-11.3
				c8.4-7.4,12.6-17.3,12.2-28.6l0-0.4C414,294.9,409.7,287.3,400.8,282"/>
		</g>
	</g>
	<g>
		<path class="st1" d="M202.1,388.8c7,0,12.3,1.5,15.9,4.6c3.6,3.1,5.4,7.5,5.4,13.2c0,2.6-0.5,5-1.5,7.2c-1,2.2-2.4,4.1-4.2,5.7
			c-1.8,1.6-4.1,2.8-6.7,3.7c-2.6,0.9-5.6,1.3-8.9,1.3h-11.1v24.2h-4.4v-60L202.1,388.8L202.1,388.8z M202.1,421.1
			c2.6,0,5-0.4,7.1-1.1c2.1-0.7,3.9-1.8,5.3-3.1c1.5-1.3,2.6-2.8,3.3-4.6c0.8-1.8,1.2-3.7,1.2-5.8c0-4.6-1.4-8.1-4.2-10.6
			c-2.8-2.5-7-3.7-12.7-3.7h-11.1v28.9L202.1,421.1L202.1,421.1z"/>
		<path class="st1" d="M281.7,448.7h-3.3c-0.4,0-0.7-0.1-1-0.3c-0.3-0.2-0.5-0.5-0.6-0.8l-7-17.4h-29.4l-7,17.4
			c-0.1,0.3-0.3,0.6-0.6,0.8c-0.3,0.2-0.6,0.3-1,0.3h-3.3l24.5-60h4.3L281.7,448.7z M268.4,426.9l-12.2-30.3c-0.4-1-0.8-2.2-1.2-3.6
			c-0.2,0.7-0.4,1.3-0.6,1.9c-0.2,0.6-0.4,1.2-0.6,1.7l-12.2,30.3L268.4,426.9L268.4,426.9z"/>
		<path class="st1" d="M337.6,448.7h-3.7c-0.5,0-0.9-0.1-1.2-0.2c-0.3-0.2-0.6-0.4-0.9-0.9l-19.2-24.3c-0.2-0.3-0.5-0.6-0.7-0.8
			c-0.2-0.2-0.5-0.4-0.8-0.5c-0.3-0.1-0.7-0.2-1.1-0.3c-0.4-0.1-0.9-0.1-1.5-0.1h-7.8v27.1h-4.4v-60h15.3c6.9,0,12.1,1.3,15.5,4
			c3.4,2.7,5.1,6.6,5.1,11.8c0,2.3-0.4,4.4-1.2,6.3c-0.8,1.9-1.9,3.6-3.4,5c-1.5,1.4-3.3,2.6-5.4,3.5c-2.1,0.9-4.5,1.5-7.1,1.8
			c0.7,0.4,1.3,1,1.8,1.7L337.6,448.7z M311,418.4c2.7,0,5-0.3,7.1-1c2.1-0.6,3.9-1.5,5.3-2.7c1.5-1.2,2.6-2.6,3.3-4.3
			c0.8-1.7,1.1-3.5,1.1-5.6c0-4.3-1.4-7.4-4.2-9.5c-2.8-2.1-6.8-3.1-12.2-3.1h-11v26.2L311,418.4L311,418.4z"/>
		<path class="st1" d="M398,448.7h-3.3c-0.4,0-0.7-0.1-1-0.3c-0.3-0.2-0.5-0.5-0.6-0.8l-7-17.4h-29.4l-7,17.4
			c-0.1,0.3-0.3,0.6-0.6,0.8c-0.3,0.2-0.6,0.3-1,0.3h-3.3l24.5-60h4.3L398,448.7z M384.7,426.9l-12.2-30.3c-0.4-1-0.8-2.2-1.2-3.6
			c-0.2,0.7-0.4,1.3-0.6,1.9c-0.2,0.6-0.4,1.2-0.6,1.7l-12.2,30.3L384.7,426.9L384.7,426.9z"/>
		<path class="st1" d="M496.7,388.8v60h-3.8v-51.1c0-0.7,0-1.5,0.1-2.3l-23.6,41.9c-0.4,0.7-1,1.1-1.7,1.1h-0.7
			c-0.7,0-1.3-0.4-1.7-1.1l-24.2-42c0.1,0.8,0.1,1.7,0.1,2.4v51.1h-3.8v-60h3c0.4,0,0.7,0,0.9,0.1c0.2,0.1,0.5,0.3,0.7,0.7
			l24.2,41.7c0.4,0.8,0.8,1.6,1.1,2.5c0.2-0.5,0.4-0.9,0.6-1.3c0.2-0.4,0.4-0.9,0.6-1.3l23.5-41.6c0.2-0.4,0.5-0.6,0.7-0.7
			c0.2-0.1,0.6-0.1,1-0.1H496.7z"/>
		<path class="st1" d="M535.2,370.7l-13.9,12.2c-0.3,0.2-0.5,0.4-0.8,0.4c-0.3,0.1-0.6,0.1-0.9,0.1h-2.8l10.9-11.7
			c0.3-0.4,0.7-0.6,1-0.8c0.4-0.1,0.9-0.2,1.5-0.2H535.2z M523.4,448.7H519v-60h4.4V448.7z"/>
	</g>
</g>
</svg>
