<?xml version="1.0" encoding="UTF-8"?>
<svg width="98px" height="45px" viewBox="0 0 98 45" version="1.1" xmlns="http://www.w3.org/2000/svg" xmlns:xlink="http://www.w3.org/1999/xlink">
    <!-- Generator: Sketch 48.2 (47327) - http://www.bohemiancoding.com/sketch -->
    <title>etiqueta-club-ganamás/blanco-independiente</title>
    <desc>Created with Sketch.</desc>
    <defs></defs>
    <g id="Symbols" stroke="none" stroke-width="1" fill="none" fill-rule="evenodd">
        <g id="etiqueta-club-ganamás/blanco-independiente">
            <polygon id="bg" fill="#FFFFFF" transform="translate(48.533737, 22.500000) scale(-1, 1) translate(-48.533737, -22.500000) " points="1.13686838e-13 0 97.0674744 0 97.0674744 45 12.0601196 45"></polygon>
            <g id="logo-club-ganamás/dorado" transform="translate(15.000000, 10.000000)" fill="#C39934">
                <g>
                    <polygon id="Fill-18" points="58.0000497 13.4760364 54.4873211 13.4760364 54.4873211 9.96899091 52.0406326 9.96899091 52.0406326 13.4760364 48.5279869 13.4760364 48.5279869 15.9687442 52.0406326 15.9687442 52.0406326 19.4757896 54.4873211 19.4757896 54.4873211 15.9687442 58.0000497 15.9687442"></polygon>
                    <path d="M41.0776134,20.9947974 L44.2608191,20.9947974 L42.6776677,15.6924857 L41.0776134,20.9947974 Z M41.0607934,13.4275312 L44.6145363,13.4275312 L48.5219134,25.6963234 L45.6756049,25.6963234 L44.8502649,22.9680961 L40.4881677,22.9680961 L39.6628277,25.6963234 L37.1027906,25.6963234 L41.0607934,13.4275312 Z" id="Fill-7"></path>
                    <polygon id="Fill-5" points="25.2791674 13.4275649 28.4455531 13.4275649 33.0266417 21.509513 33.0266417 13.4275649 35.4518703 13.4275649 35.4518703 25.6963571 32.7235503 25.6963571 27.7044789 16.9623831 27.7044789 25.6963571 25.2791674 25.6963571"></polygon>
                    <path d="M16.1840549,20.9947974 L19.3672606,20.9947974 L17.7841091,15.6924857 L16.1840549,20.9947974 Z M16.1672349,13.4275312 L19.7209777,13.4275312 L23.6284377,25.6963234 L20.7820463,25.6963234 L19.9567063,22.9680961 L15.5946091,22.9680961 L14.769352,25.6963234 L12.209232,25.6963234 L16.1672349,13.4275312 Z" id="Fill-3"></path>
                    <path d="M0.0653494286,19.6391169 L0.0653494286,19.5019416 C0.0653494286,15.8126429 2.64228943,13.2388117 6.19603229,13.2388117 C8.87397514,13.2388117 11.2655637,14.4914545 11.551918,17.5286429 L8.84025229,17.5286429 C8.60452371,16.0871623 7.67818086,15.4351364 6.22967229,15.4351364 C4.14117514,15.4351364 2.91182371,17.031013 2.91182371,19.5362143 L2.91182371,19.6735584 C2.91182371,22.0414156 3.90544657,23.7401948 6.26339514,23.7401948 C8.28444657,23.7401948 9.10970371,22.5562662 9.16032943,21.1491429 L6.44866371,21.1491429 L6.44866371,19.1243506 L11.8550923,19.1243506 L11.8550923,20.428487 C11.8550923,23.7059221 9.800318,25.8851104 6.19603229,25.8851104 C2.25501514,25.8851104 0.0653494286,23.2769221 0.0653494286,19.6391169" id="Fill-1"></path>
                    <path d="M32.1054111,8.58525065 C33.2822311,8.58525065 33.8244483,8.04634156 33.8244483,7.04947792 L33.8244483,6.99553636 C33.8244483,5.99858831 33.2822311,5.5001987 31.9863454,5.5001987 L30.3995483,5.5001987 L30.3995483,8.58525065 L32.1054111,8.58525065 Z M31.8541883,4.28765325 C33.017834,4.28765325 33.467334,3.85662727 33.467334,2.8731013 L33.467334,2.81924416 C33.467334,1.90316623 32.951714,1.51249091 31.8275911,1.51249091 L30.3995483,1.51249091 L30.3995483,4.28765325 L31.8541883,4.28765325 Z M28.680594,0.232581818 L32.0657226,0.232581818 C34.0095511,0.232581818 35.1599397,0.987088312 35.1599397,2.73837403 L35.1599397,2.79231558 C35.1599397,3.74882857 34.7368711,4.50325065 33.665694,4.84006883 C34.9484054,5.12302987 35.5566597,5.83701688 35.5566597,7.11675714 L35.5566597,7.17078312 C35.5566597,8.9625039 34.393014,9.86515974 32.3170283,9.86515974 L28.680594,9.86515974 L28.680594,0.232581818 Z" id="Fill-16"></path>
                    <path d="M18.4328474,6.20071299 L18.4328474,0.232615584 L20.2048303,0.232615584 L20.2048303,6.06598571 C20.2048303,7.83086234 20.7602217,8.55835584 22.1618331,8.55835584 C23.5238389,8.55835584 24.2114703,7.93857662 24.2114703,5.94476494 L24.2114703,0.232615584 L25.9833703,0.232615584 L25.9833703,6.0929987 C25.9833703,8.61221299 24.6478789,9.99983636 22.1486589,9.99983636 C19.7816789,9.99983636 18.4328474,8.67957662 18.4328474,6.20071299" id="Fill-14"></path>
                    <polygon id="Fill-12" points="10.8824903 0.232598701 12.641216 0.232598701 12.641216 8.43711818 16.6742874 8.43711818 16.6742874 9.86509221 10.8824903 9.86509221"></polygon>
                    <path d="M-3.31428571e-05,5.10954026 L-3.31428571e-05,5.00174156 C-3.31428571e-05,2.10527403 1.95705257,0.0843649351 4.58851257,0.0843649351 C6.75721543,0.0843649351 8.43648114,1.1891961 8.64809829,3.45246234 L6.86294114,3.45246234 C6.664664,2.17255325 5.96377543,1.51250779 4.60176971,1.51250779 C2.93559543,1.51250779 1.85132686,2.83268312 1.85132686,4.98823506 L1.85132686,5.09603377 C1.85132686,7.26500779 2.86947543,8.54491688 4.61502686,8.54491688 C5.92408686,8.54491688 6.849684,7.87128052 7.03478686,6.51067013 L8.753824,6.51067013 C8.47616971,8.82779351 6.86294114,9.9999039 4.61502686,9.9999039 C1.65296686,9.9999039 -3.31428571e-05,8.07337143 -3.31428571e-05,5.10954026" id="Fill-9"></path>
                </g>
            </g>
        </g>
    </g>
</svg>