<?xml version="1.0" encoding="UTF-8"?>
<svg width="23px" height="19px" viewBox="0 0 23 19" version="1.1" xmlns="http://www.w3.org/2000/svg" xmlns:xlink="http://www.w3.org/1999/xlink">
    <!-- Generator: Sketch 46.1 (44463) - http://www.bohemiancoding.com/sketch -->
    <title>Shape</title>
    <desc>Created with Sketch.</desc>
    <defs></defs>
    <g id="Page-1" stroke="none" stroke-width="1" fill="none" fill-rule="evenodd">
        <path d="M11.4680049,1.00195994 C11.4078485,1.00821067 11.3617006,1.02786385 11.3333846,1.04595436 L1.10223646,9.49287576 C0.993018953,9.57070011 0.963631326,9.78012759 1.05175382,9.89762434 C1.13987363,10.0151211 1.32645208,10.0337888 1.4387874,9.94163283 L11.50166,1.63547947 L21.5645324,9.94163283 C21.6768677,10.0337888 21.8550297,10.0151211 21.9431522,9.89762434 C22.031272,9.78012759 22.0167169,9.56796894 21.9010833,9.49287576 L11.6699355,1.04595436 C11.6023211,1.0028694 11.5281614,0.995712034 11.4680049,1.00195994 Z M4,8.42336911 L4,17.7290438 C4.00001479,17.8786826 4.11992985,17.999985 4.26785714,18 L9.35714286,18 C9.50507015,17.999985 9.62498521,17.8786826 9.625,17.7290438 L9.625,12.5808754 L13.375,12.5808754 L13.375,17.7290438 C13.3750148,17.8786826 13.4949299,17.999985 13.6428571,18 L18.7321429,18 C18.8800701,17.999985 18.9999852,17.8786826 19,17.7290438 L19,8.42336911 L18.4642857,8 L18.4642857,17.4580875 L13.9107143,17.4580875 L13.9107143,12.3099192 C13.9106995,12.1602804 13.7907844,12.0389779 13.6428571,12.038963 L9.35714286,12.038963 C9.20921557,12.0389779 9.0893005,12.1602804 9.08928571,12.3099192 L9.08928571,17.4580875 L4.53571429,17.4580875 L4.53571429,8 L4,8.42336911 Z" id="Shape" stroke="#E81C36" stroke-width="0.4" fill="#E81C36"></path>
    </g>
</svg>