<?xml version="1.0" encoding="UTF-8"?>
<svg width="23px" height="19px" viewBox="0 0 23 19" version="1.1" xmlns="http://www.w3.org/2000/svg" xmlns:xlink="http://www.w3.org/1999/xlink">
    <!-- Generator: Sketch 46.1 (44463) - http://www.bohemiancoding.com/sketch -->
    <title>Group 9</title>
    <desc>Created with Sketch.</desc>
    <defs></defs>
    <g id="Page-1" stroke="none" stroke-width="1" fill="none" fill-rule="evenodd">
        <g id="Group-9" transform="translate(1.000000, 1.000000)" stroke="#000000" stroke-width="0.4" fill="#000000">
            <path d="M10.4680049,0.00195994439 C10.4078485,0.00821067039 10.3617006,0.027863854 10.3333846,0.045954356 L0.102236462,8.49287576 C-0.00698104695,8.57070011 -0.0363686745,8.78012759 0.051753822,8.89762434 C0.139873626,9.0151211 0.326452079,9.03378881 0.438787396,8.94163283 L10.50166,0.635479472 L20.5645324,8.94163283 C20.6768677,9.03378881 20.8550297,9.0151211 20.9431522,8.89762434 C21.031272,8.78012759 21.0167169,8.56796894 20.9010833,8.49287576 L10.6699355,0.045954356 C10.6023211,0.00286939686 10.5281614,-0.00428796597 10.4680049,0.00195994439 Z" id="Path"></path>
            <path d="M3,7.42336911 L3,16.7290438 C3.00001479,16.8786826 3.11992985,16.999985 3.26785714,17 L8.35714286,17 C8.50507015,16.999985 8.62498521,16.8786826 8.625,16.7290438 L8.625,11.5808754 L12.375,11.5808754 L12.375,16.7290438 C12.3750148,16.8786826 12.4949299,16.999985 12.6428571,17 L17.7321429,17 C17.8800701,16.999985 17.9999852,16.8786826 18,16.7290438 L18,7.42336911 L17.4642857,7 L17.4642857,16.4580875 L12.9107143,16.4580875 L12.9107143,11.3099192 C12.9106995,11.1602804 12.7907844,11.0389779 12.6428571,11.038963 L8.35714286,11.038963 C8.20921557,11.0389779 8.0893005,11.1602804 8.08928571,11.3099192 L8.08928571,16.4580875 L3.53571429,16.4580875 L3.53571429,7 L3,7.42336911 Z" id="Path"></path>
        </g>
    </g>
</svg>