<?xml version="1.0" encoding="utf-8"?>
<!-- Generator: Adobe Illustrator 22.0.1, SVG Export Plug-In . SVG Version: 6.00 Build 0)  -->
<svg version="1.1" xmlns="http://www.w3.org/2000/svg" xmlns:xlink="http://www.w3.org/1999/xlink" x="0px" y="0px"
	 viewBox="0 0 100 100" style="enable-background:new 0 0 100 100;" xml:space="preserve">
<style type="text/css">
	.st0{display:none;}
	.st1{fill:#613C87;}
</style>
<g id="Layer_2" class="st0">
	
		<image style="display:inline;overflow:visible;" width="20" height="20" xlink:href="icono_advertencia_notificacion.png"  transform="matrix(15 0 0 15 -100 0)">
	</image>
</g>
<g id="Layer_1">
	<g>
		<path class="st1" d="M50,6.7c11.6,0,22.5,4.5,30.6,12.7c8.2,8.2,12.7,19.1,12.7,30.6s-4.5,22.5-12.7,30.6
			C72.5,88.8,61.6,93.3,50,93.3s-22.5-4.5-30.6-12.7C11.2,72.5,6.7,61.6,6.7,50s4.5-22.5,12.7-30.6C27.5,11.2,38.4,6.7,50,6.7 M50,0
			C22.4,0,0,22.4,0,50s22.4,50,50,50s50-22.4,50-50S77.6,0,50,0L50,0z"/>
		<g>
			<rect x="45" y="25.1" class="st1" width="10" height="35"/>
		</g>
		<g>
			<rect x="45" y="65" class="st1" width="10" height="10"/>
		</g>
	</g>
</g>
</svg>
