<?xml version="1.0" encoding="UTF-8"?>
<svg width="50px" height="38px" viewBox="0 0 50 38" version="1.1" xmlns="http://www.w3.org/2000/svg" xmlns:xlink="http://www.w3.org/1999/xlink">
    <!-- Generator: Sketch 47.1 (45422) - http://www.bohemiancoding.com/sketch -->
    <title>Page 1</title>
    <desc>Created with Sketch.</desc>
    <defs></defs>
    <g id="Symbols" stroke="none" stroke-width="1" fill="none" fill-rule="evenodd">
        <g id="money-suscription-icon" transform="translate(0.000000, -6.000000)" fill="#E81C36">
            <g id="Page-1" transform="translate(0.000000, 6.000000)">
                <polygon id="Fill-1" points="0 12.3356687 32.0077844 28.3498403 49.9030938 20.2659082 49.8973054 17.9817764 32.0670659 25.5985429 0 10.0968463"></polygon>
                <polygon id="Fill-2" points="0 16.7068663 32.0087824 32.7215369 49.9045908 24.6078643 49.8957086 22.3250299 32.0660679 29.9692415 0 14.4680439"></polygon>
                <polygon id="Fill-3" points="0 21.0872255 32.0060878 37.0923154 49.9036926 28.9974052 49.8968064 26.7137725 32.0642715 34.3407186 0 18.8482036"></polygon>
                <path d="M-9.98003992e-06,7.8789521 L32.0374152,23.6371357 L49.9002894,15.7580938 L17.853483,0.000309381238 L17.8536826,9.98003992e-06 L-9.98003992e-06,7.8789521 Z M5.90208583,8.00160679 L17.796497,2.75250499 L43.9961976,15.6353393 L32.0948004,20.8848403 L5.90208583,8.00160679 Z" id="Fill-4"></path>
                <path d="M18.921487,10.4872255 C17.5187924,8.63982036 19.0498303,7.4248503 22.3412475,7.77365269 C25.6326647,8.12245509 29.4379541,9.90289421 30.8406487,11.7502994 C32.2433433,13.5977046 30.7123054,14.8125749 27.420988,14.4638723 C24.1295709,14.1150699 20.3241816,12.3346307 18.921487,10.4872255" id="Fill-5"></path>
            </g>
        </g>
    </g>
</svg>