<?xml version="1.0" encoding="UTF-8"?>
<svg width="22px" height="11px" viewBox="0 0 22 11" version="1.1" xmlns="http://www.w3.org/2000/svg" xmlns:xlink="http://www.w3.org/1999/xlink">
    <!-- Generator: Sketch 45 (43475) - http://www.bohemiancoding.com/sketch -->
    <title>ojos</title>
    <desc>Created with Sketch.</desc>
    <defs></defs>
    <g id="Page-1" stroke="none" stroke-width="1" fill="none" fill-rule="evenodd">
        <g id="Artboard-2" transform="translate(-1.000000, -4.000000)" stroke="#FFFFFF" stroke-width="0.5" fill="#FFFFFF">
            <g id="ojos" transform="translate(2.000000, 5.000000)">
                <path d="M9.97335765,2.73201793 C11.1081028,2.73201793 12.0312764,3.65529063 12.0312764,4.7901348 C12.0312764,5.92497897 11.1080037,6.84825167 9.97315955,6.84825167 C8.83843919,6.84825167 7.9152903,5.92497897 7.9152903,4.7901348 C7.9152903,3.65529063 8.83853824,2.73201793 9.97335765,2.73201793 M7.31316346,4.7901348 C7.31316346,6.25697085 8.5065216,7.45032898 9.97335765,7.45032898 C11.4400946,7.45032898 12.6333785,6.25697085 12.6333785,4.7901348 C12.6333785,3.32327399 11.4400946,2.12994062 9.97335765,2.12994062 C8.5065216,2.12994062 7.31316346,3.32327399 7.31316346,4.7901348" id="Fill-1"></path>
                <path d="M18.7628242,4.80680658 C15.9671261,7.50862012 13.0137841,8.87829474 9.9829208,8.87829474 C9.87663521,8.87829474 9.76880706,8.87660094 9.66221901,8.87321335 C5.21364991,8.7358043 1.82358123,5.63201709 0.999036139,4.80671584 C1.82179669,3.98168681 5.20439453,0.880016848 9.65753083,0.740672025 C9.76130597,0.737496161 9.8664422,0.735862859 9.97003586,0.735862859 C13.0097311,0.735862859 15.9674286,2.105356 18.7628242,4.80680658 L18.7628242,4.80680658 Z M19.5474744,4.54680916 C16.5304337,1.52976842 13.3104098,-5.68434189e-14 9.97690178,-5.68434189e-14 C9.86347806,-5.68434189e-14 9.74836054,0.00178453322 9.6347251,0.00535359966 C4.14365589,0.177243469 0.372423009,4.38444689 0.214597681,4.56344464 L0,4.80674609 L0.214355711,5.05013827 C0.372181038,5.22913603 4.14277875,9.43633945 9.63454362,9.60822931 C9.74760438,9.61170764 9.86275215,9.61349218 9.97678079,9.61349218 C13.3102888,9.61349218 16.5302522,8.08378425 19.5472022,5.06686449 L19.8075323,4.80686707 L19.5474744,4.54680916 Z" id="Fill-3"></path>
            </g>
        </g>
    </g>
</svg>