<svg xmlns="http://www.w3.org/2000/svg" width="21" height="11" viewBox="0 0 21 11">
    <g fill="#FFF" fill-rule="evenodd" stroke="#FFF" stroke-width=".5" opacity=".7">
        <path d="M10.973 3.732a2.06 2.06 0 0 1 2.058 2.058 2.06 2.06 0 0 1-2.058 2.058A2.06 2.06 0 0 1 8.915 5.79a2.06 2.06 0 0 1 2.058-2.058M8.313 5.79a2.663 2.663 0 0 0 2.66 2.66 2.663 2.663 0 0 0 2.66-2.66 2.663 2.663 0 0 0-2.66-2.66 2.663 2.663 0 0 0-2.66 2.66"/>
        <path d="M19.763 5.807c-2.796 2.702-5.75 4.071-8.78 4.071-.106 0-.214-.001-.32-.005-4.45-.137-7.84-3.241-8.664-4.066.823-.825 4.205-3.927 8.659-4.066.103-.004.208-.005.312-.005 3.04 0 5.997 1.37 8.793 4.07zm.784-.26C17.53 2.53 14.31 1 10.977 1c-.114 0-.229.002-.342.005-5.491.172-9.263 4.38-9.42 4.558L1 5.807l.214.243c.158.18 3.929 4.386 9.42 4.558.114.004.229.005.343.005 3.333 0 6.553-1.53 9.57-4.546l.26-.26-.26-.26z"/>
    </g>
</svg>
