<?xml version="1.0" encoding="UTF-8"?>
<svg width="24px" height="20px" viewBox="0 0 24 20" version="1.1" xmlns="http://www.w3.org/2000/svg" xmlns:xlink="http://www.w3.org/1999/xlink">
    <!-- Generator: Sketch 45 (43475) - http://www.bohemiancoding.com/sketch -->
    <title>Artboard 2</title>
    <desc>Created with Sketch.</desc>
    <defs></defs>
    <g id="Page-1" stroke="none" stroke-width="1" fill="none" fill-rule="evenodd">
        <g id="Artboard-2" stroke="#FFFFFF" stroke-width="0.5" fill="#FFFFFF">
            <g id="shoppingcart-copy" transform="translate(12.500000, 10.000000) scale(-1, 1) translate(-12.500000, -10.000000) translate(3.000000, 2.000000)">
                <path d="M13.5279463,13.020037 C14.2063554,13.020037 14.7515716,13.5651784 14.7515716,14.2435875 C14.7515716,14.9219965 14.2063554,15.467138 13.5279463,15.467138 C12.8495373,15.467138 12.3043211,14.9219965 12.3043211,14.2435875 C12.3043211,13.5651784 12.8495373,13.020037 13.5279463,13.020037 L13.5279463,13.020037 Z M7.3715142,13.020037 C8.04992324,13.020037 8.59513942,13.5651784 8.59513942,14.2435875 C8.59513942,14.9219965 8.04992324,15.467138 7.3715142,15.467138 C6.69303042,15.467138 6.14781423,14.9219965 6.14781423,14.2435875 C6.14781423,13.5651784 6.69303042,13.020037 7.3715142,13.020037 L7.3715142,13.020037 Z M13.5279463,12.5750892 C12.6090502,12.5750892 11.8593733,13.3247287 11.8593733,14.2435875 C11.8593733,15.1624089 12.6090502,15.9120858 13.5279463,15.9120858 C14.4468798,15.9120858 15.1965568,15.1624089 15.1965568,14.2435875 C15.1965568,13.3247287 14.4468798,12.5750892 13.5279463,12.5750892 L13.5279463,12.5750892 Z M7.3715142,12.5750892 C6.4525807,12.5750892 5.7028664,13.3247287 5.7028664,14.2435875 C5.7028664,15.1624089 6.4525807,15.9120858 7.3715142,15.9120858 C8.29041033,15.9120858 9.04008726,15.1624089 9.04008726,14.2435875 C9.04008726,13.3247287 8.29041033,12.5750892 7.3715142,12.5750892 L7.3715142,12.5750892 Z M3.33241485,3.11453392 L17.6245608,3.11453392 L15.8846451,10.8137459 L5.07236792,10.8137459 L3.33241485,3.11453392 Z M0.205559471,1.12115193e-05 C0.0835781398,1.12115193e-05 -0.00353536578,0.110855766 0.000127063886,0.222447756 C0.00173404833,0.341999924 0.085783072,0.447724552 0.205559471,0.444921672 L2.30506596,0.444921672 L2.88290767,2.93376686 C3.51209814,6.34348888 4.15754531,8.16016611 4.69999599,11.077964 C4.71793442,11.1799141 4.80953253,11.2605249 4.9054284,11.2586937 L16.0515472,11.2586937 C16.1474057,11.260936 16.2390412,11.1799141 16.257017,11.077964 L18.0740306,2.93376686 C18.1044512,2.80139619 17.9945409,2.67134256 17.8749888,2.66958609 L3.24249847,2.66958609 L2.66461939,0.16683862 C2.64204686,0.0721760246 2.55590502,-2.61602119e-05 2.46561492,1.12115193e-05 L0.205559471,1.12115193e-05 Z" id="Fill-1"></path>
            </g>
        </g>
    </g>
</svg>