<svg width="23" height="25" viewBox="0 0 23 25" version="1.1" xmlns="http://www.w3.org/2000/svg" xmlns:xlink="http://www.w3.org/1999/xlink">
<title>X</title>
<desc>Created using Figma</desc>
<g id="Canvas" transform="translate(-923 -57)">
<g id="X">
<g id="line">
<use xlink:href="#path0_stroke" transform="translate(925 59)" fill="#FFFFFF"/>
</g>
<g id="line">
<use xlink:href="#path1_stroke" transform="translate(925 59)" fill="#FFFFFF"/>
</g>
</g>
</g>
<defs>
<path id="path0_stroke" d="M 17.9989 21.9057C 18.4991 22.4586 19.3529 22.5013 19.9057 22.0011C 20.4586 21.5009 20.5013 20.6471 20.0011 20.0943L 17.9989 21.9057ZM 1.00107 -0.905733C 0.500851 -1.45861 -0.352855 -1.5013 -0.905733 -1.00107C -1.45861 -0.500851 -1.5013 0.352855 -1.00107 0.905733L 1.00107 -0.905733ZM 20.0011 20.0943L 1.00107 -0.905733L -1.00107 0.905733L 17.9989 21.9057L 20.0011 20.0943Z"/>
<path id="path1_stroke" d="M -1.00107 20.0943C -1.5013 20.6471 -1.45861 21.5009 -0.905733 22.0011C -0.352855 22.5013 0.500851 22.4586 1.00107 21.9057L -1.00107 20.0943ZM 20.0011 0.905733C 20.5013 0.352855 20.4586 -0.500851 19.9057 -1.00107C 19.3529 -1.5013 18.4991 -1.45861 17.9989 -0.905733L 20.0011 0.905733ZM 1.00107 21.9057L 20.0011 0.905733L 17.9989 -0.905733L -1.00107 20.0943L 1.00107 21.9057Z"/>
</defs>
</svg>
