<?xml version="1.0" encoding="utf-8"?>
<!-- Generator: Adobe Illustrator 23.0.1, SVG Export Plug-In . SVG Version: 6.00 Build 0)  -->
<svg version="1.1" id="Layer_1" xmlns="http://www.w3.org/2000/svg" xmlns:xlink="http://www.w3.org/1999/xlink" x="0px" y="0px"
	 viewBox="0 0 17 20" style="enable-background:new 0 0 17 20;" xml:space="preserve">
<style type="text/css">
	.st0{fill-rule:evenodd;clip-rule:evenodd;fill:#FFFFFF;}
</style>
<g>
	<path class="st0" d="M11.8,19.1l-2,0c-1.1,0-2.1-0.4-2.8-1.1L1,12.2c-0.2-0.2-0.2-0.4,0-0.6c0,0,0,0,0,0c0.4-0.4,1-0.4,1.4-0.1
		l3.7,2.6c0.1,0.1,0.3,0.1,0.5,0c0.1-0.1,0.2-0.2,0.2-0.4l0-9.2c0-0.4,0.4-0.8,0.8-0.8c0.2,0,0.4,0.1,0.6,0.2
		c0.1,0.1,0.2,0.3,0.2,0.6l0,6.2c0,0.2,0.2,0.4,0.4,0.4c0.1,0,0.2,0,0.3-0.1c0.1-0.1,0.1-0.2,0.1-0.3l0-2.5c0-0.4,0.4-0.8,0.8-0.8
		c0.4,0,0.8,0.3,0.8,0.8c0,0,0,0,0,0l0,2.5c0,0.2,0.2,0.4,0.4,0.4c0,0,0,0,0,0c0.1,0,0.2,0,0.3-0.1c0.1-0.1,0.1-0.2,0.1-0.3l0-1.3
		c0-0.4,0.4-0.8,0.8-0.8c0.4,0,0.8,0.4,0.8,0.8l0,1.3c0,0.2,0.2,0.4,0.4,0.4c0.2,0,0.4-0.2,0.4-0.4v-0.1c0-0.2,0.1-0.4,0.2-0.6
		c0.2-0.2,0.4-0.2,0.6-0.2c0.4,0,0.8,0.4,0.8,0.8l-0.2,4.8c-0.1,1-0.5,1.9-1.2,2.6C13.9,18.7,12.9,19.1,11.8,19.1 M16.7,15.4
		l0.2-4.9c0-0.9-0.8-1.7-1.7-1.7c-0.3,0-0.6,0.1-0.8,0.2c-0.1-0.8-0.8-1.4-1.7-1.4c-0.3,0-0.6,0.1-0.8,0.2c-0.1-0.8-0.8-1.4-1.7-1.4
		c-0.3,0-0.6,0.1-0.8,0.2l0-2.2c0-0.9-0.8-1.7-1.7-1.7C6.8,2.8,6,3.6,6,4.5l0,8.4L3,10.8c-0.8-0.6-1.9-0.5-2.6,0.2
		c-0.5,0.5-0.5,1.3,0,1.8c0,0,0,0,0,0l5.9,5.8C7.3,19.5,8.5,20,9.8,20l2,0c1.3,0,2.5-0.5,3.5-1.4C16.2,17.8,16.7,16.6,16.7,15.4"/>
	<path class="st0" d="M12.3,5.5c0.6-1.5,0.2-3.2-1-4.3c-1.6-1.6-4.3-1.6-6,0C4.2,2.3,3.8,4,4.4,5.5c0,0.1,0.1,0.1,0.1,0.2
		C4.7,5.8,4.9,5.9,5,5.8c0.2-0.1,0.4-0.3,0.3-0.6c0,0,0,0,0,0C4.9,4.1,5.1,2.7,6,1.8c1.3-1.2,3.3-1.2,4.6,0c0.9,0.9,1.2,2.2,0.7,3.4
		c-0.1,0.2,0,0.5,0.3,0.6c0,0,0,0,0,0C11.9,5.9,12.2,5.8,12.3,5.5"/>
</g>
</svg>
