<svg width="31" height="40" viewBox="0 0 31 40" fill="none" xmlns="http://www.w3.org/2000/svg">
<path d="M30.0682 12.7149L30.0136 12.6603C29.9591 12.6057 29.9591 12.6057 29.9045 12.5512L18.2265 0.927695L18.1719 0.873124H18.1173C17.5171 0.327422 16.7531 0 15.8799 0H2.29195C1.03683 0 0 1.03684 0 2.29195V37.7081C0 38.9632 1.03683 40 2.29195 40H28.5948C29.8499 40 30.8868 38.9632 30.8868 37.7081V14.8431C30.8868 14.0246 30.5593 13.2606 30.0682 12.7149ZM19.2087 3.43793L27.4488 11.678H21.2824C20.1364 11.678 19.1542 10.7503 19.1542 9.5498V3.43793H19.2087ZM29.7954 37.6535C29.7954 38.3083 29.2497 38.854 28.5948 38.854H2.29195C1.63711 38.854 1.09141 38.3083 1.09141 37.6535V2.23738C1.09141 1.58254 1.63711 1.03684 2.29195 1.03684H15.8799C16.4802 1.03684 17.0259 1.25512 17.4079 1.69168L17.4625 1.74625C17.8445 2.12824 18.1173 2.67394 18.1173 3.27422V9.5498C18.1173 11.296 19.5362 12.7694 21.337 12.7694H27.7217C28.2674 12.7694 28.8131 12.9877 29.1951 13.3697L29.2497 13.4243C29.6316 13.8063 29.8499 14.2974 29.8499 14.8977V37.6535H29.7954Z" fill="black"/>
<path d="M11.8242 24.6428C11.8722 24.6428 11.9157 24.6623 11.9547 24.7013L12.2969 25.075C12.0328 25.3811 11.7116 25.6197 11.3334 25.7908C10.9583 25.9619 10.5051 26.0474 9.97382 26.0474C9.50861 26.0474 9.08692 25.9679 8.70875 25.8088C8.33058 25.6467 8.00793 25.4216 7.74081 25.1335C7.47369 24.8424 7.26659 24.4942 7.11953 24.089C6.97246 23.6838 6.89893 23.2381 6.89893 22.7519C6.89893 22.2657 6.97696 21.82 7.13303 21.4148C7.2921 21.0096 7.51421 20.6615 7.79934 20.3703C8.08446 20.0792 8.42512 19.8541 8.8213 19.695C9.22048 19.5329 9.66018 19.4519 10.1404 19.4519C10.6146 19.4519 11.0228 19.5254 11.365 19.6725C11.7101 19.8196 12.0163 20.0192 12.2834 20.2713L11.9997 20.672C11.9787 20.702 11.9547 20.7275 11.9277 20.7485C11.9007 20.7665 11.8617 20.7755 11.8107 20.7755C11.7716 20.7755 11.7296 20.762 11.6846 20.735C11.6426 20.705 11.5916 20.669 11.5315 20.6269C11.4715 20.5849 11.401 20.5399 11.3199 20.4919C11.2389 20.4439 11.1429 20.3988 11.0318 20.3568C10.9208 20.3148 10.7917 20.2803 10.6446 20.2533C10.4976 20.2233 10.328 20.2082 10.1359 20.2082C9.79074 20.2082 9.4741 20.2683 9.18597 20.3883C8.90084 20.5054 8.65472 20.6735 8.44763 20.8926C8.24054 21.1117 8.07846 21.3788 7.96141 21.6939C7.84736 22.0091 7.79033 22.3617 7.79033 22.7519C7.79033 23.1541 7.84736 23.5128 7.96141 23.8279C8.07846 24.143 8.23603 24.4102 8.43412 24.6293C8.63522 24.8454 8.87232 25.0104 9.14545 25.1245C9.41857 25.2385 9.71271 25.2956 10.0278 25.2956C10.2199 25.2956 10.3925 25.2851 10.5456 25.264C10.6987 25.24 10.8397 25.204 10.9688 25.156C11.1008 25.108 11.2224 25.0479 11.3334 24.9759C11.4475 24.9009 11.5615 24.8123 11.6756 24.7103C11.7266 24.6653 11.7761 24.6428 11.8242 24.6428Z" fill="black"/>
<path d="M16.7455 20.5324C16.7185 20.5774 16.69 20.6119 16.66 20.6359C16.63 20.657 16.591 20.6675 16.5429 20.6675C16.4919 20.6675 16.4319 20.6419 16.3629 20.5909C16.2968 20.5399 16.2113 20.4844 16.1062 20.4243C16.0042 20.3613 15.8796 20.3043 15.7326 20.2533C15.5885 20.2022 15.4129 20.1767 15.2058 20.1767C15.0107 20.1767 14.8382 20.2037 14.6881 20.2578C14.538 20.3088 14.412 20.3793 14.3099 20.4694C14.2109 20.5594 14.1358 20.666 14.0848 20.789C14.0338 20.9091 14.0083 21.0396 14.0083 21.1807C14.0083 21.3608 14.0518 21.5108 14.1389 21.6309C14.2289 21.7479 14.3459 21.8485 14.49 21.9325C14.6371 22.0166 14.8022 22.0901 14.9852 22.1531C15.1713 22.2132 15.3604 22.2762 15.5525 22.3422C15.7476 22.4082 15.9367 22.4833 16.1198 22.5673C16.3058 22.6484 16.4709 22.7519 16.615 22.878C16.762 23.004 16.8791 23.1586 16.9661 23.3417C17.0562 23.5248 17.1012 23.7499 17.1012 24.017C17.1012 24.2991 17.0532 24.5647 16.9571 24.8138C16.8611 25.06 16.72 25.2746 16.5339 25.4576C16.3509 25.6407 16.1243 25.7848 15.8541 25.8898C15.587 25.9949 15.2824 26.0474 14.9402 26.0474C14.523 26.0474 14.1419 25.9724 13.7967 25.8223C13.4545 25.6692 13.1619 25.4636 12.9188 25.2055L13.1709 24.7913C13.1949 24.7583 13.2234 24.7313 13.2564 24.7103C13.2925 24.6863 13.3315 24.6743 13.3735 24.6743C13.4365 24.6743 13.5086 24.7088 13.5896 24.7778C13.6706 24.8439 13.7712 24.9174 13.8912 24.9984C14.0143 25.0795 14.1614 25.1545 14.3324 25.2235C14.5065 25.2896 14.7181 25.3226 14.9672 25.3226C15.1743 25.3226 15.3589 25.2941 15.521 25.237C15.6831 25.18 15.8196 25.1005 15.9307 24.9984C16.0447 24.8934 16.1318 24.7688 16.1918 24.6248C16.2518 24.4807 16.2818 24.3201 16.2818 24.143C16.2818 23.9479 16.2368 23.7889 16.1468 23.6658C16.0597 23.5398 15.9442 23.4347 15.8001 23.3507C15.656 23.2666 15.491 23.1961 15.3049 23.1391C15.1218 23.0791 14.9327 23.019 14.7376 22.959C14.5455 22.896 14.3564 22.8239 14.1704 22.7429C13.9873 22.6619 13.8237 22.5568 13.6796 22.4278C13.5356 22.2987 13.4185 22.1381 13.3285 21.946C13.2414 21.7509 13.1979 21.5108 13.1979 21.2257C13.1979 20.9976 13.2414 20.777 13.3285 20.5639C13.4185 20.3508 13.5476 20.1617 13.7157 19.9967C13.8837 19.8316 14.0908 19.6995 14.3369 19.6005C14.5861 19.5014 14.8712 19.4519 15.1923 19.4519C15.5525 19.4519 15.8811 19.5089 16.1783 19.623C16.4754 19.737 16.735 19.9021 16.9571 20.1182L16.7455 20.5324Z" fill="black"/>
<path d="M17.4683 19.5239H18.1661C18.2442 19.5239 18.3072 19.5434 18.3552 19.5825C18.4032 19.6215 18.4393 19.671 18.4633 19.731L20.2866 24.2826C20.3286 24.3846 20.3661 24.4957 20.3992 24.6158C20.4352 24.7358 20.4697 24.8604 20.5027 24.9894C20.5297 24.8604 20.5582 24.7358 20.5882 24.6158C20.6213 24.4957 20.6588 24.3846 20.7008 24.2826L22.5151 19.731C22.5361 19.68 22.5721 19.6335 22.6232 19.5915C22.6742 19.5464 22.7372 19.5239 22.8123 19.5239H23.5146L20.8854 25.9754H20.0975L17.4683 19.5239Z" fill="black"/>
</svg>
