<?xml version="1.0" encoding="utf-8"?>
<!-- Generator: Adobe Illustrator 22.1.0, SVG Export Plug-In . SVG Version: 6.00 Build 0)  -->
<svg version="1.1" id="Layer_1" xmlns="http://www.w3.org/2000/svg" xmlns:xlink="http://www.w3.org/1999/xlink" x="0px" y="0px"
	 viewBox="0 0 24 24" style="enable-background:new 0 0 24 24;" xml:space="preserve">
<style type="text/css">
	.st0{fill:none;stroke:#000000;stroke-linejoin:round;stroke-miterlimit:10;}
	.st1{fill:none;stroke:#000000;stroke-linecap:round;stroke-linejoin:round;stroke-miterlimit:10;}
</style>
<g>
</g>
<g>
</g>
<path class="st0" d="M-9.5,13V8c0-3-2.5-5.5-5.5-5.5h0c-3,0-5.5,2.5-5.5,5.5v9.5"/>
<path class="st1" d="M-16.5,14.5l0,1c0,0.6-0.4,1-1,1h-1c-1.2,0-2.3,0.7-2.8,1.9l-1.2,3.1"/>
<path class="st1" d="M-18.4,16.5c0.4,1.4,1.8,2.5,3.4,2.5"/>
<path class="st1" d="M-11.5,7.5V11c0,1.9-1.6,3.5-3.5,3.5h0c-1.9,0-3.5-1.6-3.5-3.5V7.5l3-3v0c0,1.7,1.3,3,3,3H-11.5z"/>
<circle class="st1" cx="-10.5" cy="18.5" r="3"/>
<path d="M-9.5,12L-9.5,12c0.3,0,0.5,0.2,0.5,0.5v1c0,0.3-0.2,0.5-0.5,0.5h0c-0.3,0-0.5-0.2-0.5-0.5v-1C-10,12.2-9.8,12-9.5,12z"/>
<g>
</g>
<line class="st1" x1="-10.5" y1="17.5" x2="-10.5" y2="19.5"/>
<line class="st1" x1="-9.5" y1="18.5" x2="-11.5" y2="18.5"/>
<path d="M20.3,3.7c-0.9-0.9-1.8-1.8-3.2-1.7c-0.9,0.1-1.6,0.5-2.2,1.1c-2.8,2.8-5.7,5.6-8.5,8.4C6,12,5.6,12.4,5.2,12.8
	c-0.4,0.4-0.6,0.9-0.8,1.5c-0.3,1-0.6,2-0.9,3.1C3.4,18,3.1,18.7,3,19.4c-0.1,0.8,0.5,1.4,1.3,1.5c0.1,0,0.2,0,0.2,0
	c0.7-0.1,1.4-0.4,2.1-0.6c1-0.3,2-0.6,3.1-0.9c0.6-0.2,1.1-0.3,1.5-0.8c0.4-0.4,0.8-0.8,1.2-1.2c2.8-2.8,5.7-5.6,8.5-8.4
	c0.6-0.6,1.1-1.3,1.1-2.2C22.1,5.5,21.2,4.6,20.3,3.7z M4.9,19.9C4.7,19.9,4.5,20,4.3,20c-0.8-0.1,0-1.8,0.1-2.1c0.3-1,0.6-2,0.8-3
	c0.1-0.3,0.2-0.7,0.3-1c1.5,1.5,3,3,4.5,4.5c-0.1,0-0.1,0-0.2,0.1C8.2,19,6.5,19.4,4.9,19.9z M12.3,16.3c-0.5,0.5-1,1-1.5,1.5
	c0,0,0,0-0.1,0.1c-1.6-1.6-3.1-3.1-4.7-4.7c0.2-0.2,0.4-0.4,0.7-0.6c2.6-2.6,5.3-5.3,7.9-7.9c1.6,1.6,3.1,3.1,4.7,4.7
	C17,11.6,14.6,14,12.3,16.3z M20.2,8.4C20.1,8.5,20,8.6,20,8.7c-1.6-1.6-3.1-3.1-4.7-4.7c0.2-0.2,0.3-0.3,0.5-0.5
	C16.3,3,17,2.8,17.7,2.9c0.6,0.1,0.9,0.5,1.3,0.8c0.7,0.7,1.7,1.4,2,2.4C21.3,7.1,20.8,7.8,20.2,8.4z"/>
<g>
</g>
<path d="M46.5,4.3c-1.5,0-3.1,0-4.6,0c0-0.7,0-1.5-0.5-2c-0.7-0.7-1.6-0.5-2.5-0.5c-0.9,0-1.8-0.1-2.5,0.5c-0.5,0.5-0.6,1.3-0.5,2
	c-0.9,0-1.8,0-2.7,0c-0.6,0-1.3,0-1.9,0c-0.1,0-0.3,0.1-0.3,0.1c0,0,0,0,0,0c0,0,0,0,0,0c-0.1,0.1-0.1,0.2-0.1,0.3
	c0,0.9,0,1.7,0,2.6c0,0.3,0.2,0.5,0.5,0.5c0.3,0,0.5,0,0.8,0c0,3.5,0,7.1,0,10.6c0,1.3-0.4,3.4,1.5,3.5c1.7,0.1,3.5,0,5.2,0
	c1.9,0,3.8,0,5.6,0c0,0,0.1,0,0.1,0c1-0.2,1.3-1,1.3-1.9c0-0.9,0-1.9,0-2.8c0-2.6,0-5.2,0-7.9c0-0.5,0-1,0-1.5c0.3,0,0.5,0,0.8,0
	c0.3,0,0.5-0.2,0.5-0.5c0-0.9,0-1.7,0-2.6C47,4.6,46.8,4.3,46.5,4.3z M37,3c0.4-0.4,1.3-0.2,1.8-0.2c0.5,0,1.3-0.1,1.7,0.2
	c0.4,0.3,0.4,0.9,0.4,1.4c-1.4,0-2.8,0-4.2,0C36.7,3.9,36.7,3.3,37,3z M44.6,5.3c0.5,0,0.9,0,1.4,0c0,0.5,0,1,0,1.6
	c-0.3,0-0.5,0-0.8,0c-3.7,0-7.5,0-11.2,0c-0.3,0-0.7,0-1,0c-0.2,0-0.4,0-0.6,0c-0.3,0-0.5,0-0.8,0c0-0.5,0-1,0-1.6
	C36,5.3,40.3,5.3,44.6,5.3z M33.9,21c-0.5,0-0.9,0-1-0.6c0-0.6,0-1.1,0-1.7c0-2.2,0-4.4,0-6.5c0-1.4,0-2.9,0-4.3c0.9,0,1.9,0,2.8,0
	c0,3.9,0,7.9,0,11.8c0,0.4,0,0.8,0,1.2C35.1,21,34.5,21,33.9,21z M36.8,21c0-3.9,0-7.9,0-11.8c0-0.4,0-0.8,0-1.2c1.4,0,2.7,0,4.1,0
	c0,3.9,0,7.9,0,11.8c0,0.4,0,0.8,0,1.2C39.5,21,38.1,21,36.8,21z M44.3,21c-0.8,0-1.6,0-2.4,0c0-3.9,0-7.9,0-11.8c0-0.4,0-0.8,0-1.2
	c0.6,0,1.1,0,1.7,0c0.3,0,0.7,0,1,0c0,0,0.1,0,0.1,0c0,3.7,0,7.4,0,11.2C44.7,19.5,45,20.9,44.3,21z"/>
</svg>
