<?xml version="1.0" encoding="utf-8"?>
<!-- Generator: Adobe Illustrator 19.0.0, SVG Export Plug-In . SVG Version: 6.00 Build 0)  -->
<svg version="1.1" id="Layer_1" xmlns="http://www.w3.org/2000/svg" xmlns:xlink="http://www.w3.org/1999/xlink" x="0px" y="0px"
	 viewBox="123 123.6 841.9 595.3" style="enable-background:new 123 123.6 841.9 595.3;" xml:space="preserve">
<style type="text/css">
	.st0{fill:#FFFFFF;}
	.st1{fill:#FFFFFF;stroke:#FFFFFF;stroke-width:3;stroke-miterlimit:10;}
</style>
<g>
	<g>
		<g>
			<path class="st0" d="M221,210.7c5.3-7.7,31.9-14,39.3-22.7c7-8.3-3.9-22.8-4.8-24c-0.1,0.4-2.5,2.4-22.5,13.2
				C208,190.7,219.8,212.3,221,210.7"/>
			<path class="st0" d="M275,308.9c-2.8,0.2-5,1.3-7.1,3.4c-9.8,9.6-19.4,13.4-32.1,13.4c-21,0-33.1-15.5-37.6-30.6
				c11.5,0.9,22.6,1.1,32.1,1.2c3.4,0,17.9,0.2,25.9-0.6c7.9-0.8,17.6-2,23.8-8.3c8.5-8.7,8.5-18.6,6.9-26
				c-1.7-8.4-6.3-16.5-12.6-22.9c-7.2-7.3-19.3-17.1-40.8-17.1c-16.4,0-31.6,6.8-42.8,19.2c-10.9,12.1-16.9,28.4-16.9,45.9v0.4
				c0,16.8,5.3,29,18.3,42.3c11.4,11.7,26.8,18.1,43.1,18.1c19.8,0,34.3-6,48.4-20.2c2.8-2.8,6.6-7.5,6.6-7.5S281.2,308.4,275,308.9
				 M233.2,242.6l0.5,0c21.6,0,28.4,11.6,30.5,16.8c2.5,6.3,2.1,11.9-0.2,13.6c-0.9,0.7-3,2.4-21.9,2.4c-16.1,0-35.6-0.5-44.5-1.4
				C201.2,255,215,242.7,233.2,242.6"/>
			<path class="st0" d="M629.3,338.7c8.9,6.4,20.9,10,33.1,10c21.4,0,38.5-7.9,48.9-20.9c3-3.7,10.7-12.1,10.7-29.2v-25.3
				c0-15.3-4.3-28.6-13.2-37.5c-9.4-9.4-22.7-14.1-39.8-14.1c-11.8,0-22.3,2-34,6.6l-0.1,0c-1.8,0.7-3.6,1.4-5.4,2.3
				c-0.4,0.2-11.1,4.9-11.1,4.9s6.1,10.7,6.6,11.3l0.1,0.1l0,0c2,2.6,5.1,4.4,8.5,4.4c1.5,0,3.3-0.4,4.8-1.2c10.1-4.8,19.6-7,29.9-7
				c20,0,31,10.8,31.8,28.4c-6.9-1.5-17.3-3.4-32-3.4c-17.3,0-30.9,3.3-40.4,9.8C618,284.7,613,294.5,613,307v0.4
				C613,320.2,618.6,331,629.3,338.7 M635.7,306.4c0-5.4,2-8.8,6-11.5c5.7-3.8,12.7-6,25.8-5.9c14.3,0.1,25.5,2.2,32.9,3.9v4.9
				c0,16.7-16.1,29.4-37.4,29.4c-13.6,0-27.4-7-27.4-20.5L635.7,306.4L635.7,306.4z"/>
			<path class="st0" d="M716.3,361.6c-4.6,3.2-11.6,6.4-11.6,6.4c-34.2,15.6-72.8,6.3-103.4-17.2c-31.1-23.9-45.2-55-49.6-64.6
				l45-51.2l-8-7c-4.5-3.9-10.9-3.4-14.9,1.1L538.3,270v0l-4.7,5.4v-96.1h-11.1c-6.2,0-10.9,4.8-10.9,11.1v89.3l0,0V336
				c0,5.6,3.7,10,8.8,10.9c0.3,0.1,0.6,0.1,0.9,0.1l0,0c0.5,0.1,0.9,0.1,1.4,0.1c0.2,0,0.4,0,0.6,0h10.3v-10.6c0-0.2,0-0.4,0-0.5
				v-38.2c5.5,11,20.5,39,50.3,63.7c15.3,12.7,34.3,23.8,55.7,29.4c10.2,2.7,20.8,4,32,3.6c20.2-0.6,43.3-7.8,62.7-24.7
				C724.3,355.3,719.9,359.2,716.3,361.6"/>
			<path class="st0" d="M253.9,162.7C253.9,162.7,254,162.8,253.9,162.7C254,162.7,253.9,162.7,253.9,162.7"/>
			<path class="st0" d="M455.8,208.2c7.1,0,12.6-5.4,12.6-12.4V192c0-6.9-5.5-12.4-12.6-12.4c-6.9,0-12.4,5.4-12.4,12.4v3.8
				C443.4,202.8,448.8,208.2,455.8,208.2"/>
			<path class="st0" d="M477,329l-1.3,0.2c-3.3,0.5-5.6-0.3-7-2.5c-1-1.6-1.6-4.9-1.6-7.8v-97h-11.3c-2.7,0-5.1,0.9-7,2.4
				c-2.5,2-4.1,5.2-4.1,8.9c0,8,0,33.9,0,55.8v1c0,17.4,0,32,0,32.2c0.1,2.5,0.2,4.9,0.4,7c0.3,3.1,0.5,6.1,2,8.8
				c1.5,2.8,3.1,4.9,6.1,6.5l0.1,0c2.5,1.3,4.5,2.4,8.9,2.4c0,0,1,0,1.6,0c4.4-0.2,7.9-1.7,10.2-4.5c4-4.8,3.1-11.6,3.1-11.9
				L477,329z"/>
			<path class="st0" d="M400.1,281.6c-7.6-4.6-17.7-6.8-29.2-9.1c-15.7-3.1-27.7-6.1-28-14.4l0-0.4c-0.3-8.4,7.8-14.6,19.7-15
				c9.3-0.4,18.3,1.6,27.9,6.8c0.8,0.5,3.1,1.7,6.2,1.5c8-0.6,9.2-5.8,13.9-15.4c0.2-0.4-7.4-4.3-8-4.6c-4.9-2.5-9.9-4.8-15.2-6.4
				c-1.5-0.5-3-0.8-4.5-1.2c-2-0.4-3.9-0.8-5.9-1.1c-2.1-0.3-4.3-0.6-6.4-0.8c-2.8-0.2-5.5-0.3-8.3-0.2
				c-11.9,0.5-22.6,4.5-30.1,11.4c-7.7,7.1-11.8,16.7-11.3,27.3l0,0.4c0.9,23.1,23,28.5,40.7,32.8c0,0,6.4,1.5,7.7,1.8
				c16.1,3.8,22.3,5.9,22.6,13.1l0,0.4c0.4,9.4-8.3,16.4-21.2,16.9c-12.1,0.5-23.6-2.9-34.9-10.4c-1.9-1.3-4.5-2-7-1.9
				c-3.6,0.1-6.7,2.1-8.6,4.9l-5.3,9.7c0,0,9.7,6.4,9.6,6.4c13.1,8.4,31,13.4,46.3,12.8c12.1-0.5,23-4.5,30.9-11.5
				c8.5-7.5,12.8-17.5,12.3-29l0-0.4C413.4,294.7,409.1,287,400.1,281.6"/>
		</g>
	</g>
	<g>
		<path class="st1" d="M198.6,389.9c7.1,0,12.5,1.6,16.1,4.7c3.6,3.1,5.4,7.6,5.4,13.4c0,2.7-0.5,5.1-1.5,7.3
			c-1,2.2-2.4,4.2-4.3,5.8c-1.9,1.6-4.1,2.9-6.8,3.8c-2.7,0.9-5.7,1.4-9,1.4h-11.3v24.5h-4.4v-60.8L198.6,389.9L198.6,389.9z
			 M198.6,422.7c2.7,0,5.1-0.4,7.2-1.1c2.1-0.7,3.9-1.8,5.4-3.1c1.5-1.3,2.6-2.9,3.4-4.7c0.8-1.8,1.2-3.7,1.2-5.9
			c0-4.7-1.4-8.3-4.3-10.8c-2.9-2.5-7.1-3.8-12.8-3.8h-11.3v29.3L198.6,422.7L198.6,422.7z"/>
		<path class="st1" d="M279.3,450.7h-3.4c-0.4,0-0.7-0.1-1-0.3c-0.3-0.2-0.5-0.5-0.6-0.8l-7.1-17.7h-29.9l-7.1,17.7
			c-0.1,0.3-0.3,0.6-0.6,0.8c-0.3,0.2-0.6,0.3-1,0.3h-3.4l24.9-60.8h4.3L279.3,450.7z M265.8,428.6l-12.4-30.7
			c-0.4-1-0.8-2.2-1.2-3.6c-0.2,0.7-0.4,1.3-0.6,2c-0.2,0.6-0.4,1.2-0.6,1.7l-12.4,30.7L265.8,428.6L265.8,428.6z"/>
		<path class="st1" d="M336,450.7h-3.8c-0.5,0-0.9-0.1-1.2-0.2c-0.3-0.2-0.6-0.5-0.9-0.9l-19.5-24.7c-0.2-0.3-0.5-0.6-0.7-0.8
			c-0.2-0.2-0.5-0.4-0.8-0.5c-0.3-0.1-0.7-0.2-1.1-0.3c-0.4-0.1-0.9-0.1-1.5-0.1h-7.9v27.5h-4.4v-60.8h15.5c7,0,12.2,1.4,15.7,4.1
			s5.2,6.7,5.2,11.9c0,2.3-0.4,4.4-1.2,6.4s-2,3.6-3.5,5c-1.5,1.4-3.3,2.6-5.5,3.5c-2.1,0.9-4.5,1.5-7.2,1.8c0.7,0.4,1.3,1,1.8,1.7
			L336,450.7z M309.1,419.9c2.7,0,5.1-0.3,7.2-1c2.1-0.6,3.9-1.6,5.4-2.8s2.6-2.6,3.4-4.3c0.8-1.7,1.2-3.6,1.2-5.7
			c0-4.3-1.4-7.5-4.2-9.6c-2.8-2.1-6.9-3.1-12.3-3.1h-11.1v26.5L309.1,419.9L309.1,419.9z"/>
		<path class="st1" d="M397.2,450.7h-3.4c-0.4,0-0.7-0.1-1-0.3s-0.5-0.5-0.6-0.8l-7.1-17.7h-29.9l-7.1,17.7
			c-0.1,0.3-0.3,0.6-0.6,0.8c-0.3,0.2-0.6,0.3-1,0.3h-3.4l24.9-60.8h4.3L397.2,450.7z M383.7,428.6l-12.4-30.7
			c-0.4-1-0.8-2.2-1.2-3.6c-0.2,0.7-0.4,1.3-0.6,2c-0.2,0.6-0.4,1.2-0.6,1.7l-12.4,30.7L383.7,428.6L383.7,428.6z"/>
		<path class="st1" d="M497.3,389.9v60.8h-3.8v-51.8c0-0.7,0-1.5,0.1-2.4L469.6,439c-0.4,0.7-1,1.1-1.7,1.1h-0.7
			c-0.7,0-1.3-0.4-1.7-1.1L441,396.4c0.1,0.9,0.1,1.7,0.1,2.4v51.8h-3.9v-60.8h3c0.4,0,0.7,0,0.9,0.1c0.2,0.1,0.5,0.3,0.7,0.7
			l24.5,42.3c0.4,0.8,0.8,1.7,1.1,2.6c0.2-0.5,0.4-0.9,0.6-1.4c0.2-0.4,0.4-0.9,0.6-1.3l23.8-42.2c0.2-0.4,0.5-0.6,0.7-0.7
			c0.2-0.1,0.6-0.1,1-0.1H497.3z"/>
		<path class="st1" d="M536.3,371.6l-14.1,12.3c-0.3,0.2-0.5,0.4-0.8,0.4c-0.3,0.1-0.6,0.1-0.9,0.1h-2.8l11.1-11.9
			c0.3-0.4,0.7-0.7,1.1-0.8c0.4-0.1,0.9-0.2,1.6-0.2H536.3z M524.4,450.7h-4.4v-60.8h4.4V450.7z"/>
	</g>
</g>
</svg>
