<?xml version="1.0" encoding="utf-8"?>
<!-- Generator: Adobe Illustrator 16.0.0, SVG Export Plug-In . SVG Version: 6.00 Build 0)  -->
<!DOCTYPE svg PUBLIC "-//W3C//DTD SVG 1.1//EN" "http://www.w3.org/Graphics/SVG/1.1/DTD/svg11.dtd">
<svg version="1.1" id="Layer_1" xmlns="http://www.w3.org/2000/svg" xmlns:xlink="http://www.w3.org/1999/xlink" x="0px" y="0px"
	 width="841.89px" height="595.276px" viewBox="0 0 841.89 595.276" enable-background="new 0 0 841.89 595.276"
	 xml:space="preserve">
<g>
	<g>
		<g>
			<path fill="#ffffff" d="M97.987,87.045c5.279-7.658,31.942-14.015,39.283-22.688c7.031-8.323-3.892-22.806-4.797-23.982
				c-0.149,0.37-2.525,2.375-22.454,13.16C85.029,67.055,96.82,88.733,97.987,87.045"/>
			<path fill="#ffffff" d="M152.017,185.307c-2.816,0.247-5.035,1.338-7.091,3.399c-9.826,9.586-19.443,13.364-32.106,13.364
				c-21.018,0-33.06-15.506-37.58-30.632c11.505,0.867,22.579,1.132,32.085,1.234c3.357,0.036,17.882,0.181,25.85-0.583
				c7.933-0.76,17.623-1.974,23.815-8.343c8.464-8.709,8.48-18.625,6.946-26.022c-1.735-8.373-6.271-16.539-12.577-22.939
				c-7.219-7.331-19.297-17.073-40.765-17.073c-16.435,0-31.615,6.81-42.755,19.166c-10.905,12.103-16.907,28.386-16.907,45.856
				v0.443c0,16.78,5.298,29.028,18.298,42.271c11.434,11.656,26.757,18.071,43.144,18.071c19.786,0,34.267-6.034,48.408-20.183
				c2.837-2.826,6.639-7.493,6.639-7.493S158.212,184.76,152.017,185.307 M110.162,118.948l0.489-0.002
				c21.567,0,28.433,11.576,30.501,16.836c2.456,6.253,2.09,11.917-0.165,13.629c-0.885,0.668-3.011,2.443-21.885,2.443
				c-16.142,0-35.582-0.532-44.542-1.398C78.158,131.417,92.007,119.101,110.162,118.948"/>
			<path fill="#ffffff" d="M506.307,215.05c8.879,6.351,20.936,10,33.092,10c21.422,0,38.475-7.924,48.936-20.93
				c2.965-3.676,10.723-12.083,10.723-29.188v-25.281c0-15.337-4.318-28.592-13.205-37.472c-9.352-9.354-22.73-14.089-39.775-14.089
				c-11.818,0-22.285,2.003-34.035,6.592l-0.066,0.026c-1.768,0.69-3.568,1.437-5.408,2.25c-0.367,0.155-11.109,4.861-11.109,4.861
				s6.145,10.694,6.613,11.332l0.086,0.142l0.016-0.013c1.982,2.637,5.119,4.416,8.506,4.416c1.549,0,3.322-0.438,4.848-1.207
				c10.074-4.796,19.568-7.025,29.883-7.025c19.992,0,30.951,10.775,31.783,28.417c-6.881-1.543-17.305-3.351-32.008-3.351
				c-17.34,0-30.926,3.286-40.377,9.77c-9.84,6.747-14.826,16.547-14.826,29.124v0.447
				C489.98,196.621,495.623,207.407,506.307,215.05 M512.691,182.76c0-5.387,2.043-8.788,6.045-11.452
				c5.748-3.832,12.66-5.997,25.777-5.859c14.313,0.147,25.518,2.165,32.943,3.915v4.936c0,16.747-16.074,29.377-37.387,29.377
				c-13.607,0-27.379-7.033-27.379-20.477V182.76z"/>
			<path fill="#ffffff" d="M593.35,238.011c-4.557,3.152-11.631,6.408-11.631,6.408c-34.213,15.554-72.793,6.279-103.357-17.234
				c-31.098-23.925-45.164-54.956-49.637-64.612l45.035-51.169l-8.041-7.044c-4.484-3.936-10.887-3.441-14.904,1.141l-35.563,40.934
				v0.026l-4.689,5.394V55.761h-11.137c-6.229,0-10.902,4.786-10.902,11.129v89.344l-0.004,0.008v56.12
				c0,5.604,3.658,9.982,8.805,10.926c0.301,0.062,0.611,0.102,0.922,0.134l0.01,0.005c0.457,0.052,0.922,0.086,1.393,0.086
				c0.221,0,0.426-0.021,0.639-0.031h10.254v-10.562c0.002-0.179,0.021-0.356,0.021-0.54v-38.194
				c5.545,10.953,20.475,38.99,50.266,63.687c15.305,12.69,34.301,23.793,55.742,29.354c10.242,2.657,20.775,3.978,31.961,3.638
				c20.242-0.612,43.27-7.797,62.742-24.732C601.314,231.725,596.863,235.581,593.35,238.011"/>
			<path fill="#ffffff" d="M130.946,39.13c0,0,0.026,0.033,0.062,0.083C131.048,39.121,130.946,39.13,130.946,39.13"/>
			<path fill="#ffffff" d="M332.773,84.626c7.068,0,12.611-5.446,12.611-12.387v-3.822c0-6.946-5.543-12.384-12.611-12.384
				c-6.941,0-12.386,5.438-12.386,12.384v3.822C320.388,79.181,325.832,84.626,332.773,84.626"/>
			<path fill="#ffffff" d="M354.006,205.428l-1.342,0.209c-3.27,0.518-5.586-0.283-6.998-2.467c-1.02-1.572-1.574-4.888-1.627-7.814
				V98.337h-11.26c-2.69,0-5.091,0.892-6.969,2.411c-2.507,2.025-4.068,5.179-4.068,8.857c0,8.014,0.005,33.947,0.014,55.763v1.018
				c0.003,17.442,0.015,32.001,0.021,32.21c0.059,2.492,0.188,4.895,0.373,6.955c0.277,3.125,0.542,6.078,2.048,8.815
				c1.546,2.813,3.115,4.878,6.127,6.468l0.073,0.038c2.516,1.329,4.498,2.379,8.92,2.379c0,0,1.006-0.014,1.566-0.034
				c4.441-0.209,7.867-1.724,10.191-4.511c4.023-4.828,3.15-11.649,3.107-11.939L354.006,205.428z"/>
			<path fill="#ffffff" d="M277.096,158.026c-7.64-4.585-17.738-6.834-29.174-9.101c-15.655-3.095-27.654-6.126-27.978-14.44
				l-0.019-0.438c-0.327-8.381,7.761-14.559,19.683-15.027c9.296-0.368,18.285,1.595,27.909,6.759
				c0.833,0.493,3.115,1.732,6.153,1.502c7.984-0.589,9.203-5.814,13.906-15.427c0.188-0.388-7.364-4.255-8.044-4.613
				c-4.887-2.528-9.941-4.751-15.213-6.351c-1.481-0.452-2.98-0.848-4.494-1.196c-1.959-0.443-3.943-0.806-5.925-1.118
				c-2.125-0.334-4.257-0.613-6.397-0.771c-2.762-0.206-5.529-0.278-8.296-0.168c-11.925,0.468-22.624,4.507-30.127,11.357
				c-7.728,7.066-11.759,16.744-11.343,27.259l0.016,0.437c0.911,23.095,22.976,28.474,40.71,32.797c0,0,6.352,1.54,7.669,1.847
				c16.144,3.771,22.269,5.882,22.555,13.137l0.019,0.449c0.371,9.424-8.33,16.366-21.163,16.872
				c-12.134,0.479-23.568-2.941-34.942-10.435c-1.909-1.313-4.524-2.043-6.975-1.945c-3.572,0.138-6.728,2.095-8.624,4.904
				l-5.264,9.666c0,0,9.653,6.38,9.649,6.359c13.063,8.419,31,13.432,46.331,12.828c12.061-0.476,23.024-4.542,30.857-11.457
				c8.521-7.518,12.782-17.546,12.326-29.005l-0.016-0.448C290.449,171.111,286.066,163.406,277.096,158.026"/>
		</g>
	</g>
	<g>
		<path fill="#ffffff" d="M75.629,266.287c7.13,0,12.505,1.561,16.128,4.682c3.622,3.121,5.434,7.574,5.434,13.357
			c0,2.663-0.501,5.111-1.503,7.345c-1.002,2.233-2.434,4.16-4.295,5.777c-1.862,1.618-4.124,2.877-6.787,3.78
			c-2.663,0.901-5.655,1.353-8.977,1.353H64.333v24.482h-4.424v-60.775H75.629z M75.629,299.058c2.663,0,5.053-0.372,7.173-1.117
			c2.119-0.744,3.915-1.775,5.39-3.093c1.475-1.316,2.605-2.87,3.393-4.66c0.788-1.789,1.181-3.743,1.181-5.863
			c0-4.667-1.432-8.261-4.295-10.781c-2.864-2.519-7.145-3.779-12.842-3.779H64.333v29.292H75.629z"/>
		<path fill="#ffffff" d="M156.29,327.062h-3.393c-0.401,0-0.73-0.107-0.988-0.322s-0.458-0.494-0.602-0.838l-7.13-17.652h-29.851
			l-7.13,17.652c-0.115,0.315-0.315,0.588-0.602,0.816c-0.287,0.229-0.63,0.344-1.031,0.344h-3.35l24.869-60.775h4.338
			L156.29,327.062z M142.847,304.985l-12.37-30.709c-0.43-1.002-0.845-2.205-1.246-3.608c-0.172,0.687-0.358,1.339-0.558,1.954
			c-0.201,0.616-0.416,1.181-0.645,1.697l-12.37,30.667H142.847z"/>
		<path fill="#ffffff" d="M213.027,327.062h-3.78c-0.487,0-0.896-0.078-1.224-0.236c-0.33-0.157-0.638-0.451-0.923-0.881
			l-19.5-24.653c-0.229-0.315-0.466-0.587-0.708-0.816c-0.244-0.229-0.516-0.408-0.816-0.537c-0.301-0.129-0.659-0.222-1.074-0.279
			c-0.416-0.057-0.924-0.086-1.525-0.086h-7.946v27.489h-4.424v-60.775h15.548c6.986,0,12.22,1.353,15.699,4.059
			c3.479,2.706,5.218,6.679,5.218,11.919c0,2.319-0.401,4.439-1.203,6.357c-0.802,1.918-1.954,3.601-3.458,5.046
			c-1.503,1.446-3.322,2.627-5.455,3.543c-2.133,0.917-4.531,1.532-7.194,1.847c0.688,0.429,1.303,1.002,1.847,1.718
			L213.027,327.062z M186.054,296.309c2.691,0,5.104-0.322,7.237-0.966c2.132-0.644,3.937-1.568,5.412-2.771
			c1.475-1.203,2.599-2.648,3.372-4.338c0.773-1.689,1.16-3.593,1.16-5.712c0-4.323-1.411-7.531-4.23-9.621
			c-2.821-2.09-6.937-3.135-12.349-3.135h-11.124v26.543H186.054z"/>
		<path fill="#ffffff" d="M274.189,327.062h-3.393c-0.401,0-0.73-0.107-0.988-0.322s-0.458-0.494-0.602-0.838l-7.13-17.652h-29.851
			l-7.13,17.652c-0.115,0.315-0.315,0.588-0.602,0.816c-0.287,0.229-0.63,0.344-1.031,0.344h-3.35l24.869-60.775h4.338
			L274.189,327.062z M260.746,304.985l-12.37-30.709c-0.43-1.002-0.845-2.205-1.246-3.608c-0.172,0.687-0.358,1.339-0.558,1.954
			c-0.201,0.616-0.416,1.181-0.645,1.697l-12.37,30.667H260.746z"/>
		<path fill="#ffffff" d="M374.265,266.287v60.775h-3.823v-51.799c0-0.744,0.043-1.531,0.129-2.362l-23.924,42.479
			c-0.401,0.745-0.974,1.116-1.718,1.116h-0.688c-0.744,0-1.317-0.371-1.718-1.116l-24.568-42.564
			c0.086,0.859,0.129,1.675,0.129,2.448v51.799h-3.866v-60.775h3.05c0.4,0,0.715,0.043,0.945,0.129
			c0.229,0.085,0.458,0.315,0.687,0.687l24.525,42.263c0.43,0.802,0.801,1.661,1.116,2.577c0.172-0.458,0.358-0.908,0.559-1.353
			c0.2-0.443,0.415-0.866,0.645-1.268l23.838-42.22c0.229-0.372,0.465-0.602,0.708-0.687c0.243-0.086,0.565-0.129,0.967-0.129
			H374.265z"/>
		<path fill="#ffffff" d="M413.306,247.989l-14.088,12.327c-0.258,0.229-0.516,0.373-0.772,0.429
			c-0.258,0.058-0.559,0.086-0.902,0.086h-2.792l11.081-11.897c0.344-0.4,0.694-0.658,1.053-0.773
			c0.357-0.114,0.881-0.172,1.567-0.172H413.306z M401.365,327.062h-4.424v-60.775h4.424V327.062z"/>
	</g>
</g>
</svg>
