<?xml version="1.0" encoding="utf-8"?>
<!-- Generator: Adobe Illustrator 22.1.0, SVG Export Plug-In . SVG Version: 6.00 Build 0)  -->
<svg width="98px" height="45px" version="1.1" id="Layer_1" xmlns="http://www.w3.org/2000/svg" xmlns:xlink="http://www.w3.org/1999/xlink" x="0px" y="0px"
	 viewBox="0 0 98 45" style="enable-background:new 0 0 98 45;" xml:space="preserve">
<style type="text/css">
	.st0{fill:#FFFFFF;}
	.st1{fill:#C39934;}
	.st2{fill-rule:evenodd;clip-rule:evenodd;fill:#C39934;}
</style>
<title>etiqueta-club-ganamás/blanco-independiente</title>
<desc>Created with Sketch.</desc>
<polygon id="bg" class="st0" points="97.1,0 0,0 0,45 85,45 "/>
<g>
	<path class="st1" d="M15,23.1v-0.1c0-3.6,2.6-6.2,6.1-6.2c2.7,0,5.1,1.2,5.4,4.2h-2.7c-0.2-1.4-1.2-2.1-2.6-2.1
		c-2.1,0-3.3,1.6-3.3,4v0.1c0,2.3,1,4,3.4,4c2,0,2.8-1.2,2.9-2.5h-2.7v-2h5.4v1.3c0,3.2-2.1,5.4-5.7,5.4C17.2,29.2,15,26.7,15,23.1z
		"/>
	<path class="st1" d="M31.1,17h3.6L38.6,29h-2.8l-0.8-2.7h-4.4L29.7,29h-2.6L31.1,17z M31.1,24.4h3.2l-1.6-5.2L31.1,24.4z"/>
	<path class="st1" d="M40.2,17h3.2l4.6,7.9V17h2.4V29h-2.7l-5-8.6V29h-2.4V17z"/>
	<path class="st1" d="M56,17h3.6L63.5,29h-2.8l-0.8-2.7h-4.4L54.6,29h-2.6L56,17z M56.1,24.4h3.2l-1.6-5.2L56.1,24.4z"/>
	<polygon class="st2" points="73,20.3 69.5,20.3 69.5,16.9 67,16.9 67,20.3 63.5,20.3 63.5,22.8 67,22.8 67,26.2 69.5,26.2 
		69.5,22.8 73,22.8 	"/>
</g>
</svg>
