<?xml version="1.0" encoding="UTF-8"?>
<svg width="98px" height="45px" viewBox="0 0 98 45" version="1.1" xmlns="http://www.w3.org/2000/svg" xmlns:xlink="http://www.w3.org/1999/xlink">
    <!-- Generator: Sketch 48.2 (47327) - http://www.bohemiancoding.com/sketch -->
    <title>etiqueta-ganamás/l'bel</title>
    <desc>Created with Sketch.</desc>
    <defs></defs>
    <g id="Symbols" stroke="none" stroke-width="1" fill="none" fill-rule="evenodd">
        <g id="etiqueta-ganamás/l'bel">
            <polygon id="bg" fill="#613C87" transform="translate(48.533737, 22.500000) scale(-1, 1) translate(-48.533737, -22.500000) " points="1.13686838e-13 0 97.0674744 0 97.0674744 45 12.0601196 45"></polygon>
            <g id="logo-ganamás/blanco" transform="translate(15.000000, 14.000000)" fill="#FFFFFF">
                <g>
                    <polygon id="Fill-18" points="57.2368912 3.83774436 53.7703827 3.83774436 53.7703827 0.49093985 51.3558874 0.49093985 51.3558874 3.83774436 47.8894607 3.83774436 47.8894607 6.21655747 51.3558874 6.21655747 51.3558874 9.56336198 53.7703827 9.56336198 53.7703827 6.21655747 57.2368912 6.21655747"></polygon>
                    <path d="M40.5371185,11.0129646 L43.6784399,11.0129646 L42.1161195,5.95292159 L40.5371185,11.0129646 Z M40.5205198,3.79145542 L44.0275029,3.79145542 L47.8834672,15.4996724 L45.0746101,15.4996724 L44.2601298,12.896101 L39.9554287,12.896101 L39.1409484,15.4996724 L36.614596,15.4996724 L40.5205198,3.79145542 Z" id="Fill-7"></path>
                    <polygon id="Fill-5" points="24.9465468 3.79148765 28.0712695 3.79148765 32.5920806 11.5041622 32.5920806 3.79148765 34.9853983 3.79148765 34.9853983 15.4997046 32.2929773 15.4997046 27.3399462 7.16479592 27.3399462 15.4997046 24.9465468 15.4997046"></polygon>
                    <path d="M15.9711068,11.0129646 L19.1124282,11.0129646 L17.5501077,5.95292159 L15.9711068,11.0129646 Z M15.9545081,3.79145542 L19.4614912,3.79145542 L23.3175372,15.4996724 L20.5085983,15.4996724 L19.694118,12.896101 L15.3894169,12.896101 L14.5750184,15.4996724 L12.0485842,15.4996724 L15.9545081,3.79145542 Z" id="Fill-3"></path>
                    <path d="M0.0644895677,9.71922664 L0.0644895677,9.58831901 C0.0644895677,6.06758861 2.60752246,3.61135875 6.11450555,3.61135875 C8.75721231,3.61135875 11.1173326,4.80676692 11.3999191,7.7051826 L8.72393318,7.7051826 C8.4913063,6.32956498 7.57715216,5.70733083 6.14770291,5.70733083 C4.086686,5.70733083 2.87351024,7.23029001 2.87351024,9.62102578 L2.87351024,9.75209452 C2.87351024,12.0117615 3.85405912,13.6329216 6.18098205,13.6329216 C8.1754407,13.6329216 8.98983919,12.5030881 9.03979878,11.1602578 L6.36381288,11.1602578 L6.36381288,9.22798067 L11.6991042,9.22798067 L11.6991042,10.4725295 C11.6991042,13.6002148 9.67136645,15.6798335 6.11450555,15.6798335 C2.22534389,15.6798335 0.0644895677,13.1908163 0.0644895677,9.71922664" id="Fill-1"></path>
                </g>
            </g>
        </g>
    </g>
</svg>