<?xml version="1.0" encoding="UTF-8"?>
<svg width="80px" height="80px" viewBox="0 0 80 80" version="1.1" xmlns="http://www.w3.org/2000/svg" xmlns:xlink="http://www.w3.org/1999/xlink">
    <!-- Generator: Sketch 54 (76480) - https://sketchapp.com -->
    <title>nuevo</title>
    <desc>Created with Sketch.</desc>
    <defs>
        <path d="M0,0.597014925 L80,0.597014925 L80,80 C36.1480597,80 0,44.4501493 0,0.597014925 Z" id="path-1"></path>
        <linearGradient x1="93.0555556%" y1="17.2839506%" x2="-191.388889%" y2="17.2839506%" id="linearGradient-3">
            <stop stop-color="#815FA7" offset="0%"></stop>
            <stop stop-color="#50358A" offset="100%"></stop>
        </linearGradient>
        <path d="M0,0 C0,44.1828571 36.1480597,80 80,80 L80,80 L80,0 L0,0 Z" id="path-4"></path>
        <linearGradient x1="174.932836%" y1="0%" x2="20.3134328%" y2="0%" id="linearGradient-6">
            <stop stop-color="#815FA7" offset="0%"></stop>
            <stop stop-color="#50358A" offset="100%"></stop>
        </linearGradient>
    </defs>
    <g id="nuevo" stroke="none" stroke-width="1" fill="none" fill-rule="evenodd">
        <g id="Group-7-Copy-2">
            <g id="Group-3">
                <mask id="mask-2" fill="white">
                    <use xlink:href="#path-1"></use>
                </mask>
                <g id="Clip-2"></g>
                <polygon id="Fill-1" fill="url(#linearGradient-3)" mask="url(#mask-2)" points="-241.19403 1441.19403 188.656716 1441.19403 188.656716 -396.41791 -241.19403 -396.41791"></polygon>
            </g>
            <g id="Group-6">
                <mask id="mask-5" fill="white">
                    <use xlink:href="#path-4"></use>
                </mask>
                <g id="Clip-5"></g>
                <path d="M0,0 C0,44.1828571 36.1480597,80 80,80 L80,80 L80,0 L0,0 Z" id="Fill-4" fill="url(#linearGradient-6)" mask="url(#mask-5)"></path>
            </g>
        </g>
        <path d="M22.009,25.878 C22.0930004,25.878 22.1629997,25.8815 22.219,25.8885 C22.2750003,25.8955 22.3251664,25.9094999 22.3695,25.9305 C22.4138336,25.9515001 22.4569998,25.9818331 22.499,26.0215 C22.5410002,26.0611669 22.5876664,26.1136663 22.639,26.179 L27.952,32.948 C27.9333332,32.7846658 27.9205,32.6248341 27.9135,32.4685 C27.9065,32.3121659 27.903,32.166334 27.903,32.031 L27.903,25.878 L29.562,25.878 L29.562,36 L28.589,36 C28.4396659,36 28.3160005,35.9766669 28.218,35.93 C28.1199995,35.8833331 28.0243338,35.7993339 27.931,35.678 L22.639,28.937 C22.6530001,29.0863341 22.6635,29.2344993 22.6705,29.3815 C22.6775,29.5285007 22.681,29.6626661 22.681,29.784 L22.681,36 L21.022,36 L21.022,25.878 L22.009,25.878 Z M36.68,34.481 C37.0440018,34.481 37.3694986,34.4203339 37.6565,34.299 C37.9435014,34.1776661 38.1861657,34.0073344 38.3845,33.788 C38.5828343,33.5686656 38.7344995,33.3026682 38.8395,32.99 C38.9445005,32.6773318 38.997,32.3273353 38.997,31.94 L38.997,25.878 L40.88,25.878 L40.88,31.94 C40.88,32.542003 40.7831676,33.0984974 40.5895,33.6095 C40.3958324,34.1205026 40.1170018,34.5614981 39.753,34.9325 C39.3889982,35.3035019 38.9480026,35.5928323 38.43,35.8005 C37.9119974,36.0081677 37.3286699,36.112 36.68,36.112 C36.0313301,36.112 35.4480026,36.0081677 34.93,35.8005 C34.4119974,35.5928323 33.9721685,35.3035019 33.6105,34.9325 C33.2488315,34.5614981 32.9711676,34.1205026 32.7775,33.6095 C32.5838324,33.0984974 32.487,32.542003 32.487,31.94 L32.487,25.878 L34.37,25.878 L34.37,31.933 C34.37,32.3203353 34.4224995,32.6703318 34.5275,32.983 C34.6325005,33.2956682 34.782999,33.5628322 34.979,33.7845 C35.175001,34.0061678 35.4164986,34.1776661 35.7035,34.299 C35.9905014,34.4203339 36.3159982,34.481 36.68,34.481 Z M50.182,25.878 L50.182,27.376 L45.695,27.376 L45.695,30.183 L49.23,30.183 L49.23,31.632 L45.695,31.632 L45.695,34.495 L50.182,34.495 L50.182,36 L43.798,36 L43.798,25.878 L50.182,25.878 Z M51.819,25.878 L53.338,25.878 C53.5013341,25.878 53.6343328,25.9176663 53.737,25.997 C53.8396672,26.0763337 53.9166664,26.1789994 53.968,26.305 L56.348,32.479 C56.4273337,32.6796677 56.5031663,32.9001655 56.5755,33.1405 C56.6478337,33.3808345 56.7166663,33.6339987 56.782,33.9 C56.8893339,33.3633307 57.0223325,32.8896687 57.181,32.479 L59.554,26.305 C59.5960002,26.1976661 59.6706661,26.0996671 59.778,26.011 C59.8853339,25.9223329 60.0183325,25.878 60.177,25.878 L61.696,25.878 L57.608,36 L55.907,36 L51.819,25.878 Z M73.07,30.939 C73.07,31.6810037 72.9463346,32.3681635 72.699,33.0005 C72.4516654,33.6328365 72.1040022,34.1799977 71.656,34.642 C71.2079978,35.1040023 70.6690031,35.4644987 70.039,35.7235 C69.4089968,35.9825013 68.7113372,36.112 67.946,36.112 C67.1806628,36.112 66.4818365,35.9825013 65.8495,35.7235 C65.2171635,35.4644987 64.6758356,35.1040023 64.2255,34.642 C63.7751644,34.1799977 63.4263346,33.6328365 63.179,33.0005 C62.9316654,32.3681635 62.808,31.6810037 62.808,30.939 C62.808,30.1969963 62.9316654,29.5098365 63.179,28.8775 C63.4263346,28.2451635 63.7751644,27.6980023 64.2255,27.236 C64.6758356,26.7739977 65.2171635,26.4135013 65.8495,26.1545 C66.4818365,25.8954987 67.1806628,25.766 67.946,25.766 C68.7113372,25.766 69.4089968,25.8966654 70.039,26.158 C70.6690031,26.4193346 71.2079978,26.779831 71.656,27.2395 C72.1040022,27.699169 72.4516654,28.2451635 72.699,28.8775 C72.9463346,29.5098365 73.07,30.1969963 73.07,30.939 Z M71.138,30.939 C71.138,30.3836639 71.0645007,29.8855022 70.9175,29.4445 C70.7704993,29.0034978 70.5593347,28.6290015 70.284,28.321 C70.0086653,28.0129985 69.6738353,27.7773342 69.2795,27.614 C68.8851647,27.4506659 68.4406691,27.369 67.946,27.369 C67.4513309,27.369 67.0056687,27.4506659 66.609,27.614 C66.2123313,27.7773342 65.8751681,28.0129985 65.5975,28.321 C65.3198319,28.6290015 65.1063341,29.0034978 64.957,29.4445 C64.8076659,29.8855022 64.733,30.3836639 64.733,30.939 C64.733,31.4943361 64.8076659,31.9924978 64.957,32.4335 C65.1063341,32.8745022 65.3198319,33.2478318 65.5975,33.5535 C65.8751681,33.8591682 66.2123313,34.0936659 66.609,34.257 C67.0056687,34.4203342 67.4513309,34.502 67.946,34.502 C68.4406691,34.502 68.8851647,34.4203342 69.2795,34.257 C69.6738353,34.0936659 70.0086653,33.8591682 70.284,33.5535 C70.5593347,33.2478318 70.7704993,32.8745022 70.9175,32.4335 C71.0645007,31.9924978 71.138,31.4943361 71.138,30.939 Z" id="NUEVO" fill="#FFFFFF" fill-rule="nonzero"></path>
    </g>
</svg>