<svg xmlns="http://www.w3.org/2000/svg" width="20" height="18" viewBox="0 0 20 18">
    <path fill="#000" fill-rule="evenodd" stroke="#000" stroke-width=".5" d="M5.472 14.02a1.22 1.22 0 0 0-1.224 1.224 1.22 1.22 0 0 0 1.224 1.223 1.22 1.22 0 0 0 1.224-1.223 1.22 1.22 0 0 0-1.224-1.224zm6.156 0a1.22 1.22 0 0 0-1.223 1.224 1.22 1.22 0 0 0 1.223 1.223 1.22 1.22 0 0 0 1.224-1.223 1.22 1.22 0 0 0-1.224-1.224zm-6.156-.445c.919 0 1.669.75 1.669 1.669 0 .918-.75 1.668-1.669 1.668s-1.669-.75-1.669-1.668c0-.92.75-1.669 1.67-1.669zm6.156 0c.92 0 1.67.75 1.67 1.669 0 .918-.75 1.668-1.67 1.668-.918 0-1.668-.75-1.668-1.668 0-.92.75-1.669 1.668-1.669zm4.04-9.46H1.375l1.74 7.699h10.813l1.74-7.7zM18.794 1c.122 0 .21.11.206.222-.002.12-.086.226-.206.223h-2.1l-.577 2.489c-.63 3.41-1.275 5.226-1.817 8.144-.018.102-.11.183-.205.18H2.948c-.095.003-.187-.078-.205-.18L.926 3.934c-.03-.133.08-.263.199-.264h14.633l.577-2.503c.023-.095.11-.167.2-.167h2.26z"/>
</svg>
