<?xml version="1.0" encoding="utf-8"?>
<!-- Generator: Adobe Illustrator 22.1.0, SVG Export Plug-In . SVG Version: 6.00 Build 0)  -->
<svg version="1.1" id="Layer_1" xmlns="http://www.w3.org/2000/svg" xmlns:xlink="http://www.w3.org/1999/xlink" x="0px" y="0px"
	 viewBox="0 0 10 11" style="enable-background:new 0 0 10 11;" xml:space="preserve">
<title>ícono/filtro</title>
<desc>Created with Sketch.</desc>
<g id="mobile">
	<g id="buscador-mobile---filtros-sin-resultados" transform="translate(-50.000000, -198.000000)">
		<g id="orden-y-filtros" transform="translate(0.000000, 176.000000)">
			<g id="filtrar" transform="translate(10.000000, 5.000000)">
				<g id="texto-_x26_-ícono" transform="translate(40.000000, 15.000000)">
					<path id="ícono_x2F_filtro" d="M9.4,2.8L5.6,7.6C5.6,7.7,5.5,7.8,5.5,7.9v4.3l-1-0.6V7.9c0-0.1,0-0.2-0.1-0.3L0.6,2.8H9.4z
						 M0.6,2.1c-0.2,0-0.5,0.1-0.6,0.4C0,2.7,0,3,0.1,3.2L3.9,8v3.6c0,0.2,0.1,0.4,0.3,0.5l1,0.6c0.1,0.1,0.2,0.1,0.3,0.1
						c0.1,0,0.2,0,0.3-0.1c0.2-0.1,0.3-0.3,0.3-0.5V8l3.7-4.8C10,3,10,2.7,9.9,2.5C9.8,2.3,9.6,2.1,9.4,2.1H0.6z"/>
				</g>
			</g>
		</g>
	</g>
</g>
</svg>
