<?xml version="1.0" encoding="UTF-8"?>
<svg width="21px" height="20px" viewBox="0 0 21 20" version="1.1" xmlns="http://www.w3.org/2000/svg" xmlns:xlink="http://www.w3.org/1999/xlink">
    <!-- Generator: Sketch 51.3 (57544) - http://www.bohemiancoding.com/sketch -->
    <title>flecha</title>
    <desc>Created with Sketch.</desc>
    <defs></defs>
    <g id="mobile" stroke="none" stroke-width="1" fill="none" fill-rule="evenodd">
        <g id="buscador-inicio" transform="translate(-10.000000, -40.000000)" fill="#000000">
            <g id="header" transform="translate(0.000000, 20.000000)">
                <path d="M30.5227273,29.5237829 L11.6790455,29.5237829 L20.8235909,20.841856 C21.0164091,20.6589984 21.0269091,20.3513786 20.8474545,20.1551876 C20.668,19.9580443 20.3644545,19.947568 20.1725909,20.1304256 L10.1517727,29.6437832 C10.0553636,29.7361644 10,29.8647361 10,29.9999746 C10,30.135213 10.0553636,30.2628324 10.1517727,30.3561659 L20.1725909,39.8695235 C20.2642273,39.9571427 20.3816364,40 20.4980909,40 C20.626,40 20.7539091,39.9476189 20.8474545,39.8457139 C21.0269091,39.6485705 21.0164091,39.3409507 20.8235909,39.1571407 L11.6790455,30.4761662 L30.5227273,30.4761662 C30.7861818,30.4761662 31,30.2628324 31,29.9999746 C31,29.7371167 30.7861818,29.5237829 30.5227273,29.5237829" id="flecha"></path>
            </g>
        </g>
    </g>
</svg>