<svg width="24" height="19" viewBox="0 0 24 19" fill="none" xmlns="http://www.w3.org/2000/svg">
<path fill-rule="evenodd" clip-rule="evenodd" d="M0 9.72094C0 14.8147 4.14528 18.96 9.24096 18.96C14.3347 18.96 18.48 14.8166 18.48 9.72094C18.48 4.62526 14.3347 0.47998 9.24096 0.47998C4.1472 0.47998 0 4.62334 0 9.72094ZM1.92 9.72094C1.92 5.68318 5.20128 2.39998 9.24096 2.39998C13.2787 2.39998 16.56 5.68318 16.56 9.72094C16.56 13.7587 13.2768 17.0419 9.24096 17.0419C5.2032 17.0419 1.92 13.7587 1.92 9.72094Z" fill="#B9007E"/>
<path fill-rule="evenodd" clip-rule="evenodd" d="M9.24087 13.6127C9.18519 13.6127 9.12951 13.6089 9.07575 13.5993C8.79927 13.5532 8.55927 13.3862 8.41527 13.1462L5.13783 7.62618C4.86903 7.16922 5.01687 6.57978 5.47383 6.30714C5.92503 6.03642 6.51831 6.1881 6.78903 6.64314L9.49623 11.2012L22.2585 0.698824C22.6674 0.360904 23.2722 0.418504 23.6101 0.829384C23.9461 1.23834 23.8885 1.84122 23.4796 2.17914L9.84951 13.3958C9.67863 13.5359 9.46359 13.6127 9.24087 13.6127Z" fill="#B9007E"/>
</svg>
