<svg width="52" height="28" viewBox="0 0 52 28" version="1.1" xmlns="http://www.w3.org/2000/svg" xmlns:xlink="http://www.w3.org/1999/xlink">
<title>Group</title>
<desc>Created using Figma</desc>
<g id="Canvas" transform="matrix(2 0 0 2 8664 1520)">
<g id="Group">
<g id="Vector 5">
<use xlink:href="#path0_stroke" transform="translate(-4326 -759)"/>
</g>
<g id="Vector 5">
<use xlink:href="#path0_stroke" transform="matrix(-1 1.02204e-16 -1.46742e-16 -1 -4312 -747)"/>
</g>
<g id="Vector 6">
<use xlink:href="#path1_stroke" transform="translate(-4321.08 -757.327)"/>
</g>
<g id="Rectangle 26">
<mask id="mask0_outline_ins">
<use xlink:href="#path2_fill" fill="white" transform="translate(-4332 -760)"/>
</mask>
<g mask="url(#mask0_outline_ins)">
<use xlink:href="#path3_stroke_2x" transform="translate(-4332 -760)"/>
</g>
</g>
</g>
</g>
<defs>
<path id="path0_stroke" d="M 3.56195 0.461843C 3.81702 0.356038 3.93802 0.0634927 3.83222 -0.191576C 3.72641 -0.446645 3.43387 -0.567647 3.1788 -0.461843L 3.56195 0.461843ZM 3.62493 12.4816C 3.89092 12.5558 4.16669 12.4003 4.24088 12.1343C 4.31507 11.8683 4.15959 11.5926 3.8936 11.5184L 3.62493 12.4816ZM 3.1788 -0.461843C 1.88347 0.0754722 -0.5 2.13566 -0.5 6.17476L 0.5 6.17476C 0.5 2.57113 2.61037 0.856567 3.56195 0.461843L 3.1788 -0.461843ZM -0.5 6.17476C -0.488529 7.79581 0.197366 9.31478 1.01115 10.3941C 1.82611 11.4701 2.84901 12.2652 3.62493 12.4816L 3.8936 11.5184C 3.41643 11.3853 2.5597 10.7824 1.8083 9.79034C 1.05572 8.80173 0.488529 7.58284 0.5 6.17476L -0.5 6.17476Z"/>
<path id="path1_stroke" d="M 3.36029 2.45606C 3.52179 2.68005 3.83429 2.73071 4.05829 2.56921C 4.28228 2.40771 4.33294 2.09521 4.17144 1.87122L 3.36029 2.45606ZM 1.29586 4.32727L 1.07603 4.77636L 1.29586 4.32727ZM 0.701163 6.64531C 0.575565 6.39939 0.274385 6.30184 0.0284586 6.42744C -0.217468 6.55304 -0.315013 6.85422 -0.189415 7.10014L 0.701163 6.64531ZM 2.44587 0C 2.44587 -0.276142 2.22202 -0.5 1.94587 -0.5C 1.66973 -0.5 1.44587 -0.276142 1.44587 0L 2.44587 0ZM 1.44587 9.03636C 1.44587 9.31251 1.66973 9.53636 1.94587 9.53636C 2.22202 9.53636 2.44587 9.31251 2.44587 9.03636L 1.44587 9.03636ZM 4.17144 1.87122C 3.88605 1.4783 3.31171 0.920149 2.66317 0.65203C 1.94052 0.36547 1.07599 0.406444 0.296078 1.16999L 0.99565 1.88456C 1.46374 1.42629 1.8992 1.42484 2.29456 1.58161C 2.76402 1.75683 3.12567 2.12777 3.36029 2.45606L 4.17144 1.87122ZM 0.296078 1.16999C -0.143705 1.60055 -0.401395 2.04117 -0.476907 2.49042C -0.535775 2.91684 -0.412563 3.36837 -0.235445 3.66581C 0.135551 4.27117 0.799971 4.64122 1.07603 4.77636L 1.51569 3.87819C 1.27176 3.75878 0.831176 3.49247 0.617173 3.14328C 0.501791 2.96345 0.462502 2.85816 0.509259 2.65618C 0.539372 2.47702 0.655433 2.21764 0.99565 1.88456L 0.296078 1.16999ZM 1.07603 4.77636C 1.25977 4.8663 1.54753 4.93845 1.76649 4.9997C 2.01811 5.07006 2.27291 5.14501 2.51664 5.25867C 2.98764 5.47566 3.26586 5.75495 3.26586 6.23636L 4.26586 6.23636C 4.26586 5.19051 3.56909 4.64252 2.93508 4.35042C 2.62631 4.20954 2.29611 4.10948 2.03587 4.03667C 1.74294 3.95473 1.59196 3.91552 1.51569 3.87819L 1.07603 4.77636ZM 3.26586 6.23636C 3.26586 6.92147 3.09188 7.23292 2.91532 7.38849C 2.72622 7.55511 2.42082 7.64546 1.94587 7.64546L 1.94587 8.64546C 2.51093 8.64546 3.11553 8.54489 3.57642 8.13878C 4.04985 7.72163 4.26586 7.07853 4.26586 6.23636L 3.26586 6.23636ZM 1.94587 7.64546C 1.70343 7.64546 1.45024 7.52002 1.20662 7.29836C 0.956955 7.07603 0.794934 6.83093 0.701163 6.64531L -0.189415 7.10014C -0.0665194 7.33877 0.200459 7.73003 0.53363 8.03801C 0.872837 8.34664 1.35632 8.64546 1.94587 8.64546L 1.94587 7.64546ZM 1.44587 0L 1.44587 9.03636L 2.44587 9.03636L 2.44587 0L 1.44587 0Z"/>
<path id="path2_fill" d="M 0 0L 26 0L 26 14L 0 14L 0 0Z"/>
<path id="path3_stroke_2x" d="M 0 0L 0 -1L -1 -1L -1 0L 0 0ZM 26 0L 27 0L 27 -1L 26 -1L 26 0ZM 26 14L 26 15L 27 15L 27 14L 26 14ZM 0 14L -1 14L -1 15L 0 15L 0 14ZM 0 1L 26 1L 26 -1L 0 -1L 0 1ZM 25 0L 25 14L 27 14L 27 0L 25 0ZM 26 13L 0 13L 0 15L 26 15L 26 13ZM 1 14L 1 0L -1 0L -1 14L 1 14Z"/>
</defs>
</svg>
