<svg width="47" height="36" viewBox="0 0 47 36" fill="none" xmlns="http://www.w3.org/2000/svg">
<path fill-rule="evenodd" clip-rule="evenodd" d="M0 0.603271C0 0.241211 0.243652 0 0.609375 0H44.3525C44.7183 0 44.9619 0.241211 44.9619 0.603271V33.3542C44.9619 33.7161 44.7183 33.9573 44.3525 33.9573H0.609375C0.243652 33.9573 0 33.7161 0 33.3542V0.603271ZM43.7432 25.6941V1.2063H1.21826V29.7957L11.7583 18.8787C11.8799 18.7581 12.0625 18.6978 12.1846 18.6978C12.3066 18.6978 12.4893 18.7581 12.6108 18.8787L19.1909 25.9958L30.3398 14.4756C30.5835 14.2344 30.9492 14.1741 31.1929 14.4153L43.7432 25.6941ZM1.21826 31.5449L12.1235 20.1453L23.8208 32.8115H1.21826V31.5449ZM20.0439 26.9004L25.4663 32.8113V32.751H43.8042V27.3228L30.8276 15.6819L20.0439 26.9004Z" transform="translate(1 1)" fill="black"/>
<path fill-rule="evenodd" clip-rule="evenodd" d="M0.301083 0.296198C0.503878 0.0954335 0.776029 0 1.05982 0H44.803C45.0868 0 45.3589 0.0954335 45.5617 0.296198C45.7649 0.497362 45.8628 0.769033 45.8628 1.05372V33.8047C45.8628 34.0893 45.7649 34.361 45.5617 34.5621C45.3589 34.7627 45.0868 34.8582 44.803 34.8582H1.05982C0.776033 34.8582 0.50391 34.7627 0.301129 34.5621C0.0979356 34.361 0 34.0893 0 33.8047V1.05372C0 0.769033 0.0978825 0.497362 0.301083 0.296198ZM0.9349 0.936429C0.924844 0.946385 0.9009 0.976349 0.9009 1.05372V33.8047C0.9009 33.8819 0.924791 33.9118 0.934854 33.9217C0.94533 33.9321 0.977895 33.9573 1.05982 33.9573H25.9435L19.8765 27.3436L31.2549 15.5064L44.7051 27.5722V33.6519H26.3672V33.9573H44.803C44.8849 33.9573 44.9175 33.9321 44.928 33.9217C44.938 33.9118 44.9619 33.8819 44.9619 33.8047V1.05372C44.9619 0.976349 44.938 0.946385 44.9279 0.936429C44.9175 0.926072 44.8849 0.9009 44.803 0.9009H1.05982C0.977898 0.9009 0.945362 0.926072 0.9349 0.936429ZM26.0595 32.751H43.8042V27.9743L31.3012 16.7582L21.1123 27.358L26.0595 32.751ZM1.21826 1.2063H44.6441V27.155L31.3341 15.1935L31.3264 15.1858C31.3133 15.1729 31.3035 15.1683 31.2971 15.1661C31.2899 15.1637 31.2785 15.1615 31.2612 15.1632C31.2246 15.1669 31.1668 15.1883 31.11 15.2434L19.6339 27.1018L12.7401 19.6453C12.7295 19.6361 12.71 19.6231 12.6824 19.6122C12.6679 19.6065 12.6546 19.6027 12.6442 19.6005C12.64 19.5996 12.6369 19.5992 12.635 19.5989C12.6331 19.5992 12.63 19.5996 12.6259 19.6005C12.6155 19.6027 12.6021 19.6065 12.5876 19.6122C12.5581 19.6239 12.5379 19.6378 12.5279 19.6471L1.21826 31.3612V1.2063ZM2.11916 2.1072V29.131L11.8914 19.0092C12.1035 18.7989 12.403 18.6978 12.635 18.6978C12.867 18.6978 13.1664 18.7989 13.3785 19.0093L13.3854 19.0162L19.6488 25.7908L30.4733 14.6058C30.8282 14.2545 31.4769 14.0772 31.9515 14.5371L43.7432 25.1341V2.1072H2.11916ZM12.5798 19.938L25.3004 33.7124H1.21826V31.8146L12.5798 19.938ZM2.11916 32.1761V32.8115H23.2421L12.5682 21.2534L2.11916 32.1761Z" transform="translate(0.549805 0.549561)" fill="black"/>
<path fill-rule="evenodd" clip-rule="evenodd" d="M10.8442 5.36792C10.8442 8.32349 8.40771 10.7361 5.42236 10.7361C2.43701 10.7361 0 8.32349 0 5.36792C0 2.4126 2.43701 0 5.42236 0C8.40771 0 10.8442 2.4126 10.8442 5.36792ZM9.62598 5.36792C9.62598 3.07617 7.7373 1.2063 5.42188 1.2063C3.10693 1.2063 1.21826 3.07617 1.21826 5.36792C1.21826 7.65991 3.10693 9.52979 5.42188 9.52979C7.7373 9.52979 9.62598 7.65991 9.62598 5.36792Z" transform="translate(14.8906 7.27271)" fill="black"/>
</svg>
