<svg width="22" height="22" viewBox="0 0 22 22" fill="none" xmlns="http://www.w3.org/2000/svg">
<path fill-rule="evenodd" clip-rule="evenodd" d="M17.1483 8.93608L12.9767 4.76454L16.1235 1.55962L20.4331 5.65117L17.1483 8.93608ZM8.10031 17.984L7.73695 16.5233C7.71632 16.4433 7.64983 16.3768 7.56977 16.3561L5.9035 15.9925L5.41134 14.423C5.38977 14.3473 5.32717 14.2847 5.25146 14.2631L4.00147 13.907L12.6497 5.09157L14.4957 6.9375L16.8212 9.26311L8.10031 17.984ZM4.234 19.4811L2.51166 17.7588L3.7035 14.2994L4.9971 14.6701L5.4259 16.1744C5.44653 16.2545 5.51299 16.321 5.59305 16.3416L7.32268 16.7704L7.7006 18.2893L4.234 19.4811ZM1.60321 20.3896L2.33722 18.2529L3.73985 19.6556L1.60321 20.3896ZM20.921 5.48114C20.8868 5.45192 16.3265 1.11994 16.2907 1.07997C16.2481 1.03243 16.1851 1 16.1163 1C16.0429 1 15.9772 1.03409 15.9346 1.08721C15.9029 1.12682 3.42707 13.8228 3.39671 13.853C3.3713 13.8784 3.35152 13.9093 3.34014 13.9433C3.34014 13.9433 1.02458 20.6553 1.01453 20.6803C1.00398 20.7065 1 20.7375 1 20.7675C1 20.8959 1.10414 21 1.23256 21C1.26074 21 1.28756 20.9949 1.31253 20.9855C1.33935 20.9754 8.04943 18.6599 8.04943 18.6599C8.08191 18.6491 8.11022 18.6305 8.13332 18.6067C8.14837 18.5912 20.8825 5.85235 20.9159 5.82552C20.967 5.78431 21 5.72243 21 5.65117C21 5.58236 20.9693 5.52227 20.921 5.48114Z" fill="black"/>
<path d="M17.1483 8.93608L16.9715 9.11286L17.1483 9.28963L17.325 9.11286L17.1483 8.93608ZM12.9767 4.76454L12.7984 4.58939L12.6248 4.76615L12.8 4.94131L12.9767 4.76454ZM16.1235 1.55962L16.2957 1.37832L16.1174 1.20905L15.9452 1.38447L16.1235 1.55962ZM20.4331 5.65117L20.6099 5.82794L20.7913 5.64652L20.6053 5.46986L20.4331 5.65117ZM8.10031 17.984L7.8577 18.0444L7.96443 18.4735L8.27708 18.1608L8.10031 17.984ZM7.73695 16.5233L7.97957 16.4629L7.97903 16.4609L7.73695 16.5233ZM7.56977 16.3561L7.63222 16.1139L7.62307 16.1119L7.56977 16.3561ZM5.9035 15.9925L5.66496 16.0673L5.70839 16.2059L5.85021 16.2368L5.9035 15.9925ZM5.41134 14.423L5.17083 14.4915L5.17279 14.4978L5.41134 14.423ZM5.25146 14.2631L5.31996 14.0227L5.31995 14.0227L5.25146 14.2631ZM4.00147 13.907L3.82301 13.7319L3.52845 14.0322L3.93297 14.1474L4.00147 13.907ZM12.6497 5.09157L12.8265 4.91479L12.648 4.73632L12.4712 4.91649L12.6497 5.09157ZM14.4957 6.9375L14.6724 6.76073L14.6724 6.76072L14.4957 6.9375ZM16.8212 9.26311L16.998 9.43989L17.1748 9.26311L16.998 9.08634L16.8212 9.26311ZM4.234 19.4811L4.05723 19.6579L4.16763 19.7683L4.31529 19.7175L4.234 19.4811ZM2.51166 17.7588L2.2753 17.6773L2.2244 17.825L2.33488 17.9355L2.51166 17.7588ZM3.7035 14.2994L3.77236 14.0591L3.54438 13.9938L3.46713 14.218L3.7035 14.2994ZM4.9971 14.6701L5.23752 14.6016L5.19946 14.468L5.06596 14.4298L4.9971 14.6701ZM5.4259 16.1744L5.66806 16.112L5.66632 16.1059L5.4259 16.1744ZM5.59305 16.3416L5.53064 16.5837L5.53289 16.5843L5.59305 16.3416ZM7.32268 16.7704L7.56529 16.71L7.52894 16.5639L7.38284 16.5277L7.32268 16.7704ZM7.7006 18.2893L7.78188 18.5257L7.99851 18.4512L7.9432 18.2289L7.7006 18.2893ZM1.60321 20.3896L1.36677 20.3083L1.20054 20.7922L1.68443 20.626L1.60321 20.3896ZM2.33722 18.2529L2.514 18.0761L2.23087 17.793L2.10078 18.1717L2.33722 18.2529ZM3.73985 19.6556L3.82107 19.892L4.19975 19.7619L3.91663 19.4788L3.73985 19.6556ZM16.2907 1.07997L16.1045 1.2468L16.1046 1.24683L16.2907 1.07997ZM15.9346 1.08721L15.7396 0.930749L15.7395 0.930884L15.9346 1.08721ZM3.39671 13.853L3.22026 13.6759L3.22023 13.676L3.39671 13.853ZM3.34014 13.9433L3.57648 14.0249L3.57723 14.0226L3.34014 13.9433ZM1.01453 20.6803L0.782659 20.5868L0.782546 20.5871L1.01453 20.6803ZM1.31253 20.9855L1.40054 21.2195L1.40071 21.2194L1.31253 20.9855ZM8.04943 18.6599L7.97054 18.4227L7.96788 18.4236L8.04943 18.6599ZM8.13332 18.6067L7.954 18.4325L7.95396 18.4326L8.13332 18.6067ZM20.9159 5.82552L21.0725 6.02038L21.0726 6.02025L20.9159 5.82552ZM17.325 8.7593L13.1535 4.58776L12.8 4.94131L16.9715 9.11286L17.325 8.7593ZM13.1551 4.93969L16.3019 1.73477L15.9452 1.38447L12.7984 4.58939L13.1551 4.93969ZM15.9514 1.74093L20.261 5.83247L20.6053 5.46986L16.2957 1.37832L15.9514 1.74093ZM20.2564 5.47439L16.9715 8.7593L17.325 9.11286L20.6099 5.82794L20.2564 5.47439ZM8.34291 17.9237L7.97956 16.4629L7.49434 16.5836L7.8577 18.0444L8.34291 17.9237ZM7.97903 16.4609C7.93567 16.2927 7.80035 16.1574 7.63217 16.114L7.50737 16.5982C7.50115 16.5966 7.49902 16.5944 7.49888 16.5942C7.49873 16.5941 7.49648 16.5919 7.49487 16.5857L7.97903 16.4609ZM7.62307 16.1119L5.9568 15.7483L5.85021 16.2368L7.51648 16.6004L7.62307 16.1119ZM6.14205 15.9177L5.64989 14.3482L5.17279 14.4978L5.66496 16.0673L6.14205 15.9177ZM5.65176 14.3545C5.60649 14.1956 5.4789 14.068 5.31996 14.0227L5.18295 14.5035C5.17733 14.5019 5.17525 14.4999 5.17491 14.4995C5.17457 14.4992 5.17251 14.4971 5.17092 14.4915L5.65176 14.3545ZM5.31995 14.0227L4.06997 13.6666L3.93297 14.1474L5.18296 14.5035L5.31995 14.0227ZM4.17993 14.0821L12.8282 5.26665L12.4712 4.91649L3.82301 13.7319L4.17993 14.0821ZM12.4729 5.26835L14.3189 7.11428L14.6724 6.76072L12.8265 4.91479L12.4729 5.26835ZM14.3189 7.11428L16.6444 9.43989L16.998 9.08634L14.6724 6.76073L14.3189 7.11428ZM16.6444 9.08634L7.92353 17.8072L8.27708 18.1608L16.998 9.43989L16.6444 9.08634ZM4.41078 19.3044L2.68844 17.582L2.33488 17.9355L4.05723 19.6579L4.41078 19.3044ZM2.74803 17.8402L3.93986 14.3809L3.46713 14.218L2.2753 17.6773L2.74803 17.8402ZM3.63464 14.5398L4.92824 14.9104L5.06596 14.4298L3.77236 14.0591L3.63464 14.5398ZM4.75668 14.7386L5.18547 16.243L5.66632 16.1059L5.23752 14.6016L4.75668 14.7386ZM5.18381 16.2368C5.22716 16.405 5.36245 16.5403 5.53064 16.5837L5.65545 16.0995C5.66165 16.1011 5.6638 16.1034 5.66397 16.1035C5.66414 16.1037 5.66638 16.1058 5.66798 16.112L5.18381 16.2368ZM5.53289 16.5843L7.26253 17.013L7.38284 16.5277L5.6532 16.0989L5.53289 16.5843ZM7.08008 16.8307L7.45799 18.3496L7.9432 18.2289L7.56529 16.71L7.08008 16.8307ZM7.61931 18.0528L4.15272 19.2447L4.31529 19.7175L7.78188 18.5257L7.61931 18.0528ZM1.83965 20.4708L2.57366 18.3341L2.10078 18.1717L1.36677 20.3083L1.83965 20.4708ZM2.16044 18.4297L3.56307 19.8323L3.91663 19.4788L2.514 18.0761L2.16044 18.4297ZM3.65863 19.4191L1.52199 20.1531L1.68443 20.626L3.82107 19.892L3.65863 19.4191ZM21.0833 5.29096C21.0856 5.29294 21.0193 5.23046 20.8857 5.10381C20.7577 4.98255 20.5767 4.81083 20.3602 4.60542C19.9274 4.1946 19.3531 3.64915 18.7787 3.10336C18.2043 2.55756 17.6299 2.01145 17.1969 1.59931C16.9803 1.39324 16.7992 1.22072 16.6712 1.0985C16.6071 1.03737 16.5564 0.988948 16.5213 0.955239C16.479 0.914635 16.4708 0.906302 16.4769 0.913105L16.1046 1.24683C16.1151 1.25863 16.1468 1.28883 16.1752 1.31609C16.2108 1.35024 16.2618 1.39901 16.326 1.46022C16.4543 1.58267 16.6356 1.75538 16.8521 1.9615C17.2853 2.37376 17.8598 2.91997 18.4342 3.46581C19.5769 4.55159 20.7348 5.65092 20.7588 5.67133L21.0833 5.29096ZM16.4769 0.913141C16.3924 0.818831 16.2641 0.75 16.1163 0.75V1.25C16.1112 1.25 16.1077 1.24876 16.1064 1.24811C16.1053 1.2476 16.1049 1.24725 16.1045 1.2468L16.4769 0.913141ZM16.1163 0.75C15.9639 0.75 15.8277 0.821007 15.7396 0.930749L16.1296 1.24366C16.1268 1.24717 16.1218 1.25 16.1163 1.25V0.75ZM15.7395 0.930884C15.7479 0.920445 15.7573 0.910979 15.7506 0.918C15.7494 0.919191 15.7474 0.921289 15.7443 0.924504C15.7382 0.930835 15.7291 0.940241 15.7169 0.952767C15.6925 0.977753 15.6567 1.01437 15.6102 1.06192C15.5172 1.15699 15.3816 1.29534 15.2095 1.47083C14.8653 1.82178 14.3753 2.32104 13.788 2.91918C12.6135 4.11544 11.0501 5.70708 9.4868 7.29843C7.92345 8.88979 6.36015 10.4809 5.18578 11.676C4.5986 12.2735 4.10866 12.7721 3.76456 13.1222C3.59251 13.2973 3.45693 13.4352 3.36389 13.5299C3.31737 13.5772 3.28149 13.6137 3.25701 13.6386C3.23149 13.6645 3.22001 13.6762 3.22026 13.6759L3.57317 14.0301C3.58961 14.0138 6.71796 10.8303 9.84348 7.64883C11.4068 6.05747 12.9703 4.46579 14.1448 3.26947C14.7321 2.67132 15.2222 2.17198 15.5665 1.82092C15.7386 1.6454 15.8744 1.50689 15.9676 1.41162C16.0142 1.364 16.0503 1.32707 16.075 1.30169C16.0873 1.28903 16.097 1.27904 16.1039 1.27197C16.1072 1.26848 16.1102 1.26537 16.1126 1.26288C16.1137 1.26169 16.1152 1.26017 16.1166 1.2586C16.1174 1.25778 16.1189 1.25611 16.1199 1.25505C16.1215 1.25326 16.1264 1.24759 16.1297 1.24353L15.7395 0.930884ZM3.22023 13.676C3.16904 13.727 3.12752 13.7909 3.10305 13.864L3.57723 14.0226C3.57552 14.0277 3.57356 14.0297 3.5732 14.0301L3.22023 13.676ZM3.34014 13.9433C3.10381 13.8618 3.1038 13.8618 3.10378 13.8619C3.10376 13.8619 3.10374 13.862 3.1037 13.8621C3.10363 13.8623 3.10353 13.8626 3.10339 13.863C3.10311 13.8638 3.10269 13.8651 3.10213 13.8667C3.10102 13.8699 3.09936 13.8747 3.09717 13.8811C3.09278 13.8938 3.08628 13.9126 3.0778 13.9372C3.06084 13.9864 3.03596 14.0585 3.00429 14.1503C2.94096 14.3338 2.85047 14.5961 2.74185 14.9109C2.52461 15.5406 2.23485 16.3803 1.94478 17.2209C1.65471 18.0614 1.36433 18.9028 1.14584 19.5355C0.924667 20.176 0.782015 20.5884 0.782659 20.5868L1.2464 20.7737C1.2546 20.7534 1.84001 19.0572 2.41743 17.384C2.7075 16.5434 2.99726 15.7037 3.21451 15.074C3.32313 14.7592 3.41362 14.4969 3.47695 14.3133C3.50862 14.2215 3.5335 14.1494 3.55046 14.1003C3.55894 14.0757 3.56545 14.0568 3.56983 14.0441C3.57202 14.0378 3.57368 14.033 3.57479 14.0297C3.57535 14.0281 3.57577 14.0269 3.57605 14.0261C3.57619 14.0257 3.5763 14.0254 3.57637 14.0252C3.5764 14.0251 3.57643 14.025 3.57645 14.0249C3.57646 14.0249 3.57647 14.0249 3.34014 13.9433ZM0.782546 20.5871C0.756005 20.6532 0.75 20.7187 0.75 20.7675H1.25C1.25 20.7632 1.2503 20.7611 1.2503 20.7612C1.25028 20.7613 1.2501 20.7624 1.24959 20.7643C1.24909 20.7662 1.24815 20.7694 1.24651 20.7734L0.782546 20.5871ZM0.75 20.7675C0.75 21.034 0.966128 21.25 1.23256 21.25V20.75C1.24215 20.75 1.25 20.7578 1.25 20.7675H0.75ZM1.23256 21.25C1.29138 21.25 1.34799 21.2393 1.40054 21.2195L1.22452 20.7515C1.22713 20.7505 1.23009 20.75 1.23256 20.75V21.25ZM1.40071 21.2194C1.39973 21.2198 1.5012 21.1847 1.69135 21.119C1.87737 21.0547 2.14166 20.9634 2.45808 20.8542C3.0909 20.6357 3.93217 20.3453 4.7726 20.0552C5.61303 19.7652 6.45262 19.4754 7.08211 19.2582C7.39685 19.1496 7.65907 19.0591 7.8426 18.9958C7.93437 18.9641 8.00646 18.9392 8.05561 18.9222C8.08019 18.9138 8.09903 18.9073 8.11173 18.9029C8.11807 18.9007 8.12289 18.899 8.12611 18.8979C8.12772 18.8974 8.12894 18.8969 8.12975 18.8967C8.13016 18.8965 8.13046 18.8964 8.13067 18.8963C8.13077 18.8963 8.13085 18.8963 8.1309 18.8963C8.13095 18.8962 8.13097 18.8962 8.04943 18.6599C7.96788 18.4236 7.96785 18.4236 7.9678 18.4236C7.96775 18.4236 7.96767 18.4237 7.96757 18.4237C7.96736 18.4238 7.96706 18.4239 7.96665 18.424C7.96584 18.4243 7.96462 18.4247 7.96301 18.4253C7.95979 18.4264 7.95497 18.428 7.94863 18.4302C7.93593 18.4346 7.91709 18.4411 7.89251 18.4496C7.84336 18.4666 7.77126 18.4914 7.6795 18.5231C7.49597 18.5864 7.23375 18.6769 6.919 18.7855C6.28951 19.0028 5.44991 19.2925 4.60947 19.5826C2.93296 20.1612 1.24215 20.7449 1.22435 20.7516L1.40071 21.2194ZM8.1283 18.8971C8.20168 18.8727 8.26378 18.8312 8.31268 18.7809L7.95396 18.4326C7.95666 18.4298 7.96214 18.4255 7.97055 18.4227L8.1283 18.8971ZM8.31263 18.7809C8.31193 18.7816 8.36011 18.7334 8.45582 18.6376C8.54991 18.5435 8.68749 18.4058 8.86234 18.2309C9.21204 17.881 9.71083 17.3821 10.3091 16.7836C11.5055 15.5868 13.0997 13.9921 14.6945 12.3971C16.2893 10.8021 17.8846 9.20679 19.0834 8.00853C19.6827 7.4094 20.1829 6.90956 20.5343 6.55868C20.71 6.38323 20.8484 6.24508 20.9434 6.15039C20.991 6.10303 21.0275 6.06664 21.0524 6.04193C21.0649 6.02954 21.0743 6.02027 21.0806 6.01407C21.0838 6.01092 21.0858 6.00887 21.087 6.00771C21.0952 5.99981 21.0842 6.011 21.0725 6.02038L20.7592 5.63067C20.7544 5.63462 20.748 5.64027 20.7461 5.64198C20.745 5.64296 20.7434 5.64451 20.7426 5.64527C20.7411 5.6467 20.7396 5.64812 20.7385 5.64923C20.7361 5.65156 20.7331 5.65454 20.7296 5.65792C20.7227 5.66478 20.7128 5.67458 20.7002 5.68708C20.6749 5.71215 20.6381 5.74882 20.5905 5.79623C20.4953 5.8911 20.3567 6.0294 20.181 6.20488C19.8295 6.55585 19.3293 7.05576 18.7299 7.65491C17.5311 8.85322 15.9357 10.4486 14.3409 12.0436C11.153 15.232 7.9632 18.423 7.954 18.4325L8.31263 18.7809ZM21.0726 6.02025C21.1788 5.9348 21.25 5.8031 21.25 5.65117H20.75C20.75 5.64765 20.7509 5.643 20.7531 5.63859C20.7552 5.6345 20.7575 5.63205 20.7591 5.6308L21.0726 6.02025ZM21.25 5.65117C21.25 5.50459 21.1836 5.37651 21.0832 5.29092L20.7588 5.67136C20.7572 5.66997 20.7549 5.66742 20.7529 5.66338C20.7509 5.65904 20.75 5.65455 20.75 5.65117H21.25Z" fill="black"/>
</svg>
