<svg width="13" height="17" viewBox="0 0 13 17" fill="none" xmlns="http://www.w3.org/2000/svg">
<mask id="mask0" mask-type="alpha" maskUnits="userSpaceOnUse" x="0" y="0" width="13" height="17">
<path fill-rule="evenodd" clip-rule="evenodd" d="M0 0.110352H12.9192V16.9696H0V0.110352Z" fill="white"/>
</mask>
<g mask="url(#mask0)">
<path fill-rule="evenodd" clip-rule="evenodd" d="M8.96147 13.6638C8.22736 14.5017 7.31058 15.402 6.45111 16.0418C4.33155 14.4911 2.31406 12.036 1.39875 9.52741C0.632198 7.42703 0.511919 5.02716 1.92417 3.15583C3.31235 1.3163 5.81185 0.497982 8.05294 1.15767C10.619 1.91307 12.1859 4.39032 12.0639 6.94761C11.8894 9.46758 10.6188 11.7723 8.96147 13.6638ZM9.54715 0.885009C7.32595 -0.324641 4.50462 -0.0960239 2.49821 1.41974C0.403737 3.00206 -0.297924 5.48881 0.111407 7.97379C0.487615 10.2577 1.70442 12.3347 3.20642 14.0907C4.09483 15.1294 5.10861 16.1197 6.23836 16.9109C6.35016 16.9893 6.55443 16.9893 6.66623 16.9109C9.91476 14.6356 12.6374 10.9086 12.9118 6.94761C13.0287 4.4985 11.7616 2.09102 9.54715 0.885009Z" fill="black"/>
</g>
<path fill-rule="evenodd" clip-rule="evenodd" d="M6.45227 8.54143C5.26543 8.54143 4.28738 7.57772 4.28274 6.42283C4.27822 5.2973 5.22428 4.34585 6.37337 4.30655C7.61379 4.26394 8.58551 5.23791 8.6218 6.42283C8.58642 7.57662 7.6624 8.54143 6.45227 8.54143ZM7.5393 3.677C6.33956 3.22076 4.93794 3.58283 4.12312 4.55481C2.3844 6.62837 4.26635 9.7492 6.95475 9.32508C8.38554 9.09933 9.37806 7.89476 9.46273 6.51765C9.46816 6.48818 9.47076 6.45661 9.46963 6.42283C9.43243 5.20909 8.71246 4.12319 7.5393 3.677Z" fill="black"/>
</svg>
