<svg width="74" height="85" viewBox="0 0 74 85" fill="none" xmlns="http://www.w3.org/2000/svg">
<path fill-rule="evenodd" clip-rule="evenodd" d="M9.08235 22.8174H65.4118L72 82.9999H2L9.08235 22.8174Z" stroke="black" stroke-width="3.29412" stroke-linecap="round" stroke-linejoin="round"/>
<path d="M21.545 32.1743V19.0882C21.545 19.0882 22.698 2 36.8078 2C50.9176 2 52.0156 19.0526 52.0156 19.0526V31.676" stroke="black" stroke-width="3.29412"/>
<path fill-rule="evenodd" clip-rule="evenodd" d="M21.7921 35.2747C23.6266 35.2747 25.1137 33.775 25.1137 31.9251C25.1137 30.0751 23.6266 28.5754 21.7921 28.5754C19.9577 28.5754 18.4706 30.0751 18.4706 31.9251C18.4706 33.775 19.9577 35.2747 21.7921 35.2747Z" fill="black"/>
<path fill-rule="evenodd" clip-rule="evenodd" d="M52.0431 35.2747C53.8776 35.2747 55.3647 33.775 55.3647 31.9251C55.3647 30.0751 53.8776 28.5754 52.0431 28.5754C50.2087 28.5754 48.7216 30.0751 48.7216 31.9251C48.7216 33.775 50.2087 35.2747 52.0431 35.2747Z" fill="black"/>
<path fill-rule="evenodd" clip-rule="evenodd" d="M45.9091 53.4287C46.9635 53.4287 47.8182 52.5652 47.8182 51.5001C47.8182 50.435 46.9635 49.5715 45.9091 49.5715C44.8547 49.5715 44 50.435 44 51.5001C44 52.5652 44.8547 53.4287 45.9091 53.4287Z" fill="black" stroke="black"/>
<path fill-rule="evenodd" clip-rule="evenodd" d="M25.5454 53.4287C26.5998 53.4287 27.4545 52.5652 27.4545 51.5001C27.4545 50.435 26.5998 49.5715 25.5454 49.5715C24.4911 49.5715 23.6364 50.435 23.6364 51.5001C23.6364 52.5652 24.4911 53.4287 25.5454 53.4287Z" fill="black" stroke="black"/>
<path d="M40.1818 66.2856C40.1818 66.2856 38.8735 62.304 35.0624 62.4325C31.2513 62.5609 29.9999 66.2856 29.9999 66.2856" stroke="black" stroke-width="1.09804" stroke-linecap="round"/>
</svg>
