<?xml version="1.0" encoding="UTF-8"?>
<svg width="20px" height="20px" viewBox="0 0 20 20" version="1.1" xmlns="http://www.w3.org/2000/svg" xmlns:xlink="http://www.w3.org/1999/xlink">
    <!-- Generator: Sketch 51.3 (57544) - http://www.bohemiancoding.com/sketch -->
    <title>buscador-ícono</title>
    <desc>Created with Sketch.</desc>
    <defs></defs>
    <g id="mobile" stroke="none" stroke-width="1" fill="none" fill-rule="evenodd">
        <g id="home-sb" transform="translate(-239.000000, -40.000000)" fill="#000000">
            <g id="header/ésika-mobile" transform="translate(0.000000, 20.000000)">
                <path d="M245.796105,32.4010344 C242.705617,32.4010344 240.191455,29.8860113 240.191455,26.7956753 C240.191455,23.7053394 242.705617,21.1913014 245.796105,21.1913014 C248.886593,21.1913014 251.400755,23.7053394 251.400755,26.7956753 C251.400755,29.8860113 248.886593,32.4010344 245.796105,32.4010344 Z M251.000775,31.1578071 C252.028311,29.9342824 252.59183,28.389607 252.59183,26.7956753 C252.59183,23.0482613 249.543704,20.0002857 245.796105,20.0002857 C242.048507,20.0002857 239.000381,23.0482613 239.000381,26.7956753 C239.000381,30.5430894 242.048507,33.5920501 245.796105,33.5920501 C247.390115,33.5920501 248.934867,33.0275737 250.158452,32.0000887 L258.071363,39.9135947 L258.159043,40.0002857 L259.000381,39.157019 L251.000775,31.1578071 Z" id="buscador-ícono"></path>
            </g>
        </g>
    </g>
</svg>