<svg width="50" height="55" viewBox="0 0 50 55" fill="none" xmlns="http://www.w3.org/2000/svg">
<path fill-rule="evenodd" clip-rule="evenodd" d="M8.97436 0.633718V17.7441H0.641026C0.215467 17.7441 0 18.1122 0 18.3778V49.43C0 52.2277 2.29827 54.4998 5.12821 54.4998C5.34597 54.4998 44.8718 54.4998 44.8718 54.4998C47.7017 54.4998 50 52.2277 50 49.43V0.633718C50 0.301913 49.6946 3.32068e-05 49.359 0H9.61538C9.18982 0 8.97436 0.368045 8.97436 0.633718V0.633718ZM10.2564 1.26743H48.7179V49.43C48.7179 51.5474 47.0136 53.2323 44.8718 53.2323H8.51361C9.57951 52.303 10.2564 50.9438 10.2564 49.43V1.26743ZM1.2821 19.0115H8.97441V49.43C8.97441 51.5474 7.27012 53.2323 5.12826 53.2323C2.9864 53.2323 1.2821 51.5474 1.2821 49.43V19.0115ZM16.0256 32.3196C15.5362 32.3196 15.3846 32.6546 15.3846 32.9534C15.3846 33.2521 15.6885 33.5871 16.0256 33.5871H42.9487C43.2873 33.5918 43.5897 33.2882 43.5897 32.9534C43.5897 32.6185 43.2873 32.3149 42.9487 32.3196H16.0256ZM16.0256 38.6568C15.5362 38.6568 15.3846 38.9918 15.3846 39.2905C15.3846 39.5892 15.6885 39.9242 16.0256 39.9242H42.9487C43.2873 39.929 43.5897 39.6253 43.5897 39.2905C43.5897 38.9557 43.2873 38.6521 42.9487 38.6568H16.0256ZM16.0256 45.6277C15.5362 45.6277 15.3846 45.9627 15.3846 46.2615C15.3846 46.5602 15.6885 46.8952 16.0256 46.8952H26.282C26.6207 46.8999 26.923 46.5963 26.923 46.2615C26.923 45.9266 26.6207 45.623 26.282 45.6277H16.0256ZM32.5721 45.6277C32.2365 45.6588 31.9597 45.989 31.9912 46.3208C32.0227 46.6527 32.3567 46.9263 32.6923 46.8951H42.9487C43.2874 46.8999 43.5898 46.5963 43.5898 46.2614C43.5898 45.9266 43.2874 45.623 42.9487 45.6277H32.6923C32.6524 45.624 32.6121 45.624 32.5721 45.6277V45.6277Z" fill="black"/>
<path fill-rule="evenodd" clip-rule="evenodd" d="M16.3846 6.33719C15.8323 6.33719 15.3846 6.78491 15.3846 7.33719V26.8836C15.3846 27.4359 15.8323 27.8836 16.3846 27.8836H42.5897C43.142 27.8836 43.5897 27.4359 43.5897 26.8836V7.33719C43.5897 6.78491 43.142 6.33719 42.5897 6.33719H16.3846ZM17.6076 7.60464C17.088 7.60464 16.6667 8.02591 16.6667 8.54553V25.6753C16.6667 26.1949 17.088 26.6162 17.6076 26.6162H41.3668C41.8865 26.6162 42.3077 26.1949 42.3077 25.6753V8.54553C42.3077 8.02591 41.8865 7.60464 41.3668 7.60464H17.6076Z" fill="black"/>
</svg>
