<svg width="25" height="18" viewBox="0 0 25 18" fill="none" xmlns="http://www.w3.org/2000/svg">
<path fill-rule="evenodd" clip-rule="evenodd" d="M23.747 15.6234C23.7452 15.7066 23.7401 15.7886 23.731 15.8688C21.4469 13.5861 19.163 11.3032 16.8791 9.0204C17.8669 8.01745 18.8526 7.01206 19.8408 6.00943C21.1338 4.69754 22.4268 3.38532 23.72 2.07344C23.7649 2.36676 23.747 2.69945 23.747 3.00627V7.0864C23.747 9.92997 23.8074 12.7807 23.747 15.6234V15.6234ZM22.8992 16.766H7.37297H3.58075C3.0774 16.766 2.50815 16.8405 2.00431 16.7562L8.94246 9.88914C9.12381 10.0718 9.30517 10.2544 9.48652 10.4371C10.1715 11.127 10.8989 11.7058 11.8938 11.8674C13.183 12.0768 14.345 11.5732 15.2486 10.669C15.5084 10.4089 15.7653 10.1459 16.0242 9.88474C18.3188 12.1781 20.6135 14.4716 22.9081 16.7652C22.905 16.7653 22.9023 16.7658 22.8992 16.766V16.766ZM1.21948 14.2183V9.65275V4.69835C1.21948 3.85809 1.1284 2.95909 1.21948 2.12257C1.21997 2.11817 1.22094 2.11492 1.22142 2.11069C3.5097 4.41593 5.79798 6.72101 8.0861 9.02626C5.79733 11.2916 3.50857 13.557 1.21981 15.8224C1.13583 15.2808 1.21948 14.6296 1.21948 14.2183V14.2183ZM2.98034 1.24602H6.40549H16.3455C18.487 1.24602 20.6689 1.12238 22.8078 1.24602C22.8146 1.24635 22.8199 1.24781 22.8265 1.24814C20.2056 3.90754 17.5845 6.56711 14.9635 9.22652C14.4884 9.70856 14.0222 10.2825 13.3787 10.5332C12.2161 10.9861 11.2162 10.4541 10.4143 9.64625C8.86624 8.08659 7.31806 6.52709 5.76988 4.96743C4.54322 3.73152 3.31656 2.49593 2.0899 1.26001C2.3746 1.22487 2.69112 1.24602 2.98034 1.24602V1.24602ZM24.9582 10.7689C24.9582 7.91414 25.0523 5.04162 24.9582 2.18829C24.9137 0.844027 23.9603 0.0408519 22.6699 0.0258849C21.741 0.0151478 20.8112 0.0258849 19.8821 0.0258849H9.46197C7.03853 0.0258849 4.60717 -0.0323562 2.18421 0.0258849C0.860819 0.0576085 0.0288345 0.990117 0.00832558 2.29534C-0.010407 3.48765 0.00832558 4.68176 0.00832558 5.87424V15.4199C0.00832558 16.7442 0.599693 17.9191 2.08215 17.9861C2.76912 18.0174 3.46448 17.9861 4.15194 17.9861H22.4473H22.8992C22.9517 17.9861 23 17.9798 23.0453 17.9695C24.126 17.8296 24.9047 17.0486 24.9582 15.9107C24.9696 15.6648 24.9582 15.4157 24.9582 15.1694V10.7689Z" fill="#b9007e"/>
</svg>
