<svg width="105" height="102" viewBox="0 0 105 102" fill="none" xmlns="http://www.w3.org/2000/svg">
<path fill-rule="evenodd" clip-rule="evenodd" d="M52.1874 102C81.0097 102 104.375 79.1665 104.375 51C104.375 22.8335 81.0097 0 52.1874 0C23.3651 0 0 22.8335 0 51C0 79.1665 23.3651 102 52.1874 102Z" fill="#E5E5E5"/>
<mask id="mask0" mask-type="alpha" maskUnits="userSpaceOnUse" x="0" y="0" width="105" height="102">
<path fill-rule="evenodd" clip-rule="evenodd" d="M52.1874 102C81.0097 102 104.375 79.1665 104.375 51C104.375 22.8335 81.0097 0 52.1874 0C23.3651 0 0 22.8335 0 51C0 79.1665 23.3651 102 52.1874 102Z" fill="white"/>
</mask>
<g mask="url(#mask0)">
<mask id="mask1" mask-type="alpha" maskUnits="userSpaceOnUse" x="0" y="0" width="105" height="102">
<path fill-rule="evenodd" clip-rule="evenodd" d="M52.1874 102C81.0097 102 104.375 79.1665 104.375 51C104.375 22.8335 81.0097 0 52.1874 0C23.3651 0 0 22.8335 0 51C0 79.1665 23.3651 102 52.1874 102Z" fill="white"/>
</mask>
<g mask="url(#mask1)">
<path fill-rule="evenodd" clip-rule="evenodd" d="M67.9138 65.3916L55.4786 62.0645L55.0999 60.426C63.5768 58.7541 67.9968 56.0047 68.1939 55.877C68.9202 55.416 69.3768 54.5828 69.439 53.6774C69.5013 52.7721 69.1278 51.8723 68.4689 51.3002C68.417 51.2502 62.7 46.0402 62.7 28.1329C62.7 11.8697 58.9804 3.62145 51.6448 3.62145H51.0119C48.5736 1.16086 46.5192 0 41.4974 0C34.857 0 20.2948 7.08182 20.2948 28.1329C20.2948 46.0402 14.583 51.2502 14.5674 51.2668C13.8774 51.8167 13.4883 52.7054 13.535 53.6274C13.5765 54.5495 14.0434 55.3882 14.7853 55.8659C14.9876 55.9936 19.361 58.7597 27.8949 60.4316L27.5214 62.059L15.0862 65.3861C6.20464 67.7633 0 87.0138 0 96.8228C0 101.467 0.269767 84.6019 0.757422 91.9538C1.24508 99.3056 1.49423 97.3216 2.18421 97.3216C2.87419 97.3216 80.4061 99.6 80.4061 99.6C81.8379 99.6 83 96.8228 83 96.8228C83 96.8228 76.7954 67.7689 67.9138 65.3916Z" transform="translate(11 15)" fill="white"/>
</g>
</g>
</svg>
