<svg width="22" height="22" viewBox="0 0 22 22" fill="none" xmlns="http://www.w3.org/2000/svg">
<path d="M13.4448 12.9951L12.6942 12.3344L12.6941 12.3344L13.4448 12.9951ZM20 19.1574L20.7057 19.8659L21.4061 19.1683L20.7166 18.4599L20 19.1574ZM13.985 12.978L14.7016 12.2805L13.996 11.5556L13.2793 12.2695L13.985 12.978ZM19.1541 20L18.4375 20.6975L19.1431 21.4224L19.8598 20.7085L19.1541 20ZM13.1391 13.8206L12.4334 13.112L11.733 13.8097L12.4225 14.5181L13.1391 13.8206ZM8.12306 16.411C10.5408 16.411 12.7105 15.343 14.1955 13.6558L12.6941 12.3344C11.5699 13.6118 9.93799 14.411 8.12306 14.411V16.411ZM0 8.20551C0 12.7264 3.626 16.411 8.12306 16.411V14.411C4.75221 14.411 2 11.6436 2 8.20551H0ZM8.12306 0C3.626 0 0 3.68462 0 8.20551H2C2 4.76742 4.75221 2 8.12306 2V0ZM16.2461 8.20551C16.2461 3.68462 12.6201 0 8.12306 0V2C11.4939 2 14.2461 4.76742 14.2461 8.20551H16.2461ZM14.1955 13.6558C15.4714 12.2061 16.2461 10.2953 16.2461 8.20551H14.2461C14.2461 9.79305 13.6593 11.2379 12.6942 12.3344L14.1955 13.6558ZM20.7166 18.4599L14.7016 12.2805L13.2685 13.6755L19.2834 19.8549L20.7166 18.4599ZM19.8598 20.7085L20.7057 19.8659L19.2943 18.4489L18.4484 19.2915L19.8598 20.7085ZM12.4225 14.5181L18.4375 20.6975L19.8706 19.3025L13.8557 13.1231L12.4225 14.5181ZM13.2793 12.2695L12.4334 13.112L13.8448 14.5291L14.6907 13.6865L13.2793 12.2695Z" fill="white"/>
</svg>
