<svg width="24" height="28" viewBox="0 0 24 28" fill="none" xmlns="http://www.w3.org/2000/svg">
<path fill-rule="evenodd" clip-rule="evenodd" d="M16.5315 16.6686C15.7111 17.8263 14.7846 18.9723 14.6033 20.5941L9.39043 20.5943C9.2091 18.9723 8.28282 17.8263 7.46243 16.6686C6.54871 15.3794 5.71278 14.0504 5.71278 11.7195C5.71278 8.24284 8.80894 5.78228 11.9969 5.78228C15.1849 5.78228 18.2809 8.24268 18.2809 11.7195C18.2809 14.0504 17.445 15.3794 16.5315 16.6686ZM9.42604 22.8728V21.7335H9.4262H14.5675V22.8728H9.42604ZM14.5675 24.5819C14.5675 24.9243 14.2921 25.1516 13.9964 25.1516H9.99749C9.70165 25.1516 9.42604 24.9241 9.4262 24.5819L9.42604 24.0122H14.5677L14.5675 24.5819ZM11.9969 26.8606C11.6706 26.8606 11.4256 26.6165 11.4256 26.2909H12.5682C12.5682 26.6165 12.3233 26.8606 11.9969 26.8606ZM23.4226 11.4791H19.4445C19.4353 11.4791 19.4264 11.4814 19.4171 11.4819C19.4171 11.481 19.4171 11.48 19.4169 11.4791H19.4119H19.4169C19.3591 9.79707 18.6998 8.3259 17.6794 7.18321L20.4769 4.39369C20.6999 4.1711 20.6999 3.81508 20.4769 3.59249C20.3652 3.48127 20.2213 3.42355 20.0751 3.42355C19.9289 3.42355 19.7849 3.48127 19.6734 3.59249L16.8613 6.39702C15.6485 5.40029 14.1208 4.78194 12.5404 4.66525C12.5567 4.61206 12.5682 4.55669 12.5682 4.49803V0.655148C12.5682 0.340578 12.3125 0.0854492 11.9969 0.0854492C11.6814 0.0854492 11.4256 0.340578 11.4256 0.655148V4.49803C11.4256 4.55669 11.437 4.61206 11.4535 4.66525C9.87294 4.78194 8.34525 5.40029 7.13255 6.39687L4.32031 3.59249C4.20878 3.48127 4.06478 3.42339 3.91859 3.42339V3.42355C3.77239 3.42355 3.62855 3.48127 3.51686 3.59249C3.2938 3.81508 3.2938 4.1711 3.51686 4.39369L6.31435 7.18321C5.29396 8.3259 4.63467 9.79707 4.57678 11.4791H0.571294C0.255843 11.4791 0 11.7342 0 12.049C0 12.3635 0.255843 12.6185 0.571294 12.6185H4.61318C4.81459 14.7273 5.704 16.156 6.53412 17.3273C7.47702 18.6581 8.28361 19.6355 8.28361 21.1637V24.5819C8.28361 25.5489 9.08737 26.2909 9.99749 26.2909H10.2831C10.2831 27.2279 11.0574 27.9999 11.9969 27.9999C12.9365 27.9999 13.7107 27.2279 13.7107 26.2909H13.9964C14.9064 26.2909 15.7103 25.5489 15.7103 24.582V21.1638C15.7103 19.6355 16.5169 18.6582 17.4598 17.3273C18.2902 16.1556 19.1801 14.7259 19.3809 12.6155C19.3914 12.616 19.4013 12.6185 19.4119 12.6185H23.4226C23.738 12.6185 23.9937 12.3637 23.9937 12.049C23.9937 11.7342 23.738 11.4791 23.4226 11.4791Z" fill="#808080"/>
</svg>
