<svg xmlns="http://www.w3.org/2000/svg" width="24" height="30" viewBox="0 0 24 30">
    <path fill="#AD1F78" fill-rule="evenodd" d="M12.092 27.637c-1.9 0-3.631-1.123-4.506-2.825h.343c1.317 0 2.39-1.116 2.395-2.488l.002-1.363a6.191 6.191 0 0 0 1.951.323 6.35 6.35 0 0 0 1.58-.214l.004 1.254c.003 1.372 1.077 2.488 2.394 2.488h.343c-.875 1.702-2.606 2.825-4.506 2.825zm-8.18-13.932h1.455c.011 0 .022-.003.034-.003.218 3.175 1.634 5.379 3.472 6.562L8.87 22.32c-.002.538-.423.976-.94.976H6.31c-.849 0-1.662.194-2.397.545V13.705zM5.368 8.4v3.79H3.913V8.4h-.001 1.455zm.01-2.821c.488-2.407 2.55-4.112 4.91-4.062h4.04c2.337-.044 4.382 1.626 4.9 4l.264 1.368h-.304a1.39 1.39 0 0 0-.453.082c-1.024-2.788-3.592-4.63-6.457-4.63-2.865 0-5.434 1.842-6.457 4.63a1.394 1.394 0 0 0-.453-.082H5.14l.235-1.306zM20.641 8.4h-.024v3.79h-1.43V8.4h1.454zM6.93 8.404c.038-.218.07-.319.07-.319.771-3.035 3.758-4.845 6.671-4.043 2.273.626 3.89 2.694 4.046 5.113h-1.272c-2.357 0-4.273-1.839-4.273-4.1a.76.76 0 0 0-.437-.695.705.705 0 0 0-.786.141L6.929 8.404zm9.326 14.892c-.517 0-.938-.438-.94-.976l-.004-1.835a6.711 6.711 0 0 0 2.43-2.292c-.162.04-.327.06-.493.06h-1.434a5.058 5.058 0 0 1-1.564 1.088 4.892 4.892 0 0 1-1.973.427c-2.728 0-5.456-2.31-5.456-6.931V10.56a.736.736 0 0 0 .118-.093l3.993-3.88c.683 2.355 2.895 4.084 5.512 4.084h1.288c-.003.55 0 1.519 0 1.519 0 .492.231.954.618 1.237l-1.442 1.794h-3.904c-.402 0-.727.34-.727.758 0 .419.325.758.727.758h4.243c.216 0 .42-.1.558-.271l2.219-2.76h.594v10.317a5.544 5.544 0 0 0-2.744-.727h-1.62zm7.488 5.185l-.55-1.434a6.047 6.047 0 0 0-1.12-1.846V12.432c.013-.079.024-.16.024-.242V8.4c-.001-.698-.46-1.305-1.113-1.469l-.331-1.713c-.656-3.081-3.297-5.26-6.326-5.217h-4.04c-3.06-.05-5.722 2.174-6.34 5.297l-.29 1.613c-.694.129-1.2.756-1.2 1.49v3.789l.001.01v12.64a5.99 5.99 0 0 0-1.466 2.207L.257 28.96a.77.77 0 0 0 .406.986c.088.036.18.054.27.054a.73.73 0 0 0 .675-.476l.734-1.914c.613-1.595 2.022-2.66 3.645-2.786.978 2.576 3.412 4.33 6.105 4.33 2.692 0 5.126-1.754 6.104-4.33 1.623.125 3.033 1.19 3.645 2.786l.55 1.434a.73.73 0 0 0 .677.477c.09 0 .18-.018.27-.055a.77.77 0 0 0 .405-.985z"/>
</svg>
