<?xml version="1.0" encoding="utf-8"?>
<!-- Generator: Adobe Illustrator 22.1.0, SVG Export Plug-In . SVG Version: 6.00 Build 0)  -->
<svg version="1.1" id="Capa_1" xmlns="http://www.w3.org/2000/svg" xmlns:xlink="http://www.w3.org/1999/xlink" x="0px" y="0px"
	 viewBox="0 0 63 63" style="enable-background:new 0 0 63 63;" xml:space="preserve">
<style type="text/css">
	.st0{fill:url(#SVGID_1_);}
	.st1{fill:url(#SVGID_2_);}
	.st2{fill:url(#SVGID_3_);}
	.st3{fill:url(#SVGID_4_);}
	.st4{fill:#020203;}
	.st5{opacity:0.49;fill:url(#SVGID_5_);}
	.st6{opacity:0.9;fill:url(#SVGID_6_);}
	.st7{opacity:0.49;fill:url(#SVGID_7_);}
	.st8{fill:url(#SVGID_8_);}
	.st9{fill:url(#SVGID_9_);}
	.st10{fill:url(#SVGID_10_);}
	.st11{fill:url(#SVGID_11_);}
	.st12{opacity:0.3;fill:url(#SVGID_12_);}
	.st13{fill:url(#SVGID_13_);}
	.st14{fill:url(#SVGID_14_);}
	.st15{fill:url(#SVGID_15_);}
	.st16{fill:url(#SVGID_16_);}
	.st17{fill:url(#SVGID_17_);}
</style>
<linearGradient id="SVGID_1_" gradientUnits="userSpaceOnUse" x1="31.5009" y1="10.7616" x2="31.5009" y2="44.9609">
	<stop  offset="0" style="stop-color:#EFEFEF"/>
	<stop  offset="1" style="stop-color:#D3D3D3"/>
</linearGradient>
<path class="st0" d="M55.5,22.1l0,31.3c0,1.9-1,2.4-2.4,2.5H9.9c-1.3,0-2.4-0.9-2.4-2V22.1c0-1.1,0.3-2.6,4.6-4.1
	c9.4-3.1,16.9-6.2,16.9-6.2s2.2-0.9,3.2-0.9c1.1,0,2.7,0.9,2.7,0.9s10.8,4.9,14.6,6.3C53,19.4,55.5,21,55.5,22.1z"/>
<g>
	<linearGradient id="SVGID_2_" gradientUnits="userSpaceOnUse" x1="22.6113" y1="20.3534" x2="22.483" y2="12.3996">
		<stop  offset="0" style="stop-color:#C1292E"/>
		<stop  offset="1" style="stop-color:#E52629"/>
	</linearGradient>
	<path class="st1" d="M25,8.2C25,8.2,25,8.2,25,8.2c0-0.1,0-0.3-0.1-0.3c0,0,0,0,0,0c0,0,0,0,0,0c-0.5-0.5-1.3-0.1-2.9,1.3
		c-1.2,1.1-2,2.9-2,3.7v6.6c0,0.4,0.1,0.7,0.2,0.7h4.5c0.1,0,0.2-0.3,0.2-0.7L25,8.2z"/>
	<linearGradient id="SVGID_3_" gradientUnits="userSpaceOnUse" x1="18.5874" y1="24.596" x2="26.442" y2="24.596">
		<stop  offset="0" style="stop-color:#CDCCCC"/>
		<stop  offset="1" style="stop-color:#F2F2F2"/>
	</linearGradient>
	<path class="st2" d="M26.4,19.1v11.1c0,0.4-0.2,0.7-0.4,0.7H19c-0.2,0-0.4-0.3-0.4-0.7V19.1c0-0.4,0.2-0.7,0.4-0.7h7.1
		C26.3,18.4,26.4,18.7,26.4,19.1z"/>
	<linearGradient id="SVGID_4_" gradientUnits="userSpaceOnUse" x1="21.3329" y1="24.596" x2="26.442" y2="24.596">
		<stop  offset="0" style="stop-color:#FFFFFF;stop-opacity:0.6"/>
		<stop  offset="1" style="stop-color:#FFFFFF;stop-opacity:0"/>
	</linearGradient>
	<path class="st3" d="M26.1,18.4h-4.7c0,4.2,0,8.3,0,12.5h4.7c0.2,0,0.4-0.3,0.4-0.7V19.1C26.4,18.7,26.3,18.4,26.1,18.4z"/>
	<path class="st4" d="M27.4,29.2v12.4c0,0.4-0.2,0.8-0.5,0.8h-8.8c-0.3,0-0.5-0.4-0.5-0.8V29.2c0-0.4,0.2-0.8,0.5-0.8h8.8
		C27.2,28.4,27.4,28.7,27.4,29.2z"/>
	<g>
		<linearGradient id="SVGID_5_" gradientUnits="userSpaceOnUse" x1="20.6474" y1="28.3721" x2="20.6474" y2="28.3721">
			<stop  offset="0" style="stop-color:#FFFFFF;stop-opacity:0.6"/>
			<stop  offset="1" style="stop-color:#FFFFFF;stop-opacity:0"/>
		</linearGradient>
		<path class="st5" d="M20.4,28.4h0.7c-0.3,0-0.9,0-1,0C20.2,28.4,20.3,28.4,20.4,28.4z"/>
		<linearGradient id="SVGID_6_" gradientUnits="userSpaceOnUse" x1="24.3594" y1="19.6324" x2="24.3594" y2="44.9037">
			<stop  offset="0" style="stop-color:#FFFFFF;stop-opacity:0.6"/>
			<stop  offset="1" style="stop-color:#FFFFFF;stop-opacity:0"/>
		</linearGradient>
		<path class="st6" d="M25,28.4h-2.2l0,0h-1.5c0,0,0,2.3,0,2.4v2.4c0,0.3,0.2,0.5,0.5,0.7c0.3,0.2,0.6,0.3,1,0.3v0c0,0,0,0,0,0
			c0,0,0,0,0,0v0c0.3,0,0.6-0.1,0.8-0.3c0.2-0.1,0.3-0.4,0.3-0.6v-2.4c0-0.1,0.1-0.3,0.3-0.4c0.2-0.1,0.4-0.2,0.7-0.2c0,0,0,0,0.1,0
			c0.4,0,0.7,0.3,0.7,0.5v11.1h1.6V28.4H25z"/>
	</g>
	<linearGradient id="SVGID_7_" gradientUnits="userSpaceOnUse" x1="23.2586" y1="9.9081" x2="23.1837" y2="15.4492">
		<stop  offset="0" style="stop-color:#FFFFFF;stop-opacity:0.6"/>
		<stop  offset="1" style="stop-color:#FFFFFF;stop-opacity:0"/>
	</linearGradient>
	<path class="st7" d="M25,8.1c0,0,0,0.5-0.1,0.7c-1.8,3.9-3.9,2.1-3.6,9.5l3.4,1.8c0.1,0,0.2-0.3,0.2-0.7L25,8.1z"/>
</g>
<g>
	<linearGradient id="SVGID_8_" gradientUnits="userSpaceOnUse" x1="38.9015" y1="16.2111" x2="38.8583" y2="18.3278">
		<stop  offset="1.275911e-03" style="stop-color:#8283A2"/>
		<stop  offset="1" style="stop-color:#DEB3BD"/>
	</linearGradient>
	<path class="st8" d="M41.1,16.6v3.4h-4.4v-3.4c0-0.6,0-1,0.1-1H41C41,15.5,41.1,16,41.1,16.6z"/>
	<linearGradient id="SVGID_9_" gradientUnits="userSpaceOnUse" x1="38.2168" y1="49.3484" x2="39.6591" y2="19.0597">
		<stop  offset="1.275911e-03" style="stop-color:#8283A2"/>
		<stop  offset="1" style="stop-color:#DEB3BD"/>
	</linearGradient>
	<path class="st9" d="M48.9,22.3v22.6c0,0.8-0.4,1.4-1,1.4H30c-0.5,0-1-0.6-1-1.4V22.3c0-0.8,0.4-1.1,1-1.4l6.8-3.5
		c0,0,1.3,0.2,2.1,0.2c1.3,0,2.3-0.2,2.3-0.2l6.8,3.5C48.6,21.3,48.9,21.5,48.9,22.3z"/>
	<linearGradient id="SVGID_10_" gradientUnits="userSpaceOnUse" x1="35.9566" y1="24.9618" x2="26.8055" y2="35.0414">
		<stop  offset="1.275911e-03" style="stop-color:#8283A2"/>
		<stop  offset="1" style="stop-color:#DEB3BD"/>
	</linearGradient>
	<path class="st10" d="M29,24l4.2,5.3c0,0,1.5,1.8,1.4,3.2c-0.1,1.4-0.8,2.4-1.1,2.9c-0.3,0.5-4.5,5.8-4.5,5.8V24z"/>
	
		<linearGradient id="SVGID_11_" gradientUnits="userSpaceOnUse" x1="558.9062" y1="24.9618" x2="549.7551" y2="35.0414" gradientTransform="matrix(-1 0 0 1 600.8834 0)">
		<stop  offset="1.275911e-03" style="stop-color:#8283A2"/>
		<stop  offset="1" style="stop-color:#DEB3BD"/>
	</linearGradient>
	<path class="st11" d="M48.9,24l-4.2,5.3c0,0-1.5,1.8-1.4,3.2c0.1,1.4,0.8,2.4,1.1,2.9c0.3,0.5,4.5,5.8,4.5,5.8V24z"/>
	<linearGradient id="SVGID_12_" gradientUnits="userSpaceOnUse" x1="38.8665" y1="31.84" x2="48.9478" y2="31.84">
		<stop  offset="0" style="stop-color:#FFFFFF;stop-opacity:0.6"/>
		<stop  offset="1" style="stop-color:#FFFFFF;stop-opacity:0"/>
	</linearGradient>
	<path class="st12" d="M41.2,17.4l-1.1,0.1l-1.2,0c0,9.8,0,18.9,0,28.8h9.3c0.4,0,0.8-0.7,0.8-1.7l0-22.3c0-0.2,0.1-0.8-0.7-1.3
		C47.6,20.6,41.2,17.4,41.2,17.4z"/>
	
		<linearGradient id="SVGID_13_" gradientUnits="userSpaceOnUse" x1="397.8335" y1="4196.6655" x2="371.7824" y2="4196.5874" gradientTransform="matrix(-1 0 0 -1 428.2765 4208.5718)">
		<stop  offset="2.551822e-03" style="stop-color:#D5C2C4"/>
		<stop  offset="0.6188" style="stop-color:#E6D7D8"/>
		<stop  offset="1" style="stop-color:#F2E7E8"/>
	</linearGradient>
	<path class="st13" d="M31.8,16c0,0.9,3.2,0.7,7.2,0.7c4,0,7.2,0.2,7.2-0.7c0,0,0,0,0,0c0,0,0,0,0,0V8.6c0-0.1-0.1-0.3-0.2-0.4
		c-0.8-0.7-3.6-1.2-7-1.2s-6.2,0.5-7,1.2c-0.1,0.1-0.2,0.2-0.2,0.4V16C31.8,16,31.8,16,31.8,16C31.8,16,31.8,16,31.8,16z"/>
	<linearGradient id="SVGID_14_" gradientUnits="userSpaceOnUse" x1="48.6216" y1="12.3111" x2="26.4576" y2="11.2329">
		<stop  offset="2.551822e-03" style="stop-color:#D5C2C4"/>
		<stop  offset="0.2537" style="stop-color:#DDCCCD"/>
		<stop  offset="1" style="stop-color:#F2E7E8"/>
	</linearGradient>
	<path class="st14" d="M46.2,8.6c0-0.1-0.1-0.3-0.2-0.4c-0.8-0.7-3.6-1.2-7-1.2c0,0-3.1,0-5.6,0.6c-1.7,0.4-1.6,1-1.6,1
		c7.9,0.1,7.3,4.8,7.3,8.1c3.9,0,7.1,0.2,7.1-0.7c0,0,0,0,0,0c0,0,0,0,0,0V8.6z"/>
</g>
<linearGradient id="SVGID_15_" gradientUnits="userSpaceOnUse" x1="31.5553" y1="39.3953" x2="31.5553" y2="51.8997">
	<stop  offset="0" style="stop-color:#EFEFEF"/>
	<stop  offset="1" style="stop-color:#D3D3D3"/>
</linearGradient>
<polyline class="st15" points="9.6,39.5 53.6,39.5 53.6,55.9 9.5,55.9 9.5,39.5 "/>
<g>
	<linearGradient id="SVGID_16_" gradientUnits="userSpaceOnUse" x1="18.1182" y1="57.4378" x2="20.0835" y2="20.0965">
		<stop  offset="0" style="stop-color:#E7E6E6"/>
		<stop  offset="1" style="stop-color:#FFFFFF"/>
	</linearGradient>
	<path class="st16" d="M7.5,35.9l0,17.6c-0.1,1.5,1,2.3,2,2.4l22-16.4L7.5,23L7.5,35.9z"/>
	<linearGradient id="SVGID_17_" gradientUnits="userSpaceOnUse" x1="42.9741" y1="56.4363" x2="44.9521" y2="18.8557">
		<stop  offset="0" style="stop-color:#E7E6E6"/>
		<stop  offset="1" style="stop-color:#FFFFFF"/>
	</linearGradient>
	<path class="st17" d="M55.5,35.9l0-12.8l-24,16.4l22,16.4c1-0.2,2-0.6,2-2.6V35.9z"/>
</g>
</svg>
