<svg width="29" height="21" viewBox="0 0 29 21" version="1.1" xmlns="http://www.w3.org/2000/svg" xmlns:xlink="http://www.w3.org/1999/xlink">
<title>Group 32</title>
<desc>Created using Figma</desc>
<g id="Canvas" transform="translate(2911 -255)">
<g id="Group 32">
<g id="noun_246807_cc">
<g id="Group">
<g id="Group">
<g id="Shape">
<use xlink:href="#path0_fill" transform="translate(-2911 255)" fill="#FFFFFF"/>
</g>
</g>
</g>
</g>
</g>
</g>
<defs>
<path id="path0_fill" fill-rule="evenodd" d="M 1.03564 6.29999L 1.03564 19.425L 1.5535 19.95L 27.4464 19.95L 27.9642 19.425L 27.9642 6.29999L 1.03564 6.29999ZM 1.03564 5.24999L 1.03564 1.57499L 1.5535 1.04999L 27.4464 1.04999L 27.9642 1.57499L 27.9642 5.24999L 1.03564 5.24999ZM 0 1.1375L 1.18367 0L 27.8163 0L 29 1.1375L 29 19.8625L 27.8163 21L 1.18367 21L 0 19.8625L 0 1.1375ZM 15.5356 15.75L 25.8928 15.75L 25.8928 16.8L 15.5356 16.8L 15.5356 15.75Z"/>
</defs>
</svg>
