<svg width="50" height="56" viewBox="0 0 50 56" fill="none" xmlns="http://www.w3.org/2000/svg">
<path fill-rule="evenodd" clip-rule="evenodd" d="M20.0965 44.0055L8.36162 52.1822C9.02325 49.9694 9.9465 45.9892 9.74767 41.6125L9.73371 41.2938L9.45929 41.1322C4.2779 37.9787 1.18488 32.7415 1.18488 27.1171C1.18488 17.7997 9.59534 10.2159 19.9267 10.2159C30.2546 10.2159 38.6605 17.7997 38.6605 27.1171C38.6605 36.2566 30.4116 43.8357 20.2732 44.002L20.0965 44.0055ZM19.9267 9.0264C8.93837 9.0264 0 17.1392 0 27.1113C0 33.045 3.20233 38.5962 8.57326 41.9787C8.7686 47.9322 6.76512 53.2485 6.67674 53.4741L5.96395 55.3008L20.4779 45.1822C31.1663 44.9171 39.85 36.8194 39.85 27.1113C39.85 17.1392 30.9163 9.0264 19.9267 9.0264V9.0264Z" fill="black"/>
<path fill-rule="evenodd" clip-rule="evenodd" d="M29.9507 0C24.3414 0 18.9518 2.18837 15.1774 6.01163L14.996 6.19186L15.246 6.26628C15.5298 6.34884 15.8228 6.46628 16.1111 6.6093L16.2111 6.65349L16.2832 6.57907C19.8716 3.10349 24.7228 1.18837 29.9507 1.18837C40.2821 1.18837 48.6867 8.76744 48.6867 18.0837C48.6867 23.0477 46.2298 27.7523 41.9356 30.9988L41.8484 31.0616L41.8832 31.1698C41.9763 31.4546 42.0484 31.7523 42.0984 32.0546L42.1414 32.3L42.3414 32.1581C47.1286 28.6826 49.8774 23.557 49.8774 18.0837C49.8774 8.11163 40.9379 0 29.9507 0" fill="black"/>
</svg>
