<svg width="16" height="16" viewBox="0 0 16 16" fill="none" xmlns="http://www.w3.org/2000/svg">
<path fill-rule="evenodd" clip-rule="evenodd" d="M7.77783 14.5577C11.5211 14.5577 14.5557 11.5227 14.5557 7.77875C14.5557 4.03481 11.5211 0.999756 7.77783 0.999756C4.03454 0.999756 1 4.03481 1 7.77875C1 11.5227 4.03454 14.5577 7.77783 14.5577Z" stroke="#B9007E" stroke-width="0.936229"/>
<path d="M8.49468 4.22933V7.28C8.49468 7.60711 8.47512 7.93244 8.43601 8.256C8.3969 8.576 8.34535 8.90311 8.28135 9.23733H7.16135C7.09735 8.90311 7.04579 8.576 7.00668 8.256C6.96757 7.93244 6.94801 7.60711 6.94801 7.28V4.22933H8.49468ZM6.76668 11.1627C6.76668 11.0347 6.78979 10.9156 6.83601 10.8053C6.88579 10.6951 6.95157 10.5991 7.03335 10.5173C7.11868 10.4356 7.21823 10.3716 7.33201 10.3253C7.44579 10.2756 7.57023 10.2507 7.70535 10.2507C7.8369 10.2507 7.95957 10.2756 8.07335 10.3253C8.18712 10.3716 8.28668 10.4356 8.37201 10.5173C8.45735 10.5991 8.52312 10.6951 8.56935 10.8053C8.61912 10.9156 8.64401 11.0347 8.64401 11.1627C8.64401 11.2907 8.61912 11.4116 8.56935 11.5253C8.52312 11.6356 8.45735 11.7316 8.37201 11.8133C8.28668 11.8951 8.18712 11.9591 8.07335 12.0053C7.95957 12.0516 7.8369 12.0747 7.70535 12.0747C7.57023 12.0747 7.44579 12.0516 7.33201 12.0053C7.21823 11.9591 7.11868 11.8951 7.03335 11.8133C6.95157 11.7316 6.88579 11.6356 6.83601 11.5253C6.78979 11.4116 6.76668 11.2907 6.76668 11.1627Z" fill="#B9007E"/>
</svg>
