<svg width="20" height="20" viewBox="0 0 20 20" fill="none" xmlns="http://www.w3.org/2000/svg">
<path fill-rule="evenodd" clip-rule="evenodd" d="M15.2087 4.41113L13.8337 12.8081H2.37504L1 4.41113H15.2087Z" stroke="black" stroke-linecap="round" stroke-linejoin="round"/>
<path fill-rule="evenodd" clip-rule="evenodd" d="M4.96465 17.4006C4.96465 18.2702 4.34901 18.975 3.58961 18.975C2.83021 18.975 2.2146 18.2702 2.2146 17.4006C2.2146 16.5311 2.83021 15.8262 3.58961 15.8262C4.34901 15.8262 4.96465 16.5311 4.96465 17.4006Z" stroke="black" stroke-linecap="round" stroke-linejoin="round"/>
<path fill-rule="evenodd" clip-rule="evenodd" d="M14.0399 17.4006C14.0399 18.2702 13.4243 18.975 12.6649 18.975C11.9055 18.975 11.2899 18.2702 11.2899 17.4006C11.2899 16.5311 11.9055 15.8262 12.6649 15.8262C13.4243 15.8262 14.0399 16.5311 14.0399 17.4006Z" stroke="black" stroke-linecap="round" stroke-linejoin="round"/>
<path d="M13.7649 12.7558L15.8503 1H18.99" stroke="black" stroke-linecap="round" stroke-linejoin="round"/>
</svg>
