<svg width="13" height="16" viewBox="0 0 13 16" fill="none" xmlns="http://www.w3.org/2000/svg">
<path fill-rule="evenodd" clip-rule="evenodd" d="M9.06851 11.5869L9.06685 11.622C9.06685 11.955 8.79571 12.2256 8.46246 12.2256H2.4201C2.08681 12.2256 1.81572 11.9547 1.81572 11.622L0.788086 0.71582H10.1451L9.06851 11.5869ZM1.09834 11.6404C1.10814 12.3598 1.69726 12.942 2.42 12.942H8.46236C9.1846 12.942 9.77369 12.36 9.78373 11.6413L10.9363 0H0L1.09834 11.6404Z" transform="translate(1.03711 2.05804)" fill="black" stroke="black" stroke-width="0.2"/>
<path fill-rule="evenodd" clip-rule="evenodd" d="M0.468412 7.45053C0.727308 7.45053 0.937117 7.30224 0.937117 7.11926V0.33124C0.937117 0.148288 0.727308 0 0.468412 0C0.209515 0 0 0.148288 0 0.33124V7.11947C0 7.30224 0.209515 7.45053 0.468412 7.45053Z" transform="translate(3.9375 4.44263)" fill="black"/>
<path d="M0.468412 7.45053C0.727308 7.45053 0.937117 7.30224 0.937117 7.11926V0.33124C0.937117 0.148288 0.727308 0 0.468412 0C0.209515 0 0 0.148288 0 0.33124V7.11947C0 7.30224 0.209515 7.45053 0.468412 7.45053" transform="translate(3.9375 4.44263)" stroke="black" stroke-width="0.2"/>
<path fill-rule="evenodd" clip-rule="evenodd" d="M0.466341 7.44992C0.723681 7.44992 0.932681 7.30164 0.932681 7.11868V0.331213C0.932681 0.148276 0.723681 0 0.466341 0C0.209042 0 2.24183e-07 0.148276 2.24183e-07 0.331213V7.11888C-0.000250026 7.30164 0.209042 7.44992 0.466341 7.44992Z" transform="translate(6.0498 4.44324)" fill="black"/>
<path d="M0.466341 7.44992C0.723681 7.44992 0.932681 7.30164 0.932681 7.11868V0.331213C0.932681 0.148276 0.723681 0 0.466341 0C0.209042 0 2.24183e-07 0.148276 2.24183e-07 0.331213V7.11888C-0.000250026 7.30164 0.209042 7.44992 0.466341 7.44992" transform="translate(6.0498 4.44324)" stroke="black" stroke-width="0.2"/>
<path fill-rule="evenodd" clip-rule="evenodd" d="M0.468537 7.45053C0.727406 7.45053 0.937117 7.30224 0.937117 7.11926V0.33124C0.937117 0.148288 0.727406 0 0.468537 0C0.209711 0 3.06977e-07 0.148288 3.06977e-07 0.33124V7.11947C-0.000293053 7.30224 0.209711 7.45053 0.468537 7.45053Z" transform="translate(8.16504 4.44263)" fill="black"/>
<path d="M0.468537 7.45053C0.727406 7.45053 0.937117 7.30224 0.937117 7.11926V0.33124C0.937117 0.148288 0.727406 0 0.468537 0C0.209711 0 3.06977e-07 0.148288 3.06977e-07 0.33124V7.11947C-0.000293053 7.30224 0.209711 7.45053 0.468537 7.45053" transform="translate(8.16504 4.44263)" stroke="black" stroke-width="0.2"/>
<mask id="mask0" mask-type="alpha" maskUnits="userSpaceOnUse" x="0" y="0" width="13" height="3">
<path fill-rule="evenodd" clip-rule="evenodd" d="M12.997 2.33322V0H0V2.33322H12.997Z" transform="translate(0 0.00201416)" fill="white"/>
</mask>
<g mask="url(#mask0)">
<path fill-rule="evenodd" clip-rule="evenodd" d="M3.97656 0.615635L9.1857 0.610474L9.18706 1.7146L3.97792 1.71976L3.97656 0.615635ZM12.6449 1.71111L9.89143 1.71388L9.88902 0L3.27205 0.00660974L3.27417 1.72031L0.351622 1.72327C0.159296 1.72454 -0.000104473 1.8602 5.13755e-08 2.02862C0.000313626 2.19703 0.158076 2.33333 0.352493 2.33324L12.6456 2.32113C12.6617 2.32107 12.6776 2.32002 12.6929 2.31821C12.8648 2.29798 12.9972 2.17023 12.997 2.01579C12.9971 1.84735 12.8393 1.71102 12.6449 1.71111Z" transform="translate(0 0.00201416)" fill="black" stroke="black" stroke-width="0.2"/>
</g>
</svg>
