<svg xmlns="http://www.w3.org/2000/svg" width="24" height="24" viewBox="0 0 24 24">
    <path fill="#B9007E" fill-rule="evenodd" d="M4.598 20.53a.502.502 0 0 1-.588-.588l.937-4.683 2.168 2.168 2.168 2.167-4.685.937zm5.699-1.336l-2.475-2.475-2.475-2.474 8.485-8.485 4.95 4.949-8.485 8.485zm8.132-14.495l1.414 1.414c.472.472.732 1.1.732 1.768a2.48 2.48 0 0 1-.732 1.767l-.353.354-4.951-4.95.354-.353c.944-.945 2.59-.945 3.536 0zm3.146 3.182c0-.936-.364-1.815-1.025-2.475l-1.414-1.414c-1.322-1.322-3.628-1.322-4.95 0l-9.9 9.899c-.003.004-.004.009-.007.012-.011.01-.015.024-.024.036a.477.477 0 0 0-.09.177c-.003.012-.013.019-.015.03l-1.12 5.6c-.1.494.055 1 .41 1.356a1.495 1.495 0 0 0 1.355.409l5.6-1.12c.01-.002.019-.011.03-.015a.473.473 0 0 0 .176-.09c.012-.008.026-.013.038-.024.003-.002.008-.003.01-.007l9.194-9.193.707-.707a3.473 3.473 0 0 0 1.025-2.474z"/>
</svg>
