<svg width="20" height="20" viewBox="0 0 20 20" fill="none" xmlns="http://www.w3.org/2000/svg">
<path fill-rule="evenodd" clip-rule="evenodd" d="M6.79572 12.4007C3.70524 12.4007 1.19107 9.88573 1.19107 6.79539C1.19107 3.70505 3.70524 1.19102 6.79572 1.19102C9.88621 1.19102 12.4004 3.70505 12.4004 6.79539C12.4004 9.88573 9.88621 12.4007 6.79572 12.4007V12.4007ZM12.0004 11.1575C13.0279 9.934 13.5914 8.38932 13.5914 6.79539C13.5914 3.04798 10.5433 0 6.79572 0C3.04813 0 0 3.04798 0 6.79539C0 10.5428 3.04813 13.5918 6.79572 13.5918C8.38973 13.5918 9.93449 13.0273 11.1581 11.9998L19.071 19.9133L19.1587 20L20 19.1567L12.0004 11.1575Z" fill="black"/>
</svg>
