<svg width="46" height="34" viewBox="0 0 46 34" fill="none" xmlns="http://www.w3.org/2000/svg">
<path fill-rule="evenodd" clip-rule="evenodd" d="M17.9638 0L14.8155 3.60393H0V32H44V3.60393H29.7541L26.117 0H17.9638ZM1.45459 5.0457H15.4817L18.6301 1.44177H25.5121L29.1502 5.0457H42.5447V30.5621H1.45459V5.0457Z" transform="translate(1 0.979614)" fill="black"/>
<path fill-rule="evenodd" clip-rule="evenodd" d="M18.2367 0H26.8228L30.4599 3.60393H45V33H0V3.60393H15.0883L18.2367 0ZM15.3155 4.10393H0.5V32.5H44.5V4.10393H30.2541L26.617 0.5H18.4638L15.3155 4.10393ZM15.9817 5.5457H1.95459V31.0621H43.0447V5.5457H29.6502L26.0121 1.94177H19.1301L15.9817 5.5457ZM19.3572 2.44177L16.2089 6.0457H2.45459V30.5621H42.5447V6.0457H29.4445L25.8064 2.44177H19.3572Z" transform="translate(0.5 0.479614)" fill="black"/>
<path fill-rule="evenodd" clip-rule="evenodd" d="M9.69899 1.39478C5.15385 1.39478 1.45508 4.93603 1.45508 9.29224C1.45508 13.6494 5.15385 17.1935 9.69899 17.1935C14.2402 17.1935 17.939 13.6494 17.939 9.29224C17.939 4.93603 14.2441 1.39478 9.69899 1.39478ZM9.69919 18.5883C4.34907 18.5883 0 14.4162 0 9.29225C0 4.16924 4.34907 0 9.69919 0C15.0454 0 19.3944 4.16924 19.3944 9.29225C19.3944 14.4162 15.0454 18.5883 9.69919 18.5883Z" transform="translate(13.3008 8.3656)" fill="black"/>
<path fill-rule="evenodd" clip-rule="evenodd" d="M10.199 2.39478C5.90946 2.39478 2.45508 5.73227 2.45508 9.79224C2.45508 13.8534 5.90974 17.1935 10.199 17.1935C14.4841 17.1935 17.939 13.8536 17.939 9.79224C17.939 5.73197 14.4882 2.39478 10.199 2.39478ZM10.1992 19.5883C4.59301 19.5883 0 15.212 0 9.79225C0 4.3732 4.59324 0 10.1992 0C15.8013 0 20.3944 4.37333 20.3944 9.79225C20.3944 15.2119 15.8016 19.5883 10.1992 19.5883ZM1.95508 9.79224C1.95508 5.43603 5.65385 1.89478 10.199 1.89478C14.7441 1.89478 18.439 5.43603 18.439 9.79224C18.439 14.1494 14.7402 17.6935 10.199 17.6935C5.65385 17.6935 1.95508 14.1494 1.95508 9.79224ZM0.5 9.79225C0.5 14.9162 4.84907 19.0883 10.1992 19.0883C15.5454 19.0883 19.8944 14.9162 19.8944 9.79225C19.8944 4.66924 15.5454 0.5 10.1992 0.5C4.84907 0.5 0.5 4.66924 0.5 9.79225Z" transform="translate(12.8008 7.8656)" fill="black"/>
<mask id="mask0" mask-type="alpha" maskUnits="userSpaceOnUse" x="1" y="0" width="44" height="31">
<path fill-rule="evenodd" clip-rule="evenodd" d="M0 30.9562H43.9951V0H0V30.9562Z" transform="translate(1)" fill="white"/>
</mask>
<g mask="url(#mask0)">
<path fill-rule="evenodd" clip-rule="evenodd" d="M0 1.63087H4.12245V0H0V1.63087Z" transform="translate(5.35742 9.16418)" fill="black"/>
<path fill-rule="evenodd" clip-rule="evenodd" d="M0 2.63087V0H5.12245V2.63087H0ZM4.62245 2.13087H0.5V0.5H4.62245V2.13087Z" transform="translate(4.85742 8.66418)" fill="black"/>
</g>
</svg>
