<svg width="23" height="23" viewBox="0 0 23 23" fill="none" xmlns="http://www.w3.org/2000/svg">
<path fill-rule="evenodd" clip-rule="evenodd" d="M16.1766 17.9427C16.1779 17.9413 16.1793 17.9399 16.1805 17.9386C16.5937 18.351 16.9972 18.7737 17.4223 19.1735C17.9599 19.6788 18.6727 19.6934 19.1163 19.2305C19.572 18.7549 19.5502 18.0784 19.0235 17.5366C18.2096 16.6997 17.3825 15.8754 16.547 15.06C16.0087 14.5343 15.3405 14.513 14.8638 14.9739C14.3648 15.4564 14.3874 16.1278 14.9392 16.7036C15.3429 17.125 15.7634 17.5301 16.1766 17.9427V17.9427ZM5.08907 6.86383L5.09216 6.86073C5.53843 7.30631 5.97162 7.76606 6.43449 8.19379C6.95012 8.67013 7.62515 8.67856 8.07339 8.24956C8.53795 7.80483 8.53443 7.07692 8.02794 6.55746C7.19647 5.70453 6.35275 4.86311 5.49805 4.0335C4.97961 3.53019 4.25871 3.52626 3.80372 3.98714C3.36983 4.42667 3.37771 5.11076 3.85282 5.62291C4.24957 6.05079 4.67586 6.45126 5.08907 6.86383V6.86383ZM5.14869 16.3009C5.14785 16.3 5.147 16.2992 5.1463 16.2984C4.71593 16.7282 4.27712 17.1496 3.85744 17.5894C3.3639 18.1068 3.34041 18.7512 3.77668 19.2186C4.23815 19.713 4.93104 19.7307 5.46116 19.2169C6.33428 18.3704 7.19403 17.5096 8.0393 16.6353C8.50962 16.1489 8.50962 15.4189 8.08572 14.9895C7.6531 14.5512 6.9429 14.5496 6.44261 15.0152C5.99775 15.4291 5.57892 15.8712 5.14869 16.3009V16.3009ZM17.7837 6.91369C17.7843 6.91425 17.7849 6.91482 17.7854 6.91524C18.2325 6.46868 18.695 6.03618 19.1228 5.57192C19.5653 5.09166 19.5379 4.33045 19.0986 3.92393C18.6563 3.51446 17.983 3.50941 17.5098 3.96565C16.6169 4.82659 15.738 5.70284 14.8751 6.5937C14.3846 7.09996 14.3981 7.76227 14.8561 8.2188C15.3135 8.67476 15.9704 8.68024 16.4886 8.20012C16.9347 7.78685 17.3531 7.34367 17.7837 6.91369V6.91369ZM16.45 9.1879C17.1806 10.7817 17.187 12.436 16.4498 13.9994C17.5687 15.1166 18.6363 16.1826 19.7116 17.2562C22.198 13.9213 22.0182 8.88982 19.7017 5.94136C18.6398 7.00148 17.5835 8.05613 16.45 9.1879V9.1879ZM17.1342 3.36542C13.8423 0.824741 8.86629 1.05525 5.81104 3.38663C6.88535 4.45912 7.95278 5.52501 9.05974 6.63009C10.6382 5.87267 12.2909 5.90076 13.8795 6.61477C14.991 5.50506 16.0603 4.43763 17.1342 3.36542V3.36542ZM9.03189 16.5858C7.912 17.7039 6.85668 18.7576 5.79785 19.8146C8.55819 22.1364 13.9961 22.3669 17.1116 19.8234C16.0364 18.75 14.9644 17.6795 13.872 16.5888C12.2617 17.3019 10.6277 17.3332 9.03189 16.5858V16.5858ZM6.45498 9.22667L3.20523 5.98195C0.833504 8.71494 0.841382 14.5812 3.21057 17.2728L6.46216 14.0264C5.7317 12.4507 5.7635 10.8218 6.45498 9.22667V9.22667ZM15.7533 13.9227C15.7982 13.8143 15.8314 13.7279 15.8694 13.6435C16.4797 12.2882 16.4959 10.9255 15.8678 9.57911C15.783 9.39734 15.5154 9.24254 15.3034 9.18832C14.6613 9.02383 14.0944 8.67167 14.0034 8.04855C13.8827 7.22273 13.3177 7.07875 12.723 6.91608C11.6502 6.62292 10.5819 6.6777 9.57205 7.1539C9.34708 7.25995 9.13351 7.53654 9.05571 7.77955C8.82132 8.51126 8.37111 8.96245 7.63797 9.19675C7.39218 9.27527 7.10643 9.48626 7.00373 9.71157C6.4314 10.967 6.43646 12.253 6.99135 13.514C7.08477 13.7263 7.33576 13.9481 7.55805 14.0114C8.35422 14.2378 8.84524 14.7095 9.05093 15.5135C9.10003 15.7051 9.24775 15.9497 9.41419 16.0211C10.7436 16.5921 12.0946 16.6474 13.4257 16.0299C13.6158 15.9417 13.8052 15.7009 13.8582 15.4956C14.0663 14.6911 14.5273 14.1794 15.3542 14.0157C15.4888 13.9892 15.6216 13.9536 15.7533 13.9227V13.9227ZM21.4223 15.7603C21.0017 16.4575 20.5704 17.1485 20.1697 17.8567C20.0863 18.0041 20.1044 18.2149 20.0955 18.3975C20.0446 19.4536 19.3143 20.1714 18.2635 20.237C18.0059 20.253 17.7259 20.3394 17.5064 20.4745C14.1941 22.5132 10.7385 22.9191 7.11092 21.4102C6.76834 21.2676 6.44278 21.0784 6.12384 20.8868C5.54701 20.5401 4.99845 20.2191 4.26771 20.1836C3.42314 20.1426 2.87895 19.3769 2.79383 18.4737C2.76471 18.1649 2.69 17.8217 2.5216 17.5709C0.141533 14.0237 0.142096 9.25266 2.52596 5.65733C2.69324 5.40504 2.79454 5.07466 2.82267 4.7711C2.92256 3.68864 3.5907 3.04487 4.69555 2.98615C4.93571 2.97337 5.20499 2.90229 5.40181 2.77025C9.09171 0.294885 13.7775 0.275501 17.513 2.71954C17.7297 2.86127 18.0166 2.94373 18.2773 2.96227C19.3831 3.04079 20.0729 3.74314 20.115 4.85623C20.1224 5.05415 20.1532 5.28269 20.2583 5.44072C22.3338 8.5593 22.7155 11.8785 21.4775 15.3996C21.4342 15.5228 21.4394 15.663 21.422 15.7953L21.4223 15.7603Z" fill="#FEFEFE"/>
</svg>
