<svg width="30" height="24" viewBox="0 0 30 24" fill="none" xmlns="http://www.w3.org/2000/svg">
<path fill-rule="evenodd" clip-rule="evenodd" d="M0 1.5C0 0.671573 0.671573 0 1.5 0H28.0385C28.8669 0 29.5385 0.671573 29.5385 1.5V1.5C29.5385 2.32843 28.8669 3 28.0385 3H1.5C0.671573 3 0 2.32843 0 1.5V1.5Z" fill="white"/>
<path fill-rule="evenodd" clip-rule="evenodd" d="M0 1.5C0 0.671573 0.671573 0 1.5 0H28.0385C28.8669 0 29.5385 0.671573 29.5385 1.5V1.5C29.5385 2.32843 28.8669 3 28.0385 3H1.5C0.671573 3 0 2.32843 0 1.5V1.5Z" transform="translate(0 10.5)" fill="white"/>
<path fill-rule="evenodd" clip-rule="evenodd" d="M0 1.5C0 0.671573 0.671573 0 1.5 0H28.0385C28.8669 0 29.5385 0.671573 29.5385 1.5V1.5C29.5385 2.32843 28.8669 3 28.0385 3H1.5C0.671573 3 0 2.32843 0 1.5V1.5Z" transform="translate(0 21)" fill="white"/>
</svg>
