<?xml version="1.0" encoding="utf-8"?>
<!-- Generator: Adobe Illustrator 23.0.0, SVG Export Plug-In . SVG Version: 6.00 Build 0)  -->
<svg version="1.1" id="Layer_1" xmlns="http://www.w3.org/2000/svg" xmlns:xlink="http://www.w3.org/1999/xlink" x="0px" y="0px"
	 viewBox="0 0 20 20" style="enable-background:new 0 0 20 20;" xml:space="preserve">
<style type="text/css">
	.st0{fill-rule:evenodd;clip-rule:evenodd;fill:#FFFFFF;}
</style>
<title>buscador-ícono</title>
<desc>Created with Sketch.</desc>
<g id="Desktop-3.0">
	<g id="pedido-desplegable-clientes-escribiendo-desktop" transform="translate(-1240.000000, -113.000000)">
		<g id="desplegable-tonos">
			<g id="buscador" transform="translate(970.000000, 113.000000)">
				<path id="buscador-ícono" class="st0" d="M276.8,12.4c-3.1,0-5.6-2.5-5.6-5.6s2.5-5.6,5.6-5.6s5.6,2.5,5.6,5.6
					S279.9,12.4,276.8,12.4z M282,11.2c1-1.2,1.6-2.8,1.6-4.4c0-3.7-3-6.8-6.8-6.8C273,0,270,3,270,6.8s3,6.8,6.8,6.8
					c1.6,0,3.1-0.6,4.4-1.6l7.9,7.9l0.1,0.1l0.8-0.8L282,11.2z"/>
			</g>
		</g>
	</g>
</g>
</svg>
