<?xml version="1.0" encoding="UTF-8"?>
<svg width="17px" height="22px" viewBox="0 0 17 22" version="1.1" xmlns="http://www.w3.org/2000/svg" xmlns:xlink="http://www.w3.org/1999/xlink">
    <!-- Generator: sketchtool 52.6 (67491) - http://www.bohemiancoding.com/sketch -->
    <title>16001E16-FB28-47B9-BB15-749954941126</title>
    <desc>Created with sketchtool.</desc>
    <defs>
        <path d="M1.789,0.691 C1.036,0.691 0.411,1.322 0.411,2.084 L0.411,19.492 C0.411,20.261 1.036,20.888 1.789,20.888 L15.032,20.888 C15.79,20.888 16.411,20.261 16.411,19.492 L16.411,6.119 C16.411,5.895 16.332,5.702 16.172,5.543 C14.651,4.006 13.128,2.469 11.607,0.932 C11.452,0.771 11.258,0.691 11.036,0.691 L1.789,0.691 Z M1.216,19.492 L1.216,2.084 C1.216,1.764 1.473,1.505 1.789,1.505 L10.801,1.505 L10.801,4.963 C10.801,5.729 11.423,6.356 12.181,6.356 L15.605,6.356 L15.605,19.492 C15.605,19.815 15.348,20.075 15.032,20.075 L1.789,20.075 C1.473,20.075 1.216,19.815 1.216,19.492 Z M11.607,4.963 L11.607,2.081 L15.037,5.546 L12.181,5.546 C11.864,5.546 11.607,5.283 11.607,4.963 Z" id="path-1"></path>
        <path d="M3.035,0.74 C2.992,0.759 2.954,0.788 2.919,0.821 C2.883,0.862 2.848,0.906 2.81,0.961 C2.775,1.016 2.728,1.083 2.675,1.165 L2.029,2.094 L1.425,1.165 C1.311,0.991 1.222,0.873 1.16,0.807 C1.098,0.743 1.008,0.715 0.896,0.715 C0.796,0.715 0.714,0.743 0.644,0.798 C0.574,0.858 0.539,0.924 0.539,0.998 C0.539,1.068 0.558,1.142 0.593,1.22 C0.628,1.301 0.682,1.393 0.757,1.499 L1.513,2.615 L0.613,3.866 C0.477,4.051 0.41,4.208 0.41,4.338 C0.41,4.449 0.445,4.53 0.508,4.588 C0.574,4.644 0.655,4.674 0.757,4.674 C0.818,4.674 0.873,4.667 0.923,4.644 C0.969,4.63 1.012,4.6 1.048,4.568 C1.083,4.534 1.11,4.501 1.137,4.468 C1.16,4.431 1.202,4.37 1.262,4.283 L2.014,3.191 L2.724,4.25 C2.814,4.382 2.875,4.47 2.907,4.515 C2.942,4.559 2.985,4.6 3.038,4.63 C3.09,4.659 3.156,4.674 3.233,4.674 C3.303,4.674 3.369,4.659 3.427,4.633 C3.481,4.6 3.524,4.559 3.555,4.512 C3.59,4.46 3.606,4.404 3.606,4.342 C3.606,4.279 3.586,4.208 3.551,4.138 C3.516,4.065 3.459,3.976 3.384,3.866 L2.531,2.615 L3.322,1.482 C3.462,1.282 3.536,1.124 3.536,1.01 C3.536,0.929 3.501,0.858 3.439,0.798 C3.372,0.743 3.288,0.715 3.186,0.715 C3.128,0.715 3.078,0.722 3.035,0.74 Z" id="path-3"></path>
        <path d="M0.254,0.832 C0.18,0.909 0.146,1.027 0.146,1.183 L0.146,4.135 C0.146,4.3 0.184,4.423 0.262,4.497 C0.34,4.57 0.468,4.611 0.642,4.611 L2.615,4.611 C2.751,4.611 2.851,4.581 2.922,4.523 C2.992,4.464 3.026,4.389 3.026,4.294 C3.026,4.201 2.992,4.124 2.922,4.064 C2.847,4.001 2.746,3.973 2.615,3.973 L0.961,3.973 L0.961,1.183 C0.961,1.024 0.922,0.906 0.848,0.828 C0.771,0.751 0.669,0.714 0.549,0.714 C0.429,0.714 0.328,0.751 0.254,0.832 Z" id="path-5"></path>
        <path d="M0.987,0.848 C0.763,0.932 0.584,1.058 0.465,1.223 C0.344,1.386 0.285,1.574 0.285,1.785 C0.285,2.006 0.34,2.19 0.456,2.338 C0.572,2.49 0.728,2.607 0.918,2.692 C1.117,2.777 1.357,2.855 1.648,2.921 C1.866,2.966 2.037,3.01 2.168,3.055 C2.296,3.094 2.401,3.154 2.483,3.231 C2.564,3.312 2.603,3.416 2.603,3.542 C2.603,3.704 2.53,3.837 2.379,3.943 C2.227,4.051 2.033,4.106 1.788,4.106 C1.613,4.106 1.469,4.076 1.361,4.025 C1.253,3.974 1.17,3.907 1.113,3.822 C1.05,3.741 0.995,3.638 0.946,3.519 C0.903,3.416 0.852,3.339 0.79,3.287 C0.732,3.231 0.659,3.206 0.572,3.206 C0.468,3.206 0.378,3.239 0.309,3.306 C0.243,3.375 0.208,3.457 0.208,3.549 C0.208,3.711 0.262,3.876 0.378,4.051 C0.496,4.22 0.643,4.357 0.824,4.46 C1.085,4.604 1.411,4.675 1.811,4.675 C2.141,4.675 2.428,4.622 2.673,4.519 C2.913,4.412 3.096,4.269 3.224,4.083 C3.348,3.899 3.411,3.689 3.411,3.46 C3.411,3.264 3.375,3.102 3.302,2.969 C3.228,2.837 3.128,2.725 3,2.637 C2.871,2.553 2.712,2.479 2.53,2.416 C2.347,2.357 2.138,2.301 1.913,2.25 C1.73,2.206 1.602,2.173 1.52,2.15 C1.443,2.128 1.365,2.094 1.288,2.057 C1.213,2.017 1.151,1.969 1.105,1.913 C1.062,1.855 1.042,1.789 1.042,1.715 C1.042,1.589 1.105,1.486 1.233,1.397 C1.365,1.309 1.536,1.265 1.746,1.265 C1.97,1.265 2.138,1.305 2.238,1.386 C2.344,1.468 2.432,1.578 2.502,1.725 C2.56,1.825 2.611,1.899 2.661,1.943 C2.707,1.988 2.782,2.01 2.875,2.01 C2.976,2.01 3.061,1.973 3.131,1.899 C3.201,1.825 3.236,1.74 3.236,1.648 C3.236,1.549 3.209,1.445 3.155,1.338 C3.096,1.231 3.012,1.131 2.89,1.032 C2.77,0.936 2.623,0.858 2.44,0.799 C2.261,0.743 2.045,0.711 1.799,0.711 C1.489,0.711 1.221,0.759 0.987,0.848 Z" id="path-7"></path>
    </defs>
    <g id="Symbols" stroke="none" stroke-width="1" fill="none" fill-rule="evenodd">
        <g id="Group-18">
            <g>
                <path d="M11.607,2.5014 L11.607,5.3834 C11.607,5.7034 11.864,5.9664 12.181,5.9664 L15.038,5.9664 L11.607,2.5014 Z M1.79,1.9254 C1.473,1.9254 1.216,2.1854 1.216,2.5044 L1.216,19.9124 C1.216,20.2354 1.473,20.4954 1.79,20.4954 L15.032,20.4954 C15.348,20.4954 15.605,20.2354 15.605,19.9124 L15.605,6.7764 L12.181,6.7764 C11.423,6.7764 10.801,6.1484 10.801,5.3834 L10.801,1.9254 L1.79,1.9254 Z M0.411,19.9124 L0.411,2.5044 C0.411,1.7424 1.036,1.1114 1.79,1.1114 L11.036,1.1114 C11.258,1.1114 11.452,1.1914 11.607,1.3524 C13.128,2.8894 14.651,4.4264 16.172,5.9634 C16.332,6.1234 16.411,6.3154 16.411,6.5394 L16.411,19.9124 C16.411,20.6814 15.79,21.3094 15.032,21.3094 L1.79,21.3094 C1.036,21.3094 0.411,20.6814 0.411,19.9124 Z" id="Fill-1" fill="#000000"></path>
                <g id="Group-6" transform="translate(0.000000, 0.420500)">
                    <mask id="mask-2" fill="white">
                        <use xlink:href="#path-1"></use>
                    </mask>
                    <g id="Clip-4"></g>
                    <polygon id="Fill-3" fill="#000000" mask="url(#mask-2)" points="-15.444 36.9 32.265 36.9 32.265 -15.321 -15.444 -15.321"></polygon>
                    <polygon id="Stroke-5" stroke="#000000" stroke-width="0.2" mask="url(#mask-2)" points="-15.444 36.9 32.265 36.9 32.265 -15.321 -15.444 -15.321"></polygon>
                </g>
                <path d="M11.607,2.5014 L11.607,5.3834 C11.607,5.7034 11.864,5.9664 12.181,5.9664 L15.038,5.9664 L11.607,2.5014 Z M1.79,1.9254 C1.473,1.9254 1.216,2.1854 1.216,2.5044 L1.216,19.9124 C1.216,20.2354 1.473,20.4954 1.79,20.4954 L15.032,20.4954 C15.348,20.4954 15.605,20.2354 15.605,19.9124 L15.605,6.7764 L12.181,6.7764 C11.423,6.7764 10.801,6.1484 10.801,5.3834 L10.801,1.9254 L1.79,1.9254 Z M0.411,19.9124 L0.411,2.5044 C0.411,1.7424 1.036,1.1114 1.79,1.1114 L11.036,1.1114 C11.258,1.1114 11.452,1.1914 11.607,1.3524 C13.128,2.8894 14.651,4.4264 16.172,5.9634 C16.332,6.1234 16.411,6.3154 16.411,6.5394 L16.411,19.9124 C16.411,20.6814 15.79,21.3094 15.032,21.3094 L1.79,21.3094 C1.036,21.3094 0.411,20.6814 0.411,19.9124 Z" id="Stroke-7" stroke="#000000" stroke-width="0.2"></path>
                <g id="Group-11" transform="translate(3.000000, 9.420500)">
                    <mask id="mask-4" fill="white">
                        <use xlink:href="#path-3"></use>
                    </mask>
                    <g id="Clip-10"></g>
                    <polygon id="Fill-9" fill="#000000" mask="url(#mask-4)" points="-19 23.125 23.017 23.125 23.017 -17.738 -19 -17.738"></polygon>
                </g>
                <g id="Group-14" transform="translate(7.000000, 9.420500)">
                    <mask id="mask-6" fill="white">
                        <use xlink:href="#path-5"></use>
                    </mask>
                    <g id="Clip-13"></g>
                    <polygon id="Fill-12" fill="#000000" mask="url(#mask-6)" points="-19.265 23.062 22.437 23.062 22.437 -17.738 -19.265 -17.738"></polygon>
                </g>
                <g id="Group-17" transform="translate(10.000000, 9.420500)">
                    <mask id="mask-8" fill="white">
                        <use xlink:href="#path-7"></use>
                    </mask>
                    <g id="Clip-16"></g>
                    <polygon id="Fill-15" fill="#000000" mask="url(#mask-8)" points="-19.203 23.126 22.821 23.126 22.821 -17.74 -19.203 -17.74"></polygon>
                </g>
            </g>
        </g>
    </g>
</svg>