<svg width="48" height="48" viewBox="0 0 48 48" version="1.1" xmlns="http://www.w3.org/2000/svg" xmlns:xlink="http://www.w3.org/1999/xlink">
<title>noun_1015063_cc</title>
<desc>Created using Figma</desc>
<g id="Canvas" transform="matrix(2 0 0 2 8224 1528)">
<g id="noun_1015063_cc">
<g id="Vector">
<use xlink:href="#path0_fill" transform="translate(-4112 -764)"/>
</g>
</g>
</g>
<defs>
<path id="path0_fill" d="M 23.2359 14.053L 11.4707 2.28521C 11.006 1.81888 10.3828 1.55014 9.70313 1.52846L 4.13212 1.53151C 3.55291 1.53151 3.01889 1.72452 2.58594 2.04639L 0.651684 0.111771C 0.502684 -0.0372571 0.26117 -0.0372571 0.111864 0.111771C -0.0374409 0.2608 -0.0371356 0.50236 0.111864 0.651694L 2.04612 2.58632C 1.72369 3.01935 1.53042 3.55347 1.52981 4.1334L 1.53042 9.71922C 1.5521 10.3865 1.82017 11.0092 2.28488 11.4721L 14.0501 23.2399C 14.5392 23.73 15.1951 24 15.8967 24C 15.8967 24 15.8967 24 15.897 24C 16.5977 24 17.253 23.7303 17.7427 23.2411L 23.2374 17.746C 24.2548 16.7272 24.2541 15.0708 23.2359 14.053ZM 22.6973 17.2064L 17.2026 22.7015C 16.8573 23.0469 16.3935 23.2368 15.8964 23.2368C 15.399 23.2368 14.9352 23.0466 14.5899 22.7006L 2.82379 10.9322C 2.49709 10.6064 2.30839 10.1666 2.29313 9.7067L 2.29282 4.13371C 2.29313 3.7645 2.40366 3.42094 2.59204 3.13265L 4.88841 5.42946C 4.59957 5.82769 4.42706 6.31508 4.42676 6.84371C 4.42706 8.1758 5.51098 9.25992 6.84282 9.26023C 8.17496 9.25992 9.25888 8.1758 9.25918 6.8434C 9.25888 5.51131 8.17496 4.42718 6.84312 4.42688C 6.3146 4.42688 5.82608 4.59973 5.42762 4.88954L 3.13156 2.59334C 3.41979 2.40553 3.76298 2.29498 4.13151 2.29498L 9.69031 2.29162C 10.1623 2.30689 10.602 2.49562 10.9296 2.82421L 22.6954 14.5923C 23.4047 15.3011 23.405 16.4979 22.6973 17.2064ZM 6.84343 5.19034C 7.75422 5.19065 8.49586 5.93243 8.49617 6.8434C 8.49586 7.75467 7.75422 8.49646 6.84312 8.49676C 5.93233 8.49646 5.19069 7.75467 5.19038 6.84401C 5.19099 5.93213 5.93264 5.19034 6.84343 5.19034Z"/>
</defs>
</svg>
