<?xml version="1.0" encoding="UTF-8"?>
<svg width="69px" height="69px" viewBox="0 0 69 69" version="1.1" xmlns="http://www.w3.org/2000/svg" xmlns:xlink="http://www.w3.org/1999/xlink">
    <!-- Generator: Sketch 53.2 (72643) - https://sketchapp.com -->
    <title>Artboard</title>
    <desc>Created with Sketch.</desc>
    <g id="Artboard" stroke="none" stroke-width="1" fill="none" fill-rule="evenodd">
        <g id="Icons/action/close" transform="translate(0.000000, -1.000000)" fill="#000000">
            <path d="M50.1412032,15.4884598 C51.3480384,14.2816245 53.304705,14.2816245 54.5115402,15.4884598 C55.7183755,16.695295 55.7183755,18.6519616 54.5115402,19.8587968 L39.370337,35 L54.5115402,50.1412032 C55.7183755,51.3480384 55.7183755,53.304705 54.5115402,54.5115402 C53.304705,55.7183755 51.3480384,55.7183755 50.1412032,54.5115402 L35,39.370337 L19.8587968,54.5115402 C18.6519616,55.7183755 16.695295,55.7183755 15.4884598,54.5115402 C14.2816245,53.304705 14.2816245,51.3480384 15.4884598,50.1412032 L30.629663,35 L15.4884598,19.8587968 C14.2816245,18.6519616 14.2816245,16.695295 15.4884598,15.4884598 C16.695295,14.2816245 18.6519616,14.2816245 19.8587968,15.4884598 L35,30.629663 L50.1412032,15.4884598 Z" id="Icons/actions/close"></path>
        </g>
    </g>
</svg>