<svg width="44" height="46" viewBox="0 0 44 46" version="1.1" xmlns="http://www.w3.org/2000/svg" xmlns:xlink="http://www.w3.org/1999/xlink">
<title>Group</title>
<desc>Created using Figma</desc>
<g id="Canvas" transform="matrix(2 0 0 2 7784 1530)">
<g id="Group">
<g id="Vector 4">
<use xlink:href="#path0_stroke" transform="translate(-3882.95 -745.625)"/>
</g>
<g id="Vector 4">
<use xlink:href="#path1_stroke" transform="matrix(-1 1.1631e-16 -1.28945e-16 -1 -3880.43 -762.807)"/>
</g>
<g id="Vector 3">
<use xlink:href="#path2_stroke" transform="translate(-3891 -763.05)"/>
</g>
</g>
</g>
<defs>
<path id="path0_stroke" d="M -0.396124 -0.118791C -0.516865 0.374865 -0.579068 1.14483 -0.315372 1.82205C -0.0276624 2.56094 0.628123 3.125 1.75885 3.125L 1.75885 2.125C 1.04052 2.125 0.754653 1.81406 0.616478 1.4592C 0.45429 1.04267 0.481972 0.500135 0.575243 0.118791L -0.396124 -0.118791ZM 1.75885 3.125C 2.88959 3.125 3.54537 2.56094 3.83307 1.82204C 4.09676 1.14482 4.03455 0.37486 3.91381 -0.118796L 2.94244 0.118796C 3.03572 0.50014 3.0634 1.04268 2.90122 1.45921C 2.76305 1.81406 2.47719 2.125 1.75885 2.125L 1.75885 3.125Z"/>
<path id="path1_stroke" d="M -0.44883 -0.112356C -0.506934 0.139602 -0.541726 0.545218 -0.404845 0.918057C -0.336568 1.09462 -0.178468 1.32691 0.00122522 1.46742C 0.212036 1.62033 0.469043 1.69318 0.753795 1.69318L 0.753795 0.693182C 0.642318 0.693182 0.60032 0.666605 0.588367 0.657935C 0.574249 0.647696 0.553276 0.626222 0.533891 0.57342C 0.488249 0.4491 0.49198 0.258125 0.525595 0.112356L -0.44883 -0.112356ZM 0.753795 1.69318C 1.03855 1.69318 1.29555 1.62033 1.50636 1.46742C 1.68606 1.32691 1.84416 1.09461 1.91243 0.918054C 2.04931 0.545213 2.01451 0.139597 1.95641 -0.11236L 0.981984 0.11236C 1.0156 0.25813 1.01933 0.449105 0.973693 0.573424C 0.954308 0.626225 0.933336 0.647698 0.91922 0.657936C 0.907268 0.666605 0.865271 0.693182 0.753795 0.693182L 0.753795 1.69318Z"/>
<path id="path2_stroke" d="M 0.0122759 17.4252L -0.482162 17.4996L -0.418141 17.9252L 0.0122759 17.9252L 0.0122759 17.4252ZM 0.514803 15.8741L 0.138967 15.5443L 0.514803 15.8741ZM 19.4852 15.8741L 19.8848 15.5735L 19.4852 15.8741ZM 19.9877 17.4252L 19.9877 17.9252L 20.4076 17.9252L 20.4802 17.5116L 19.9877 17.4252ZM 9.56029 16.9252L 0.0122759 16.9252L 0.0122759 17.9252L 9.56029 17.9252L 9.56029 16.9252ZM 0.506714 17.3508C 0.4812 17.1812 0.507358 16.6407 0.890639 16.2038L 0.138967 15.5443C -0.482806 16.2529 -0.540403 17.1124 -0.482162 17.4996L 0.506714 17.3508ZM 0.890639 16.2038C 1.47437 15.5386 3.38998 13.7253 3.52674 11.1276L 2.52812 11.0751C 2.41362 13.2501 0.811552 14.7778 0.138967 15.5443L 0.890639 16.2038ZM 3.52674 11.1276C 3.59535 9.82441 3.33968 7.25892 3.99623 4.8807C 4.31923 3.7024 4.82028 2.66992 5.71263 1.87442C 6.56817 1.10025 7.79203 0.560976 9.57611 0.504495L 9.54447 -0.495004C 7.55961 -0.432167 6.09808 0.176992 5.04166 1.13294C 4.02206 2.06756 3.38457 3.34686 3.03229 4.61459C 2.3383 7.12841 2.58515 9.9919 2.52812 11.0751L 3.52674 11.1276ZM 9.57611 0.504495C 11.3558 0.448153 12.6058 0.925255 13.5024 1.67014C 14.4389 2.43653 14.9976 3.47558 15.3816 4.67698C 16.1559 7.08499 16.0301 9.80542 16.0963 11.1264L 17.095 11.0763C 17.0356 9.89158 17.1611 6.94439 16.3336 4.37087C 15.9167 3.08149 15.2112 1.8013 14.1415 0.900962C 13.0319 -0.020877 11.5337 -0.55798 9.54447 -0.495004L 9.57611 0.504495ZM 16.0963 11.1264C 16.1788 12.4951 16.8115 13.6213 17.4634 14.4288C 17.7931 14.8349 18.1407 15.1894 18.4326 15.4817C 18.7251 15.7745 18.9524 15.9951 19.0856 16.1746L 19.8848 15.5735C 19.704 15.3354 19.4287 15.0639 19.1401 14.775C 18.851 14.4856 18.5391 14.1689 18.2405 13.7994C 17.6362 13.0558 17.1382 12.2133 17.095 11.0763L 16.0963 11.1264ZM 19.0856 16.1746C 19.5083 16.7366 19.5123 17.2418 19.4952 17.3388L 20.4802 17.5116C 20.5469 17.1314 20.4672 16.3479 19.8848 15.5735L 19.0856 16.1746ZM 19.9877 16.9252L 9.56029 16.9252L 9.56029 17.9252L 19.9877 17.9252L 19.9877 16.9252Z"/>
</defs>
</svg>
