<svg width="18" height="19" viewBox="0 0 18 19" fill="none" xmlns="http://www.w3.org/2000/svg">
<mask id="mask0" mask-type="alpha" maskUnits="userSpaceOnUse" x="0" y="0" width="18" height="19">
<path fill-rule="evenodd" clip-rule="evenodd" d="M8.91875 18.213H0V0H8.91875H17.8375V18.213H8.91875V18.213Z" fill="white"/>
</mask>
<g mask="url(#mask0)">
<path fill-rule="evenodd" clip-rule="evenodd" d="M17.3105 15.1309C17.2475 15.2359 17.1765 15.2809 17.0675 15.2809H0.781493C0.667493 15.2809 0.597493 15.2359 0.538493 15.1279C0.516493 15.0889 0.505493 15.0599 0.505493 15.0109C0.505493 14.9589 0.529493 14.9129 0.569493 14.8559C1.24649 13.8489 1.76849 12.7519 2.12049 11.5969C2.47749 10.4339 2.79449 8.77693 3.06749 6.67393C3.20449 5.60093 3.62849 4.56793 4.23249 3.84393C4.49749 3.52293 4.80649 3.22993 5.14849 2.98193C5.86449 2.45593 6.43249 2.22693 7.06649 2.04393L7.21149 2.00093L7.24349 1.85293C7.32649 1.46193 7.52049 1.14693 7.83849 0.88993C8.15349 0.63193 8.51649 0.50293 8.91449 0.50293C9.32349 0.50293 9.67949 0.63193 10.0035 0.89593C10.3255 1.15393 10.5225 1.46593 10.6045 1.85293L10.6355 2.00093L10.7815 2.04393C11.4145 2.22793 11.9785 2.45893 12.6895 2.98493C13.0355 3.23093 13.3345 3.51193 13.6095 3.84593C14.2175 4.57793 14.6435 5.61093 14.7825 6.67393C15.0635 8.85893 15.3715 10.4689 15.7195 11.5949C16.0725 12.7549 16.5995 13.8569 17.2825 14.8639C17.3265 14.9259 17.3325 14.9659 17.3325 14.9989C17.3325 15.0049 17.3325 15.0119 17.3315 15.0209L17.3635 15.0409L17.3105 15.1309ZM11.0445 15.9151C10.9705 16.3391 10.7715 16.7141 10.4365 17.0591C10.0175 17.4931 9.52051 17.7051 8.91751 17.7051C8.32051 17.7051 7.81551 17.4931 7.37851 17.0551C7.04151 16.7191 6.84551 16.3481 6.77251 15.9151L6.74951 15.7861H11.0665L11.0445 15.9151ZM17.8375 14.999C17.8375 14.848 17.7915 14.706 17.7015 14.576C17.0475 13.612 16.5425 12.561 16.2025 11.448C15.8645 10.352 15.5575 8.723 15.2845 6.607C15.1325 5.447 14.6635 4.322 13.9965 3.523C13.6935 3.156 13.3635 2.843 12.9885 2.569C12.2145 2.003 11.5815 1.764 11.1195 1.617L11.0655 1.6L11.0485 1.544C10.9185 1.136 10.6745 0.783 10.3215 0.498C9.92351 0.175 9.42351 0 8.91451 0C8.40651 0 7.91051 0.175 7.51651 0.496C7.16951 0.78 6.92751 1.134 6.79951 1.544L6.78251 1.6L6.72751 1.617C6.01351 1.842 5.47151 2.117 4.85151 2.569C4.47851 2.843 4.13751 3.162 3.84151 3.523C3.17951 4.318 2.71351 5.443 2.56651 6.607C2.29551 8.694 1.98351 10.32 1.63751 11.448C1.29251 12.566 0.792512 13.616 0.148512 14.574C0.0485117 14.722 -0.000488281 14.866 -0.000488281 15.011C-0.000488281 15.147 0.0315117 15.267 0.0995117 15.386C0.250512 15.647 0.487512 15.786 0.781512 15.786H6.25551L6.26851 15.882C6.34351 16.473 6.59551 16.989 7.01851 17.415C7.55151 17.945 8.18951 18.213 8.91751 18.213C9.65051 18.213 10.2845 17.944 10.8015 17.41C11.2225 16.976 11.4745 16.462 11.5485 15.882L11.5625 15.786H17.0675C17.3655 15.786 17.6015 15.639 17.7675 15.349C17.8115 15.244 17.8375 15.122 17.8375 14.999V14.999Z" fill="black"/>
<path d="M17.3105 15.1309L17.482 15.2338L17.4828 15.2324L17.3105 15.1309ZM0.538493 15.1279L0.714026 15.032L0.712689 15.0297L0.538493 15.1279ZM0.569493 14.8559L0.733237 14.9708L0.735471 14.9675L0.569493 14.8559ZM2.12049 11.5969L1.9293 11.5382L1.92918 11.5386L2.12049 11.5969ZM3.06749 6.67393L3.26583 6.69968L3.26588 6.69926L3.06749 6.67393ZM4.23249 3.84393L4.38607 3.97205L4.38673 3.97126L4.23249 3.84393ZM5.14849 2.98193L5.2659 3.14384L5.2669 3.14311L5.14849 2.98193ZM7.06649 2.04393L7.12196 2.23609L7.12336 2.23568L7.06649 2.04393ZM7.21149 2.00093L7.26836 2.19268L7.38194 2.15899L7.40698 2.0432L7.21149 2.00093ZM7.24349 1.85293L7.43898 1.8952L7.43913 1.89446L7.24349 1.85293ZM7.83849 0.88993L7.96421 1.04548L7.96522 1.04466L7.83849 0.88993ZM10.0035 0.89593L9.87715 1.05098L9.87844 1.05201L10.0035 0.89593ZM10.6045 1.85293L10.8002 1.81193L10.8001 1.81147L10.6045 1.85293ZM10.6355 2.00093L10.4397 2.04193L10.4643 2.15899L10.579 2.19278L10.6355 2.00093ZM10.7815 2.04393L10.725 2.23578L10.7257 2.23598L10.7815 2.04393ZM12.6895 2.98493L12.5705 3.14574L12.5736 3.14793L12.6895 2.98493ZM13.6095 3.84593L13.4551 3.97306L13.4556 3.97372L13.6095 3.84593ZM14.7825 6.67393L14.9809 6.64842L14.9808 6.648L14.7825 6.67393ZM15.7195 11.5949L15.9108 11.5367L15.9106 11.5359L15.7195 11.5949ZM17.2825 14.8639L17.1169 14.9762L17.1194 14.9797L17.2825 14.8639ZM17.3315 15.0209L17.1327 14.9988L17.1188 15.1239L17.2255 15.1905L17.3315 15.0209ZM17.3635 15.0409L17.5358 15.1424L17.6347 14.9746L17.4695 14.8713L17.3635 15.0409ZM11.0445 15.9151L11.2415 15.9495L11.2417 15.9488L11.0445 15.9151ZM10.4365 17.0591L10.293 16.9198L10.2926 16.9202L10.4365 17.0591ZM7.37851 17.0551L7.5201 16.9139L7.51972 16.9135L7.37851 17.0551ZM6.77251 15.9151L6.96974 15.8819L6.96941 15.88L6.77251 15.9151ZM6.74951 15.7861V15.5861H6.5107L6.55262 15.8212L6.74951 15.7861ZM11.0665 15.7861L11.2637 15.8198L11.3035 15.5861H11.0665V15.7861ZM17.7015 14.576L17.536 14.6883L17.5371 14.6898L17.7015 14.576ZM16.2025 11.448L16.3938 11.3896L16.3936 11.3891L16.2025 11.448ZM15.2845 6.607L15.4829 6.58141L15.4828 6.58102L15.2845 6.607ZM13.9965 3.523L13.8423 3.65033L13.843 3.65117L13.9965 3.523ZM12.9885 2.569L12.8705 2.73044L12.8705 2.73049L12.9885 2.569ZM11.1195 1.617L11.1802 1.42641L11.1796 1.42623L11.1195 1.617ZM11.0655 1.6L10.8741 1.6581L10.9048 1.75908L11.0055 1.79077L11.0655 1.6ZM11.0485 1.544L11.2399 1.4859L11.2391 1.48328L11.0485 1.544ZM10.3215 0.498L10.1955 0.653295L10.1959 0.653613L10.3215 0.498ZM7.51651 0.496L7.39019 0.340945L7.38984 0.341228L7.51651 0.496ZM6.79951 1.544L6.60859 1.4844L6.60814 1.4859L6.79951 1.544ZM6.78251 1.6L6.84157 1.79108L6.94304 1.75972L6.97389 1.6581L6.78251 1.6ZM6.72751 1.617L6.66845 1.42592L6.6674 1.42625L6.72751 1.617ZM4.85151 2.569L4.73369 2.40739L4.73311 2.40782L4.85151 2.569ZM3.84151 3.523L3.99521 3.65098L3.99617 3.64981L3.84151 3.523ZM2.56651 6.607L2.76485 6.63275L2.76494 6.63206L2.56651 6.607ZM1.63751 11.448L1.82862 11.507L1.82872 11.5067L1.63751 11.448ZM0.148512 14.574L0.31423 14.686L0.314494 14.6856L0.148512 14.574ZM0.0995117 15.386L-0.0741394 15.4852L-0.0736038 15.4862L0.0995117 15.386ZM6.25551 15.786L6.4537 15.7592L6.43025 15.586H6.25551V15.786ZM6.26851 15.882L6.46693 15.8568L6.4667 15.8552L6.26851 15.882ZM7.01851 17.415L6.87659 17.5559L6.87749 17.5568L7.01851 17.415ZM10.8015 17.41L10.658 17.2707L10.6578 17.2709L10.8015 17.41ZM11.5485 15.882L11.3506 15.8531L11.3501 15.8567L11.5485 15.882ZM11.5625 15.786V15.586H11.3896L11.3646 15.7571L11.5625 15.786ZM17.7675 15.349L17.9411 15.4484L17.9472 15.4377L17.952 15.4263L17.7675 15.349ZM17.139 15.028C17.1176 15.0637 17.1042 15.0732 17.1007 15.0754C17.0994 15.0762 17.0929 15.0809 17.0675 15.0809V15.4809C17.1511 15.4809 17.2345 15.4632 17.3118 15.4152C17.3868 15.3686 17.4404 15.3031 17.482 15.2338L17.139 15.028ZM17.0675 15.0809H0.781493V15.4809H17.0675V15.0809ZM0.781493 15.0809C0.766009 15.0809 0.757033 15.0794 0.752447 15.0782C0.748384 15.0772 0.746924 15.0763 0.746289 15.0759C0.745345 15.0753 0.733614 15.0679 0.71401 15.032L0.362976 15.2238C0.402373 15.2959 0.455142 15.365 0.532448 15.414C0.611472 15.4639 0.697236 15.4809 0.781493 15.4809V15.0809ZM0.712689 15.0297C0.704788 15.0157 0.704593 15.0133 0.705236 15.0155C0.705383 15.016 0.705521 15.0165 0.705631 15.017C0.70574 15.0175 0.705776 15.0178 0.705769 15.0177C0.705759 15.0177 0.705493 15.0157 0.705493 15.0109H0.305493C0.305493 15.1036 0.330578 15.1664 0.364297 15.2262L0.712689 15.0297ZM0.705493 15.0109C0.705493 15.0176 0.703552 15.0204 0.705704 15.0155C0.708816 15.0084 0.716004 14.9953 0.733205 14.9708L0.405782 14.741C0.362168 14.8032 0.305493 14.8931 0.305493 15.0109H0.705493ZM0.735471 14.9675C1.42345 13.9442 1.95402 12.8292 2.31181 11.6552L1.92918 11.5386C1.58297 12.6746 1.06953 13.7537 0.403515 14.7443L0.735471 14.9675ZM2.31169 11.6556C2.67359 10.4766 2.99231 8.80668 3.26583 6.69968L2.86916 6.64818C2.59668 8.74718 2.2814 10.3912 1.9293 11.5382L2.31169 11.6556ZM3.26588 6.69926C3.39881 5.65813 3.81009 4.66246 4.38607 3.97205L4.07892 3.71581C3.4469 4.4734 3.01017 5.54373 2.8691 6.6486L3.26588 6.69926ZM4.38673 3.97126C4.6413 3.66289 4.93801 3.38161 5.2659 3.14384L5.03108 2.82002C4.67497 3.07825 4.35369 3.38297 4.07826 3.7166L4.38673 3.97126ZM5.2669 3.14311C5.9601 2.63386 6.50556 2.414 7.12196 2.23609L7.01103 1.85177C6.35942 2.03986 5.76889 2.278 5.03008 2.82075L5.2669 3.14311ZM7.12336 2.23568L7.26836 2.19268L7.15463 1.80918L7.00963 1.85218L7.12336 2.23568ZM7.40698 2.0432L7.43898 1.8952L7.04801 1.81066L7.01601 1.95866L7.40698 2.0432ZM7.43913 1.89446C7.51243 1.54918 7.68126 1.27416 7.96421 1.04548L7.71278 0.734378C7.35973 1.0197 7.14056 1.37468 7.04785 1.8114L7.43913 1.89446ZM7.96522 1.04466C8.24473 0.815721 8.56303 0.70293 8.91449 0.70293V0.30293C8.46996 0.30293 8.06225 0.448139 7.71177 0.735204L7.96522 1.04466ZM8.91449 0.70293C9.27611 0.70293 9.58778 0.815188 9.87716 1.05098L10.1298 0.740883C9.77121 0.448672 9.37087 0.30293 8.91449 0.30293V0.70293ZM9.87844 1.05201C10.1664 1.28278 10.337 1.55515 10.4088 1.89439L10.8001 1.81147C10.708 1.37671 10.4845 1.02508 10.1286 0.739851L9.87844 1.05201ZM10.4087 1.89393L10.4397 2.04193L10.8312 1.95993L10.8002 1.81193L10.4087 1.89393ZM10.579 2.19278L10.725 2.23578L10.838 1.85208L10.692 1.80908L10.579 2.19278ZM10.7257 2.23598C11.3406 2.41474 11.8821 2.63642 12.5705 3.14571L12.8084 2.82415C12.0749 2.28143 11.4884 2.04112 10.8373 1.85188L10.7257 2.23598ZM12.5736 3.14793C12.9046 3.38329 13.1908 3.65207 13.4551 3.97305L13.7639 3.7188C13.4782 3.37178 13.1663 3.07857 12.8054 2.82193L12.5736 3.14793ZM13.4556 3.97372C14.0362 4.67274 14.4494 5.66895 14.5842 6.69986L14.9808 6.648C14.8376 5.55291 14.3987 4.48312 13.7633 3.71814L13.4556 3.97372ZM14.5841 6.69944C14.8656 8.88805 15.1753 10.5115 15.5284 11.654L15.9106 11.5359C15.5677 10.4264 15.2614 8.8298 14.9809 6.64842L14.5841 6.69944ZM15.5282 11.6532C15.887 12.8324 16.4228 13.9527 17.117 14.9762L17.448 14.7517C16.7762 13.7612 16.258 12.6774 15.9108 11.5367L15.5282 11.6532ZM17.1194 14.9797C17.1321 14.9976 17.134 15.0048 17.1335 15.0033C17.1333 15.0025 17.1329 15.001 17.1326 14.9991C17.1324 14.9974 17.1325 14.9969 17.1325 14.9989H17.5325C17.5325 14.9241 17.5134 14.8438 17.4456 14.7482L17.1194 14.9797ZM17.1325 14.9989L17.1327 14.9988L17.5303 15.043C17.5326 15.0222 17.5325 15.0057 17.5325 14.9989H17.1325ZM17.2255 15.1905L17.2575 15.2105L17.4695 14.8713L17.4375 14.8513L17.2255 15.1905ZM17.1912 14.9394L17.1382 15.0294L17.4828 15.2324L17.5358 15.1424L17.1912 14.9394ZM10.8475 15.8807C10.7812 16.2607 10.6034 16.6002 10.293 16.9198L10.58 17.1985C10.9397 16.8281 11.1599 16.4175 11.2415 15.9495L10.8475 15.8807ZM10.2926 16.9202C9.91114 17.3154 9.46599 17.5051 8.91751 17.5051V17.9051C9.57503 17.9051 10.1239 17.6709 10.5804 17.198L10.2926 16.9202ZM8.91751 17.5051C8.3753 17.5051 7.92077 17.3155 7.52009 16.9139L7.23693 17.1964C7.71025 17.6708 8.26572 17.9051 8.91751 17.9051V17.5051ZM7.51972 16.9135C7.21 16.6047 7.0353 16.2708 6.96973 15.8819L6.57529 15.9484C6.65572 16.4254 6.87302 16.8336 7.2373 17.1968L7.51972 16.9135ZM6.96941 15.88L6.94641 15.751L6.55262 15.8212L6.57562 15.9502L6.96941 15.88ZM6.74951 15.9861H11.0665V15.5861H6.74951V15.9861ZM10.8694 15.7525L10.8474 15.8815L11.2417 15.9488L11.2637 15.8198L10.8694 15.7525ZM18.0375 14.999C18.0375 14.8049 17.9777 14.6235 17.8659 14.4622L17.5371 14.6898C17.6053 14.7885 17.6375 14.8911 17.6375 14.999H18.0375ZM17.867 14.4637C17.2241 13.5161 16.7279 12.4832 16.3938 11.3896L16.0112 11.5064C16.3572 12.6388 16.8709 13.7079 17.536 14.6883L17.867 14.4637ZM16.3936 11.3891C16.0608 10.3097 15.7555 8.69426 15.4829 6.58141L15.0862 6.63259C15.3596 8.75174 15.6683 10.3943 16.0114 11.5069L16.3936 11.3891ZM15.4828 6.58102C15.3265 5.38836 14.8444 4.22657 14.15 3.39483L13.843 3.65117C14.4826 4.41743 14.9385 5.50564 15.0862 6.63298L15.4828 6.58102ZM14.1507 3.39567C13.8375 3.0163 13.4955 2.69171 13.1065 2.40751L12.8705 2.73049C13.2316 2.99429 13.5495 3.2957 13.8423 3.65033L14.1507 3.39567ZM13.1066 2.40756C12.31 1.82507 11.6557 1.57772 11.1802 1.42641L11.0589 1.80759C11.5073 1.95028 12.119 2.18093 12.8705 2.73044L13.1066 2.40756ZM11.1796 1.42623L11.1256 1.40923L11.0055 1.79077L11.0595 1.80777L11.1796 1.42623ZM11.2569 1.5419L11.2399 1.4859L10.8571 1.6021L10.8741 1.6581L11.2569 1.5419ZM11.2391 1.48328C11.0966 1.03622 10.8291 0.650794 10.4471 0.342387L10.1959 0.653613C10.5199 0.915206 10.7404 1.23578 10.858 1.60472L11.2391 1.48328ZM10.4475 0.342706C10.0136 -0.00950158 9.46895 -0.2 8.91451 -0.2V0.2C9.37807 0.2 9.83347 0.359502 10.1955 0.653294L10.4475 0.342706ZM8.91451 -0.2C8.36087 -0.2 7.82016 -0.00936575 7.39019 0.340946L7.64284 0.651054C8.00086 0.359366 8.45216 0.2 8.91451 0.2V-0.2ZM7.38984 0.341228C7.01393 0.648893 6.74876 1.03546 6.6086 1.4844L6.99042 1.6036C7.10627 1.23254 7.3251 0.911107 7.64318 0.650772L7.38984 0.341228ZM6.60814 1.4859L6.59114 1.5419L6.97389 1.6581L6.99089 1.6021L6.60814 1.4859ZM6.72345 1.40892L6.66845 1.42592L6.78657 1.80808L6.84157 1.79108L6.72345 1.40892ZM6.6674 1.42625C5.93221 1.65793 5.37079 1.94293 4.73369 2.40739L4.96933 2.73061C5.57224 2.29107 6.09482 2.02607 6.78762 1.80775L6.6674 1.42625ZM4.73311 2.40782C4.34732 2.69121 3.99398 3.02162 3.68685 3.39619L3.99617 3.64981C4.28105 3.30238 4.60971 2.99479 4.96992 2.73018L4.73311 2.40782ZM3.68782 3.39502C2.99833 4.22304 2.51923 5.38512 2.36809 6.58194L2.76494 6.63206C2.90779 5.50088 3.3607 4.41296 3.9952 3.65098L3.68782 3.39502ZM2.36818 6.58125C2.09769 8.6643 1.7874 10.2773 1.4463 11.3893L1.82872 11.5067C2.17962 10.3627 2.49333 8.7237 2.76485 6.63275L2.36818 6.58125ZM1.4464 11.389C1.10708 12.4886 0.615468 13.5209 -0.0174706 14.4624L0.314494 14.6856C0.969555 13.7111 1.47794 12.6434 1.82862 11.507L1.4464 11.389ZM-0.0172061 14.462C-0.134406 14.6355 -0.200488 14.8178 -0.200488 15.011H0.199512C0.199512 14.9142 0.231429 14.8085 0.31423 14.686L-0.0172061 14.462ZM-0.200488 15.011C-0.200488 15.1821 -0.159264 15.3363 -0.0741369 15.4852L0.27316 15.2868C0.222287 15.1977 0.199512 15.1119 0.199512 15.011H-0.200488ZM-0.0736038 15.4862C0.112015 15.807 0.413893 15.986 0.781512 15.986V15.586C0.56113 15.586 0.389008 15.487 0.272627 15.2858L-0.0736038 15.4862ZM0.781512 15.986H6.25551V15.586H0.781512V15.986ZM6.05732 15.8128L6.07032 15.9088L6.4667 15.8552L6.4537 15.7592L6.05732 15.8128ZM6.0701 15.9072C6.15068 16.5421 6.42267 17.0988 6.87659 17.5559L7.16043 17.2741C6.76835 16.8792 6.53634 16.4039 6.46692 15.8568L6.0701 15.9072ZM6.87749 17.5568C7.44663 18.1228 8.13481 18.413 8.91751 18.413V18.013C8.24422 18.013 7.6564 17.7672 7.15953 17.2732L6.87749 17.5568ZM8.91751 18.413C9.70517 18.413 10.3909 18.1217 10.9452 17.5491L10.6578 17.2709C10.1782 17.7663 9.59585 18.013 8.91751 18.013V18.413ZM10.9451 17.5493C11.3949 17.0855 11.6672 16.532 11.7469 15.9073L11.3501 15.8567C11.2818 16.392 11.0501 16.8665 10.658 17.2707L10.9451 17.5493ZM11.7464 15.9109L11.7604 15.8149L11.3646 15.7571L11.3506 15.8531L11.7464 15.9109ZM11.5625 15.986H17.0675V15.586H11.5625V15.986ZM17.0675 15.986C17.4469 15.986 17.7446 15.7917 17.9411 15.4484L17.5939 15.2496C17.4585 15.4863 17.2841 15.586 17.0675 15.586V15.986ZM17.952 15.4263C18.006 15.2974 18.0375 15.1491 18.0375 14.999H17.6375C17.6375 15.0949 17.617 15.1906 17.5831 15.2717L17.952 15.4263Z" fill="black"/>
</g>
</svg>
