<svg width="112" height="135" viewBox="0 0 112 135" fill="none" xmlns="http://www.w3.org/2000/svg">
<path fill-rule="evenodd" clip-rule="evenodd" d="M91.6427 88.2393L74.8627 83.7497L74.3516 81.5387C85.7904 79.2827 91.7547 75.5726 92.0208 75.4002C93.0008 74.7782 93.6169 73.6539 93.7009 72.4322C93.7849 71.2105 93.2808 69.9963 92.3918 69.2243C92.3218 69.1569 84.6073 62.1265 84.6073 37.9625C84.6073 16.0169 79.588 4.88678 69.6894 4.88678H68.8353C65.5451 1.56647 62.7729 0 55.9965 0C47.0359 0 27.3857 9.5562 27.3857 37.9625C27.3857 62.1265 19.6782 69.1569 19.6572 69.1794C18.7262 69.9214 18.2011 71.1206 18.2641 72.3648C18.3201 73.6089 18.9502 74.7407 19.9512 75.3853C20.2243 75.5576 26.1256 79.2902 37.6414 81.5462L37.1373 83.7422L20.3573 88.2318C8.37252 91.4397 0 117.416 0 130.652C0 136.92 0.364023 114.162 1.02206 124.082C1.6801 134.003 2.01631 131.325 2.94737 131.325C3.87843 131.325 108.5 134.4 108.5 134.4C110.432 134.4 112 130.652 112 130.652C112 130.652 103.627 91.4472 91.6427 88.2393Z" fill="white"/>
</svg>
