<svg width="66" height="64" viewBox="0 0 66 64" fill="none" xmlns="http://www.w3.org/2000/svg">
<path fill-rule="evenodd" clip-rule="evenodd" d="M55.9936 45.7374C55.9898 45.9099 55.9788 46.0799 55.9595 46.2463C51.0868 41.5119 46.2145 36.7769 41.3421 32.0422C43.4495 29.962 45.5523 27.8768 47.6604 25.7973C50.4188 23.0763 53.1773 20.3547 55.9361 17.6337C56.0319 18.2421 55.9936 18.9321 55.9936 19.5685V28.031C55.9936 33.9287 56.1225 39.8414 55.9936 45.7374ZM54.1848 48.1072H21.0622H12.9722C11.8984 48.1072 10.684 48.2617 9.60911 48.0869L24.4105 33.8441C24.7974 34.223 25.1843 34.6016 25.5711 34.9805C27.0325 36.4115 28.5842 37.612 30.7067 37.9471C33.4569 38.3814 35.936 37.337 37.8635 35.4617C38.4178 34.9221 38.9659 34.3765 39.5182 33.835C44.4133 38.5916 49.3087 43.3485 54.2038 48.1055C54.1972 48.1058 54.1914 48.1068 54.1848 48.1072ZM7.93496 42.8231V33.3538V23.078C7.93496 21.3352 7.74065 19.4706 7.93496 17.7356C7.93599 17.7265 7.93806 17.7198 7.93909 17.711C12.8208 22.4922 17.7024 27.2731 22.5837 32.0544C17.701 36.753 12.8183 41.4515 7.93565 46.1501C7.7565 45.0268 7.93496 43.6761 7.93496 42.8231ZM11.6913 15.9176H18.9983H40.2037C44.7722 15.9176 49.4269 15.6612 53.9899 15.9176C54.0043 15.9183 54.0157 15.9213 54.0298 15.922C48.4385 21.4378 42.8468 26.9539 37.2555 32.4697C36.2419 33.4695 35.2473 34.6599 33.8745 35.1799C31.3944 36.1193 29.2612 35.0159 27.5504 33.3403C24.2479 30.1054 20.9451 26.8709 17.6423 23.6361C15.0255 21.0727 12.4086 18.51 9.79171 15.9466C10.3991 15.8737 11.0743 15.9176 11.6913 15.9176ZM58.5774 35.6688C58.5774 29.7478 58.7783 23.7899 58.5774 17.8719C58.4827 15.0838 56.4487 13.418 53.6957 13.3869C51.7141 13.3647 49.7305 13.3869 47.7485 13.3869H25.5189C20.3489 13.3869 15.162 13.2661 9.99298 13.3869C7.16975 13.4527 5.39485 15.3868 5.3511 18.094C5.31113 20.5669 5.3511 23.0436 5.3511 25.5169V45.3153C5.3511 48.0619 6.61268 50.4988 9.77525 50.6378C11.2408 50.7026 12.7242 50.6378 14.1908 50.6378H53.221H54.1849C54.2969 50.6378 54.3999 50.6246 54.4967 50.6034C56.8022 50.3132 58.4634 48.6932 58.5774 46.3333C58.6019 45.8231 58.5774 45.3066 58.5774 44.7957V35.6688Z" fill="black"/>
<path fill-rule="evenodd" clip-rule="evenodd" d="M58 23C62.4183 23 66 19.4183 66 15C66 10.5817 62.4183 7 58 7C53.5817 7 50 10.5817 50 15C50 19.4183 53.5817 23 58 23Z" fill="#B9007E"/>
<path d="M60.2746 18.075V19H56.2746V18.075H57.7396V13.86C57.7396 13.6933 57.7446 13.5217 57.7546 13.345L56.7146 14.215C56.6546 14.2617 56.5946 14.2917 56.5346 14.305C56.4779 14.315 56.4229 14.315 56.3696 14.305C56.3196 14.295 56.2746 14.2783 56.2346 14.255C56.1946 14.2283 56.1646 14.2 56.1446 14.17L55.7546 13.635L57.9596 11.76H58.9746V18.075H60.2746Z" fill="white"/>
</svg>
