<svg width="44" height="72" viewBox="0 0 44 72" version="1.1" xmlns="http://www.w3.org/2000/svg" xmlns:xlink="http://www.w3.org/1999/xlink">
<title>Group 2</title>
<desc>Created using Figma</desc>
<g id="Canvas" transform="matrix(2 0 0 2 7802 -23282)">
<g id="Group 2">
<g id="Fill 1 Copy 6">
<use xlink:href="#path0_fill" transform="translate(-3900.33 11641.5)"/>
</g>
</g>
</g>
<defs>
<path id="path0_fill" fill-rule="evenodd" d="M 10.4874 31.3691C 10.024 31.3691 9.64844 31.7387 9.64844 32.1946C 9.64844 32.6506 10.024 33.0202 10.4874 33.0202C 10.9507 33.0202 11.3263 32.6506 11.3263 32.1946C 11.3263 31.7387 10.9507 31.3691 10.4874 31.3691ZM 0.838867 34.671L 20.1356 34.671L 20.1356 29.7178L 0.838867 29.7178L 0.838867 34.671ZM 0.838867 28.8934L 20.1356 28.8934L 20.1356 4.95312L 0.838867 4.95312L 0.838867 28.8934ZM 0.838867 4.12832L 20.1356 4.12832L 20.1356 0.826172L 0.838867 0.826172L 0.838867 4.12832ZM 0.419455 0C 0.144833 0 -0.00181526 0.234575 1.69618e-05 0.412777L 1.69618e-05 35.0849C 1.69618e-05 35.301 0.19987 35.4976 0.419455 35.4977L 20.5552 35.4977C 20.7748 35.4976 20.9746 35.301 20.9747 35.0849L 20.9747 0.412777C 20.9746 0.196647 20.7748 6.93394e-05 20.5552 0L 0.419455 0Z"/>
</defs>
</svg>
