<svg width="24" height="24" viewBox="0 0 24 24" fill="none" xmlns="http://www.w3.org/2000/svg">
<path fill-rule="evenodd" clip-rule="evenodd" d="M20.1775 18.3958L16.7814 15.001C17.9362 13.163 17.9278 10.8006 16.764 8.97095L20.1583 5.57617C23.1278 9.33748 23.1368 14.6261 20.1775 18.3958V18.3958ZM15.0748 15.9934L14.9446 15.8639L15.8642 14.9448L20.1919 19.2736L19.2734 20.1921L15.0748 15.9934ZM5.57538 20.158L8.9702 16.7632C10.8005 17.9282 13.1635 17.9354 15.0004 16.7812L18.3952 20.1778C14.6254 23.1364 9.33734 23.128 5.57538 20.158V20.158ZM3.81828 5.60107L7.2155 8.99705C6.07569 10.8105 6.06729 13.1525 7.1969 14.9737L3.79908 18.3715C0.870978 14.6156 0.879977 9.34798 3.81828 5.60107V5.60107ZM3.76068 4.67797L4.67792 3.76074L9.00739 8.08895L8.08894 9.00618L3.76068 4.67797ZM18.3712 3.79962L14.9733 7.19679C13.1521 6.0678 10.8107 6.0756 8.99657 7.21479L5.60175 3.81882C9.34691 0.879358 14.6158 0.871559 18.3712 3.79962V3.79962ZM15.8642 9.00618L14.9446 8.08895L15.0514 7.98337L19.2752 3.76074L20.1919 4.67797L15.8642 9.00618ZM3.76068 19.2736L7.98336 15.0498L8.08894 14.9448L9.00739 15.8621L8.8976 15.973L4.67792 20.1921L3.76068 19.2736ZM14.0819 15.864L14.5546 16.3368C12.9733 17.269 10.99 17.2612 9.4147 16.3188L9.86942 15.864L8.08772 14.0818L7.6426 14.5281C6.73495 12.963 6.74095 11.0001 7.6594 9.44163L8.08772 9.86995L9.86942 8.08708L9.44169 7.65996C11.0002 6.74093 12.9631 6.73493 14.5276 7.64316L14.0819 8.08708L15.8642 9.86995L16.3183 9.41463C17.262 10.9899 17.2692 12.9738 16.3369 14.5545L15.8642 14.0818L14.0819 15.864ZM19.2734 2.89566L18.8037 3.36538C14.8054 0.203959 9.15855 0.212357 5.16863 3.38577L4.67791 2.89566L2.89502 4.67794L3.38633 5.16864C0.212873 9.15851 0.203275 14.8053 3.36534 18.8041L2.89502 19.2738L4.67791 21.0561L5.14343 20.5906C9.14715 23.7958 14.8156 23.8036 18.8289 20.611L19.2734 21.0561L21.0563 19.2738L20.6118 18.8293C23.8038 14.8155 23.7955 9.14771 20.5902 5.14285L21.0563 4.67794L19.2734 2.89566Z" fill="black"/>
<path d="M16.7814 15.001L16.6968 14.9478L16.6543 15.0154L16.7107 15.0718L16.7814 15.001ZM16.764 8.97095L16.6933 8.90024L16.6366 8.95695L16.6797 9.02462L16.764 8.97095ZM20.1583 5.57617L20.2367 5.51421L20.1671 5.42594L20.0875 5.50547L20.1583 5.57617ZM15.0748 15.9934L15.1455 15.9227L15.1453 15.9226L15.0748 15.9934ZM14.9446 15.8639L14.8739 15.7931L14.803 15.864L14.874 15.9347L14.9446 15.8639ZM15.8642 14.9448L15.9349 14.8741L15.8643 14.8034L15.7935 14.8741L15.8642 14.9448ZM20.1919 19.2736L20.2626 19.3443L20.3333 19.2736L20.2626 19.2029L20.1919 19.2736ZM19.2734 20.1921L19.2027 20.2628L19.2734 20.3335L19.3442 20.2628L19.2734 20.1921ZM8.9702 16.7632L9.0239 16.6788L8.95622 16.6357L8.89949 16.6925L8.9702 16.7632ZM15.0004 16.7812L15.0711 16.7105L15.0147 16.6541L14.9472 16.6965L15.0004 16.7812ZM18.3952 20.1778L18.4569 20.2564L18.5456 20.1868L18.4659 20.1071L18.3952 20.1778ZM7.2155 8.99705L7.30016 9.05026L7.34261 8.98272L7.28619 8.92633L7.2155 8.99705ZM7.1969 14.9737L7.26761 15.0445L7.32366 14.9884L7.28188 14.921L7.1969 14.9737ZM3.79908 18.3715L3.72021 18.433L3.78978 18.5222L3.86979 18.4422L3.79908 18.3715ZM3.76068 4.67797L3.68997 4.60726L3.61926 4.67797L3.68997 4.74868L3.76068 4.67797ZM4.67792 3.76074L4.74863 3.69002L4.67791 3.61933L4.60721 3.69003L4.67792 3.76074ZM9.00739 8.08895L9.07805 8.1597L9.14886 8.08898L9.07809 8.01822L9.00739 8.08895ZM8.08894 9.00618L8.01823 9.07689L8.0889 9.14755L8.15961 9.07693L8.08894 9.00618ZM14.9733 7.19679L14.9207 7.28179L14.988 7.32354L15.0441 7.26751L14.9733 7.19679ZM8.99657 7.21479L8.92584 7.28549L8.98222 7.34188L9.04975 7.29948L8.99657 7.21479ZM5.60175 3.81882L5.54 3.74015L5.4513 3.80977L5.53102 3.88952L5.60175 3.81882ZM15.8642 9.00618L15.7936 9.07698L15.8643 9.14751L15.9349 9.07688L15.8642 9.00618ZM14.9446 8.08895L14.8743 8.01784L14.8027 8.08864L14.874 8.15975L14.9446 8.08895ZM15.0514 7.98337L15.1217 8.05448L15.1221 8.05409L15.0514 7.98337ZM19.2752 3.76074L19.346 3.69005L19.2753 3.61931L19.2045 3.69002L19.2752 3.76074ZM20.1919 4.67797L20.2626 4.74868L20.3333 4.67799L20.2626 4.60729L20.1919 4.67797ZM3.76068 19.2736L3.68996 19.2029L3.61932 19.2736L3.68992 19.3443L3.76068 19.2736ZM7.98336 15.0498L7.91285 14.9789L7.91264 14.9791L7.98336 15.0498ZM8.08894 14.9448L8.15961 14.8741L8.0891 14.8037L8.01843 14.8739L8.08894 14.9448ZM9.00739 15.8621L9.07848 15.9324L9.14847 15.8616L9.07805 15.7913L9.00739 15.8621ZM8.8976 15.973L8.96831 16.0438L8.9687 16.0434L8.8976 15.973ZM4.67792 20.1921L4.60717 20.2627L4.67787 20.3335L4.74863 20.2628L4.67792 20.1921ZM14.0819 15.864L14.0112 15.7933L13.9405 15.864L14.0112 15.9348L14.0819 15.864ZM14.5546 16.3368L14.6054 16.4229L14.7166 16.3573L14.6253 16.266L14.5546 16.3368ZM9.4147 16.3188L9.34399 16.2481L9.2533 16.3387L9.36336 16.4046L9.4147 16.3188ZM9.86942 15.864L9.94013 15.9348L10.0108 15.8641L9.94014 15.7933L9.86942 15.864ZM8.08772 14.0818L8.15844 14.0111L8.08764 13.9402L8.01692 14.0112L8.08772 14.0818ZM7.6426 14.5281L7.55609 14.5783L7.62143 14.6909L7.7134 14.5987L7.6426 14.5281ZM7.6594 9.44163L7.73011 9.37092L7.6388 9.27961L7.57324 9.39086L7.6594 9.44163ZM8.08772 9.86995L8.01701 9.94066L8.08775 10.0114L8.15846 9.94064L8.08772 9.86995ZM9.86942 8.08708L9.94015 8.15777L10.0109 8.08701L9.94008 8.01632L9.86942 8.08708ZM9.44169 7.65996L9.3909 7.57382L9.27962 7.63944L9.37103 7.73072L9.44169 7.65996ZM14.5276 7.64316L14.5982 7.71401L14.6905 7.62208L14.5778 7.55668L14.5276 7.64316ZM14.0819 8.08708L14.0113 8.01622L13.9403 8.08692L14.0112 8.15778L14.0819 8.08708ZM15.8642 9.86995L15.7935 9.94065L15.8643 10.0115L15.935 9.94057L15.8642 9.86995ZM16.3183 9.41463L16.4041 9.36325L16.3382 9.25314L16.2475 9.34402L16.3183 9.41463ZM16.3369 14.5545L16.2662 14.6252L16.3575 14.7165L16.4231 14.6053L16.3369 14.5545ZM15.8642 14.0818L15.9349 14.0111L15.8642 13.9404L15.7935 14.0111L15.8642 14.0818ZM19.2734 2.89566L19.3441 2.82494L19.2734 2.75425L19.2027 2.82495L19.2734 2.89566ZM18.8037 3.36538L18.7417 3.44382L18.8115 3.49901L18.8744 3.43609L18.8037 3.36538ZM5.16863 3.38577L5.09796 3.45653L5.16107 3.51956L5.23088 3.46404L5.16863 3.38577ZM4.67791 2.89566L4.74858 2.82491L4.67788 2.7543L4.60721 2.82494L4.67791 2.89566ZM2.89502 4.67794L2.82432 4.60721L2.75354 4.67797L2.82435 4.74869L2.89502 4.67794ZM3.38633 5.16864L3.46459 5.23089L3.52019 5.161L3.457 5.09789L3.38633 5.16864ZM3.36534 18.8041L3.436 18.8749L3.49901 18.812L3.44378 18.7421L3.36534 18.8041ZM2.89502 19.2738L2.82435 19.2031L2.75354 19.2738L2.82432 19.3446L2.89502 19.2738ZM4.67791 21.0561L4.60721 21.1268L4.67792 21.1975L4.74862 21.1268L4.67791 21.0561ZM5.14343 20.5906L5.20593 20.5125L5.13603 20.4566L5.07272 20.5199L5.14343 20.5906ZM18.8289 20.611L18.8997 20.5403L18.8365 20.4771L18.7666 20.5327L18.8289 20.611ZM19.2734 21.0561L19.2027 21.1268L19.2734 21.1976L19.3441 21.1268L19.2734 21.0561ZM21.0563 19.2738L21.127 19.3446L21.1978 19.2739L21.127 19.2031L21.0563 19.2738ZM20.6118 18.8293L20.5335 18.7671L20.478 18.8369L20.5411 18.9L20.6118 18.8293ZM20.5902 5.14285L20.5196 5.07205L20.4561 5.13535L20.5121 5.20534L20.5902 5.14285ZM21.0563 4.67794L21.1269 4.74874L21.1978 4.67801L21.127 4.60721L21.0563 4.67794ZM20.2482 18.3251L16.8521 14.9303L16.7107 15.0718L20.1068 18.4665L20.2482 18.3251ZM16.8661 15.0542C18.0415 13.1834 18.0329 10.7795 16.8484 8.91728L16.6797 9.02462C17.8228 10.8217 17.831 13.1425 16.6968 14.9478L16.8661 15.0542ZM16.8348 9.04165L20.229 5.64688L20.0875 5.50547L16.6933 8.90024L16.8348 9.04165ZM20.0798 5.63814C23.0207 9.36322 23.0296 14.6007 20.0988 18.3341L20.2561 18.4576C23.2439 14.6515 23.2348 9.31174 20.2367 5.51421L20.0798 5.63814ZM15.1453 15.9226L15.0151 15.793L14.874 15.9347L15.0042 16.0643L15.1453 15.9226ZM15.0153 15.9346L15.9349 15.0156L15.7935 14.8741L14.8739 15.7931L15.0153 15.9346ZM15.7935 15.0155L20.1212 19.3443L20.2626 19.2029L15.9349 14.8741L15.7935 15.0155ZM20.1212 19.2029L19.2027 20.1213L19.3442 20.2628L20.2626 19.3443L20.1212 19.2029ZM19.3442 20.1213L15.1455 15.9227L15.004 16.0641L19.2027 20.2628L19.3442 20.1213ZM5.64609 20.2287L9.04091 16.8339L8.89949 16.6925L5.50467 20.0872L5.64609 20.2287ZM8.9165 16.8475C10.7794 18.0333 13.184 18.0406 15.0536 16.8659L14.9472 16.6965C13.143 17.8301 10.8216 17.8231 9.0239 16.6788L8.9165 16.8475ZM14.9296 16.8519L18.3245 20.2484L18.4659 20.1071L15.0711 16.7105L14.9296 16.8519ZM18.3335 20.0991C14.6 23.0292 9.36307 23.0209 5.63734 20.0795L5.51341 20.2364C9.3116 23.2351 14.6508 23.2436 18.4569 20.2564L18.3335 20.0991ZM3.74758 5.6718L7.1448 9.06777L7.28619 8.92633L3.88897 5.53035L3.74758 5.6718ZM7.13083 8.94384C5.97072 10.7896 5.96215 13.1727 7.11192 15.0265L7.28188 14.921C6.17243 13.1323 6.18067 10.8314 7.30016 9.05026L7.13083 8.94384ZM7.12619 14.903L3.72837 18.3008L3.86979 18.4422L7.26761 15.0445L7.12619 14.903ZM3.87794 18.31C0.978103 14.5904 0.987 9.37356 3.89697 5.66278L3.73959 5.53937C0.772953 9.32241 0.763854 14.6409 3.72021 18.433L3.87794 18.31ZM3.83139 4.74868L4.74863 3.83145L4.60721 3.69003L3.68997 4.60726L3.83139 4.74868ZM4.60722 3.83146L8.93669 8.15967L9.07809 8.01822L4.74863 3.69002L4.60722 3.83146ZM8.93672 8.01819L8.01828 8.93542L8.15961 9.07693L9.07805 8.1597L8.93672 8.01819ZM8.15965 8.93547L3.83139 4.60726L3.68997 4.74868L8.01823 9.07689L8.15965 8.93547ZM18.3005 3.7289L14.9026 7.12608L15.0441 7.26751L18.4419 3.87034L18.3005 3.7289ZM15.026 7.1118C13.1723 5.96267 10.7898 5.97062 8.94339 7.13011L9.04975 7.29948C10.8315 6.18058 13.1319 6.17293 14.9207 7.28179L15.026 7.1118ZM9.06729 7.14409L5.67247 3.74812L5.53102 3.88952L8.92584 7.28549L9.06729 7.14409ZM5.66349 3.89748C9.37248 0.986407 14.5905 0.978668 18.3097 3.87848L18.4327 3.72076C14.6411 0.764451 9.32133 0.772308 5.54 3.74015L5.66349 3.89748ZM15.9348 8.93537L15.0152 8.01814L14.874 8.15975L15.7936 9.07698L15.9348 8.93537ZM15.0149 8.16005L15.1217 8.05447L14.9811 7.91226L14.8743 8.01784L15.0149 8.16005ZM15.1221 8.05409L19.3459 3.83146L19.2045 3.69002L14.9807 7.91264L15.1221 8.05409ZM19.2045 3.83143L20.1212 4.74866L20.2626 4.60729L19.346 3.69005L19.2045 3.83143ZM20.1212 4.60727L15.7935 8.93547L15.9349 9.07688L20.2626 4.74868L20.1212 4.60727ZM3.8314 19.3443L8.05408 15.1205L7.91264 14.9791L3.68996 19.2029L3.8314 19.3443ZM8.05387 15.1207L8.15945 15.0157L8.01843 14.8739L7.91285 14.9789L8.05387 15.1207ZM8.01828 15.0156L8.93672 15.9328L9.07805 15.7913L8.15961 14.8741L8.01828 15.0156ZM8.93629 15.7917L8.82651 15.9027L8.9687 16.0434L9.07848 15.9324L8.93629 15.7917ZM8.8269 15.9023L4.60722 20.1213L4.74863 20.2628L8.96831 16.0438L8.8269 15.9023ZM4.74868 20.1214L3.83144 19.203L3.68992 19.3443L4.60717 20.2627L4.74868 20.1214ZM14.0112 15.9348L14.4839 16.4075L14.6253 16.266L14.1526 15.7933L14.0112 15.9348ZM14.5038 16.2506C12.9541 17.1642 11.01 17.1566 9.46603 16.2329L9.36336 16.4046C10.9701 17.3658 12.9925 17.3738 14.6054 16.4229L14.5038 16.2506ZM9.48541 16.3895L9.94013 15.9348L9.79871 15.7933L9.34399 16.2481L9.48541 16.3895ZM9.94014 15.7933L8.15844 14.0111L8.017 14.1525L9.7987 15.9347L9.94014 15.7933ZM8.01692 14.0112L7.57179 14.4575L7.7134 14.5987L8.15853 14.1524L8.01692 14.0112ZM7.7291 14.4779C6.83956 12.944 6.84546 11.0198 7.74555 9.4924L7.57324 9.39086C6.63644 10.9805 6.63035 12.9819 7.55609 14.5783L7.7291 14.4779ZM7.58868 9.51234L8.01701 9.94066L8.15843 9.79924L7.73011 9.37092L7.58868 9.51234ZM8.15846 9.94064L9.94015 8.15777L9.79868 8.01639L8.01699 9.79926L8.15846 9.94064ZM9.94008 8.01632L9.51235 7.5892L9.37103 7.73072L9.79876 8.15784L9.94008 8.01632ZM9.49249 7.7461C11.0199 6.84544 12.9441 6.83954 14.4774 7.72964L14.5778 7.55668C12.9821 6.63031 10.9806 6.63642 9.3909 7.57382L9.49249 7.7461ZM14.4571 7.57231L14.0113 8.01622L14.1525 8.15793L14.5982 7.71401L14.4571 7.57231ZM14.0112 8.15778L15.7935 9.94065L15.9349 9.79925L14.1526 8.01638L14.0112 8.15778ZM15.935 9.94057L16.3891 9.48525L16.2475 9.34402L15.7934 9.79933L15.935 9.94057ZM16.2325 9.46602C17.1574 11.0099 17.1644 12.9546 16.2508 14.5037L16.4231 14.6053C17.3739 12.993 17.3666 10.97 16.4041 9.36325L16.2325 9.46602ZM16.4076 14.4838L15.9349 14.0111L15.7935 14.1525L16.2662 14.6252L16.4076 14.4838ZM15.7935 14.0111L14.0112 15.7933L14.1526 15.9348L15.9349 14.1525L15.7935 14.0111ZM19.2027 2.82495L18.733 3.29467L18.8744 3.43609L19.3441 2.96637L19.2027 2.82495ZM18.8657 3.28693C14.831 0.0967 9.13265 0.105185 5.10638 3.30751L5.23088 3.46404C9.18445 0.31953 14.7798 0.311217 18.7417 3.44382L18.8657 3.28693ZM5.23929 3.31502L4.74858 2.82491L4.60724 2.96642L5.09796 3.45653L5.23929 3.31502ZM4.60721 2.82494L2.82432 4.60721L2.96571 4.74866L4.74861 2.96639L4.60721 2.82494ZM2.82435 4.74869L3.31566 5.2394L3.457 5.09789L2.96568 4.60718L2.82435 4.74869ZM3.30807 5.1064C0.105711 9.1326 0.0960049 14.8308 3.2869 18.8662L3.44378 18.7421C0.310545 14.7797 0.320035 9.18443 3.46459 5.23089L3.30807 5.1064ZM3.29467 18.7334L2.82435 19.2031L2.96568 19.3446L3.436 18.8749L3.29467 18.7334ZM2.82432 19.3446L4.60721 21.1268L4.74861 20.9854L2.96571 19.2031L2.82432 19.3446ZM4.74862 21.1268L5.21414 20.6613L5.07272 20.5199L4.6072 20.9854L4.74862 21.1268ZM5.08094 20.6687C9.12111 23.9031 14.8413 23.9109 18.8912 20.6893L18.7666 20.5327C14.7898 23.6963 9.17319 23.6886 5.20593 20.5125L5.08094 20.6687ZM18.7581 20.6817L19.2027 21.1268L19.3442 20.9855L18.8997 20.5403L18.7581 20.6817ZM19.3441 21.1268L21.127 19.3446L20.9856 19.2031L19.2027 20.9854L19.3441 21.1268ZM21.127 19.2031L20.6825 18.7586L20.5411 18.9L20.9856 19.3446L21.127 19.2031ZM20.6901 18.8916C23.9112 14.8412 23.9027 9.12166 20.6683 5.08036L20.5121 5.20534C23.6882 9.17376 23.6965 14.7898 20.5335 18.7671L20.6901 18.8916ZM20.6608 5.21365L21.1269 4.74874L20.9857 4.60713L20.5196 5.07205L20.6608 5.21365ZM21.127 4.60721L19.3441 2.82494L19.2027 2.96639L20.9856 4.74866L21.127 4.60721Z" fill="black"/>
</svg>
