<?xml version="1.0" encoding="UTF-8"?>
<svg width="61px" height="72px" viewBox="0 0 61 72" version="1.1" xmlns="http://www.w3.org/2000/svg" xmlns:xlink="http://www.w3.org/1999/xlink">
    <!-- Generator: Sketch 51.3 (57544) - http://www.bohemiancoding.com/sketch -->
    <title>bolso-triste</title>
    <desc>Created with Sketch.</desc>
    <defs></defs>
    <g id="mobile" stroke="none" stroke-width="1" fill="none" fill-rule="evenodd">
        <g id="buscador-mobile---sin-resultados" transform="translate(-129.000000, -150.000000)" fill="#D8D8D8">
            <g id="bolso-triste" transform="translate(129.000000, 150.000000)">
                <path d="M2.05968649,70.0540541 L58.6010919,70.0540541 L53.2769838,18.3415135 L7.78368649,18.3415135 L2.05968649,70.0540541 Z M59.6801189,72 L0.972875676,72 C0.696551351,72 0.432875676,71.8822703 0.248010811,71.676 C0.0641189189,71.4697297 -0.0244216216,71.1953514 0.00574054054,70.92 L5.94574054,17.2615135 C6.00022703,16.7682162 6.41665946,16.3955676 6.91287568,16.3955676 L54.1546054,16.3955676 C54.6537405,16.3955676 55.0711459,16.7730811 55.1227135,17.2692973 L60.648227,70.9268108 C60.6754703,71.2011892 60.5859568,71.4745946 60.4020649,71.6789189 C60.2172,71.8832432 59.9554703,72 59.6801189,72 Z" id="Fill-14"></path>
                <path d="M35.3441189,55.484173 C34.7739568,55.484173 34.2436865,55.1193081 34.0607676,54.5472 C33.4079027,52.5166054 32.2500649,51.5806054 30.3070378,51.5115243 C29.0266054,51.4784432 27.4659568,51.7703351 26.5951459,54.5394162 C26.3723351,55.2506595 25.6153622,55.6417946 24.9050919,55.4219027 C24.1938486,55.1981189 23.7988216,54.4411459 24.0226054,53.7299027 C25.3429297,49.5295784 28.2180649,48.7181189 30.4023892,48.8163892 C33.4789297,48.9253622 35.6321189,50.6212541 36.6274703,53.7221189 C36.8561189,54.4314162 36.4649838,55.1913081 35.7566595,55.4189838 C35.6194703,55.4637405 35.4803351,55.484173 35.3441189,55.484173" id="Fill-8"></path>
                <path d="M40.3619351,41.2164 C41.5236649,41.2164 42.4674486,42.1504541 42.4674486,43.3024541 C42.4674486,44.4534811 41.5236649,45.3865622 40.3619351,45.3865622 C39.1992324,45.3865622 38.2564216,44.4534811 38.2564216,43.3024541 C38.2564216,42.1504541 39.1992324,41.2164 40.3619351,41.2164" id="Fill-6"></path>
                <path d="M20.2910595,41.2164 C21.4537622,41.2164 22.396573,42.1504541 22.396573,43.3024541 C22.396573,44.4534811 21.4537622,45.3865622 20.2910595,45.3865622 C19.1283568,45.3865622 18.1855459,44.4534811 18.1855459,43.3024541 C18.1855459,42.1504541 19.1283568,41.2164 20.2910595,41.2164" id="Fill-4"></path>
                <path d="M43.1211892,21.8401297 C44.784,21.8401297 46.1315676,23.1750486 46.1315676,24.8213189 C46.1315676,26.4675892 44.784,27.8025081 43.1211892,27.8025081 C41.4583784,27.8025081 40.1108108,26.4675892 40.1108108,24.8213189 C40.1108108,23.1750486 41.4583784,21.8401297 43.1211892,21.8401297" id="Fill-12"></path>
                <path d="M17.5312216,21.8401297 C19.1940324,21.8401297 20.5416,23.1750486 20.5416,24.8213189 C20.5416,26.4675892 19.1940324,27.8025081 17.5312216,27.8025081 C15.8684108,27.8025081 14.5208432,26.4675892 14.5208432,24.8213189 C14.5208432,23.1750486 15.8684108,21.8401297 17.5312216,21.8401297" id="Fill-10"></path>
                <path d="M18.5041946,24.8212216 L16.5582486,24.8212216 L16.5582486,14.4785189 C17.2461405,4.84803243 21.8852757,-0.000291891892 30.3491676,-0.000291891892 C38.8150054,-0.000291891892 43.438573,4.83927568 44.0924108,14.3841405 L44.0943568,24.4271676 L42.1484108,24.4271676 L42.1484108,14.4503027 C41.5714378,6.05743784 37.7116541,1.94565405 30.3491676,1.94565405 C22.9847351,1.94565405 19.1103568,6.06814054 18.5022486,14.5476 L18.5041946,24.8212216 Z" id="Fill-1"></path>
            </g>
        </g>
    </g>
</svg>