<svg width="28" height="44" viewBox="0 0 28 44" fill="none" xmlns="http://www.w3.org/2000/svg">
<path fill-rule="evenodd" clip-rule="evenodd" d="M9.52152 8.96513C9.51952 10.2663 10.0978 11.4575 11.1162 12.2651L10.0507 14.2451C9.39122 14.0945 8.84899 13.9399 8.35486 13.7596C7.30045 13.377 6.30619 12.8875 5.39811 12.3038C4.49305 11.7231 3.64411 11.0502 2.87335 10.304C2.62078 10.0582 2.38324 9.78468 2.15371 9.52008C2.04546 9.39423 1.93521 9.26738 1.82396 9.14351C1.72874 9.03747 1.7087 9.01567 1.86505 8.82242C2.24793 8.35369 2.65987 7.90774 3.08885 7.49648C3.73332 6.87909 4.48904 6.29837 5.39711 5.72359C6.19994 5.21422 6.90154 4.83665 7.60515 4.53539C7.79458 4.45413 7.98903 4.38476 8.18247 4.31638L8.35486 4.25296C9.70995 3.75944 11.1322 3.45719 12.5825 3.3571C13.695 3.2798 14.7956 3.31052 15.862 3.44728L15.0361 4.98034C14.6312 4.8535 14.2323 4.80593 13.8133 4.78908C12.6697 4.78908 11.5932 5.22116 10.7844 6.00602C9.97255 6.79386 9.52353 7.84431 9.52152 8.96513V8.96513ZM12.628 9.45666L11.8413 10.9194C11.7049 10.7905 11.5917 10.6607 11.4985 10.5259C11.1888 10.076 11.0254 9.55378 11.0254 9.01369C11.0264 7.5054 12.2672 6.27656 13.7917 6.27557H13.7957C13.9651 6.27557 14.1355 6.29341 14.3099 6.33107L13.5171 7.80567C12.9388 7.92954 12.5228 8.429 12.5288 9.01864C12.5308 9.16432 12.5629 9.30801 12.628 9.45666V9.45666ZM18.9643 0.562485C18.9021 0.360322 18.7638 0.193836 18.5754 0.0947363C18.3859 -0.00634502 18.1674 -0.0271559 17.964 0.0352767C17.7585 0.0967183 17.5901 0.233475 17.4899 0.421764L16.6159 2.04699C15.7449 1.9033 14.8779 1.82501 14.033 1.81609C12.6318 1.82501 11.5293 1.92114 10.4589 2.12825C8.54951 2.4969 6.75842 3.16087 5.13572 4.10231C3.23839 5.20231 1.5766 6.68385 0.195446 8.50529C0.0621418 8.67971 0 8.83827 0 9.00277C0 9.16629 0.0611395 9.32385 0.192439 9.50124C1.51746 11.2801 3.18026 12.7557 5.16478 13.9042C5.58675 14.149 6.02475 14.4027 6.49081 14.6187C7.39186 15.0359 8.33903 15.3739 9.30924 15.6246L8.65775 16.8346C8.55652 17.0209 8.53547 17.2359 8.59862 17.4381C8.66076 17.6403 8.79908 17.8068 8.9875 17.9059C9.10377 17.9673 9.23407 18 9.36436 18C9.66204 18 9.93366 17.8395 10.073 17.5788L18.9051 1.166C19.0064 0.979693 19.0274 0.765639 18.9643 0.562485V0.562485Z" fill="black"/>
<path fill-rule="evenodd" clip-rule="evenodd" d="M0.931013 5.50399L0.794668 5.51575L0 6.95199L0.39479 6.97551C0.422263 6.97649 0.449735 6.98139 0.477208 6.9853C0.534188 6.99314 0.583028 6.99314 0.653235 7C1.81319 7 2.90293 6.56991 3.72303 5.78908C4.54517 5.0063 4.99898 3.96389 5 2.85388C5.00102 1.93492 4.68355 1.05318 4.08323 0.301749L3.84208 0L3.04945 1.43429L3.11559 1.55087C3.35266 1.96627 3.47375 2.3993 3.47273 2.83723C3.47273 4.20686 2.35653 5.37859 0.931013 5.50399" transform="translate(13 6)" fill="black"/>
<mask id="mask0" mask-type="alpha" maskUnits="userSpaceOnUse" x="11" y="2" width="17" height="15">
<path fill-rule="evenodd" clip-rule="evenodd" d="M0 0H15.9659V13.75H0V0Z" transform="translate(11.5342 2.41406)" fill="white"/>
</mask>
<g mask="url(#mask0)">
<path fill-rule="evenodd" clip-rule="evenodd" d="M15.817 6.102C15.36 5.46 14.911 4.913 14.445 4.431C13.643 3.602 12.774 2.856 11.859 2.215C10.914 1.551 9.888 0.986 8.812 0.535C8.643 0.464 8.47 0.403 8.296 0.342L8.094 0.269C7.953 0.218 7.81 0.175 7.667 0.132L7.249 0L6.528 1.354L6.817 1.443C7.425 1.631 8.029 1.86 8.612 2.125C9.266 2.422 9.836 2.722 10.354 3.04C10.737 3.276 11.133 3.551 11.565 3.88C12.515 4.604 13.371 5.434 14.109 6.347C14.224 6.489 14.223 6.526 14.099 6.677C13.356 7.577 12.503 8.401 11.563 9.127C10.643 9.838 9.651 10.434 8.614 10.896C7.45 11.416 6.211 11.795 4.93 12.022C4.138 12.162 3.286 12.236 2.251 12.254H1.925C1.604 12.248 1.291 12.223 0.931 12.195L0.768 12.182L0 13.624L0.371 13.661C0.966 13.72 1.569 13.75 2.174 13.75C2.855 13.75 3.54 13.712 4.223 13.638C5.508 13.498 6.802 13.195 8.068 12.74L8.285 12.663C8.463 12.601 8.639 12.539 8.812 12.467C9.379 12.23 9.886 11.987 10.364 11.724C10.864 11.449 11.352 11.145 11.858 10.797C13.418 9.722 14.75 8.415 15.817 6.911C15.881 6.82 15.966 6.679 15.966 6.506C15.966 6.331 15.881 6.192 15.817 6.102" transform="translate(11.5342 2.41406)" fill="black"/>
</g>
<mask id="mask1" mask-type="alpha" maskUnits="userSpaceOnUse" x="0" y="29" width="28" height="15">
<path fill-rule="evenodd" clip-rule="evenodd" d="M0 0H27.4998V14.4977H0V0Z" transform="translate(0 29)" fill="white"/>
</mask>
<g mask="url(#mask1)">
<path fill-rule="evenodd" clip-rule="evenodd" d="M25.6328 7.42199C24.8908 8.32099 24.0378 9.14599 23.0968 9.87299C22.1768 10.584 21.1848 11.179 20.1478 11.642C18.9848 12.162 17.7448 12.54 16.4638 12.767C15.6728 12.907 14.8198 12.981 13.7848 13H13.4588C11.6718 12.964 9.94777 12.645 8.33677 12.052C7.28377 11.666 6.29177 11.172 5.38577 10.583C4.48277 9.99599 3.63577 9.31699 2.86777 8.56499C2.61477 8.31699 2.37777 8.03999 2.14877 7.77299C2.03977 7.64599 1.93077 7.51899 1.81977 7.39399C1.72477 7.28699 1.70477 7.26499 1.86177 7.06999C2.24277 6.59699 2.65377 6.14699 3.08177 5.73199C3.72477 5.10899 4.47877 4.52299 5.38477 3.94299C6.18777 3.42799 6.88777 3.04699 7.58777 2.74399C7.77777 2.66199 7.97077 2.59199 8.16377 2.52299L8.33677 2.45899C9.68777 1.96099 11.1068 1.65599 12.5538 1.55499C12.9588 1.52599 13.3608 1.51199 13.7588 1.51199C16.0138 1.51199 18.1578 1.96699 20.1468 2.87099C20.7998 3.16799 21.3698 3.46699 21.8868 3.78499C22.2708 4.02199 22.6668 4.29599 23.0988 4.62499C24.0498 5.34999 24.9048 6.17899 25.6428 7.09199C25.7578 7.23499 25.7578 7.27199 25.6328 7.42199V7.42199ZM27.352 6.848V6.847C26.894 6.204 26.445 5.658 25.98 5.176C25.177 4.347 24.307 3.601 23.394 2.96C22.446 2.296 21.421 1.731 20.347 1.281C20.176 1.209 20.002 1.148 19.827 1.086L19.628 1.015C17.835 0.363 15.944 0.022 14.002 0C12.603 0.009 11.503 0.106 10.435 0.315C8.53 0.687 6.743 1.357 5.124 2.307C3.232 3.417 1.573 4.912 0.195 6.75C0.062 6.927 0 7.087 0 7.253C0 7.417 0.061 7.576 0.193 7.755C1.514 9.55 3.174 11.039 5.153 12.198C5.574 12.445 6.011 12.701 6.476 12.919C8.72 13.969 11.134 14.498 13.678 14.498C14.362 14.498 15.055 14.46 15.758 14.383C17.042 14.243 18.336 13.941 19.603 13.485L19.81 13.412C19.99 13.349 20.17 13.286 20.346 13.212C20.913 12.976 21.421 12.732 21.899 12.469C22.398 12.194 22.886 11.891 23.392 11.542C24.952 10.466 26.284 9.159 27.351 7.656C27.415 7.566 27.5 7.425 27.5 7.251C27.5 7.077 27.416 6.937 27.352 6.848V6.848Z" transform="translate(0 29)" fill="black"/>
</g>
<path fill-rule="evenodd" clip-rule="evenodd" d="M4.25598 7H4.25398C3.70498 7 3.17398 6.838 2.71798 6.531C2.42298 6.332 2.17198 6.083 1.97198 5.79C1.66298 5.336 1.49998 4.809 1.50098 4.264C1.50098 2.742 2.73898 1.502 4.25998 1.5H4.26298C4.98698 1.5 5.67098 1.786 6.18998 2.304C6.71198 2.826 6.99998 3.518 6.99998 4.252C6.99998 5.766 5.76898 6.999 4.25598 7V7ZM4.29201 0H4.28201C3.14001 0 2.06801 0.437 1.26001 1.229C0.450007 2.023 0.00200683 3.084 6.83466e-06 4.215C-0.00199317 5.359 0.435007 6.435 1.23101 7.243C2.02801 8.052 3.09001 8.499 4.22201 8.5H4.22801C5.36801 8.5 6.44001 8.062 7.24601 7.265C8.05401 6.466 8.49901 5.402 8.50001 4.269C8.50201 1.92 6.61401 0.006 4.29201 0V0Z" transform="translate(9.5 31.9991)" fill="black"/>
<path fill-rule="evenodd" clip-rule="evenodd" d="M1.25309 0H1.24909C0.91209 0.001 0.59709 0.133 0.36109 0.371C0.12509 0.611 -0.00390969 0.929 9.03142e-05 1.268C0.00609031 1.948 0.56609 2.5 1.24809 2.5H1.25009C1.58609 2.499 1.90109 2.367 2.13809 2.127C2.37509 1.887 2.50309 1.569 2.50009 1.231C2.49209 0.551 1.93409 0 1.25309 0" transform="translate(12.5 34.9998)" fill="black"/>
</svg>
