<svg width="130" height="34" viewBox="0 0 130 34" fill="none" xmlns="http://www.w3.org/2000/svg">
<path fill-rule="evenodd" clip-rule="evenodd" d="M13.428 28.6218C14.2413 28.6218 14.9627 28.5538 15.5905 28.4163C16.2183 28.2803 16.8112 28.0995 17.3693 27.8738V24.1168H14.858C14.4855 24.1168 14.1954 24.0195 13.9861 23.8263C13.7768 23.6347 13.6722 23.3905 13.6722 23.0968V19.9348H22.7056V30.3898C22.054 30.8535 21.3771 31.2537 20.6732 31.5876C19.9693 31.9229 19.2194 32.1965 18.4235 32.4113C17.6277 32.6277 16.7779 32.7853 15.8774 32.8888C14.977 32.9893 14.0083 33.0403 12.9746 33.0403C11.115 33.0403 9.39329 32.7204 7.81268 32.0806C6.23049 31.4408 4.86232 30.5567 3.705 29.4286C2.54927 28.3019 1.64085 26.9636 0.984512 25.4166C0.328171 23.8696 0 22.1897 0 20.3768C0 18.53 0.313902 16.8316 0.941707 15.2846C1.56951 13.7376 2.46683 12.4038 3.63524 11.2803C4.80366 10.1598 6.21622 9.28666 7.87293 8.66384C9.53122 8.04102 11.3813 7.72729 13.428 7.72729C14.4855 7.72729 15.4795 7.81229 16.4101 7.98384C17.3391 8.15384 18.1968 8.38566 18.9816 8.68084C19.7663 8.97448 20.4845 9.32684 21.1361 9.73329C21.7861 10.1428 22.3679 10.5833 22.88 11.0608L21.171 13.5923C21.0077 13.8318 20.8127 14.0188 20.586 14.1548C20.3593 14.2908 20.112 14.3588 19.8456 14.3588C19.4968 14.3588 19.137 14.2445 18.7644 14.0188C18.2983 13.7468 17.8591 13.5119 17.447 13.3126C17.0348 13.1147 16.613 12.9525 16.1834 12.8273C15.7522 12.7037 15.2988 12.614 14.8232 12.5553C14.346 12.4997 13.8117 12.4718 13.2188 12.4718C12.1138 12.4718 11.1198 12.6619 10.2367 13.0406C9.35207 13.4207 8.60061 13.957 7.97756 14.6478C7.3561 15.3387 6.87573 16.1686 6.53963 17.1376C6.20195 18.1066 6.0339 19.1868 6.0339 20.3768C6.0339 21.692 6.21939 22.8588 6.59195 23.8788C6.96293 24.8988 7.47817 25.7597 8.13451 26.4628C8.79244 27.166 9.57085 27.7007 10.4713 28.0701C11.3734 28.4379 12.3579 28.6218 13.428 28.6218Z" fill="#C39934"/>
<path fill-rule="evenodd" clip-rule="evenodd" d="M33.1627 23.0273H40.1034L37.7666 16.2443C37.616 15.8131 37.4384 15.3062 37.2339 14.722C37.031 14.1394 36.8297 13.5073 36.6331 12.8273C36.4476 13.5197 36.2558 14.1595 36.0576 14.7483C35.8594 15.3371 35.6739 15.8471 35.4995 16.2783L33.1627 23.0273ZM49.4856 32.4963H44.9166C44.4045 32.4963 43.9844 32.3804 43.6531 32.147C43.3217 31.9152 43.0919 31.6185 42.9634 31.2553L41.4637 26.9373H31.8025L30.3027 31.2553C30.187 31.5721 29.9587 31.8596 29.6226 32.1146C29.2849 32.3696 28.8727 32.4963 28.3844 32.4963H23.7805L33.6161 7.72729H39.65L49.4856 32.4963Z" fill="#C39934"/>
<path fill-rule="evenodd" clip-rule="evenodd" d="M54.4811 7.76129C54.6555 7.78448 54.8124 7.8262 54.9519 7.88802C55.0914 7.95139 55.2246 8.03948 55.353 8.15229C55.4799 8.26511 55.6257 8.41811 55.789 8.61129L67.8568 23.4863C67.8108 23.0103 67.776 22.5482 67.7522 22.1C67.7284 21.6534 67.7173 21.2315 67.7173 20.8343V7.72729H72.9141V32.4963H69.8449C69.3914 32.4963 69.0078 32.4283 68.6939 32.2923C68.38 32.1563 68.0772 31.9075 67.7871 31.5443L55.8064 16.7883C55.8413 17.2195 55.8699 17.6414 55.8936 18.054C55.9174 18.4682 55.9285 18.8577 55.9285 19.2193V32.4963H50.7317V7.72729H53.8358C54.0911 7.72729 54.3067 7.73811 54.4811 7.76129Z" fill="#C39934"/>
<path fill-rule="evenodd" clip-rule="evenodd" d="M85.4797 23.0273H92.4205L90.0836 16.2443C89.933 15.8131 89.7555 15.3062 89.5509 14.722C89.348 14.1394 89.1467 13.5073 88.9501 12.8273C88.7646 13.5197 88.5728 14.1595 88.3746 14.7483C88.1764 15.3371 87.9909 15.8471 87.8166 16.2783L85.4797 23.0273ZM101.803 32.4963H97.2336C96.7216 32.4963 96.3014 32.3804 95.9701 32.147C95.6388 31.9152 95.4089 31.6185 95.2805 31.2553L93.7807 26.9373H84.1195L82.6197 31.2553C82.504 31.5721 82.2757 31.8596 81.9396 32.1146C81.6019 32.3696 81.1897 32.4963 80.7014 32.4963H76.0975L85.9331 7.72729H91.967L101.803 32.4963Z" fill="#C39934"/>
<path fill-rule="evenodd" clip-rule="evenodd" d="M123.373 0V6.73045H129.826V10.506H123.373V17.272H118.979V10.506H112.561V6.73045H118.979V0H123.373Z" fill="#C39934"/>
</svg>
