<svg width="20" height="20" viewBox="0 0 20 20" fill="none" xmlns="http://www.w3.org/2000/svg">
<path d="M10 19C14.9706 19 19 14.9706 19 10C19 5.02944 14.9706 1 10 1C5.02944 1 1 5.02944 1 10C1 14.9706 5.02944 19 10 19Z" fill="#E81C36" stroke="#E81C36"/>
<path d="M10.897 5V9.004C10.897 9.42867 10.876 9.84633 10.834 10.257C10.792 10.663 10.736 11.0947 10.666 11.552H9.497C9.427 11.0947 9.371 10.663 9.329 10.257C9.287 9.84633 9.266 9.42867 9.266 9.004V5H10.897ZM9 14.17C9 14.0253 9.02567 13.8877 9.077 13.757C9.133 13.6263 9.20767 13.5143 9.301 13.421C9.399 13.3277 9.51333 13.253 9.644 13.197C9.77467 13.141 9.91467 13.113 10.064 13.113C10.2087 13.113 10.3463 13.141 10.477 13.197C10.6077 13.253 10.7197 13.3277 10.813 13.421C10.9063 13.5143 10.981 13.6263 11.037 13.757C11.093 13.8877 11.121 14.0253 11.121 14.17C11.121 14.3193 11.093 14.4593 11.037 14.59C10.981 14.716 10.9063 14.8257 10.813 14.919C10.7197 15.0123 10.6077 15.0847 10.477 15.136C10.3463 15.192 10.2087 15.22 10.064 15.22C9.91467 15.22 9.77467 15.192 9.644 15.136C9.51333 15.0847 9.399 15.0123 9.301 14.919C9.20767 14.8257 9.133 14.716 9.077 14.59C9.02567 14.4593 9 14.3193 9 14.17Z" fill="white"/>
</svg>
