<svg width="18" height="20" viewBox="0 0 18 20" fill="none" xmlns="http://www.w3.org/2000/svg">
<path fill-rule="evenodd" clip-rule="evenodd" d="M8.98066 10.8111C6.99179 10.8111 5.14131 9.52433 4.44766 7.62486C3.74997 5.7148 4.29427 3.52513 5.80718 2.185C7.32792 0.837977 9.59175 0.60407 11.3484 1.61069C13.093 2.61029 14.0877 4.66235 13.762 6.67811C13.377 9.06169 11.3344 10.7708 8.98066 10.8111C8.35184 10.822 8.34988 11.8153 8.98066 11.8045C11.4567 11.7621 13.6684 10.1971 14.4868 7.80619C15.2874 5.46738 14.4897 2.78937 12.5826 1.26208C10.681 -0.260963 7.95427 -0.429043 5.89784 0.886057C3.86618 2.18539 2.83171 4.64208 3.27218 7.03069C3.77749 9.77016 6.24871 11.8045 8.98066 11.8045C9.61014 11.8045 9.61105 10.8111 8.98066 10.8111Z" fill="black"/>
<mask id="mask0" mask-type="alpha" maskUnits="userSpaceOnUse" x="0" y="11" width="18" height="9">
<path fill-rule="evenodd" clip-rule="evenodd" d="M0 11.1006H17.9619V19.9767H0V11.1006Z" fill="white"/>
</mask>
<g mask="url(#mask0)">
<path fill-rule="evenodd" clip-rule="evenodd" d="M0.978261 19.4969C0.978261 16.0087 3.47387 12.9537 6.83635 12.2755C7.95248 12.0503 9.23909 12.0749 10.3748 12.1684C12.0597 12.3074 13.6696 13.085 14.8623 14.2961C16.2147 15.6695 16.9837 17.5548 16.9837 19.4969C16.9837 20.1361 17.9619 20.1372 17.9619 19.4969C17.9619 15.6291 15.2137 12.1315 11.4721 11.3349C10.143 11.052 8.58196 11.0431 7.23104 11.2129C5.35787 11.4482 3.59726 12.3295 2.28939 13.7168C0.831261 15.2635 0 17.3549 0 19.4969C0 20.1361 0.978261 20.1372 0.978261 19.4969Z" fill="black"/>
</g>
</svg>
