<svg width="64" height="64" viewBox="0 0 64 64" fill="none" xmlns="http://www.w3.org/2000/svg">
<mask id="mask0" mask-type="alpha" maskUnits="userSpaceOnUse" x="16" y="8" width="32" height="51">
<path fill-rule="evenodd" clip-rule="evenodd" d="M16 8.10449H47.8298V58.6666H16V8.10449Z" fill="white"/>
</mask>
<g mask="url(#mask0)">
<path fill-rule="evenodd" clip-rule="evenodd" d="M28.9641 56.1876H20.6964C19.8562 56.1876 19.0466 56.3383 18.7526 55.374C18.6925 55.1779 18.7526 54.885 18.7526 54.684V52.9057H45.2496C45.2308 53.5559 45.2052 54.2054 45.1632 54.852C45.1252 55.4391 45.2902 56.0938 44.2783 56.1876H28.9641ZM18.7524 11.5869C19.0063 10.1931 21.5943 10.6765 22.7197 10.6765H32.3129H41.6697C42.8452 10.6765 44.9426 10.2473 45.1631 11.6683C45.3433 12.8307 45.1883 14.1291 45.167 15.3166H18.7524V15.1747C18.7524 14.0372 18.5472 12.7137 18.7524 11.5869ZM18.7526 22.4835V17.7682H45.1632V23.0611V42.1719C45.1632 44.9128 45.2767 47.6897 45.2816 50.4541H18.7526V22.4835ZM45.0796 8.31024C43.1994 7.90327 40.9185 8.22492 39.0152 8.22492C32.7006 8.22492 26.3649 8.08175 20.0524 8.22492C15.0668 8.33835 16.0858 13.4442 16.0858 16.6094V52.9992C16.0858 54.1721 15.8615 55.7015 16.4421 56.7865C17.6467 59.0384 20.4652 58.6392 22.7198 58.6392H42.708H43.9767C44.0702 58.6487 44.1708 58.649 44.2782 58.6392C44.4186 58.6392 44.5434 58.618 44.6608 58.5876C47.1184 58.1957 47.8298 56.3802 47.8298 54.2822V48.3944V28.421V12.7552C47.8298 10.8616 47.5127 8.83717 45.0796 8.31024Z" fill="black"/>
</g>
<path fill-rule="evenodd" clip-rule="evenodd" d="M27.9874 14.2679H36.0125C37.7722 14.2679 37.7751 11.6562 36.0125 11.6562H27.9874C26.2277 11.6562 26.2251 14.2679 27.9874 14.2679Z" fill="black"/>
<path fill-rule="evenodd" clip-rule="evenodd" d="M50 20C54.4183 20 58 16.4183 58 12C58 7.58172 54.4183 4 50 4C45.5817 4 42 7.58172 42 12C42 16.4183 45.5817 20 50 20Z" fill="#B9007E"/>
<path d="M52.2746 15.075V16H48.2746V15.075H49.7396V10.86C49.7396 10.6933 49.7446 10.5217 49.7546 10.345L48.7146 11.215C48.6546 11.2617 48.5946 11.2917 48.5346 11.305C48.4779 11.315 48.4229 11.315 48.3696 11.305C48.3196 11.295 48.2746 11.2783 48.2346 11.255C48.1946 11.2283 48.1646 11.2 48.1446 11.17L47.7546 10.635L49.9596 8.76H50.9746V15.075H52.2746Z" fill="white"/>
</svg>
