<svg width="50" height="38" viewBox="0 0 50 38" fill="none" xmlns="http://www.w3.org/2000/svg">
<path fill-rule="evenodd" clip-rule="evenodd" d="M24.1945 37.0086H25.8064V2.72635H24.1945V37.0086Z" fill="black"/>
<path fill-rule="evenodd" clip-rule="evenodd" d="M25.0044 35.0932C25.446 35.0932 25.8065 35.4704 25.8065 35.9164C25.8065 35.9075 25.8143 35.9075 25.832 35.9119L28.4102 34.7937C28.5101 34.7504 28.6232 34.7249 28.7308 34.7249H48.2449C48.3359 34.7249 48.3836 34.6861 48.3925 34.6728L48.3836 1.63414C48.3836 1.65522 48.3359 1.61195 48.2449 1.61195H29.1391C28.9916 1.59975 28.1029 1.62527 27.2709 2.02354C26.2824 2.48726 25.8065 3.28491 25.8065 4.45531C25.8065 4.89684 25.446 5.26072 25 5.26072C24.554 5.26072 24.1946 4.90128 24.1946 4.45531C24.1946 1.75063 21.9447 1.61195 21.4943 1.61195H1.75503C1.66406 1.61195 1.61192 1.65522 1.60748 1.66409L1.61192 34.7027C1.61192 34.6861 1.66406 34.7249 1.75503 34.7249H21.6064C21.7328 34.7249 21.8582 34.7548 21.9669 34.807L24.1768 35.9031C24.1813 35.9008 24.1901 35.8964 24.1946 35.8864C24.1979 35.8298 24.2068 35.7688 24.2201 35.7145C24.2977 35.3528 24.6139 35.0932 25.0044 35.0932V35.0932ZM25.9496 37.546C25.598 37.546 25.2729 37.4551 25 37.2898C24.7271 37.4551 24.3976 37.546 24.047 37.546C23.925 37.546 23.8041 37.5205 23.6909 37.4639L21.4211 36.3368H1.75505C0.788773 36.3368 0 35.6046 0 34.7071V1.63412C0 0.732194 0.788773 0 1.75505 0H21.4722C22.5605 0 24.1336 0.420457 25.0521 1.74617C26.1005 0.420457 27.8911 0 29.1081 0H48.2449C49.2112 0 50 0.732194 50 1.63412V34.7071C50 35.6091 49.2112 36.3368 48.2449 36.3368H28.9006L26.2702 37.4806C26.1704 37.5283 26.0617 37.546 25.9496 37.546V37.546Z" fill="black"/>
</svg>
