<svg xmlns="http://www.w3.org/2000/svg" xmlns:xlink="http://www.w3.org/1999/xlink" width="24" height="24" viewBox="0 0 24 24">
    <defs>
        <path id="a" d="M0 .04h11.936V19H0z"/>
    </defs>
    <g fill="none" fill-rule="evenodd">
        <g transform="translate(6 3)">
            <mask id="b" fill="#fff">
                <use xlink:href="#a"/>
            </mask>
            <path fill="#000" d="M4.862 18.07h-3.1c-.316 0-.62.057-.73-.305-.022-.073 0-.183 0-.258v-.667h9.937c-.007.244-.017.487-.033.73-.014.22.048.465-.332.5H4.862zM1.032 1.345c.095-.523 1.066-.341 1.488-.341H9.627c.44 0 1.227-.161 1.31.372.067.436.009.922 0 1.368H1.033V2.69c0-.427-.077-.923 0-1.346zm0 4.086V3.663h9.904v9.152c0 1.027.043 2.069.045 3.105H1.032V5.431zM10.905.116C10.2-.036 9.345.084 8.63.084c-2.368 0-4.744-.053-7.111 0C-.35.127.032 2.042.032 3.23v13.646c0 .44-.084 1.013.134 1.42.452.844 1.508.695 2.354.695h7.971a.59.59 0 0 0 .113 0c.053 0 .1-.008.144-.02.921-.147 1.188-.827 1.188-1.614V1.783c0-.71-.119-1.469-1.031-1.667z" mask="url(#b)"/>
        </g>
        <path fill="#000" d="M10.495 5.35h3.01c.66 0 .66-.979 0-.979h-3.01c-.66 0-.66.98 0 .98"/>
    </g>
</svg>
