<svg width="20" height="20" viewBox="0 0 20 20" fill="none" xmlns="http://www.w3.org/2000/svg">
<path fill-rule="evenodd" clip-rule="evenodd" d="M1 4.47951H15.5103L14.1061 13.0444H2.40423L1 4.47951V4.47951Z" stroke="white" stroke-linecap="round" stroke-linejoin="round"/>
<path fill-rule="evenodd" clip-rule="evenodd" d="M3.64464 16.1225C4.4202 16.1225 5.04895 16.8415 5.04895 17.7284C5.04895 18.6154 4.4202 19.3344 3.64464 19.3344C2.86907 19.3344 2.24036 18.6154 2.24036 17.7284C2.24036 16.8415 2.86907 16.1225 3.64464 16.1225V16.1225Z" stroke="white" stroke-linecap="round" stroke-linejoin="round"/>
<path fill-rule="evenodd" clip-rule="evenodd" d="M12.9125 16.1225C13.6881 16.1225 14.3168 16.8415 14.3168 17.7284C14.3168 18.6154 13.6881 19.3344 12.9125 19.3344C12.137 19.3344 11.5083 18.6154 11.5083 17.7284C11.5083 16.8415 12.137 16.1225 12.9125 16.1225V16.1225Z" stroke="white" stroke-linecap="round" stroke-linejoin="round"/>
<path d="M14.0359 12.9909L16.1656 0.999992H19.3719" stroke="white" stroke-linecap="round" stroke-linejoin="round"/>
</svg>
