<svg xmlns="http://www.w3.org/2000/svg" width="27" height="31" viewBox="0 0 27 31">
    <defs>
        <filter id="a" width="104.8%" height="107.4%" x="-1.2%" y="-1.4%" filterUnits="objectBoundingBox">
            <feOffset dx="4" dy="5" in="SourceAlpha" result="shadowOffsetOuter1"/>
            <feGaussianBlur in="shadowOffsetOuter1" result="shadowBlurOuter1" stdDeviation="3"/>
            <feColorMatrix in="shadowBlurOuter1" result="shadowMatrixOuter1" values="0 0 0 0 0.539221939 0 0 0 0 0.539221939 0 0 0 0 0.539221939 0 0 0 0.5 0"/>
            <feMerge>
                <feMergeNode in="shadowMatrixOuter1"/>
                <feMergeNode in="SourceGraphic"/>
            </feMerge>
        </filter>
    </defs>
    <g fill="none" fill-rule="evenodd" filter="url(#a)" transform="translate(-392 -351)">
        <path fill="#FFF" d="M408.15 366.229l.215-4.323a1.474 1.474 0 0 0-2.201-1.286 1.475 1.475 0 0 0-2.188-1.091 1.475 1.475 0 0 0-2.175-1.098l.005-1.94a1.474 1.474 0 0 0-1.482-1.476 1.49 1.49 0 0 0-1.483 1.483l-.019 7.457-2.554-1.858a1.736 1.736 0 0 0-2.257.166 1.163 1.163 0 0 0-.004 1.643l5.15 5.151a4.21 4.21 0 0 0 3.01 1.24l1.723-.004a4.246 4.246 0 0 0 3.012-1.253 4.27 4.27 0 0 0 1.248-2.811z"/>
        <path fill="#000" d="M408.15 366.229l.215-4.323a1.474 1.474 0 0 0-2.201-1.286 1.475 1.475 0 0 0-2.188-1.091 1.475 1.475 0 0 0-2.175-1.098l.005-1.94a1.474 1.474 0 0 0-1.482-1.476 1.49 1.49 0 0 0-1.483 1.483l-.019 7.457-2.554-1.858a1.736 1.736 0 0 0-2.257.166 1.163 1.163 0 0 0-.004 1.643l5.15 5.151a4.21 4.21 0 0 0 3.01 1.24l1.723-.004a4.246 4.246 0 0 0 3.012-1.253 4.27 4.27 0 0 0 1.248-2.811zm-4.258 3.29l-1.723.004a3.445 3.445 0 0 1-2.462-1.015l-5.151-5.151a.388.388 0 0 1 0-.548.96.96 0 0 1 1.25-.088l3.173 2.307a.387.387 0 0 0 .616-.314l.02-8.218a.713.713 0 0 1 1.211-.502.7.7 0 0 1 .206.498l-.014 5.48a.385.385 0 0 0 .66.272.389.389 0 0 0 .114-.275l.006-2.238a.711.711 0 0 1 .713-.706.702.702 0 0 1 .703.703l-.005 2.239a.385.385 0 0 0 .66.272.388.388 0 0 0 .114-.275l.003-1.143c0-.388.318-.705.713-.706a.702.702 0 0 1 .703.703l-.003 1.148a.386.386 0 0 0 .387.381.39.39 0 0 0 .388-.388v-.047a.706.706 0 0 1 .713-.707.7.7 0 0 1 .704.685l-.214 4.304a3.496 3.496 0 0 1-1.022 2.3 3.474 3.474 0 0 1-2.463 1.025z"/>
        <path fill="#000" d="M404.304 357.444a3.652 3.652 0 0 0-.827-3.866 3.65 3.65 0 0 0-5.155 0 3.654 3.654 0 0 0-.827 3.866.408.408 0 0 0 .522.236.406.406 0 0 0 .236-.522 2.84 2.84 0 0 1 .642-3.008 2.839 2.839 0 0 1 4.01 0 2.841 2.841 0 0 1 .641 3.008.405.405 0 0 0 .758.286z"/>
    </g>
</svg>
