<svg width="72" height="38" viewBox="0 0 72 38" version="1.1" xmlns="http://www.w3.org/2000/svg" xmlns:xlink="http://www.w3.org/1999/xlink">
<title>Group</title>
<desc>Created using Figma</desc>
<g id="Canvas" transform="matrix(2 0 0 2 19222 1856)">
<g id="Group">
<g id="Group">
<g id="Vector 5">
<use xlink:href="#path0_stroke" transform="translate(-9602.69 -926.643)" fill="#FFFFFF"/>
</g>
<g id="Vector 5">
<use xlink:href="#path0_stroke" transform="matrix(-1 1.00176e-16 -1.49713e-16 -1 -9583.31 -910.357)" fill="#FFFFFF"/>
</g>
<g id="Vector 6">
<use xlink:href="#path1_stroke" transform="translate(-9595.88 -924.373)" fill="#FFFFFF"/>
</g>
<g id="Rectangle 26">
<mask id="mask0_outline_ins">
<use xlink:href="#path2_fill" fill="white" transform="translate(-9611 -928)"/>
</mask>
<g mask="url(#mask0_outline_ins)">
<use xlink:href="#path3_stroke_2x" transform="translate(-9611 -928)" fill="#FFFFFF"/>
</g>
</g>
</g>
</g>
</g>
<defs>
<path id="path0_stroke" d="M 4.85499 0.46318C 5.1108 0.359175 5.23386 0.0674887 5.12985 -0.188319C 5.02585 -0.444126 4.73416 -0.567186 4.47835 -0.46318L 4.85499 0.46318ZM 5.07328 16.768C 5.33965 16.8408 5.61461 16.6839 5.68744 16.4176C 5.76026 16.1512 5.60336 15.8762 5.33699 15.8034L 5.07328 16.768ZM 4.47835 -0.46318C 2.75382 0.237978 -0.5 2.97025 -0.5 8.38003L 0.5 8.38003C 0.5 3.41754 3.46842 1.02693 4.85499 0.46318L 4.47835 -0.46318ZM -0.5 8.38003C -0.488119 10.5439 0.44058 12.5536 1.55629 14.0023C 2.67362 15.4482 4.05823 16.4905 5.07328 16.768L 5.33699 15.8034C 4.617 15.6066 3.39904 14.7515 2.34756 13.3909C 1.29447 12.0331 0.488119 10.3272 0.5 8.38003L -0.5 8.38003Z"/>
<path id="path1_stroke" d="M 4.81151 3.23264C 4.97514 3.45508 5.28811 3.50276 5.51055 3.33913C 5.73299 3.1755 5.78067 2.86253 5.61704 2.64009L 4.81151 3.23264ZM 0.797704 9.09623C 0.670102 8.85134 0.368136 8.75625 0.123243 8.88386C -0.121649 9.01146 -0.216732 9.31343 -0.0891301 9.55832L 0.797704 9.09623ZM 3.19429 0C 3.19429 -0.276142 2.97043 -0.5 2.69429 -0.5C 2.41814 -0.5 2.19429 -0.276142 2.19429 0L 3.19429 0ZM 2.19429 12.2636C 2.19429 12.5398 2.41814 12.7636 2.69429 12.7636C 2.97043 12.7636 3.19429 12.5398 3.19429 12.2636L 2.19429 12.2636ZM 5.61704 2.64009C 5.23127 2.11853 4.47659 1.39589 3.61341 1.04965C 2.67941 0.686627 1.56819 0.733078 0.548083 1.71196L 1.24046 2.4335C 1.94836 1.7542 2.63714 1.74308 3.25114 1.98172C 3.93596 2.23715 4.47727 2.77541 4.81151 3.23264L 5.61704 2.64009ZM 0.548083 1.71196C -0.0417754 2.27799 -0.37372 2.84399 -0.470409 3.40782C -0.549834 3.94862 -0.393934 4.50234 -0.159676 4.88554C 0.325136 5.66091 1.20301 6.14361 1.57798 6.32352L 2.01056 5.42193C 1.66554 5.25639 1.01341 4.87546 0.688222 4.35538C 0.51748 4.09085 0.44838 3.88888 0.515204 3.57684C 0.564766 3.28783 0.750321 2.90384 1.24046 2.4335L 0.548083 1.71196ZM 1.57798 6.32352C 1.81112 6.43539 2.18234 6.52688 2.50019 6.61402C 2.85032 6.71 3.21812 6.81661 3.56849 6.97615C 4.25584 7.28653 4.71427 7.71501 4.71427 8.46364L 5.71427 8.46364C 5.71427 7.13954 4.82271 6.44529 3.98005 6.06476C 3.56542 5.87885 3.12322 5.74796 2.7646 5.64961C 2.3737 5.54244 2.13742 5.4828 2.01056 5.42193L 1.57798 6.32352ZM 4.71427 8.46364C 4.71427 9.41858 4.46693 9.89933 4.16747 10.158C 3.8531 10.4295 3.37099 10.5545 2.69429 10.5545L 2.69429 11.5545C 3.45758 11.5545 4.23547 11.4205 4.82109 10.9148C 5.42162 10.3961 5.71427 9.58142 5.71427 8.46364L 4.71427 8.46364ZM 2.69429 10.5545C 2.28837 10.5545 1.89236 10.3501 1.53758 10.0337C 1.17636 9.71634 0.932777 9.35748 0.797704 9.09623L -0.0891301 9.55832C 0.0757971 9.87283 0.42621 10.3776 0.871995 10.78C 1.32421 11.1833 1.9482 11.5545 2.69429 11.5545L 2.69429 10.5545ZM 2.19429 0L 2.19429 12.2636L 3.19429 12.2636L 3.19429 0L 2.19429 0Z"/>
<path id="path2_fill" d="M 0 0L 36 0L 36 19L 0 19L 0 0Z"/>
<path id="path3_stroke_2x" d="M 0 0L 0 -1L -1 -1L -1 0L 0 0ZM 36 0L 37 0L 37 -1L 36 -1L 36 0ZM 36 19L 36 20L 37 20L 37 19L 36 19ZM 0 19L -1 19L -1 20L 0 20L 0 19ZM 0 1L 36 1L 36 -1L 0 -1L 0 1ZM 35 0L 35 19L 37 19L 37 0L 35 0ZM 36 18L 0 18L 0 20L 36 20L 36 18ZM 1 19L 1 0L -1 0L -1 19L 1 19Z"/>
</defs>
</svg>
