<svg width="24" height="28" viewBox="0 0 24 28" fill="none" xmlns="http://www.w3.org/2000/svg">
<path fill-rule="evenodd" clip-rule="evenodd" d="M16.5315 16.5832C15.7111 17.7409 14.7846 18.8869 14.6033 20.5087L9.39043 20.5088C9.2091 18.8869 8.28282 17.7409 7.46243 16.5832C6.54871 15.2939 5.71278 13.965 5.71278 11.6341C5.71278 8.15739 8.80894 5.69683 11.9969 5.69683C15.1849 5.69683 18.2809 8.15723 18.2809 11.6341C18.2809 13.965 17.445 15.2939 16.5315 16.5832V16.5832ZM9.42604 22.7873V21.6481H9.4262H14.5675V22.7873H9.42604ZM14.5675 24.4964C14.5675 24.8388 14.2921 25.0661 13.9964 25.0661H9.99749C9.70165 25.0661 9.42604 24.8387 9.4262 24.4964L9.42604 23.9267H14.5677L14.5675 24.4964ZM11.9969 26.7752C11.6706 26.7752 11.4256 26.531 11.4256 26.2055H12.5682C12.5682 26.531 12.3233 26.7752 11.9969 26.7752V26.7752ZM23.4226 11.3937H19.4445C19.4353 11.3937 19.4264 11.396 19.4171 11.3965C19.4171 11.3955 19.4171 11.3946 19.4169 11.3937H19.4119H19.4169C19.3591 9.71162 18.6998 8.24045 17.6794 7.09777L20.4769 4.30825C20.6999 4.08565 20.6999 3.72963 20.4769 3.50704C20.3652 3.39582 20.2213 3.3381 20.0751 3.3381C19.9289 3.3381 19.7849 3.39582 19.6734 3.50704L16.8613 6.31158C15.6485 5.31484 14.1208 4.69649 12.5404 4.5798C12.5567 4.52661 12.5682 4.47124 12.5682 4.41258V0.569698C12.5682 0.255129 12.3125 0 11.9969 0C11.6814 0 11.4256 0.255129 11.4256 0.569698V4.41258C11.4256 4.47124 11.437 4.52661 11.4535 4.5798C9.87294 4.69649 8.34525 5.31484 7.13255 6.31142L4.32031 3.50704C4.20878 3.39582 4.06478 3.33794 3.91859 3.33794V3.3381C3.77239 3.3381 3.62855 3.39582 3.51686 3.50704C3.2938 3.72963 3.2938 4.08565 3.51686 4.30825L6.31435 7.09777C5.29396 8.24045 4.63467 9.71162 4.57678 11.3937H0.571294C0.255843 11.3937 0 11.6488 0 11.9635C0 12.2781 0.255843 12.5331 0.571294 12.5331H4.61318C4.81459 14.6418 5.704 16.0706 6.53412 17.2419C7.47702 18.5726 8.28361 19.5501 8.28361 21.0782V24.4964C8.28361 25.4634 9.08737 26.2055 9.99749 26.2055H10.2831C10.2831 27.1425 11.0574 27.9144 11.9969 27.9144C12.9365 27.9144 13.7107 27.1425 13.7107 26.2055H13.9964C14.9064 26.2055 15.7103 25.4634 15.7103 24.4966V21.0784C15.7103 19.5501 16.5169 18.5728 17.4598 17.2419C18.2902 16.0701 19.1801 14.6404 19.3809 12.5301C19.3914 12.5305 19.4013 12.5331 19.4119 12.5331H23.4226C23.738 12.5331 23.9937 12.2782 23.9937 11.9635C23.9937 11.6488 23.738 11.3937 23.4226 11.3937V11.3937Z" fill="#b9007e"/>
</svg>
