<svg width="18" height="19" viewBox="0 0 18 19" fill="none" xmlns="http://www.w3.org/2000/svg">
<mask id="mask0" mask-type="alpha" maskUnits="userSpaceOnUse" x="0" y="0" width="18" height="19">
<path fill-rule="evenodd" clip-rule="evenodd" d="M8.91875 18.213H0V0H8.91875H17.8375V18.213H8.91875Z" fill="white"/>
</mask>
<g mask="url(#mask0)">
<path fill-rule="evenodd" clip-rule="evenodd" d="M17.3105 15.131C17.2475 15.236 17.1765 15.281 17.0675 15.281H0.781493C0.667493 15.281 0.597493 15.236 0.538493 15.128C0.516493 15.089 0.505493 15.06 0.505493 15.011C0.505493 14.959 0.529493 14.913 0.569493 14.856C1.24649 13.849 1.76849 12.752 2.12049 11.597C2.47749 10.434 2.79449 8.777 3.06749 6.674C3.20449 5.601 3.62849 4.568 4.23249 3.844C4.49749 3.523 4.80649 3.23 5.14849 2.982C5.86449 2.456 6.43249 2.227 7.06649 2.044L7.21149 2.001L7.24349 1.853C7.32649 1.462 7.52049 1.147 7.83849 0.889998C8.15349 0.631998 8.51649 0.502998 8.91449 0.502998C9.32349 0.502998 9.67949 0.631998 10.0035 0.895998C10.3255 1.154 10.5225 1.466 10.6045 1.853L10.6355 2.001L10.7815 2.044C11.4145 2.228 11.9785 2.459 12.6895 2.985C13.0355 3.231 13.3345 3.512 13.6095 3.846C14.2175 4.578 14.6435 5.611 14.7825 6.674C15.0635 8.859 15.3715 10.469 15.7195 11.595C16.0725 12.755 16.5995 13.857 17.2825 14.864C17.3265 14.926 17.3325 14.966 17.3325 14.999C17.3325 15.005 17.3325 15.012 17.3315 15.021L17.3635 15.041L17.3105 15.131ZM11.0445 15.915C10.9705 16.339 10.7715 16.714 10.4365 17.059C10.0175 17.493 9.5205 17.705 8.9175 17.705C8.3205 17.705 7.8155 17.493 7.3785 17.055C7.0415 16.719 6.8455 16.348 6.7725 15.915L6.7495 15.786H11.0665L11.0445 15.915ZM17.8375 14.999C17.8375 14.848 17.7915 14.706 17.7015 14.576C17.0475 13.612 16.5425 12.561 16.2025 11.448C15.8645 10.352 15.5575 8.723 15.2845 6.607C15.1325 5.447 14.6635 4.322 13.9965 3.523C13.6935 3.156 13.3635 2.843 12.9885 2.569C12.2145 2.003 11.5815 1.764 11.1195 1.617L11.0655 1.6L11.0485 1.544C10.9185 1.136 10.6745 0.783 10.3215 0.498C9.9235 0.175 9.4235 0 8.9145 0C8.4065 0 7.9105 0.175 7.5165 0.496C7.1695 0.78 6.9275 1.134 6.7995 1.544L6.7825 1.6L6.7275 1.617C6.0135 1.842 5.4715 2.117 4.8515 2.569C4.4785 2.843 4.1375 3.162 3.8415 3.523C3.1795 4.318 2.7135 5.443 2.5665 6.607C2.2955 8.694 1.9835 10.32 1.6375 11.448C1.2925 12.566 0.792496 13.616 0.148496 14.574C0.0484965 14.722 -0.00050354 14.866 -0.00050354 15.011C-0.00050354 15.147 0.0314965 15.267 0.0994965 15.386C0.250496 15.647 0.487496 15.786 0.781496 15.786H6.2555L6.2685 15.882C6.3435 16.473 6.5955 16.989 7.0185 17.415C7.5515 17.945 8.1895 18.213 8.9175 18.213C9.6505 18.213 10.2845 17.944 10.8015 17.41C11.2225 16.976 11.4745 16.462 11.5485 15.882L11.5625 15.786H17.0675C17.3655 15.786 17.6015 15.639 17.7675 15.349C17.8115 15.244 17.8375 15.122 17.8375 14.999Z" fill="white"/>
<path d="M17.3105 15.131L17.482 15.2339L17.4828 15.2325L17.3105 15.131ZM0.538493 15.128L0.714026 15.0321L0.712689 15.0297L0.538493 15.128ZM0.569493 14.856L0.733237 14.9709L0.735471 14.9676L0.569493 14.856ZM2.12049 11.597L1.9293 11.5383L1.92918 11.5387L2.12049 11.597ZM3.06749 6.674L3.26583 6.69975L3.26588 6.69933L3.06749 6.674ZM4.23249 3.844L4.38607 3.97212L4.38673 3.97133L4.23249 3.844ZM5.14849 2.982L5.2659 3.14391L5.2669 3.14318L5.14849 2.982ZM7.06649 2.044L7.12196 2.23616L7.12336 2.23574L7.06649 2.044ZM7.21149 2.001L7.26836 2.19274L7.38194 2.15906L7.40698 2.04327L7.21149 2.001ZM7.24349 1.853L7.43898 1.89527L7.43913 1.89453L7.24349 1.853ZM7.83849 0.889998L7.96421 1.04555L7.96522 1.04472L7.83849 0.889998ZM10.0035 0.895998L9.87715 1.05105L9.87844 1.05208L10.0035 0.895998ZM10.6045 1.853L10.8002 1.812L10.8001 1.81154L10.6045 1.853ZM10.6355 2.001L10.4397 2.042L10.4643 2.15906L10.579 2.19285L10.6355 2.001ZM10.7815 2.044L10.725 2.23585L10.7257 2.23605L10.7815 2.044ZM12.6895 2.985L12.5705 3.14581L12.5736 3.148L12.6895 2.985ZM13.6095 3.846L13.4551 3.97312L13.4556 3.97379L13.6095 3.846ZM14.7825 6.674L14.9809 6.64849L14.9808 6.64807L14.7825 6.674ZM15.7195 11.595L15.9108 11.5368L15.9106 11.5359L15.7195 11.595ZM17.2825 14.864L17.1169 14.9763L17.1194 14.9797L17.2825 14.864ZM17.3315 15.021L17.1327 14.9989L17.1188 15.1239L17.2255 15.1906L17.3315 15.021ZM17.3635 15.041L17.5358 15.1425L17.6347 14.9746L17.4695 14.8714L17.3635 15.041ZM11.0445 15.915L11.2415 15.9494L11.2416 15.9486L11.0445 15.915ZM10.4365 17.059L10.293 16.9197L10.2926 16.9201L10.4365 17.059ZM7.3785 17.055L7.52008 16.9137L7.51971 16.9134L7.3785 17.055ZM6.7725 15.915L6.96972 15.8817L6.96939 15.8799L6.7725 15.915ZM6.7495 15.786V15.586H6.51068L6.5526 15.8211L6.7495 15.786ZM11.0665 15.786L11.2636 15.8196L11.3035 15.586H11.0665V15.786ZM17.7015 14.576L17.536 14.6883L17.5371 14.6898L17.7015 14.576ZM16.2025 11.448L16.3938 11.3896L16.3936 11.3891L16.2025 11.448ZM15.2845 6.607L15.4829 6.58141L15.4828 6.58102L15.2845 6.607ZM13.9965 3.523L13.8423 3.65033L13.843 3.65117L13.9965 3.523ZM12.9885 2.569L12.8704 2.73044L12.8705 2.73049L12.9885 2.569ZM11.1195 1.617L11.1801 1.42641L11.1796 1.42623L11.1195 1.617ZM11.0655 1.6L10.8741 1.6581L10.9048 1.75908L11.0054 1.79077L11.0655 1.6ZM11.0485 1.544L11.2399 1.4859L11.2391 1.48328L11.0485 1.544ZM10.3215 0.498L10.1955 0.653295L10.1959 0.653613L10.3215 0.498ZM7.5165 0.496L7.39017 0.340945L7.38982 0.341228L7.5165 0.496ZM6.7995 1.544L6.60858 1.4844L6.60812 1.4859L6.7995 1.544ZM6.7825 1.6L6.84156 1.79108L6.94302 1.75972L6.97387 1.6581L6.7825 1.6ZM6.7275 1.617L6.66843 1.42592L6.66739 1.42625L6.7275 1.617ZM4.8515 2.569L4.73368 2.40739L4.73309 2.40782L4.8515 2.569ZM3.8415 3.523L3.99519 3.65098L3.99615 3.64981L3.8415 3.523ZM2.5665 6.607L2.76483 6.63275L2.76492 6.63206L2.5665 6.607ZM1.6375 11.448L1.8286 11.507L1.8287 11.5066L1.6375 11.448ZM0.148496 14.574L0.314215 14.686L0.314479 14.6856L0.148496 14.574ZM0.0994965 15.386L-0.0741547 15.4852L-0.0736191 15.4862L0.0994965 15.386ZM6.2555 15.786L6.45369 15.7592L6.43024 15.586H6.2555V15.786ZM6.2685 15.882L6.46691 15.8568L6.46669 15.8552L6.2685 15.882ZM7.0185 17.415L6.87657 17.5559L6.87747 17.5568L7.0185 17.415ZM10.8015 17.41L10.6579 17.2707L10.6578 17.2709L10.8015 17.41ZM11.5485 15.882L11.3506 15.8531L11.3501 15.8567L11.5485 15.882ZM11.5625 15.786V15.586H11.3895L11.3646 15.7571L11.5625 15.786ZM17.7675 15.349L17.9411 15.4484L17.9472 15.4377L17.952 15.4263L17.7675 15.349ZM17.139 15.0281C17.1176 15.0638 17.1042 15.0733 17.1007 15.0755C17.0994 15.0763 17.0929 15.081 17.0675 15.081V15.481C17.1511 15.481 17.2345 15.4632 17.3118 15.4153C17.3868 15.3687 17.4404 15.3032 17.482 15.2339L17.139 15.0281ZM17.0675 15.081H0.781493V15.481H17.0675V15.081ZM0.781493 15.081C0.766009 15.081 0.757033 15.0795 0.752447 15.0783C0.748384 15.0773 0.746924 15.0764 0.746289 15.076C0.745345 15.0754 0.733614 15.068 0.71401 15.0321L0.362976 15.2239C0.402373 15.296 0.455142 15.3651 0.532448 15.414C0.611472 15.464 0.697236 15.481 0.781493 15.481V15.081ZM0.712689 15.0297C0.704788 15.0157 0.704593 15.0134 0.705236 15.0155C0.705383 15.016 0.705521 15.0166 0.705631 15.0171C0.70574 15.0176 0.705775 15.0178 0.705769 15.0178C0.705759 15.0177 0.705493 15.0157 0.705493 15.011H0.305493C0.305493 15.1037 0.330578 15.1665 0.364297 15.2263L0.712689 15.0297ZM0.705493 15.011C0.705493 15.0177 0.703552 15.0205 0.705704 15.0156C0.708816 15.0085 0.716004 14.9954 0.733204 14.9709L0.405782 14.7411C0.362168 14.8033 0.305493 14.8931 0.305493 15.011H0.705493ZM0.735471 14.9676C1.42345 13.9442 1.95402 12.8293 2.31181 11.6553L1.92918 11.5387C1.58297 12.6747 1.06953 13.7537 0.403515 14.7444L0.735471 14.9676ZM2.31169 11.6557C2.67359 10.4767 2.99231 8.80674 3.26583 6.69975L2.86916 6.64825C2.59668 8.74725 2.2814 10.3913 1.9293 11.5383L2.31169 11.6557ZM3.26588 6.69933C3.39881 5.6582 3.81009 4.66253 4.38607 3.97212L4.07892 3.71588C3.4469 4.47346 3.01017 5.5438 2.8691 6.64867L3.26588 6.69933ZM4.38673 3.97133C4.6413 3.66295 4.93801 3.38168 5.2659 3.14391L5.03108 2.82009C4.67497 3.07832 4.35369 3.38304 4.07826 3.71667L4.38673 3.97133ZM5.2669 3.14318C5.9601 2.63393 6.50556 2.41407 7.12196 2.23615L7.01103 1.85184C6.35942 2.03992 5.76889 2.27807 5.03008 2.82082L5.2669 3.14318ZM7.12336 2.23574L7.26836 2.19274L7.15463 1.80925L7.00963 1.85225L7.12336 2.23574ZM7.40698 2.04327L7.43898 1.89526L7.04801 1.81073L7.01601 1.95873L7.40698 2.04327ZM7.43913 1.89453C7.51243 1.54925 7.68126 1.27422 7.96421 1.04555L7.71278 0.734447C7.35973 1.01977 7.14056 1.37475 7.04785 1.81147L7.43913 1.89453ZM7.96522 1.04472C8.24473 0.81579 8.56303 0.702998 8.91449 0.702998V0.302998C8.46996 0.302998 8.06225 0.448207 7.71177 0.735273L7.96522 1.04472ZM8.91449 0.702998C9.27611 0.702998 9.58778 0.815257 9.87716 1.05105L10.1298 0.740951C9.7712 0.44874 9.37087 0.302998 8.91449 0.302998V0.702998ZM9.87844 1.05208C10.1664 1.28285 10.337 1.55522 10.4088 1.89446L10.8001 1.81154C10.708 1.37678 10.4845 1.02515 10.1286 0.739919L9.87844 1.05208ZM10.4087 1.894L10.4397 2.042L10.8312 1.96L10.8002 1.812L10.4087 1.894ZM10.579 2.19285L10.725 2.23585L10.838 1.85215L10.692 1.80915L10.579 2.19285ZM10.7257 2.23605C11.3406 2.41481 11.8821 2.63649 12.5705 3.14578L12.8084 2.82421C12.0749 2.2815 11.4884 2.04119 10.8373 1.85195L10.7257 2.23605ZM12.5736 3.148C12.9046 3.38336 13.1908 3.65214 13.4551 3.97312L13.7639 3.71887C13.4782 3.37185 13.1663 3.07864 12.8054 2.822L12.5736 3.148ZM13.4556 3.97379C14.0362 4.67281 14.4494 5.66902 14.5842 6.69993L14.9808 6.64807C14.8376 5.55298 14.3987 4.48319 13.7633 3.71821L13.4556 3.97379ZM14.5841 6.69951C14.8656 8.88812 15.1753 10.5116 15.5284 11.6541L15.9106 11.5359C15.5677 10.4264 15.2614 8.82987 14.9809 6.64849L14.5841 6.69951ZM15.5282 11.6532C15.887 12.8325 16.4228 13.9527 17.117 14.9763L17.448 14.7517C16.7762 13.7613 16.258 12.6775 15.9108 11.5368L15.5282 11.6532ZM17.1194 14.9797C17.1321 14.9977 17.134 15.0049 17.1335 15.0033C17.1333 15.0026 17.1329 15.001 17.1326 14.9992C17.1324 14.9975 17.1325 14.9969 17.1325 14.999H17.5325C17.5325 14.9242 17.5134 14.8438 17.4456 14.7482L17.1194 14.9797ZM17.1325 14.999L17.1327 14.9989L17.5303 15.0431C17.5326 15.0223 17.5325 15.0057 17.5325 14.999H17.1325ZM17.2255 15.1906L17.2575 15.2106L17.4695 14.8714L17.4375 14.8514L17.2255 15.1906ZM17.1912 14.9395L17.1382 15.0295L17.4828 15.2325L17.5358 15.1425L17.1912 14.9395ZM10.8475 15.8806C10.7812 16.2606 10.6033 16.6001 10.293 16.9197L10.58 17.1983C10.9396 16.8279 11.1598 16.4174 11.2415 15.9494L10.8475 15.8806ZM10.2926 16.9201C9.91112 17.3152 9.46598 17.505 8.9175 17.505V17.905C9.57502 17.905 10.1239 17.6708 10.5804 17.1979L10.2926 16.9201ZM8.9175 17.505C8.37529 17.505 7.92075 17.3153 7.52008 16.9137L7.23691 17.1963C7.71024 17.6707 8.26571 17.905 8.9175 17.905V17.505ZM7.51971 16.9134C7.20999 16.6046 7.03528 16.2707 6.96971 15.8818L6.57528 15.9482C6.65571 16.4253 6.87301 16.8334 7.23729 17.1966L7.51971 16.9134ZM6.96939 15.8799L6.94639 15.7509L6.5526 15.8211L6.5756 15.9501L6.96939 15.8799ZM6.7495 15.986H11.0665V15.586H6.7495V15.986ZM10.8693 15.7524L10.8473 15.8814L11.2416 15.9486L11.2636 15.8196L10.8693 15.7524ZM18.0375 14.999C18.0375 14.8049 17.9777 14.6235 17.8659 14.4622L17.5371 14.6898C17.6053 14.7885 17.6375 14.8911 17.6375 14.999H18.0375ZM17.867 14.4637C17.2241 13.5161 16.7279 12.4832 16.3938 11.3896L16.0112 11.5064C16.3571 12.6388 16.8709 13.7079 17.536 14.6883L17.867 14.4637ZM16.3936 11.3891C16.0607 10.3097 15.7554 8.69426 15.4829 6.58141L15.0861 6.63259C15.3595 8.75173 15.6682 10.3943 16.0114 11.5069L16.3936 11.3891ZM15.4828 6.58102C15.3265 5.38836 14.8444 4.22657 14.15 3.39483L13.843 3.65117C14.4826 4.41743 14.9385 5.50564 15.0862 6.63298L15.4828 6.58102ZM14.1507 3.39567C13.8375 3.0163 13.4954 2.69171 13.1065 2.40751L12.8705 2.73049C13.2315 2.99429 13.5495 3.2957 13.8423 3.65033L14.1507 3.39567ZM13.1066 2.40756C12.31 1.82507 11.6557 1.57772 11.1801 1.42641L11.0589 1.80759C11.5073 1.95028 12.119 2.18093 12.8704 2.73044L13.1066 2.40756ZM11.1796 1.42623L11.1256 1.40923L11.0054 1.79077L11.0594 1.80777L11.1796 1.42623ZM11.2569 1.5419L11.2399 1.4859L10.8571 1.6021L10.8741 1.6581L11.2569 1.5419ZM11.2391 1.48328C11.0966 1.03622 10.8291 0.650794 10.4471 0.342387L10.1959 0.653613C10.5199 0.915206 10.7404 1.23578 10.8579 1.60472L11.2391 1.48328ZM10.4475 0.342706C10.0135 -0.00950158 9.46894 -0.2 8.9145 -0.2V0.2C9.37806 0.2 9.83346 0.359502 10.1955 0.653294L10.4475 0.342706ZM8.9145 -0.2C8.36085 -0.2 7.82015 -0.00936575 7.39017 0.340946L7.64282 0.651054C8.00084 0.359366 8.45214 0.2 8.9145 0.2V-0.2ZM7.38982 0.341228C7.01391 0.648893 6.74874 1.03546 6.60858 1.4844L6.99041 1.6036C7.10625 1.23254 7.32508 0.911107 7.64317 0.650772L7.38982 0.341228ZM6.60812 1.4859L6.59112 1.5419L6.97387 1.6581L6.99087 1.6021L6.60812 1.4859ZM6.72343 1.40892L6.66844 1.42592L6.78656 1.80808L6.84156 1.79108L6.72343 1.40892ZM6.66739 1.42625C5.93219 1.65793 5.37077 1.94293 4.73368 2.40739L4.96932 2.73061C5.57222 2.29107 6.0948 2.02607 6.78761 1.80775L6.66739 1.42625ZM4.73309 2.40782C4.3473 2.69121 3.99396 3.02162 3.68684 3.39619L3.99615 3.64981C4.28103 3.30238 4.60969 2.99479 4.9699 2.73018L4.73309 2.40782ZM3.6878 3.39502C2.99831 4.22304 2.51922 5.38512 2.36807 6.58194L2.76492 6.63206C2.90778 5.50088 3.36068 4.41296 3.99519 3.65098L3.6878 3.39502ZM2.36816 6.58125C2.09767 8.6643 1.78739 10.2773 1.44629 11.3893L1.8287 11.5066C2.1796 10.3627 2.49332 8.7237 2.76483 6.63275L2.36816 6.58125ZM1.44639 11.389C1.10706 12.4886 0.615453 13.5209 -0.0174859 14.4624L0.314479 14.6856C0.96954 13.7111 1.47793 12.6434 1.8286 11.507L1.44639 11.389ZM-0.0172213 14.462C-0.134421 14.6355 -0.200504 14.8178 -0.200504 15.011H0.199496C0.199496 14.9142 0.231414 14.8085 0.314214 14.686L-0.0172213 14.462ZM-0.200504 15.011C-0.200504 15.1821 -0.159279 15.3363 -0.0741522 15.4852L0.273145 15.2868C0.222272 15.1977 0.199496 15.1119 0.199496 15.011H-0.200504ZM-0.0736191 15.4862C0.112 15.807 0.413878 15.986 0.781496 15.986V15.586C0.561115 15.586 0.388993 15.487 0.272612 15.2858L-0.0736191 15.4862ZM0.781496 15.986H6.2555V15.586H0.781496V15.986ZM6.05731 15.8128L6.07031 15.9088L6.46669 15.8552L6.45369 15.7592L6.05731 15.8128ZM6.07009 15.9072C6.15067 16.5421 6.42265 17.0988 6.87658 17.5559L7.16042 17.2741C6.76834 16.8792 6.53633 16.4039 6.46691 15.8568L6.07009 15.9072ZM6.87747 17.5568C7.44661 18.1228 8.13479 18.413 8.9175 18.413V18.013C8.2442 18.013 7.65638 17.7672 7.15952 17.2732L6.87747 17.5568ZM8.9175 18.413C9.70516 18.413 10.3909 18.1217 10.9452 17.5491L10.6578 17.2709C10.1781 17.7663 9.59584 18.013 8.9175 18.013V18.413ZM10.9451 17.5493C11.3949 17.0855 11.6672 16.532 11.7469 15.9073L11.3501 15.8567C11.2818 16.392 11.0501 16.8665 10.6579 17.2707L10.9451 17.5493ZM11.7464 15.9109L11.7604 15.8149L11.3646 15.7571L11.3506 15.8531L11.7464 15.9109ZM11.5625 15.986H17.0675V15.586H11.5625V15.986ZM17.0675 15.986C17.4469 15.986 17.7445 15.7917 17.9411 15.4484L17.5939 15.2496C17.4585 15.4863 17.2841 15.586 17.0675 15.586V15.986ZM17.952 15.4263C18.006 15.2974 18.0375 15.1491 18.0375 14.999H17.6375C17.6375 15.0949 17.617 15.1906 17.583 15.2717L17.952 15.4263Z" fill="white"/>
</g>
</svg>
