<svg width="7" height="18" viewBox="0 0 7 18" fill="none" xmlns="http://www.w3.org/2000/svg">
<path d="M0.285 5.07C0.47 4.915 0.67 4.77 0.885 4.635C1.105 4.5 1.34 4.3825 1.59 4.2825C1.84 4.1775 2.1075 4.0975 2.3925 4.0425C2.6825 3.9825 2.995 3.9525 3.33 3.9525C3.8 3.9525 4.2225 4.015 4.5975 4.14C4.9775 4.265 5.3 4.445 5.565 4.68C5.83 4.91 6.0325 5.19 6.1725 5.52C6.3175 5.845 6.39 6.2075 6.39 6.6075C6.39 6.9925 6.3375 7.3225 6.2325 7.5975C6.1275 7.8725 5.9925 8.1125 5.8275 8.3175C5.6675 8.5225 5.49 8.7 5.295 8.85C5.105 8.995 4.9225 9.1325 4.7475 9.2625C4.5775 9.3925 4.4275 9.52 4.2975 9.645C4.1725 9.77 4.095 9.91 4.065 10.065L3.855 11.115H2.265L2.1 9.9075C2.095 9.8775 2.09 9.8475 2.085 9.8175C2.085 9.7875 2.085 9.7575 2.085 9.7275C2.085 9.5075 2.1375 9.315 2.2425 9.15C2.3475 8.985 2.48 8.835 2.64 8.7C2.8 8.56 2.9725 8.4275 3.1575 8.3025C3.3425 8.1725 3.515 8.035 3.675 7.89C3.835 7.74 3.9675 7.575 4.0725 7.395C4.1775 7.21 4.23 6.9925 4.23 6.7425C4.23 6.4425 4.13 6.205 3.93 6.03C3.735 5.85 3.465 5.76 3.12 5.76C2.855 5.76 2.6325 5.7875 2.4525 5.8425C2.2775 5.8975 2.125 5.96 1.995 6.03C1.87 6.095 1.76 6.155 1.665 6.21C1.57 6.265 1.475 6.2925 1.38 6.2925C1.165 6.2925 1.005 6.2 0.9 6.015L0.285 5.07ZM1.665 13.8225C1.665 13.6425 1.6975 13.475 1.7625 13.32C1.8325 13.165 1.925 13.03 2.04 12.915C2.16 12.8 2.3 12.71 2.46 12.645C2.62 12.575 2.795 12.54 2.985 12.54C3.17 12.54 3.3425 12.575 3.5025 12.645C3.6625 12.71 3.8025 12.8 3.9225 12.915C4.0425 13.03 4.135 13.165 4.2 13.32C4.27 13.475 4.305 13.6425 4.305 13.8225C4.305 14.0025 4.27 14.1725 4.2 14.3325C4.135 14.4875 4.0425 14.6225 3.9225 14.7375C3.8025 14.8525 3.6625 14.9425 3.5025 15.0075C3.3425 15.0725 3.17 15.105 2.985 15.105C2.795 15.105 2.62 15.0725 2.46 15.0075C2.3 14.9425 2.16 14.8525 2.04 14.7375C1.925 14.6225 1.8325 14.4875 1.7625 14.3325C1.6975 14.1725 1.665 14.0025 1.665 13.8225Z" fill="white"/>
</svg>
