<svg width="15" height="17" viewBox="0 0 15 17" version="1.1" xmlns="http://www.w3.org/2000/svg" xmlns:xlink="http://www.w3.org/1999/xlink">
<title>Page 1</title>
<desc>Created using Figma</desc>
<g id="Canvas" transform="translate(1041 -509)">
<g id="Page 1">
<g id="Stroke 1">
<use xlink:href="#path0_stroke" transform="translate(-1037 510)" fill="#1D1D1B"/>
</g>
<mask id="mask0_outline" mask-type="alpha">
<g id="Clip 4">
<use xlink:href="#path1_fill" transform="translate(-1041 508)" fill="#FFFFFF"/>
</g>
</mask>
<g id="Stroke 3" mask="url(#mask0_outline)">
<use xlink:href="#path2_stroke" transform="translate(-1040 518)" fill="#1D1D1B"/>
</g>
<g id="Stroke 5" mask="url(#mask0_outline)">
<use xlink:href="#path3_stroke" transform="translate(-1036 515)" fill="#1D1D1B"/>
</g>
</g>
</g>
<defs>
<path id="path0_stroke" d="M 0 8L -0.25 8C -0.25 8.06665 -0.223383 8.13055 -0.176063 8.17749C -0.128742 8.22443 -0.0646356 8.25053 0.00201567 8.24999L 0 8ZM 0 2.98884L -0.25 2.97533L -0.25 2.98884L 0 2.98884ZM 3.92818 3.52236e-07L 3.9276 -0.250084L 3.92108 -0.249899L 3.92818 3.52236e-07ZM 8 2.98884L 8.25005 2.98884L 8.24995 2.98363L 8 2.98884ZM 8 7.9355L 8.00202 8.18549C 8.1393 8.18438 8.25 8.07278 8.25 7.9355L 8 7.9355ZM 0.25 8L 0.25 2.98884L -0.25 2.98884L -0.25 8L 0.25 8ZM 0.249636 3.00233C 0.285655 2.33587 0.493874 1.67931 1.02665 1.17708C 1.56075 0.673581 2.45624 0.291913 3.93528 0.2499L 3.92108 -0.249899C 2.36636 -0.205736 1.33606 0.198251 0.683673 0.813249C 0.029947 1.42951 -0.209045 2.22428 -0.249636 2.97535L 0.249636 3.00233ZM 3.92818 3.52236e-07C 3.92876 0.25 3.92868 0.25 3.92862 0.25C 3.92862 0.25 3.92857 0.25 3.92857 0.25C 3.92851 0.25 3.92863 0.25 3.92875 0.25C 3.92911 0.25 3.92947 0.250001 3.93018 0.250003C 3.93185 0.250009 3.93396 0.250021 3.93725 0.250053C 3.94431 0.250122 3.95396 0.250254 3.96757 0.250564C 3.99582 0.2512 4.03537 0.252443 4.08783 0.255132C 4.19493 0.260584 4.34301 0.271237 4.52533 0.293555C 4.89468 0.338501 5.36946 0.425005 5.85414 0.604686C 6.81775 0.959976 7.72185 1.64228 7.75005 2.99406L 8.24995 2.98363C 8.21559 1.33727 7.08377 0.525156 6.02711 0.135558C 5.50166 -0.0572043 4.97021 -0.155761 4.58588 -0.202765C 4.39134 -0.226422 4.22572 -0.238467 4.11332 -0.244218C 4.05602 -0.247131 4.00938 -0.248616 3.97887 -0.249308C 3.9631 -0.249662 3.95023 -0.249843 3.94212 -0.249923C 3.93781 -0.249964 3.93417 -0.249985 3.93199 -0.249993C 3.93078 -0.249998 3.92967 -0.249999 3.92907 -0.25C 3.9287 -0.25 3.92833 -0.25 3.92815 -0.25C 3.92803 -0.25 3.92789 -0.25 3.92783 -0.249999C 3.92771 -0.249999 3.9276 -0.249999 3.92818 3.52236e-07ZM 7.75 2.98884L 7.75 7.9355L 8.25 7.9355L 8.25 2.98884L 7.75 2.98884ZM 7.99798 7.6855L -0.00201567 7.75001L 0.00201567 8.24999L 8.00202 8.18549L 7.99798 7.6855Z"/>
<path id="path1_fill" fill-rule="evenodd" d="M 0 18L 15 18L 15 0L 0 0L 0 18Z"/>
<path id="path2_stroke" d="M 0 8L -0.25 8L -0.25 8.25L 0 8.25L 0 8ZM 13 8L 13 8.25L 13.25 8.25L 13.25 8L 13 8ZM 13 0L 13.25 0L 13.25 -0.25L 13 -0.25L 13 0ZM 0 0L 0 -0.25L -0.25 -0.25L -0.25 0L 0 0ZM 0 8.25L 13 8.25L 13 7.75L 0 7.75L 0 8.25ZM 13.25 8L 13.25 0L 12.75 0L 12.75 8L 13.25 8ZM 13 -0.25L 0 -0.25L 0 0.25L 13 0.25L 13 -0.25ZM -0.25 0L -0.25 8L 0.25 8L 0.25 0L -0.25 0Z"/>
<path id="path3_stroke" d="M 0.198566 5.92925C 0.114678 5.81959 -0.0422282 5.79869 -0.151893 5.88258C -0.261558 5.96647 -0.282454 6.12337 -0.198566 6.23304L 0.198566 5.92925ZM 2.23278 9L 2.03421 9.15189C 2.08174 9.21402 2.1556 9.25032 2.23381 9.25C 2.31203 9.24967 2.38559 9.21276 2.4326 9.15024L 2.23278 9ZM 9.19982 0.150245C 9.28279 0.039889 9.2606 -0.116839 9.15024 -0.199816C 9.03989 -0.282794 8.88316 -0.2606 8.80018 -0.150245L 9.19982 0.150245ZM -0.198566 6.23304L 2.03421 9.15189L 2.43135 8.84811L 0.198566 5.92925L -0.198566 6.23304ZM 2.4326 9.15024L 9.19982 0.150245L 8.80018 -0.150245L 2.03296 8.84976L 2.4326 9.15024Z"/>
</defs>
</svg>
