<svg width="18" height="20" viewBox="0 0 18 20" fill="none" xmlns="http://www.w3.org/2000/svg">
<path fill-rule="evenodd" clip-rule="evenodd" d="M16.4777 15.4218H1.52232V14.1697L3.359 12.3241V8.71254C3.359 5.99693 5.19564 3.76561 7.81927 3.2223V2.69357C7.81927 2.05151 8.34406 1.4897 9 1.4897C9.65595 1.4897 10.1807 2.05151 10.1807 2.69357V3.2223C12.8046 3.76538 14.6413 5.99693 14.6413 8.71254V12.3241L16.478 14.1697V15.4218H16.4777ZM9 18.51C8.10064 18.51 7.36477 17.6802 7.36057 16.9115H10.6397C10.6352 17.6802 9.89936 18.51 9 18.51V18.51ZM16.1633 11.7185V8.71255C16.1633 5.71513 14.3518 3.13972 11.6365 2.09845C11.3637 0.898696 10.2852 0 9 0C7.71479 0 6.63624 0.898696 6.36354 2.09868C3.64819 3.13999 1.83668 5.71536 1.83668 8.71281V11.7187L0.222953 13.3405C0.0798928 13.4841 0 13.6767 0 13.8772V16.1669C0 16.5785 0.340848 16.9118 0.761043 16.9118H5.83828C5.84217 18.5577 7.31789 20 9 20C10.6821 20 12.1578 18.5577 12.1617 16.9118H17.239C17.6595 16.9118 18 16.5782 18 16.1669V13.8772C18 13.6767 17.9201 13.4841 17.777 13.3405L16.1633 11.7185Z" fill="white"/>
</svg>
