<svg width="22" height="25" viewBox="0 0 22 25" fill="none" xmlns="http://www.w3.org/2000/svg">
<path d="M1 14.1985H8.62403V21.8225C8.62403 22.4965 8.35628 23.1429 7.87968 23.6195C7.40309 24.0961 6.75669 24.3639 6.08268 24.3639H3.54134C2.86734 24.3639 2.22094 24.0961 1.74434 23.6195C1.26775 23.1429 1 22.4965 1 21.8225V14.1985Z" stroke="#b9007e" stroke-linecap="round" stroke-linejoin="round"/>
<path d="M5.51072 1.13594L3.68095 2.12706C3.26706 2.33254 2.91702 2.64698 2.6685 3.03656C2.41998 3.42613 2.28238 3.87609 2.27051 4.33803V10.3864H7.35319V2.27955C7.35471 2.06187 7.30028 1.84745 7.19513 1.65685C7.08997 1.46625 6.93761 1.30586 6.75266 1.19106C6.5677 1.07626 6.35636 1.0109 6.13889 1.00125C5.92142 0.991598 5.70511 1.03798 5.51072 1.13594V1.13594Z" stroke="#b9007e" stroke-linecap="round" stroke-linejoin="round"/>
<path d="M8.62403 10.3864H1V14.1984H8.62403V10.3864Z" stroke="#b9007e" stroke-linecap="round" stroke-linejoin="round"/>
<path d="M9.88232 4.22367C11.7157 3.83846 13.6219 4.00213 15.3628 4.69424C17.1036 5.38635 18.6019 6.5762 19.6703 8.11507C20.7387 9.65394 21.3298 11.4736 21.3698 13.3465C21.4098 15.2195 20.8969 17.0627 19.8952 18.6458" stroke="#b9007e" stroke-linecap="round" stroke-linejoin="round"/>
<path d="M9.90723 6.84105C10.5221 6.66096 11.1598 6.57107 11.8005 6.57421C13.2049 6.56265 14.5801 6.97446 15.747 7.75595C16.9139 8.53744 17.8182 9.65237 18.3422 10.9554C18.8661 12.2584 18.9853 13.689 18.6843 15.0607C18.3833 16.4325 17.6759 17.6817 16.6545 18.6456" stroke="#b9007e" stroke-linecap="round" stroke-linejoin="round"/>
<path d="M9.89502 24.3638H17.519C18.5301 24.3638 19.4997 23.9621 20.2145 23.2473C20.9294 22.5324 21.3311 21.5628 21.3311 20.5518H11.1657" stroke="#b9007e" stroke-linecap="round" stroke-linejoin="round"/>
<path d="M11.1655 15.4691L14.9775 11.6571" stroke="#b9007e" stroke-linecap="round" stroke-linejoin="round"/>
<path d="M11.1655 11.6571L13.7069 9.11572" stroke="#b9007e" stroke-linecap="round" stroke-linejoin="round"/>
</svg>
