<svg xmlns="http://www.w3.org/2000/svg" width="24" height="24" viewBox="0 0 24 24">
    <path fill="#000" fill-rule="evenodd" d="M8.042 5C8.332 3.287 10.09 2 12 2s3.667 1.287 3.958 3H17.5c.806 0 1.448.627 1.499 1.464l.998 13.794c.057.928-.614 1.742-1.498 1.742H5.501c-.884 0-1.555-.814-1.498-1.748L5.001 6.47C5.05 5.627 5.694 5 6.5 5h1.542zm1.023 0h5.87C14.64 3.877 13.382 3 12 3c-1.382 0-2.64.877-2.935 2zM18.5 21c.276 0 .523-.3.5-.676L18.001 6.53c-.02-.323-.232-.53-.501-.53h-11c-.27 0-.481.207-.501.536L5 20.318c-.023.382.224.682.5.682h12.998zm-8.025-3.842a.5.5 0 1 1-.948-.316c.08-.242.247-.576.527-.912.48-.576 1.13-.93 1.947-.93.817 0 1.467.354 1.947.93.28.336.447.67.527.912a.5.5 0 1 1-.948.316 1.98 1.98 0 0 0-.348-.588c-.301-.362-.683-.57-1.178-.57-.495 0-.877.208-1.178.57a1.98 1.98 0 0 0-.348.588zM16 12a1 1 0 1 1-2 0 1 1 0 1 1 2 0zm-6 0a1 1 0 1 1-2 0 1 1 0 1 1 2 0z"/>
</svg>
