<svg width="48" height="53" viewBox="0 0 48 53" fill="none" xmlns="http://www.w3.org/2000/svg">
<rect width="48.0001" height="53.001" fill="black" fill-opacity="0"/>
<rect width="48.0001" height="53.001" fill="black" fill-opacity="0"/>
<path fill-rule="evenodd" clip-rule="evenodd" d="M47.985 24.523C47.792 21.676 46.945 16.293 46.945 16.293C46.945 16.293 46.318 4.44796 46.35 2.21297C46.373 0.646965 46.255 0.255965 45.131 0.255965H36.16C36.16 0.255965 35.178 0.0039649 35.238 1.72196C35.248 2.01296 35.238 2.53197 35.218 3.20797C35.0496 3.19047 34.8803 3.18213 34.711 3.18297H25.523C25.523 3.18297 24.519 3.04997 24.58 3.96097C24.636 4.80097 24.11 9.18996 24.053 11.578C23.841 11.688 23.693 11.735 23.671 11.818C23.655 11.873 23.641 11.935 23.626 11.992C23.5531 12.013 23.4851 12.0484 23.426 12.096C23.246 8.43597 23.013 3.35597 23.033 1.96797C23.055 0.403965 22.937 0.012965 21.813 0.012965H12.842C12.842 0.012965 11.861 -0.239035 11.921 1.47897C11.975 3.06497 11.461 11.352 11.407 15.859C11.407 15.917 11.43 15.972 11.464 16.026C11.198 16.07 11.055 16.156 11.034 16.311C10.757 18.227 10.499 19.643 10.391 22.209C10.347 23.252 10.021 23.673 9.416 23.472H8.422V14.962C8.422 12.999 7.34 11.78 7.34 11.78C7.297 11.671 6.785 11.857 6.785 11.857C3.33 13.836 2.448 16.103 2.448 16.103V23.473H1.455V40.212H0.774V43.765H0V47.891V52.038L1.4 53.001H45.639C45.639 53.001 46.729 52.589 46.45 49.934C46.316 48.662 46.457 42.91 46.45 40.52C46.443 38.32 48.179 27.371 47.985 24.523V24.523Z" fill="#DDDDDD"/>
<path d="M22.2237 27.085C22.187 27.1583 22.1437 27.21 22.0937 27.24C22.047 27.27 21.9903 27.285 21.9237 27.285C21.857 27.285 21.782 27.26 21.6987 27.21C21.6153 27.1566 21.517 27.0983 21.4037 27.035C21.2903 26.9716 21.157 26.915 21.0037 26.865C20.8537 26.8116 20.6753 26.785 20.4687 26.785C20.282 26.785 20.1187 26.8083 19.9787 26.855C19.842 26.8983 19.7253 26.96 19.6287 27.04C19.5353 27.12 19.4653 27.2166 19.4187 27.33C19.372 27.44 19.3487 27.5616 19.3487 27.695C19.3487 27.865 19.3953 28.0066 19.4887 28.12C19.5853 28.2333 19.712 28.33 19.8687 28.41C20.0253 28.49 20.2037 28.5616 20.4037 28.625C20.6037 28.6883 20.807 28.7566 21.0137 28.83C21.2237 28.9 21.4287 28.9833 21.6287 29.08C21.8287 29.1733 22.007 29.2933 22.1637 29.44C22.3203 29.5833 22.4453 29.76 22.5387 29.97C22.6353 30.18 22.6837 30.435 22.6837 30.735C22.6837 31.0616 22.627 31.3683 22.5137 31.655C22.4037 31.9383 22.2403 32.1866 22.0237 32.4C21.8103 32.61 21.5487 32.7766 21.2387 32.9C20.9287 33.02 20.5737 33.08 20.1737 33.08C19.9437 33.08 19.717 33.0566 19.4937 33.01C19.2703 32.9666 19.0553 32.9033 18.8487 32.82C18.6453 32.7366 18.4537 32.6366 18.2737 32.52C18.097 32.4033 17.9387 32.2733 17.7987 32.13L18.1887 31.485C18.2253 31.4383 18.2687 31.4 18.3187 31.37C18.372 31.3366 18.4303 31.32 18.4937 31.32C18.577 31.32 18.667 31.355 18.7637 31.425C18.8603 31.4916 18.9737 31.5666 19.1037 31.65C19.237 31.7333 19.392 31.81 19.5687 31.88C19.7487 31.9466 19.9637 31.98 20.2137 31.98C20.597 31.98 20.8937 31.89 21.1037 31.71C21.3137 31.5266 21.4187 31.265 21.4187 30.925C21.4187 30.735 21.3703 30.58 21.2737 30.46C21.1803 30.34 21.0553 30.24 20.8987 30.16C20.742 30.0766 20.5637 30.0066 20.3637 29.95C20.1637 29.8933 19.9603 29.8316 19.7537 29.765C19.547 29.6983 19.3437 29.6183 19.1437 29.525C18.9437 29.4316 18.7653 29.31 18.6087 29.16C18.452 29.01 18.3253 28.8233 18.2287 28.6C18.1353 28.3733 18.0887 28.095 18.0887 27.765C18.0887 27.5016 18.1403 27.245 18.2437 26.995C18.3503 26.745 18.5037 26.5233 18.7037 26.33C18.907 26.1366 19.1553 25.9816 19.4487 25.865C19.742 25.7483 20.077 25.69 20.4537 25.69C20.8803 25.69 21.2737 25.7566 21.6337 25.89C21.9937 26.0233 22.3003 26.21 22.5537 26.45L22.2237 27.085Z" fill="white"/>
<path d="M24.955 27.87V33H23.72V27.87H24.955ZM25.14 26.375C25.14 26.4816 25.1183 26.5816 25.075 26.675C25.0317 26.7683 24.9733 26.85 24.9 26.92C24.83 26.99 24.7467 27.0466 24.65 27.09C24.5533 27.13 24.45 27.15 24.34 27.15C24.2333 27.15 24.1317 27.13 24.035 27.09C23.9417 27.0466 23.86 26.99 23.79 26.92C23.72 26.85 23.6633 26.7683 23.62 26.675C23.58 26.5816 23.56 26.4816 23.56 26.375C23.56 26.265 23.58 26.1616 23.62 26.065C23.6633 25.9683 23.72 25.885 23.79 25.815C23.86 25.745 23.9417 25.69 24.035 25.65C24.1317 25.6066 24.2333 25.585 24.34 25.585C24.45 25.585 24.5533 25.6066 24.65 25.65C24.7467 25.69 24.83 25.745 24.9 25.815C24.9733 25.885 25.0317 25.9683 25.075 26.065C25.1183 26.1616 25.14 26.265 25.14 26.375Z" fill="white"/>
<path d="M26.3548 33V27.87H27.1098C27.2698 27.87 27.3748 27.945 27.4248 28.095L27.5098 28.5C27.6132 28.3933 27.7215 28.2966 27.8348 28.21C27.9515 28.1233 28.0732 28.0483 28.1998 27.985C28.3298 27.9216 28.4682 27.8733 28.6148 27.84C28.7615 27.8066 28.9215 27.79 29.0948 27.79C29.3748 27.79 29.6232 27.8383 29.8398 27.935C30.0565 28.0283 30.2365 28.1616 30.3798 28.335C30.5265 28.505 30.6365 28.71 30.7098 28.95C30.7865 29.1866 30.8248 29.4483 30.8248 29.735V33H29.5898V29.735C29.5898 29.4216 29.5165 29.18 29.3698 29.01C29.2265 28.8366 29.0098 28.75 28.7198 28.75C28.5065 28.75 28.3065 28.7983 28.1198 28.895C27.9332 28.9916 27.7565 29.1233 27.5898 29.29V33H26.3548Z" fill="white"/>
<path d="M10.2445 44H8.89453V36.77H10.2445V44Z" fill="white"/>
<path d="M11.8041 44V38.87H12.5591C12.7191 38.87 12.8241 38.945 12.8741 39.095L12.9541 39.475C13.0441 39.375 13.1374 39.2833 13.2341 39.2C13.3341 39.1166 13.4391 39.045 13.5491 38.985C13.6624 38.925 13.7824 38.8783 13.9091 38.845C14.0391 38.8083 14.1807 38.79 14.3341 38.79C14.6574 38.79 14.9224 38.8783 15.1291 39.055C15.3391 39.2283 15.4957 39.46 15.5991 39.75C15.6791 39.58 15.7791 39.435 15.8991 39.315C16.0191 39.1916 16.1507 39.0916 16.2941 39.015C16.4374 38.9383 16.5891 38.8816 16.7491 38.845C16.9124 38.8083 17.0757 38.79 17.2391 38.79C17.5224 38.79 17.7741 38.8333 17.9941 38.92C18.2141 39.0066 18.3991 39.1333 18.5491 39.3C18.6991 39.4666 18.8124 39.67 18.8891 39.91C18.9691 40.15 19.0091 40.425 19.0091 40.735V44H17.7741V40.735C17.7741 40.4083 17.7024 40.1633 17.5591 40C17.4157 39.8333 17.2057 39.75 16.9291 39.75C16.8024 39.75 16.6841 39.7716 16.5741 39.815C16.4674 39.8583 16.3724 39.9216 16.2891 40.005C16.2091 40.085 16.1457 40.1866 16.0991 40.31C16.0524 40.4333 16.0291 40.575 16.0291 40.735V44H14.7891V40.735C14.7891 40.3916 14.7191 40.1416 14.5791 39.985C14.4424 39.8283 14.2391 39.75 13.9691 39.75C13.7924 39.75 13.6257 39.795 13.4691 39.885C13.3157 39.9716 13.1724 40.0916 13.0391 40.245V44H11.8041Z" fill="white"/>
<path d="M24.242 44H23.687C23.5704 44 23.4787 43.9833 23.412 43.95C23.3454 43.9133 23.2954 43.8416 23.262 43.735L23.152 43.37C23.022 43.4866 22.8937 43.59 22.767 43.68C22.6437 43.7666 22.5154 43.84 22.382 43.9C22.2487 43.96 22.107 44.005 21.957 44.035C21.807 44.065 21.6404 44.08 21.457 44.08C21.2404 44.08 21.0404 44.0516 20.857 43.995C20.6737 43.935 20.5154 43.8466 20.382 43.73C20.252 43.6133 20.1504 43.4683 20.077 43.295C20.0037 43.1216 19.967 42.92 19.967 42.69C19.967 42.4966 20.017 42.3066 20.117 42.12C20.2204 41.93 20.3904 41.76 20.627 41.61C20.8637 41.4566 21.1787 41.33 21.572 41.23C21.9654 41.13 22.4537 41.0733 23.037 41.06V40.76C23.037 40.4166 22.9637 40.1633 22.817 40C22.6737 39.8333 22.4637 39.75 22.187 39.75C21.987 39.75 21.8204 39.7733 21.687 39.82C21.5537 39.8666 21.437 39.92 21.337 39.98C21.2404 40.0366 21.1504 40.0883 21.067 40.135C20.9837 40.1816 20.892 40.205 20.792 40.205C20.7087 40.205 20.637 40.1833 20.577 40.14C20.517 40.0966 20.4687 40.0433 20.432 39.98L20.207 39.585C20.797 39.045 21.5087 38.775 22.342 38.775C22.642 38.775 22.9087 38.825 23.142 38.925C23.3787 39.0216 23.5787 39.1583 23.742 39.335C23.9054 39.5083 24.0287 39.7166 24.112 39.96C24.1987 40.2033 24.242 40.47 24.242 40.76V44ZM21.842 43.23C21.9687 43.23 22.0854 43.2183 22.192 43.195C22.2987 43.1716 22.3987 43.1366 22.492 43.09C22.5887 43.0433 22.6804 42.9866 22.767 42.92C22.857 42.85 22.947 42.7683 23.037 42.675V41.81C22.677 41.8266 22.3754 41.8583 22.132 41.905C21.892 41.9483 21.6987 42.005 21.552 42.075C21.4054 42.145 21.3004 42.2266 21.237 42.32C21.177 42.4133 21.147 42.515 21.147 42.625C21.147 42.8416 21.2104 42.9966 21.337 43.09C21.467 43.1833 21.6354 43.23 21.842 43.23Z" fill="white"/>
<path d="M27.2314 38.78C27.4514 38.78 27.6581 38.8033 27.8514 38.85C28.0447 38.8933 28.2214 38.9583 28.3814 39.045H29.8564V39.505C29.8564 39.5816 29.8364 39.6416 29.7964 39.685C29.7564 39.7283 29.6881 39.7583 29.5914 39.775L29.1314 39.86C29.1647 39.9466 29.1897 40.0383 29.2064 40.135C29.2264 40.2316 29.2364 40.3333 29.2364 40.44C29.2364 40.6933 29.1847 40.9233 29.0814 41.13C28.9814 41.3333 28.8414 41.5066 28.6614 41.65C28.4847 41.7933 28.2731 41.905 28.0264 41.985C27.7831 42.0616 27.5181 42.1 27.2314 42.1C27.0381 42.1 26.8497 42.0816 26.6664 42.045C26.5064 42.1416 26.4264 42.25 26.4264 42.37C26.4264 42.4733 26.4731 42.55 26.5664 42.6C26.6631 42.6466 26.7881 42.68 26.9414 42.7C27.0981 42.72 27.2747 42.7333 27.4714 42.74C27.6681 42.7433 27.8697 42.7533 28.0764 42.77C28.2831 42.7866 28.4847 42.8166 28.6814 42.86C28.8781 42.9 29.0531 42.965 29.2064 43.055C29.3631 43.145 29.4881 43.2683 29.5814 43.425C29.6781 43.5783 29.7264 43.7766 29.7264 44.02C29.7264 44.2466 29.6697 44.4666 29.5564 44.68C29.4464 44.8933 29.2847 45.0833 29.0714 45.25C28.8614 45.4166 28.6031 45.55 28.2964 45.65C27.9897 45.7533 27.6397 45.805 27.2464 45.805C26.8564 45.805 26.5181 45.7666 26.2314 45.69C25.9447 45.6166 25.7064 45.5166 25.5164 45.39C25.3297 45.2666 25.1897 45.1233 25.0964 44.96C25.0031 44.7966 24.9564 44.6266 24.9564 44.45C24.9564 44.21 25.0297 44.0083 25.1764 43.845C25.3231 43.6816 25.5264 43.5516 25.7864 43.455C25.6597 43.385 25.5581 43.2916 25.4814 43.175C25.4047 43.0583 25.3664 42.9066 25.3664 42.72C25.3664 42.6433 25.3797 42.565 25.4064 42.485C25.4331 42.4016 25.4731 42.32 25.5264 42.24C25.5831 42.16 25.6531 42.085 25.7364 42.015C25.8197 41.9416 25.9181 41.8766 26.0314 41.82C25.7714 41.68 25.5664 41.4933 25.4164 41.26C25.2697 41.0266 25.1964 40.7533 25.1964 40.44C25.1964 40.1866 25.2464 39.9583 25.3464 39.755C25.4497 39.5483 25.5914 39.3733 25.7714 39.23C25.9547 39.0833 26.1697 38.9716 26.4164 38.895C26.6664 38.8183 26.9381 38.78 27.2314 38.78ZM28.5864 44.23C28.5864 44.13 28.5564 44.0483 28.4964 43.985C28.4364 43.9216 28.3547 43.8733 28.2514 43.84C28.1481 43.8033 28.0264 43.7766 27.8864 43.76C27.7497 43.7433 27.6031 43.7316 27.4464 43.725C27.2931 43.715 27.1331 43.7066 26.9664 43.7C26.8031 43.69 26.6447 43.675 26.4914 43.655C26.3514 43.7316 26.2381 43.8233 26.1514 43.93C26.0681 44.0333 26.0264 44.1533 26.0264 44.29C26.0264 44.38 26.0481 44.4633 26.0914 44.54C26.1381 44.62 26.2097 44.6883 26.3064 44.745C26.4064 44.8016 26.5347 44.845 26.6914 44.875C26.8481 44.9083 27.0397 44.925 27.2664 44.925C27.4964 44.925 27.6947 44.9066 27.8614 44.87C28.0281 44.8366 28.1647 44.7883 28.2714 44.725C28.3814 44.665 28.4614 44.5916 28.5114 44.505C28.5614 44.4216 28.5864 44.33 28.5864 44.23ZM27.2314 41.31C27.3847 41.31 27.5181 41.29 27.6314 41.25C27.7447 41.2066 27.8381 41.1483 27.9114 41.075C27.9881 41.0016 28.0447 40.9133 28.0814 40.81C28.1214 40.7066 28.1414 40.5933 28.1414 40.47C28.1414 40.2166 28.0647 40.0166 27.9114 39.87C27.7614 39.72 27.5347 39.645 27.2314 39.645C26.9281 39.645 26.6997 39.72 26.5464 39.87C26.3964 40.0166 26.3214 40.2166 26.3214 40.47C26.3214 40.59 26.3397 40.7016 26.3764 40.805C26.4164 40.9083 26.4731 40.9983 26.5464 41.075C26.6231 41.1483 26.7181 41.2066 26.8314 41.25C26.9481 41.29 27.0814 41.31 27.2314 41.31Z" fill="white"/>
<path d="M32.7522 38.79C33.0755 38.79 33.3722 38.8416 33.6422 38.945C33.9155 39.0483 34.1505 39.2 34.3472 39.4C34.5439 39.5966 34.6972 39.84 34.8072 40.13C34.9172 40.4166 34.9722 40.745 34.9722 41.115C34.9722 41.2083 34.9672 41.2866 34.9572 41.35C34.9505 41.41 34.9355 41.4583 34.9122 41.495C34.8922 41.5283 34.8639 41.5533 34.8272 41.57C34.7905 41.5833 34.7439 41.59 34.6872 41.59H31.5172C31.5539 42.1166 31.6955 42.5033 31.9422 42.75C32.1889 42.9966 32.5155 43.12 32.9222 43.12C33.1222 43.12 33.2939 43.0966 33.4372 43.05C33.5839 43.0033 33.7105 42.9516 33.8172 42.895C33.9272 42.8383 34.0222 42.7866 34.1022 42.74C34.1855 42.6933 34.2655 42.67 34.3422 42.67C34.3922 42.67 34.4355 42.68 34.4722 42.7C34.5089 42.72 34.5405 42.7483 34.5672 42.785L34.9272 43.235C34.7905 43.395 34.6372 43.53 34.4672 43.64C34.2972 43.7466 34.1189 43.8333 33.9322 43.9C33.7489 43.9633 33.5605 44.0083 33.3672 44.035C33.1772 44.0616 32.9922 44.075 32.8122 44.075C32.4555 44.075 32.1239 44.0166 31.8172 43.9C31.5105 43.78 31.2439 43.605 31.0172 43.375C30.7905 43.1416 30.6122 42.855 30.4822 42.515C30.3522 42.1716 30.2872 41.775 30.2872 41.325C30.2872 40.975 30.3439 40.6466 30.4572 40.34C30.5705 40.03 30.7322 39.7616 30.9422 39.535C31.1555 39.305 31.4139 39.1233 31.7172 38.99C32.0239 38.8566 32.3689 38.79 32.7522 38.79ZM32.7772 39.675C32.4172 39.675 32.1355 39.7766 31.9322 39.98C31.7289 40.1833 31.5989 40.4716 31.5422 40.845H33.8622C33.8622 40.685 33.8405 40.535 33.7972 40.395C33.7539 40.2516 33.6872 40.1266 33.5972 40.02C33.5072 39.9133 33.3939 39.83 33.2572 39.77C33.1205 39.7066 32.9605 39.675 32.7772 39.675Z" fill="white"/>
<path d="M35.974 44V38.87H36.729C36.889 38.87 36.994 38.945 37.044 39.095L37.129 39.5C37.2323 39.3933 37.3406 39.2966 37.454 39.21C37.5706 39.1233 37.6923 39.0483 37.819 38.985C37.949 38.9216 38.0873 38.8733 38.234 38.84C38.3807 38.8066 38.5407 38.79 38.714 38.79C38.994 38.79 39.2423 38.8383 39.459 38.935C39.6757 39.0283 39.8557 39.1616 39.999 39.335C40.1457 39.505 40.2557 39.71 40.329 39.95C40.4056 40.1866 40.444 40.4483 40.444 40.735V44H39.209V40.735C39.209 40.4216 39.1356 40.18 38.989 40.01C38.8456 39.8366 38.629 39.75 38.339 39.75C38.1257 39.75 37.9256 39.7983 37.739 39.895C37.5523 39.9916 37.3757 40.1233 37.209 40.29V44H35.974Z" fill="white"/>
</svg>
