<svg width="66" height="49" viewBox="0 0 66 49" version="1.1" xmlns="http://www.w3.org/2000/svg" xmlns:xlink="http://www.w3.org/1999/xlink">
<title>Group 2</title>
<desc>Created using Figma</desc>
<g id="Canvas" transform="translate(4677 1195)">
<g id="Group 2">
<g id="COACH VIRTUAL CONSUL">
<use xlink:href="#path0_fill" transform="translate(-4677 -1167.39)" fill="#FFFFFF"/>
</g>
<g id="Logotipo Esika_blanco">
<g id="Group 7">
<mask id="mask0_outline" mask-type="alpha">
<g id="Clip 2">
<use xlink:href="#path1_fill" transform="translate(-4677 -1195)" fill="#FFFFFF"/>
</g>
</mask>
<g id="Fill 1" mask="url(#mask0_outline)">
<use xlink:href="#path2_fill" transform="translate(-4671.91 -1194.85)" fill="#FFFFFE"/>
</g>
<g id="Fill 3" mask="url(#mask0_outline)">
<use xlink:href="#path3_fill" transform="translate(-4677.01 -1188.08)" fill="#FFFFFE"/>
</g>
<g id="Fill 4" mask="url(#mask0_outline)">
<use xlink:href="#path4_fill" transform="translate(-4625.29 -1188.04)" fill="#FFFFFE"/>
</g>
<g id="Fill 5" mask="url(#mask0_outline)">
<use xlink:href="#path5_fill" transform="translate(-4637.24 -1193.04)" fill="#FFFFFE"/>
</g>
<g id="Fill 6" mask="url(#mask0_outline)">
<use xlink:href="#path6_fill" transform="translate(-4667.58 -1195)" fill="#FFFFFE"/>
</g>
</g>
<g id="Fill 8">
<use xlink:href="#path7_fill" transform="translate(-4645.38 -1193.14)" fill="#FFFFFE"/>
</g>
<g id="Fill 9">
<use xlink:href="#path8_fill" transform="translate(-4644.91 -1187.94)" fill="#FFFFFE"/>
</g>
<g id="Fill 10">
<use xlink:href="#path9_fill" transform="translate(-4660.49 -1187.94)" fill="#FFFFFE"/>
</g>
</g>
</g>
</g>
<defs>
<path id="path0_fill" d="M 5.76 3.65L 3.44 3.65L 3.44 10L 2.475 10L 2.475 3.65L 0.15 3.65L 0.15 2.835L 5.76 2.835L 5.76 3.65ZM 9.9882 9.23C 10.2849 9.23 10.5499 9.18 10.7832 9.08C 11.0165 8.98 11.2132 8.84 11.3732 8.66C 11.5365 8.48 11.6599 8.265 11.7432 8.015C 11.8299 7.765 11.8732 7.49 11.8732 7.19L 11.8732 2.835L 12.8382 2.835L 12.8382 7.19C 12.8382 7.60333 12.7715 7.98667 12.6382 8.34C 12.5082 8.69333 12.3199 9 12.0732 9.26C 11.8299 9.51667 11.5315 9.71833 11.1782 9.865C 10.8249 10.0117 10.4282 10.085 9.9882 10.085C 9.5482 10.085 9.15154 10.0117 8.7982 9.865C 8.44487 9.71833 8.14487 9.51667 7.8982 9.26C 7.65154 9 7.46154 8.69333 7.3282 8.34C 7.1982 7.98667 7.1332 7.60333 7.1332 7.19L 7.1332 2.835L 8.0982 2.835L 8.0982 7.185C 8.0982 7.485 8.13987 7.76 8.2232 8.01C 8.30987 8.26 8.4332 8.475 8.5932 8.655C 8.75654 8.835 8.95487 8.97667 9.1882 9.08C 9.42487 9.18 9.69154 9.23 9.9882 9.23ZM 21.4083 7.34L 20.2833 4.425C 20.2499 4.33833 20.2149 4.23833 20.1783 4.125C 20.1416 4.00833 20.1066 3.885 20.0733 3.755C 20.0033 4.025 19.9316 4.25 19.8583 4.43L 18.7333 7.34L 21.4083 7.34ZM 23.4283 10L 22.6783 10C 22.5916 10 22.5216 9.97833 22.4683 9.935C 22.4149 9.89167 22.3749 9.83667 22.3483 9.77L 21.6783 8.04L 18.4633 8.04L 17.7933 9.77C 17.7733 9.83 17.7349 9.88333 17.6783 9.93C 17.6216 9.97667 17.5516 10 17.4683 10L 16.7183 10L 19.5833 2.835L 20.5633 2.835L 23.4283 10ZM 28.4359 3.955C 28.4059 4.005 28.3725 4.04333 28.3359 4.07C 28.3025 4.09333 28.2609 4.105 28.2109 4.105C 28.1542 4.105 28.0875 4.07667 28.0109 4.02C 27.9342 3.96333 27.8375 3.90167 27.7209 3.835C 27.6075 3.765 27.4692 3.70167 27.3059 3.645C 27.1459 3.58833 26.9509 3.56 26.7209 3.56C 26.5042 3.56 26.3125 3.59 26.1459 3.65C 25.9825 3.70667 25.8442 3.785 25.7309 3.885C 25.6209 3.985 25.5375 4.10333 25.4809 4.24C 25.4242 4.37333 25.3959 4.51833 25.3959 4.675C 25.3959 4.875 25.4442 5.04167 25.5409 5.175C 25.6409 5.305 25.7709 5.41667 25.9309 5.51C 26.0942 5.60333 26.2775 5.685 26.4809 5.755C 26.6875 5.82167 26.8975 5.89167 27.1109 5.965C 27.3275 6.03833 27.5375 6.12167 27.7409 6.215C 27.9475 6.305 28.1309 6.42 28.2909 6.56C 28.4542 6.7 28.5842 6.87167 28.6809 7.075C 28.7809 7.27833 28.8309 7.52833 28.8309 7.825C 28.8309 8.13833 28.7775 8.43333 28.6709 8.71C 28.5642 8.98333 28.4075 9.22167 28.2009 9.425C 27.9975 9.62833 27.7459 9.78833 27.4459 9.905C 27.1492 10.0217 26.8109 10.08 26.4309 10.08C 25.9642 10.08 25.5409 9.99667 25.1609 9.83C 24.7809 9.66 24.4559 9.43167 24.1859 9.145L 24.4659 8.685C 24.4925 8.64833 24.5242 8.61833 24.5609 8.595C 24.6009 8.56833 24.6442 8.555 24.6909 8.555C 24.7342 8.555 24.7825 8.57333 24.8359 8.61C 24.8925 8.64333 24.9559 8.68667 25.0259 8.74C 25.0959 8.79333 25.1759 8.85167 25.2659 8.915C 25.3559 8.97833 25.4575 9.03667 25.5709 9.09C 25.6875 9.14333 25.8192 9.18833 25.9659 9.225C 26.1125 9.25833 26.2775 9.275 26.4609 9.275C 26.6909 9.275 26.8959 9.24333 27.0759 9.18C 27.2559 9.11667 27.4075 9.02833 27.5309 8.915C 27.6575 8.79833 27.7542 8.66 27.8209 8.5C 27.8875 8.34 27.9209 8.16167 27.9209 7.965C 27.9209 7.74833 27.8709 7.57167 27.7709 7.435C 27.6742 7.295 27.5459 7.17833 27.3859 7.085C 27.2259 6.99167 27.0425 6.91333 26.8359 6.85C 26.6292 6.78333 26.4192 6.71667 26.2059 6.65C 25.9925 6.58 25.7825 6.5 25.5759 6.41C 25.3692 6.32 25.1859 6.20333 25.0259 6.06C 24.8659 5.91667 24.7359 5.73833 24.6359 5.525C 24.5392 5.30833 24.4909 5.04167 24.4909 4.725C 24.4909 4.47167 24.5392 4.22667 24.6359 3.99C 24.7359 3.75333 24.8792 3.54333 25.0659 3.36C 25.2559 3.17667 25.4875 3.03 25.7609 2.92C 26.0375 2.81 26.3542 2.755 26.7109 2.755C 27.1109 2.755 27.4742 2.81833 27.8009 2.945C 28.1309 3.07167 28.4209 3.255 28.6709 3.495L 28.4359 3.955ZM 35.0205 9.21L 35.0155 10L 30.6005 10L 30.6005 2.835L 35.0155 2.835L 35.0155 3.625L 31.5705 3.625L 31.5705 6.005L 34.3605 6.005L 34.3605 6.765L 31.5705 6.765L 31.5705 9.21L 35.0205 9.21ZM 40.437 3.955C 40.407 4.005 40.3737 4.04333 40.337 4.07C 40.3037 4.09333 40.262 4.105 40.212 4.105C 40.1554 4.105 40.0887 4.07667 40.012 4.02C 39.9354 3.96333 39.8387 3.90167 39.722 3.835C 39.6087 3.765 39.4704 3.70167 39.307 3.645C 39.147 3.58833 38.952 3.56 38.722 3.56C 38.5054 3.56 38.3137 3.59 38.147 3.65C 37.9837 3.70667 37.8454 3.785 37.732 3.885C 37.622 3.985 37.5387 4.10333 37.482 4.24C 37.4254 4.37333 37.397 4.51833 37.397 4.675C 37.397 4.875 37.4454 5.04167 37.542 5.175C 37.642 5.305 37.772 5.41667 37.932 5.51C 38.0954 5.60333 38.2787 5.685 38.482 5.755C 38.6887 5.82167 38.8987 5.89167 39.112 5.965C 39.3287 6.03833 39.5387 6.12167 39.742 6.215C 39.9487 6.305 40.132 6.42 40.292 6.56C 40.4554 6.7 40.5854 6.87167 40.682 7.075C 40.782 7.27833 40.832 7.52833 40.832 7.825C 40.832 8.13833 40.7787 8.43333 40.672 8.71C 40.5654 8.98333 40.4087 9.22167 40.202 9.425C 39.9987 9.62833 39.747 9.78833 39.447 9.905C 39.1504 10.0217 38.812 10.08 38.432 10.08C 37.9654 10.08 37.542 9.99667 37.162 9.83C 36.782 9.66 36.457 9.43167 36.187 9.145L 36.467 8.685C 36.4937 8.64833 36.5254 8.61833 36.562 8.595C 36.602 8.56833 36.6454 8.555 36.692 8.555C 36.7354 8.555 36.7837 8.57333 36.837 8.61C 36.8937 8.64333 36.957 8.68667 37.027 8.74C 37.097 8.79333 37.177 8.85167 37.267 8.915C 37.357 8.97833 37.4587 9.03667 37.572 9.09C 37.6887 9.14333 37.8204 9.18833 37.967 9.225C 38.1137 9.25833 38.2787 9.275 38.462 9.275C 38.692 9.275 38.897 9.24333 39.077 9.18C 39.257 9.11667 39.4087 9.02833 39.532 8.915C 39.6587 8.79833 39.7554 8.66 39.822 8.5C 39.8887 8.34 39.922 8.16167 39.922 7.965C 39.922 7.74833 39.872 7.57167 39.772 7.435C 39.6754 7.295 39.547 7.17833 39.387 7.085C 39.227 6.99167 39.0437 6.91333 38.837 6.85C 38.6304 6.78333 38.4204 6.71667 38.207 6.65C 37.9937 6.58 37.7837 6.5 37.577 6.41C 37.3704 6.32 37.187 6.20333 37.027 6.06C 36.867 5.91667 36.737 5.73833 36.637 5.525C 36.5404 5.30833 36.492 5.04167 36.492 4.725C 36.492 4.47167 36.5404 4.22667 36.637 3.99C 36.737 3.75333 36.8804 3.54333 37.067 3.36C 37.257 3.17667 37.4887 3.03 37.762 2.92C 38.0387 2.81 38.3554 2.755 38.712 2.755C 39.112 2.755 39.4754 2.81833 39.802 2.945C 40.132 3.07167 40.422 3.255 40.672 3.495L 40.437 3.955ZM 49.2217 6.42C 49.2217 6.95667 49.1367 7.45 48.9667 7.9C 48.7967 8.34667 48.5567 8.73167 48.2467 9.055C 47.9367 9.37833 47.5634 9.63 47.1267 9.81C 46.6934 9.98667 46.2134 10.075 45.6867 10.075C 45.1601 10.075 44.6801 9.98667 44.2467 9.81C 43.8134 9.63 43.4417 9.37833 43.1317 9.055C 42.8217 8.73167 42.5817 8.34667 42.4117 7.9C 42.2417 7.45 42.1567 6.95667 42.1567 6.42C 42.1567 5.88333 42.2417 5.39167 42.4117 4.945C 42.5817 4.495 42.8217 4.10833 43.1317 3.785C 43.4417 3.45833 43.8134 3.205 44.2467 3.025C 44.6801 2.845 45.1601 2.755 45.6867 2.755C 46.2134 2.755 46.6934 2.845 47.1267 3.025C 47.5634 3.205 47.9367 3.45833 48.2467 3.785C 48.5567 4.10833 48.7967 4.495 48.9667 4.945C 49.1367 5.39167 49.2217 5.88333 49.2217 6.42ZM 48.2267 6.42C 48.2267 5.98 48.1667 5.585 48.0467 5.235C 47.9267 4.885 47.7567 4.59 47.5367 4.35C 47.3167 4.10667 47.0501 3.92 46.7367 3.79C 46.4234 3.66 46.0734 3.595 45.6867 3.595C 45.3034 3.595 44.9551 3.66 44.6417 3.79C 44.3284 3.92 44.0601 4.10667 43.8367 4.35C 43.6167 4.59 43.4467 4.885 43.3267 5.235C 43.2067 5.585 43.1467 5.98 43.1467 6.42C 43.1467 6.86 43.2067 7.255 43.3267 7.605C 43.4467 7.95167 43.6167 8.24667 43.8367 8.49C 44.0601 8.73 44.3284 8.915 44.6417 9.045C 44.9551 9.17167 45.3034 9.235 45.6867 9.235C 46.0734 9.235 46.4234 9.17167 46.7367 9.045C 47.0501 8.915 47.3167 8.73 47.5367 8.49C 47.7567 8.24667 47.9267 7.95167 48.0467 7.605C 48.1667 7.255 48.2267 6.86 48.2267 6.42ZM 52.9945 6.305C 53.2745 6.305 53.5212 6.27167 53.7345 6.205C 53.9512 6.135 54.1312 6.03833 54.2745 5.915C 54.4212 5.78833 54.5312 5.63833 54.6045 5.465C 54.6779 5.29167 54.7145 5.1 54.7145 4.89C 54.7145 4.46333 54.5745 4.14167 54.2945 3.925C 54.0145 3.70833 53.5945 3.6 53.0345 3.6L 51.9745 3.6L 51.9745 6.305L 52.9945 6.305ZM 56.3045 10L 55.4445 10C 55.2679 10 55.1379 9.93167 55.0545 9.795L 53.1945 7.235C 53.1379 7.155 53.0762 7.09833 53.0095 7.065C 52.9462 7.02833 52.8462 7.01 52.7095 7.01L 51.9745 7.01L 51.9745 10L 51.0095 10L 51.0095 2.835L 53.0345 2.835C 53.4879 2.835 53.8795 2.88167 54.2095 2.975C 54.5395 3.065 54.8112 3.19667 55.0245 3.37C 55.2412 3.54333 55.4012 3.75333 55.5045 4C 55.6079 4.24333 55.6595 4.51667 55.6595 4.82C 55.6595 5.07333 55.6195 5.31 55.5395 5.53C 55.4595 5.75 55.3429 5.94833 55.1895 6.125C 55.0395 6.29833 54.8545 6.44667 54.6345 6.57C 54.4179 6.69333 54.1712 6.78667 53.8945 6.85C 54.0179 6.92 54.1245 7.02167 54.2145 7.155L 56.3045 10ZM 61.4841 7.34L 60.3591 4.425C 60.3257 4.33833 60.2907 4.23833 60.2541 4.125C 60.2174 4.00833 60.1824 3.885 60.1491 3.755C 60.0791 4.025 60.0074 4.25 59.9341 4.43L 58.8091 7.34L 61.4841 7.34ZM 63.5041 10L 62.7541 10C 62.6674 10 62.5974 9.97833 62.5441 9.935C 62.4907 9.89167 62.4507 9.83667 62.4241 9.77L 61.7541 8.04L 58.5391 8.04L 57.8691 9.77C 57.8491 9.83 57.8107 9.88333 57.7541 9.93C 57.6974 9.97667 57.6274 10 57.5441 10L 56.7941 10L 59.6591 2.835L 60.6391 2.835L 63.5041 10ZM 7.535 17.42C 7.535 17.9567 7.45 18.45 7.28 18.9C 7.11 19.3467 6.87 19.7317 6.56 20.055C 6.25 20.3783 5.87667 20.63 5.44 20.81C 5.00667 20.9867 4.52667 21.075 4 21.075C 3.47333 21.075 2.99333 20.9867 2.56 20.81C 2.12667 20.63 1.755 20.3783 1.445 20.055C 1.135 19.7317 0.895 19.3467 0.725 18.9C 0.555 18.45 0.47 17.9567 0.47 17.42C 0.47 16.8833 0.555 16.3917 0.725 15.945C 0.895 15.495 1.135 15.1083 1.445 14.785C 1.755 14.4583 2.12667 14.205 2.56 14.025C 2.99333 13.845 3.47333 13.755 4 13.755C 4.52667 13.755 5.00667 13.845 5.44 14.025C 5.87667 14.205 6.25 14.4583 6.56 14.785C 6.87 15.1083 7.11 15.495 7.28 15.945C 7.45 16.3917 7.535 16.8833 7.535 17.42ZM 6.54 17.42C 6.54 16.98 6.48 16.585 6.36 16.235C 6.24 15.885 6.07 15.59 5.85 15.35C 5.63 15.1067 5.36333 14.92 5.05 14.79C 4.73667 14.66 4.38667 14.595 4 14.595C 3.61667 14.595 3.26833 14.66 2.955 14.79C 2.64167 14.92 2.37333 15.1067 2.15 15.35C 1.93 15.59 1.76 15.885 1.64 16.235C 1.52 16.585 1.46 16.98 1.46 17.42C 1.46 17.86 1.52 18.255 1.64 18.605C 1.76 18.9517 1.93 19.2467 2.15 19.49C 2.37333 19.73 2.64167 19.915 2.955 20.045C 3.26833 20.1717 3.61667 20.235 4 20.235C 4.38667 20.235 4.73667 20.1717 5.05 20.045C 5.36333 19.915 5.63 19.73 5.85 19.49C 6.07 19.2467 6.24 18.9517 6.36 18.605C 6.48 18.255 6.54 17.86 6.54 17.42ZM 15.1278 13.835L 15.1278 21L 14.6428 21C 14.5661 21 14.5011 20.9867 14.4478 20.96C 14.3978 20.9333 14.3478 20.8883 14.2978 20.825L 10.1528 15.425C 10.1595 15.5083 10.1645 15.59 10.1678 15.67C 10.1711 15.75 10.1728 15.825 10.1728 15.895L 10.1728 21L 9.32281 21L 9.32281 13.835L 9.82281 13.835C 9.86615 13.835 9.90281 13.8383 9.93281 13.845C 9.96281 13.8483 9.98948 13.8567 10.0128 13.87C 10.0361 13.88 10.0595 13.8967 10.0828 13.92C 10.1061 13.94 10.1311 13.9667 10.1578 14L 14.3028 19.395C 14.2961 19.3083 14.2895 19.225 14.2828 19.145C 14.2795 19.0617 14.2778 18.9833 14.2778 18.91L 14.2778 13.835L 15.1278 13.835ZM 21.4245 20.185L 21.4245 21L 17.3595 21L 17.3595 13.835L 18.3245 13.835L 18.3245 20.185L 21.4245 20.185ZM 23.8662 21L 22.8962 21L 22.8962 13.835L 23.8662 13.835L 23.8662 21ZM 31.904 13.835L 31.904 21L 31.419 21C 31.3423 21 31.2773 20.9867 31.224 20.96C 31.174 20.9333 31.124 20.8883 31.074 20.825L 26.929 15.425C 26.9356 15.5083 26.9406 15.59 26.944 15.67C 26.9473 15.75 26.949 15.825 26.949 15.895L 26.949 21L 26.099 21L 26.099 13.835L 26.599 13.835C 26.6423 13.835 26.679 13.8383 26.709 13.845C 26.739 13.8483 26.7656 13.8567 26.789 13.87C 26.8123 13.88 26.8356 13.8967 26.859 13.92C 26.8823 13.94 26.9073 13.9667 26.934 14L 31.079 19.395C 31.0723 19.3083 31.0656 19.225 31.059 19.145C 31.0556 19.0617 31.054 18.9833 31.054 18.91L 31.054 13.835L 31.904 13.835ZM 38.5557 20.21L 38.5507 21L 34.1357 21L 34.1357 13.835L 38.5507 13.835L 38.5507 14.625L 35.1057 14.625L 35.1057 17.005L 37.8957 17.005L 37.8957 17.765L 35.1057 17.765L 35.1057 20.21L 38.5557 20.21Z"/>
<path id="path1_fill" fill-rule="evenodd" d="M 4.19973e-15 27.373L 4.19973e-15 0L 66 0L 66 13.6865L 66 27.373L 4.19973e-15 27.373Z"/>
<path id="path2_fill" fill-rule="evenodd" d="M 0.446817 5.51154C 1.06855 4.60716 4.20952 3.85643 5.07427 2.83218C 5.90251 1.84927 4.6158 0.138881 4.50908 0C 4.49164 0.0436955 4.21175 0.280478 1.86416 1.55414C -1.07961 3.1508 0.309347 5.71089 0.446817 5.51154Z"/>
<path id="path3_fill" fill-rule="evenodd" d="M 6.97704 2.50768L 7.03464 2.50745C 9.57519 2.50745 10.384 3.87464 10.6276 4.49571C 10.9169 5.23417 10.8738 5.90306 10.6082 6.10524C 10.5039 6.18413 10.2535 6.39375 8.03015 6.39375C 6.12866 6.39375 3.83867 6.33092 2.7832 6.22865C 3.20704 3.98022 4.83842 2.52575 6.97704 2.50768ZM 11.9076 10.3444C 11.5759 10.3736 11.3145 10.5024 11.0723 10.7459C 9.91481 11.878 8.78195 12.3242 7.29027 12.3242C 4.8144 12.3242 3.39588 10.493 2.86343 8.70663C 4.21869 8.80902 5.52319 8.84032 6.64297 8.85236C 7.03842 8.85673 8.74943 8.87374 9.68805 8.78351C 10.6225 8.69388 11.764 8.55051 12.4934 7.79835C 13.4904 6.76974 13.4923 5.5987 13.3116 4.72514C 13.1072 3.73632 12.5729 2.77195 11.8301 2.01614C 10.9797 1.15037 9.55694 0 7.02805 0C 5.09205 0 3.30388 0.804234 1.99161 2.26343C 0.707023 3.69263 0 5.61559 0 7.67884L 0 7.73116C 0 9.71293 0.624093 11.1594 2.15546 12.7232C 3.50236 14.0997 5.30738 14.8573 7.23773 14.8573C 9.56848 14.8573 11.2743 14.1447 12.9401 12.4738C 13.2743 12.14 13.7222 11.5889 13.7222 11.5889C 13.7222 11.5889 12.6375 10.2798 11.9076 10.3444Z"/>
<path id="path4_fill" fill-rule="evenodd" d="M 2.67529 9.99932C 2.67529 9.36325 2.91607 8.96149 3.3875 8.64688C 4.0646 8.19434 4.87882 7.93866 6.42409 7.95496C 8.11001 7.97232 9.42994 8.21064 10.3046 8.4173L 10.3046 9.00011C 10.3046 10.978 8.4111 12.4694 5.90048 12.4694C 4.2976 12.4694 2.67529 11.6388 2.67529 10.0513L 2.67529 9.99932ZM 1.92317 13.8125C 2.96898 14.5625 4.38938 14.9935 5.82133 14.9935C 8.3448 14.9935 10.3536 14.0578 11.5858 12.5218C 11.9352 12.0877 12.8489 11.0949 12.8489 9.07474L 12.8489 6.08915C 12.8489 4.27803 12.3401 2.71255 11.2933 1.66386C 10.1918 0.559185 8.61585 0 6.60787 0C 5.21573 0 3.98286 0.236546 2.59874 0.778489L 2.59073 0.781678C 2.3827 0.863164 2.17054 0.951264 1.95368 1.04739C 1.91045 1.06558 0.645179 1.62146 0.645179 1.62146C 0.645179 1.62146 1.36893 2.88426 1.42418 2.95972L 1.43431 2.97649L 1.43607 2.97484C 1.66967 3.28638 2.03908 3.49635 2.43818 3.49635C 2.62041 3.49635 2.82939 3.44463 3.00915 3.35381C 4.19572 2.78742 5.31433 2.5243 6.5293 2.5243C 8.88431 2.5243 10.1751 3.79667 10.2731 5.88012C 9.4627 5.6979 8.23477 5.48438 6.50268 5.48438C 4.4603 5.48438 2.8599 5.87256 1.74647 6.63818C 0.587458 7.43497 0 8.59231 0 10.0776L 0 10.1305C 0 11.6361 0.664615 12.9099 1.92317 13.8125Z"/>
<path id="path5_fill" fill-rule="evenodd" d="M 24.1285 21.523C 23.592 21.8954 22.7585 22.2799 22.7585 22.2799C 18.7284 24.1166 14.1838 23.0214 10.5832 20.2445C 6.92003 17.419 5.26309 13.7544 4.73618 12.6141L 10.0413 6.5711L 9.09399 5.73935C 8.56579 5.27452 7.81165 5.33298 7.33822 5.8741L 3.14921 10.7081L 3.14921 10.7113L 2.59674 11.3482L 2.59674 0L 1.28494 0C 0.551176 0 0.000471191 0.565326 0.000471191 1.31429L 0.000471191 11.8655L 0 11.8664L 0 18.494C 0 19.1557 0.431022 19.6728 1.03721 19.7843C 1.07278 19.7915 1.1093 19.7962 1.14582 19.8001C 1.14594 19.8001 1.147 19.8006 1.147 19.8006C 1.20095 19.8067 1.25561 19.8107 1.31097 19.8107C 1.33701 19.8107 1.36115 19.8084 1.38624 19.8071L 2.59414 19.8071L 2.59414 18.5599C 2.59438 18.5387 2.59674 18.5177 2.59674 18.4961L 2.59674 13.9854C 3.24992 15.2789 5.00853 18.59 8.51784 21.5066C 10.3209 23.0052 12.5584 24.3165 15.0842 24.9731C 16.2906 25.2868 17.5316 25.4429 18.8491 25.4027C 21.2335 25.3304 23.9462 24.4819 26.2401 22.4818C 25.0668 20.7807 24.5426 21.236 24.1285 21.523Z"/>
<path id="path6_fill" fill-rule="evenodd" d="M 0 4.02607e-05C 0 4.02607e-05 0.00433889 0.00555333 0.0103466 0.0139065C 0.0170218 -0.0014633 0 4.02607e-05 0 4.02607e-05Z"/>
<path id="path7_fill" fill-rule="evenodd" d="M 1.40324 3.30669C 2.20417 3.30669 2.8322 2.67688 2.8322 1.87406L 2.8322 1.43217C 2.8322 0.628772 2.20417 0 1.40324 0C 0.616813 0 0 0.628772 0 1.43217L 0 1.87406C 0 2.67688 0.616813 3.30669 1.40324 3.30669Z"/>
<path id="path8_fill" fill-rule="evenodd" d="M 3.74315 12.5544L 3.58734 12.5789C 3.20797 12.6396 2.93939 12.5457 2.77546 12.2898C 2.65724 12.1054 2.59285 11.7167 2.58681 11.3736L 2.58681 0L 1.28036 0C 0.968388 0 0.689833 0.104454 0.471838 0.282529C 0.181101 0.520041 0 0.889673 0 1.32097C 0 2.26035 0.000580081 5.30053 0.00162423 7.85817L 0.00162423 7.9774C 0.00197228 10.0223 0.00336447 11.7289 0.00406057 11.7534C 0.0109055 12.0456 0.0258716 12.3273 0.0473346 12.5688C 0.0794711 12.9351 0.110215 13.2814 0.284936 13.6023C 0.464297 13.9321 0.646327 14.1742 0.995768 14.3606L 1.00424 14.365C 1.29613 14.5208 1.52596 14.6439 2.03899 14.6439C 2.03899 14.6439 2.15581 14.6423 2.2209 14.6398C 2.73613 14.6153 3.13348 14.4378 3.40322 14.1111C 3.86995 13.5451 3.76867 12.7453 3.76357 12.7113L 3.74315 12.5544Z"/>
<path id="path9_fill" fill-rule="evenodd" d="M 10.1546 7.04497C 9.24568 6.51054 8.04438 6.24839 6.6839 5.98415C 4.82151 5.62339 3.39406 5.2701 3.35551 4.30101L 3.35325 4.24996C 3.31435 3.27306 4.27654 2.55295 5.69483 2.4984C 6.80073 2.4555 7.8701 2.68431 9.01501 3.28623C 9.11411 3.3437 9.38559 3.48812 9.747 3.46131C 10.6968 3.39265 10.8418 2.78362 11.4013 1.66312C 11.4237 1.6179 10.5253 1.16716 10.4444 1.12543C 9.86299 0.830761 9.26174 0.571646 8.63456 0.385149C 8.45838 0.332463 8.28005 0.286305 8.09994 0.245742C 7.86689 0.194106 7.63086 0.151794 7.39507 0.115427C 7.14227 0.0764958 6.88864 0.0439753 6.63406 0.0255587C 6.30548 0.00154717 5.9763 -0.00684521 5.64713 0.00597648C 4.22848 0.060527 2.95567 0.531316 2.06308 1.32976C 1.14372 2.15338 0.664179 3.28145 0.713668 4.50709L 0.715572 4.55803C 0.823948 7.25 3.4489 7.87698 5.55862 8.38087C 5.55862 8.38087 6.31428 8.56038 6.47096 8.59616C 8.39152 9.0356 9.12018 9.28166 9.1542 10.1273L 9.15646 10.1798C 9.2006 11.2781 8.16549 12.0874 6.63881 12.1464C 5.1953 12.2021 3.83506 11.8034 2.48196 10.9301C 2.25485 10.777 1.94376 10.6919 1.65218 10.7033C 1.22724 10.7193 0.851786 10.9474 0.626229 11.275L 0 12.4016C 0 12.4016 1.14836 13.1453 1.14789 13.1428C 2.70192 14.1242 4.83579 14.7085 6.65963 14.6382C 8.09446 14.5827 9.39867 14.1088 10.3305 13.3028C 11.3442 12.4265 11.8511 11.2576 11.7969 9.92192L 11.795 9.86959C 11.7431 8.57017 11.2217 7.67207 10.1546 7.04497Z"/>
</defs>
</svg>
