<svg width="35" height="11" viewBox="0 0 35 11" version="1.1" xmlns="http://www.w3.org/2000/svg" xmlns:xlink="http://www.w3.org/1999/xlink">
<title>Visa (1)</title>
<desc>Created using Figma</desc>
<g id="Canvas" transform="translate(779 -514)">
<g id="Visa (1)">
<g id="Fill 2">
<use xlink:href="#path0_fill" transform="translate(-767 514)" fill="#004F8B"/>
</g>
<g id="Fill 3">
<use xlink:href="#path1_fill" transform="translate(-762 514)" fill="#004F8B"/>
</g>
<g id="Fill 4">
<use xlink:href="#path2_fill" transform="translate(-754 514)" fill="#004F8B"/>
</g>
<g id="Fill 5">
<use xlink:href="#path3_fill" transform="translate(-776 514)" fill="#004F8B"/>
</g>
<g id="Fill 6">
<use xlink:href="#path4_fill" transform="translate(-779 514)" fill="#ED9F2D"/>
</g>
</g>
</g>
<defs>
<path id="path0_fill" fill-rule="evenodd" d="M 0 11L 1.92359 0L 5 0L 3.07511 11L 0 11"/>
<path id="path1_fill" fill-rule="evenodd" d="M 8 0.44748C 7.4718 0.231497 6.64418 0 5.61046 0C 2.9762 0 1.12029 1.44533 1.10455 3.51676C 1.08975 5.04803 2.42945 5.90236 3.4407 6.41211C 4.47836 6.9343 4.82743 7.26746 4.82237 7.73393C 4.81581 8.44822 3.99363 8.77465 3.22728 8.77465C 2.1602 8.77465 1.5934 8.61317 0.717819 8.2153L 0.37418 8.04586L 0 10.4315C 0.622822 10.7289 1.77441 10.9867 2.96983 11C 5.77253 11 7.59172 9.57121 7.61252 7.35912C 7.62263 6.14693 6.91212 5.2242 5.37418 4.46377C 4.4422 3.97077 3.87146 3.64169 3.87746 3.14257C 3.87746 2.69958 4.3605 2.22597 5.40435 2.22597C 6.27619 2.21127 6.90763 2.41827 7.39966 2.63425L 7.63856 2.75714L 8 0.44748"/>
<path id="path2_fill" fill-rule="evenodd" d="M 7.74596 0L 5.59409 0C 4.92749 0 4.42861 0.195879 4.13583 0.912766L 0 11L 2.92436 11C 2.92436 11 3.40249 9.64361 3.51072 9.34589C 3.83032 9.34589 6.67091 9.35053 7.07701 9.35053C 7.16039 9.73575 7.41599 11 7.41599 11L 10 11L 7.74596 0L 7.74596 0ZM 4.31213 7.09441C 4.54229 6.46018 5.42164 4.01749 5.42164 4.01749C 5.405 4.0468 5.65023 3.38031 5.79075 2.96704L 5.97903 3.91607C 5.97903 3.91607 6.51235 6.54346 6.62371 7.09441L 4.31213 7.09441L 4.31213 7.09441Z"/>
<path id="path3_fill" fill-rule="evenodd" d="M 6.99725 0L 4.22182 7.51322L 3.92617 5.98626C 3.40957 4.22609 1.79982 2.31924 0 1.36466L 2.53775 11L 5.53712 10.9964L 10 0L 6.99725 0"/>
<path id="path4_fill" fill-rule="evenodd" d="M 4.68341 0L 0.0368581 0L 0 0.229469C 3.61513 1.14248 6.00706 3.34885 7 6L 5.98964 0.931188C 5.81507 0.232638 5.30919 0.0242992 4.68341 0"/>
</defs>
</svg>
