<svg width="18" height="18" viewBox="0 0 18 18" fill="none" xmlns="http://www.w3.org/2000/svg">
<path d="M17.0064 3.42953e-10H0.9864C0.724131 0.00190055 0.47325 0.107422 0.288469 0.293552C0.103687 0.479683 -6.88581e-06 0.731324 3.42953e-10 0.9936V17.0136C0.00190055 17.2759 0.107422 17.5268 0.293552 17.7115C0.479683 17.8963 0.731324 18 0.9936 18H9.6156V11.0394H7.2756V8.3142H9.6156V6.309C9.6156 3.9852 11.0358 2.718 13.1094 2.718C13.8093 2.71502 14.5088 2.75108 15.2046 2.826V5.256H13.7754C12.6468 5.256 12.4272 5.796 12.4272 6.579V8.3142H15.12L14.76 11.0394H12.42V18H17.0064C17.2699 18 17.5226 17.8953 17.709 17.709C17.8953 17.5226 18 17.2699 18 17.0064V0.9864C17.9981 0.724131 17.8926 0.47325 17.7064 0.288469C17.5203 0.103687 17.2687 -6.88581e-06 17.0064 3.42953e-10V3.42953e-10Z" fill="#4267B2"/>
<path d="M12.42 18V11.0394H14.76L15.12 8.3142H12.42V6.579C12.42 5.7924 12.6396 5.25601 13.7682 5.25601H15.1974V2.82601C14.5015 2.75108 13.802 2.71502 13.1022 2.71801C11.0286 2.71801 9.60837 3.978 9.60837 6.309V8.3142H7.26837V11.0394H9.60837V18H12.42Z" fill="white"/>
</svg>
