<svg width="35" height="22" viewBox="0 0 35 22" version="1.1" xmlns="http://www.w3.org/2000/svg" xmlns:xlink="http://www.w3.org/1999/xlink">
<title>VISA</title>
<desc>Created using Figma</desc>
<g id="Canvas" transform="translate(-3355 -5684)">
<g id="VISA">
<g id="Fill 1">
<use xlink:href="#path0_fill" transform="translate(3355 5684)" fill="#FFFFFF"/>
</g>
<g id="Fill 2">
<use xlink:href="#path1_fill" transform="translate(3355.8 5702.07)" fill="#F7B600"/>
</g>
<g id="Fill 3">
<use xlink:href="#path1_fill" transform="translate(3355.8 5684.79)" fill="#1A1F71"/>
</g>
<g id="Fill 4">
<use xlink:href="#path2_fill" transform="translate(3358.98 5690.29)" fill="#1A1F71"/>
</g>
</g>
</g>
<defs>
<path id="path0_fill" fill-rule="evenodd" d="M 0 22L 35 22L 35 0L 0 0L 0 22Z"/>
<path id="path1_fill" fill-rule="evenodd" d="M 0 3.14286L 34.2045 3.14286L 34.2045 0L 0 0L 0 3.14286Z"/>
<path id="path2_fill" fill-rule="evenodd" d="M 13.391 0.152832L 11.5841 8.51173L 9.39868 8.51173L 11.2057 0.152832L 13.391 0.152832ZM 22.5852 5.55033L 23.7357 2.41113L 24.3975 5.55033L 22.5852 5.55033ZM 25.0246 8.51173L 27.0454 8.51173L 25.2799 0.152832L 23.4157 0.152832C 22.9956 0.152832 22.6417 0.393909 22.4849 0.765596L 19.2056 8.51173L 21.5007 8.51173L 21.9564 7.26346L 24.7598 7.26346L 25.0246 8.51173ZM 19.3193 5.78259C 19.329 3.57667 16.2377 3.45435 16.2582 2.46876C 16.2649 2.1692 16.5536 1.85015 17.1848 1.7686C 17.4979 1.72864 18.3612 1.69647 19.3402 2.14272L 19.723 0.369413C 19.1972 0.181295 18.5207 0 17.6789 0C 15.5185 0 13.9986 1.13553 13.9864 2.76296C 13.9726 3.96639 15.0721 4.63731 15.8987 5.03808C 16.7511 5.44778 17.0367 5.71062 17.0326 6.07663C 17.0267 6.63741 16.3528 6.88563 15.7256 6.89505C 14.626 6.91195 13.9891 6.60102 13.4811 6.36676L 13.0845 8.1992C 13.5959 8.43086 14.5382 8.63246 15.514 8.64286C 17.8108 8.64286 19.3126 7.52049 19.3193 5.78259L 19.3193 5.78259ZM 10.2684 0.152832L 6.72738 8.51173L 4.4175 8.51173L 2.67483 1.84069C 2.56927 1.43051 2.47717 1.27975 2.15589 1.10642C 1.63038 0.823915 0.762736 0.559771 0 0.395371L 0.0515496 0.152832L 3.77034 0.152832C 4.24397 0.152832 4.67016 0.464737 4.77851 1.00456L 5.69902 5.84201L 7.97245 0.152832L 10.2684 0.152832Z"/>
</defs>
</svg>
