<?xml version="1.0" encoding="utf-8"?>
<!-- Generator: Adobe Illustrator 22.1.0, SVG Export Plug-In . SVG Version: 6.00 Build 0)  -->
<svg version="1.1" id="Layer_1" xmlns="http://www.w3.org/2000/svg" xmlns:xlink="http://www.w3.org/1999/xlink" x="0px" y="0px"
	 viewBox="0 0 75 17" style="enable-background:new 0 0 75 17;" xml:space="preserve">
<style type="text/css">
	.st0{fill:#C39934;}
	.st1{fill-rule:evenodd;clip-rule:evenodd;fill:#C39934;}
</style>
<title>logo-club-ganamás/dorado</title>
<desc>Created with Sketch.</desc>
<title>logo-club-ganamás/dorado</title>
<desc>Created with Sketch.</desc>
<g>
	<path class="st0" d="M0,8.6V8.4c0-4.7,3.3-8,7.9-8c3.5,0,6.6,1.6,6.9,5.5h-3.5C11.1,4.1,9.9,3.3,8,3.3c-2.7,0-4.3,2-4.3,5.2v0.2
		c0,3,1.3,5.2,4.3,5.2c2.6,0,3.7-1.5,3.8-3.3H8.3V7.9h7v1.7c0,4.2-2.7,6.9-7.3,6.9C2.8,16.5,0,13.2,0,8.6z"/>
	<path class="st0" d="M20.8,0.7h4.6l5.1,15.6h-3.7l-1.1-3.5h-5.6L19,16.3h-3.3L20.8,0.7z M20.9,10.3H25l-2-6.7L20.9,10.3z"/>
	<path class="st0" d="M32.6,0.7h4.1L42.7,11V0.7h3.1v15.6h-3.5L35.8,5.2v11.1h-3.1V0.7z"/>
	<path class="st0" d="M53.1,0.7h4.6l5.1,15.6H59L58,12.8h-5.6l-1.1,3.5h-3.3L53.1,0.7z M53.1,10.3h4.1l-2-6.7L53.1,10.3z"/>
	<polygon class="st1" points="75,5 70.5,5 70.5,0.6 67.3,0.6 67.3,5 62.7,5 62.7,8.2 67.3,8.2 67.3,12.7 70.5,12.7 70.5,8.2 75,8.2 
			"/>
</g>
</svg>
