<svg width="32" height="25" viewBox="0 0 32 25" version="1.1" xmlns="http://www.w3.org/2000/svg" xmlns:xlink="http://www.w3.org/1999/xlink">
<title>mc_vrt_pos</title>
<desc>Created using Figma</desc>
<g id="Canvas" transform="translate(-2955 -5682)">
<g id="mc_vrt_pos">
<g id="Layer 2">
<g id="Layer 1">
<g id="Vector">
<use xlink:href="#path0_fill" transform="translate(2957.48 5702.78)" fill="#231F20"/>
</g>
<g id="&#60;Group&#62;">
<g id="Vector">
<use xlink:href="#path1_fill" transform="translate(2966.92 5684.92)" fill="#FF5F00"/>
</g>
<g id="&#60;Path&#62;">
<use xlink:href="#path2_fill" transform="translate(2955.92 5682.92)" fill="#EB001B"/>
</g>
<g id="Vector">
<use xlink:href="#path3_fill" transform="translate(2971 5682.92)" fill="#F79E1B"/>
</g>
<g id="Vector">
<use xlink:href="#path4_fill" transform="translate(2985 5697.65)" fill="#F79E1B"/>
</g>
</g>
</g>
</g>
</g>
</g>
<defs>
<path id="path0_fill" d="M 3.92425 3.46867L 3.92425 1.91553C 3.9333 1.78491 3.91442 1.65386 3.86885 1.53111C 3.82328 1.40837 3.75208 1.29674 3.65999 1.20366C 3.56789 1.11059 3.45702 1.03821 3.33476 0.991348C 3.2125 0.944485 3.08166 0.924211 2.95095 0.93188C 2.77986 0.920664 2.6089 0.955582 2.45591 1.03299C 2.30292 1.11039 2.17351 1.22745 2.0812 1.37194C 1.99705 1.23178 1.87665 1.11693 1.73269 1.03948C 1.58873 0.962033 1.42654 0.92486 1.26322 0.93188C 1.12085 0.924683 0.979074 0.954815 0.85194 1.01929C 0.724807 1.08376 0.616729 1.18034 0.53842 1.29945L 0.53842 0.994005L 1.38244e-07 0.994005L 1.38244e-07 3.46867L 0.543597 3.46867L 0.543597 2.10708C 0.532034 2.02246 0.539309 1.93633 0.564902 1.85484C 0.590494 1.77336 0.633773 1.69853 0.691643 1.63571C 0.749514 1.5729 0.820547 1.52364 0.899665 1.49147C 0.978783 1.45929 1.06403 1.44499 1.14932 1.44959C 1.50654 1.44959 1.68774 1.68256 1.68774 2.10191L 1.68774 3.47902L 2.23133 3.47902L 2.23133 2.10708C 2.22024 2.02254 2.22785 1.9366 2.25362 1.85532C 2.27939 1.77404 2.32269 1.69941 2.38046 1.6367C 2.43823 1.57399 2.50906 1.52473 2.58796 1.4924C 2.66686 1.46007 2.75189 1.44546 2.83706 1.44959C 3.20463 1.44959 3.38065 1.68256 3.38065 2.10191L 3.38065 3.47902L 3.92425 3.46867ZM 11.9669 0.994005L 11.0816 0.994005L 11.0816 0.243325L 10.538 0.243325L 10.538 0.994005L 10.0462 0.994005L 10.0462 1.48583L 10.5484 1.48583L 10.5484 2.6248C 10.5484 3.19946 10.771 3.54114 11.4078 3.54114C 11.6457 3.54194 11.879 3.47555 12.0808 3.34959L 11.9255 2.88883C 11.7811 2.97495 11.6172 3.02305 11.4492 3.02861C 11.1903 3.02861 11.092 2.86294 11.092 2.61444L 11.092 1.48583L 11.9721 1.48583L 11.9669 0.994005ZM 16.559 0.93188C 16.4277 0.928019 16.2978 0.959647 16.183 1.02343C 16.0682 1.08721 15.9727 1.18078 15.9067 1.29428L 15.9067 0.994005L 15.3734 0.994005L 15.3734 3.46867L 15.9119 3.46867L 15.9119 2.0812C 15.9119 1.67221 16.0879 1.44441 16.4296 1.44441C 16.5447 1.44284 16.6591 1.46395 16.7661 1.50654L 16.9317 0.988829C 16.8088 0.94484 16.6792 0.922081 16.5486 0.921526L 16.559 0.93188ZM 9.61648 1.19074C 9.31171 1.00953 8.96131 0.919683 8.60695 0.93188C 7.98052 0.93188 7.57152 1.23215 7.57152 1.72398C 7.57152 2.12779 7.8718 2.37629 8.42575 2.45395L 8.6846 2.49019C 8.9797 2.53161 9.11948 2.60927 9.11948 2.74905C 9.11948 2.9406 8.92275 3.04932 8.55518 3.04932C 8.25951 3.05788 7.96957 2.9667 7.73202 2.79046L 7.47316 3.20981C 7.78679 3.4288 8.16245 3.54131 8.54482 3.53079C 9.25926 3.53079 9.67343 3.19428 9.67343 2.72316C 9.67343 2.25204 9.34727 2.06049 8.80886 1.98283L 8.55 1.94659C 8.31703 1.91553 8.13065 1.86894 8.13065 1.70327C 8.13065 1.5376 8.30667 1.41335 8.60177 1.41335C 8.87452 1.41652 9.1419 1.4896 9.37834 1.62561L 9.61648 1.19074ZM 24.0373 0.93188C 23.9061 0.928019 23.7762 0.959647 23.6614 1.02343C 23.5466 1.08721 23.4511 1.18078 23.385 1.29428L 23.385 0.994005L 22.8518 0.994005L 22.8518 3.46867L 23.3902 3.46867L 23.3902 2.0812C 23.3902 1.67221 23.5662 1.44441 23.9079 1.44441C 24.0231 1.44284 24.1374 1.46395 24.2444 1.50654L 24.4101 0.988829C 24.2871 0.94484 24.1576 0.922081 24.027 0.921526L 24.0373 0.93188ZM 17.1 2.22616C 17.0936 2.40006 17.1236 2.57339 17.188 2.73504C 17.2524 2.8967 17.3499 3.04312 17.4741 3.16495C 17.5984 3.28678 17.7467 3.38132 17.9096 3.44254C 18.0725 3.50375 18.2464 3.53028 18.4202 3.52044C 18.7434 3.53688 19.0611 3.4316 19.3106 3.22534L 19.0518 2.79046C 18.8656 2.9324 18.6387 3.01047 18.4046 3.01308C 18.2056 2.99698 18.0199 2.90654 17.8846 2.75977C 17.7492 2.613 17.674 2.42065 17.674 2.22098C 17.674 2.02131 17.7492 1.82896 17.8846 1.68219C 18.0199 1.53542 18.2056 1.44499 18.4046 1.42888C 18.6387 1.43149 18.8656 1.50956 19.0518 1.6515L 19.3106 1.21662C 19.0611 1.01036 18.7434 0.905078 18.4202 0.921526C 18.2464 0.91168 18.0725 0.938213 17.9096 0.999426C 17.7467 1.06064 17.5984 1.15518 17.4741 1.27701C 17.3499 1.39884 17.2524 1.54526 17.188 1.70692C 17.1236 1.86858 17.0936 2.0419 17.1 2.2158L 17.1 2.22616ZM 22.1425 2.22616L 22.1425 0.994005L 21.6041 0.994005L 21.6041 1.29428C 21.5126 1.17663 21.3945 1.08241 21.2595 1.0194C 21.1245 0.956385 20.9764 0.926387 20.8275 0.93188C 20.4843 0.93188 20.155 1.06824 19.9123 1.31097C 19.6696 1.55369 19.5332 1.88289 19.5332 2.22616C 19.5332 2.56942 19.6696 2.89863 19.9123 3.14135C 20.155 3.38408 20.4843 3.52044 20.8275 3.52044C 20.9764 3.52593 21.1245 3.49593 21.2595 3.43292C 21.3945 3.36991 21.5126 3.27569 21.6041 3.15804L 21.6041 3.45831L 22.1425 3.45831L 22.1425 2.22616ZM 20.139 2.22616C 20.1475 2.08049 20.1985 1.94052 20.2857 1.82347C 20.3728 1.70642 20.4923 1.61741 20.6293 1.5674C 20.7664 1.51738 20.9151 1.50855 21.0572 1.54199C 21.1992 1.57542 21.3284 1.64967 21.4287 1.75558C 21.5291 1.86149 21.5963 1.99444 21.6221 2.13807C 21.6479 2.28169 21.6311 2.42972 21.5738 2.56392C 21.5165 2.69812 21.4212 2.81263 21.2996 2.89336C 21.1781 2.97408 21.0356 3.0175 20.8896 3.01826C 20.7871 3.01955 20.6855 2.99963 20.5911 2.95973C 20.4967 2.91983 20.4115 2.86083 20.341 2.78643C 20.2705 2.71204 20.2162 2.62385 20.1814 2.52743C 20.1466 2.43101 20.1322 2.32843 20.139 2.22616L 20.139 2.22616ZM 13.6417 0.93188C 13.2984 0.936686 12.9711 1.07766 12.7318 1.32378C 12.4925 1.5699 12.3607 1.90101 12.3655 2.24428C 12.3703 2.58754 12.5113 2.91484 12.7574 3.15416C 13.0035 3.39349 13.3347 3.52524 13.6779 3.52044C 14.0504 3.53955 14.4166 3.41962 14.7056 3.18392L 14.4467 2.78529C 14.2423 2.94921 13.9891 3.0403 13.7271 3.04414C 13.5491 3.05945 13.3722 3.00472 13.234 2.89161C 13.0957 2.77849 13.007 2.6159 12.9868 2.43842L 14.8247 2.43842C 14.8247 2.37112 14.8247 2.30382 14.8247 2.23134C 14.8247 1.45477 14.3432 0.937058 13.6495 0.937058L 13.6417 0.93188ZM 13.6417 1.41335C 13.7223 1.41163 13.8024 1.42581 13.8775 1.45506C 13.9526 1.48431 14.0211 1.52808 14.0793 1.58385C 14.1375 1.63961 14.1841 1.7063 14.2165 1.78009C 14.2489 1.85388 14.2664 1.93333 14.2681 2.0139L 12.9738 2.0139C 12.9832 1.84773 13.0573 1.69183 13.1802 1.57959C 13.3031 1.46735 13.465 1.40767 13.6313 1.41335L 13.6417 1.41335ZM 27.1307 2.23134L 27.1307 1.57993e-07L 26.6129 1.57993e-07L 26.6129 1.29428C 26.5215 1.17663 26.4034 1.08241 26.2684 1.0194C 26.1333 0.956385 25.9853 0.926387 25.8364 0.93188C 25.4931 0.93188 25.1639 1.06824 24.9212 1.31097C 24.6785 1.55369 24.5421 1.88289 24.5421 2.22616C 24.5421 2.56942 24.6785 2.89863 24.9212 3.14135C 25.1639 3.38408 25.4931 3.52044 25.8364 3.52044C 25.9853 3.52593 26.1333 3.49593 26.2684 3.43292C 26.4034 3.36991 26.5215 3.27569 26.6129 3.15804L 26.6129 3.45831L 27.1307 3.45831L 27.1307 2.23134ZM 28.0289 3.10886C 28.0625 3.10844 28.0959 3.1146 28.1272 3.12698C 28.157 3.13911 28.1842 3.15666 28.2075 3.17875C 28.2302 3.20107 28.2487 3.22739 28.2618 3.2564C 28.275 3.28663 28.2817 3.31923 28.2817 3.35218C 28.2817 3.38513 28.275 3.41773 28.2618 3.44796C 28.2487 3.47697 28.2302 3.5033 28.2075 3.52561C 28.1842 3.5477 28.157 3.56525 28.1272 3.57738C 28.0963 3.59106 28.0628 3.59811 28.0289 3.59809C 27.9798 3.59772 27.9319 3.58341 27.8906 3.55683C 27.8494 3.53025 27.8165 3.49249 27.7959 3.44796C 27.783 3.41769 27.7763 3.38511 27.7763 3.35218C 27.7763 3.31925 27.783 3.28667 27.7959 3.2564C 27.8091 3.22739 27.8275 3.20107 27.8503 3.17875C 27.8736 3.15666 27.9008 3.13911 27.9305 3.12698C 27.9642 3.11356 28.0004 3.10739 28.0366 3.10886L 28.0289 3.10886ZM 28.0289 3.54632C 28.0547 3.54648 28.0803 3.54119 28.1039 3.53079C 28.1262 3.52085 28.1464 3.5068 28.1635 3.48937C 28.1959 3.45405 28.2138 3.40787 28.2138 3.35994C 28.2138 3.31202 28.1959 3.26584 28.1635 3.23052C 28.1465 3.21305 28.1262 3.19899 28.1039 3.1891C 28.0803 3.17878 28.0547 3.17349 28.0289 3.17357C 28.0031 3.17371 27.9776 3.17899 27.9538 3.1891C 27.9306 3.19864 27.9094 3.21272 27.8917 3.23052C 27.8593 3.26584 27.8413 3.31202 27.8413 3.35994C 27.8413 3.40787 27.8593 3.45405 27.8917 3.48937C 27.9095 3.50712 27.9306 3.52119 27.9538 3.53079C 27.9799 3.54205 28.0082 3.54736 28.0366 3.54632L 28.0289 3.54632ZM 28.0444 3.23828C 28.0686 3.23711 28.0924 3.24444 28.1117 3.25899C 28.1196 3.26555 28.1259 3.2739 28.1299 3.28336C 28.134 3.29281 28.1357 3.30309 28.135 3.31335C 28.1354 3.32195 28.134 3.33053 28.1308 3.33855C 28.1277 3.34657 28.123 3.35386 28.1169 3.35994C 28.1019 3.37357 28.0827 3.38178 28.0625 3.38324L 28.1376 3.46867L 28.0781 3.46867L 28.0082 3.38324L 27.9849 3.38324L 27.9849 3.46867L 27.9357 3.46867L 27.9357 3.24087L 28.0444 3.23828ZM 27.9875 3.28229L 27.9875 3.34441L 28.0444 3.34441C 28.0545 3.34744 28.0653 3.34744 28.0755 3.34441C 28.0773 3.3408 28.0782 3.33681 28.0782 3.33277C 28.0782 3.32872 28.0773 3.32473 28.0755 3.32112C 28.0773 3.31751 28.0782 3.31351 28.0782 3.30947C 28.0782 3.30542 28.0773 3.30143 28.0755 3.29782C 28.0653 3.2948 28.0545 3.2948 28.0444 3.29782L 27.9875 3.28229ZM 25.1401 2.23134C 25.1486 2.08567 25.1996 1.94569 25.2868 1.82865C 25.3739 1.7116 25.4934 1.62259 25.6304 1.57257C 25.7675 1.52256 25.9162 1.51373 26.0583 1.54716C 26.2003 1.5806 26.3295 1.65484 26.4298 1.76076C 26.5302 1.86667 26.5974 1.99962 26.6232 2.14325C 26.649 2.28687 26.6322 2.4349 26.5749 2.5691C 26.5176 2.7033 26.4223 2.81781 26.3007 2.89853C 26.1792 2.97926 26.0366 3.02268 25.8907 3.02343C 25.7882 3.02473 25.6866 3.0048 25.5922 2.96491C 25.4978 2.92501 25.4126 2.86601 25.3421 2.79161C 25.2716 2.71721 25.2172 2.62903 25.1825 2.53261C 25.1477 2.43618 25.1333 2.33361 25.1401 2.23134L 25.1401 2.23134ZM 6.96063 2.23134L 6.96063 0.994005L 6.42221 0.994005L 6.42221 1.29428C 6.33077 1.17663 6.21267 1.08241 6.07764 1.0194C 5.94262 0.956385 5.79454 0.926387 5.64564 0.93188C 5.30238 0.93188 4.97317 1.06824 4.73045 1.31097C 4.48772 1.55369 4.35136 1.88289 4.35136 2.22616C 4.35136 2.56942 4.48772 2.89863 4.73045 3.14135C 4.97317 3.38408 5.30238 3.52044 5.64564 3.52044C 5.79454 3.52593 5.94262 3.49593 6.07764 3.43292C 6.21267 3.36991 6.33077 3.27569 6.42221 3.15804L 6.42221 3.45831L 6.96063 3.45831L 6.96063 2.23134ZM 4.95708 2.23134C 4.96567 2.08567 5.01667 1.94569 5.1038 1.82865C 5.19093 1.7116 5.31039 1.62259 5.44747 1.57257C 5.58455 1.52256 5.73326 1.51373 5.8753 1.54716C 6.01734 1.5806 6.14649 1.65484 6.24687 1.76076C 6.34724 1.86667 6.41445 1.99962 6.44022 2.14325C 6.46598 2.28687 6.44918 2.4349 6.39189 2.5691C 6.33459 2.7033 6.2393 2.81781 6.11774 2.89853C 5.99619 2.97926 5.85368 3.02268 5.70777 3.02343C 5.60484 3.02545 5.50262 3.00606 5.40759 2.96649C 5.31255 2.92691 5.22678 2.86802 5.15571 2.79354C 5.08464 2.71907 5.02983 2.63063 4.99474 2.53385C 4.95966 2.43707 4.94507 2.33405 4.95191 2.23134L 4.95708 2.23134Z"/>
<path id="path1_fill" d="M 8.15395 0L 0 0L 0 14.6538L 8.15395 14.6538L 8.15395 0Z"/>
<path id="path2_fill" d="M 11.5177 9.3201C 11.5162 7.90863 11.8359 6.51532 12.4525 5.24568C 13.0692 3.97605 13.9667 2.86336 15.077 1.9919C 13.7022 0.911492 12.0512 0.239651 10.3127 0.0531612C 8.5742 -0.133328 6.81829 0.173057 5.24567 0.937301C 3.67304 1.70154 2.34715 2.89281 1.41954 4.37495C 0.491919 5.8571 3.58215e-08 7.57032 3.58215e-08 9.31881C 3.58215e-08 11.0673 0.491919 12.7805 1.41954 14.2627C 2.34715 15.7448 3.67304 16.9361 5.24567 17.7003C 6.81829 18.4646 8.5742 18.7709 10.3127 18.5844C 12.0512 18.398 13.7022 17.7261 15.077 16.6457C 13.967 15.7745 13.0697 14.6623 12.4531 13.3931C 11.8365 12.1239 11.5166 10.7311 11.5177 9.3201L 11.5177 9.3201Z"/>
<path id="path3_fill" d="M 15.0783 9.32118C 15.0783 11.0698 14.5863 12.7831 13.6585 14.2653C 12.7307 15.7475 11.4046 16.9388 9.83179 17.7029C 8.25897 18.467 6.50288 18.7732 4.76426 18.5865C 3.02564 18.3997 1.37465 17.7275 3.94982e-07 16.6468C 1.10953 15.7748 2.00653 14.6622 2.62334 13.393C 3.24014 12.1238 3.56064 10.731 3.56064 9.31988C 3.56064 7.90872 3.24014 6.51598 2.62334 5.24675C 2.00653 3.97752 1.10953 2.86495 3.94982e-07 1.99298C 1.37465 0.912232 3.02564 0.240064 4.76426 0.0533066C 6.50288 -0.133451 8.25897 0.172737 9.83179 0.936872C 11.4046 1.70101 12.7307 2.89226 13.6585 4.37445C 14.5863 5.85664 15.0783 7.56997 15.0783 9.31859L 15.0783 9.32118Z"/>
<path id="path4_fill" d="M 0.186378 0.362398L 0.186378 0.0621261L 0.308036 0.0621261L 0.308036 -6.31972e-07L -5.52975e-07 -6.31972e-07L -5.52975e-07 0.0621261L 0.132016 0.0621261L 0.132016 0.362398L 0.186378 0.362398ZM 0.784333 0.362398L 0.784333 -6.31972e-07L 0.691145 -6.31972e-07L 0.582426 0.258855L 0.473708 -6.31972e-07L 0.390872 -6.31972e-07L 0.390872 0.362398L 0.458173 0.362398L 0.458173 0.0906004L 0.559126 0.326158L 0.629019 0.326158L 0.729972 0.0906004L 0.729972 0.364987L 0.784333 0.362398Z"/>
</defs>
</svg>
