<svg width="57" height="43" viewBox="0 0 57 43" fill="none" xmlns="http://www.w3.org/2000/svg">
<path d="M53.4375 42.75H3.5625C1.59481 42.75 0 41.1552 0 39.1875V3.5625C0 1.59481 1.59481 0 3.5625 0H53.4375C55.4052 0 57 1.59481 57 3.5625V39.1875C57 41.1552 55.4052 42.75 53.4375 42.75Z" fill="#EAEAEA"/>
<path d="M7.125 42.75H3.5625C1.59481 42.75 0 41.1552 0 39.1875V3.5625C0 1.59481 1.59481 0 3.5625 0C5.53019 0 7.125 1.59481 7.125 3.5625V42.75Z" fill="#D54C3F"/>
<path d="M49.875 42.75H53.4375C55.4052 42.75 57 41.1552 57 39.1875V3.5625C57 1.59481 55.4052 0 53.4375 0C51.4698 0 49.875 1.59481 49.875 3.5625V42.75Z" fill="#B63524"/>
<path d="M55.4776 6.48375C56.3979 5.83894 57 4.77138 57 3.5625C57 1.59481 55.4052 0 53.4375 0C52.6787 0 51.9745 0.2375 51.3974 0.64125L28.5024 17.3102L28.5 17.3114L28.4976 17.3102L5.60263 0.64125C5.0255 0.2375 4.32131 0 3.5625 0C1.59481 0 0 1.59481 0 3.5625C0 4.77138 0.602062 5.83894 1.52237 6.48375L1.42737 6.41369L28.5 26.125" fill="#DE5145"/>
<path d="M53.4375 0C52.6787 0 51.9745 0.2375 51.3974 0.64125L28.5024 17.3102L28.5 17.3114L28.4976 17.3102L5.60263 0.64125C5.0255 0.2375 4.32131 0 3.5625 0H53.4375Z" fill="#EFEFEF"/>
<path d="M7.12552 12.0982L1.12152 6.15125L1.11914 6.15599C1.24502 6.27474 1.3792 6.38399 1.5217 6.48374L1.4267 6.41368L7.1267 10.564L7.12552 12.141" fill="#C64132"/>
<path d="M24.5433 29.2013L7.125 42.7495L7.12619 11.9493L24.5397 29.1966" fill="#E3E3E3"/>
<path d="M24.544 29.2015L28.5008 26.1247L7.12695 10.5637V11.9495L24.5405 29.1968L24.544 29.2015Z" fill="url(#paint0_linear)"/>
<path d="M38.064 42.7499H49.8666V10.5627L28.4916 26.1249L24.5312 29.197L38.064 42.7499Z" fill="url(#paint1_linear)"/>
<defs>
<linearGradient id="paint0_linear" x1="7.12636" y1="19.8827" x2="28.5008" y2="19.8827" gradientUnits="userSpaceOnUse">
<stop stop-color="#C8C8C8"/>
<stop offset="1" stop-color="#CDCDCD"/>
</linearGradient>
<linearGradient id="paint1_linear" x1="24.5307" y1="26.6562" x2="49.8666" y2="26.6562" gradientUnits="userSpaceOnUse">
<stop stop-color="#D9D9D9"/>
<stop offset="1" stop-color="#E2E2E2"/>
</linearGradient>
</defs>
</svg>
