<svg width="278" height="114" viewBox="0 0 278 114" version="1.1" xmlns="http://www.w3.org/2000/svg" xmlns:xlink="http://www.w3.org/1999/xlink">
<title>Logotipo Esika_blanco</title>
<desc>Created using Figma</desc>
<g id="Canvas" transform="matrix(2 0 0 2 11742 -30750)">
<g id="Logotipo Esika_blanco">
<g id="Group 7">
<mask id="mask0_outline" mask-type="alpha">
<g id="Clip 2">
<use xlink:href="#path0_fill" transform="translate(-5870.96 15375.6)" fill="#FFFFFF"/>
</g>
</mask>
<g id="Fill 1" mask="url(#mask0_outline)">
<use xlink:href="#path1_fill" transform="translate(-5860.28 15375.9)" fill="#E81C36"/>
</g>
<g id="Fill 3" mask="url(#mask0_outline)">
<use xlink:href="#path2_fill" transform="translate(-5870.98 15389.7)" fill="#E81C36"/>
</g>
<g id="Fill 4" mask="url(#mask0_outline)">
<use xlink:href="#path3_fill" transform="translate(-5762.36 15389.8)" fill="#E81C36"/>
</g>
<g id="Fill 5" mask="url(#mask0_outline)">
<use xlink:href="#path4_fill" transform="translate(-5787.46 15379.6)" fill="#E81C36"/>
</g>
<g id="Fill 6" mask="url(#mask0_outline)">
<use xlink:href="#path5_fill" transform="translate(-5851.19 15375.6)" fill="#E81C36"/>
</g>
</g>
<g id="Fill 8">
<use xlink:href="#path6_fill" transform="translate(-5804.58 15379.4)" fill="#E81C36"/>
</g>
<g id="Fill 9">
<use xlink:href="#path7_fill" transform="translate(-5803.58 15390)" fill="#E81C36"/>
</g>
<g id="Fill 10">
<use xlink:href="#path8_fill" transform="translate(-5836.3 15390)" fill="#E81C36"/>
</g>
</g>
</g>
<defs>
<path id="path0_fill" fill-rule="evenodd" d="M 8.82059e-15 55.8968L 8.82059e-15 0L 138.618 0L 138.618 27.9484L 138.618 55.8968L 8.82059e-15 55.8968Z"/>
<path id="path1_fill" fill-rule="evenodd" d="M 0.938439 11.2548C 2.24426 9.40803 8.84114 7.87499 10.6574 5.78344C 12.3969 3.77628 9.69445 0.283601 9.4703 0C 9.43368 0.0892282 8.84584 0.572749 3.91525 3.17363C -2.26747 6.43408 0.649714 11.6619 0.938439 11.2548Z"/>
<path id="path2_fill" fill-rule="evenodd" d="M 14.6544 5.12353L 14.7754 5.12305C 20.1112 5.12305 21.8099 7.91493 22.3216 9.18317C 22.9292 10.6911 22.8387 12.057 22.2808 12.4699C 22.0618 12.631 21.5358 13.0591 16.8662 13.0591C 12.8726 13.0591 8.06297 12.9308 5.84619 12.7219C 6.73636 8.13052 10.1627 5.16043 14.6544 5.12353ZM 25.0092 21.1237C 24.3125 21.1833 23.7635 21.4464 23.2549 21.9436C 20.8238 24.2554 18.4445 25.1665 15.3116 25.1665C 10.1116 25.1665 7.13227 21.4271 6.01399 17.7793C 8.86042 17.9884 11.6002 18.0523 13.9521 18.0769C 14.7826 18.0858 18.3762 18.1206 20.3476 17.9363C 22.3103 17.7533 24.7076 17.4605 26.2396 15.9246C 28.3336 13.8241 28.3376 11.4328 27.9581 9.64895C 27.5288 7.62974 26.4066 5.66045 24.8464 4.11704C 23.0604 2.34911 20.0722 0 14.7608 0C 10.6947 0 6.93905 1.64228 4.18292 4.62202C 1.48494 7.54051 0 11.4673 0 15.6805L 0 15.7874C 0 19.8342 1.31077 22.7879 4.52707 25.9813C 7.35593 28.7923 11.147 30.3393 15.2012 30.3393C 20.0964 30.3393 23.6792 28.8841 27.1778 25.472C 27.8797 24.7905 28.8203 23.665 28.8203 23.665C 28.8203 23.665 26.5422 20.9918 25.0092 21.1237Z"/>
<path id="path3_fill" fill-rule="evenodd" d="M 5.61963 20.4203C 5.61963 19.1214 6.12533 18.301 7.11546 17.6586C 8.53756 16.7345 10.2476 16.2124 13.4931 16.2456C 17.034 16.2811 19.8062 16.7677 21.6432 17.1898L 21.6432 18.3799C 21.6432 22.4188 17.6664 25.4644 12.3934 25.4644C 9.02693 25.4644 5.61963 23.7683 5.61963 20.5264L 5.61963 20.4203ZM 4.03918 28.2058C 6.23567 29.7374 9.21891 30.6173 12.2264 30.6173C 17.5264 30.6173 21.7454 28.7067 24.3333 25.5702C 25.0671 24.6837 26.9863 22.6563 26.9863 18.531L 26.9863 12.4343C 26.9863 8.73593 25.9177 5.53914 23.719 3.39767C 21.4055 1.14188 18.0957 0 13.8783 0C 10.9545 0 8.36511 0.483038 5.45807 1.58971L 5.44124 1.59622C 5.00432 1.76262 4.55874 1.94252 4.10326 2.13883C 4.01246 2.17596 1.35505 3.31109 1.35505 3.31109C 1.35505 3.31109 2.87513 5.88979 2.99116 6.04389L 3.01244 6.07813L 3.01615 6.07476C 3.50676 6.71093 4.28263 7.13971 5.12085 7.13971C 5.50359 7.13971 5.94249 7.03408 6.32004 6.84863C 8.81218 5.69204 11.1616 5.15474 13.7133 5.15474C 18.6595 5.15474 21.3706 7.75297 21.5764 12.0075C 19.8743 11.6354 17.2953 11.1993 13.6574 11.1993C 9.36785 11.1993 6.00657 11.992 3.66807 13.5555C 1.23382 15.1825 0 17.5459 0 20.5789L 0 20.687C 0 23.7615 1.39588 26.3626 4.03918 28.2058Z"/>
<path id="path4_fill" fill-rule="evenodd" d="M 50.6766 43.9509C 49.5496 44.7113 47.7992 45.4965 47.7992 45.4965C 39.3349 49.2472 29.7899 47.0107 22.2276 41.3402C 14.534 35.5705 11.0539 28.0871 9.94728 25.7585L 21.0895 13.4185L 19.0999 11.72C 17.9905 10.7708 16.4066 10.8902 15.4123 11.9952L 6.6142 21.8665L 6.6142 21.873L 5.45386 23.1735L 5.45386 0L 2.69873 0C 1.15762 0 0.000989632 1.15442 0.000989632 2.68384L 0.000989632 24.2298L 0 24.2317L 0 37.7655C 0 39.1167 0.905266 40.1727 2.17843 40.4004C 2.25314 40.4151 2.32984 40.4247 2.40654 40.4327C 2.40678 40.4327 2.40901 40.4336 2.40901 40.4336C 2.52232 40.4462 2.63712 40.4544 2.7534 40.4544C 2.80808 40.4544 2.8588 40.4496 2.9115 40.4469L 5.44842 40.4469L 5.44842 37.9C 5.44891 37.8569 5.45386 37.814 5.45386 37.7698L 5.45386 28.5588C 6.82574 31.2002 10.5193 37.9615 17.8898 43.9174C 21.6766 46.9777 26.3762 49.6553 31.6811 50.9961C 34.2148 51.6369 36.8212 51.9554 39.5882 51.8734C 44.5963 51.7258 50.2936 49.9931 55.1113 45.9089C 52.6472 42.435 51.5462 43.3649 50.6766 43.9509Z"/>
<path id="path5_fill" fill-rule="evenodd" d="M 0 8.22142e-05C 0 8.22142e-05 0.00911286 0.0113401 0.0217307 0.0283976C 0.0357504 -0.00298813 0 8.22142e-05 0 8.22142e-05Z"/>
<path id="path6_fill" fill-rule="evenodd" d="M 2.94719 6.75241C 4.62936 6.75241 5.94839 5.4663 5.94839 3.82691L 5.94839 2.92455C 5.94839 1.28398 4.62936 0 2.94719 0C 1.29548 0 0 1.28398 0 2.92455L 0 3.82691C 0 5.4663 1.29548 6.75241 2.94719 6.75241Z"/>
<path id="path7_fill" fill-rule="evenodd" d="M 7.86164 25.6366L 7.5344 25.6866C 6.73761 25.8106 6.17352 25.6189 5.82922 25.0963C 5.58093 24.7197 5.44569 23.9261 5.43302 23.2254L 5.43302 0L 2.6891 0C 2.03388 0 1.44884 0.213299 0.99099 0.576937C 0.380363 1.06195 0 1.81675 0 2.69748C 0 4.61573 0.00121833 10.8239 0.00341133 16.0467L 0.00341133 16.2902C 0.00414232 20.4659 0.00706632 23.951 0.00852831 24.001C 0.0229046 24.5976 0.0543375 25.1729 0.0994158 25.666C 0.166911 26.4141 0.231483 27.1213 0.598444 27.7765C 0.975152 28.4499 1.35746 28.9443 2.09139 29.3249L 2.10917 29.334C 2.72224 29.6522 3.20494 29.9035 4.28243 29.9035C 4.28243 29.9035 4.5278 29.9002 4.6645 29.8951C 5.74662 29.8451 6.58118 29.4827 7.1477 28.8155C 8.12797 27.6597 7.91525 26.0266 7.90453 25.9571L 7.86164 25.6366Z"/>
<path id="path8_fill" fill-rule="evenodd" d="M 21.3274 14.3861C 19.4185 13.2948 16.8954 12.7595 14.038 12.2199C 10.1265 11.4832 7.12846 10.7618 7.0475 8.78286L 7.04276 8.6786C 6.96105 6.68374 8.9819 5.21323 11.9607 5.10184C 14.2834 5.01425 16.5294 5.48148 18.934 6.71063C 19.1421 6.82798 19.7123 7.12289 20.4714 7.06814C 22.4663 6.92795 22.7708 5.68428 23.9459 3.39617C 23.9929 3.30382 22.106 2.38338 21.9361 2.29817C 20.715 1.69645 19.4522 1.16733 18.135 0.786491C 17.7649 0.678905 17.3904 0.584648 17.0121 0.501816C 16.5226 0.396372 16.0269 0.30997 15.5317 0.235707C 15.0007 0.156208 14.468 0.0897996 13.9333 0.052192C 13.2432 0.00315939 12.5519 -0.0139782 11.8605 0.0122042C 8.88096 0.123599 6.20773 1.08497 4.33304 2.71543C 2.40214 4.39729 1.39496 6.70087 1.4989 9.20368L 1.5029 9.3077C 1.73052 14.8048 7.24364 16.0851 11.6746 17.1141C 11.6746 17.1141 13.2617 17.4807 13.5908 17.5537C 17.6245 18.4511 19.1549 18.9536 19.2263 20.6804L 19.2311 20.7875C 19.3238 23.0304 17.1498 24.683 13.9433 24.8034C 10.9116 24.9172 8.05468 24.1032 5.21279 22.3197C 4.73581 22.0071 4.08243 21.8334 3.47003 21.8567C 2.57754 21.8893 1.78899 22.3551 1.31525 23.024L 0 25.3247C 0 25.3247 2.41188 26.8433 2.41088 26.8383C 5.67478 28.8422 10.1565 30.0354 13.9871 29.8919C 17.0006 29.7786 19.7398 28.8108 21.6969 27.1649C 23.826 25.3754 24.8906 22.9885 24.7767 20.261L 24.7727 20.1541C 24.6638 17.5007 23.5686 15.6667 21.3274 14.3861Z"/>
</defs>
</svg>
