<svg width="19" height="14" viewBox="0 0 19 14" fill="none" xmlns="http://www.w3.org/2000/svg">
<path d="M18.6087 2.12943C18.3896 1.29057 17.7479 0.629151 16.9341 0.403302C15.4473 0 9.5 0 9.5 0C9.5 0 3.55272 0 2.0659 0.403302C1.25206 0.629151 0.610379 1.29057 0.391269 2.12943C0 3.66198 0 6.84 0 6.84C0 6.84 0 10.0342 0.391269 11.5506C0.610379 12.3894 1.25206 13.0508 2.0659 13.2767C3.55272 13.68 9.5 13.68 9.5 13.68C9.5 13.68 15.4473 13.68 16.9341 13.2767C17.7479 13.0508 18.3896 12.3894 18.6087 11.5506C19 10.018 19 6.84 19 6.84C19 6.84 19 3.66198 18.6087 2.12943Z" fill="#FF0000"/>
<path d="M7.59064 9.79217L12.5363 6.85613L7.59064 3.90396V9.79217Z" fill="white"/>
</svg>
