<svg width="54" height="55" viewBox="0 0 54 55" fill="none" xmlns="http://www.w3.org/2000/svg">
<path d="M14.9135 45.6378L15.7298 46.1218C19.1603 48.1575 23.0932 49.2342 27.1039 49.2364H27.1126C39.4298 49.2364 49.4545 39.214 49.4591 26.896C49.4611 20.9262 47.139 15.3135 42.9199 11.0905C38.7004 6.86828 33.0905 4.5414 27.1206 4.53892C14.7941 4.53892 4.76939 14.5598 4.76474 26.8777C4.76311 31.0988 5.94391 35.2098 8.1812 38.7663L8.71297 39.6117L6.45491 47.8554L14.9135 45.6378ZM0 54.2412L3.81427 40.3135C1.46159 36.2373 0.2239 31.6133 0.225838 26.8765C0.231573 12.0568 12.2919 0 27.1132 0C34.3051 0.00310003 41.0555 2.80211 46.1318 7.88259C51.2076 12.963 54.002 19.7162 53.9997 26.8982C53.9934 41.7171 41.9305 53.7762 27.1132 53.7762C27.1121 53.7762 27.1137 53.7762 27.1132 53.7762H27.1017C22.602 53.7746 18.1806 52.6459 14.2536 50.5041L0 54.2412Z" fill="white"/>
<path d="M1.15219 26.8905C1.15056 31.4629 2.34532 35.927 4.61709 39.8625L0.93457 53.3081L14.694 49.7002C18.4851 51.7661 22.7533 52.8567 27.0972 52.8581H27.1085C41.4135 52.8581 53.0572 41.2175 53.0634 26.9108C53.0662 19.9776 50.3687 13.4591 45.468 8.55404C40.568 3.64972 34.0514 0.947347 27.1073 0.944092C12.8014 0.944092 1.15774 12.5831 1.15154 26.8905L1.15219 26.8905ZM27.1081 52.8579H27.1083H27.1081C27.1075 52.8579 27.1078 52.8579 27.1081 52.8579Z" fill="url(#paint0_linear)"/>
<path d="M0.225838 26.8827C0.22421 31.6195 1.4619 36.244 3.81458 40.3198L0 54.2466L14.2532 50.5095C18.1803 52.651 22.6015 53.7797 27.1012 53.7815H27.1127C41.9301 53.7815 53.993 41.7224 53.9992 26.9035C54.0017 19.7212 51.2072 12.9681 46.1314 7.88797C41.0548 2.8078 34.3048 0.00847112 27.1127 0.00537109C12.2922 0.00537109 0.231585 12.0622 0.225385 26.8818L0.225838 26.8827ZM8.71326 39.6175L8.18121 38.7725C5.94392 35.2155 4.76312 31.1045 4.76475 26.8839C4.76963 14.5667 14.7941 4.54506 27.1206 4.54506C33.0899 4.54738 38.7 6.87449 42.9199 11.0967C47.1393 15.3191 49.4611 20.9323 49.4595 26.9014C49.454 39.2193 39.4293 49.2417 27.1121 49.2417H27.1034C23.0928 49.2394 19.1596 48.1628 15.7294 46.1274L14.913 45.6434L6.45458 47.861L8.71326 39.6175ZM27.1127 53.7815H27.113H27.1127C27.1122 53.7815 27.1124 53.7815 27.1127 53.7815Z" fill="url(#paint1_linear)"/>
<path fill-rule="evenodd" clip-rule="evenodd" d="M20.3941 15.6451C19.8908 14.5263 19.3612 14.5039 18.8825 14.4842C18.4907 14.4676 18.0426 14.4686 17.595 14.4686C17.1469 14.4686 16.4191 14.6368 15.8037 15.3091C15.1877 15.9814 13.4521 17.6065 13.4521 20.9117C13.4521 24.2171 15.8598 27.411 16.1952 27.8597C16.5312 28.3075 20.8428 35.3073 27.6707 37.9999C33.3458 40.2377 34.5006 39.7926 35.7324 39.6805C36.9641 39.5686 39.7071 38.0559 40.2668 36.4871C40.8267 34.9186 40.8267 33.574 40.6588 33.2932C40.491 33.0133 40.0428 32.8451 39.3711 32.5094C38.699 32.1734 35.3963 30.548 34.7806 30.3238C34.1646 30.0999 33.7168 29.9881 33.2687 30.6606C32.8208 31.3324 31.5342 32.8451 31.1421 33.2933C30.7503 33.7422 30.3583 33.7982 29.6865 33.4622C29.0145 33.1251 26.8508 32.4164 24.284 30.1281C22.2868 28.3474 20.9386 26.1484 20.5465 25.4758C20.1548 24.804 20.5047 24.4401 20.8416 24.1052C21.1434 23.8042 21.5136 23.3208 21.8496 22.9287C22.1848 22.5364 22.2966 22.2564 22.5205 21.8083C22.7447 21.3599 22.6326 20.9676 22.4648 20.6315C22.2966 20.2955 20.9911 16.9733 20.3937 15.6449" fill="white"/>
<defs>
<linearGradient id="paint0_linear" x1="26.9993" y1="53.3027" x2="26.9993" y2="0.938589" gradientUnits="userSpaceOnUse">
<stop stop-color="#20B038"/>
<stop offset="1" stop-color="#60D66A"/>
</linearGradient>
<linearGradient id="paint1_linear" x1="27" y1="54.2482" x2="27" y2="0.00700054" gradientUnits="userSpaceOnUse">
<stop stop-color="#F9F9F9"/>
<stop offset="1" stop-color="white"/>
</linearGradient>
</defs>
</svg>
