<svg width="132" height="56" viewBox="0 0 132 56" version="1.1" xmlns="http://www.w3.org/2000/svg" xmlns:xlink="http://www.w3.org/1999/xlink">
<title>Logotipo Esika_blanco</title>
<desc>Created using Figma</desc>
<g id="Canvas" transform="matrix(2 0 0 2 8606 -436)">
<g id="Logotipo Esika_blanco">
<g id="Group 7">
<mask id="mask0_outline" mask-type="alpha">
<g id="Clip 2">
<use xlink:href="#path0_fill" transform="translate(-4303 218)" fill="#FFFFFF"/>
</g>
</mask>
<g id="Fill 1" mask="url(#mask0_outline)">
<use xlink:href="#path1_fill" transform="translate(-4297.91 218.147)" fill="#999999"/>
</g>
<g id="Fill 3" mask="url(#mask0_outline)">
<use xlink:href="#path2_fill" transform="translate(-4303.01 224.919)" fill="#999999"/>
</g>
<g id="Fill 4" mask="url(#mask0_outline)">
<use xlink:href="#path3_fill" transform="translate(-4251.29 224.963)" fill="#999999"/>
</g>
<g id="Fill 5" mask="url(#mask0_outline)">
<use xlink:href="#path4_fill" transform="translate(-4263.24 219.964)" fill="#999999"/>
</g>
<g id="Fill 6" mask="url(#mask0_outline)">
<use xlink:href="#path5_fill" transform="translate(-4293.58 218)" fill="#FFFFFE"/>
</g>
</g>
<g id="Fill 8">
<use xlink:href="#path6_fill" transform="translate(-4271.38 219.864)" fill="#999999"/>
</g>
<g id="Fill 9">
<use xlink:href="#path7_fill" transform="translate(-4270.91 225.06)" fill="#999999"/>
</g>
<g id="Fill 10">
<use xlink:href="#path8_fill" transform="translate(-4286.49 225.06)" fill="#999999"/>
</g>
</g>
</g>
<defs>
<path id="path0_fill" fill-rule="evenodd" d="M 4.19973e-15 27.373L 4.19973e-15 0L 66 0L 66 13.6865L 66 27.373L 4.19973e-15 27.373Z"/>
<path id="path1_fill" fill-rule="evenodd" d="M 0.446817 5.51154C 1.06855 4.60716 4.20952 3.85643 5.07427 2.83218C 5.90251 1.84927 4.6158 0.138881 4.50907 0C 4.49164 0.0436955 4.21175 0.280478 1.86416 1.55414C -1.07961 3.1508 0.309347 5.71089 0.446817 5.51154"/>
<path id="path2_fill" fill-rule="evenodd" d="M 6.97704 2.50764L 7.03464 2.5074C 9.57519 2.5074 10.384 3.8746 10.6276 4.49567C 10.9169 5.23412 10.8738 5.90302 10.6082 6.1052C 10.5039 6.18408 10.2535 6.39371 8.03015 6.39371C 6.12866 6.39371 3.83867 6.33088 2.7832 6.22861C 3.20704 3.98018 4.83842 2.52571 6.97704 2.50764L 6.97704 2.50764ZM 11.9076 10.3444C 11.5759 10.3736 11.3145 10.5024 11.0723 10.7459C 9.91481 11.878 8.78195 12.3242 7.29027 12.3242C 4.8144 12.3242 3.39588 10.493 2.86343 8.70663C 4.21869 8.80902 5.52319 8.84032 6.64297 8.85236C 7.03842 8.85673 8.74943 8.87374 9.68805 8.78351C 10.6225 8.69388 11.764 8.55051 12.4934 7.79835C 13.4904 6.76974 13.4923 5.5987 13.3116 4.72514C 13.1072 3.73632 12.5729 2.77195 11.8301 2.01614C 10.9797 1.15037 9.55694 0 7.02805 0C 5.09205 0 3.30388 0.804234 1.99161 2.26343C 0.707023 3.69263 0 5.61559 0 7.67884L 0 7.73116C 0 9.71293 0.624093 11.1594 2.15546 12.7232C 3.50236 14.0997 5.30738 14.8573 7.23773 14.8573C 9.56848 14.8573 11.2743 14.1447 12.9401 12.4738C 13.2743 12.14 13.7222 11.5889 13.7222 11.5889C 13.7222 11.5889 12.6375 10.2798 11.9076 10.3444L 11.9076 10.3444Z"/>
<path id="path3_fill" fill-rule="evenodd" d="M 2.67529 9.99927C 2.67529 9.36321 2.91607 8.96144 3.3875 8.64684C 4.0646 8.19429 4.87882 7.93862 6.42409 7.95491C 8.11001 7.97227 9.42994 8.21059 10.3046 8.41726L 10.3046 9.00006C 10.3046 10.9779 8.4111 12.4694 5.90048 12.4694C 4.2976 12.4694 2.67529 11.6388 2.67529 10.0512L 2.67529 9.99927ZM 1.92317 13.8125C 2.96898 14.5625 4.38938 14.9935 5.82133 14.9935C 8.3448 14.9935 10.3536 14.0578 11.5858 12.5218C 11.9352 12.0877 12.8489 11.0949 12.8489 9.07474L 12.8489 6.08915C 12.8489 4.27803 12.3401 2.71255 11.2933 1.66386C 10.1918 0.559185 8.61585 0 6.60787 0C 5.21573 0 3.98286 0.236546 2.59874 0.778489L 2.59073 0.781678C 2.3827 0.863164 2.17054 0.951264 1.95368 1.04739C 1.91045 1.06558 0.645179 1.62146 0.645179 1.62146C 0.645179 1.62146 1.36893 2.88426 1.42418 2.95972L 1.43431 2.97649L 1.43607 2.97484C 1.66967 3.28638 2.03908 3.49635 2.43818 3.49635C 2.62041 3.49635 2.82939 3.44463 3.00915 3.35381C 4.19572 2.78742 5.31433 2.5243 6.5293 2.5243C 8.88431 2.5243 10.1751 3.79667 10.2731 5.88012C 9.4627 5.6979 8.23477 5.48438 6.50268 5.48438C 4.4603 5.48438 2.8599 5.87256 1.74647 6.63818C 0.587458 7.43497 0 8.59232 0 10.0776L 0 10.1305C 0 11.6361 0.664615 12.9099 1.92317 13.8125L 1.92317 13.8125Z"/>
<path id="path4_fill" fill-rule="evenodd" d="M 24.1285 21.523C 23.592 21.8954 22.7585 22.2799 22.7585 22.2799C 18.7284 24.1166 14.1838 23.0214 10.5832 20.2445C 6.92003 17.419 5.26309 13.7544 4.73618 12.6141L 10.0413 6.5711L 9.09399 5.73935C 8.56579 5.27452 7.81165 5.33298 7.33822 5.8741L 3.14921 10.7081L 3.14921 10.7113L 2.59674 11.3482L 2.59674 0L 1.28494 0C 0.551176 0 0.000471191 0.565326 0.000471191 1.31429L 0.000471191 11.8655L 0 11.8664L 0 18.494C 0 19.1557 0.431022 19.6728 1.03721 19.7843C 1.07278 19.7915 1.1093 19.7962 1.14582 19.8001C 1.14594 19.8001 1.147 19.8006 1.147 19.8006C 1.20095 19.8067 1.25561 19.8107 1.31097 19.8107C 1.33701 19.8107 1.36115 19.8084 1.38624 19.8071L 2.59414 19.8071L 2.59414 18.5599C 2.59438 18.5387 2.59674 18.5177 2.59674 18.4961L 2.59674 13.9854C 3.24992 15.2789 5.00853 18.59 8.51784 21.5066C 10.3209 23.0052 12.5584 24.3165 15.0842 24.9731C 16.2906 25.2868 17.5316 25.4428 18.8491 25.4027C 21.2335 25.3304 23.9462 24.4819 26.2401 22.4818C 25.0668 20.7807 24.5426 21.236 24.1285 21.523Z"/>
<path id="path5_fill" fill-rule="evenodd" d="M 0 4.02607e-05C 0 4.02607e-05 0.00433889 0.00555333 0.0103466 0.0139065C 0.0170218 -0.0014633 0 4.02607e-05 0 4.02607e-05"/>
<path id="path6_fill" fill-rule="evenodd" d="M 1.40324 3.30669C 2.20417 3.30669 2.8322 2.67688 2.8322 1.87406L 2.8322 1.43217C 2.8322 0.628772 2.20417 0 1.40324 0C 0.616813 0 0 0.628772 0 1.43217L 0 1.87406C 0 2.67688 0.616813 3.30669 1.40324 3.30669"/>
<path id="path7_fill" fill-rule="evenodd" d="M 3.74315 12.5544L 3.58734 12.5789C 3.20797 12.6396 2.93939 12.5457 2.77546 12.2898C 2.65724 12.1054 2.59285 11.7167 2.58681 11.3736L 2.58681 0L 1.28036 0C 0.968388 0 0.689833 0.104454 0.471838 0.282529C 0.181101 0.520041 0 0.889673 0 1.32097C 0 2.26035 0.000580081 5.30053 0.00162423 7.85817L 0.00162423 7.9774C 0.00197228 10.0223 0.00336447 11.7289 0.00406057 11.7534C 0.0109055 12.0456 0.0258716 12.3273 0.0473346 12.5688C 0.0794711 12.9351 0.110215 13.2814 0.284936 13.6023C 0.464297 13.9321 0.646327 14.1742 0.995768 14.3606L 1.00424 14.365C 1.29613 14.5208 1.52596 14.6439 2.03899 14.6439C 2.03899 14.6439 2.15581 14.6423 2.2209 14.6398C 2.73613 14.6153 3.13348 14.4378 3.40322 14.1111C 3.86995 13.5451 3.76867 12.7453 3.76357 12.7113L 3.74315 12.5544"/>
<path id="path8_fill" fill-rule="evenodd" d="M 10.1546 7.04497C 9.24568 6.51054 8.04438 6.24839 6.6839 5.98415C 4.82151 5.62339 3.39406 5.2701 3.35551 4.30101L 3.35325 4.24996C 3.31435 3.27306 4.27654 2.55295 5.69483 2.4984C 6.80073 2.4555 7.8701 2.68431 9.01501 3.28623C 9.11411 3.3437 9.38559 3.48812 9.747 3.46131C 10.6968 3.39265 10.8418 2.78362 11.4013 1.66312C 11.4237 1.6179 10.5253 1.16716 10.4444 1.12543C 9.86299 0.830761 9.26174 0.571646 8.63456 0.385149C 8.45838 0.332463 8.28005 0.286305 8.09994 0.245742C 7.86689 0.194106 7.63086 0.151794 7.39507 0.115427C 7.14227 0.0764958 6.88864 0.0439753 6.63406 0.0255587C 6.30548 0.00154717 5.9763 -0.00684521 5.64713 0.00597648C 4.22847 0.060527 2.95567 0.531316 2.06308 1.32976C 1.14372 2.15338 0.664179 3.28145 0.713668 4.50709L 0.715572 4.55803C 0.823948 7.25 3.4489 7.87698 5.55862 8.38087C 5.55862 8.38087 6.31428 8.56038 6.47096 8.59616C 8.39152 9.0356 9.12018 9.28166 9.1542 10.1273L 9.15646 10.1798C 9.2006 11.2781 8.16549 12.0874 6.63881 12.1464C 5.1953 12.2021 3.83506 11.8034 2.48196 10.9301C 2.25485 10.777 1.94376 10.6919 1.65218 10.7033C 1.22724 10.7193 0.851786 10.9474 0.626229 11.275L 0 12.4016C 0 12.4016 1.14836 13.1453 1.14789 13.1429C 2.70192 14.1242 4.83579 14.7085 6.65963 14.6382C 8.09446 14.5827 9.39867 14.1088 10.3305 13.3028C 11.3442 12.4265 11.8511 11.2576 11.7969 9.92192L 11.795 9.86959C 11.7431 8.57017 11.2217 7.67207 10.1546 7.04497"/>
</defs>
</svg>
