<svg width="44" height="44" viewBox="0 0 44 44" fill="none" xmlns="http://www.w3.org/2000/svg">
<path d="M41.5717 44.0003C42.9126 44.0003 44 42.913 44 41.5717V2.42846C44 1.08704 42.9128 0 41.5717 0H2.42846C1.08704 0 0 1.08704 0 2.42846V41.5717C0 42.9128 1.08687 44.0003 2.42846 44.0003H41.5717Z" fill="#3C5A99"/>
<path d="M30.3591 44.0004V26.961H36.0784L36.9347 20.3205H30.3591V16.0809C30.3591 14.1583 30.893 12.8481 33.6499 12.8481L37.1663 12.8466V6.90724C36.5581 6.82631 34.4708 6.64551 32.0423 6.64551C26.9725 6.64551 23.5015 9.74016 23.5015 15.4232V20.3205H17.7676V26.961H23.5015V44.0004H30.3591Z" fill="white"/>
</svg>
