<svg width="45" height="40" viewBox="0 0 45 40" fill="none" xmlns="http://www.w3.org/2000/svg">
<path d="M11.4593 22.9117C11.4593 22.9117 11.4593 22.8159 11.4401 22.7488C11.134 21.3974 9.57489 12.7335 18.2698 5.7276C18.2698 5.7276 24.2481 1.13687 28.476 3.26452C27.6246 2.62239 26.2568 1.63524 25.6159 1.15604C24.1524 0.0442929 23.1098 0.0155415 23.1098 0.0155415C20.7472 -0.128218 18.9776 0.772677 18.9776 0.772677C11.5358 3.94498 10.5888 12.1872 10.5888 12.1872C9.7375 17.5159 10.6845 20.8991 11.3445 22.6817C11.3445 22.7009 11.4306 22.9309 11.4593 22.9117Z" fill="#898989"/>
<path d="M28.543 26.5153C28.5237 26.5541 28.5237 26.5347 28.543 26.5153V26.5153Z" fill="#898989"/>
<path d="M25.9889 3.68622C25.8742 4.32835 25.5394 5.63177 22.9185 7.24188C22.4689 7.50065 22.3254 7.54857 22.0193 7.74025C21.7611 7.90318 21.2159 8.40155 21.8567 9.04367C22.1437 9.33119 24.6211 10.9413 26.1133 12.0051C26.3046 11.8614 26.515 11.6697 26.6107 11.6026C26.6585 11.5355 26.6585 11.5547 26.6585 11.5355C27.2516 11.018 27.9116 10.2129 28.5524 9.12034C29.2412 7.86484 29.662 6.44641 29.0211 5.21007C29.0211 5.20049 28.4472 3.73414 25.9889 3.68622Z" fill="#898989"/>
<path d="M25.7785 12.3693C24.382 11.4972 23.6263 11.0946 21.1011 9.81039C21.1011 9.81039 20.3933 9.5037 20.3454 9.07242C20.3454 9.07242 20.3263 9.07242 20.3263 9.05325C20.3263 9.2641 20.2306 12.7239 19.7811 15.4266C19.7619 15.5416 19.7141 15.81 19.7619 16.1646C19.8576 16.73 20.1828 17.0655 20.355 17.2572C20.5941 17.5159 21.895 18.5797 24.9368 20.6882C26.2855 21.6083 28.5046 23.4868 28.6481 25.5473C28.6481 25.5665 28.6481 25.9211 28.6003 26.1607C28.5812 26.3236 28.5333 26.5153 28.5333 26.5153L28.5142 26.5632C28.5142 26.5632 28.5142 26.5632 28.5333 26.5632C28.5333 26.5632 28.5333 26.5441 28.5525 26.5153C28.5525 26.5153 28.5716 26.4961 28.5716 26.4482C28.6672 26.2853 30.2934 22.6817 30.5994 21.8766C30.7621 21.407 32.1108 19.126 29.6333 15.7908C29.6333 15.7812 28.5429 14.1999 25.7785 12.3693Z" fill="#898989"/>
<path d="M26.8881 23.573C26.8211 23.458 26.7446 23.3334 26.649 23.2184C26.649 23.2184 22.6985 26.4865 17.1984 23.9755C17.1984 23.9755 12.894 22.1737 12.2627 17.2763C12.2436 17.4872 12.1958 17.698 12.1671 17.9184C10.981 25.4227 16.6341 29.5438 22.0959 29.4288C26.2281 29.333 28.849 26.5536 26.8881 23.573Z" fill="#898989"/>
<path d="M7.7192 37.2111H10.0149V36.2431H7.7192V34.5851H10.5123V33.5883H6.54266V39.885H10.6557V38.917H7.7192V37.2111Z" fill="#898989"/>
<path d="M36.2525 37.2398V37.2206C36.9125 36.9618 37.3142 36.2718 37.3142 35.5146C37.3142 34.6617 36.9125 34.0675 36.2716 33.7895C35.9846 33.6745 35.6785 33.5978 34.9707 33.5978H32.7707V39.9233H33.9568V37.556H35.1811L36.482 39.9233H37.7829L36.4629 37.556C36.3194 37.3356 36.2525 37.2398 36.2525 37.2398ZM35.1142 36.5497H33.9568V34.585H34.9707C35.8699 34.585 36.1281 34.9588 36.1281 35.553C36.1281 36.1951 35.7551 36.5497 35.1142 36.5497Z" fill="#898989"/>
<path d="M3.61569 36.5976V36.5785C4.11308 36.3197 4.40004 35.8213 4.40004 35.2271C4.40004 34.1825 3.57743 33.5978 2.43915 33.5978H0V39.9233H2.45828C3.64438 39.9233 4.65831 39.3578 4.65831 38.0736C4.64874 37.4219 4.32352 36.7893 3.61569 36.5976ZM1.1574 34.585H2.41046C2.95568 34.585 3.21394 34.9204 3.21394 35.3709C3.21394 35.8213 2.92699 36.1759 2.42959 36.1759H1.1574V34.585ZM2.54437 38.9457H1.1574V37.096H2.55394C3.14699 37.096 3.47221 37.4698 3.47221 38.0161C3.47221 38.5432 3.13742 38.9457 2.54437 38.9457Z" fill="#898989"/>
<path d="M13.7931 33.5883H12.6357V39.9138H16.6819V38.917H13.7931V33.5883Z" fill="#898989"/>
<path d="M42.1065 33.5883H39.5047V39.9138H40.6621V37.7382H42.1065C43.3117 37.7382 44.1439 36.8852 44.1439 35.6585C44.1439 34.4221 43.3117 33.5883 42.1065 33.5883ZM41.896 36.7415H40.6717V34.5851H41.896C42.556 34.5851 42.9578 35.0068 42.9578 35.6489C42.9578 36.3102 42.556 36.7415 41.896 36.7415Z" fill="#898989"/>
<path d="M20.9098 38.965C19.5611 38.965 18.7384 37.9011 18.7384 36.7127C18.7384 35.5243 19.5419 34.5372 20.8906 34.5372C21.9046 34.5372 22.6411 35.1984 22.6411 35.1984L23.2054 34.3455C23.2054 34.3455 22.4019 33.4925 20.8428 33.4925C18.9489 33.4925 17.5332 34.8918 17.5332 36.7127C17.5332 38.5816 18.901 40 20.8619 40C22.488 40 23.368 38.9841 23.368 38.9841L22.7559 38.1599C22.7559 38.1599 22.0002 38.965 20.9098 38.965Z" fill="#898989"/>
<path d="M27.7873 33.4925C25.8933 33.4925 24.4777 34.8918 24.4777 36.7127C24.4777 38.5624 25.8933 40 27.7873 40C29.6812 40 31.116 38.5528 31.116 36.7127C31.1256 34.8918 29.6812 33.4925 27.7873 33.4925ZM27.7873 38.965C26.6299 38.965 25.6829 37.997 25.6829 36.7127C25.6829 35.4572 26.6299 34.5372 27.7873 34.5372C28.9734 34.5372 29.9108 35.4572 29.9108 36.7127C29.9108 37.997 28.9734 38.965 27.7873 38.965Z" fill="#898989"/>
</svg>
