<?xml version="1.0" encoding="UTF-8"?>
<svg width="18px" height="12px" viewBox="0 0 18 12" version="1.1" xmlns="http://www.w3.org/2000/svg" xmlns:xlink="http://www.w3.org/1999/xlink">
    <!-- Generator: Sketch 54.1 (76490) - https://sketchapp.com -->
    <title>ojo-abierto</title>
    <desc>Created with Sketch.</desc>
    <defs>
        <polygon id="path-1" points="0 0.0004 17.9998 0.0004 17.9998 11.9999 0 11.9999"></polygon>
    </defs>
    <g id="Page-1" stroke="none" stroke-width="1" fill="none" fill-rule="evenodd">
        <g id="ojo-abierto">
            <mask id="mask-2" fill="white">
                <use xlink:href="#path-1"></use>
            </mask>
            <g id="Clip-2"></g>
            <path d="M17.7988,5.2814 C16.8608,3.6904 15.6008,2.4134 14.0168,1.4484 C12.4328,0.4824 10.7608,0.0004 8.9998,0.0004 C7.2388,0.0004 5.5658,0.4824 3.9828,1.4484 C2.3988,2.4134 1.1378,3.6904 0.2008,5.2814 C0.0668,5.5244 -0.0002,5.7634 -0.0002,6.0004 C-0.0002,6.2364 0.0668,6.4754 0.2008,6.7184 C1.1378,8.3094 2.3988,9.5874 3.9828,10.5524 C5.5658,11.5174 7.2388,12.0004 8.9998,12.0004 C10.7608,12.0004 12.4338,11.5184 14.0168,10.5574 C15.6008,9.5954 16.8618,8.3154 17.7988,6.7184 C17.9328,6.4754 17.9998,6.2364 17.9998,6.0004 C17.9998,5.7634 17.9328,5.5244 17.7988,5.2814 M6.7628,2.7624 C7.2708,2.2544 7.8808,2.0004 8.5908,2.0004 C8.7048,2.0004 8.8008,2.0404 8.8808,2.1194 C8.9598,2.1994 8.9998,2.2964 8.9998,2.4094 C8.9998,2.5224 8.9598,2.6194 8.8808,2.6994 C8.8008,2.7784 8.7048,2.8184 8.5908,2.8184 C8.1028,2.8184 7.6848,2.9914 7.3378,3.3384 C6.9918,3.6844 6.8178,4.1014 6.8178,4.5914 C6.8178,4.7044 6.7788,4.8014 6.6988,4.8814 C6.6188,4.9604 6.5228,5.0004 6.4088,5.0004 C6.2958,5.0004 6.1988,4.9604 6.1188,4.8814 C6.0398,4.8014 5.9998,4.7044 5.9998,4.5914 C5.9998,3.8814 6.2538,3.2704 6.7628,2.7624 M13.5258,9.6354 C12.1338,10.5454 10.6248,11.0004 8.9998,11.0004 C7.3748,11.0004 5.8658,10.5454 4.4738,9.6354 C3.0818,8.7244 1.9238,7.5014 0.9998,5.9664 C2.0558,4.1984 3.3788,2.8764 4.9688,2.0004 C4.5448,2.7784 4.3328,3.6214 4.3328,4.5284 C4.3328,5.9144 4.7898,7.0984 5.7028,8.0844 C6.6158,9.0694 7.7148,9.5614 8.9998,9.5614 C10.2848,9.5614 11.3838,9.0694 12.2968,8.0844 C13.2098,7.0984 13.6668,5.9144 13.6668,4.5284 C13.6668,3.6224 13.4548,2.7784 13.0308,2.0004 C14.6218,2.8764 15.9448,4.1984 16.9998,5.9664 C16.0758,7.5014 14.9178,8.7244 13.5258,9.6354" id="Fill-1" fill="#454549" mask="url(#mask-2)"></path>
        </g>
    </g>
</svg>