<?xml version="1.0" encoding="utf-8"?>
<!-- Generator: Adobe Illustrator 22.1.0, SVG Export Plug-In . SVG Version: 6.00 Build 0)  -->
<svg version="1.1" id="Layer_1" xmlns="http://www.w3.org/2000/svg" xmlns:xlink="http://www.w3.org/1999/xlink" x="0px" y="0px"
	 viewBox="0 0 24 24" style="enable-background:new 0 0 24 24;" xml:space="preserve">
<style type="text/css">
	.st0{fill:#FFFFFF;}
</style>
<g>
	<path class="st0" d="M12,18.5c-1.1,0-2.1-0.6-2.6-1.5h0.1c0.8,0,1.5-0.7,1.5-1.5l0-0.6c0.3,0.1,0.6,0.1,1,0.1c2.2,0,4-1.8,4-4V7.5
		C16,7.2,15.8,7,15.5,7h-1C13.1,7,12,5.9,12,4.5c0-0.2-0.1-0.4-0.3-0.5s-0.4,0-0.5,0.1l-3,3C8.1,7.2,8,7.4,8,7.5V11
		c0,1.5,0.8,2.8,2,3.4c0,0,0,0,0,0l0,1c0,0.3-0.2,0.5-0.5,0.5h-1C8,16,7.5,16.1,7,16.4V8c0-2.8,2.2-5,5-5s5,2.2,5,5v4.5V13v0.5
		c0,0.3,0.2,0.5,0.5,0.5s0.5-0.2,0.5-0.5V13v-0.5V8c0-3.3-2.7-6-6-6S6,4.7,6,8v9.1c-0.3,0.3-0.5,0.7-0.7,1.1L4,21.3
		c-0.1,0.3,0,0.5,0.3,0.6c0.1,0,0.1,0,0.2,0c0.2,0,0.4-0.1,0.5-0.3l1.2-3.1c0.4-0.9,1.2-1.5,2.1-1.6c0.6,1.5,2.1,2.5,3.7,2.5
		c0.3,0,0.5-0.2,0.5-0.5S12.3,18.5,12,18.5z M9,11V7.7l2.2-2.2C11.6,7,12.9,8,14.5,8H15v3c0,1.7-1.3,3-3,3S9,12.7,9,11z"/>
	<path class="st0" d="M16.5,15c-1.9,0-3.5,1.6-3.5,3.5s1.6,3.5,3.5,3.5s3.5-1.6,3.5-3.5S18.4,15,16.5,15z M16.5,21
		c-1.4,0-2.5-1.1-2.5-2.5s1.1-2.5,2.5-2.5s2.5,1.1,2.5,2.5S17.9,21,16.5,21z"/>
	<path class="st0" d="M17.5,18H17v-0.5c0-0.3-0.2-0.5-0.5-0.5S16,17.2,16,17.5V18h-0.5c-0.3,0-0.5,0.2-0.5,0.5s0.2,0.5,0.5,0.5H16
		v0.5c0,0.3,0.2,0.5,0.5,0.5s0.5-0.2,0.5-0.5V19h0.5c0.3,0,0.5-0.2,0.5-0.5S17.8,18,17.5,18z"/>
</g>
</svg>
