<?xml version="1.0" encoding="UTF-8"?>
<svg width="18px" height="14px" viewBox="0 0 18 14" version="1.1" xmlns="http://www.w3.org/2000/svg" xmlns:xlink="http://www.w3.org/1999/xlink">
    <!-- Generator: Sketch 54.1 (76490) - https://sketchapp.com -->
    <title>ojo-cerrado</title>
    <desc>Created with Sketch.</desc>
    <defs>
        <polygon id="path-1" points="0 0.4664 15.0245 0.4664 15.0245 14 0 14"></polygon>
    </defs>
    <g id="Page-1" stroke="none" stroke-width="1" fill="none" fill-rule="evenodd">
        <g id="ojo-cerrado" transform="translate(0.000000, -1.000000)">
            <g id="Group-3" transform="translate(0.000000, 0.533800)">
                <mask id="mask-2" fill="white">
                    <use xlink:href="#path-1"></use>
                </mask>
                <g id="Clip-2"></g>
                <path d="M8.9995,11.9914 C7.3745,11.9914 5.8665,11.5364 4.4735,10.6264 C3.0815,9.7164 1.9235,8.4934 0.9995,6.9574 C1.8125,5.5954 2.7885,4.5034 3.9205,3.6734 L4.4885,4.2404 C4.3855,4.6514 4.3325,5.0774 4.3325,5.5194 C4.3325,6.9054 4.7905,8.0914 5.7035,9.0754 C6.6165,10.0604 7.7145,10.5534 8.9995,10.5534 C9.5445,10.5534 10.0535,10.4604 10.5305,10.2824 L11.7485,11.5004 C10.8725,11.8224 9.9575,11.9914 8.9995,11.9914 L8.9995,11.9914 Z M13.5795,11.7774 L12.8225,11.0204 L12.8225,11.0204 L11.6895,9.8884 L11.5435,9.7414 L11.5435,9.7414 L7.2015,5.4004 L6.2625,4.4614 L6.2625,4.4604 L5.4655,3.6644 L4.6955,2.8934 L4.1515,2.3494 L4.1515,2.3494 L2.2675,0.4664 L1.4905,1.2434 L3.2055,2.9584 C1.9815,3.8474 0.9785,4.9514 0.2005,6.2724 C0.0665,6.5154 -0.0005,6.7554 -0.0005,6.9914 C-0.0005,7.2274 0.0665,7.4674 0.2005,7.7104 C1.1375,9.3014 2.3985,10.5784 3.9825,11.5444 C5.5655,12.5094 7.2385,12.9914 8.9995,12.9914 C10.2195,12.9914 11.3945,12.7474 12.5285,12.2804 L14.2485,14.0004 L15.0245,13.2224 L13.5795,11.7774 Z" id="Fill-1" fill="#8F8F93" mask="url(#mask-2)"></path>
            </g>
            <path d="M17.7989,6.8064 C16.8609,5.2154 15.5999,3.9384 14.0169,2.9734 C12.4329,2.0074 10.7609,1.5254 8.9999,1.5254 C7.6389,1.5254 6.3329,1.8204 5.0789,2.3964 L6.8759,4.1944 C7.3609,3.7544 7.9309,3.5254 8.5909,3.5254 C8.7039,3.5254 8.8009,3.5654 8.8809,3.6444 C8.9599,3.7244 8.9999,3.8214 8.9999,3.9344 C8.9999,4.0474 8.9599,4.1444 8.8809,4.2234 C8.8009,4.3034 8.7039,4.3434 8.5909,4.3434 C8.1529,4.3434 7.7749,4.4914 7.4509,4.7694 L12.2939,9.6124 L12.2969,9.6094 C13.2099,8.6244 13.6669,7.4394 13.6669,6.0534 C13.6669,5.1474 13.4549,4.3034 13.0309,3.5254 C14.6209,4.4014 15.9439,5.7234 16.9999,7.4914 C16.1179,8.9564 15.0159,10.1294 13.7079,11.0254 L14.4589,11.7764 C15.8299,10.8524 16.9529,9.6844 17.7989,8.2434 C17.9329,8.0004 17.9999,7.7614 17.9999,7.5254 C17.9999,7.2884 17.9329,7.0494 17.7989,6.8064" id="Fill-4" fill="#8F8F93"></path>
        </g>
    </g>
</svg>