<?xml version="1.0" encoding="utf-8"?>
<!-- Generator: Adobe Illustrator 22.1.0, SVG Export Plug-In . SVG Version: 6.00 Build 0)  -->
<svg version="1.1" id="Layer_1" xmlns="http://www.w3.org/2000/svg" xmlns:xlink="http://www.w3.org/1999/xlink" x="0px" y="0px"
	 viewBox="0 0 500 500" style="enable-background:new 0 0 500 500;" xml:space="preserve">
<style type="text/css">
	.st0{fill:#FFFFFF;}
	.st1{fill:#D8D8D8;}
</style>
<g>
	<rect y="0" class="st0" width="500" height="500"/>
	<path class="st1" d="M118,330.6h-2.3v-19c0-0.6-0.4-1-1-1H112v-62.9h-4.8c0-19.8,0-33.8,0-35c0-8.7-7.9-22.8-15.8-22.8
		s-15.8,14.1-15.8,22.8c0,1.2,0,15.2,0,35H71v62.9h-2.7c-0.6,0-1,0.4-1,1v19H65c-0.6,0-1,0.5-1,1v97c0,0.6,0.5,1,1,1h3.3H71h41h2.7
		h3.3c0.6,0,1-0.5,1-1v-97C119.1,331.1,118.6,330.6,118,330.6z"/>
	<path class="st1" d="M301.4,253.3c-8.2-9.5-30-17.2-40.8-18.7c-2.5-0.4-8.3-0.7-15-0.9c3.4-16.7,15.8-79.4,15.1-83.3
		c-0.8-4.5-10.7-13.2-15.9-13.2s-56.8,0-62.1,0s-15.1,8.8-15.9,13.2c-0.7,3.9,11.7,66.6,15.1,83.3c-6.7,0.2-12.4,0.5-15,0.9
		c-10.8,1.5-32.6,9.2-40.8,18.7c-5.6,6.5-7,18.1-4.3,29.5c4.3,18.7,32.1,137.8,32.1,137.8c0,4.5,3.6,8.1,8.1,8.1c0,0,30.5,2,51.7,2
		s51.7-2,51.7-2c4.5,0,8.1-3.6,8.1-8.1c0,0,27.8-119.1,32.1-137.8C308.4,271.5,307,259.8,301.4,253.3z"/>
	<path class="st1" d="M450.1,169c-5.2-17.8-20.3-31.8-20.3-31.8h-0.1c-0.3-8.3-1-29.4-1-32.7c0-4.2,0-6.9-5.2-10
		c-6.1-3.8-17.8-5.1-36.6-5.1s-30.5,1.4-36.6,5.1c-5.1,3.1-5.2,5.8-5.2,10c0,3.4-0.7,24.4-1,32.7H344c0,0-15.1,14-20.3,31.8
		c-5.5,18.9-9.5,67.4-9.5,115.5c0.1,53.6,4.7,106.7,7.8,118.2c6,21.7,22,28.1,22,28.1s16.9,1,42.9,1s42.9-1,42.9-1s16-6.4,22-28.1
		c3.2-11.4,7.8-64.6,7.8-118.2C459.6,236.4,455.6,187.9,450.1,169z"/>
</g>
</svg>
