<?xml version="1.0" encoding="UTF-8"?>
<svg width="50px" height="50px" viewBox="0 0 50 50" version="1.1" xmlns="http://www.w3.org/2000/svg" xmlns:xlink="http://www.w3.org/1999/xlink">
    <!-- Generator: Sketch 47.1 (45422) - http://www.bohemiancoding.com/sketch -->
    <title>Page 1</title>
    <desc>Created with Sketch.</desc>
    <defs></defs>
    <g id="Symbols" stroke="none" stroke-width="1" fill="none" fill-rule="evenodd">
        <g id="offer-suscription-icon" fill="#E81C36">
            <g id="Page-1">
                <path d="M26.53902,-4e-05 L2e-05,26.53906 L23.46092,49.99996 L50.00002,23.46086 L50.00002,-4e-05 L26.53902,-4e-05 Z M3.53552,26.53906 L27.57462,2.49996 L47.50002,2.49996 L47.50002,22.42536 L23.46092,46.46446 L3.53552,26.53906 Z" id="Fill-1"></path>
                <path d="M36.81025,7.30342 C35.30195,7.30342 33.79395,7.87752 32.64545,9.02602 C30.34965,11.32182 30.34965,15.05792 32.64575,17.35412 C33.79395,18.50232 35.30225,19.07642 36.81025,19.07642 C38.31825,19.07642 39.82605,18.50252 40.97405,17.35452 C43.27035,15.05832 43.27065,11.32182 40.97445,9.02562 C39.82645,7.87762 38.31825,7.30342 36.81025,7.30342 M36.81025,9.80342 C37.71725,9.80342 38.56825,10.15502 39.20665,10.79332 C40.52815,12.11482 40.52795,14.26512 39.20625,15.58672 C38.56805,16.22492 37.71715,16.57642 36.81025,16.57642 C35.90315,16.57642 35.05205,16.22482 34.41355,15.58642 C33.09215,14.26492 33.09195,12.11492 34.41315,10.79372 C35.05185,10.15512 35.90315,9.80342 36.81025,9.80342" id="Fill-2"></path>
            </g>
        </g>
    </g>
</svg>