<svg width="41" height="46" viewBox="0 0 41 46" fill="none" xmlns="http://www.w3.org/2000/svg">
<path fill-rule="evenodd" clip-rule="evenodd" d="M19 21.102V43.898C19 45.3661 21 45.3685 21 43.898V21.102C21 19.6339 19 19.6315 19 21.102Z" fill="black"/>
<mask id="mask0" mask-type="alpha" maskUnits="userSpaceOnUse" x="0" y="0" width="41" height="47">
<path fill-rule="evenodd" clip-rule="evenodd" d="M0 0.0795898H40.7001V46H0V0.0795898Z" fill="white"/>
</mask>
<g mask="url(#mask0)">
<path fill-rule="evenodd" clip-rule="evenodd" d="M2.45395 11.8092C6.30248 9.75017 10.151 7.69144 13.9995 5.63271C15.9187 4.60609 17.815 3.49691 19.772 2.54431C20.7205 2.08279 21.4922 2.8785 22.396 3.36196C27.1247 5.89165 31.8531 8.42104 36.5814 10.9507C37.5381 11.4625 38.3238 11.5503 38.3238 12.6805V19.14V27.9863V31.5831C38.3238 32.2484 38.4498 33.0563 38.3238 33.7113C38.1498 34.6164 36.6558 35.0164 35.885 35.4285C33.4603 36.726 31.0352 38.0234 28.6098 39.3209C26.3196 40.5458 24.0291 41.7713 21.7385 42.9966C20.5684 43.6229 20.4697 43.8356 19.321 43.2211L5.44088 35.7956C4.6886 35.3932 2.65227 34.7644 2.31637 33.9242C2.15025 33.5096 2.31637 32.6758 2.31637 32.2375V28.9212V13.1319C2.31637 12.8373 2.16179 12.0209 2.45395 11.8092C3.6308 10.9553 2.49495 8.97243 1.30443 9.83608C-0.34468 11.0324 0.0385938 13.0271 0.0385938 14.8336V23.7601V32.0596C0.0385938 33.6787 -0.174606 35.2613 1.4335 36.2395C5.84511 38.9236 10.6072 41.1475 15.1597 43.5827C16.5616 44.3327 18.2122 45.6226 19.8036 45.9564C21.3662 46.2842 23.4292 44.68 24.7139 43.9928C29.4711 41.4478 34.3407 39.0452 39.0117 36.3437C40.5387 35.4608 40.6016 34.2112 40.6016 32.6493V24.6639V15.6077C40.6016 14.1997 41.0088 11.871 40.1682 10.6196C39.2959 9.32155 37.0097 8.59194 35.7095 7.89646C32.9425 6.41624 30.1754 4.93601 27.4081 3.45548C25.513 2.44165 23.6409 1.3343 21.7033 0.403639C20.0411 -0.395116 18.8667 0.441109 17.4363 1.20605C12.4665 3.86491 7.49665 6.52347 2.52684 9.18233C2.11927 9.40045 1.7117 9.61857 1.30443 9.83608C0.0103494 10.5285 1.15987 12.5013 2.45395 11.8092Z" fill="black"/>
</g>
<path fill-rule="evenodd" clip-rule="evenodd" d="M11.6828 16.8607C17.9364 13.5848 24.19 10.3089 30.444 7.03263C31.7119 6.36809 30.5856 4.47474 29.3171 5.13928C23.0634 8.41522 16.8098 11.6911 10.5562 14.9674C9.2879 15.6319 10.4145 17.5253 11.6828 16.8607Z" fill="black"/>
<path fill-rule="evenodd" clip-rule="evenodd" d="M1.56481 12.1397C6.84232 15.0075 12.1201 17.8756 17.3977 20.7431C18.0393 21.0919 18.6768 21.5083 19.3568 21.7774C20.6743 22.2978 21.7281 21.8226 22.8637 21.2055C25.8404 19.5876 28.8173 17.9701 31.7943 16.3529C34.3414 14.9684 36.8884 13.5845 39.4355 12.2003C40.7228 11.501 39.5793 9.50736 38.292 10.2073L22.938 18.5503C22.3193 18.8865 21.5858 19.4716 20.9036 19.6557C20.1816 19.8505 19.4743 19.2567 18.8571 18.9215C15.8663 17.2963 12.8751 15.6711 9.88424 14.0456C7.49216 12.7461 5.10037 11.4462 2.70829 10.1464C1.42221 9.44765 0.27632 11.4398 1.56481 12.1397Z" fill="black"/>
</svg>
