<svg width="56" height="41" viewBox="0 0 56 41" fill="none" xmlns="http://www.w3.org/2000/svg">
<path fill-rule="evenodd" clip-rule="evenodd" d="M34.1875 20.8776C33.9567 24.5037 30.6104 26.9105 26.889 26.7372C23.2941 26.3492 20.5571 23.3111 20.9235 19.885C21.2861 16.4941 24.6056 13.9423 28.2088 14.2748C31.7183 14.5988 34.3975 17.5783 34.1875 20.8776ZM28.2088 11.6103C23.0429 11.2523 18.469 15.051 18.0905 19.885C17.6991 24.8817 21.7737 28.8495 26.889 29.4016C32.0628 29.6432 36.6228 26.0377 37.0073 21.1266C37.3884 16.2642 33.3459 11.9663 28.2088 11.6103Z" fill="black"/>
<mask id="mask0" mask-type="alpha" maskUnits="userSpaceOnUse" x="0" y="0" width="56" height="41">
<path fill-rule="evenodd" clip-rule="evenodd" d="M0 0.117534H55.9668V40.9999H0V0.117534Z" fill="white"/>
</mask>
<g mask="url(#mask0)">
<path fill-rule="evenodd" clip-rule="evenodd" d="M46.7255 34.1067C42.781 33.5447 38.8365 32.9832 34.8917 32.4213C35.4261 32.2283 35.9605 32.0358 36.4949 31.8432C41.1084 30.1809 45.7223 28.5182 50.3358 26.8559C50.041 28.8411 49.7461 30.8263 49.4509 32.8115C49.3801 33.2878 49.1887 33.8764 49.221 34.3585C49.228 34.4621 49.2851 34.5002 49.3482 34.5119C48.6617 34.6404 47.3552 34.1963 46.7255 34.1067ZM17.4393 35.7953C15.4033 32.1829 11.4369 30.2259 7.27291 31.0353C6.58125 29.1519 5.8896 27.2681 5.19794 25.3843C8.90544 23.4122 10.94 19.5063 10.1656 15.388C18.4777 12.4151 26.7895 9.44223 35.1016 6.46899C36.2779 6.04838 37.4539 5.6274 38.6303 5.20678C40.6593 8.70496 44.5155 10.6107 48.5816 9.88517C49.063 11.1968 49.5448 12.5088 50.0261 13.8204C50.2416 14.4073 50.4571 14.9933 50.6722 15.5801C47.0348 17.5833 45.0588 21.4702 45.8513 25.5578C44.0389 26.2112 42.2266 26.8643 40.4142 27.5174C34.4986 29.6486 28.5833 31.7803 22.6677 33.9115C20.925 34.5397 19.182 35.1672 17.4393 35.7953ZM10.9886 38.1199C10.5506 38.2107 10.2112 38.6254 9.82443 37.9863C9.29633 36.548 8.76859 35.1101 8.24086 33.6721C10.8758 33.3478 13.44 34.4724 14.8329 36.7424C13.585 37.2274 12.2736 37.8527 10.9886 38.1199ZM4.19143 22.8441C3.65664 21.5563 3.1252 20.2461 2.8337 18.9432C2.58856 17.8483 3.1786 17.8871 4.12319 17.5496C5.24319 17.1491 6.36356 16.7483 7.48356 16.3474C7.77431 18.9744 6.57272 21.5134 4.19143 22.8441ZM9.49956 6.92256C13.3413 7.47935 17.1834 8.03541 21.0252 8.59221L5.58586 14.1144C5.90109 11.9915 6.2167 9.8687 6.5323 7.74549C6.5909 7.35232 6.69066 6.94416 6.71068 6.5466C6.71105 6.53525 6.70735 6.525 6.70178 6.51585C7.63635 6.60957 8.57055 6.78821 9.49956 6.92256ZM45.3143 2.81597C46.4673 2.68638 46.708 4.78214 47.0303 5.65924C47.2228 6.18419 47.4153 6.70877 47.6081 7.23335C45.0748 7.48997 42.6249 6.41701 41.2449 4.27147C41.4715 4.19057 41.6977 4.10966 41.9239 4.02876C42.9464 3.66306 44.2247 2.93824 45.3143 2.81597ZM48.5278 24.602C48.2219 22.0278 49.3504 19.5293 51.6193 18.1602C51.9913 19.1731 52.3633 20.1861 52.7349 21.1986C52.8788 21.5914 53.2808 22.2401 53.1332 22.6768C52.9882 23.1055 52.8625 22.9795 52.4371 23.1849C52.1415 23.328 51.8348 23.4565 51.5237 23.5795C51.4105 23.6044 51.3037 23.6451 51.2051 23.7025C50.3262 24.0309 49.4101 24.3062 48.5278 24.602ZM54.6908 18.4908C52.729 13.1469 50.8862 7.74329 48.8004 2.44587C47.1527 -1.74089 42.8455 0.786834 39.8857 1.84551C35.4235 3.44158 30.9616 5.03802 26.4995 6.63373C26.4868 6.63153 26.4772 6.62714 26.4642 6.62531C22.045 5.98541 17.6259 5.34516 13.2063 4.70526C11.2241 4.4179 9.23995 4.0683 7.24917 3.84243C4.6346 3.54555 4.09574 5.36309 3.78941 7.42444C3.40668 9.99902 3.02433 12.5729 2.6416 15.1471C2.6416 15.1482 2.6416 15.1489 2.6416 15.15C2.44727 15.2232 2.25331 15.2957 2.06194 15.3748C-0.558191 16.4547 -0.213661 18.6782 0.56218 20.7926C2.61415 26.3811 4.66576 31.9699 6.71736 37.5587C6.88796 38.0229 7.05818 38.4871 7.22878 38.9509C7.23953 38.9813 7.25622 39.0054 7.26846 39.034C7.29516 39.1152 7.3252 39.1965 7.36859 39.2792C8.46486 41.3497 10.4215 41.2377 12.2918 40.5642C14.1943 39.8785 16.0964 39.1932 17.9989 38.5076C21.8047 37.1363 25.6105 35.765 29.4163 34.3937C33.979 35.0438 38.542 35.6936 43.1047 36.3434C44.9776 36.6106 46.8608 36.966 48.7444 37.1472C51.5793 37.4196 51.8793 35.2459 52.1971 33.1095C52.5587 30.6769 52.9203 28.244 53.2819 25.8115C54.1742 25.4842 55.029 25.068 55.5386 24.2524C56.6479 22.4762 55.3246 20.2183 54.6908 18.4908Z" fill="black"/>
</g>
</svg>
