<svg width="55" height="55" viewBox="0 0 55 55" fill="none" xmlns="http://www.w3.org/2000/svg">
<path fill-rule="evenodd" clip-rule="evenodd" d="M28.369 16.6819C28.6484 16.8778 29.1922 17.05 29.4126 17.1628C30.1243 17.5291 30.8364 17.8957 31.5485 18.2617C28.5095 19.8245 25.4704 21.3873 22.4318 22.9505C21.3893 22.4145 20.3476 21.8784 19.3055 21.3424C21.1096 20.4146 22.914 19.4868 24.718 18.5587C25.8019 18.0015 27.4593 17.4877 28.369 16.6819ZM33.2381 37.8269C32.0912 38.4167 30.9442 39.0068 29.7972 39.5966V28.3337C30.1628 28.1615 30.5156 27.9586 30.8507 27.7857C32.0849 27.151 33.3188 26.5163 34.5531 25.882C36.0234 25.1254 37.4945 24.3691 38.9649 23.6131C38.9715 24.5038 39.0844 25.4418 39.0844 26.242V31.3671C39.0844 32.2651 38.7456 33.9199 39.0559 34.8116C38.6686 34.9 38.1293 35.3112 37.8095 35.4756C36.2856 36.2595 34.7621 37.0434 33.2381 37.8269ZM37.5393 21.3424C36.2922 21.9838 35.0455 22.6252 33.7988 23.2662C32.5374 23.9147 31.2764 24.5632 30.0154 25.2116C29.7004 25.3739 28.4028 26.0892 28.4222 26.0899C28.4218 26.0899 27.1627 25.3835 26.818 25.206C26.3292 24.9546 25.8404 24.7035 25.3516 24.4521C28.3907 22.8893 31.4297 21.3265 34.4687 19.7637C35.4921 20.2898 36.5155 20.8159 37.5393 21.3424ZM19.5193 35.7249C19.0661 35.4919 18.325 34.9127 17.8113 34.8466C17.7959 34.8445 17.7882 34.8466 17.7743 34.8452C17.9033 34.4545 17.76 33.7625 17.76 33.3715V30.7154V24.968V23.5516C19.2604 24.3227 20.7605 25.0942 22.2602 25.8657C23.468 26.4866 24.6759 27.1079 25.8833 27.7291C26.25 27.9176 26.6409 28.1477 27.0472 28.3376V39.5361C24.5992 38.177 22.0039 37.0027 19.5193 35.7249ZM15.0099 34.1451C15.0099 35.3052 15.0469 36.2804 16.181 37.0116C18.8879 38.7575 22.0688 40.04 24.9417 41.5172C25.8698 41.9945 26.9863 42.8138 28.0566 42.9768C29.2161 43.1529 30.4085 42.2855 31.3835 41.7842C34.4009 40.2323 37.6383 38.8541 40.5233 37.0837C42.6867 35.7564 41.8345 31.802 41.8345 29.6982V23.9716C41.8345 23.0145 42.0648 21.614 41.528 20.7421C40.9827 19.8567 39.5974 19.3977 38.713 18.9427C36.9288 18.0248 35.1445 17.1073 33.3599 16.1894C32.097 15.5402 30.8375 14.7588 29.5208 14.215C28.0581 13.6114 26.9562 14.4042 25.7033 15.0484L16.1323 19.9709C15.9027 20.089 15.7436 20.2407 15.6329 20.4086C14.8713 21.2908 15.0099 22.3416 15.0099 23.466V29.0037V34.1451Z" fill="black"/>
<path fill-rule="evenodd" clip-rule="evenodd" d="M52.2849 28.2777C52.185 38.4993 45.4831 47.853 35.4569 51.1057C25.0271 54.4893 13.6203 50.6333 7.34342 42.0547C8.89209 42.2536 10.4411 42.453 11.9898 42.6523C13.7166 42.8742 13.6999 40.2262 11.9898 40.0064C9.45175 39.6797 6.91371 39.3534 4.37604 39.0271C3.58397 38.9251 3.10358 39.7213 3.01851 40.35C2.68365 42.823 2.3488 45.2964 2.01358 47.7698C1.78551 49.4522 4.5031 49.4363 4.72863 47.7698C4.90891 46.4377 5.08956 45.1052 5.26984 43.7734C10.6272 50.9628 19.3508 55.331 28.5915 54.9804C37.549 54.641 45.8889 49.9733 50.7199 42.6163C53.5302 38.336 54.9503 33.3448 54.9999 28.2777C55.0166 26.5748 52.3015 26.5734 52.2849 28.2777Z" fill="black"/>
<mask id="mask0" mask-type="alpha" maskUnits="userSpaceOnUse" x="0" y="0" width="54" height="28">
<path fill-rule="evenodd" clip-rule="evenodd" d="M0 0.178345H53.9366V27.9564H0V0.178345Z" fill="white"/>
</mask>
<g mask="url(#mask0)">
<path fill-rule="evenodd" clip-rule="evenodd" d="M2.7182 26.6885C2.81895 16.4591 9.63998 7.13472 19.7949 3.96932C30.7177 0.564173 42.6213 4.99482 48.6117 14.336C47.1377 14.0826 45.6645 13.8295 44.1909 13.5758C42.4803 13.2818 41.7461 15.8112 43.4679 16.1073C45.9505 16.534 48.4326 16.9606 50.9148 17.3876C51.5842 17.5024 52.4486 17.2193 52.5867 16.471C53.0284 14.0735 53.4702 11.6763 53.912 9.27952C54.2168 7.62717 51.5976 6.91842 51.291 8.58162C51.0547 9.86472 50.8181 11.1478 50.5814 12.4313C45.4123 4.77362 36.4968 0.00767317 26.9435 0.183023C17.7987 0.350323 9.21052 5.02982 4.28492 12.4631C1.47149 16.7097 0.0497274 21.6618 7.63744e-05 26.6885C-0.0165948 28.3783 2.70153 28.3797 2.7182 26.6885Z" fill="black"/>
</g>
</svg>
