<?xml version="1.0" encoding="utf-8"?>
<!-- Generator: Adobe Illustrator 22.1.0, SVG Export Plug-In . SVG Version: 6.00 Build 0)  -->
<svg version="1.1" id="Layer_1" xmlns="http://www.w3.org/2000/svg" xmlns:xlink="http://www.w3.org/1999/xlink" x="0px" y="0px"
	 viewBox="0 0 11 13" style="enable-background:new 0 0 11 13;" xml:space="preserve">
<title>ícono-ordenar</title>
<desc>Created with Sketch.</desc>
<g id="mobile">
	<g id="buscador-mobile---filtros-sin-resultados" transform="translate(-195.000000, -197.000000)">
		<g id="orden-y-filtros" transform="translate(0.000000, 176.000000)">
			<g id="ordenar" transform="translate(162.000000, 5.000000)">
				<g id="texto-_x26_-ícono" transform="translate(33.000000, 15.000000)">
					<path id="ícono-ordenar" d="M4.1,10.3c-0.2-0.2-0.2-0.5,0-0.6c0.2-0.2,0.4-0.2,0.6,0L7,12.2l0.1-4.9c0-0.2,0.2-0.4,0.4-0.4h0
						c0.2,0,0.4,0.2,0.4,0.5l-0.1,4.8l2.4-2.5c0.1-0.1,0.2-0.1,0.3-0.1c0.1,0,0.2,0,0.3,0.1c0.2,0.2,0.2,0.5,0,0.6l-3.2,3.3
						l-0.3,0.3L4.1,10.3z M6.9,4.7c0.2,0.2,0.2,0.5,0,0.6c-0.2,0.2-0.4,0.2-0.6,0L4,2.8L3.9,7.7c0,0.2-0.2,0.4-0.4,0.4h0
						c-0.2,0-0.4-0.2-0.4-0.5l0.1-4.8L0.7,5.4C0.6,5.5,0.5,5.5,0.4,5.5c-0.1,0-0.2,0-0.3-0.1C0,5.2,0,5,0.1,4.8l3.2-3.3l0.3-0.3
						L6.9,4.7z"/>
				</g>
			</g>
		</g>
	</g>
</g>
</svg>
