<?xml version="1.0" encoding="UTF-8" standalone="no"?>
<svg width="31px" height="36px" viewBox="0 0 31 36" version="1.1" xmlns="http://www.w3.org/2000/svg" xmlns:xlink="http://www.w3.org/1999/xlink">
    <!-- Generator: sketchtool 3.8.3 (29802) - http://www.bohemiancoding.com/sketch -->
    <title>FDD54225-62C1-4B22-A116-B7FA7879A4C2</title>
    <desc>Created with sketchtool.</desc>
    <defs>
        <polygon id="path-1" points="0.0002 29 22.534 29 22.534 0.053 0.0002 0.053 0.0002 29"></polygon>
        <polygon id="path-3" points="0.000200000001 29 22.534 29 22.534 0.053 0.000200000001 0.053 0.000200000001 29"></polygon>
        <polygon id="path-5" points="0.0002 29 22.534 29 22.534 0.053 0.0002 0.053 0.0002 29"></polygon>
    </defs>
    <g id="ENTREGABLE" stroke="none" stroke-width="1" fill="none" fill-rule="evenodd">
        <g id="paquete-documentario" transform="translate(-18.000000, -12.000000)">
            <g id="Group-2" transform="translate(18.000000, 11.000000)">
                <g id="Group">
                    <g id="Page-1-Copy-3" transform="translate(17.500000, 20.000000) rotate(11.000000) translate(-17.500000, -20.000000) translate(6.000000, 5.000000)">
                        <g id="Group-3" transform="translate(-0.000000, 0.947300)">
                            <mask id="mask-2" fill="white">
                                <use xlink:href="#path-1"></use>
                            </mask>
                            <use id="Clip-2" fill="#FFFFFF" xlink:href="#path-1"></use>
                            <path d="M21.3232,27.7754 C21.3232,27.7594 21.2902,27.7894 21.2232,27.7894 L16.5752,27.7894 L5.9592,27.7894 L1.3102,27.7894 C1.2442,27.7894 1.2112,27.7594 1.2112,27.7754 L1.2112,27.0804 C1.2312,27.0744 1.2472,27.0604 1.2692,27.0564 L1.2652,6.6844 L4.5822,6.6844 C5.3302,6.6844 5.9382,6.1224 5.9382,5.4244 L5.9382,1.3074 L21.1772,1.3074 C21.2462,1.3074 21.2792,1.3364 21.2792,1.3204 L21.2882,23.6774 C21.3012,23.6774 21.3132,23.6774 21.3262,23.6764 L21.3232,27.7754 Z M4.6942,2.2784 L4.6962,5.3974 C4.6882,5.4064 4.6522,5.4384 4.5822,5.4384 L1.9012,5.4384 L4.6942,2.2784 Z M21.1772,0.0554 L11.2692,0.0554 L11.2542,0.0524 L5.2772,0.0524 C5.0942,0.0524 4.9222,0.1294 4.8052,0.2634 L0.1542,5.5254 C0.0542,5.6384 0.0002,5.7874 0.0002,5.9394 L0.0002,8.3524 C0.0002,8.3894 0.0132,8.4224 0.0192,8.4584 L0.0192,9.0384 C0.0122,9.0354 0.0072,9.0344 0.0002,9.0314 L0.0002,27.7754 C0.0002,28.4474 0.5902,28.9984 1.3102,28.9984 L6.0042,28.9984 L6.0042,29.0004 L6.6572,29.0004 C6.6632,29.0004 6.6672,28.9984 6.6712,28.9984 L15.8632,28.9984 C15.8672,28.9984 15.8712,29.0004 15.8772,29.0004 L16.5302,29.0004 L16.5302,28.9984 L21.2232,28.9984 C21.9442,28.9984 22.5342,28.4474 22.5342,27.7754 L22.5342,23.6584 L22.5342,9.0314 L22.5342,1.3204 C22.5342,0.6234 21.9262,0.0554 21.1772,0.0554 L21.1772,0.0554 Z" id="Fill-1" fill="#020202" mask="url(#mask-2)"></path>
                        </g>
                        <path d="M15.333,12.6348 L6.661,12.6348 C6.416,12.6348 6.216,12.3658 6.216,12.0348 C6.216,11.7038 6.416,11.4358 6.661,11.4358 L15.333,11.4358 C15.578,11.4358 15.778,11.7038 15.778,12.0348 C15.778,12.3658 15.578,12.6348 15.333,12.6348" id="Fill-4" fill="#020202"></path>
                        <path d="M15.333,17.2598 L6.661,17.2598 C6.416,17.2598 6.216,16.9908 6.216,16.6598 C6.216,16.3288 6.416,16.0608 6.661,16.0608 L15.333,16.0608 C15.578,16.0608 15.778,16.3288 15.778,16.6598 C15.778,16.9908 15.578,17.2598 15.333,17.2598" id="Fill-6" fill="#020202"></path>
                        <path d="M15.333,21.8848 L6.661,21.8848 C6.416,21.8848 6.216,21.6158 6.216,21.2848 C6.216,20.9538 6.416,20.6858 6.661,20.6858 L15.333,20.6858 C15.578,20.6858 15.778,20.9538 15.778,21.2848 C15.778,21.6158 15.578,21.8848 15.333,21.8848" id="Fill-8" fill="#020202"></path>
                    </g>
                    <g id="Page-1-Copy" transform="translate(14.500000, 17.000000) rotate(7.000000) translate(-14.500000, -17.000000) translate(3.000000, 2.000000)">
                        <g id="Group-3" transform="translate(-0.000000, 0.947300)">
                            <mask id="mask-4" fill="white">
                                <use xlink:href="#path-3"></use>
                            </mask>
                            <use id="Clip-2" fill="#FFFFFF" xlink:href="#path-3"></use>
                            <path d="M21.3232,27.7754 C21.3232,27.7594 21.2902,27.7894 21.2232,27.7894 L16.5752,27.7894 L5.9592,27.7894 L1.3102,27.7894 C1.2442,27.7894 1.2112,27.7594 1.2112,27.7754 L1.2112,27.0804 C1.2312,27.0744 1.2472,27.0604 1.2692,27.0564 L1.2652,6.6844 L4.5822,6.6844 C5.3302,6.6844 5.9382,6.1224 5.9382,5.4244 L5.9382,1.3074 L21.1772,1.3074 C21.2462,1.3074 21.2792,1.3364 21.2792,1.3204 L21.2882,23.6774 C21.3012,23.6774 21.3132,23.6774 21.3262,23.6764 L21.3232,27.7754 Z M4.6942,2.2784 L4.6962,5.3974 C4.6882,5.4064 4.6522,5.4384 4.5822,5.4384 L1.9012,5.4384 L4.6942,2.2784 Z M21.1772,0.0554 L11.2692,0.0554 L11.2542,0.0524 L5.2772,0.0524 C5.0942,0.0524 4.9222,0.1294 4.8052,0.2634 L0.1542,5.5254 C0.0542,5.6384 0.000200000001,5.7874 0.000200000001,5.9394 L0.000200000001,8.3524 C0.000200000001,8.3894 0.0132,8.4224 0.0192,8.4584 L0.0192,9.0384 C0.0122,9.0354 0.0072,9.0344 0.000200000001,9.0314 L0.000200000001,27.7754 C0.000200000001,28.4474 0.5902,28.9984 1.3102,28.9984 L6.0042,28.9984 L6.0042,29.0004 L6.6572,29.0004 C6.6632,29.0004 6.6672,28.9984 6.6712,28.9984 L15.8632,28.9984 C15.8672,28.9984 15.8712,29.0004 15.8772,29.0004 L16.5302,29.0004 L16.5302,28.9984 L21.2232,28.9984 C21.9442,28.9984 22.5342,28.4474 22.5342,27.7754 L22.5342,23.6584 L22.5342,9.0314 L22.5342,1.3204 C22.5342,0.6234 21.9262,0.0554 21.1772,0.0554 L21.1772,0.0554 Z" id="Fill-1" fill="#020202" mask="url(#mask-4)"></path>
                        </g>
                        <path d="M15.333,12.6348 L6.661,12.6348 C6.416,12.6348 6.216,12.3658 6.216,12.0348 C6.216,11.7038 6.416,11.4358 6.661,11.4358 L15.333,11.4358 C15.578,11.4358 15.778,11.7038 15.778,12.0348 C15.778,12.3658 15.578,12.6348 15.333,12.6348" id="Fill-4" fill="#020202"></path>
                        <path d="M15.333,17.2598 L6.661,17.2598 C6.416,17.2598 6.216,16.9908 6.216,16.6598 C6.216,16.3288 6.416,16.0608 6.661,16.0608 L15.333,16.0608 C15.578,16.0608 15.778,16.3288 15.778,16.6598 C15.778,16.9908 15.578,17.2598 15.333,17.2598" id="Fill-6" fill="#020202"></path>
                        <path d="M15.333,21.8848 L6.661,21.8848 C6.416,21.8848 6.216,21.6158 6.216,21.2848 C6.216,20.9538 6.416,20.6858 6.661,20.6858 L15.333,20.6858 C15.578,20.6858 15.778,20.9538 15.778,21.2848 C15.778,21.6158 15.578,21.8848 15.333,21.8848" id="Fill-8" fill="#020202"></path>
                    </g>
                    <g id="Page-1-Copy-2">
                        <g id="Group-3" transform="translate(0.000000, 0.947300)">
                            <mask id="mask-6" fill="white">
                                <use xlink:href="#path-5"></use>
                            </mask>
                            <use id="Clip-2" fill="#FFFFFF" xlink:href="#path-5"></use>
                            <path d="M21.3232,27.7754 C21.3232,27.7594 21.2902,27.7894 21.2232,27.7894 L16.5752,27.7894 L5.9592,27.7894 L1.3102,27.7894 C1.2442,27.7894 1.2112,27.7594 1.2112,27.7754 L1.2112,27.0804 C1.2312,27.0744 1.2472,27.0604 1.2692,27.0564 L1.2652,6.6844 L4.5822,6.6844 C5.3302,6.6844 5.9382,6.1224 5.9382,5.4244 L5.9382,1.3074 L21.1772,1.3074 C21.2462,1.3074 21.2792,1.3364 21.2792,1.3204 L21.2882,23.6774 C21.3012,23.6774 21.3132,23.6774 21.3262,23.6764 L21.3232,27.7754 Z M4.6942,2.2784 L4.6962,5.3974 C4.6882,5.4064 4.6522,5.4384 4.5822,5.4384 L1.9012,5.4384 L4.6942,2.2784 Z M21.1772,0.0554 L11.2692,0.0554 L11.2542,0.0524 L5.2772,0.0524 C5.0942,0.0524 4.9222,0.1294 4.8052,0.2634 L0.1542,5.5254 C0.0542,5.6384 0.0002,5.7874 0.0002,5.9394 L0.0002,8.3524 C0.0002,8.3894 0.0132,8.4224 0.0192,8.4584 L0.0192,9.0384 C0.0122,9.0354 0.0072,9.0344 0.0002,9.0314 L0.0002,27.7754 C0.0002,28.4474 0.5902,28.9984 1.3102,28.9984 L6.0042,28.9984 L6.0042,29.0004 L6.6572,29.0004 C6.6632,29.0004 6.6672,28.9984 6.6712,28.9984 L15.8632,28.9984 C15.8672,28.9984 15.8712,29.0004 15.8772,29.0004 L16.5302,29.0004 L16.5302,28.9984 L21.2232,28.9984 C21.9442,28.9984 22.5342,28.4474 22.5342,27.7754 L22.5342,23.6584 L22.5342,9.0314 L22.5342,1.3204 C22.5342,0.6234 21.9262,0.0554 21.1772,0.0554 L21.1772,0.0554 Z" id="Fill-1" fill="#020202" mask="url(#mask-6)"></path>
                        </g>
                        <path d="M15.333,12.6348 L6.661,12.6348 C6.416,12.6348 6.216,12.3658 6.216,12.0348 C6.216,11.7038 6.416,11.4358 6.661,11.4358 L15.333,11.4358 C15.578,11.4358 15.778,11.7038 15.778,12.0348 C15.778,12.3658 15.578,12.6348 15.333,12.6348" id="Fill-4" fill="#020202"></path>
                        <path d="M15.333,17.2598 L6.661,17.2598 C6.416,17.2598 6.216,16.9908 6.216,16.6598 C6.216,16.3288 6.416,16.0608 6.661,16.0608 L15.333,16.0608 C15.578,16.0608 15.778,16.3288 15.778,16.6598 C15.778,16.9908 15.578,17.2598 15.333,17.2598" id="Fill-6" fill="#020202"></path>
                        <path d="M15.333,21.8848 L6.661,21.8848 C6.416,21.8848 6.216,21.6158 6.216,21.2848 C6.216,20.9538 6.416,20.6858 6.661,20.6858 L15.333,20.6858 C15.578,20.6858 15.778,20.9538 15.778,21.2848 C15.778,21.6158 15.578,21.8848 15.333,21.8848" id="Fill-8" fill="#020202"></path>
                    </g>
                </g>
            </g>
        </g>
    </g>
</svg>