<?xml version="1.0" encoding="UTF-8"?>
<svg width="24px" height="24px" viewBox="0 0 24 24" version="1.1" xmlns="http://www.w3.org/2000/svg" xmlns:xlink="http://www.w3.org/1999/xlink">
    <!-- Generator: Sketch 53.1 (72631) - https://sketchapp.com -->
    <title>Icon/ Reject</title>
    <desc>Created with Sketch.</desc>
    <g id="Symbols" stroke="none" stroke-width="1" fill="none" fill-rule="evenodd">
        <g id="Icons/-Reject" fill="#642F80">
            <g id="Group-5" transform="translate(5.000000, 2.000000)">
                <g id="Group-15">
                    <path d="M11.375,11.5 L7.625,11.5 C7.279,11.5 7,11.724 7,12 C7,12.276 7.279,12.5 7.625,12.5 L11.375,12.5 C11.721,12.5 12,12.276 12,12 C12,11.724 11.721,11.5 11.375,11.5" id="Fill-1"></path>
                    <path d="M11.375,7.5 L7.625,7.5 C7.279,7.5 7,7.724 7,8 C7,8.276 7.279,8.5 7.625,8.5 L11.375,8.5 C11.721,8.5 12,8.276 12,8 C12,7.724 11.721,7.5 11.375,7.5" id="Fill-3"></path>
                    <path d="M11.375,15.5 L7.625,15.5 C7.279,15.5 7,15.724 7,16 C7,16.276 7.279,16.5 7.625,16.5 L11.375,16.5 C11.721,16.5 12,16.276 12,16 C12,15.724 11.721,15.5 11.375,15.5" id="Fill-5"></path>
                    <path d="M13,18 C13,18.275 12.775,18.5 12.5,18.5 L1.5,18.5 C1.225,18.5 1,18.275 1,18 L1,4 C1,3.725 1.225,3.5 1.5,3.5 L3.25,3.5 L3.25,4 C3.25,4.552 3.718,5 4.292,5 L9.708,5 C10.282,5 10.75,4.552 10.75,4 L10.75,3.5 L12.5,3.5 C12.775,3.5 13,3.725 13,4 L13,18 Z M4.292,2 L5.818,2 L5.941,1.68 C6.098,1.273 6.523,1 7,1 C7.477,1 7.902,1.273 8.059,1.68 L8.182,2 L9.75,2 L9.708,4 L4.25,4 L4.292,2 Z M12.5,2.5 L10.75,2.5 L10.75,2 C10.75,1.448 10.282,1 9.708,1 L8.833,1 C8.459,0.391 7.762,0 7,0 C6.238,0 5.541,0.391 5.167,1 L4.292,1 C3.718,1 3.25,1.448 3.25,2 L3.25,2.5 L1.5,2.5 C0.673,2.5 0,3.173 0,4 L0,18 C0,18.827 0.673,19.5 1.5,19.5 L12.5,19.5 C13.327,19.5 14,18.827 14,18 L14,4 C14,3.173 13.327,2.5 12.5,2.5 L12.5,2.5 Z" id="Fill-7"></path>
                    <path d="M5.1465,6.6465 L3.5005,8.2925 L2.8535,7.6465 C2.6585,7.4515 2.3415,7.4515 2.1465,7.6465 C1.9515,7.8415 1.9515,8.1585 2.1465,8.3535 L3.1465,9.3535 C3.2445,9.4515 3.3725,9.5005 3.5005,9.5005 C3.6275,9.5005 3.7555,9.4515 3.8535,9.3535 L5.8535,7.3535 C6.0485,7.1585 6.0485,6.8415 5.8535,6.6465 C5.6585,6.4515 5.3415,6.4515 5.1465,6.6465" id="Fill-9"></path>
                    <path d="M5.3535,14.6465 C5.1585,14.4515 4.8415,14.4515 4.6465,14.6465 L3.9995,15.2925 L3.3535,14.6465 C3.1585,14.4515 2.8415,14.4515 2.6465,14.6465 C2.4515,14.8415 2.4515,15.1585 2.6465,15.3535 L3.2925,16.0005 L2.6465,16.6465 C2.4515,16.8415 2.4515,17.1585 2.6465,17.3535 C2.7445,17.4515 2.8725,17.5005 2.9995,17.5005 C3.1275,17.5005 3.2555,17.4515 3.3535,17.3535 L3.9995,16.7075 L4.6465,17.3535 C4.7445,17.4515 4.8725,17.5005 4.9995,17.5005 C5.1275,17.5005 5.2555,17.4515 5.3535,17.3535 C5.5485,17.1585 5.5485,16.8415 5.3535,16.6465 L4.7075,16.0005 L5.3535,15.3535 C5.5485,15.1585 5.5485,14.8415 5.3535,14.6465" id="Fill-11"></path>
                    <path d="M5.3535,10.6465 C5.1585,10.4515 4.8415,10.4515 4.6465,10.6465 L3.9995,11.2925 L3.3535,10.6465 C3.1585,10.4515 2.8415,10.4515 2.6465,10.6465 C2.4515,10.8415 2.4515,11.1585 2.6465,11.3535 L3.2925,12.0005 L2.6465,12.6465 C2.4515,12.8415 2.4515,13.1585 2.6465,13.3535 C2.7445,13.4515 2.8725,13.5005 2.9995,13.5005 C3.1275,13.5005 3.2555,13.4515 3.3535,13.3535 L3.9995,12.7075 L4.6465,13.3535 C4.7445,13.4515 4.8725,13.5005 4.9995,13.5005 C5.1275,13.5005 5.2555,13.4515 5.3535,13.3535 C5.5485,13.1585 5.5485,12.8415 5.3535,12.6465 L4.7075,12.0005 L5.3535,11.3535 C5.5485,11.1585 5.5485,10.8415 5.3535,10.6465" id="Fill-13"></path>
                </g>
            </g>
        </g>
    </g>
</svg>