<svg width="82" height="82" viewBox="0 0 82 82" fill="none" xmlns="http://www.w3.org/2000/svg">
<mask id="mask0" mask-type="alpha" maskUnits="userSpaceOnUse" x="48" y="0" width="7" height="16">
<path fill-rule="evenodd" clip-rule="evenodd" d="M49.0987 0.353837C48.1701 0.84203 47.8117 1.99302 48.2982 2.92467C49.9333 6.04774 50.6283 9.58027 50.2989 13.0924C50.2989 13.0925 50.2987 13.0927 50.2987 13.0928C50.2007 14.1396 50.9672 15.0679 52.0107 15.1662C52.0703 15.1745 52.1313 15.1745 52.191 15.1745C53.1682 15.1724 53.9841 14.4262 54.0763 13.45C54.4761 9.20413 53.637 4.93305 51.661 1.15684C51.3216 0.507366 50.6614 0.13585 49.978 0.135986C49.6812 0.135986 49.3798 0.20602 49.0987 0.353837Z" fill="white"/>
</mask>
<g mask="url(#mask0)">
<path fill-rule="evenodd" clip-rule="evenodd" d="M49.0987 0.353837C48.1701 0.84203 47.8117 1.99302 48.2982 2.92467C49.9333 6.04774 50.6283 9.58027 50.2989 13.0924C50.2989 13.0925 50.2987 13.0927 50.2987 13.0928C50.2007 14.1396 50.9672 15.0679 52.0107 15.1662C52.0703 15.1745 52.1313 15.1745 52.191 15.1745C53.1682 15.1724 53.9841 14.4262 54.0763 13.45C54.4761 9.20413 53.637 4.93305 51.661 1.15684C51.3216 0.507366 50.6614 0.13585 49.978 0.135986C49.6812 0.135986 49.3798 0.20602 49.0987 0.353837Z" fill="url(#paint0_linear)"/>
</g>
<mask id="mask1" mask-type="alpha" maskUnits="userSpaceOnUse" x="49" y="22" width="33" height="11">
<path fill-rule="evenodd" clip-rule="evenodd" d="M50.2311 29.6596C49.9299 30.0062 49.7639 30.4505 49.7639 30.9102C49.7636 31.9617 50.6131 32.8143 51.661 32.8144C52.2075 32.8124 52.7268 32.5742 53.0855 32.1605C59.6919 24.5535 71.1929 23.7584 78.7766 30.3844C79.56 31.0488 80.7281 30.9682 81.4133 30.2023C81.7375 29.84 81.8978 29.3874 81.899 28.9361V28.9256C81.8975 28.4058 81.6851 27.8883 81.2691 27.5137C77.1007 23.872 71.9541 22.0859 66.8291 22.0862C60.6893 22.0866 54.5813 24.6508 50.2311 29.6596Z" fill="white"/>
</mask>
<g mask="url(#mask1)">
<path fill-rule="evenodd" clip-rule="evenodd" d="M50.2311 29.6596C49.9299 30.0062 49.7639 30.4505 49.7639 30.9102C49.7636 31.9617 50.6131 32.8143 51.661 32.8144C52.2075 32.8124 52.7268 32.5742 53.0855 32.1605C59.6919 24.5535 71.1929 23.7584 78.7766 30.3844C79.56 31.0488 80.7281 30.9682 81.4133 30.2023C81.7375 29.84 81.8978 29.3874 81.899 28.9361V28.9256C81.8975 28.4058 81.6851 27.8883 81.2691 27.5137C77.1007 23.872 71.9541 22.0859 66.8291 22.0862C60.6893 22.0866 54.5813 24.6508 50.2311 29.6596Z" fill="url(#paint1_linear)"/>
</g>
<mask id="mask2" mask-type="alpha" maskUnits="userSpaceOnUse" x="33" y="3" width="11" height="22">
<path fill-rule="evenodd" clip-rule="evenodd" d="M33.6942 4.31167C33.1466 4.97828 33.2415 5.96391 33.9057 6.5133C38.7883 10.5294 41.2848 16.7719 40.5227 23.0602C40.5227 23.0608 40.5225 23.0613 40.5224 23.0619C40.4207 23.9195 41.0313 24.6974 41.8862 24.7994C41.9482 24.8064 42.0107 24.81 42.0731 24.8103C42.8595 24.8064 43.5199 24.2161 43.6141 23.4328C44.5064 16.0865 41.5918 8.79284 35.8886 4.09953C35.5982 3.85938 35.247 3.74243 34.898 3.74243C34.4486 3.74243 34.0024 3.93648 33.6942 4.31167Z" fill="white"/>
</mask>
<g mask="url(#mask2)">
<path fill-rule="evenodd" clip-rule="evenodd" d="M33.6942 4.31167C33.1466 4.97828 33.2415 5.96391 33.9057 6.5133C38.7883 10.5294 41.2848 16.7719 40.5227 23.0602C40.5227 23.0608 40.5225 23.0613 40.5224 23.0619C40.4207 23.9195 41.0313 24.6974 41.8862 24.7994C41.9482 24.8064 42.0107 24.81 42.0731 24.8103C42.8595 24.8064 43.5199 24.2161 43.6141 23.4328C44.5064 16.0865 41.5918 8.79284 35.8886 4.09953C35.5982 3.85938 35.247 3.74243 34.898 3.74243C34.4486 3.74243 34.0024 3.93648 33.6942 4.31167Z" fill="url(#paint2_linear)"/>
</g>
<mask id="mask3" mask-type="alpha" maskUnits="userSpaceOnUse" x="56" y="37" width="25" height="9">
<path fill-rule="evenodd" clip-rule="evenodd" d="M58.1099 39.0429C58.1023 39.0463 58.0947 39.0498 58.0871 39.0535C57.139 39.5013 56.7323 40.6355 57.1786 41.5868C57.6251 42.538 58.7556 42.9461 59.7037 42.4983C65.3069 39.9008 71.9833 40.7562 77.5634 44.7963C77.886 45.031 78.274 45.1572 78.6722 45.1568C79.2838 45.158 79.8583 44.8635 80.2157 44.3658C80.8282 43.5125 80.6353 42.3227 79.785 41.7082C75.6709 38.7298 71.0329 37.2031 66.4769 37.2034C63.6046 37.2035 60.7642 37.8104 58.1099 39.0429Z" fill="white"/>
</mask>
<g mask="url(#mask3)">
<path fill-rule="evenodd" clip-rule="evenodd" d="M58.1099 39.0429C58.1023 39.0463 58.0947 39.0498 58.0871 39.0535C57.139 39.5013 56.7323 40.6355 57.1786 41.5868C57.6251 42.538 58.7556 42.9461 59.7037 42.4983C65.3069 39.9008 71.9833 40.7562 77.5634 44.7963C77.886 45.031 78.274 45.1572 78.6722 45.1568C79.2838 45.158 79.8583 44.8635 80.2157 44.3658C80.8282 43.5125 80.6353 42.3227 79.785 41.7082C75.6709 38.7298 71.0329 37.2031 66.4769 37.2034C63.6046 37.2035 60.7642 37.8104 58.1099 39.0429Z" fill="url(#paint3_linear)"/>
</g>
<mask id="mask4" mask-type="alpha" maskUnits="userSpaceOnUse" x="60" y="9" width="20" height="8">
<path fill-rule="evenodd" clip-rule="evenodd" d="M61.4184 12.8992C60.8979 13.254 60.5866 13.8445 60.5873 14.4756C60.5881 15.527 61.4385 16.3787 62.4864 16.3778C62.8662 16.3775 63.237 16.2623 63.5504 16.0473C67.3414 13.4636 72.1828 12.5116 77.1773 13.3753C78.2104 13.5528 79.1913 12.8565 79.3683 11.8202C79.5453 10.7838 78.8513 9.79953 77.8184 9.62193C76.4043 9.37851 74.9984 9.25816 73.614 9.2583C69.16 9.25844 64.934 10.5038 61.4184 12.8992Z" fill="white"/>
</mask>
<g mask="url(#mask4)">
<path fill-rule="evenodd" clip-rule="evenodd" d="M61.4184 12.8992C60.8979 13.254 60.5866 13.8445 60.5873 14.4756C60.5881 15.527 61.4385 16.3787 62.4864 16.3778C62.8662 16.3775 63.237 16.2623 63.5504 16.0473C67.3414 13.4636 72.1828 12.5116 77.1773 13.3753C78.2104 13.5528 79.1913 12.8565 79.3683 11.8202C79.5453 10.7838 78.8513 9.79953 77.8184 9.62193C76.4043 9.37851 74.9984 9.25816 73.614 9.2583C69.16 9.25844 64.934 10.5038 61.4184 12.8992Z" fill="url(#paint4_linear)"/>
</g>
<mask id="mask5" mask-type="alpha" maskUnits="userSpaceOnUse" x="0" y="16" width="65" height="66">
<path fill-rule="evenodd" clip-rule="evenodd" d="M14.3368 40.4611L8.91534 54.8037L4.49548 66.5134L0.674682 76.6171C-0.545153 79.8252 2.61408 82.9379 5.78986 81.6719L24.2582 74.3286L41.2327 67.5741L62.0134 59.3061L64.9097 58.1543L23.3921 16.5029L14.3368 40.4611Z" fill="white"/>
</mask>
<g mask="url(#mask5)">
<path fill-rule="evenodd" clip-rule="evenodd" d="M14.3368 40.4611L8.91534 54.8037L4.49548 66.5134L0.674682 76.6171C-0.545153 79.8252 2.61408 82.9379 5.78986 81.6719L24.2582 74.3286L41.2327 67.5741L62.0134 59.3061L64.9097 58.1543L23.3921 16.5029L14.3368 40.4611Z" fill="url(#paint5_linear)"/>
</g>
<mask id="mask6" mask-type="alpha" maskUnits="userSpaceOnUse" x="8" y="40" width="55" height="28">
<path fill-rule="evenodd" clip-rule="evenodd" d="M8.91528 54.7982L41.2326 67.574L62.0133 59.306L14.3368 40.4556L8.91528 54.7982Z" fill="white"/>
</mask>
<g mask="url(#mask6)">
<path fill-rule="evenodd" clip-rule="evenodd" d="M8.91528 54.7982L41.2326 67.574L62.0133 59.306L14.3368 40.4556L8.91528 54.7982Z" fill="url(#paint6_linear)"/>
</g>
<mask id="mask7" mask-type="alpha" maskUnits="userSpaceOnUse" x="0" y="66" width="25" height="16">
<path fill-rule="evenodd" clip-rule="evenodd" d="M0.674682 76.6171C-0.545153 79.8252 2.61408 82.9379 5.78986 81.6719L24.2582 74.3286L4.49548 66.5134L0.674682 76.6171Z" fill="white"/>
</mask>
<g mask="url(#mask7)">
<path fill-rule="evenodd" clip-rule="evenodd" d="M0.674682 76.6171C-0.545153 79.8252 2.61408 82.9379 5.78986 81.6719L24.2582 74.3286L4.49548 66.5134L0.674682 76.6171Z" fill="url(#paint7_linear)"/>
</g>
<mask id="mask8" mask-type="alpha" maskUnits="userSpaceOnUse" x="20" y="15" width="46" height="47">
<path fill-rule="evenodd" clip-rule="evenodd" d="M21.565 16.2717L20.2178 19.6714C19.9521 20.3459 20.5295 21.6065 21.5989 22.6794L58.5802 59.7793C59.6483 60.8509 60.8993 61.4357 61.577 61.1637L64.9654 59.812C65.845 59.4625 65.3651 57.8307 63.9706 56.4245L44.9953 37.3973L24.9413 17.2753C24.0206 16.3516 23.0021 15.8265 22.3131 15.8267C21.9543 15.8267 21.6847 15.969 21.565 16.2717Z" fill="white"/>
</mask>
<g mask="url(#mask8)">
<path fill-rule="evenodd" clip-rule="evenodd" d="M21.565 16.2717L20.2178 19.6714C19.9521 20.3459 20.5295 21.6065 21.5989 22.6794L58.5802 59.7793C59.6483 60.8509 60.8993 61.4357 61.577 61.1637L64.9654 59.812C65.845 59.4625 65.3651 57.8307 63.9706 56.4245L44.9953 37.3973L24.9413 17.2753C24.0206 16.3516 23.0021 15.8265 22.3131 15.8267C21.9543 15.8267 21.6847 15.969 21.565 16.2717Z" fill="url(#paint8_linear)"/>
</g>
<mask id="mask9" mask-type="alpha" maskUnits="userSpaceOnUse" x="0" y="24" width="39" height="57">
<path fill-rule="evenodd" clip-rule="evenodd" d="M13.934 40.0008L8.5125 54.3433L4.0845 66.0531L0.263703 76.1569C-0.307586 77.6302 0.0675804 79.3041 1.21246 80.3902L38.3131 43.1666L19.7621 24.5649L13.934 40.0008Z" fill="white"/>
</mask>
<g mask="url(#mask9)">
<path fill-rule="evenodd" clip-rule="evenodd" d="M13.934 40.0008L8.5125 54.3433L4.0845 66.0531L0.263703 76.1569C-0.307586 77.6302 0.0675804 79.3041 1.21246 80.3902L38.3131 43.1666L19.7621 24.5649L13.934 40.0008Z" fill="url(#paint9_linear)"/>
</g>
<mask id="mask10" mask-type="alpha" maskUnits="userSpaceOnUse" x="19" y="15" width="26" height="27">
<path fill-rule="evenodd" clip-rule="evenodd" d="M21.1622 15.8115L19.815 19.2112C19.5493 19.8858 20.1266 21.1463 21.1961 22.2192L40.2255 41.3159L44.5925 36.9371L24.5384 16.8153C23.6177 15.8914 22.5993 15.3663 21.9102 15.3665C21.5515 15.3665 21.2819 15.5088 21.1622 15.8115Z" fill="white"/>
</mask>
<g mask="url(#mask10)">
<path fill-rule="evenodd" clip-rule="evenodd" d="M21.1622 15.8115L19.815 19.2112C19.5493 19.8858 20.1266 21.1463 21.1961 22.2192L40.2255 41.3159L44.5925 36.9371L24.5384 16.8153C23.6177 15.8914 22.5993 15.3663 21.9102 15.3665C21.5515 15.3665 21.2819 15.5088 21.1622 15.8115Z" fill="url(#paint10_linear)"/>
</g>
<defs>
<linearGradient id="paint0_linear" x1="45.898" y1="17.2301" x2="55.1191" y2="17.7685" gradientUnits="userSpaceOnUse">
<stop stop-color="#FFCB00"/>
<stop offset="1" stop-color="#FF9B00"/>
</linearGradient>
<linearGradient id="paint1_linear" x1="50.2285" y1="22.1672" x2="50.2639" y2="32.4246" gradientUnits="userSpaceOnUse">
<stop stop-color="#FFCB00"/>
<stop offset="1" stop-color="#FF9B00"/>
</linearGradient>
<linearGradient id="paint2_linear" x1="27.9557" y1="18.1834" x2="44.8276" y2="23.8927" gradientUnits="userSpaceOnUse">
<stop stop-color="#FFCB00"/>
<stop offset="1" stop-color="#FF9B00"/>
</linearGradient>
<linearGradient id="paint3_linear" x1="93.2031" y1="42.4284" x2="89.2387" y2="28.3811" gradientUnits="userSpaceOnUse">
<stop stop-color="#FFCB00"/>
<stop offset="1" stop-color="#FF9B00"/>
</linearGradient>
<linearGradient id="paint4_linear" x1="77.5956" y1="8.24878" x2="62.0542" y2="16.638" gradientUnits="userSpaceOnUse">
<stop stop-color="#FFCB00"/>
<stop offset="1" stop-color="#FF9B00"/>
</linearGradient>
<linearGradient id="paint5_linear" x1="19.8948" y1="65.6642" x2="30.113" y2="77.878" gradientUnits="userSpaceOnUse">
<stop stop-color="#FF0090"/>
<stop offset="1" stop-color="#E40090"/>
</linearGradient>
<linearGradient id="paint6_linear" x1="21.2571" y1="56.8203" x2="24.7332" y2="70.1926" gradientUnits="userSpaceOnUse">
<stop stop-color="#A92192"/>
<stop offset="1" stop-color="#6C1190"/>
</linearGradient>
<linearGradient id="paint7_linear" x1="5.72819" y1="76.3144" x2="8.46435" y2="82.8591" gradientUnits="userSpaceOnUse">
<stop stop-color="#A92192"/>
<stop offset="1" stop-color="#6C1190"/>
</linearGradient>
<linearGradient id="paint8_linear" x1="39.8687" y1="52.7136" x2="54.9608" y2="68.9338" gradientUnits="userSpaceOnUse">
<stop stop-color="#FFCB00"/>
<stop offset="1" stop-color="#FF9B00"/>
</linearGradient>
<linearGradient id="paint9_linear" x1="-27.6828" y1="52.7403" x2="19.6642" y2="77.7195" gradientUnits="userSpaceOnUse">
<stop stop-color="white" stop-opacity="0.6"/>
<stop offset="1" stop-color="white" stop-opacity="0.01"/>
</linearGradient>
<linearGradient id="paint10_linear" x1="11.5518" y1="33.1169" x2="37.4376" y2="56.9188" gradientUnits="userSpaceOnUse">
<stop stop-color="white" stop-opacity="0.6"/>
<stop offset="1" stop-color="white" stop-opacity="0.01"/>
</linearGradient>
</defs>
</svg>
