<svg width="20" height="21" viewBox="0 0 20 21" fill="none" xmlns="http://www.w3.org/2000/svg">
<path fill-rule="evenodd" clip-rule="evenodd" d="M3.07317 1.66426C3.06586 2.21014 3.23868 2.77186 3.57393 3.21051C3.66267 3.32661 3.76346 3.42907 3.87576 3.52385C2.58384 3.52385 1.29192 3.52385 0 3.52385C0 4.77444 0 5.90789 0 7.01143C0.365854 7.01143 0.731707 7.01143 1.09756 7.01143C1.09756 11.0076 1.09756 15.0038 1.09756 19C6.62319 19 12.1453 19 16.9024 19C16.9024 15.0038 16.9024 11.0076 16.9024 7.01143C17.2683 7.01143 17.6341 7.01143 18 7.01143C18 5.76083 18 4.62739 18 3.52385C16.7081 3.52385 15.4162 3.52385 14.1242 3.52385C14.2365 3.42907 14.3373 3.32661 14.4261 3.21051C14.7613 2.77186 14.9341 2.21014 14.9268 1.66426C14.9225 1.13295 14.6593 0.656406 14.2203 0.363223C13.4173 -0.12417 12.2927 -0.181712 11.6685 0.567574C11.4539 0.805131 11.2743 1.0989 11.0922 1.41904C10.7878 1.95448 10.4723 2.57188 10.0084 3.1492C9.97506 3.03852 9.93778 2.93041 9.87806 2.82905C9.71194 2.5471 9.40245 2.32499 9.00001 2.32499C8.59757 2.32499 8.28808 2.5471 8.12196 2.82905C8.06225 2.93041 8.02497 3.03852 7.99163 3.1492C7.52773 2.57188 7.21224 1.95448 6.90779 1.41904C6.58174 0.853784 6.16012 0.228963 5.52899 0.0771336C4.93245 -0.022114 4.27663 0.0375132 3.77973 0.363223C3.34072 0.656406 3.07749 1.13295 3.07317 1.66426ZM5.4398 0.506269C5.98889 0.697383 6.28265 1.21469 6.52363 1.63701C6.83671 2.18763 7.18356 2.87457 7.73095 3.52385H5.04878C4.58666 3.45036 4.1652 3.25174 3.92378 2.94486C3.6554 2.59371 3.50619 2.11928 3.5122 1.67108C3.58034 1.2634 3.74637 0.913557 4.01982 0.724264C4.53373 0.451831 4.9223 0.441215 5.4398 0.506269ZM13.9802 0.72425C14.3075 0.942881 14.4846 1.26742 14.4878 1.66426C14.4359 2.13767 14.3204 2.6156 14.0762 2.94485C13.8078 3.296 13.4338 3.52336 12.9512 3.51703C12.0729 3.53088 11.1596 3.52382 10.269 3.52382C10.8164 2.87455 11.1633 2.18761 11.4764 1.63699C11.6539 1.32469 11.8235 1.05338 11.9977 0.860453C12.5091 0.360937 13.374 0.330941 13.9802 0.724241V0.72425ZM8.99999 2.76094C9.25609 2.76094 9.38562 2.86326 9.49389 3.04703C9.57005 3.17629 9.6147 3.34693 9.63795 3.52385H8.36203C8.38527 3.34693 8.42993 3.17629 8.50608 3.04703C8.61436 2.86326 8.74389 2.76094 8.99999 2.76094ZM0.439026 3.95979H7.02439V6.57548H0.439026V3.95979ZM7.46341 3.95979H10.5366V6.57548H7.46341V3.95979ZM10.9756 3.95979H17.561V6.57548H10.9756V3.95979ZM1.53659 7.01143H7.0244V18.564H1.53659V7.01143ZM7.46341 7.01143H10.5366V18.564H7.46341V7.01143ZM10.9756 7.01143H16.4634V18.564H10.9756V7.01143Z" transform="translate(1 1)" fill="#E81C36" stroke="#E81C36" stroke-width="0.5"/>
</svg>
