<?xml version="1.0" encoding="UTF-8"?>
<svg width="40px" height="41px" viewBox="0 0 40 41" version="1.1" xmlns="http://www.w3.org/2000/svg" xmlns:xlink="http://www.w3.org/1999/xlink">
    <!-- Generator: Sketch 54.1 (76490) - https://sketchapp.com -->
    <title>bueno</title>
    <desc>Created with Sketch.</desc>
    <defs>
        <polygon id="path-1" points="0 0.12380668 39.8764912 0.12380668 39.8764912 40.0888889 0 40.0888889"></polygon>
        <polygon id="path-3" points="0.0961531646 0.00321265823 36.8763544 0.00321265823 36.8763544 35.977238 0.0961531646 35.977238"></polygon>
    </defs>
    <g id="Page-1" stroke="none" stroke-width="1" fill="none" fill-rule="evenodd">
        <g id="bueno">
            <g id="Group-3">
                <mask id="mask-2" fill="white">
                    <use xlink:href="#path-1"></use>
                </mask>
                <g id="Clip-2"></g>
                <path d="M0,20.1063595 C0,9.07019316 8.92678363,0.12380668 19.9382456,0.12380668 C30.9499415,0.12380668 39.8767251,9.07019316 39.8767251,20.1063595 C39.8767251,31.1422914 30.9499415,40.0889123 19.9382456,40.0889123 C8.92678363,40.0889123 0,31.1422914 0,20.1063595" id="Fill-1" fill="#FFD153" mask="url(#mask-2)"></path>
            </g>
            <g id="Group-6" transform="translate(3.000000, 4.000000)">
                <mask id="mask-4" fill="white">
                    <use xlink:href="#path-3"></use>
                </mask>
                <g id="Clip-5"></g>
                <path d="M27.3590646,0.00321265823 C29.3467608,3.0226557 30.499381,6.61263038 30.499381,10.4641747 C30.499381,21.1901241 21.5629443,29.8850354 10.5390519,29.8850354 C6.71048861,29.8850354 3.13413418,28.8355671 0.0961531646,27.0173392 C3.64346962,32.405719 9.85103924,35.977238 16.9161658,35.977238 C27.9398241,35.977238 36.8764949,27.2820987 36.8764949,16.5561494 C36.8764949,9.55551646 33.0687734,3.42070633 27.3590646,0.00321265823" id="Fill-4" fill="#FFC547" mask="url(#mask-4)"></path>
            </g>
            <path d="M3.3954236,22.7105678 C3.3954236,12.4168727 11.7880995,4.07211663 22.1406692,4.07211663 C28.1920844,4.07211663 33.5726729,6.92404437 37,11.3487835 C33.7631194,5.7615111 27.6960706,2 20.7454825,2 C10.3926759,2 2,10.3447561 2,20.6382157 C2,24.915283 3.44990457,28.8548482 5.88615168,32 C4.30193966,29.2653619 3.3954236,26.0931251 3.3954236,22.7105678" id="Fill-7" fill="#FFD87A"></path>
            <path d="M11.146834,23.1876358 C10.622036,22.7019816 9.78092473,23.2393205 10.0527677,23.8859486 C11.5585434,27.4690427 15.2364328,30 19.5366681,30 C23.7651771,30 27.3919017,27.5528312 28.9435823,24.0646821 C29.2266624,23.4285275 28.3788566,22.8775275 27.8578841,23.3586279 C24.8752623,26.112262 18.5439751,30.0307376 11.146834,23.1876358" id="Fill-9" fill="#654735"></path>
            <path d="M15,16.5 C15,17.8808332 14.3283974,19 13.5001194,19 C12.6716026,19 12,17.8808332 12,16.5 C12,15.1191668 12.6716026,14 13.5001194,14 C14.3283974,14 15,15.1191668 15,16.5" id="Fill-11" fill="#2C2C2C"></path>
            <path d="M28,16.5 C28,17.8808332 27.3283974,19 26.5001194,19 C25.6716026,19 25,17.8808332 25,16.5 C25,15.1191668 25.6716026,14 26.5001194,14 C27.3283974,14 28,15.1191668 28,16.5" id="Fill-13" fill="#2C2C2C"></path>
        </g>
    </g>
</svg>