<?xml version="1.0" encoding="UTF-8"?>
<svg width="40px" height="40px" viewBox="0 0 40 40" version="1.1" xmlns="http://www.w3.org/2000/svg" xmlns:xlink="http://www.w3.org/1999/xlink">
    <!-- Generator: Sketch 54.1 (76490) - https://sketchapp.com -->
    <title>excelente</title>
    <desc>Created with Sketch.</desc>
    <g id="Page-1" stroke="none" stroke-width="1" fill="none" fill-rule="evenodd">
        <g id="excelente" transform="translate(0.000000, 1.000000)">
            <path d="M0,19 C0,7.95419776 8.95414523,-1 19.9998827,-1 C31.0456201,-1 40,7.95419776 40,19 C40,30.0458022 31.0456201,39 19.9998827,39 C8.95414523,39 0,30.0458022 0,19" id="Fill-1" fill="#FFD153"></path>
            <path d="M30.6845533,3 C32.6300656,6.02141432 33.7582244,9.61400386 33.7582244,13.4685816 C33.7582244,24.2023435 25.0112121,32.9035881 14.2215035,32.9035881 C10.4739627,32.9035881 6.97373665,31.8533553 4,30.0335751 C7.47226272,35.4258796 13.547863,39 20.4630499,39 C31.2527584,39 40,30.2987554 40,19.5649935 C40,12.5590335 36.2730879,6.4199829 30.6845533,3" id="Fill-3" fill="#FFC547"></path>
            <path d="M2.3954236,21.7105678 C2.3954236,11.4168727 10.7880995,3.07211663 21.1409061,3.07211663 C27.1923212,3.07211663 32.5726729,5.92404437 36,10.3487835 C32.7631194,4.7615111 26.6963075,1 19.7454825,1 C9.39267586,1 1,9.34475612 1,19.6384512 C1,23.915283 2.44990457,27.8548482 4.88638855,31 C3.30170278,28.2653619 2.3954236,25.0933607 2.3954236,21.7105678" id="Fill-5" fill="#FFD87A"></path>
            <path d="M11,24 C11.4816921,27.9387042 15.1024774,31 19.5001173,31 C23.8975226,31 27.5183079,27.9387042 28,24 L11,24 Z" id="Fill-7" fill="#71523F"></path>
            <path d="M14,29.3903679 C15.4599138,31.00704 17.4280807,32 19.5954791,32 C21.6696345,32 23.5615522,31.0914245 25,29.5968742 L24.9250925,29.3914161 C19.4852421,26.2825523 14.0740131,29.3481756 14,29.3903679" id="Fill-9" fill="#FF6669"></path>
            <path d="M16.9992206,13.4447786 C16.9992206,13.4352626 16.9999039,13.4259732 16.9999039,13.4164573 C16.9999039,11.6328939 15.7035358,10 13.753973,10 C12.2047994,10 11.3065429,11.1077034 10.9999879,12.1442636 C10.6934328,11.1077034 9.79540404,10 8.24623046,10 C6.29689545,10 5.00007181,11.6328939 5.00007181,13.4164573 C5.00007181,13.4259732 5.00075507,13.4352626 5.00075507,13.4447786 C4.9905062,13.8326674 5.00007181,17.7811123 10.9981658,20.9990937 L10.9981658,21 L10.9990768,20.9995469 L10.9999879,21 L11.0008989,20.9995469 C11.0013544,20.9995469 11.0015821,20.9997734 11.0018099,21 L11.0018099,20.9990937 C16.9999039,17.7811123 17.0096973,13.8326674 16.9992206,13.4447786" id="Fill-11" fill="#FF2223"></path>
            <path d="M34.9992449,13.4447786 C34.9992449,13.4352626 34.9999282,13.4259732 34.9999282,13.4164573 C34.9999282,11.6328939 33.7033323,10 31.7537695,10 C30.204596,10 29.3065672,11.1077034 29.0000121,12.1442636 C28.6934571,11.1077034 27.7952006,10 26.246027,10 C24.296692,10 23.0000961,11.6328939 23.0000961,13.4164573 C23.0000961,13.4259732 23.0007794,13.4352626 23.0007794,13.4447786 C22.9903027,13.8326674 23.0000961,17.7811123 28.9981901,20.9990937 L28.9981901,21 L28.9991011,20.9995469 L29.0000121,21 L29.0009232,20.9995469 L29.0018342,21 L29.0018342,20.9990937 C34.9999282,17.7811123 35.0094938,13.8326674 34.9992449,13.4447786" id="Fill-13" fill="#FF2223"></path>
        </g>
    </g>
</svg>