<?xml version="1.0" encoding="UTF-8"?>
<svg width="40px" height="40px" viewBox="0 0 40 40" version="1.1" xmlns="http://www.w3.org/2000/svg" xmlns:xlink="http://www.w3.org/1999/xlink">
    <!-- Generator: Sketch 54.1 (76490) - https://sketchapp.com -->
    <title>mal</title>
    <desc>Created with Sketch.</desc>
    <g id="Page-1" stroke="none" stroke-width="1" fill="none" fill-rule="evenodd">
        <g id="mal">
            <path d="M0,20 C0,8.95419776 8.95437987,0 19.9998827,0 C31.0456201,0 40,8.95419776 40,20 C40,31.0458022 31.0456201,40 19.9998827,40 C8.95437987,40 0,31.0458022 0,20" id="Fill-93" fill="#FFD153"></path>
            <path d="M30.6845533,4 C32.6300656,7.02141432 33.7582244,10.6140039 33.7582244,14.4685816 C33.7582244,25.2023435 25.0114413,33.9035881 14.2215035,33.9035881 C10.4741919,33.9035881 6.97373665,32.8533553 4,31.0335751 C7.47226272,36.4258796 13.5480922,40 20.4630499,40 C31.2529877,40 40,31.2987554 40,20.5649935 C40,13.5590335 36.2730879,7.4199829 30.6845533,4" id="Fill-95" fill="#FFC547"></path>
            <path d="M2.39518672,22.7106408 C2.39518672,12.4170265 10.7878626,4.07233588 21.1406692,4.07233588 C27.1920844,4.07233588 32.572436,6.92424123 36,11.3489457 C32.7631194,5.76171709 26.6960706,2 19.7452456,2 C9.39267586,2 1,10.3449261 1,20.6383049 C1,24.9151031 2.4496677,28.8548729 4.88591481,32 C3.30170278,29.2653833 2.39518672,26.0931715 2.39518672,22.7106408" id="Fill-97" fill="#FFD87A"></path>
            <path d="M13,16.5 C13,17.880597 12.5522649,19 12.0000796,19 C11.4477351,19 11,17.880597 11,16.5 C11,15.1191668 11.4477351,14 12.0000796,14 C12.5522649,14 13,15.1191668 13,16.5" id="Fill-99" fill="#2C2C2C"></path>
            <path d="M29,16.5 C29,17.880597 28.5522649,19 28.0000796,19 C27.4477351,19 27,17.880597 27,16.5 C27,15.1191668 27.4477351,14 28.0000796,14 C28.5522649,14 29,15.1191668 29,16.5" id="Fill-101" fill="#2C2C2C"></path>
            <path d="M30.9355463,12.4744034 C30.7134635,12.4141208 30.4971932,12.3581121 30.2862509,12.303228 C29.8224684,12.1828879 29.3843575,12.068846 28.9610198,11.9325355 C28.3284351,11.7339181 27.7593026,11.5092082 27.221654,11.2458096 C26.6559121,10.9675652 26.1417553,10.65783 25.6493952,10.2983843 C25.1119888,9.91082161 24.6128475,9.45712815 24.1536665,9.02502843 C24.1275107,9.0002856 24.0877925,8.99308769 24.0536445,9.00703364 C24.0194966,9.0209796 23.9981844,9.05292034 24.0001219,9.08733536 C24.034512,9.74189559 24.3132658,10.4184994 24.8065947,11.0447179 C25.2575414,11.6106538 25.8615484,12.0877405 26.5529839,12.423793 C27.2034902,12.7418508 27.9307689,12.9359695 28.6628912,12.9872547 C28.6912268,12.9892791 28.7195623,12.9908536 28.7478978,12.9926531 C29.567933,13.0324666 30.3082896,12.910327 30.9486242,12.6296084 C30.9822878,12.6149876 31.0026313,12.5823721 30.9997251,12.5477321 C30.9968189,12.5133171 30.9711474,12.4840756 30.9355463,12.4744034" id="Fill-103" fill="#3F3E40"></path>
            <path d="M7.06465237,12.4744034 C7.28672877,12.4141208 7.50299293,12.3581121 7.71392919,12.303228 C8.17769835,12.1828879 8.61579673,12.068846 9.03912231,11.9325355 C9.67168891,11.7339181 10.2408051,11.5092082 10.7784383,11.2458096 C11.344164,10.9675652 11.8580638,10.65783 12.3504099,10.2983843 C12.8880431,9.91082161 13.3871701,9.45712815 13.8463379,9.02502843 C13.872493,9.0002856 13.91221,8.99308769 13.946357,9.00703364 C13.980504,9.0209796 14.0018156,9.05292034 13.9998781,9.08733536 C13.965489,9.74189559 13.6867431,10.4184994 13.1934284,11.0447179 C12.7424946,11.6106538 12.1385049,12.0877405 11.4470893,12.423793 C10.7966016,12.7418508 10.0691015,12.9359695 9.33724233,12.9872547 C9.30890761,12.9892791 9.28057289,12.9908536 9.25223816,12.9926531 C8.43222648,13.0324666 7.69189107,12.910327 7.0515748,12.6296084 C7.01791219,12.6149876 6.99756931,12.5823721 7.00023326,12.5477321 C7.00338156,12.5133171 7.02905233,12.4840756 7.06465237,12.4744034" id="Fill-105" fill="#3F3E40"></path>
            <path d="M23.1207646,23.5791304 C22.0101052,22.5504829 20.5048756,21.9705529 18.9991879,22.0011528 C17.5186904,22.0072728 16.0269718,22.5849996 14.9050914,23.588188 C14.3389986,24.1005534 13.8663386,24.7252817 13.5356598,25.3994595 C13.1875769,26.1323893 13.0073524,26.8704598 13.0000243,27.5931079 C12.9981923,27.7661811 13.1000981,27.9208944 13.2528424,27.9776879 C13.4060447,28.0344814 13.5755062,27.9803807 13.674435,27.8435378 C14.0786234,27.2846605 14.4622016,26.8403494 14.8448638,26.4878381 C15.2570673,26.1142741 15.695377,25.8019099 16.1465108,25.5593136 C17.0455724,25.0787722 18.0382958,24.8224671 19.018424,24.8180607 C20.0244295,24.8097375 20.9773065,25.0515994 21.8557579,25.5394849 C22.7607736,26.034959 23.5911346,26.8092599 24.3234827,27.840845 C24.3960763,27.9431712 24.5082873,27.9999647 24.6234753,27.9999647 C24.6646956,27.9999647 24.705916,27.9928655 24.7462203,27.9779327 C24.9003386,27.9211392 25.0024735,27.7652019 24.9999544,27.5913943 C24.9791153,26.1360612 24.2758503,24.6354403 23.1207646,23.5791304" id="Fill-107" fill="#654735"></path>
            <path d="M28.5,20 C22.3386008,26.8061988 23.0225771,30.7093277 23.0225771,30.7093277 C23.0225771,33.6312533 25.474936,36 28.5,36 C31.525064,36 33.9774229,33.6312533 33.9774229,30.7093277 C33.9774229,30.7093277 34.6613992,26.8061988 28.5,20" id="Fill-109" fill="#47C5EA"></path>
            <path d="M25,34.4128192 C25.9427754,35.3870669 27.308641,36 28.8286913,36 C31.6730783,36 33.9791955,33.8551611 33.9791955,31.2092196 C33.9791955,31.2092196 34.2471832,29.7227716 32.8595206,27 C31.8350641,33.2097887 27.6411018,34.3404709 25,34.4128192" id="Fill-111" fill="#00BCEA"></path>
        </g>
    </g>
</svg>