<?xml version="1.0" encoding="UTF-8"?>
<svg width="40px" height="40px" viewBox="0 0 40 40" version="1.1" xmlns="http://www.w3.org/2000/svg" xmlns:xlink="http://www.w3.org/1999/xlink">
    <!-- Generator: Sketch 54.1 (76490) - https://sketchapp.com -->
    <title>pesimo</title>
    <desc>Created with Sketch.</desc>
    <g id="Page-1" stroke="none" stroke-width="1" fill="none" fill-rule="evenodd">
        <g id="pesimo" transform="translate(0.000000, 1.000000)">
            <path d="M0,19 C0,7.95419776 8.95414523,-1 19.9998827,-1 C31.0456201,-1 40,7.95419776 40,19 C40,30.0458022 31.0456201,39 19.9998827,39 C8.95414523,39 0,30.0458022 0,19" id="Fill-29" fill="#FF6D15"></path>
            <path d="M30.6845533,3 C32.6300656,6.02141432 33.7582244,9.61400386 33.7582244,13.4685816 C33.7582244,24.2021155 25.0112121,32.9035881 14.2215035,32.9035881 C10.4739627,32.9035881 6.97373665,31.8533553 4,30.0335751 C7.47226272,35.4258796 13.547863,39 20.4630499,39 C31.2527584,39 40,30.2987554 40,19.5649935 C40,12.5590335 36.2730879,6.4199829 30.6845533,3" id="Fill-31" fill="#FF6412"></path>
            <path d="M2.3954236,21.7106408 C2.3954236,11.416791 10.7880995,3.07233588 21.1409061,3.07233588 C27.1923212,3.07233588 32.5726729,5.92424123 36,10.3489457 C32.7631194,4.76171709 26.6963075,1 19.7454825,1 C9.39267586,1 1,9.34469061 1,19.6383049 C1,23.9151031 2.44990457,27.8548729 4.88638855,31 C3.30170278,28.2651478 2.3954236,25.0931715 2.3954236,21.7106408" id="Fill-33" fill="#FF8349"></path>
            <path d="M13,16.5 C13,17.8808332 12.5522649,19 12.0000796,19 C11.4477351,19 11,17.8808332 11,16.5 C11,15.119403 11.4477351,14 12.0000796,14 C12.5522649,14 13,15.119403 13,16.5" id="Fill-35" fill="#2C2C2C"></path>
            <path d="M29,16.5 C29,17.8808332 28.5522649,19 28.0000796,19 C27.4477351,19 27,17.8808332 27,16.5 C27,15.119403 27.4477351,14 28.0000796,14 C28.5522649,14 29,15.119403 29,16.5" id="Fill-37" fill="#2C2C2C"></path>
            <path d="M27.913525,27.8123747 C28.4107023,28.2980134 29.2075451,27.7606916 28.9500095,27.1138564 C27.5234843,23.5311042 24.0391658,21 19.9650297,21 C15.9592979,21 12.5234514,23.4473185 11.0534373,26.9351286 C10.785256,27.5714906 11.5886674,28.1224731 12.0819942,27.641388 C14.9074111,24.8878417 20.9059293,20.9694911 27.913525,27.8123747" id="Fill-39" fill="#654735"></path>
            <polygon id="Fill-41" fill="#2C2C2C" points="17 12.6163157 15.6163157 14 11 9.38368434 12.3836843 8"></polygon>
            <polygon id="Fill-43" fill="#2C2C2C" points="24.3836843 14 23 12.6163157 27.6163157 8 29 9.38368434"></polygon>
        </g>
    </g>
</svg>