<?xml version="1.0" encoding="UTF-8"?>
<svg width="39px" height="40px" viewBox="0 0 39 40" version="1.1" xmlns="http://www.w3.org/2000/svg" xmlns:xlink="http://www.w3.org/1999/xlink">
    <!-- Generator: Sketch 54.1 (76490) - https://sketchapp.com -->
    <title>regular</title>
    <desc>Created with Sketch.</desc>
    <defs>
        <polygon id="path-1" points="0.0279614035 0.127 38.9076316 0.127 38.9076316 39.7716512 0.0279614035 39.7716512"></polygon>
        <polygon id="path-3" points="0 0 37 0 37 38 0 38"></polygon>
    </defs>
    <g id="Page-1" stroke="none" stroke-width="1" fill="none" fill-rule="evenodd">
        <g id="regular">
            <g id="Group-128">
                <mask id="mask-2" fill="white">
                    <use xlink:href="#path-1"></use>
                </mask>
                <g id="Clip-127"></g>
                <path d="M0.0279614035,19.9493256 C0.0279614035,9.00165116 8.73134737,0.127 19.4677509,0.127 C30.2041544,0.127 38.9077684,9.00165116 38.9077684,19.9493256 C38.9077684,30.897 30.2041544,39.7716512 19.4677509,39.7716512 C8.73134737,39.7716512 0.0279614035,30.897 0.0279614035,19.9493256" id="Fill-126" fill="#FFD153" mask="url(#mask-2)"></path>
            </g>
            <g id="Group-131" transform="translate(2.000000, 4.000000)">
                <mask id="mask-4" fill="white">
                    <use xlink:href="#path-3"></use>
                </mask>
                <g id="Clip-130"></g>
                <path d="M27.9430929,0 C29.8345632,3.02141432 30.9313842,6.61400386 30.9313842,10.4685816 C30.9313842,21.2021155 22.4275673,29.9035881 11.93735,29.9035881 C8.29413038,29.9035881 4.89113286,28.8533553 2,27.0335751 C5.37581098,32.4258796 11.2826445,36 18.0057429,36 C28.4957374,36 37,27.2987554 37,16.5649935 C37,9.55903347 33.3766132,3.4199829 27.9430929,0" id="Fill-129" fill="#FFC547" mask="url(#mask-4)"></path>
            </g>
            <path d="M2.35555435,23.0202861 C2.35555435,13.0695646 10.5084395,5.00325802 20.5654516,5.00325802 C26.4437391,5.00325802 31.6705965,7.76009986 35,12.0373141 C31.8556017,6.63632652 25.9621273,3 19.2098973,3 C9.15288512,3 1,11.0665343 1,21.0170281 C1,25.1512663 2.40824862,28.9597105 4.77511878,32 C3.23593985,29.3563096 2.35555435,26.2900658 2.35555435,23.0202861" id="Fill-132" fill="#FFD87A"></path>
            <path d="M16,16 C16,18.2089858 13.9852877,20 11.4998849,20 C9.01471228,20 7,18.2089858 7,16 C7,13.7910142 9.01471228,12 11.4998849,12 C13.9852877,12 16,13.7910142 16,16" id="Fill-134" fill="#FFFFFF"></path>
            <path d="M14.9350465,13.6216243 C14.0858293,12.6195066 12.9214363,12 11.6354513,12 C10.7672128,12 9.95676059,12.286814 9.25875077,12.7782065 C9.11621134,12.998078 9.02543876,13.2424758 9.00473202,13.5073603 C8.91251479,14.6834707 10.1792377,15.7877334 11.83361,15.973268 C13.4879824,16.1590911 14.9037456,15.3563582 14.9957221,14.1802478 C15.0104094,13.9906736 14.9865726,13.8036963 14.9350465,13.6216243" id="Fill-136" fill="#2C2C2C"></path>
            <path d="M33,16 C33,18.2089858 30.9852362,20 28.5,20 C26.0147638,20 24,18.2089858 24,16 C24,13.7910142 26.0147638,12 28.5,12 C30.9852362,12 33,13.7910142 33,16" id="Fill-138" fill="#FFFFFF"></path>
            <path d="M31.9350489,13.6216243 C31.0858624,12.6195066 29.9215114,12 28.6355729,12 C27.7673658,12 26.9569428,12.286814 26.2589582,12.7782065 C26.116424,12.998078 26.0254139,13.2424758 26.0047079,13.5073603 C25.9127348,14.6834707 27.1794119,15.7877334 28.8337244,15.973268 C30.488037,16.1590911 31.9035083,15.3563582 31.9957223,14.1802478 C32.0104091,13.9906736 31.9865731,13.8036963 31.9350489,13.6216243" id="Fill-140" fill="#2C2C2C"></path>
            <path d="M26.8623886,26.4475391 C25.9172904,25.43388 24.6249754,24.6884168 23.1237734,24.2909034 C21.7530097,23.9338962 20.2773382,23.9052148 18.8571379,24.2063689 C17.468967,24.497711 16.1149143,25.1060573 14.9391119,25.9672524 C13.6913595,26.8910935 12.7230516,27.9943188 12.0613437,29.2467374 C11.9599174,29.4389527 11.9861443,29.6802282 12.1260987,29.8414978 C12.2159201,29.9451532 12.3391635,30 12.4644958,30 C12.5341249,30 12.603986,29.9831434 12.6696694,29.9481723 L13.102762,29.7159541 C14.1212028,29.169499 15.0837082,28.6534865 16.0601394,28.2401229 C17.1769892,27.7580751 18.2956958,27.3977972 19.384926,27.169856 C20.5210399,26.9338639 21.6727042,26.8249251 22.8109069,26.8510906 C23.8674115,26.8684503 24.9900637,27.0070768 26.4513451,27.30018 C26.6521089,27.3401829 26.8528726,27.2342632 26.9471039,27.0382741 C27.0415673,26.8425365 27.007217,26.6027705 26.8623886,26.4475391" id="Fill-142" fill="#654735"></path>
        </g>
    </g>
</svg>