<?xml version="1.0" encoding="utf-8"?>
<!-- Generator: Adobe Illustrator 22.1.0, SVG Export Plug-In . SVG Version: 6.00 Build 0)  -->
<svg version="1.1" id="Layer_1" xmlns="http://www.w3.org/2000/svg" xmlns:xlink="http://www.w3.org/1999/xlink" x="0px" y="0px"
	 viewBox="0 0 66 13" style="enable-background:new 0 0 66 13;" xml:space="preserve">
<style type="text/css">
	.st0{fill:#FFFFFF;}
	.st1{fill:#C39934;}
</style>
<rect class="st0" width="66" height="13"/>
<title>inicio</title>
<desc>Created with Sketch.</desc>
<path id="Fill-1_1_" class="st1" d="M21.5,6.5L21.5,6.5c0-2.7,1.8-4.5,4.3-4.5c1.9,0,3.6,0.9,3.8,3h-1.9c-0.2-1-0.8-1.5-1.9-1.5
	c-1.5,0-2.3,1.1-2.3,2.9v0.1c0,1.6,0.7,2.8,2.4,2.8c1.4,0,2-0.8,2.1-1.8h-2V6.1h3.8V7c0,2.3-1.5,3.8-4,3.8C23,10.8,21.5,9,21.5,6.5"
	/>
<path id="Fill-4_1_" class="st1" d="M32.9,7.4h2.2L34,3.7L32.9,7.4z M32.9,2.2h2.5l2.8,8.5h-2l-0.7-1.9h-3l-0.6,1.9h-1.8L32.9,2.2z"
	/>
<polygon id="Fill-6_1_" class="st1" points="39.3,2.2 41.6,2.2 44.8,7.8 44.8,2.2 46.5,2.2 46.5,10.7 44.6,10.7 41.1,4.6 41.1,10.7 
	39.4,10.7 39.4,2.2 "/>
<path id="Fill-8_1_" class="st1" d="M50.5,7.4h2.2l-1.1-3.7L50.5,7.4z M50.5,2.2H53l2.8,8.5h-2.1l-0.5-1.9h-3.1l-0.6,1.9h-1.8
	L50.5,2.2z"/>
<polygon id="Fill-10_1_" class="st1" points="62.5,4.5 60,4.5 60,2.1 58.3,2.1 58.3,4.5 55.8,4.5 55.8,6.3 58.3,6.3 58.3,8.7 
	60,8.7 60,6.3 62.5,6.3 "/>
<g>
	<g id="Path_2_">
		<path class="st1" d="M9.3,13H9.1l-0.2-0.2L3.5,7.5V7.2c0-0.2,0.1-0.3,0.2-0.4l6.4-6.4c0.2-0.2,0.7-0.4,1-0.4l4.7,0.1
			c0.3,0,0.6,0.3,0.6,0.6l0.1,4.7c0,0.3-0.2,0.8-0.4,1L9.5,13H9.3z M4.7,7.2l4.6,4.6l6.1-6.1c0,0,0.1-0.2,0.1-0.3l-0.1-4.3L11,1
			l-0.2,0.1L4.7,7.2z M4.4,6.9L4.4,6.9L4.4,6.9z M15.4,0.8L15.4,0.8L15.4,0.8z"/>
	</g>
	<g>
		<path class="st1" d="M13,5c-0.8,0-1.5-0.7-1.5-1.5S12.2,2,13,2s1.5,0.7,1.5,1.5S13.8,5,13,5z M13,3c-0.3,0-0.5,0.2-0.5,0.5
			S12.7,4,13,4s0.5-0.2,0.5-0.5S13.3,3,13,3z"/>
	</g>
</g>
</svg>
