<?xml version="1.0" encoding="UTF-8"?>
<svg width="75px" height="33px" viewBox="0 0 75 33" version="1.1" xmlns="http://www.w3.org/2000/svg" xmlns:xlink="http://www.w3.org/1999/xlink" style="background: #FFFFFF;">
    <!-- Generator: Sketch 48.2 (47327) - http://www.bohemiancoding.com/sketch -->
    <title>logo-club-ganamás/dorado</title>
    <desc>Created with Sketch.</desc>
    <defs></defs>
    <g id="Symbols" stroke="none" stroke-width="1" fill="none" fill-rule="evenodd">
        <g id="logo-club-ganamás/dorado" fill="#C39934">
            <g>
                <polygon id="Fill-18" points="75.0000643 17.1042 70.4577429 17.1042 70.4577429 12.65295 67.2939214 12.65295 67.2939214 17.1042 62.7517071 17.1042 62.7517071 20.2680214 67.2939214 20.2680214 67.2939214 24.7192714 70.4577429 24.7192714 70.4577429 20.2680214 75.0000643 20.2680214"></polygon>
                <path d="M53.1176036,26.6472429 L57.2338179,26.6472429 L55.1866393,19.9173857 L53.1176036,26.6472429 Z M53.0958536,17.0426357 L57.6912107,17.0426357 L62.7438536,32.6145643 L59.0632821,32.6145643 L57.9960321,29.1518143 L52.3553893,29.1518143 L51.2881393,32.6145643 L47.9777464,32.6145643 L53.0958536,17.0426357 Z" id="Fill-7"></path>
                <polygon id="Fill-5" points="32.6885786 17.0426786 36.7830429 17.0426786 42.7068643 27.3005357 42.7068643 17.0426786 45.8429357 17.0426786 45.8429357 32.6146071 42.3149357 32.6146071 35.8247571 21.5291786 35.8247571 32.6146071 32.6885786 32.6146071"></polygon>
                <path d="M20.9276571,26.6472429 L25.0438714,26.6472429 L22.9966929,19.9173857 L20.9276571,26.6472429 Z M20.9059071,17.0426357 L25.5012643,17.0426357 L30.5540143,32.6145643 L26.8733357,32.6145643 L25.8060857,29.1518143 L20.1654429,29.1518143 L19.0983,32.6145643 L15.7878,32.6145643 L20.9059071,17.0426357 Z" id="Fill-3"></path>
                <path d="M0.0845035714,24.9265714 L0.0845035714,24.7524643 C0.0845035714,20.0698929 3.41675357,16.8031071 8.01211071,16.8031071 C11.4749679,16.8031071 14.5675393,18.393 14.937825,22.2478929 L11.4313607,22.2478929 C11.1265393,20.4183214 9.92868214,19.59075 8.05561071,19.59075 C5.35496786,19.59075 3.76528929,21.6162857 3.76528929,24.7959643 L3.76528929,24.9702857 C3.76528929,27.9756429 5.05014643,30.1317857 8.09921786,30.1317857 C10.7126464,30.1317857 11.7797893,28.6291071 11.8452536,26.8431429 L8.33878929,26.8431429 L8.33878929,24.2732143 L15.3298607,24.2732143 L15.3298607,25.9284643 C15.3298607,30.0882857 12.672825,32.8541786 8.01211071,32.8541786 C2.91596786,32.8541786 0.0845035714,29.5437857 0.0845035714,24.9265714" id="Fill-1"></path>
                <path d="M41.5156179,10.8966643 C43.0373679,10.8966643 43.7385107,10.2126643 43.7385107,8.94741429 L43.7385107,8.87895 C43.7385107,7.61359286 43.0373679,6.98102143 41.3616536,6.98102143 L39.3097607,6.98102143 L39.3097607,10.8966643 L41.5156179,10.8966643 Z M41.1907607,5.44202143 C42.695475,5.44202143 43.276725,4.89495 43.276725,3.64662857 L43.276725,3.57827143 C43.276725,2.41555714 42.609975,1.9197 41.1563679,1.9197 L39.3097607,1.9197 L39.3097607,5.44202143 L41.1907607,5.44202143 Z M37.086975,0.2952 L41.4642964,0.2952 C43.9778679,0.2952 45.4654393,1.25284286 45.4654393,3.47562857 L45.4654393,3.54409286 C45.4654393,4.75812857 44.9183679,5.71566429 43.533225,6.14316429 C45.1919036,6.50230714 45.9784393,7.40852143 45.9784393,9.03280714 L45.9784393,9.10137857 C45.9784393,11.3754857 44.473725,12.5211643 41.7892607,12.5211643 L37.086975,12.5211643 L37.086975,0.2952 Z" id="Fill-16"></path>
                <path d="M23.8355786,7.87013571 L23.8355786,0.295242857 L26.1269357,0.295242857 L26.1269357,7.69913571 C26.1269357,9.93917143 26.8451143,10.8625286 28.6575429,10.8625286 C30.4187571,10.8625286 31.3079357,10.0758857 31.3079357,7.54527857 L31.3079357,0.295242857 L33.5991857,0.295242857 L33.5991857,7.73342143 C33.5991857,10.9308857 31.8722571,12.6921 28.6405071,12.6921 C25.5797571,12.6921 23.8355786,11.0163857 23.8355786,7.87013571" id="Fill-14"></path>
                <polygon id="Fill-12" points="14.0721857 0.295221429 16.3464 0.295221429 16.3464 10.70865 21.5615786 10.70865 21.5615786 12.5210786 14.0721857 12.5210786"></polygon>
                <path d="M-4.28571429e-05,6.48518571 L-4.28571429e-05,6.34836429 C-4.28571429e-05,2.67207857 2.53067143,0.107078571 5.93342143,0.107078571 C8.73777857,0.107078571 10.9092429,1.50936429 11.1828857,4.38197143 L8.87449286,4.38197143 C8.6181,2.75747143 7.71177857,1.91972143 5.95056429,1.91972143 C3.79602857,1.91972143 2.39395714,3.59532857 2.39395714,6.33122143 L2.39395714,6.46804286 C2.39395714,9.22097143 3.71052857,10.8454714 5.96770714,10.8454714 C7.66045714,10.8454714 8.85735,9.99047143 9.09670714,8.26354286 L11.3196,8.26354286 C10.9605643,11.2045071 8.87449286,12.6921857 5.96770714,12.6921857 C2.13745714,12.6921857 -4.28571429e-05,10.2469714 -4.28571429e-05,6.48518571" id="Fill-9"></path>
            </g>
        </g>
    </g>
</svg>