<?xml version="1.0" encoding="UTF-8"?>
<svg width="115px" height="40px" viewBox="0 0 115 40" version="1.1" xmlns="http://www.w3.org/2000/svg" xmlns:xlink="http://www.w3.org/1999/xlink">
    <!-- Generator: Sketch 47.1 (45422) - http://www.bohemiancoding.com/sketch -->
    <title>logotipo-club-ganamás-rojo</title>
    <desc>Created with Sketch.</desc>
    <defs></defs>
    <g id="Mobile-2.0" stroke="none" stroke-width="1" fill="none" fill-rule="evenodd">
        <g id="landing-de-suscripción-(ésika)" transform="translate(-102.000000, -470.000000)" fill="#E81C36">
            <g id="título-#1" transform="translate(0.000000, 440.000000)">
                <g id="logotipo" transform="translate(102.000000, 20.000000)">
                    <g id="logotipo-club-ganamás-rojo" transform="translate(0.000000, 10.000000)">
                        <g>
                            <path d="M12.0905729,36.18088 C12.774184,36.18088 13.3803299,36.12248 13.9082118,36.00488 C14.4368924,35.88728 14.9360243,35.73048 15.4040104,35.53448 L15.4040104,32.28808 L13.2924826,32.28808 C12.9794271,32.28808 12.7358507,32.20488 12.5601562,32.03848 C12.3836632,31.87208 12.295816,31.66168 12.295816,31.40648 L12.295816,28.67368 L19.8922049,28.67368 L19.8922049,37.70888 C19.3443576,38.10968 18.7749479,38.45608 18.1831771,38.74488 C17.5930035,39.03368 16.9621007,39.27128 16.292066,39.45768 C15.6228299,39.64328 14.9072743,39.78008 14.1509896,39.86808 C13.3931076,39.95688 12.5785243,40.00008 11.7088368,40.00008 C10.1443576,40.00008 8.69807292,39.72408 7.36838542,39.17048 C6.03869792,38.61688 4.88630208,37.85288 3.91439236,36.87848 C2.94168403,35.90408 2.17901042,34.74888 1.62637153,33.41128 C1.07453125,32.07448 0.798211806,30.62328 0.798211806,29.05608 C0.798211806,27.46008 1.06175347,25.99368 1.59043403,24.65608 C2.11831597,23.31928 2.87380208,22.16568 3.85529514,21.19688 C4.83838542,20.22728 6.02592014,19.47208 7.41949653,18.93448 C8.81307292,18.39608 10.369566,18.12728 12.0905729,18.12728 C12.9794271,18.12728 13.8155729,18.19928 14.5982118,18.34648 C15.3800521,18.49368 16.1011979,18.69528 16.7608507,18.94888 C17.4213021,19.20408 18.0250521,19.50728 18.5721007,19.86088 C19.1199479,20.21208 19.6078993,20.59528 20.0391493,21.00568 L18.6016493,23.19528 C18.4642882,23.39928 18.3005729,23.56168 18.1097049,23.67928 C17.9196354,23.79768 17.7119965,23.85608 17.4867882,23.85608 C17.1944965,23.85608 16.8910243,23.75848 16.5779687,23.56168 C16.1866493,23.32728 15.817691,23.12408 15.4702951,22.95288 C15.1236979,22.78088 14.7691146,22.64168 14.4065451,22.53368 C14.0455729,22.42648 13.6646354,22.34728 13.2637326,22.29768 C12.8628299,22.24968 12.4124132,22.22568 11.9140799,22.22568 C10.9852951,22.22568 10.1491493,22.38888 9.40723958,22.71688 C8.66293403,23.04568 8.03043403,23.50808 7.50814236,24.10488 C6.98425347,24.70248 6.58175347,25.42008 6.29744792,26.25848 C6.01473958,27.09528 5.87258681,28.02808 5.87258681,29.05608 C5.87258681,30.19208 6.02831597,31.20088 6.34217014,32.08248 C6.65442708,32.96408 7.08647569,33.70808 7.63911458,34.31448 C8.19175347,34.92248 8.84661458,35.38488 9.60449653,35.70328 C10.3623785,36.02168 11.1905382,36.18088 12.0905729,36.18088" id="Fill-1"></path>
                            <path d="M30.8314201,31.5832 L36.6684688,31.5832 L34.7038854,25.7216 C34.5761076,25.3488 34.427566,24.9104 34.2558646,24.4064 C34.0849618,23.9024 33.9156563,23.3568 33.7495451,22.768 C33.593816,23.3664 33.4324965,23.9192 33.2663854,24.4296 C33.1002743,24.9376 32.9437465,25.3792 32.7968021,25.7504 L30.8314201,31.5832 Z M44.5579479,39.7664 L40.7166285,39.7664 C40.2853785,39.7664 39.9323924,39.6656 39.6528785,39.464 C39.3741632,39.264 39.1808993,39.0064 39.0730868,38.6936 L37.8120799,34.9616 L29.687809,34.9616 L28.4268021,38.6936 C28.3293715,38.9672 28.1385035,39.2152 27.8549965,39.4344 C27.5714896,39.6552 27.2240938,39.7664 26.8136076,39.7664 L22.941941,39.7664 L31.2131563,18.3616 L36.2875313,18.3616 L44.5579479,39.7664 Z" id="Fill-4"></path>
                            <path d="M51.2007153,18.39104 C51.3476597,18.41104 51.4802292,18.44704 51.5968264,18.50224 C51.7150208,18.55504 51.8268264,18.63104 51.9346389,18.72864 C52.0424514,18.82624 52.1638403,18.95904 52.3012014,19.12544 L62.4491528,31.97904 C62.4092222,31.56864 62.3804722,31.16944 62.3613056,30.78224 C62.3405417,30.39584 62.3317569,30.03024 62.3317569,29.68784 L62.3317569,18.36144 L66.7017569,18.36144 L66.7017569,39.76624 L64.1206458,39.76624 C63.7389097,39.76624 63.4170694,39.70704 63.1535278,39.58944 C62.8899861,39.47184 62.6344306,39.25584 62.3908542,38.94224 L52.3155764,26.19184 C52.345125,26.56384 52.3690833,26.92864 52.38825,27.28544 C52.4090139,27.64304 52.4177986,27.97824 52.4177986,28.29184 L52.4177986,39.76624 L48.0477986,39.76624 L48.0477986,18.36144 L50.6576597,18.36144 C50.8732847,18.36144 51.0537708,18.37104 51.2007153,18.39104" id="Fill-6"></path>
                            <path d="M78.1405833,31.5832 L83.9776319,31.5832 L82.0130486,25.7216 C81.8852708,25.3488 81.7359306,24.9104 81.5650278,24.4064 C81.394125,23.9024 81.2248194,23.3568 81.0587083,22.768 C80.9021806,23.3664 80.7416597,23.9192 80.5755486,24.4296 C80.4094375,24.9376 80.2529097,25.3792 80.1059653,25.7504 L78.1405833,31.5832 Z M91.8671111,39.7664 L88.0249931,39.7664 C87.5945417,39.7664 87.2407569,39.6656 86.9620417,39.464 C86.6833264,39.264 86.4900625,39.0064 86.38225,38.6936 L85.1212431,34.9616 L76.9969722,34.9616 L75.7359653,38.6936 C75.6385347,38.9672 75.4476667,39.2152 75.1641597,39.4344 C74.8806528,39.6552 74.5332569,39.7664 74.1227708,39.7664 L70.2511042,39.7664 L78.5223194,18.3616 L83.5966944,18.3616 L91.8671111,39.7664 Z" id="Fill-8"></path>
                            <path d="M10.4754618,10.16208 C10.5673021,10.16208 10.6503576,10.19888 10.7246285,10.27488 L11.3802882,10.99088 C10.8747674,11.57808 10.2606354,12.03648 9.53948958,12.36368 C8.81914236,12.69168 7.94945486,12.85568 6.93202431,12.85568 C6.04157292,12.85568 5.23497569,12.70208 4.51063542,12.39408 C3.78709375,12.08608 3.16976736,11.65488 2.65785764,11.09888 C2.14594792,10.54368 1.74983681,9.87728 1.46872569,9.09968 C1.18601736,8.32208 1.04626042,7.46848 1.04626042,6.53568 C1.04626042,5.60368 1.19719792,4.74848 1.49907292,3.97248 C1.80014931,3.19488 2.22421181,2.52688 2.77046181,1.96848 C3.31511458,1.41088 3.96997569,0.97808 4.73105208,0.66928 C5.49212847,0.36128 6.33226736,0.20768 7.25146875,0.20768 C8.15948958,0.20768 8.94212847,0.34768 9.60018403,0.63008 C10.2590382,0.91248 10.8428229,1.29488 11.3547326,1.77888 L10.8116771,2.54688 C10.7709479,2.60448 10.7246285,2.65168 10.6735174,2.68928 C10.6216076,2.72688 10.5473368,2.74528 10.4499062,2.74528 C10.3740382,2.74528 10.2949757,2.71808 10.2127187,2.66368 C10.128066,2.60928 10.0290382,2.54128 9.91483681,2.46048 C9.79903819,2.38048 9.66487153,2.29408 9.50994097,2.20208 C9.35421181,2.11008 9.17053125,2.02368 8.95889931,1.94288 C8.74567014,1.86208 8.49730208,1.79488 8.21698958,1.74048 C7.93507986,1.68448 7.61084375,1.65728 7.24348264,1.65728 C6.58223264,1.65728 5.97688542,1.77168 5.42903819,1.99888 C4.87959375,2.22608 4.40681597,2.55008 4.01070486,2.97008 C3.61459375,3.39008 3.30553125,3.90288 3.08431597,4.50688 C2.86310069,5.11168 2.75209375,5.78768 2.75209375,6.53568 C2.75209375,7.30768 2.86310069,7.99488 3.08431597,8.59968 C3.30553125,9.20448 3.60660764,9.71408 3.98994097,10.13248 C4.37167708,10.54928 4.82448958,10.86688 5.34678125,11.08608 C5.86987153,11.30528 6.43289236,11.41328 7.03584375,11.41328 C7.40320486,11.41328 7.73382986,11.39248 8.02771875,11.34928 C8.32080903,11.30608 8.59153819,11.23888 8.84150347,11.14608 C9.09146875,11.05408 9.32466319,10.93728 9.53948958,10.79728 C9.75511458,10.65648 9.97233681,10.48768 10.1911562,10.29088 C10.2885868,10.20608 10.3836215,10.16208 10.4754618,10.16208" id="Fill-10"></path>
                            <polygon id="Fill-12" points="14.5427083 12.7176 16.0776389 12.7176 16.0776389 0.0008 14.5427083 0.0008"></polygon>
                            <path d="M21.1444271,3.97224 L21.1444271,9.54904 C21.1444271,10.21144 21.2969618,10.72264 21.6012326,11.08664 C21.9055035,11.44904 22.3655035,11.62984 22.980434,11.62984 C23.4284549,11.62984 23.8517188,11.52344 24.2478299,11.31064 C24.6447396,11.09704 25.0089063,10.80104 25.3427257,10.42184 L25.3427257,3.97224 L26.8768576,3.97224 L26.8768576,12.71784 L25.9624479,12.71784 C25.7444271,12.71784 25.6062674,12.61144 25.549566,12.39864 L25.4281771,11.45704 C25.0496354,11.87784 24.6239757,12.21544 24.1535938,12.47144 C23.6816146,12.72744 23.1409549,12.85544 22.5324132,12.85544 C22.056441,12.85544 21.6347743,12.77704 21.2690104,12.61864 C20.9048438,12.45944 20.5981771,12.23704 20.3522049,11.94984 C20.1046354,11.66184 19.9201563,11.31384 19.7963715,10.90504 C19.6717882,10.49624 19.6110938,10.04424 19.6110938,9.54904 L19.6110938,3.97224 L21.1444271,3.97224 Z" id="Fill-14"></path>
                            <path d="M34.3838819,5.05896 C33.8839514,5.05896 33.4447153,5.17496 33.0693681,5.40536 C32.6932222,5.63496 32.346625,5.96056 32.0311736,6.38056 L32.0311736,10.61096 C32.3058958,10.99096 32.6117639,11.25896 32.9479792,11.41336 C33.2849931,11.56936 33.6595417,11.64696 34.0732222,11.64696 C34.8894028,11.64696 35.5147153,11.35656 35.9523542,10.77576 C36.3883958,10.19336 36.6064167,9.36456 36.6064167,8.28856 C36.6064167,7.71816 36.5569028,7.23016 36.4562778,6.82056 C36.3556528,6.41176 36.2111042,6.07656 36.0210347,5.81496 C35.8309653,5.55256 35.5985694,5.36136 35.3230486,5.24136 C35.0475278,5.11976 34.7336736,5.05896 34.3838819,5.05896 L34.3838819,5.05896 Z M30.4882569,12.71736 L30.4882569,0.00056 L32.0311736,0.00056 L32.0311736,5.23256 C32.3929444,4.81176 32.806625,4.47416 33.2754097,4.21736 C33.7441944,3.96136 34.2792639,3.83416 34.8838125,3.83416 C35.3885347,3.83416 35.8453403,3.92856 36.2542292,4.11816 C36.6623194,4.30936 37.0089167,4.59256 37.2964167,4.96856 C37.5839167,5.34536 37.8051319,5.81176 37.9600625,6.36776 C38.1157917,6.92296 38.1932569,7.56376 38.1932569,8.28856 C38.1932569,8.93336 38.1070069,9.53336 37.9337083,10.08856 C37.7612083,10.64376 37.5136389,11.12456 37.1894028,11.53016 C36.8635694,11.93656 36.4674583,12.25576 35.9994722,12.48936 C35.5314861,12.72136 35.0036042,12.83896 34.4174236,12.83896 C33.8552014,12.83896 33.3760347,12.72936 32.9831181,12.51016 C32.5894028,12.29176 32.246,11.98696 31.9529097,11.59576 L31.8746458,12.39016 C31.829125,12.60936 31.6973542,12.71736 31.4785347,12.71736 L30.4882569,12.71736 Z" id="Fill-15"></path>
                            <path d="M106.738528,18.24176 L106.738528,10.64256 L101.594674,10.64256 L101.594674,18.24176 L93.9711319,18.24176 L93.9711319,23.39376 L101.594674,23.39376 L101.594674,30.13296 C101.629014,30.30416 101.822278,30.95216 102.673597,30.99456 L106.738528,30.99456 L106.738528,23.39376 L114.314153,23.39376 L114.314153,18.24176 L106.738528,18.24176 Z" id="Fill-16"></path>
                        </g>
                    </g>
                </g>
            </g>
        </g>
    </g>
</svg>