<?xml version="1.0" encoding="utf-8"?>
<!-- Generator: Adobe Illustrator 22.1.0, SVG Export Plug-In . SVG Version: 6.00 Build 0)  -->
<svg version="1.1" id="Layer_1" xmlns="http://www.w3.org/2000/svg" xmlns:xlink="http://www.w3.org/1999/xlink" x="0px" y="0px"
	 viewBox="0 0 144 50" style="enable-background:new 0 0 144 50;" xml:space="preserve">
<style type="text/css">
	.st0{fill:#FFFFFF;}
</style>
<title>logotipo-club-ganamás-blanco</title>
<desc>Created with Sketch.</desc>
<g>
	<path class="st0" d="M0,31.3V31c0-8.9,6.5-15.4,15.1-15.4c6.7,0,12.7,3,13.4,10.4h-6.7c-0.5-3.5-3-5.2-6.5-5.2
		c-5.2,0-8.2,4-8.2,9.9V31c0,5.7,2.5,9.9,8.4,9.9c5,0,7-3,7.2-6.2h-6.7v-5h13.4V33c0,7.9-5.2,13.4-14.2,13.4C5.5,46.4,0,40.2,0,31.3
		z"/>
	<path class="st0" d="M40,16.1h8.9l9.7,29.8h-7l-2-6.7H38.7l-2.2,6.7H30L40,16.1z M40,34.5h7.9l-4-12.9L40,34.5z"/>
	<path class="st0" d="M62.6,16.1h7.9l11.4,19.6V16.1h6v29.8h-6.7L68.8,24.6v21.4h-6V16.1H62.6z"/>
	<path class="st0" d="M101.8,16.1h8.9l9.7,29.8h-7l-2-6.7h-10.9l-2.2,6.7h-6.5L101.8,16.1z M102,34.5h7.9l-4-12.9L102,34.5z"/>
	<polygon class="st0" points="144,24.3 135.3,24.3 135.3,15.9 129.1,15.9 129.1,24.3 120.4,24.3 120.4,30.5 129.1,30.5 129.1,39 
		135.3,39 135.3,30.5 144,30.5 	"/>
</g>
</svg>
