<?xml version="1.0" encoding="UTF-8"?>
<svg width="21px" height="21px" viewBox="0 0 21 21" version="1.1" xmlns="http://www.w3.org/2000/svg" xmlns:xlink="http://www.w3.org/1999/xlink">
    <!-- Generator: Sketch 49 (51002) - http://www.bohemiancoding.com/sketch -->
    <title>Page 1</title>
    <desc>Created with Sketch.</desc>
    <defs></defs>
    <g id="Desktop" stroke="none" stroke-width="1" fill="none" fill-rule="evenodd">
        <g id="Contenedor-para-suscrita-no-activa-(desktop)" transform="translate(-24.000000, -193.000000)" fill="#C39934">
            <g id="sub-navegador" transform="translate(0.000000, 167.000000)">
                <g id="subnavegador-1">
                    <path d="M39.4030077,29.8018 C39.0920077,29.8018 38.8010077,29.9228 38.5830077,30.1408 C38.1290077,30.5958 38.1310077,31.3378 38.5880077,31.7948 C38.8090077,32.0168 39.1030077,32.1388 39.4150077,32.1398 L39.4190077,32.1398 C39.7290077,32.1398 40.0200077,32.0188 40.2390077,31.8008 C40.6930077,31.3458 40.6900077,30.6038 40.2330077,30.1468 C40.0110077,29.9248 39.7160077,29.8018 39.4030077,29.8018 Z M39.4190077,33.0398 L39.4130077,33.0398 C38.8610077,33.0378 38.3410077,32.8228 37.9510077,32.4308 C37.1430077,31.6228 37.1410077,30.3108 37.9460077,29.5058 C38.7250077,28.7258 40.0880077,28.7258 40.8700077,29.5108 C41.6770077,30.3188 41.6800077,31.6318 40.8760077,32.4358 C40.4870077,32.8258 39.9690077,33.0398 39.4190077,33.0398 Z M24.5850077,36.9448 L24.8960077,37.2688 L33.3070077,45.3698 L43.7440077,35.3598 C43.9240077,35.1848 44.1070077,34.7428 44.0990077,34.4998 L43.8620077,27.1848 C43.8590077,27.1698 43.8220077,27.1308 43.7750077,27.1288 L36.2010077,26.8998 C35.9060077,26.8898 35.4550077,27.0718 35.2630077,27.2568 L24.8970077,37.2678 L24.5850077,36.9448 Z M33.3430077,46.2808 C33.1040077,46.2808 32.8640077,46.1938 32.6820077,46.0178 L24.2740077,37.8958 C24.0970077,37.7258 24.0000077,37.4988 24.0000077,37.2578 C23.9990077,37.0168 24.0960077,36.7908 24.2720077,36.6208 L34.6380077,26.6098 C35.0040077,26.2578 35.7390077,25.9958 36.2280077,26.0008 L43.8020077,26.2298 C44.3160077,26.2448 44.7470077,26.6608 44.7620077,27.1568 L45.0000077,34.4708 C45.0150077,34.9668 44.7320077,35.6558 44.3690077,36.0068 L34.0030077,46.0178 C33.8210077,46.1938 33.5820077,46.2808 33.3430077,46.2808 Z" id="Page-1"></path>
                </g>
            </g>
        </g>
    </g>
</svg>