<?xml version="1.0" encoding="utf-8"?>
<!-- Generator: Adobe Illustrator 22.1.0, SVG Export Plug-In . SVG Version: 6.00 Build 0)  -->
<svg version="1.1" id="Layer_1" xmlns="http://www.w3.org/2000/svg" xmlns:xlink="http://www.w3.org/1999/xlink" x="0px" y="0px"
	 viewBox="0 0 66 19" style="enable-background:new 0 0 66 19;" xml:space="preserve">
<style type="text/css">
	.st0{fill:#E81C36;}
</style>
<path class="st0" d="M12.9,0.7c0-0.3-0.3-0.6-0.6-0.6L7.6,0c-0.3,0-0.8,0.2-1,0.4L0.2,6.8C0.1,6.9,0,7.1,0,7.2v0.3l5.4,5.4L5.6,13
	h0.2H6l6.6-6.6c0.2-0.2,0.4-0.7,0.4-1L12.9,0.7z M9.5,5C8.7,5,8,4.3,8,3.5S8.7,2,9.5,2S11,2.7,11,3.5S10.3,5,9.5,5z"/>
<g>
	<path d="M25.2,3.6c0,0.5-0.1,1-0.3,1.4c-0.2,0.4-0.4,0.8-0.7,1.2c-0.3,0.3-0.7,0.6-1.1,0.8c-0.4,0.2-0.9,0.3-1.5,0.3
		c-0.5,0-1-0.1-1.5-0.3c-0.4-0.2-0.8-0.4-1.1-0.8c-0.3-0.3-0.6-0.7-0.7-1.2C18.1,4.6,18,4.1,18,3.6s0.1-1,0.3-1.4
		C18.4,1.7,18.7,1.4,19,1c0.3-0.3,0.7-0.6,1.1-0.8C20.6,0.1,21.1,0,21.6,0c0.5,0,1,0.1,1.5,0.3c0.4,0.2,0.8,0.4,1.1,0.8
		c0.3,0.3,0.6,0.7,0.7,1.1C25.1,2.6,25.2,3.1,25.2,3.6z M23.8,3.6c0-0.4-0.1-0.7-0.2-1c-0.1-0.3-0.3-0.6-0.4-0.8
		c-0.2-0.2-0.4-0.4-0.7-0.5c-0.3-0.1-0.6-0.2-0.9-0.2c-0.3,0-0.7,0.1-0.9,0.2c-0.3,0.1-0.5,0.3-0.7,0.5c-0.2,0.2-0.3,0.5-0.4,0.8
		c-0.1,0.3-0.2,0.7-0.2,1c0,0.4,0.1,0.7,0.2,1C19.6,5,19.8,5.2,20,5.5c0.2,0.2,0.4,0.4,0.7,0.5c0.3,0.1,0.6,0.2,0.9,0.2
		c0.3,0,0.7-0.1,0.9-0.2c0.3-0.1,0.5-0.3,0.7-0.5c0.2-0.2,0.3-0.5,0.4-0.8C23.8,4.4,23.8,4,23.8,3.6z"/>
	<path d="M30.7,0.1v1h-3.1v2.1h2.7v1.1h-2.7v2.9h-1.3V0.1H30.7z"/>
	<path d="M36.2,0.1v1h-3.1v2h2.5v1h-2.5v2h3.1v1.1h-4.5V0.1H36.2z"/>
	<path d="M38.7,4.4v2.8h-1.3V0.1h2.2c0.5,0,0.9,0,1.2,0.1c0.3,0.1,0.6,0.2,0.8,0.4C41.9,0.8,42,1,42.1,1.3c0.1,0.3,0.2,0.5,0.2,0.8
		c0,0.2,0,0.5-0.1,0.7C42.1,3,42,3.2,41.9,3.4c-0.1,0.2-0.3,0.3-0.5,0.5C41.2,4,41,4.1,40.7,4.1c0.2,0.1,0.3,0.2,0.4,0.4l1.8,2.6
		h-1.2c-0.1,0-0.2,0-0.3-0.1c-0.1,0-0.1-0.1-0.2-0.2l-1.5-2.3c-0.1-0.1-0.1-0.1-0.2-0.2c-0.1,0-0.2-0.1-0.3-0.1H38.7z M38.7,3.5h0.8
		c0.2,0,0.5,0,0.6-0.1c0.2-0.1,0.3-0.1,0.5-0.3c0.1-0.1,0.2-0.2,0.3-0.4C41,2.6,41,2.4,41,2.2c0-0.4-0.1-0.6-0.4-0.8
		c-0.2-0.2-0.6-0.3-1.1-0.3h-0.8V3.5z"/>
	<path d="M48.5,0.1v1.1h-2.1v6h-1.3v-6h-2.1V0.1H48.5z"/>
	<path d="M54.9,7.2h-1c-0.1,0-0.2,0-0.3-0.1C53.5,7,53.4,7,53.4,6.9l-0.5-1.4h-2.9l-0.5,1.4c0,0.1-0.1,0.1-0.2,0.2
		c-0.1,0.1-0.2,0.1-0.3,0.1h-1l2.8-7.1h1.3L54.9,7.2z M50.3,4.5h2.3l-0.9-2.4c0-0.1-0.1-0.2-0.1-0.4c0-0.1-0.1-0.3-0.1-0.5
		c0,0.2-0.1,0.3-0.1,0.5c0,0.1-0.1,0.3-0.1,0.4L50.3,4.5z"/>
	<path d="M59.4,1.4c0,0.1-0.1,0.1-0.1,0.2c0,0-0.1,0-0.2,0c-0.1,0-0.1,0-0.2-0.1c-0.1-0.1-0.2-0.1-0.3-0.2s-0.2-0.1-0.4-0.2
		c-0.1-0.1-0.3-0.1-0.5-0.1c-0.2,0-0.3,0-0.5,0.1c-0.1,0-0.2,0.1-0.3,0.2c-0.1,0.1-0.2,0.2-0.2,0.3c0,0.1-0.1,0.2-0.1,0.4
		c0,0.2,0,0.3,0.1,0.4c0.1,0.1,0.2,0.2,0.4,0.3c0.2,0.1,0.3,0.1,0.5,0.2C57.8,2.9,58,3,58.2,3.1c0.2,0.1,0.4,0.2,0.6,0.2
		c0.2,0.1,0.4,0.2,0.5,0.4c0.2,0.1,0.3,0.3,0.4,0.5c0.1,0.2,0.1,0.5,0.1,0.8c0,0.3-0.1,0.6-0.2,0.9s-0.3,0.5-0.5,0.7
		C59,6.8,58.7,7,58.4,7.1c-0.3,0.1-0.7,0.2-1,0.2c-0.2,0-0.4,0-0.7-0.1c-0.2,0-0.4-0.1-0.6-0.2c-0.2-0.1-0.4-0.2-0.6-0.3
		c-0.2-0.1-0.3-0.2-0.5-0.4l0.4-0.6c0,0,0.1-0.1,0.1-0.1c0.1,0,0.1,0,0.2,0c0.1,0,0.2,0,0.3,0.1c0.1,0.1,0.2,0.1,0.3,0.2
		c0.1,0.1,0.3,0.2,0.5,0.2s0.4,0.1,0.6,0.1c0.4,0,0.7-0.1,0.9-0.3c0.2-0.2,0.3-0.4,0.3-0.8c0-0.2,0-0.3-0.1-0.5
		c-0.1-0.1-0.2-0.2-0.4-0.3c-0.2-0.1-0.3-0.1-0.5-0.2C57.4,4.1,57.2,4.1,57,4c-0.2-0.1-0.4-0.1-0.6-0.2c-0.2-0.1-0.4-0.2-0.5-0.4
		c-0.2-0.1-0.3-0.3-0.4-0.6c-0.1-0.2-0.1-0.5-0.1-0.8c0-0.3,0.1-0.5,0.2-0.8c0.1-0.2,0.3-0.5,0.5-0.7c0.2-0.2,0.4-0.3,0.7-0.5
		C57,0.1,57.3,0,57.7,0c0.4,0,0.8,0.1,1.2,0.2c0.4,0.1,0.7,0.3,0.9,0.5L59.4,1.4z"/>
	<path d="M24.7,15c0,0.5-0.1,1-0.3,1.4c-0.2,0.4-0.4,0.8-0.7,1.1c-0.3,0.3-0.7,0.6-1.1,0.7c-0.4,0.2-0.9,0.3-1.5,0.3h-2.7v-7.1h2.7
		c0.5,0,1,0.1,1.5,0.3c0.4,0.2,0.8,0.4,1.1,0.7c0.3,0.3,0.6,0.7,0.7,1.1C24.6,14,24.7,14.5,24.7,15z M23.3,15c0-0.4-0.1-0.7-0.2-1
		c-0.1-0.3-0.3-0.6-0.4-0.8c-0.2-0.2-0.4-0.4-0.7-0.5c-0.3-0.1-0.6-0.2-0.9-0.2h-1.4v5h1.4c0.3,0,0.7-0.1,0.9-0.2
		c0.3-0.1,0.5-0.3,0.7-0.5c0.2-0.2,0.3-0.5,0.4-0.8C23.3,15.7,23.3,15.4,23.3,15z"/>
	<path d="M27.2,18.5h-1.3v-7.1h1.3V18.5z"/>
	<path d="M32.1,17.6c0.3,0,0.6,0,0.8-0.1c0.2-0.1,0.4-0.1,0.6-0.2V16h-0.9c-0.1,0-0.2,0-0.2-0.1c0,0-0.1-0.1-0.1-0.2V15h2.4v2.9
		c-0.2,0.1-0.4,0.2-0.6,0.3c-0.2,0.1-0.4,0.2-0.6,0.2c-0.2,0.1-0.5,0.1-0.7,0.1c-0.3,0-0.5,0-0.8,0c-0.5,0-1-0.1-1.4-0.3
		c-0.4-0.2-0.8-0.4-1.1-0.8c-0.3-0.3-0.6-0.7-0.7-1.1c-0.2-0.4-0.3-0.9-0.3-1.5c0-0.5,0.1-1,0.3-1.5c0.2-0.4,0.4-0.8,0.7-1.1
		c0.3-0.3,0.7-0.6,1.2-0.7c0.5-0.2,1-0.3,1.5-0.3c0.6,0,1.1,0.1,1.5,0.3c0.4,0.2,0.8,0.4,1.1,0.7l-0.4,0.6c-0.1,0.1-0.2,0.2-0.3,0.2
		c-0.1,0-0.2,0-0.2-0.1c-0.1-0.1-0.2-0.1-0.3-0.2c-0.1-0.1-0.2-0.1-0.4-0.2c-0.1,0-0.3-0.1-0.4-0.1c-0.2,0-0.4,0-0.6,0
		c-0.3,0-0.7,0.1-0.9,0.2c-0.3,0.1-0.5,0.3-0.7,0.5c-0.2,0.2-0.4,0.5-0.5,0.8s-0.2,0.7-0.2,1c0,0.4,0.1,0.8,0.2,1.1
		c0.1,0.3,0.3,0.6,0.5,0.8c0.2,0.2,0.5,0.4,0.7,0.5C31.4,17.5,31.7,17.6,32.1,17.6z"/>
	<path d="M37.4,18.5h-1.3v-7.1h1.3V18.5z"/>
	<path d="M44,11.5v1.1h-2.1v6h-1.3v-6h-2.1v-1.1H44z"/>
	<path d="M50.3,18.5h-1c-0.1,0-0.2,0-0.3-0.1c-0.1-0.1-0.1-0.1-0.2-0.2l-0.5-1.4h-2.9l-0.5,1.4c0,0.1-0.1,0.1-0.2,0.2
		c-0.1,0.1-0.2,0.1-0.3,0.1h-1l2.8-7.1h1.3L50.3,18.5z M45.7,15.9H48l-0.9-2.4c0-0.1-0.1-0.2-0.1-0.4c0-0.1-0.1-0.3-0.1-0.5
		c0,0.2-0.1,0.3-0.1,0.5c0,0.1-0.1,0.3-0.1,0.4L45.7,15.9z"/>
	<path d="M52.4,17.5h2.8v1.1h-4.2v-7.1h1.3V17.5z"/>
	<path d="M60.6,11.5v1h-3.1v2h2.5v1h-2.5v2h3.1v1.1h-4.5v-7.1H60.6z"/>
	<path d="M65.5,12.7c0,0.1-0.1,0.1-0.1,0.2c0,0-0.1,0-0.2,0s-0.1,0-0.2-0.1c-0.1-0.1-0.2-0.1-0.3-0.2c-0.1-0.1-0.2-0.1-0.4-0.2
		c-0.1-0.1-0.3-0.1-0.5-0.1c-0.2,0-0.3,0-0.5,0.1s-0.2,0.1-0.3,0.2c-0.1,0.1-0.2,0.2-0.2,0.3c0,0.1-0.1,0.2-0.1,0.4
		c0,0.2,0,0.3,0.1,0.4c0.1,0.1,0.2,0.2,0.4,0.3c0.2,0.1,0.3,0.1,0.5,0.2c0.2,0.1,0.4,0.1,0.6,0.2c0.2,0.1,0.4,0.2,0.6,0.2
		c0.2,0.1,0.4,0.2,0.5,0.4c0.2,0.1,0.3,0.3,0.4,0.5C66,15.8,66,16,66,16.3c0,0.3-0.1,0.6-0.2,0.9s-0.3,0.5-0.5,0.7
		c-0.2,0.2-0.5,0.4-0.8,0.5c-0.3,0.1-0.7,0.2-1,0.2c-0.2,0-0.4,0-0.7-0.1c-0.2,0-0.4-0.1-0.6-0.2c-0.2-0.1-0.4-0.2-0.6-0.3
		c-0.2-0.1-0.3-0.2-0.5-0.4l0.4-0.6c0,0,0.1-0.1,0.1-0.1c0.1,0,0.1,0,0.2,0c0.1,0,0.2,0,0.3,0.1c0.1,0.1,0.2,0.1,0.3,0.2
		c0.1,0.1,0.3,0.2,0.5,0.2c0.2,0.1,0.4,0.1,0.6,0.1c0.4,0,0.7-0.1,0.9-0.3c0.2-0.2,0.3-0.4,0.3-0.8c0-0.2,0-0.3-0.1-0.5
		c-0.1-0.1-0.2-0.2-0.4-0.3c-0.2-0.1-0.3-0.1-0.5-0.2c-0.2-0.1-0.4-0.1-0.6-0.2c-0.2-0.1-0.4-0.1-0.6-0.2c-0.2-0.1-0.4-0.2-0.5-0.4
		c-0.2-0.1-0.3-0.3-0.4-0.6c-0.1-0.2-0.1-0.5-0.1-0.8c0-0.3,0.1-0.5,0.2-0.8c0.1-0.2,0.3-0.5,0.5-0.7c0.2-0.2,0.4-0.3,0.7-0.5
		c0.3-0.1,0.6-0.2,1-0.2c0.4,0,0.8,0.1,1.2,0.2c0.4,0.1,0.7,0.3,0.9,0.5L65.5,12.7z"/>
</g>
</svg>
