<?xml version="1.0" encoding="UTF-8"?>
<svg width="24px" height="24px" viewBox="0 0 24 24" version="1.1" xmlns="http://www.w3.org/2000/svg" xmlns:xlink="http://www.w3.org/1999/xlink">
    <!-- Generator: Sketch 54 (76480) - https://sketchapp.com -->
    <title>elegir opción</title>
    <desc>Created with Sketch.</desc>
    <g id="elegir-opción" stroke="none" stroke-width="1" fill="none" fill-rule="evenodd">
        <g id="Icons/Actions/a-icon-choose" fill="#FFFFFF">
            <path d="M17.8875645,7.33958567 C18.2060207,7.12527652 18.5889138,7 19,7 C20.1011424,7 21,7.89885763 21,9 L21,15.5 C21,19.0891424 18.0891424,22 14.5,22 C12.4448675,22 10.4598777,21.2540271 8.91275285,19.9002929 L3.74647741,15.3799256 C3.27163513,14.9660603 3,14.3666614 3,13.735 C3,11.9683898 4.98927842,10.9326341 6.43781308,11.9454414 L8,13.0394378 L8,3 C8,1.89885763 8.89885763,1 10,1 C11.1011424,1 12,1.89885763 12,3 L12,5.26919776 C12.2945106,5.09810489 12.6362162,5 13,5 C13.8699368,5 14.6136177,5.5610213 14.8875645,6.33958567 C15.2060207,6.12527652 15.5889138,6 16,6 C16.8699368,6 17.6136177,6.5610213 17.8875645,7.33958567 Z M17,9 L17,8 C17,7.45114237 16.5488576,7 16,7 C15.4511424,7 15,7.45114237 15,8 L15,11 C15,11.2761424 14.7761424,11.5 14.5,11.5 C14.2238576,11.5 14,11.2761424 14,11 L14,7 C14,6.45114237 13.5488576,6 13,6 C12.4511424,6 12,6.45114237 12,7 L12,11 C12,11.2761424 11.7761424,11.5 11.5,11.5 C11.2238576,11.5 11,11.2761424 11,11 L11,3 C11,2.45114237 10.5488576,2 10,2 C9.45114237,2 9,2.45114237 9,3 L9,14 C9,14.4045571 8.54456662,14.6416232 8.21318692,14.4095586 L5.86449046,12.764771 C5.07896231,12.2155342 4,12.7773165 4,13.735 C4,14.0781524 4.14697442,14.4024709 4.40424715,14.6267071 L9.5712523,19.1477117 C10.9361077,20.3419601 12.687113,21 14.5,21 C17.5368576,21 20,18.5368576 20,15.5 L20,9 C20,8.45114237 19.5488576,8 19,8 C18.4511424,8 18,8.45114237 18,9 L18,11 C18,11.2761424 17.7761424,11.5 17.5,11.5 C17.2238576,11.5 17,11.2761424 17,11 L17,9 Z" id="a-icon-choose"></path>
        </g>
    </g>
</svg>