<svg xmlns="http://www.w3.org/2000/svg" width="17" height="20" viewBox="0 0 17 20">
    <g fill="none" fill-rule="evenodd">
        <path fill="#FFF" d="M-49-305h231V67H-49z"/>
        <g transform="translate(-18 -12)">
            <rect width="168" height="44" x=".5" y=".5" fill="#FFF" stroke="#000" rx="4"/>
            <path fill="#FFF" d="M34.348 27.077l.243-4.751c.002-.896-.746-1.625-1.674-1.622-.295 0-.57.075-.81.208-.107-.795-.808-1.408-1.66-1.406-.294.001-.57.075-.811.207-.108-.794-.808-1.408-1.66-1.405a1.7 1.7 0 0 0-.795.198l.005-2.133c.003-.896-.745-1.624-1.673-1.622-.92.001-1.672.733-1.674 1.63l-.021 8.197-2.883-2.042a2.001 2.001 0 0 0-2.55.182 1.256 1.256 0 0 0-.004 1.806l5.816 5.662a4.818 4.818 0 0 0 3.397 1.363l1.945-.004a4.859 4.859 0 0 0 3.4-1.379 4.637 4.637 0 0 0 1.41-3.089"/>
            <path fill="#000" d="M29.54 30.693l-1.944.005a3.943 3.943 0 0 1-2.78-1.115l-5.815-5.662a.418.418 0 0 1 .002-.602c.376-.368.98-.41 1.41-.097l3.582 2.536a.448.448 0 0 0 .455.035.427.427 0 0 0 .24-.38l.023-9.034a.795.795 0 0 1 .805-.778.8.8 0 0 1 .562.226c.144.14.232.334.232.548l-.015 6.024c-.001.234.194.425.435.424.121 0 .23-.048.31-.126a.427.427 0 0 0 .129-.302l.006-2.46c0-.427.359-.775.805-.776a.782.782 0 0 1 .794.773l-.007 2.46a.43.43 0 0 0 .437.425.45.45 0 0 0 .31-.126.42.42 0 0 0 .128-.302l.003-1.255c0-.428.358-.776.805-.777.438 0 .795.347.794.773l-.003 1.261c.006.237.2.42.437.42.24-.001.438-.192.438-.427v-.052c0-.207.084-.402.235-.548a.806.806 0 0 1 .57-.23c.439.001.793.348.794.754l-.241 4.732a3.8 3.8 0 0 1-1.154 2.526 3.98 3.98 0 0 1-2.781 1.127m4.807-3.616l.243-4.751c.002-.896-.746-1.624-1.674-1.622-.294 0-.57.076-.81.208-.107-.795-.808-1.408-1.66-1.406-.294.001-.57.076-.811.207-.108-.793-.808-1.408-1.66-1.405a1.7 1.7 0 0 0-.795.198l.005-2.133c.002-.896-.744-1.625-1.673-1.622-.92.002-1.672.733-1.674 1.63l-.022 8.197-2.882-2.043a2.002 2.002 0 0 0-2.55.183 1.256 1.256 0 0 0-.004 1.806l5.815 5.662a4.82 4.82 0 0 0 3.398 1.363l1.945-.005a4.857 4.857 0 0 0 3.4-1.378 4.637 4.637 0 0 0 1.41-3.089"/>
            <path fill="#000" d="M30.006 17.421a3.938 3.938 0 0 0-.933-4.25c-1.605-1.562-4.216-1.562-5.82 0a3.94 3.94 0 0 0-.934 4.25c.024.061.06.115.105.158a.47.47 0 0 0 .485.102.444.444 0 0 0 .266-.574A3.064 3.064 0 0 1 23.9 13.8a3.266 3.266 0 0 1 4.527 0 3.063 3.063 0 0 1 .724 3.306.44.44 0 0 0 .265.573c.238.087.501-.029.59-.259"/>
        </g>
    </g>
</svg>
