<?xml version="1.0" encoding="UTF-8"?>
<svg width="30px" height="30px" viewBox="0 0 30 30" version="1.1" xmlns="http://www.w3.org/2000/svg" xmlns:xlink="http://www.w3.org/1999/xlink">
    <!-- Generator: Sketch 41.2 (35397) - http://www.bohemiancoding.com/sketch -->
    <title>Page 1</title>
    <desc>Created with Sketch.</desc>
    <defs></defs>
    <g id="Page-1" stroke="none" stroke-width="1" fill="none" fill-rule="evenodd">
        <g id="opt_tonos_mobile-copy-2" transform="translate(-26.000000, -1561.000000)" stroke-width="0.7">
            <g id="Page-1" transform="translate(27.000000, 1562.000000)">
                <path d="M27.8931767,14.028 C27.8931767,21.686 21.6856419,27.8935349 14.0279674,27.8935349 C6.3706186,27.8935349 0.16275814,21.686 0.16275814,14.028 C0.16275814,6.37032558 6.3706186,0.162790698 14.0279674,0.162790698 C21.6856419,0.162790698 27.8931767,6.37032558 27.8931767,14.028 L27.8931767,14.028 Z" id="Stroke-13" stroke="#E81F36"></path>
                <g id="noun_770937_cc" transform="translate(7.700000, 4.200000)" stroke="#E81C36">
                    <path d="M8.78553866,0 L8.21621234,2.12315649 L8.78553866,0 Z M12.646611,2.31249425 L11.0930434,3.86684963 L12.646611,2.31249425 Z M4.19074966,0.072216207 L4.75928816,2.19484748 L4.19074966,0.072216207 Z M1.72121798,3.99631359 L0.1666,2.44248342 L1.72121798,3.99631359 Z M4.25246169,17.1165541 L8.77766053,17.1165541 L4.25246169,17.1165541 Z M4.25246169,18.9301 L8.77766053,18.9301 L4.25246169,18.9301 Z M6.77136299,3.97819389 C6.68732959,3.97372962 6.60198316,3.97084097 6.51611153,3.97084097 C6.51611153,3.97084097 6.35014555,3.9726792 6.27451549,3.97688087 C3.81811403,4.10266837 1.86538779,6.13312551 1.86538779,8.62103949 C1.86538779,9.97161387 2.65661482,11.2525981 3.5828205,12.2279108 C3.756402,12.3917759 3.98775647,12.6467648 4.10724146,12.9356296 C4.21911093,13.2058495 4.24773481,13.5538003 4.24642179,13.9408792 L4.24642179,14.3074749 L4.24642179,15.302483 L5.24142982,15.302483 L6.50298131,15.302483 L6.51611153,15.302483 L7.77871343,15.302483 L8.77240844,15.302483 L8.77240844,14.3077375 L8.77240844,13.9411418 C8.77057021,13.5538003 8.80050711,13.2061121 8.91211397,12.9358922 C9.03186158,12.6462396 9.26269083,12.3917759 9.43653494,12.2279108 C10.362478,11.2525981 11.153705,9.97108866 11.153705,8.62103949 C11.153705,6.14179145 9.21515944,4.11789943 6.77136299,3.97819389 Z" id="Shape"></path>
                </g>
            </g>
        </g>
    </g>
</svg>