<?xml version="1.0" encoding="UTF-8" standalone="no"?>
<svg width="21px" height="21px" viewBox="0 0 21 21" version="1.1" xmlns="http://www.w3.org/2000/svg" xmlns:xlink="http://www.w3.org/1999/xlink">
    <!-- Generator: Sketch 46.2 (44496) - http://www.bohemiancoding.com/sketch -->
    <title>Shape</title>
    <desc>Created with Sketch.</desc>
    <defs></defs>
    <g id="Page-1" stroke="none" stroke-width="1" fill="none" fill-rule="evenodd">
        <path d="M0.585187842,10.9446048 L10.9511002,0.933239846 C11.2281259,0.665689298 11.8215488,0.438535084 12.2149906,0.450428077 L19.7890774,0.679378229 C20.068055,0.687811189 20.3042561,0.915775805 20.3125256,1.17095291 L20.5495839,8.48598168 C20.5615076,8.85391645 20.3293407,9.41968317 20.0562479,9.68343535 L9.69033553,19.6948003 C9.50022623,19.8784073 9.18598471,19.8779518 8.99479723,19.6933036 L0.586737612,11.5728265 C0.404887976,11.3971967 0.404473005,11.1191386 0.585187845,10.9446048 Z M16.5522242,3.82917352 C17.1847048,4.46239766 17.1880361,5.48717421 16.5575981,6.11835328 C15.9268669,6.74982601 14.9023828,6.74648791 14.2696118,6.11297308 C13.6371312,5.47974893 13.6338,4.45497239 14.2642379,3.82379331 C14.8949692,3.19232058 15.9194533,3.19565868 16.5522242,3.82917352 Z" id="Shape" stroke="#000000" stroke-width="0.9"></path>
    </g>
</svg>