<?xml version="1.0" encoding="utf-8"?>
<!-- Generator: Adobe Illustrator 22.1.0, SVG Export Plug-In . SVG Version: 6.00 Build 0)  -->
<svg version="1.1" id="Layer_1" xmlns="http://www.w3.org/2000/svg" xmlns:xlink="http://www.w3.org/1999/xlink" x="0px" y="0px"
	 viewBox="0 0 59 13" style="enable-background:new 0 0 59 13;" xml:space="preserve">
<style type="text/css">
	.st0{fill:#C39934;}
</style>
<title>inicio</title>
<desc>Created with Sketch.</desc>
<g id="Mobile-2.0">
	<g id="filtros-mobile-home-del-club" transform="translate(-51.000000, -97.000000)">
		<g id="menu" transform="translate(0.000000, 80.000000)">
			<g id="inicio" transform="translate(36.000000, 0.000000)">
				<g transform="translate(15.000000, 17.000000)">
					<g id="logo-gana_x2B_" transform="translate(18.000000, 2.000000)">
						<path id="Fill-1" class="st0" d="M0,4.5V4.4C0,1.8,1.8,0,4.3,0c1.9,0,3.6,0.9,3.8,3H6.2C6,2,5.4,1.5,4.3,1.5
							C2.8,1.5,2,2.6,2,4.4v0.1c0,1.6,0.7,2.8,2.4,2.8c1.4,0,2-0.8,2.1-1.8H4.5V4.1h3.8V5c0,2.3-1.5,3.8-4,3.8C1.5,8.8,0,7,0,4.5"/>
						<path id="Fill-4" class="st0" d="M11.4,5.4h2.2l-1.1-3.7L11.4,5.4z M11.4,0.2h2.5l2.8,8.5h-2L14,6.8H11l-0.6,1.9H8.6L11.4,0.2
							z"/>
						<polygon id="Fill-6" class="st0" points="17.8,0.2 20.1,0.2 23.3,5.8 23.3,0.2 25,0.2 25,8.7 23.1,8.7 19.6,2.6 19.6,8.7 
							17.9,8.7 17.9,0.2 						"/>
						<path id="Fill-8" class="st0" d="M29,5.4h2.2l-1.1-3.7L29,5.4z M29,0.2h2.5l2.8,8.5h-2.1l-0.5-1.9h-3.1L28,8.7h-1.8L29,0.2z"
							/>
						<polygon id="Fill-10" class="st0" points="41,2.5 38.5,2.5 38.5,0.1 36.8,0.1 36.8,2.5 34.3,2.5 34.3,4.3 36.8,4.3 36.8,6.7 
							38.5,6.7 38.5,4.3 41,4.3 						"/>
					</g>
					<g id="tag-2">
						<path id="Fill-3" class="st0" d="M0.9,6.9L0.9,6.9L0.9,6.9z M1.2,7.2l4.6,4.6l6.1-6.1c0,0,0.1-0.2,0.1-0.3l-0.1-4.3L7.5,1
							C7.5,1,7.3,1.1,7.3,1.1L1.2,7.2z M5.8,13H5.6l-0.2-0.2L0,7.5l0-0.3c0-0.2,0.1-0.3,0.2-0.4l6.4-6.4C6.8,0.2,7.3,0,7.6,0
							l4.7,0.1c0.3,0,0.6,0.3,0.6,0.6L13,5.4c0,0.3-0.2,0.8-0.4,1L6,13L5.8,13z"/>
						<path id="Fill-1_1_" class="st0" d="M9.5,3C9.4,3,9.2,3.1,9.1,3.1C9,3.3,9,3.7,9.1,3.9C9.3,4,9.7,4,9.9,3.9
							C9.9,3.8,10,3.6,10,3.5c0-0.1-0.1-0.3-0.1-0.4C9.8,3.1,9.6,3,9.5,3 M9.5,5C9.1,5,8.7,4.8,8.4,4.6C7.9,4,7.9,3,8.4,2.4
							c0.6-0.6,1.6-0.6,2.1,0C10.8,2.7,11,3.1,11,3.5c0,0.4-0.2,0.8-0.4,1.1C10.3,4.8,9.9,5,9.5,5"/>
					</g>
				</g>
			</g>
		</g>
	</g>
</g>
</svg>
