<?xml version="1.0" encoding="utf-8"?>
<!-- Generator: Adobe Illustrator 22.1.0, SVG Export Plug-In . SVG Version: 6.00 Build 0)  -->
<svg version="1.1" id="Layer_1" xmlns="http://www.w3.org/2000/svg" xmlns:xlink="http://www.w3.org/1999/xlink" x="0px" y="0px"
	 viewBox="0 0 63 17.2" style="enable-background:new 0 0 63 17.2;" xml:space="preserve">
<title>ofertas digitales ésika</title>
<desc>Created with Sketch.</desc>
<g id="logo-ofertas-digitales" transform="translate(18.000000, 0.000000)">
	<path id="Fill-1" d="M5.7,3.5c0-0.4,0-0.7-0.1-1C5.4,2.2,5.3,2,5.1,1.8C4.9,1.6,4.7,1.5,4.5,1.3C4.2,1.2,3.9,1.2,3.6,1.2
		C3.3,1.2,3,1.2,2.7,1.3C2.5,1.5,2.3,1.6,2.1,1.8C1.9,2,1.8,2.2,1.7,2.5c-0.1,0.3-0.1,0.6-0.1,1s0,0.7,0.1,1C1.8,4.7,1.9,5,2.1,5.2
		c0.2,0.2,0.4,0.3,0.7,0.5C3,5.7,3.3,5.8,3.6,5.8c0.3,0,0.6-0.1,0.9-0.2c0.3-0.1,0.5-0.3,0.6-0.5C5.3,5,5.4,4.7,5.5,4.4
		C5.6,4.2,5.7,3.8,5.7,3.5 M6.9,3.5c0,0.5-0.1,0.9-0.2,1.3C6.5,5.2,6.3,5.6,6,5.9c-0.3,0.3-0.6,0.5-1,0.7C4.5,6.7,4.1,6.8,3.6,6.8
		S2.7,6.7,2.3,6.6c-0.4-0.2-0.8-0.4-1-0.7C0.9,5.6,0.7,5.2,0.5,4.8C0.4,4.4,0.3,4,0.3,3.5c0-0.5,0.1-0.9,0.2-1.3
		c0.2-0.4,0.4-0.8,0.7-1.1c0.3-0.3,0.6-0.5,1-0.7c0.4-0.2,0.9-0.2,1.3-0.2s0.9,0.1,1.3,0.3c0.4,0.2,0.8,0.4,1,0.7
		c0.3,0.3,0.5,0.6,0.7,1.1C6.8,2.6,6.9,3,6.9,3.5"/>
	<polygon id="Fill-3" points="12,0.2 12,1.2 9.1,1.2 9.1,3.1 11.5,3.1 11.5,4.1 9.1,4.1 9.1,6.7 7.9,6.7 7.9,0.2 	"/>
	<polygon id="Fill-5" points="17,0.2 17,1.2 14.1,1.2 14.1,3 16.4,3 16.4,3.9 14.1,3.9 14.1,5.8 17,5.8 17,6.7 12.9,6.7 12.9,0.2 	
		"/>
	<path id="Fill-7" d="M19.3,3.3h0.8c0.2,0,0.4,0,0.6-0.1C20.8,3.2,21,3.1,21.1,3c0.1-0.1,0.2-0.2,0.2-0.4c0.1-0.1,0.1-0.3,0.1-0.5
		c0-0.3-0.1-0.6-0.3-0.8c-0.2-0.2-0.6-0.3-1-0.3h-0.8V3.3z M19.3,4.2v2.5h-1.2V0.2h2c0.4,0,0.8,0,1.1,0.1c0.3,0.1,0.6,0.2,0.8,0.4
		c0.2,0.2,0.3,0.4,0.4,0.6s0.1,0.5,0.1,0.8c0,0.2,0,0.4-0.1,0.6c-0.1,0.2-0.2,0.4-0.3,0.5c-0.1,0.2-0.3,0.3-0.5,0.4
		c-0.2,0.1-0.4,0.2-0.6,0.3c0.2,0.1,0.3,0.2,0.4,0.4l1.6,2.4h-1.1c-0.1,0-0.2,0-0.3-0.1c-0.1,0-0.1-0.1-0.2-0.2l-1.4-2.1
		c-0.1-0.1-0.1-0.1-0.2-0.2c-0.1,0-0.2,0-0.3,0H19.3z"/>
	<polygon id="Fill-9" points="28.3,0.2 28.3,1.2 26.3,1.2 26.3,6.7 25.1,6.7 25.1,1.2 23.2,1.2 23.2,0.2 	"/>
	<path id="Fill-11" d="M29.9,4.3H32l-0.8-2.2c0-0.1-0.1-0.2-0.1-0.3c0-0.1-0.1-0.3-0.1-0.4c0,0.2-0.1,0.3-0.1,0.4
		c0,0.1-0.1,0.2-0.1,0.3L29.9,4.3z M34.1,6.7h-0.9c-0.1,0-0.2,0-0.3-0.1c-0.1-0.1-0.1-0.1-0.1-0.2l-0.5-1.3h-2.7l-0.5,1.3
		c0,0.1-0.1,0.1-0.1,0.2c-0.1,0.1-0.2,0.1-0.3,0.1h-0.9l2.6-6.5h1.2L34.1,6.7z"/>
	<path id="Fill-13" d="M38.3,1.4c0,0.1-0.1,0.1-0.1,0.1c0,0-0.1,0-0.2,0s-0.1,0-0.2-0.1c-0.1,0-0.2-0.1-0.3-0.2
		c-0.1-0.1-0.2-0.1-0.4-0.2c-0.1,0-0.3-0.1-0.5-0.1c-0.2,0-0.3,0-0.4,0.1c-0.1,0-0.2,0.1-0.3,0.2c-0.1,0.1-0.1,0.2-0.2,0.3
		c0,0.1-0.1,0.2-0.1,0.3c0,0.2,0,0.3,0.1,0.4c0.1,0.1,0.2,0.2,0.3,0.3c0.1,0.1,0.3,0.1,0.5,0.2C36.8,2.9,37,2.9,37.2,3
		c0.2,0.1,0.4,0.1,0.6,0.2c0.2,0.1,0.3,0.2,0.5,0.3c0.1,0.1,0.3,0.3,0.3,0.5c0.1,0.2,0.1,0.4,0.1,0.7c0,0.3,0,0.6-0.2,0.8
		c-0.1,0.3-0.2,0.5-0.4,0.7c-0.2,0.2-0.4,0.3-0.7,0.5c-0.3,0.1-0.6,0.2-1,0.2c-0.2,0-0.4,0-0.6-0.1c-0.2,0-0.4-0.1-0.6-0.2
		c-0.2-0.1-0.4-0.2-0.5-0.3c-0.2-0.1-0.3-0.2-0.4-0.4l0.3-0.6c0,0,0.1-0.1,0.1-0.1c0,0,0.1,0,0.2,0c0.1,0,0.2,0,0.2,0.1
		c0.1,0.1,0.2,0.1,0.3,0.2c0.1,0.1,0.3,0.1,0.4,0.2c0.2,0.1,0.4,0.1,0.6,0.1c0.3,0,0.6-0.1,0.8-0.2c0.2-0.2,0.3-0.4,0.3-0.7
		c0-0.2,0-0.3-0.1-0.4c-0.1-0.1-0.2-0.2-0.3-0.3C36.9,4.1,36.8,4,36.6,4c-0.2-0.1-0.4-0.1-0.5-0.2c-0.2-0.1-0.4-0.1-0.5-0.2
		c-0.2-0.1-0.3-0.2-0.5-0.3S34.8,3,34.7,2.8c-0.1-0.2-0.1-0.5-0.1-0.7c0-0.2,0-0.5,0.1-0.7c0.1-0.2,0.2-0.4,0.4-0.6
		c0.2-0.2,0.4-0.3,0.7-0.4c0.3-0.1,0.6-0.2,0.9-0.2c0.4,0,0.7,0.1,1.1,0.2c0.3,0.1,0.6,0.3,0.8,0.5L38.3,1.4z"/>
	<path id="Fill-16" d="M5.2,13.8c0-0.4,0-0.7-0.1-1c-0.1-0.3-0.2-0.5-0.4-0.7C4.5,12,4.3,11.8,4,11.7c-0.3-0.1-0.5-0.2-0.9-0.2H1.9
		v4.6h1.3c0.3,0,0.6-0.1,0.9-0.2c0.3-0.1,0.5-0.3,0.6-0.5c0.2-0.2,0.3-0.4,0.4-0.7C5.1,14.5,5.2,14.2,5.2,13.8 M6.4,13.8
		c0,0.5-0.1,0.9-0.2,1.3c-0.2,0.4-0.4,0.7-0.7,1c-0.3,0.3-0.6,0.5-1,0.7c-0.4,0.2-0.9,0.2-1.3,0.2H0.7v-6.5h2.5
		c0.5,0,0.9,0.1,1.3,0.2c0.4,0.2,0.8,0.4,1,0.7c0.3,0.3,0.5,0.6,0.7,1C6.4,12.9,6.4,13.4,6.4,13.8"/>
	<polygon id="Fill-17" points="7.5,17.1 8.7,17.1 8.7,10.6 7.5,10.6 	"/>
	<path id="Fill-18" d="M13.2,16.2c0.3,0,0.5,0,0.7-0.1s0.4-0.1,0.6-0.2v-1.2h-0.8c-0.1,0-0.1,0-0.2-0.1c0,0-0.1-0.1-0.1-0.2v-0.7
		h2.2v2.6c-0.2,0.1-0.3,0.2-0.5,0.3c-0.2,0.1-0.4,0.2-0.6,0.2c-0.2,0.1-0.4,0.1-0.7,0.1c-0.2,0-0.5,0-0.7,0c-0.5,0-0.9-0.1-1.3-0.2
		c-0.4-0.2-0.7-0.4-1-0.7c-0.3-0.3-0.5-0.6-0.7-1.1c-0.2-0.4-0.2-0.9-0.2-1.3c0-0.5,0.1-0.9,0.2-1.3c0.2-0.4,0.4-0.8,0.7-1.1
		c0.3-0.3,0.6-0.5,1.1-0.7c0.4-0.2,0.9-0.2,1.4-0.2c0.5,0,1,0.1,1.4,0.2c0.4,0.2,0.7,0.4,1,0.6l-0.3,0.5c-0.1,0.1-0.2,0.2-0.3,0.2
		c-0.1,0-0.1,0-0.2-0.1c-0.1-0.1-0.2-0.1-0.3-0.2s-0.2-0.1-0.3-0.1c-0.1,0-0.3-0.1-0.4-0.1c-0.2,0-0.3,0-0.5,0
		c-0.3,0-0.6,0.1-0.9,0.2c-0.3,0.1-0.5,0.3-0.7,0.5c-0.2,0.2-0.3,0.4-0.4,0.7c-0.1,0.3-0.1,0.6-0.1,0.9c0,0.4,0.1,0.7,0.2,1
		c0.1,0.3,0.3,0.5,0.4,0.7c0.2,0.2,0.4,0.4,0.7,0.5C12.6,16.1,12.9,16.2,13.2,16.2"/>
	<polygon id="Fill-19" points="16.9,17.1 18.1,17.1 18.1,10.6 16.9,10.6 	"/>
	<polygon id="Fill-20" points="24.1,10.6 24.1,11.6 22.2,11.6 22.2,17.1 21,17.1 21,11.6 19,11.6 19,10.6 	"/>
	<path id="Fill-21" d="M25.7,14.6h2.1L27,12.5c0-0.1-0.1-0.2-0.1-0.3c0-0.1-0.1-0.3-0.1-0.4c0,0.2-0.1,0.3-0.1,0.4
		c0,0.1-0.1,0.2-0.1,0.3L25.7,14.6z M30,17.1H29c-0.1,0-0.2,0-0.3-0.1c-0.1-0.1-0.1-0.1-0.1-0.2l-0.5-1.3h-2.7l-0.5,1.3
		c0,0.1-0.1,0.1-0.1,0.2c-0.1,0.1-0.2,0.1-0.3,0.1h-0.9l2.6-6.5h1.2L30,17.1z"/>
	<polygon id="Fill-22" points="31.8,16.1 34.4,16.1 34.4,17.1 30.6,17.1 30.6,10.6 31.8,10.6 	"/>
	<polygon id="Fill-23" points="39.4,10.6 39.4,11.5 36.5,11.5 36.5,13.3 38.8,13.3 38.8,14.3 36.5,14.3 36.5,16.1 39.4,16.1 
		39.4,17.1 35.3,17.1 35.3,10.6 	"/>
	<path id="Fill-24" d="M43.9,11.8c0,0.1-0.1,0.1-0.1,0.1c0,0-0.1,0-0.2,0c-0.1,0-0.1,0-0.2-0.1c-0.1,0-0.2-0.1-0.3-0.2
		c-0.1-0.1-0.2-0.1-0.4-0.2c-0.1,0-0.3-0.1-0.5-0.1c-0.2,0-0.3,0-0.4,0.1c-0.1,0-0.2,0.1-0.3,0.2c-0.1,0.1-0.1,0.2-0.2,0.3
		c0,0.1-0.1,0.2-0.1,0.3c0,0.2,0,0.3,0.1,0.4c0.1,0.1,0.2,0.2,0.3,0.3c0.1,0.1,0.3,0.1,0.5,0.2c0.2,0.1,0.4,0.1,0.6,0.2
		c0.2,0.1,0.4,0.1,0.6,0.2c0.2,0.1,0.3,0.2,0.5,0.3c0.1,0.1,0.3,0.3,0.3,0.5c0.1,0.2,0.1,0.4,0.1,0.7c0,0.3,0,0.6-0.2,0.8
		c-0.1,0.3-0.2,0.5-0.4,0.7c-0.2,0.2-0.4,0.3-0.7,0.4c-0.3,0.1-0.6,0.2-1,0.2c-0.2,0-0.4,0-0.6-0.1c-0.2,0-0.4-0.1-0.6-0.2
		c-0.2-0.1-0.4-0.2-0.5-0.3c-0.2-0.1-0.3-0.2-0.4-0.4l0.3-0.6c0,0,0.1-0.1,0.1-0.1c0,0,0.1,0,0.2,0c0.1,0,0.2,0,0.2,0.1
		c0.1,0.1,0.2,0.1,0.3,0.2c0.1,0.1,0.3,0.1,0.4,0.2c0.2,0.1,0.4,0.1,0.6,0.1c0.3,0,0.6-0.1,0.8-0.2c0.2-0.2,0.3-0.4,0.3-0.7
		c0-0.2,0-0.3-0.1-0.4c-0.1-0.1-0.2-0.2-0.3-0.3c-0.1-0.1-0.3-0.1-0.5-0.2c-0.2-0.1-0.4-0.1-0.5-0.2c-0.2-0.1-0.4-0.1-0.5-0.2
		c-0.2-0.1-0.3-0.2-0.5-0.3s-0.3-0.3-0.3-0.5c-0.1-0.2-0.1-0.5-0.1-0.7c0-0.2,0-0.5,0.1-0.7c0.1-0.2,0.2-0.4,0.4-0.6
		c0.2-0.2,0.4-0.3,0.7-0.4c0.3-0.1,0.6-0.2,0.9-0.2c0.4,0,0.7,0.1,1.1,0.2c0.3,0.1,0.6,0.3,0.8,0.5L43.9,11.8z"/>
</g>
<path d="M11.9,0.7c0-0.3-0.3-0.5-0.5-0.5L7,0C6.7,0,6.3,0.2,6.1,0.4L0.2,6.3C0.1,6.4,0,6.5,0,6.7C0,6.8,0.1,6.9,0.2,7L5,11.8
	C5.1,11.9,5.2,12,5.3,12c0.1,0,0.3-0.1,0.4-0.2l5.9-5.9C11.8,5.7,12,5.3,12,5L11.9,0.7z M9.6,3.8C9.4,4,9.1,4.2,8.8,4.2h0
	C8.5,4.2,8.2,4,8,3.8C7.5,3.3,7.5,2.6,8,2.1c0.4-0.5,1.2-0.5,1.7,0C10.1,2.6,10.1,3.3,9.6,3.8z"/>
</svg>
