<?xml version="1.0" encoding="UTF-8"?>
<svg width="75px" height="21px" viewBox="0 0 75 21" version="1.1" xmlns="http://www.w3.org/2000/svg" xmlns:xlink="http://www.w3.org/1999/xlink" style="background: #FFFFFF;">
    <!-- Generator: Sketch 48.2 (47327) - http://www.bohemiancoding.com/sketch -->
    <title>logo-ganamás/morado</title>
    <desc>Created with Sketch.</desc>
    <defs></defs>
    <g id="Symbols" stroke="none" stroke-width="1" fill="none" fill-rule="evenodd">
        <g id="logo-ganamás/morado" fill="#613C87">
            <g>
                <polygon id="Fill-18" points="74.0132213 5.03703947 69.5306673 5.03703947 69.5306673 0.644358553 66.4084751 0.644358553 66.4084751 5.03703947 61.9260268 5.03703947 61.9260268 8.15923167 66.4084751 8.15923167 66.4084751 12.5519126 69.5306673 12.5519126 69.5306673 8.15923167 74.0132213 8.15923167"></polygon>
                <path d="M52.4186877,14.454516 L56.4807413,14.454516 L54.4604993,7.81320959 L52.4186877,14.454516 Z M52.3972239,4.97628524 L56.9321158,4.97628524 L61.9182766,20.34332 L58.2861337,20.34332 L57.2329265,16.9261325 L51.6665026,16.9261325 L50.6132953,20.34332 L47.3464603,20.34332 L52.3972239,4.97628524 Z" id="Fill-7"></path>
                <polygon id="Fill-5" points="32.2584657 4.97632754 36.2990555 4.97632754 42.1449319 15.0992129 42.1449319 4.97632754 45.2397392 4.97632754 45.2397392 20.3433623 41.7581602 20.3433623 35.3533788 9.40379464 35.3533788 20.3433623 32.2584657 20.3433623"></polygon>
                <path d="M20.6522932,14.454516 L24.7143468,14.454516 L22.6941048,7.81320959 L20.6522932,14.454516 Z M20.6308294,4.97628524 L25.1657213,4.97628524 L30.1519878,20.34332 L26.5197392,20.34332 L25.466532,16.9261325 L19.9001081,16.9261325 L18.8470066,20.34332 L15.5800658,20.34332 L20.6308294,4.97628524 Z" id="Fill-3"></path>
                <path d="M0.0833916823,12.756485 L0.0833916823,12.5846687 C0.0833916823,7.96371006 3.37179629,4.73990836 7.9066882,4.73990836 C11.3239814,4.73990836 14.3758611,6.30888158 14.7412747,10.1130522 L11.2809481,10.1130522 C10.9801375,8.30755404 9.79804159,7.49087171 7.94961584,7.49087171 C5.28450775,7.49087171 3.71574601,9.48975564 3.71574601,12.6275963 L3.71574601,12.7996241 C3.71574601,15.765437 4.98369713,17.8932096 7.9926492,17.8932096 C10.5716906,17.8932096 11.6247921,16.4103031 11.689395,14.6478383 L8.22906837,14.6478383 L8.22906837,12.1117246 L15.128152,12.1117246 L15.128152,13.745195 C15.128152,17.850282 12.5060773,20.5797815 7.9066882,20.5797815 C2.87759986,20.5797815 0.0833916823,17.3129464 0.0833916823,12.756485" id="Fill-1"></path>
            </g>
        </g>
    </g>
</svg>