<?xml version="1.0" encoding="UTF-8"?>
<svg width="24px" height="24px" viewBox="0 0 24 24" version="1.1" xmlns="http://www.w3.org/2000/svg" xmlns:xlink="http://www.w3.org/1999/xlink">
    <!-- Generator: Sketch 54.1 (76490) - https://sketchapp.com -->
    <title>Icons/Actions/a-icon-call</title>
    <desc>Created with Sketch.</desc>
    <g id="Icons/Actions/a-icon-call" stroke="none" stroke-width="1" fill="none" fill-rule="evenodd">
        <path d="M4.444,4 C4.199,4 4,4.199 4,4.444 C4,13.021 10.978,20 19.555,20 C19.8,20 20,19.801 20,19.556 L20,16.26 C20,16.015 19.8,15.815 19.555,15.815 C18.347,15.815 17.16,15.626 16.027,15.251 C15.868,15.197 15.691,15.239 15.574,15.356 L13.496,17.435 C13.342,17.588 13.107,17.625 12.914,17.526 C10.155,16.112 7.867,13.824 6.473,11.084 C6.375,10.892 6.412,10.657 6.565,10.504 L8.643,8.426 C8.765,8.304 8.807,8.132 8.756,7.966 C8.384,6.842 8.194,5.654 8.194,4.444 C8.194,4.199 7.995,4 7.75,4 L4.444,4 Z M19.555,21 C10.426,21 3,13.573 3,4.444 C3,3.647 3.648,3 4.444,3 L7.75,3 C8.546,3 9.194,3.647 9.194,4.444 C9.194,5.547 9.367,6.629 9.707,7.659 C9.873,8.187 9.735,8.748 9.35,9.133 L7.532,10.95 C8.787,13.258 10.726,15.196 13.05,16.467 L14.867,14.649 C15.252,14.265 15.832,14.125 16.346,14.304 C17.372,14.643 18.454,14.815 19.555,14.815 C20.352,14.815 21,15.463 21,16.26 L21,19.556 C21,20.353 20.352,21 19.555,21 L19.555,21 Z" id="a-icon-call" fill="#000000"></path>
    </g>
</svg>