<?xml version="1.0" encoding="utf-8"?>
<!-- Generator: Adobe Illustrator 22.0.1, SVG Export Plug-In . SVG Version: 6.00 Build 0)  -->
<svg version="1.1" id="Layer_1" xmlns="http://www.w3.org/2000/svg" xmlns:xlink="http://www.w3.org/1999/xlink" x="0px" y="0px"
	 viewBox="0 0 63.2 13" style="enable-background:new 0 0 63.2 13;" xml:space="preserve">
<style type="text/css">
	.st0{fill:#5C3C8B;}
</style>
<g>
	<polygon class="st0" points="12.2,13 0,13 0,0 2.2,0 2.2,11.1 12.2,11.1 12.2,13 	"/>
	<path class="st0" d="M28.5,6.3c1.5,0.5,2.2,1.6,2.2,3.3c0,2.3-1.6,3.4-4.9,3.4H15.5V0H26c1.3,0,2.4,0.3,3.1,1
		c0.8,0.6,1.1,1.5,1.1,2.6C30.2,4.8,29.7,5.7,28.5,6.3L28.5,6.3z M26,5.5c0.6,0,1.1-0.2,1.5-0.5c0.4-0.3,0.6-0.8,0.6-1.2
		c0-0.5-0.2-0.9-0.5-1.3C27.2,2.1,26.7,2,26.1,2h-8.5v3.5H26L26,5.5z M25.8,11.1c1.8,0,2.7-0.6,2.7-1.8c0-1.3-0.8-1.9-2.4-1.9h-8.6
		v3.6H25.8L25.8,11.1z"/>
	<polygon class="st0" points="47.7,13 34.1,13 34.1,0 47.4,0 47.4,2 36.2,2 36.2,5.3 43.9,5.3 43.9,7.3 36.2,7.3 36.2,11.1 
		47.7,11.1 47.7,13 	"/>
	<polygon class="st0" points="63.2,13 51,13 51,0 53.1,0 53.1,11.1 63.2,11.1 63.2,13 	"/>
	<path class="st0" d="M10.2,0v2.9c0,1,0.8,1.8,1.9,1.8l0.2,0V0H10.2L10.2,0z"/>
</g>
</svg>