<svg width="103" height="40" viewBox="0 0 103 40" version="1.1" xmlns="http://www.w3.org/2000/svg" xmlns:xlink="http://www.w3.org/1999/xlink">
<title>logo</title>
<desc>Created using Figma</desc>
<g id="Canvas" transform="translate(1411 -543)">
<g id="logo">
<g id="Fill 1">
<use xlink:href="#path0_fill" transform="translate(-1403.1 543.237)" fill="#D12A35"/>
</g>
<g id="Fill 4">
<use xlink:href="#path1_fill" transform="translate(-1411 552.911)" fill="#D12A35"/>
</g>
<g id="Fill 6">
<use xlink:href="#path2_fill" transform="translate(-1330.86 552.973)" fill="#D12A35"/>
</g>
<g id="Fill 8">
<use xlink:href="#path3_fill" transform="translate(-1349.38 545.83)" fill="#D12A35"/>
</g>
<g id="Fill 11">
<use xlink:href="#path4_fill" transform="translate(-1361.81 545.874)" fill="#D12A35"/>
</g>
<g id="Fill 13">
<use xlink:href="#path5_fill" transform="translate(-1361.57 553.016)" fill="#D12A35"/>
</g>
<g id="Fill 15">
<use xlink:href="#path6_fill" transform="translate(-1385.3 552.891)" fill="#D12A35"/>
</g>
</g>
</g>
<defs>
<path id="path0_fill" fill-rule="evenodd" d="M 0.688752 7.87442C 1.65398 6.58367 6.52114 5.50899 7.86288 4.04525C 9.14349 2.63735 7.1524 0.196665 6.99064 0C 6.96134 0.0582186 6.52445 0.401377 2.89102 2.22083C -1.67299 4.50082 0.479861 8.1577 0.688752 7.87442Z"/>
<path id="path1_fill" fill-rule="evenodd" d="M 18.454 14.7842C 17.9369 14.824 17.5318 15.0043 17.1571 15.3565C 15.3627 16.9762 13.61 17.6095 11.2982 17.6095C 7.46047 17.6095 5.26278 14.9965 4.4397 12.4422C 6.53676 12.587 8.55995 12.6353 10.2945 12.65C 10.9056 12.6552 13.5598 12.6798 15.0137 12.5523C 16.4647 12.4235 18.2308 12.2186 19.3619 11.1408C 20.9046 9.6747 20.9064 8.00245 20.6282 6.75312C 20.3121 5.34144 19.4827 3.96289 18.3317 2.88466C 17.0177 1.64243 14.8104 0 10.8898 0C 7.89302 0 5.12394 1.1497 3.08904 3.2309C 1.09693 5.27754 0 8.02351 0 10.9721L 0 11.0461C 0 13.8802 0.970069 15.9486 3.3392 18.1805C 5.42887 20.1481 8.22496 21.2299 11.2169 21.2299C 14.8246 21.2299 17.472 20.2142 20.0518 17.8239C 20.5697 17.3494 21.2692 16.5587 21.2692 16.5587C 21.2692 16.5587 19.5886 14.6912 18.454 14.7842ZM 10.8141 3.58307L 10.9056 3.58307C 14.8345 3.58307 16.0922 5.53505 16.4667 6.42395C 16.916 7.47874 16.8531 8.43438 16.4394 8.72666C 16.2779 8.83836 15.8864 9.1375 12.444 9.1375C 9.49863 9.1375 5.94672 9.04899 4.31482 8.89847C 4.97155 5.6858 7.49939 3.60957 10.8141 3.58307Z"/>
<path id="path2_fill" fill-rule="evenodd" d="M 2.98383 19.7394C 4.60248 20.8089 6.80424 21.4244 9.02282 21.4244C 12.9298 21.4244 16.0469 20.0887 17.9595 17.8925C 18.4993 17.2713 19.9167 15.8589 19.9167 12.9685L 19.9167 8.7006C 19.9167 6.11485 19.124 3.87651 17.5028 2.37513C 15.795 0.8037 13.3571 0 10.242 0C 8.08612 0 6.17171 0.341265 4.02778 1.11183L 4.01784 1.11728C 3.69915 1.23537 3.3685 1.35867 3.03172 1.49972C 2.96447 1.52149 1.00191 2.32022 1.00191 2.32022C 1.00191 2.32022 2.12305 4.12287 2.21042 4.23244L 2.22494 4.25658L 2.22902 4.2509C 2.5905 4.69417 3.16317 4.99544 3.78373 4.99544C 4.06166 4.99544 4.39028 4.92349 4.67024 4.79025C 6.50262 3.98703 8.23668 3.606 10.12 3.606C 13.7736 3.606 15.7708 5.42782 15.9208 8.40525C 14.6698 8.14634 12.7625 7.83703 10.0795 7.83703C 6.91557 7.83703 4.43435 8.392 2.71125 9.48466C 0.914535 10.6256 0 12.2787 0 14.4034L 0 14.4754C 0 16.6292 1.03197 18.4475 2.98383 19.7394ZM 4.15112 14.2889C 4.15112 13.3803 4.52025 12.8107 5.25646 12.3611C 6.30296 11.7095 7.56089 11.3453 9.956 11.3702C 12.574 11.3948 14.6138 11.737 15.9698 12.029L 15.9698 12.8609C 15.9698 15.6873 13.041 17.8196 9.14668 17.8196C 6.66342 17.8196 4.15112 16.6323 4.15112 14.367L 4.15112 14.2889Z"/>
<path id="path3_fill" fill-rule="evenodd" d="M 37.3948 30.756C 36.5615 31.2887 35.2702 31.8411 35.2702 31.8411C 29.0213 34.4645 21.9774 32.8975 16.4002 28.9268C 10.7253 24.8937 8.15694 19.6556 7.34532 18.0269L 15.5609 9.39071L 14.093 8.2029C 13.275 7.53812 12.1098 7.62072 11.3713 8.39886L 4.87811 15.3023L 4.87811 15.3082L 4.02294 16.2186L 4.02294 0L 1.99567 0C 0.856453 0 0 0.80725 0 1.88216L 0 16.956L 0 26.4284C 0 27.3722 0.670489 28.1153 1.60846 28.2713C 1.6617 28.2845 1.71851 28.2919 1.77506 28.2961L 1.78041 28.2961C 1.8627 28.3061 1.94243 28.3091 2.03261 28.3091C 2.07643 28.3091 2.11107 28.3091 2.15107 28.3061L 4.02294 28.3061L 4.02294 26.5212L 4.02294 26.431L 4.02294 19.9851C 5.0409 21.832 7.76285 26.5678 13.2065 30.7314C 15.9954 32.8753 19.4607 34.7506 23.3785 35.6882C 25.2437 36.1341 27.1663 36.3608 29.2086 36.3026C 32.8986 36.1971 37.1069 34.9832 40.6639 32.1272C 38.8453 29.6941 38.0281 30.3477 37.3948 30.756Z"/>
<path id="path4_fill" fill-rule="evenodd" d="M 2.26239 4.82812C 3.55369 4.82812 4.5635 3.91106 4.5635 2.73864L 4.5635 2.0935C 4.5635 0.920848 3.55369 0 2.26239 0C 0.995799 0 0 0.920848 0 2.0935L 0 2.73864C 0 3.91106 0.995799 4.82812 2.26239 4.82812Z"/>
<path id="path5_fill" fill-rule="evenodd" d="M 5.89251 18.0714L 5.64795 18.1093C 5.05312 18.1952 4.63076 18.0603 4.3699 17.6914C 4.18597 17.4256 4.08535 16.869 4.07516 16.3746L 4.07516 0L 2.02013 0C 1.52465 0 1.08725 0.151463 0.747168 0.40469C 0.2899 0.748559 0 1.28294 0 1.90323C 0 3.25669 0 7.63232 0.00866134 11.315L 0.00866134 11.4873C 0.00866134 14.4276 0.00866133 16.8848 0.010954 16.9177C 0.0196154 17.3394 0.0394855 17.7439 0.0748951 18.0951C 0.130175 18.6165 0.173991 19.1189 0.449625 19.5839C 0.736468 20.0558 1.01694 20.3988 1.56541 20.6695L 1.58095 20.6782C 2.04433 20.9005 2.40479 21.0801 3.20953 21.0801C 3.20953 21.0801 3.39677 21.0801 3.49612 21.077C 4.308 21.0425 4.93671 20.7829 5.35984 20.3117C 6.08739 19.4961 5.93327 18.3464 5.92945 18.2981L 5.89251 18.0714Z"/>
<path id="path6_fill" fill-rule="evenodd" d="M 15.5817 10.1967C 14.1913 9.42046 12.3452 9.04464 10.2601 8.66102C 7.39984 8.13823 5.21081 7.62634 5.1512 6.22554L 5.1484 6.15146C 5.0865 4.73978 6.56707 3.69303 8.74056 3.61659C 10.4374 3.55387 12.077 3.88354 13.8337 4.75611C 13.9873 4.84084 14.4069 5.04862 14.9584 5.00981C 16.4193 4.91231 16.641 4.03122 17.4959 2.40725C 17.5326 2.33886 16.1549 1.68828 16.0301 1.62769C 15.1395 1.19981 14.2145 0.826357 13.2531 0.554907C 12.9828 0.479176 12.7087 0.413384 12.4344 0.353982C 12.0742 0.280854 11.7127 0.220269 11.3502 0.162287C 10.9584 0.109038 10.5773 0.061706 10.1847 0.0354366C 9.68235 0.0011208 9.17261 -0.00810898 8.67025 0.00703732C 6.49269 0.0863187 4.54058 0.769796 3.1703 1.92541C 1.76258 3.11511 1.0228 4.75138 1.0977 6.52421L 1.09999 6.59662C 1.26506 10.4963 5.29182 11.4053 8.53167 12.13C 8.53167 12.13 9.69076 12.3936 9.93175 12.4457C 12.8774 13.0788 13.9982 13.4349 14.0492 14.6616L 14.0492 14.7382C 14.1175 16.3239 12.5301 17.4982 10.1918 17.5822C 7.97531 17.6653 5.8864 17.0826 3.80844 15.8259C 3.46326 15.5966 2.98663 15.4766 2.53828 15.4953C 1.88435 15.5192 1.31117 15.847 0.965484 16.3213L 0 17.9521C 0 17.9521 1.76462 19.0294 1.76258 19.0253C 4.15107 20.446 7.42098 21.2954 10.2183 21.1889C 12.4198 21.1075 14.4219 20.4235 15.8548 19.2594C 17.4083 17.9885 18.1868 16.2964 18.1045 14.3636L 18.0973 14.2888C 18.0191 12.4081 17.2213 11.1081 15.5817 10.1967Z"/>
</defs>
</svg>