<svg width="42" height="16" viewBox="0 0 42 16" xmlns="http://www.w3.org/2000/svg" xmlns:xlink="http://www.w3.org/1999/xlink"><title>logo esika copy 6</title><defs><path id="a" d="M8 0H0v8.463h8V0z"/><path id="c" d="M.094 15.707h16.682V.057H.094v15.65z"/></defs><g fill="none" fill-rule="evenodd"><g transform="translate(1.24 -3.96)"><mask id="b" fill="#fff"><use xlink:href="#a"/></mask><path d="M2.283 6.456c.396-.556 2.393-1.02 2.943-1.65.526-.607-.291-1.659-.357-1.744-.013.025-.192.173-1.682.957-1.873.983-.99 2.559-.904 2.437" fill="#E81C36" mask="url(#b)"/></g><path d="M7.57 9.642a.809.809 0 0 0-.531.247c-.737.698-1.456.971-2.404.971-1.574 0-2.476-1.126-2.814-2.227.86.063 1.69.083 2.402.09.251.002 1.34.013 1.936-.042.596-.056 1.32-.144 1.784-.609.633-.632.634-1.352.52-1.89-.13-.609-.47-1.203-.943-1.668-.539-.535-1.444-1.243-3.052-1.243-1.23 0-2.366.496-3.2 1.392C.45 5.545 0 6.73 0 8v.031c0 1.222.398 2.113 1.37 3.075a4.56 4.56 0 0 0 3.232 1.314c1.48 0 2.566-.438 3.624-1.468.213-.204.5-.545.5-.545s-.69-.805-1.155-.765M4.436 4.815h.038c1.612 0 2.128.841 2.281 1.224.185.455.159.867-.01.993-.067.048-.228.177-1.64.177-1.208 0-2.665-.038-3.335-.103.27-1.385 1.307-2.28 2.666-2.29m29.666 6.989c.664.46 1.567.726 2.477.726 1.603 0 2.882-.576 3.666-1.522.222-.268.803-.877.803-2.122v-1.84c0-1.114-.325-2.078-.99-2.725-.7-.678-1.7-1.024-2.979-1.024-.884 0-1.67.147-2.549.48l-.004.002a10.8 10.8 0 0 0-.405.164c-.027.01-.832.354-.832.354s.46.777.495.824l.006.01.002-.002c.148.191.383.32.638.32a.85.85 0 0 0 .364-.088c.751-.346 1.463-.51 2.235-.51 1.5 0 2.318.785 2.38 2.068a11.003 11.003 0 0 0-2.396-.245c-1.298 0-2.316.24-3.023.71-.737.492-1.112 1.205-1.112 2.12v.031c0 .928.423 1.712 1.224 2.269zm.479-2.35c0-.39.151-.636.453-.83.43-.28.945-.438 1.928-.427 1.074.01 1.91.158 2.467.284v.358c0 1.219-1.201 2.137-2.799 2.137-1.019 0-2.05-.511-2.05-1.487v-.034z" fill="#E81C36"/><g transform="translate(25.186 .162)"><mask id="d" fill="#fff"><use xlink:href="#c"/></mask><path d="M15.435 13.312c-.342.23-.871.468-.871.468-2.564 1.13-5.454.455-7.742-1.256-2.328-1.738-3.381-3.995-3.714-4.697l3.37-3.722-.602-.512a.788.788 0 0 0-1.117.084L2.096 6.652v.003l-.351.392V.057H.913A.796.796 0 0 0 .094.87v10.578a.789.789 0 0 0 .729.805h.002a.804.804 0 0 0 .103.006l.049-.001h.768V8.67a14.535 14.535 0 0 0 3.767 4.63c1.144.925 2.566 1.733 4.173 2.137a8.66 8.66 0 0 0 2.392.265 7.683 7.683 0 0 0 4.7-1.8c-.747-1.048-1.082-.767-1.342-.59" fill="#E81C36" mask="url(#d)"/></g><path d="M21.107 2.32c.53 0 .944-.396.944-.901V1.14c0-.506-.415-.902-.944-.902-.52 0-.928.396-.928.902v.278c0 .505.408.9.928.9m1.589 8.786l-.1.017c-.244.037-.418-.021-.525-.18-.075-.115-.116-.355-.12-.568V3.316h-.844a.84.84 0 0 0-.522.175.813.813 0 0 0-.306.646c0 .583 0 2.469.003 4.056v.074l.001 2.34c.004.182.012.356.026.508.023.224.041.44.154.641.118.204.233.351.458.468l.006.004c.19.096.338.173.668.173l.118-.001c.333-.015.591-.127.765-.33.298-.352.235-.847.233-.868l-.015-.098zm-5.761-3.447c-.57-.335-1.327-.497-2.183-.662-1.173-.225-2.071-.446-2.096-1.05v-.031c-.026-.609.581-1.06 1.473-1.093.696-.027 1.369.115 2.09.491a.812.812 0 0 0 .46.11c.6-.042.691-.422 1.042-1.122.015-.03-.55-.31-.602-.336a6.88 6.88 0 0 0-1.139-.462 5.547 5.547 0 0 0-.78-.17 6.044 6.044 0 0 0-1.1-.067c-.893.035-1.694.33-2.256.827a2.48 2.48 0 0 0-.85 1.982v.031c.068 1.681 1.72 2.073 3.05 2.385 0 0 .475.114.574.136 1.208.273 1.668.426 1.689.955v.033c.028.683-.623 1.19-1.583 1.226-.909.035-1.766-.216-2.618-.757a.872.872 0 0 0-.522-.143.827.827 0 0 0-.645.356l-.396.703.723.463c.98.612 2.322.978 3.47.932.902-.035 1.724-.33 2.311-.831a2.561 2.561 0 0 0 .923-2.11l-.003-.033c-.032-.81-.359-1.37-1.032-1.763" fill="#E81C36"/></g></svg>