<svg xmlns="http://www.w3.org/2000/svg" width="77" height="62" viewBox="0 0 77 62">
    <g fill="none" fill-rule="evenodd">
        <path stroke="#959595" stroke-width="2" d="M68 29.775C68 17.351 53.006 7 34.496 7 15.956 7 1 17.296 1 29.745c0 7.132 4.225 13.112 12.375 17.384l.615.323-.088.689c-.385 3.037-1.64 5.905-3.487 8.553-1.327 1.902-3.775 4.482-3.408 3.912l-.084.13-.118.098c-.041.034-.04.029-.04.029.028.06.15.133.29.137.256 0 1.235-.093 2.298-.25 1.64-.242 3.398-.61 5.188-1.118 4.973-1.415 9.31-3.659 12.47-6.873l.294-.3h7.154C53.033 52.446 68 42.18 68 29.776z"/>
        <circle cx="63.5" cy="13.5" r="13.5" fill="#613C87"/>
        <text fill="#FFF" font-family="Lato-Bold, Lato" font-size="14" font-weight="bold">
            <tspan x="59.44" y="18">1</tspan>
        </text>
    </g>
</svg>
