<?xml version="1.0" encoding="utf-8"?>
<!-- Generator: Adobe Illustrator 21.0.0, SVG Export Plug-In . SVG Version: 6.00 Build 0)  -->
<svg version="1.1" id="Capa_1" xmlns="http://www.w3.org/2000/svg" xmlns:xlink="http://www.w3.org/1999/xlink" x="0px" y="0px"
	 viewBox="0 0 50 50" style="enable-background:new 0 0 50 50;" xml:space="preserve">
<style type="text/css">
	.st0{fill:none;stroke:#FFFFFF;}
</style>
<g>
	<path class="st0" d="M26.2,33l3.1-3.1c0.4-0.4,0.9-0.5,1.4-0.3c1.6,0.5,3.2,0.8,5,0.8c0.8,0,1.4,0.6,1.4,1.4v4.8
		c0,0.8-0.6,1.4-1.4,1.4C22.6,38,12,27.4,12,14.4c0-0.8,0.6-1.4,1.4-1.4h4.9c0.8,0,1.4,0.6,1.4,1.4c0,1.7,0.3,3.4,0.8,5
		c0.2,0.5,0,1-0.3,1.4L17,23.8C19.1,27.8,22.3,31,26.2,33z"/>
</g>
</svg>
