<?xml version="1.0" encoding="utf-8"?>
<!-- Generator: Adobe Illustrator 21.0.0, SVG Export Plug-In . SVG Version: 6.00 Build 0)  -->
<svg version="1.1" id="Capa_1" xmlns="http://www.w3.org/2000/svg" xmlns:xlink="http://www.w3.org/1999/xlink" x="0px" y="0px"
	 viewBox="0 0 56 45" style="enable-background:new 0 0 56 45;" xml:space="preserve">
<style type="text/css">
	.st0{fill:none;stroke:#642F80;stroke-width:1.3;}
</style>
<path class="st0" d="M55.3,19.1C55.3,9,43.1,0.6,28,0.6C12.9,0.6,0.6,9,0.6,19.1c0,5.8,3.5,10.6,10.1,14.1l0.4,0.2l-0.1,0.5
	c-0.3,2.4-1.3,4.7-2.8,6.8c-1.1,1.5-3.1,3.6-2.8,3.1l-0.1,0.1c-0.1,0.1-0.1,0.1-0.1,0.2c0,0.1,0.2,0.2,0.4,0.2c0.2,0,1-0.1,1.9-0.2
	c1.4-0.2,2.8-0.5,4.2-0.9c4.1-1.1,7.6-3,10.2-5.6l0.2-0.2H28C43.1,37.5,55.3,29.2,55.3,19.1z"/>
</svg>
