<svg xmlns="http://www.w3.org/2000/svg" width="56" height="45" viewBox="0 0 56 45">
    <path fill="none" fill-rule="nonzero" stroke="#E81C36" stroke-width="1.3" d="M55.35 19.105C55.35 9.023 43.099.65 27.996.65 12.87.65.65 8.98.65 19.08c0 5.792 3.464 10.647 10.127 14.105l.403.21-.057.45c-.31 2.414-1.318 4.697-2.805 6.806-1.067 1.515-3.057 3.59-2.769 3.148l-.132.148c-.086.07-.103.138-.074.201.048.104.204.197.383.202.218 0 1.02-.075 1.89-.203a33.677 33.677 0 0 0 4.23-.903c4.063-1.144 7.606-2.96 10.194-5.565l.19-.192h5.737c15.154-.011 27.383-8.316 27.383-18.382z"/>
</svg>
