<?xml version="1.0" encoding="utf-8"?>
<!-- Generator: Adobe Illustrator 21.0.0, SVG Export Plug-In . SVG Version: 6.00 Build 0)  -->
<svg version="1.1" id="Capa_1" xmlns="http://www.w3.org/2000/svg" xmlns:xlink="http://www.w3.org/1999/xlink" x="0px" y="0px"
	 viewBox="0 0 55 54" style="enable-background:new 0 0 55 54;" xml:space="preserve">
<style type="text/css">
	.st0{filter:url(#Adobe_OpacityMaskFilter);}
	.st1{fill:#FFFFFF;}
	.st2{mask:url(#b);fill:#642F80;}
	.st3{fill:#642F80;}
</style>
<g>
	<g transform="translate(0 1.396)">
		<defs>
			<filter id="Adobe_OpacityMaskFilter" filterUnits="userSpaceOnUse" x="0" y="0.5" width="51.9" height="51.7">
				<feColorMatrix  type="matrix" values="1 0 0 0 0  0 1 0 0 0  0 0 1 0 0  0 0 0 1 0"/>
			</filter>
		</defs>
		<mask maskUnits="userSpaceOnUse" x="0" y="0.5" width="51.9" height="51.7" id="b">
			<g class="st0">
				<path id="a" class="st1" d="M0,0.5v51.7h51.9V0.5H0z"/>
			</g>
		</mask>
		<path class="st2" d="M49.7,46.4l-1.4,1.4c-0.7,0.7-1.9,1.6-3.6,2.3c-1,0.4-1.9,0.6-2.9,0.7c-0.1,0-0.3,0-0.6,0
			c-2.9,0-13.4-1-26-13.6C2.7,24.8,0.7,17.6,1.6,10.6c0.1-1,0.3-1.9,0.7-2.9C3,5.9,3.9,4.8,4.6,4.1L6,2.6c0.5-0.4,1.1-0.7,1.7-0.7
			c0.6,0,1.1,0.2,1.5,0.6l8.2,8.2c0.8,0.9,0.8,2.3-0.1,3.2L12.2,19l-0.1,0.1l0.3,0.5c0.3,0.5,0.6,1,0.9,1.6
			c1.5,2.7,3.6,6.4,7.5,10.4c4,4,7.7,6,10.4,7.5c0.6,0.3,1.2,0.6,1.6,0.9l0.5,0.3l5.2-5.2c0.5-0.4,1.1-0.7,1.7-0.7
			c0.6,0,1.1,0.2,1.5,0.6l8.2,8.2C50.7,44,50.6,45.5,49.7,46.4L49.7,46.4z M42.7,34c-0.6-0.6-1.5-1-2.5-1c-1,0-2,0.4-2.7,1.1
			L33,38.5l-1.2-0.7c-2.6-1.5-6.2-3.5-10-7.3c-3.8-3.8-5.8-7.4-7.3-10.1l-0.7-1.2l4.4-4.4c1.5-1.5,1.5-3.8,0.1-5.2l-8.2-8.2
			c-0.6-0.6-1.5-1-2.5-1c-1,0-2,0.4-2.7,1.1l-2,2L2.8,3.9C2,4.9,1.4,6,1,7.2c-0.4,1-0.7,2.1-0.8,3.3c-1.1,8.8,3,16.8,14,27.8
			c13,13,23.9,14,26.9,14c0.5,0,0.8,0,0.9,0c1.1-0.1,2.2-0.4,3.3-0.8c1.1-0.4,2.2-1.1,3.2-1.8l0.5-0.4l1.9-1.8
			c1.5-1.5,1.5-3.8,0.1-5.2C50.9,42.2,42.7,34,42.7,34z"/>
	</g>
	<path class="st3" d="M26.5,18.9l-0.1,0.3l0.3,0.1c2,0.5,3.8,1.5,5.3,3c1.4,1.4,2.4,3.1,2.9,5l0.1,0.2l0.3,0c0.1,0,0.2,0,0.2,0
		c0.2,0,0.4,0,0.6,0.1c0.2,0,0.3,0,0.5,0.1l0.4,0l-0.1-0.4c-0.6-2.4-1.8-4.6-3.6-6.4c-1.7-1.7-3.8-2.9-6.1-3.5L27,17.3L27,17.6
		C26.8,18,26.7,18.5,26.5,18.9 M27.3,10.9l0,0.2l0.2,0c3.9,0.7,7.5,2.6,10.2,5.3c3.2,3.2,5.1,7.2,5.6,11.7l0,0.2l0.6,0.1
		c0.2,0,0.4,0,0.6,0c0.1,0,0.3,0,0.4,0l0.3,0l0-0.3c-0.5-5.1-2.6-9.6-6.2-13.2c-3.2-3.2-7.2-5.3-11.7-6L27,9.1l0.1,0.4
		C27.1,9.9,27.2,10.4,27.3,10.9"/>
	<path class="st3" d="M45.4,8.9C40.1,3.6,33.1,0.5,25.6,0l-0.4,0l0.1,0.3c0.1,0.5,0.2,1,0.3,1.5l0,0.2l0.2,0
		c6.9,0.5,13.3,3.4,18.2,8.2c4.8,4.8,7.7,11.1,8.2,17.9l0,0.3l0.3,0c0.3,0,0.6,0,0.9-0.1l0.8-0.1l0-0.3C53.6,20.8,50.5,14,45.4,8.9"
		/>
</g>
</svg>
