<svg xmlns="http://www.w3.org/2000/svg" width="45" height="59" viewBox="0 0 45 59">
    <g fill="none" fill-rule="evenodd" stroke="#E81C36" stroke-width="1.3">
        <path stroke-linecap="round" stroke-linejoin="round" d="M18.89 36.64c-5.053-2.4-8.04-8.198-7.21-16.464 6.468.386 10.778-1.383 13.496-5.146.726-1.005 1.012-1.766 1.849-3.087 1.608 3.628 3.292 7.173 6.654 8.85.378 8.583-2.506 13.882-7.394 16.259-1.696.826-4.142 1.3-7.396-.411z"/>
        <path d="M36.372 40.038c2.267 0 6.922-.484 7.298-2.305-3.099-.368-4.983-2.547-4.983-5.16 0 0 .406-6.763.42-9.03.01-1.694-.026-3.976-.026-3.976.051-5.683-1.36-9.537-4.62-13.384-3.222-3.8-10.04-6.433-14.66-3.308l-.849.11c-9.668.431-11.85 7.691-12.392 15.828l.006 4.299v9.029c0 2.614-1.884 4.791-4.983 5.16.376 1.823 5.83 2.353 8.097 2.353"/>
        <path d="M28.685 35.579c0 .586.672 1.746.672 1.746.707.623 7.267 1.587 9.727 4.98 2.46 3.393 1.448 15.271 1.448 16.044H4.701c0-.773-.96-12.65 1.499-16.044 2.46-3.393 9.07-4.31 9.776-4.932 0 0 .774-1.761.773-2.348"/>
    </g>
</svg>
