<?xml version="1.0" encoding="utf-8"?>
<!-- Generator: Adobe Illustrator 21.0.0, SVG Export Plug-In . SVG Version: 6.00 Build 0)  -->
<svg version="1.1" id="Capa_1" xmlns="http://www.w3.org/2000/svg" xmlns:xlink="http://www.w3.org/1999/xlink" x="0px" y="0px"
	 viewBox="0 0 45 59" style="enable-background:new 0 0 45 59;" xml:space="preserve">
<style type="text/css">
	.st0{fill:none;stroke:#642F80;stroke-width:1.3;stroke-linecap:round;stroke-linejoin:round;}
	.st1{fill:none;stroke:#642F80;stroke-width:1.3;}
</style>
<g>
	<path class="st0" d="M18.9,36.6c-5.1-2.4-8-8.2-7.2-16.5c6.5,0.4,10.8-1.4,13.5-5.1c0.7-1,1-1.8,1.8-3.1c1.6,3.6,3.3,7.2,6.7,8.9
		c0.4,8.6-2.5,13.9-7.4,16.3C24.6,37.9,22.1,38.4,18.9,36.6L18.9,36.6z"/>
	<path class="st1" d="M36.4,40c2.3,0,6.9-0.5,7.3-2.3c-3.1-0.4-5-2.5-5-5.2c0,0,0.4-6.8,0.4-9c0-1.7,0-4,0-4
		c0.1-5.7-1.4-9.5-4.6-13.4c-3.2-3.8-10-6.4-14.7-3.3L19,3C9.3,3.4,7.1,10.7,6.6,18.8l0,4.3v9c0,2.6-1.9,4.8-5,5.2
		c0.4,1.8,5.8,2.4,8.1,2.4"/>
	<path class="st1" d="M28.7,35.6c0,0.6,0.7,1.7,0.7,1.7c0.7,0.6,7.3,1.6,9.7,5c2.5,3.4,1.4,15.3,1.4,16H4.7c0-0.8-1-12.7,1.5-16
		c2.5-3.4,9.1-4.3,9.8-4.9c0,0,0.8-1.8,0.8-2.3"/>
</g>
</svg>
