<svg xmlns="http://www.w3.org/2000/svg" xmlns:xlink="http://www.w3.org/1999/xlink" width="55" height="54" viewBox="0 0 55 54">
    <defs>
        <path id="a" d="M0 .504V52.25h51.898V.504z"/>
    </defs>
    <g fill="none" fill-rule="evenodd">
        <g transform="translate(0 1.396)">
            <mask id="b" fill="#fff">
                <use xlink:href="#a"/>
            </mask>
            <path fill="#E81C36" d="M49.747 46.358l-1.445 1.434c-.688.66-1.863 1.584-3.593 2.262-.972.375-1.924.612-2.91.73-.054.005-.274.02-.635.02-2.91 0-13.395-.981-26.012-13.593C2.73 24.788.741 17.58 1.59 10.581c.108-.956.344-1.905.72-2.906.687-1.744 1.611-2.922 2.266-3.597l1.428-1.452a2.438 2.438 0 0 1 1.71-.693c.584 0 1.11.206 1.482.575l8.196 8.19c.843.85.795 2.284-.113 3.193l-5.113 5.111-.108.105.285.481c.285.48.586 1.02.913 1.613 1.51 2.713 3.572 6.433 7.525 10.387 3.969 3.964 7.67 6.015 10.376 7.514.613.344 1.15.638 1.623.924l.484.285 5.215-5.216a2.416 2.416 0 0 1 1.702-.687c.586 0 1.117.203 1.488.579l8.185 8.18c.849.855.795 2.283-.107 3.19zm-7.063-12.392c-.64-.639-1.53-.987-2.503-.987-1.026 0-2.02.402-2.718 1.1l-4.425 4.426-1.198-.66c-2.633-1.461-6.237-3.465-10.044-7.272-3.818-3.82-5.823-7.428-7.283-10.072l-.656-1.163 4.431-4.432c1.466-1.471 1.521-3.814.113-5.22l-8.19-8.192c-.635-.64-1.526-.99-2.498-.99-1.025 0-2.02.403-2.718 1.109l-2.014 2.02-.187.309A12.716 12.716 0 0 0 .977 7.154a13.35 13.35 0 0 0-.817 3.254c-1.051 8.777 2.992 16.84 13.977 27.818C27.145 51.235 38.022 52.25 41.047 52.25c.52 0 .831-.032.918-.037a13.826 13.826 0 0 0 3.265-.823 12.713 12.713 0 0 0 3.196-1.81l.462-.36 1.88-1.847c1.466-1.466 1.51-3.808.107-5.21l-8.191-8.197z" mask="url(#b)"/>
        </g>
        <path fill="#E81C36" d="M26.496 18.863l-.145.308.333.084a11.415 11.415 0 0 1 5.29 2.999 11.512 11.512 0 0 1 2.938 5.02l.054.205.323.005c.08.005.16.005.246.016.2.016.392.038.586.059.171.022.349.042.52.059l.393.033-.091-.382a13.4 13.4 0 0 0-3.572-6.413 13.345 13.345 0 0 0-6.053-3.468l-.27-.072-.074.264c-.14.457-.296.886-.478 1.283M27.264 10.915l.027.203.204.045c3.921.725 7.455 2.573 10.226 5.342 3.185 3.187 5.124 7.247 5.618 11.746l.022.216.623.091c.199.017.392.017.59.017.145-.006.291 0 .435.005l.324.01-.028-.322c-.5-5.063-2.637-9.613-6.187-13.163-3.174-3.176-7.23-5.25-11.73-5.99L27 9.05l.06.388c.079.492.144.987.203 1.476"/>
        <path fill="#E81C36" d="M45.364 8.864C40.09 3.589 33.07.453 25.588.02l-.355-.02.059.349c.076.471.166.957.264 1.45l.043.21.214.009c6.87.474 13.316 3.396 18.154 8.24 4.765 4.763 7.676 11.135 8.197 17.94l.022.279.279-.016c.312-.022.617-.043.93-.07l.772-.065-.026-.285c-.554-7.265-3.674-14.076-8.777-19.178"/>
    </g>
</svg>
