<?xml version="1.0" encoding="UTF-8"?>
<svg width="22px" height="21px" viewBox="0 0 22 21" version="1.1" xmlns="http://www.w3.org/2000/svg" xmlns:xlink="http://www.w3.org/1999/xlink">
    <!-- Generator: Sketch 49.1 (51147) - http://www.bohemiancoding.com/sketch -->
    <title>tag-negro</title>
    <desc>Created with Sketch.</desc>
    <defs></defs>
    <g id="Desktop-(ésika)" stroke="none" stroke-width="1" fill="none" fill-rule="evenodd">
        <path d="M15.9498595,3.93601948 C15.627818,3.93601948 15.3264867,4.06131534 15.1007471,4.28705497 C14.6306287,4.7582088 14.6326997,5.52655197 15.1059246,5.99977681 C15.3347707,6.22965846 15.6392086,6.35598981 15.9622855,6.35702532 L15.9664275,6.35702532 C16.2874334,6.35702532 16.5887648,6.23172946 16.8155399,6.00598983 C17.2856582,5.534836 17.2825517,4.76649283 16.8093269,4.29326799 C16.5794452,4.06338634 16.2739719,3.93601948 15.9498595,3.93601948 Z M15.9664275,7.28897795 L15.9602145,7.28897795 C15.3886169,7.28690694 14.8501554,7.06427381 14.4463092,6.65835667 C13.6096229,5.82167031 13.6075518,4.46309047 14.4411317,3.62951062 C15.2477885,2.82181834 16.659179,2.82181834 17.4689422,3.63468813 C18.3045931,4.47137449 18.3076996,5.83098983 17.4751553,6.66353418 C17.0723446,7.06738032 16.5359541,7.28897795 15.9664275,7.28897795 Z M0.605777138,11.3326169 L0.927818547,11.6681198 L9.63743364,20.056729 L20.4449776,9.69134473 C20.6313682,9.51013172 20.8208652,9.05243943 20.8125812,8.80081222 L20.567167,1.22610833 C20.5640605,1.21057579 20.5257469,1.17019117 20.4770782,1.16812017 L12.6341791,0.930989997 C12.3287057,0.920634968 11.8616939,1.1090965 11.6628774,1.30066454 L0.92885405,11.6670843 L0.605777138,11.3326169 Z M9.6746785,21 C9.42719415,21 9.1786743,20.9099116 8.99021342,20.7276637 L0.283734753,12.3173378 C0.100451366,12.1413029 7.92735496e-06,11.9062446 7.92735496e-06,11.6566892 C-0.00102757201,11.4071339 0.0994158664,11.173111 0.281663755,10.9970761 L11.0156502,0.630691982 C11.3946429,0.266196206 12.155735,-0.00510462801 12.6620942,7.28688128e-05 L20.5049664,0.237202223 C21.037213,0.252734714 21.4835133,0.68350245 21.4990458,1.19711014 L21.7454946,8.77075249 C21.7610271,9.28436018 21.4679808,9.99781924 21.0920945,10.3612795 L10.3581081,20.7276637 C10.1696472,20.9099116 9.92216285,21 9.6746785,21 Z" id="tag-negro" fill="#000000"></path>
    </g>
</svg>