<?xml version="1.0" encoding="utf-8"?>
<!-- Generator: Adobe Illustrator 19.0.0, SVG Export Plug-In . SVG Version: 6.00 Build 0)  -->
<svg version="1.1" id="Capa_1" xmlns="http://www.w3.org/2000/svg" xmlns:xlink="http://www.w3.org/1999/xlink" x="0px" y="0px"
	 viewBox="0 0 20 20" style="enable-background:new 0 0 20 20;" xml:space="preserve">
<g id="XMLID_3_">
	<path id="XMLID_20_" d="M11.2,16c-1.1,0-2,0.9-2,2c0,1.1,0.9,2,2,2c1.1,0,2-0.9,2-2C13.2,16.9,12.3,16,11.2,16L11.2,16z M11.2,19.1
		c-0.6,0-1.1-0.5-1.1-1.1c0-0.6,0.5-1.1,1.1-1.1c0.6,0,1.1,0.5,1.1,1.1C12.3,18.6,11.8,19.1,11.2,19.1L11.2,19.1z M11.2,19.1"/>
	<path id="XMLID_16_" d="M5,16c-1.1,0-2,0.9-2,2c0,1.1,0.9,2,2,2c1.1,0,2-0.9,2-2C7,16.9,6.1,16,5,16L5,16z M5,19.1
		c-0.6,0-1.1-0.5-1.1-1.1c0-0.6,0.5-1.1,1.1-1.1c0.6,0,1.1,0.5,1.1,1.1C6.1,18.6,5.6,19.1,5,19.1L5,19.1z M5,19.1"/>
	<path id="XMLID_4_" d="M0.1,5.1C0,5.2,0,5.3,0,5.4l2.2,9c0.1,0.2,0.2,0.3,0.4,0.3h10.9c0.2,0,0.4-0.1,0.4-0.3l2.2-9l1.2-4.6h2.1
		c0.2,0,0.4-0.2,0.4-0.4C20,0.2,19.8,0,19.6,0l-2.4,0c0,0,0,0,0,0c0,0-0.1,0-0.1,0c0,0-0.1,0-0.1,0c0,0,0,0-0.1,0c0,0,0,0-0.1,0.1
		c0,0,0,0,0,0.1c0,0,0,0.1,0,0.1c0,0,0,0,0,0l-1.2,4.6h-15C0.3,4.9,0.2,5,0.1,5.1L0.1,5.1z M1,5.8h14.2l-2,8.1H3L1,5.8z M3,13.9"/>
</g>
</svg>
