<svg width="13" height="11" viewBox="0 0 13 11" fill="none" xmlns="http://www.w3.org/2000/svg">
<path d="M3.46526 2.31692H3.63004L3.74496 2.19882L4.68656 1.23106H7.87874L8.82035 2.19882L8.93526 2.31692H9.10004H10.9783C11.4376 2.31692 11.762 2.65893 11.762 3.01254V9.52769C11.762 9.88129 11.4376 10.2233 10.9783 10.2233H1.587C1.12766 10.2233 0.80333 9.88129 0.80333 9.52769V3.01254C0.80333 2.65893 1.12766 2.31692 1.587 2.31692H3.46526Z" stroke="white" stroke-width="0.780488"/>
<path d="M6.28269 7.29131C5.4022 7.29131 4.71642 6.60565 4.71642 5.72701C4.71642 4.84836 5.4022 4.1627 6.28269 4.1627C7.16319 4.1627 7.84897 4.84836 7.84897 5.72701C7.84897 6.60565 7.16319 7.29131 6.28269 7.29131Z" stroke="white" stroke-width="0.780488"/>
</svg>
