<svg xmlns="http://www.w3.org/2000/svg" width="24" height="24" viewBox="0 0 24 24">
    <path fill="#000" fill-rule="evenodd" d="M20 7H4V5h16v2zm-1 12.5c0 .827-.673 1.5-1.5 1.5H15V8h4v11.5zM10 21h4V8h-4v13zm-1 0H6.5c-.827 0-1.5-.673-1.5-1.5V8h4v13zm2.5-18h1c.652 0 1.208.418 1.415 1h-3.83c.207-.582.763-1 1.415-1zm9 1h-5.551A2.503 2.503 0 0 0 12.5 2h-1c-1.207 0-2.217.86-2.449 2H3.5a.5.5 0 0 0-.5.5v3a.5.5 0 0 0 .5.5H4v11.5C4 20.879 5.122 22 6.5 22h11c1.378 0 2.5-1.121 2.5-2.5V8h.5a.5.5 0 0 0 .5-.5v-3a.5.5 0 0 0-.5-.5z"/>
</svg>
