<svg width="55" height="51" viewBox="0 0 55 51" fill="none" xmlns="http://www.w3.org/2000/svg">
<mask id="path-1-inside-1" fill="white">
<path fill-rule="evenodd" clip-rule="evenodd" d="M14.6686 29.7755L23 21.406V0H0V29.7755H14.6686Z"/>
</mask>
<path d="M14.6686 29.7755V31.0755H15.2088L15.5899 30.6927L14.6686 29.7755ZM23 21.406L23.9213 22.3231L24.3 21.9427V21.406H23ZM23 0H24.3V-1.3H23V0ZM0 0V-1.3H-1.3V0H0ZM0 29.7755H-1.3V31.0755H0V29.7755ZM15.5899 30.6927L23.9213 22.3231L22.0787 20.4888L13.7472 28.8584L15.5899 30.6927ZM21.7 0V21.406H24.3V0H21.7ZM0 1.3H23V-1.3H0V1.3ZM1.3 29.7755V0H-1.3V29.7755H1.3ZM14.6686 28.4755H0V31.0755H14.6686V28.4755Z" transform="translate(14 38.8827) scale(1 -1)" fill="#E81C36" mask="url(#path-1-inside-1)"/>
<path d="M0 8.44238V0H8.39973" transform="translate(28.1832 17.7337) scale(1 -1)" stroke="#E81C36" stroke-width="1.3"/>
<path d="M0 0.568864H16.0782" transform="translate(17.6316 27.5385) scale(1 -1)" stroke="#E81C36" stroke-width="1.3" stroke-linecap="round" stroke-linejoin="round"/>
<path d="M0 0.308674H10.8966" transform="translate(17.6316 31.1008) scale(1 -1)" stroke="#E81C36" stroke-width="1.3" stroke-linecap="round" stroke-linejoin="round"/>
<path d="M0 0.568864H15.8749" transform="translate(17.7053 24.1071) scale(1 -1)" stroke="#E81C36" stroke-width="1.3" stroke-linecap="round" stroke-linejoin="round"/>
<path d="M6.28788 12.6803C3.20933 12.6803 0.65 10.0234 0.65 6.66515C0.65 3.30687 3.20933 0.65 6.28788 0.65C9.36643 0.65 11.9258 3.30687 11.9258 6.66515C11.9258 10.0234 9.36643 12.6803 6.28788 12.6803Z" transform="translate(30 28.3364)" fill="white" stroke="#E81C36" stroke-width="1.3"/>
<path d="M0 2.82321L2.00938 4.8338L6.84029 0" transform="translate(33.0303 32.6728)" stroke="#E81C36" stroke-width="1.3"/>
<path fill-rule="evenodd" clip-rule="evenodd" d="M24.96 49.2773C38.7451 49.2773 49.9201 38.2462 49.9201 24.6387C49.9201 11.0311 38.7451 0 24.96 0C11.175 0 0 11.0311 0 24.6387C0 38.2462 11.175 49.2773 24.96 49.2773Z" transform="translate(1 1)" stroke="#E81C36"/>
</svg>
