<svg width="15" height="18" viewBox="0 0 15 18" fill="none" xmlns="http://www.w3.org/2000/svg">
<mask id="path-2-outside-1" maskUnits="userSpaceOnUse" x="-1" y="-1" width="15" height="18" fill="black">
<rect fill="white" x="-1" y="-1" width="15" height="18"/>
<path fill-rule="evenodd" clip-rule="evenodd" d="M6.5 0C3.87256 0.00242615 1.74365 2.01596 1.74121 4.50055V6.50494H0.231934C0.104004 6.50494 0 6.60323 0 6.72447V15.7805C0 15.9017 0.104004 16 0.231934 16H12.7681C12.896 16 13 15.9017 13 15.7805V6.72447C13 6.60323 12.896 6.50494 12.7681 6.50494H11.2588V4.50055C11.2563 2.01596 9.12744 0.00242615 6.5 0ZM2.20557 4.50055C2.20557 2.25746 4.12842 0.439072 6.5 0.439072C8.87207 0.439072 10.7949 2.25746 10.7949 4.50055V6.50493H2.20557V4.50055ZM0.464355 6.94402V15.5609H12.5356V6.94402H0.464355Z"/>
</mask>
<path fill-rule="evenodd" clip-rule="evenodd" d="M6.5 0C3.87256 0.00242615 1.74365 2.01596 1.74121 4.50055V6.50494H0.231934C0.104004 6.50494 0 6.60323 0 6.72447V15.7805C0 15.9017 0.104004 16 0.231934 16H12.7681C12.896 16 13 15.9017 13 15.7805V6.72447C13 6.60323 12.896 6.50494 12.7681 6.50494H11.2588V4.50055C11.2563 2.01596 9.12744 0.00242615 6.5 0ZM2.20557 4.50055C2.20557 2.25746 4.12842 0.439072 6.5 0.439072C8.87207 0.439072 10.7949 2.25746 10.7949 4.50055V6.50493H2.20557V4.50055ZM0.464355 6.94402V15.5609H12.5356V6.94402H0.464355Z" transform="translate(1 1)" fill="#E81C36"/>
<path d="M1.74121 4.50055L1.24121 4.50006V4.50055H1.74121ZM6.5 0L6.50046 -0.500001L6.49954 -0.5L6.5 0ZM1.74121 6.50494V7.00494H2.24121V6.50494H1.74121ZM11.2588 6.50494H10.7588V7.00494H11.2588V6.50494ZM11.2588 4.50055H11.7588V4.50006L11.2588 4.50055ZM10.7949 6.50493V7.00493H11.2949V6.50493H10.7949ZM2.20557 6.50493H1.70557V7.00493H2.20557V6.50493ZM0.464355 15.5609H-0.0356445V16.0609H0.464355V15.5609ZM0.464355 6.94402V6.44402H-0.0356445V6.94402H0.464355ZM12.5356 15.5609V16.0609H13.0356V15.5609H12.5356ZM12.5356 6.94402H13.0356V6.44402H12.5356V6.94402ZM2.24121 4.50104C2.24336 2.31808 4.1222 0.502196 6.50046 0.5L6.49954 -0.5C3.62291 -0.497344 1.24395 1.71384 1.24121 4.50006L2.24121 4.50104ZM2.24121 6.50494V4.50055H1.24121V6.50494H2.24121ZM0.231934 7.00494H1.74121V6.00494H0.231934V7.00494ZM0.5 6.72447C0.5 6.90514 0.353651 7.00494 0.231934 7.00494V6.00494C-0.145644 6.00494 -0.5 6.30131 -0.5 6.72447H0.5ZM0.5 15.7805V6.72447H-0.5V15.7805H0.5ZM0.231934 15.5C0.353698 15.5 0.5 15.5998 0.5 15.7805H-0.5C-0.5 16.2036 -0.14569 16.5 0.231934 16.5V15.5ZM12.7681 15.5H0.231934V16.5H12.7681V15.5ZM12.5 15.7805C12.5 15.5998 12.6463 15.5 12.7681 15.5V16.5C13.1457 16.5 13.5 16.2036 13.5 15.7805H12.5ZM12.5 6.72447V15.7805H13.5V6.72447H12.5ZM12.7681 7.00494C12.6463 7.00494 12.5 6.90514 12.5 6.72447H13.5C13.5 6.30131 13.1456 6.00494 12.7681 6.00494V7.00494ZM11.2588 7.00494H12.7681V6.00494H11.2588V7.00494ZM10.7588 4.50055V6.50494H11.7588V4.50055H10.7588ZM6.49954 0.5C8.8778 0.502196 10.7566 2.31808 10.7588 4.50104L11.7588 4.50006C11.7561 1.71384 9.37709 -0.497344 6.50046 -0.5L6.49954 0.5ZM6.5 -0.0609283C3.87893 -0.0609283 1.70557 1.9554 1.70557 4.50055H2.70557C2.70557 2.55952 4.37791 0.939072 6.5 0.939072V-0.0609283ZM11.2949 4.50055C11.2949 1.95536 9.12152 -0.0609283 6.5 -0.0609283V0.939072C8.62262 0.939072 10.2949 2.55956 10.2949 4.50055H11.2949ZM11.2949 6.50493V4.50055H10.2949V6.50493H11.2949ZM2.20557 7.00493H10.7949V6.00493H2.20557V7.00493ZM1.70557 4.50055V6.50493H2.70557V4.50055H1.70557ZM0.964355 15.5609V6.94402H-0.0356445V15.5609H0.964355ZM12.5356 15.0609H0.464355V16.0609H12.5356V15.0609ZM12.0356 6.94402V15.5609H13.0356V6.94402H12.0356ZM0.464355 7.44402H12.5356V6.44402H0.464355V7.44402Z" transform="translate(1 1)" fill="#E81C36" mask="url(#path-2-outside-1)"/>
<path d="M0.297206 0.120072V2.04122" transform="translate(7.19727 11.3011)" stroke="#E81C36" stroke-width="0.616" stroke-linecap="square"/>
</svg>
