<svg width="25" height="20" viewBox="0 0 25 20" fill="none" xmlns="http://www.w3.org/2000/svg">
<mask id="path-2-outside-1" maskUnits="userSpaceOnUse" x="-1" y="-1" width="25" height="20" fill="black">
<rect fill="white" x="-1" y="-1" width="25" height="20"/>
<path fill-rule="evenodd" clip-rule="evenodd" d="M9.55945 0L7.88406 1.97777H0V17.561H23.4146V1.97777H15.8337L13.8982 0H9.55945ZM0.773926 2.76898H8.23848L9.91388 0.791214H13.5761L15.5122 2.76898H22.6401V16.7719H0.773926V2.76898Z"/>
</mask>
<path fill-rule="evenodd" clip-rule="evenodd" d="M9.55945 0L7.88406 1.97777H0V17.561H23.4146V1.97777H15.8337L13.8982 0H9.55945ZM0.773926 2.76898H8.23848L9.91388 0.791214H13.5761L15.5122 2.76898H22.6401V16.7719H0.773926V2.76898Z" transform="translate(1 1)" fill="white"/>
<path d="M9.55945 0V-0.55H9.30455L9.13979 -0.355503L9.55945 0ZM7.88406 1.97777V2.52777H8.13896L8.30372 2.33327L7.88406 1.97777ZM0 1.97777V1.42777H-0.55V1.97777H0ZM0 17.561H-0.55V18.111H0V17.561ZM23.4146 17.561V18.111H23.9646V17.561H23.4146ZM23.4146 1.97777H23.9646V1.42777H23.4146V1.97777ZM15.8337 1.97777L15.4406 2.36245L15.6024 2.52777H15.8337V1.97777ZM13.8982 0L14.2913 -0.384685L14.1295 -0.55H13.8982V0ZM0.773926 2.76898V2.21898H0.223926V2.76898H0.773926ZM8.23848 2.76898V3.31898H8.49338L8.65814 3.12448L8.23848 2.76898ZM9.91388 0.791214V0.241214H9.65897L9.49421 0.435711L9.91388 0.791214ZM13.5761 0.791214L13.9692 0.406476L13.8074 0.241214H13.5761V0.791214ZM15.5122 2.76898L15.1191 3.15372L15.2809 3.31898H15.5122V2.76898ZM22.6401 2.76898H23.1901V2.21898H22.6401V2.76898ZM22.6401 16.7719V17.3219H23.1901V16.7719H22.6401ZM0.773926 16.7719H0.223926V17.3219H0.773926V16.7719ZM9.13979 -0.355503L7.4644 1.62226L8.30372 2.33327L9.97912 0.355503L9.13979 -0.355503ZM7.88406 1.42777H0V2.52777H7.88406V1.42777ZM-0.55 1.97777V17.561H0.55V1.97777H-0.55ZM0 18.111H23.4146V17.011H0V18.111ZM23.9646 17.561V1.97777H22.8646V17.561H23.9646ZM23.4146 1.42777H15.8337V2.52777H23.4146V1.42777ZM16.2268 1.59308L14.2913 -0.384685L13.5051 0.384685L15.4406 2.36245L16.2268 1.59308ZM13.8982 -0.55H9.55945V0.55H13.8982V-0.55ZM0.773926 3.31898H8.23848V2.21898H0.773926V3.31898ZM8.65814 3.12448L10.3335 1.14672L9.49421 0.435711L7.81882 2.41348L8.65814 3.12448ZM9.91388 1.34121H13.5761V0.241214H9.91388V1.34121ZM13.1831 1.17595L15.1191 3.15372L15.9052 2.38424L13.9692 0.406476L13.1831 1.17595ZM15.5122 3.31898H22.6401V2.21898H15.5122V3.31898ZM22.0901 2.76898V16.7719H23.1901V2.76898H22.0901ZM22.6401 16.2219H0.773926V17.3219H22.6401V16.2219ZM1.32393 16.7719V2.76898H0.223926V16.7719H1.32393Z" transform="translate(1 1)" fill="white" mask="url(#path-2-outside-1)"/>
<mask id="path-4-outside-2" maskUnits="userSpaceOnUse" x="-1" y="-1" width="12" height="13" fill="black">
<rect fill="white" x="-1" y="-1" width="12" height="13"/>
<path fill-rule="evenodd" clip-rule="evenodd" d="M5.21617 0.790054C2.77186 0.790054 0.782715 2.79596 0.782715 5.26348C0.782715 7.73154 2.77186 9.73905 5.21617 9.73905C7.65836 9.73905 9.64751 7.73154 9.64751 5.26348C9.64751 2.79596 7.66048 0.790054 5.21617 0.790054ZM5.21608 10.5291C2.33886 10.5291 0 8.16589 0 5.26348C0 2.36161 2.33886 0 5.21608 0C8.09118 0 10.43 2.36161 10.43 5.26348C10.43 8.16589 8.09118 10.5291 5.21608 10.5291Z"/>
</mask>
<path fill-rule="evenodd" clip-rule="evenodd" d="M5.21617 0.790054C2.77186 0.790054 0.782715 2.79596 0.782715 5.26348C0.782715 7.73154 2.77186 9.73905 5.21617 9.73905C7.65836 9.73905 9.64751 7.73154 9.64751 5.26348C9.64751 2.79596 7.66048 0.790054 5.21617 0.790054ZM5.21608 10.5291C2.33886 10.5291 0 8.16589 0 5.26348C0 2.36161 2.33886 0 5.21608 0C8.09118 0 10.43 2.36161 10.43 5.26348C10.43 8.16589 8.09118 10.5291 5.21608 10.5291Z" transform="translate(7.61523 4.76534)" fill="white"/>
<path d="M5.21617 0.240054C2.46356 0.240054 0.232715 2.49677 0.232715 5.26348H1.33271C1.33271 3.09514 3.08017 1.34005 5.21617 1.34005V0.240054ZM0.232715 5.26348C0.232715 8.03043 2.46326 10.289 5.21617 10.289V9.18905C3.08047 9.18905 1.33271 7.43266 1.33271 5.26348H0.232715ZM5.21617 10.289C7.96714 10.289 10.1975 8.03026 10.1975 5.26348H9.09751C9.09751 7.43283 7.34959 9.18905 5.21617 9.18905V10.289ZM10.1975 5.26348C10.1975 2.49711 7.96913 0.240054 5.21617 0.240054V1.34005C7.35183 1.34005 9.09751 3.0948 9.09751 5.26348H10.1975ZM5.21608 9.97911C2.64766 9.97911 0.55 7.86719 0.55 5.26348H-0.55C-0.55 8.46459 2.03007 11.0791 5.21608 11.0791V9.97911ZM0.55 5.26348C0.55 2.66057 2.6474 0.55 5.21608 0.55V-0.55C2.03033 -0.55 -0.55 2.06266 -0.55 5.26348H0.55ZM5.21608 0.55C7.78249 0.55 9.88004 2.66042 9.88004 5.26348H10.98C10.98 2.06281 8.39986 -0.55 5.21608 -0.55V0.55ZM9.88004 5.26348C9.88004 7.86734 7.78224 9.97911 5.21608 9.97911V11.0791C8.40011 11.0791 10.98 8.46444 10.98 5.26348H9.88004Z" transform="translate(7.61523 4.76534)" fill="white" mask="url(#path-4-outside-2)"/>
<mask id="mask0" mask-type="alpha" maskUnits="userSpaceOnUse" x="1" y="1" width="24" height="18">
<path fill-rule="evenodd" clip-rule="evenodd" d="M0 17.5348H23.6599V0H0V17.5348Z" transform="translate(1 1.11714)" fill="white"/>
</mask>
<g mask="url(#mask0)">
<path fill-rule="evenodd" clip-rule="evenodd" d="M0 0.923784H2.21699V0H0V0.923784Z" transform="translate(3.34326 5.21767)" fill="white"/>
<path d="M-0.275 0.923784V1.19878H0H2.21699H2.49199V0.923784V0V-0.275H2.21699H0H-0.275V0V0.923784Z" transform="translate(3.34326 5.21767)" stroke="white" stroke-width="0.55"/>
</g>
</svg>
