<?xml version="1.0" encoding="UTF-8" standalone="no"?>
<svg width="13px" height="20px" viewBox="0 0 13 20" version="1.1" xmlns="http://www.w3.org/2000/svg" xmlns:xlink="http://www.w3.org/1999/xlink">
    <!-- Generator: sketchtool 39.1 (31720) - http://www.bohemiancoding.com/sketch -->
    <title>97369F38-10B1-494F-B4E0-1010A67B9AC9</title>
    <desc>Created with sketchtool.</desc>
    <defs></defs>
    <g id="Page-1" stroke="none" stroke-width="1" fill="none" fill-rule="evenodd">
        <g id="PENDIENTES-B---" transform="translate(-201.000000, -318.000000)" fill="#E81C36">
            <g id="Group" transform="translate(201.000000, 318.000000)">
                <g id="noun_587567_cc" transform="translate(6.500000, 10.000000) scale(-1, 1) translate(-6.500000, -10.000000) ">
                    <path d="M3.34236906,19.8404327 C2.88267038,19.8436494 2.42761142,19.7479687 2.00777281,19.5598204 C1.86004849,19.4925338 1.71784291,19.4136328 1.58248188,19.3238531 L0.44188625,18.4521224 C0.0244048833,18.1361567 -0.11690933,17.5702577 0.1026675,17.0937061 L1.50906844,14.0189306 C1.78281188,13.4198408 2.36600406,13.1177061 2.83969563,13.331351 L4.40955125,14.041649 C5.24744188,14.4215102 6.46619188,13.6179388 7.07397844,12.2894041 L8.37286938,9.44899592 C8.74864076,8.70719605 8.82605769,7.8486077 8.58908781,7.05103673 C8.48310163,6.72871621 8.25387252,6.46198218 7.95194156,6.3096449 C7.94281719,6.30526122 7.93369281,6.30087755 7.9249625,6.29609388 L6.38248406,5.59854286 C6.18393799,5.50577149 6.03083247,5.33672109 5.95758719,5.12939592 C5.85002261,4.80390674 5.87424673,4.44896479 6.02502469,4.14127347 L7.43142563,1.06649796 C7.64862893,0.589571874 8.16444035,0.326073488 8.67596438,0.430734694 L10.0577709,0.706167347 C10.0672934,0.707763265 10.0764178,0.710155102 10.0855422,0.712546939 C10.2425296,0.754911797 10.395892,0.809827108 10.5441619,0.876767347 C11.4341191,1.31770305 12.1085801,2.10173713 12.4139438,3.05031429 C13.2879378,5.39366531 12.8451863,9.0049551 11.2586703,12.4751388 C9.22386969,16.9250939 5.98378625,19.8404327 3.34236906,19.8404327 L3.34236906,19.8404327 Z M2.50646094,14.0759429 C2.38667446,14.1332375 2.29366826,14.2349688 2.24700125,14.3597429 L0.840994375,17.4341224 C0.781884965,17.5639652 0.820868292,17.7176453 0.934622813,17.8032245 L2.05140406,18.6582163 C2.14434173,18.7173593 2.2412433,18.7699667 2.34141375,18.8156612 C4.63966344,19.8540082 8.38795344,16.7971673 10.5203678,12.1343796 C12.019605,8.85472245 12.4540203,5.48378776 11.6530294,3.33654694 C11.4250188,2.5909387 10.9038078,1.97123764 10.2101269,1.62098776 C10.1049878,1.57356866 9.99635631,1.53438927 9.88520406,1.5038 L8.51807938,1.23114694 C8.37548207,1.20175749 8.23143058,1.2744516 8.1697525,1.40692653 L6.76374563,4.48170204 C6.69641002,4.59720633 6.6834803,4.73675198 6.72843844,4.86275918 L8.28518844,5.5638898 C8.29550313,5.56867347 8.30541969,5.57385306 8.31534031,5.57903673 C8.8028795,5.82079631 9.17490211,6.24718926 9.34961219,6.76446531 C9.66200446,7.76600832 9.57656176,8.85014952 9.11118,9.78981633 L7.811895,12.6306327 C6.99503188,14.4175429 5.35098688,15.3630163 4.07630031,14.7862449 L2.50646094,14.0759429 Z" id="Shape"></path>
                </g>
            </g>
        </g>
    </g>
</svg>