<svg width="79" height="47" viewBox="0 0 79 47" fill="none" xmlns="http://www.w3.org/2000/svg">
<path fill-rule="evenodd" clip-rule="evenodd" d="M0 0H66.4V37H0V0Z" transform="translate(1.7998 9)" fill="white"/>
<path d="M0 0H66.4V37H0V0Z" transform="translate(1.7998 9)" stroke="black" stroke-linecap="round" stroke-linejoin="round"/>
<path d="M0 0L33.8608 24.1157L67.7318 0" transform="translate(1 10.6086)" stroke="black"/>
<path fill-rule="evenodd" clip-rule="evenodd" d="M10 20C15.5228 20 20 15.5228 20 10C20 4.47715 15.5228 0 10 0C4.47715 0 0 4.47715 0 10C0 15.5228 4.47715 20 10 20Z" transform="translate(59)" fill="#E81C36"/>
<path d="M1.62745 10.8807H3.4001V5.7806C3.4001 5.58297 3.40615 5.37525 3.41825 5.15745L2.15985 6.21015C2.10742 6.25452 2.05297 6.28477 1.9965 6.3009C1.94407 6.31703 1.89163 6.3251 1.8392 6.3251C1.75853 6.3251 1.68392 6.30897 1.61535 6.2767C1.55082 6.2404 1.50242 6.20007 1.47015 6.1557L0.99825 5.50835L3.6663 3.2396H4.89445V10.8807H6.46745V12H1.62745V10.8807Z" transform="translate(65 2)" fill="white"/>
</svg>
