<svg width="13" height="18" viewBox="0 0 13 18" fill="none" xmlns="http://www.w3.org/2000/svg">
<mask id="mask0" mask-type="alpha" maskUnits="userSpaceOnUse" x="0" y="0" width="13" height="18">
<path fill-rule="evenodd" clip-rule="evenodd" d="M0 0.120117H12.9282V17.9962H0V0.120117Z" fill="white"/>
</mask>
<g mask="url(#mask0)">
<path fill-rule="evenodd" clip-rule="evenodd" d="M11.2103 17.0394H2.72858C2.39508 17.0394 2.04371 17.0722 1.71142 17.0394C0.956452 16.9648 0.919639 16.383 0.919639 15.8031V10.9816V8.65574C0.919639 8.30822 0.854396 7.8821 0.941386 7.53806C1.11002 6.87206 1.77509 6.94142 2.30517 6.94142H4.35334H9.68018C10.1569 6.94142 10.6376 6.92366 11.1139 6.94142C11.7129 6.96362 11.9862 7.33898 12 7.89242C12.0417 9.55346 12 11.2207 12 12.8821V15.4761C12 16.1062 12.1136 16.984 11.2103 17.0394ZM3.48926 4.06238C3.50081 2.58734 4.49707 1.28102 6.0171 1.05206C7.86941 0.773178 9.41107 2.25194 9.43051 4.03922C9.43755 4.70366 9.43355 5.36834 9.4316 6.0329C8.38067 6.03302 7.32937 6.04142 6.27868 6.04142C5.35009 6.04142 4.41895 6.02594 3.48829 6.02378C3.48708 5.37002 3.48416 4.71614 3.48926 4.06238ZM12.9112 8.77634C12.9112 8.32622 12.9692 7.81826 12.8711 7.37318C12.6782 6.49742 11.9097 6.05258 11.053 6.04142C10.816 6.03818 10.579 6.03758 10.3421 6.03614C10.3427 5.40866 10.344 4.78118 10.3417 4.1537C10.3365 2.78414 9.76912 1.5437 8.60094 0.761898C6.02609 -0.961182 2.63406 1.01414 2.57805 3.9713C2.56517 4.65626 2.57295 5.34218 2.57647 6.02774C2.31513 6.0305 2.05404 6.03434 1.79307 6.04142C0.807377 6.06782 0.0536199 6.72794 0.00842368 7.72238C-0.0105296 8.14274 0.00842368 8.56814 0.00842368 8.98874V14.6221C0.00842368 15.1552 -0.0102866 15.6918 0.00842368 16.2245C0.0421994 17.1871 0.744442 17.8983 1.72248 17.9394C4.76679 18.0673 7.84244 17.9394 10.8898 17.9394H11.2103C11.2482 17.9394 11.2834 17.9353 11.3162 17.9283C12.2624 17.8236 12.892 17.1197 12.9112 16.1681C12.9234 15.5709 12.9112 14.9719 12.9112 14.3746V8.77634Z" fill="#FF1634"/>
</g>
<path fill-rule="evenodd" clip-rule="evenodd" d="M7.25554 11.6829C7.05531 11.8561 6.89992 11.9085 6.86068 12.1881C6.8269 12.4282 6.86068 12.6957 6.86068 12.9374V14.501H6.06731C6.09137 13.7342 6.15564 12.9343 6.05881 12.1915C6.00815 11.8035 5.62774 11.7187 5.41902 11.4182C5.11673 10.9828 5.13909 10.391 5.45899 9.97423C6.19476 9.01543 7.66243 9.58039 7.71722 10.721C7.69827 11.1026 7.54895 11.4295 7.25554 11.6829ZM8.61908 10.604C8.46745 9.08263 6.82314 8.05015 5.38864 8.86027C3.99946 9.64459 4.00189 11.474 5.14759 12.4099V14.951C5.14759 15.1943 5.35632 15.401 5.6032 15.401H7.31629C7.56256 15.401 7.77189 15.1949 7.77189 14.951V12.4131C8.27501 12.0158 8.56028 11.4835 8.61981 10.8352C8.62649 10.7998 8.63038 10.7623 8.62844 10.721C8.6305 10.6786 8.62625 10.6402 8.61908 10.604Z" fill="#FF1634"/>
</svg>
