<svg width="60" height="60" viewBox="0 0 60 60" fill="none" xmlns="http://www.w3.org/2000/svg">
<mask id="mask0" mask-type="alpha" maskUnits="userSpaceOnUse" x="0" y="0" width="60" height="60">
<path fill-rule="evenodd" clip-rule="evenodd" d="M0 0.526367H59.9607V59.9611H0V0.526367Z" fill="white"/>
</mask>
<g mask="url(#mask0)">
<path fill-rule="evenodd" clip-rule="evenodd" d="M28.9184 2.65847V7.48742C28.9184 8.06742 29.3947 8.54005 29.9804 8.54005C30.566 8.54005 31.0423 8.06742 31.0423 7.48742V2.65847C45.6674 3.20531 57.4359 14.9785 57.8182 29.5169H52.4071C51.8219 29.5169 51.3451 29.9895 51.3451 30.5695C51.3451 31.1501 51.8219 31.6222 52.4071 31.6222H57.8012C57.0919 45.8606 45.4492 57.2906 31.0423 57.829V52.4737C31.0423 51.8937 30.566 51.4211 29.9804 51.4211C29.3947 51.4211 28.9184 51.8937 28.9184 52.4737V57.829C14.5115 57.2906 2.86885 45.8606 2.15947 31.6222H7.55363C8.13876 31.6222 8.61558 31.1501 8.61558 30.5695C8.61558 29.9895 8.13876 29.5169 7.55363 29.5169H2.14248C2.52478 14.9785 14.2933 3.20531 28.9184 2.65847ZM29.9804 0.526367C13.449 0.526367 0 13.8574 0 30.2437C0 46.6301 13.449 59.9611 29.9804 59.9611C46.5117 59.9611 59.9607 46.6301 59.9607 30.2437C59.9607 13.8574 46.5117 0.526367 29.9804 0.526367Z" fill="#EB354D"/>
</g>
<path fill-rule="evenodd" clip-rule="evenodd" d="M28.6555 30.2819C28.6566 30.3229 28.6645 30.364 28.6693 30.405C28.6752 30.4498 28.6783 30.495 28.6884 30.5377C28.6975 30.5777 28.7128 30.6155 28.7261 30.654C28.7394 30.694 28.7505 30.7361 28.7675 30.775C28.7936 30.8329 28.827 30.8871 28.8615 30.9419C28.8711 30.9571 28.8785 30.9745 28.8886 30.9892C28.93 31.0487 28.9778 31.1034 29.0293 31.1555C29.0373 31.164 29.0436 31.1729 29.0516 31.1813C29.0952 31.2234 29.1445 31.2592 29.1944 31.2966C29.2157 31.3119 29.2348 31.3292 29.2571 31.344C29.2661 31.3498 29.2741 31.3582 29.2842 31.3645L38.7652 37.154C38.9755 37.2808 39.2155 37.3482 39.4598 37.3482C39.9244 37.3482 40.3475 37.114 40.5907 36.7224C40.9741 36.1045 40.7792 35.2929 40.1564 34.9119L31.2982 29.5029L31.081 13.194C31.072 12.4777 30.4762 11.895 29.7366 11.895C29.3819 11.8998 29.0505 12.0413 28.8026 12.2929C28.5557 12.5445 28.4219 12.8771 28.4261 13.2282L28.6528 30.2608C28.6528 30.2682 28.655 30.2745 28.6555 30.2819Z" fill="#EB354D"/>
</svg>
