<svg width="72" height="51" viewBox="0 0 72 51" fill="none" xmlns="http://www.w3.org/2000/svg">
<path d="M61.6451 21.2278C61.6451 9.57504 47.8216 0 30.8186 0C13.8155 0 0 9.5078 0 21.2009C0 27.925 3.97454 33.553 11.5341 37.5134C10.7392 43.7735 5.5564 48.198 5.50871 48.2719C5.16813 48.5545 5.05946 48.9816 5.23246 49.3577C5.40545 49.7338 5.82681 49.9864 6.30362 50C6.87595 50 18.0603 49.1931 24.7693 42.3749H30.7868C47.8216 42.3615 61.6451 32.8806 61.6451 21.2278Z" transform="translate(0.5 0.5)" fill="white"/>
<path fill-rule="evenodd" clip-rule="evenodd" d="M9.24972 6.30362C14.9223 2.40082 22.7286 0 31.3186 0C39.9093 0 47.7176 2.41802 53.3919 6.33255C59.0633 10.2451 62.6451 15.6889 62.6451 21.7278C62.6451 27.7674 59.0625 33.1879 53.3867 37.0785C47.7083 40.9709 39.8924 43.3681 31.2872 43.3749H25.4772C22.0548 46.7772 17.565 48.675 13.872 49.7252C10.1266 50.7903 7.1413 51 6.80362 51H6.79651L6.78941 50.9998C6.1582 50.9819 5.54454 50.6456 5.27821 50.0667C5.00632 49.4756 5.18537 48.8222 5.66511 48.4077C5.67145 48.4014 5.67755 48.3956 5.68248 48.3908C5.69643 48.3775 5.71484 48.3603 5.73463 48.3419L5.74643 48.3309C5.78635 48.2937 5.8392 48.2445 5.90453 48.1825C6.04825 48.0461 6.25238 47.8479 6.49883 47.5927C6.99212 47.0819 7.65422 46.3431 8.33894 45.4155C9.66034 43.6255 11.0462 41.1593 11.4901 38.2909C4.01787 34.2791 0 28.5682 0 21.7009C0 15.6421 3.57955 10.2048 9.24972 6.30362ZM9.81654 7.12746C4.32819 10.9035 1 16.0666 1 21.7009C1 28.1868 4.81932 33.6692 12.2661 37.5705L12.5739 37.7318L12.5301 38.0764C12.1179 41.3228 10.5721 44.0741 9.14347 46.0094C8.42716 46.9798 7.73494 47.7522 7.2182 48.2873C6.95963 48.5551 6.74483 48.7637 6.59288 48.9079C6.52398 48.9732 6.46801 49.0254 6.428 49.0627L6.41638 49.0735C6.40962 49.0798 6.40364 49.0854 6.39835 49.0903L6.38721 49.1076L6.32798 49.1567C6.14477 49.3087 6.11715 49.4975 6.1867 49.6488C6.26574 49.8206 6.49184 49.9884 6.81025 50C7.08798 49.9966 9.96278 49.7973 13.5984 48.7634C17.2642 47.7209 21.6441 45.8462 24.9129 42.5242L25.0598 42.3749H31.2864C39.716 42.3683 47.3293 40.0183 52.8213 36.2537C58.3159 32.4873 61.6451 27.341 61.6451 21.7278C61.6451 16.1139 58.3152 10.9438 52.8241 7.15568C47.3358 3.3695 39.7309 1 31.3186 1C22.9055 1 15.3025 3.35308 9.81654 7.12746Z" fill="black"/>
<path d="M6.195 1.953C6.14367 2.05567 6.083 2.128 6.013 2.17C5.94767 2.212 5.86833 2.233 5.775 2.233C5.68167 2.233 5.57667 2.198 5.46 2.128C5.34333 2.05333 5.20567 1.97167 5.047 1.883C4.88833 1.79433 4.70167 1.715 4.487 1.645C4.277 1.57033 4.02733 1.533 3.738 1.533C3.47667 1.533 3.248 1.56567 3.052 1.631C2.86067 1.69167 2.69733 1.778 2.562 1.89C2.43133 2.002 2.33333 2.13733 2.268 2.296C2.20267 2.45 2.17 2.62033 2.17 2.807C2.17 3.045 2.23533 3.24333 2.366 3.402C2.50133 3.56067 2.67867 3.696 2.898 3.808C3.11733 3.92 3.367 4.02033 3.647 4.109C3.927 4.19767 4.21167 4.29333 4.501 4.396C4.795 4.494 5.082 4.61067 5.362 4.746C5.642 4.87667 5.89167 5.04467 6.111 5.25C6.33033 5.45067 6.50533 5.698 6.636 5.992C6.77133 6.286 6.839 6.643 6.839 7.063C6.839 7.52033 6.75967 7.94967 6.601 8.351C6.447 8.74767 6.21833 9.09533 5.915 9.394C5.61633 9.688 5.25 9.92133 4.816 10.094C4.382 10.262 3.885 10.346 3.325 10.346C3.003 10.346 2.68567 10.3133 2.373 10.248C2.06033 10.1873 1.75933 10.0987 1.47 9.982C1.18533 9.86533 0.917 9.72533 0.665 9.562C0.417667 9.39867 0.196 9.21667 0 9.016L0.546 8.113C0.597333 8.04767 0.658 7.994 0.728 7.952C0.802667 7.90533 0.884333 7.882 0.973 7.882C1.08967 7.882 1.21567 7.931 1.351 8.029C1.48633 8.12233 1.645 8.22733 1.827 8.344C2.01367 8.46067 2.23067 8.568 2.478 8.666C2.73 8.75933 3.031 8.806 3.381 8.806C3.91767 8.806 4.333 8.68 4.627 8.428C4.921 8.17133 5.068 7.805 5.068 7.329C5.068 7.063 5.00033 6.846 4.865 6.678C4.73433 6.51 4.55933 6.37 4.34 6.258C4.12067 6.14133 3.871 6.04333 3.591 5.964C3.311 5.88467 3.02633 5.79833 2.737 5.705C2.44767 5.61167 2.163 5.49967 1.883 5.369C1.603 5.23833 1.35333 5.068 1.134 4.858C0.914667 4.648 0.737334 4.38667 0.602 4.074C0.471334 3.75667 0.406 3.367 0.406 2.905C0.406 2.53633 0.478333 2.177 0.623 1.827C0.772334 1.477 0.987 1.16667 1.267 0.896C1.55167 0.625334 1.89933 0.408334 2.31 0.245C2.72067 0.0816667 3.18967 0 3.717 0C4.31433 0 4.865 0.0933332 5.369 0.28C5.873 0.466667 6.30233 0.728 6.657 1.064L6.195 1.953Z" transform="translate(17.7383 16.866)" fill="black"/>
<path d="M13.3579 6.034C13.4372 6.18333 13.5095 6.33967 13.5749 6.503C13.6449 6.66167 13.7125 6.82267 13.7779 6.986C13.8432 6.818 13.9109 6.65233 13.9809 6.489C14.0509 6.32567 14.1255 6.16933 14.2049 6.02L17.2009 0.413C17.2382 0.343 17.2755 0.287 17.3129 0.245C17.3549 0.203 17.3992 0.172667 17.4459 0.154C17.4972 0.135333 17.5532 0.123667 17.6139 0.119C17.6745 0.114334 17.7469 0.112 17.8309 0.112H19.2519V10.234H17.5929V3.696C17.5929 3.57467 17.5952 3.44167 17.5999 3.297C17.6092 3.15233 17.6209 3.00533 17.6349 2.856L14.5759 8.596C14.5059 8.72667 14.4149 8.82933 14.3029 8.904C14.1909 8.974 14.0602 9.009 13.9109 9.009H13.6519C13.5025 9.009 13.3719 8.974 13.2599 8.904C13.1479 8.82933 13.0569 8.72667 12.9869 8.596L9.88586 2.835C9.90453 2.989 9.91619 3.14067 9.92086 3.29C9.93019 3.43467 9.93486 3.57 9.93486 3.696V10.234H8.27586V0.112H9.69686C9.78086 0.112 9.85319 0.114334 9.91386 0.119C9.97453 0.123667 10.0282 0.135333 10.0749 0.154C10.1262 0.172667 10.1729 0.203 10.2149 0.245C10.2569 0.287 10.2965 0.343 10.3339 0.413L13.3579 6.034Z" transform="translate(17.7383 16.866)" fill="black"/>
<path d="M26.7165 1.953C26.6652 2.05567 26.6045 2.128 26.5345 2.17C26.4692 2.212 26.3898 2.233 26.2965 2.233C26.2032 2.233 26.0982 2.198 25.9815 2.128C25.8648 2.05333 25.7272 1.97167 25.5685 1.883C25.4098 1.79433 25.2232 1.715 25.0085 1.645C24.7985 1.57033 24.5488 1.533 24.2595 1.533C23.9982 1.533 23.7695 1.56567 23.5735 1.631C23.3822 1.69167 23.2188 1.778 23.0835 1.89C22.9528 2.002 22.8548 2.13733 22.7895 2.296C22.7242 2.45 22.6915 2.62033 22.6915 2.807C22.6915 3.045 22.7568 3.24333 22.8875 3.402C23.0228 3.56067 23.2001 3.696 23.4195 3.808C23.6388 3.92 23.8885 4.02033 24.1685 4.109C24.4485 4.19767 24.7332 4.29333 25.0225 4.396C25.3165 4.494 25.6035 4.61067 25.8835 4.746C26.1635 4.87667 26.4132 5.04467 26.6325 5.25C26.8518 5.45067 27.0268 5.698 27.1575 5.992C27.2928 6.286 27.3605 6.643 27.3605 7.063C27.3605 7.52033 27.2812 7.94967 27.1225 8.351C26.9685 8.74767 26.7398 9.09533 26.4365 9.394C26.1378 9.688 25.7715 9.92133 25.3375 10.094C24.9035 10.262 24.4065 10.346 23.8465 10.346C23.5245 10.346 23.2072 10.3133 22.8945 10.248C22.5818 10.1873 22.2808 10.0987 21.9915 9.982C21.7068 9.86533 21.4385 9.72533 21.1865 9.562C20.9392 9.39867 20.7175 9.21667 20.5215 9.016L21.0675 8.113C21.1188 8.04767 21.1795 7.994 21.2495 7.952C21.3242 7.90533 21.4058 7.882 21.4945 7.882C21.6112 7.882 21.7372 7.931 21.8725 8.029C22.0078 8.12233 22.1665 8.22733 22.3485 8.344C22.5352 8.46067 22.7522 8.568 22.9995 8.666C23.2515 8.75933 23.5525 8.806 23.9025 8.806C24.4392 8.806 24.8545 8.68 25.1485 8.428C25.4425 8.17133 25.5895 7.805 25.5895 7.329C25.5895 7.063 25.5218 6.846 25.3865 6.678C25.2558 6.51 25.0808 6.37 24.8615 6.258C24.6422 6.14133 24.3925 6.04333 24.1125 5.964C23.8325 5.88467 23.5478 5.79833 23.2585 5.705C22.9692 5.61167 22.6845 5.49967 22.4045 5.369C22.1245 5.23833 21.8748 5.068 21.6555 4.858C21.4361 4.648 21.2588 4.38667 21.1235 4.074C20.9928 3.75667 20.9275 3.367 20.9275 2.905C20.9275 2.53633 20.9998 2.177 21.1445 1.827C21.2938 1.477 21.5085 1.16667 21.7885 0.896C22.0731 0.625334 22.4208 0.408334 22.8315 0.245C23.2422 0.0816667 23.7112 0 24.2385 0C24.8358 0 25.3865 0.0933332 25.8905 0.28C26.3945 0.466667 26.8238 0.728 27.1785 1.064L26.7165 1.953Z" transform="translate(17.7383 16.866)" fill="black"/>
<path fill-rule="evenodd" clip-rule="evenodd" d="M10 20C15.5228 20 20 15.5228 20 10C20 4.47715 15.5228 0 10 0C4.47715 0 0 4.47715 0 10C0 15.5228 4.47715 20 10 20Z" transform="translate(51.5 0.5)" fill="#E81C36"/>
<path d="M0.6292 7.64115H2.40185V2.541C2.40185 2.34337 2.4079 2.13565 2.42 1.91785L1.1616 2.97055C1.10917 3.01492 1.05472 3.04517 0.99825 3.0613C0.945817 3.07743 0.893383 3.0855 0.84095 3.0855C0.760283 3.0855 0.685667 3.06937 0.6171 3.0371C0.552567 3.0008 0.504167 2.96047 0.4719 2.9161L0 2.26875L2.66805 0H3.8962V7.64115H5.4692V8.7604H0.6292V7.64115Z" transform="translate(58.498 5.73962)" fill="white"/>
</svg>
