<svg width="6" height="11" viewBox="0 0 6 11" version="1.1" xmlns="http://www.w3.org/2000/svg" xmlns:xlink="http://www.w3.org/1999/xlink">
<title>Shape</title>
<desc>Created using Figma</desc>
<g id="Canvas" transform="translate(1026 -400)">
<g id="Shape">
<use xlink:href="#path0_fill" transform="translate(-1025.86 400.899)" fill="#b5b5b5"/>
</g>
</g>
<defs>
<path id="path0_fill" d="M 2.76915 2.77227C 3.41707 2.77227 3.83499 2.94293 4.28427 3.252C 4.47245 3.37973 4.67109 3.46507 4.90083 3.46507C 5.10966 3.46507 5.66375 3.28373 5.66375 2.63333C 5.66375 2.31333 5.41284 2.01493 5.20401 1.8336C 4.82791 1.51387 4.3159 1.28987 3.62642 1.2048L 3.62642 0.831467C 3.62642 0.330667 3.27097 0 2.81123 0C 2.35149 0 1.9963 0.3304 1.9963 0.831467L 1.9963 1.24747C 0.69 1.51387 0.0318864 2.38827 0.0318864 3.41173C 0.0318864 4.904 1.13955 5.352 2.24694 5.6504C 3.58434 6.0128 3.96044 6.23653 3.96044 6.6312C 3.96044 7.11067 3.42752 7.228 2.8946 7.228C 2.24668 7.228 1.82876 7.05733 1.37948 6.74827C 1.1913 6.62053 0.992659 6.5352 0.76292 6.5352C 0.554091 6.5352 0 6.71653 0 7.36693C 0 7.68667 0.250909 7.98533 0.459739 8.16667C 0.835841 8.4864 1.34785 8.7104 2.03733 8.79547L 2.03733 9.1688C 2.03733 9.6696 2.39278 10.0003 2.85252 10.0003C 3.31226 10.0003 3.66772 9.66987 3.66772 9.1688L 3.66772 8.7528C 4.97375 8.4864 5.63212 7.612 5.63212 6.58853C 5.63212 5.09627 4.52447 4.64827 3.41707 4.3496C 2.07967 3.9872 1.70357 3.76347 1.70357 3.3688C 1.70357 2.8896 2.23623 2.77227 2.76915 2.77227Z"/>
</defs>
</svg>
