<svg width="84" height="34" viewBox="0 0 84 34" fill="none" xmlns="http://www.w3.org/2000/svg">
<mask id="mask0" mask-type="alpha" maskUnits="userSpaceOnUse" x="6" y="0" width="8" height="7">
<path fill-rule="evenodd" clip-rule="evenodd" d="M13.428 0H6.8385V6.72415H13.428V0V0Z" fill="white"/>
</mask>
<g mask="url(#mask0)">
<path fill-rule="evenodd" clip-rule="evenodd" d="M7.38597 6.71095C8.1532 5.61091 12.0219 4.69502 13.0885 3.44755C14.1064 2.24767 12.5237 0.167607 12.3951 0C12.3718 0.0496166 12.0246 0.342072 9.13648 1.89269C5.50869 3.83581 7.21993 6.95238 7.38597 6.71095" fill="black"/>
</g>
<path fill-rule="evenodd" clip-rule="evenodd" d="M14.1823 22.6204C12.699 24.07 11.2502 24.6368 9.33925 24.6368C6.16692 24.6368 4.35029 22.2983 3.66992 20.0123C5.40338 20.1419 7.07577 20.1851 8.50958 20.1982C9.01475 20.2029 11.2087 20.2249 12.4105 20.1108C13.6099 19.9956 15.0699 19.8121 16.0048 18.8476C17.2801 17.5355 17.2815 16.0389 17.0516 14.9208C16.7903 13.6573 16.1046 12.4236 15.1532 11.4586C14.0671 10.3469 12.2425 8.87695 9.00169 8.87695C6.52448 8.87695 4.23552 9.90589 2.55344 11.7685C0.906739 13.6002 0 16.0577 0 18.6966V18.7629C0 21.2992 0.801873 23.1504 2.76023 25.1479C4.48758 26.9088 6.79886 27.877 9.27207 27.877C12.2542 27.877 14.4426 26.9679 16.5751 24.8287C17.0032 24.404 17.5814 23.6964 17.5814 23.6964C17.5814 23.6964 16.1922 22.025 15.2543 22.1083C14.8269 22.1439 14.492 22.3053 14.1823 22.6204ZM9.01479 12.0835C12.2625 12.0835 13.3021 13.8304 13.6117 14.626C13.9831 15.57 13.9311 16.4252 13.5891 16.6868C13.4556 16.7868 13.132 17.0545 10.2865 17.0545C7.85178 17.0545 4.91572 16.9753 3.56677 16.8406C4.10964 13.9654 6.19918 12.1072 8.93919 12.0835H9.01479Z" fill="black"/>
<path fill-rule="evenodd" clip-rule="evenodd" d="M72.9642 27.877C76.2215 27.877 78.8203 26.6924 80.4148 24.7447C80.8649 24.1938 82.0465 22.9412 82.0465 20.3779V16.593C82.0465 14.2998 81.3856 12.3148 80.034 10.9833C78.6102 9.5897 76.5777 8.87695 73.9807 8.87695C72.1833 8.87695 70.5873 9.1796 68.7999 9.86297C68.5259 9.97253 68.2502 10.0819 67.9695 10.207C67.9134 10.2263 66.2772 10.9346 66.2772 10.9346C66.2772 10.9346 67.2119 12.5333 67.2847 12.6304C67.6016 13.0399 68.079 13.3071 68.5964 13.3071C68.8281 13.3071 69.1021 13.2433 69.3355 13.1251C70.8632 12.4128 72.3088 12.0749 73.879 12.0749C76.925 12.0749 78.59 13.6905 78.7151 16.331C77.6721 16.1014 76.082 15.8271 73.8452 15.8271C71.2074 15.8271 69.1388 16.3193 67.7023 17.2883C66.2043 18.3001 65.4419 19.7661 65.4419 21.6504V21.7143C65.4419 23.6244 66.3023 25.2369 67.9295 26.3826C69.279 27.3311 71.1146 27.877 72.9642 27.877ZM68.9027 21.549C68.9027 20.7433 69.2105 20.2381 69.8242 19.8393C70.6967 19.2615 71.7454 18.9385 73.7423 18.9605C75.9249 18.9824 77.6254 19.2858 78.756 19.5448V20.2826C78.756 22.7892 76.3142 24.6802 73.0675 24.6802C70.9972 24.6802 68.9027 23.6272 68.9027 21.6182V21.549Z" fill="black"/>
<mask id="mask1" mask-type="alpha" maskUnits="userSpaceOnUse" x="50" y="1" width="34" height="33">
<path fill-rule="evenodd" clip-rule="evenodd" d="M50.0013 33.4307H83.1525V1.99316L50.0013 1.99316V33.4307H50.0013Z" fill="white"/>
</mask>
<g mask="url(#mask1)">
<path fill-rule="evenodd" clip-rule="evenodd" d="M80.4874 28.6209C79.8081 29.0821 78.7554 29.5604 78.7554 29.5604C73.661 31.8316 67.9184 30.475 63.3716 27.0373C58.7451 23.5455 56.6513 19.0105 55.9896 17.6004L62.6873 10.1234L61.4907 9.09503C60.8238 8.51948 59.8739 8.59099 59.2718 9.26468L53.9782 15.2415V15.2466L53.281 16.0348V1.99316H51.6283C50.6996 1.99316 50.0013 2.69206 50.0013 3.62269V16.6733V24.8742C50.0013 25.6913 50.548 26.3347 51.3126 26.4697C51.356 26.4812 51.4024 26.4875 51.4485 26.4912H51.4528C51.5199 26.4998 51.5849 26.5025 51.6584 26.5025C51.6941 26.5025 51.7224 26.5025 51.755 26.4998H53.281V24.9545V24.8765V19.2957C54.1109 20.8947 56.33 24.9949 60.7679 28.5996C63.0416 30.4557 65.8667 32.0793 69.0606 32.8911C70.5813 33.2772 72.1486 33.4734 73.8136 33.423C76.8219 33.3317 80.2527 32.2808 83.1526 29.8081C81.67 27.7016 81.0037 28.2675 80.4874 28.6209" fill="black"/>
</g>
<path fill-rule="evenodd" clip-rule="evenodd" d="M43.9535 5.14586V4.61138C43.9535 3.63986 43.089 2.87695 41.9834 2.87695C40.899 2.87695 40.0465 3.63986 40.0465 4.61138V5.14586C40.0465 6.11719 40.899 6.87695 41.9834 6.87695C43.089 6.87695 43.9535 6.11719 43.9535 5.14586Z" fill="black"/>
<path fill-rule="evenodd" clip-rule="evenodd" d="M44.8866 24.3079L44.6857 24.3402C44.1971 24.4136 43.8502 24.2984 43.6359 23.9833C43.4849 23.7564 43.4022 23.2811 43.3938 22.859V8.87695H41.7058C41.2989 8.87695 40.9396 9.00629 40.6602 9.22251C40.2846 9.51614 40.0465 9.97244 40.0465 10.5021C40.0465 11.6578 40.0465 15.3941 40.0536 18.5387V18.6858C40.0536 21.1964 40.0536 23.2947 40.0555 23.3227C40.0626 23.6829 40.0789 24.0282 40.108 24.3281C40.1534 24.7733 40.1894 25.2023 40.4158 25.5994C40.6514 26.0023 40.8818 26.2952 41.3323 26.5263C41.7257 26.7236 42.0218 26.877 42.6828 26.877C42.6828 26.877 42.8366 26.877 42.9182 26.8743C43.5851 26.8448 44.1015 26.6231 44.4491 26.2208C45.0467 25.5244 44.9201 24.5427 44.917 24.5015L44.8866 24.3079Z" fill="black"/>
<path fill-rule="evenodd" clip-rule="evenodd" d="M28.8119 16.64C26.498 16.1714 24.7271 15.7126 24.6789 14.457L24.6766 14.3906C24.6265 13.1253 25.8243 12.1871 27.5826 12.1186C28.9554 12.0624 30.2818 12.3578 31.7029 13.1399C31.8272 13.2159 32.1666 13.4021 32.6128 13.3673C33.7947 13.2799 33.974 12.4902 34.6656 11.0346C34.6953 10.9733 33.5808 10.3902 33.4798 10.3359C32.7593 9.95236 32.011 9.61763 31.2333 9.37433C31.0146 9.30645 30.7929 9.24748 30.5709 9.19423C30.2795 9.12869 29.9871 9.07438 29.6938 9.02241C29.3768 8.97469 29.0685 8.93226 28.7509 8.90872C28.3445 8.87796 27.9322 8.86968 27.5258 8.88326C25.7641 8.95432 24.1849 9.56693 23.0763 10.6027C21.9375 11.6691 21.339 13.1357 21.3996 14.7247L21.4015 14.7896C21.535 18.285 24.7926 19.0997 27.4136 19.7493C27.4136 19.7493 28.3513 19.9856 28.5463 20.0322C30.9293 20.5997 31.8361 20.9189 31.8773 22.0183V22.0871C31.9325 23.5083 30.6484 24.5609 28.7567 24.6362C26.9636 24.7106 25.2736 24.1884 23.5926 23.062C23.3133 22.8564 22.9278 22.7489 22.565 22.7657C22.036 22.7871 21.5723 23.0809 21.2927 23.506L20.5116 24.9677C20.5116 24.9677 21.9392 25.9333 21.9375 25.9297C23.8698 27.2031 26.5151 27.9644 28.7782 27.8689C30.5592 27.7959 32.1788 27.1829 33.338 26.1395C34.5947 25.0004 35.2245 23.4837 35.158 21.7513L35.1522 21.6843C35.0889 19.9985 34.4435 18.8333 33.1171 18.0164C31.9923 17.3207 30.4988 16.9838 28.8119 16.64Z" fill="black"/>
</svg>
