<?xml version="1.0" encoding="UTF-8"?>
<svg width="442px" height="177px" viewBox="0 0 442 177" version="1.1" xmlns="http://www.w3.org/2000/svg" xmlns:xlink="http://www.w3.org/1999/xlink">
    <!-- Generator: Sketch 54.1 (76490) - https://sketchapp.com -->
    <title>Artboard</title>
    <desc>Created with Sketch.</desc>
    <g id="Artboard" stroke="none" stroke-width="1" fill="none" fill-rule="evenodd">
        <g id="Logotypes/brands/esika_color" transform="translate(17.000000, 11.000000)" fill="#e81c36">
            <path d="M378.812316,82.74395 C383.783164,87.8987027 386.387815,95.1749938 386.1415,103.232627 C385.715689,116.287033 376.755323,130.339346 358.088438,130.339346 C342.131674,130.339346 330.985915,118.878562 330.985915,102.471032 C330.985915,86.4110586 342.318375,74.7574076 357.933836,74.7574076 C366.551589,74.7574076 373.768752,77.5174482 378.812316,82.74395 L378.812316,82.74395 Z M357.61284,60.5135444 C333.40321,60.5135444 316.49263,77.5701082 316.49263,101.995118 C316.49263,127.086935 332.957091,143.947998 357.456273,143.947998 C369.560432,143.947998 379.739928,137.642625 385.5113,129.867381 L386.152637,141.821852 L386.155257,141.858056 L400,141.858056 L400,62.6133606 L385.82771,62.6133606 L385.698002,75.0016182 C379.796921,67.0802425 369.361939,60.5135444 357.61284,60.5135444 L357.61284,60.5135444 Z M195.884048,39.573308 C195.884048,52.92261 215.810678,52.92261 215.810678,39.7589344 C215.810678,26.4089741 195.884048,26.4089741 195.884048,39.573308 L195.884048,39.573308 Z M198.009826,141.788281 L213.684245,141.788281 L213.684245,62.6561469 L198.009826,62.6561469 L198.009826,141.788281 Z M177.280052,88.3746172 C175.547986,70.4083525 161.75565,60.5089367 138.389781,60.5089367 C117.974451,60.5089367 104.260727,70.3287043 104.260727,84.9438202 C104.260727,97.6934568 112.727154,104.830199 130.896168,107.40593 L145.706518,109.732842 C156.218146,111.473254 161.914838,113.773178 161.914838,120.933617 C161.914838,127.940684 154.543072,132.126494 142.193908,132.126494 C128.505077,132.126494 119.758926,126.709758 117.213233,116.818241 L101.89322,116.818241 C104.216836,133.826094 119.105142,143.93615 142.193908,143.93615 C164.261382,143.93615 178.52342,134.343478 178.52342,119.498633 C178.52342,106.291513 170.016377,99.3581701 150.078611,96.3229811 L133.671143,93.9927775 C124.678022,92.5683254 120.66885,89.3343451 120.66885,83.5147603 C120.66885,76.7143837 127.625942,72.3192511 138.389781,72.3192511 C152.685883,72.3192511 160.431051,77.4424077 162.691779,88.3746172 L177.280052,88.3746172 Z M274.31248,95.2013238 L312.051752,141.789598 L293.447756,141.789598 L293.316083,141.62701 L262.601376,104.026476 L252.226662,113.255794 L252.226662,141.789598 L236.552244,141.789598 L236.552244,29.7232609 L252.226662,29.7232609 L252.226662,97.5512749 L290.814936,62.6568051 L310.681297,62.6568051 L309.810023,63.4322231 L274.31248,95.2013238 Z M15.8008516,94.7510811 L15.8689813,94.447628 L15.8512938,94.447628 C15.8689813,94.3864108 15.887979,94.3232188 15.9056666,94.2560774 C17.5813953,87.327342 21.3357353,81.7197137 26.7631838,78.0381236 C27.1378972,77.780748 27.5132656,77.5266637 27.8991156,77.2910103 C27.9908287,77.2350591 28.0792663,77.1837156 28.1709794,77.1310557 L28.3910907,77.00533 C29.0252211,76.636052 29.6645922,76.2977117 30.3000328,75.9995246 L30.4192597,75.9435734 C31.1673764,75.5940428 31.9410416,75.2761083 32.7199476,74.9970104 L32.7638388,74.982529 C33.5617425,74.6994816 34.3832296,74.447372 35.2119227,74.2354157 L35.3534229,74.1932877 C36.0458565,74.0214845 36.7703898,73.8681124 37.565018,73.7305382 L37.7975762,73.6857772 C37.9050115,73.666688 38.0085162,73.6443075 38.1179168,73.6285095 C38.6229938,73.5501778 39.1398624,73.4942266 39.6626269,73.4402501 C41.1464134,73.2697635 42.4015722,73.1927483 43.6167704,73.1927483 C58.1971831,73.1927483 68.4343269,81.0397418 71.0075336,94.2021009 L71.0756633,94.4357795 C71.0782837,94.4403873 71.0789387,94.4443368 71.0789387,94.447628 L71.045529,94.447628 L71.0992466,94.7392326 C71.3901081,96.3848566 71.5630527,97.8955394 71.6318375,99.3482963 L15.0488045,99.3482963 C15.1903046,97.8771085 15.4366197,96.3684004 15.8008516,94.7510811 L15.8008516,94.7510811 Z M68.8162463,116.972929 C64.9407141,126.41552 56.8607927,131.200995 44.8005241,131.200995 C28.1578775,131.200995 16.8509663,121.854509 15.291189,106.81548 C15.2892237,106.792441 15.0887651,104.565583 15.0330822,103.196424 L87.1758926,103.196424 L87.1654111,102.939048 C86.8994432,95.6015396 85.8237799,90.1769046 83.4425156,84.2151379 C77.4182771,69.4111043 62.5594497,60.5714704 43.6966918,60.5714704 C17.9705208,60.5714704 0,77.8900175 0,102.684964 C0,127.396312 17.4359646,144 43.3848673,144 C64.1447756,144 78.0203079,135.2229 85.8015067,117.166455 L85.9515231,116.818241 L68.8778251,116.818241 L68.8162463,116.972929 Z M87.3173927,0 L21.2577792,54.0626983 L22.9675729,56.1737048 L89.0298067,2.11034823 L87.3173927,0 Z"></path>
        </g>
    </g>
</svg>