<svg width="59" height="57" viewBox="0 0 59 57" version="1.1" xmlns="http://www.w3.org/2000/svg" xmlns:xlink="http://www.w3.org/1999/xlink">
<title>Shape</title>
<desc>Created using Figma</desc>
<g id="Canvas" transform="translate(-1456 -288)">
<g id="Shape">
<use xlink:href="#path0_fill" transform="matrix(-0.939693 0.34202 0.34202 0.939693 1504.61 279.428)" fill="#E81C36"/>
</g>
</g>
<defs>
<path id="path0_fill" d="M 60 28C 60 43.4 47.4 56 32 56C 24.5 56 17.5 53.1 12.2 47.8C 11.266 46.869 12.668 45.468 13.6 46.401C 18.5 51.3 25.1 54 32 54C 46.3 54 58 42.3 58 28C 58 13.7 46.3 2 32 2C 17.7 2 6 13.7 6 28L 10 28L 5 34L 0 28L 4 28C 4 12.6 16.6 0 32 0C 47.4 0 60 12.6 60 28Z"/>
</defs>
</svg>
