<?xml version="1.0" encoding="UTF-8"?>
<svg width="500px" height="500px" viewBox="0 0 500 500" version="1.1" xmlns="http://www.w3.org/2000/svg" xmlns:xlink="http://www.w3.org/1999/xlink">
    <!-- Generator: Sketch 47.1 (45422) - http://www.bohemiancoding.com/sketch -->
    <title>Page 1</title>
    <desc>Created with Sketch.</desc>
    <defs></defs>
    <g id="Symbols" stroke="none" stroke-width="1" fill="none" fill-rule="evenodd">
        <g id="scroll-down-icon-ésika" fill="#E81C36">
            <g id="Page-1">
                <path d="M250,0 C111.929,0 0,111.929 0,250 C0,388.071 111.929,500 250,500 C388.071,500 500,388.071 500,250 C500,111.929 388.071,0 250,0 M250,25 C280.386,25 309.85,30.945 337.572,42.671 C364.362,54.002 388.428,70.229 409.099,90.901 C429.771,111.573 445.997,135.638 457.329,162.428 C469.055,190.15 475,219.614 475,250 C475,280.386 469.055,309.85 457.329,337.572 C445.997,364.362 429.771,388.428 409.099,409.099 C388.428,429.771 364.362,445.997 337.572,457.329 C309.85,469.055 280.386,475 250,475 C219.614,475 190.15,469.055 162.428,457.329 C135.638,445.997 111.573,429.771 90.901,409.099 C70.229,388.428 54.002,364.362 42.671,337.572 C30.945,309.85 25,280.386 25,250 C25,219.614 30.945,190.15 42.671,162.428 C54.002,135.638 70.229,111.573 90.901,90.901 C111.573,70.229 135.638,54.002 162.428,42.671 C190.15,30.945 219.614,25 250,25" id="Fill-1"></path>
                <polygon id="Fill-3" points="373.7441 194.4507 250.0001 318.1947 126.2561 194.4507 108.5781 212.1287 232.3221 335.8717 250.0001 353.5497 267.6781 335.8717 391.4211 212.1277"></polygon>
            </g>
        </g>
    </g>
</svg>