<?xml version="1.0" encoding="UTF-8"?>
<svg width="50px" height="39px" viewBox="0 0 50 39" version="1.1" xmlns="http://www.w3.org/2000/svg" xmlns:xlink="http://www.w3.org/1999/xlink">
    <!-- Generator: Sketch 47.1 (45422) - http://www.bohemiancoding.com/sketch -->
    <title>Page 1</title>
    <desc>Created with Sketch.</desc>
    <defs></defs>
    <g id="Symbols" stroke="none" stroke-width="1" fill="none" fill-rule="evenodd">
        <g id="speed-suscription-icon" transform="translate(0.000000, -6.000000)" fill="#E81C36">
            <g id="Page-1" transform="translate(0.000000, 6.000000)">
                <polygon id="Fill-1" points="2.19560878 15.2181936 10.1796407 15.2195908 10.1796407 12.7258782 2.19560878 12.7245808"></polygon>
                <polygon id="Fill-2" points="0 20.7085828 9.98003992 20.7085828 9.98003992 18.2135729 0 18.2135729"></polygon>
                <polygon id="Fill-3" points="2.19560878 26.1976048 10.1796407 26.1976048 10.1796407 23.7025948 2.19560878 23.7025948"></polygon>
                <path d="M23.0104491,2.99401198e-05 L13.9726248,9.98006986 L13.9721257,9.98006986 L13.9721257,9.98056886 L13.9721257,12.4750798 L13.9721257,38.9221856 L49.9002695,38.9221856 L49.9002695,9.98006986 L49.8496707,9.98006986 L40.8119461,2.99401198e-05 L23.0104491,2.99401198e-05 Z M33.4331038,2.49494012 L39.7053593,2.49494012 L46.4837026,9.98006986 L33.4331038,9.98006986 L33.4331038,2.49494012 Z M24.1170359,2.49494012 L30.3891916,2.49494012 L30.3891916,9.98006986 L17.3386926,9.98006986 L24.1170359,2.49494012 Z M16.4670359,12.4750798 L30.3891916,12.4750798 L33.4331038,12.4750798 L47.4051597,12.4750798 L47.4051597,36.4271756 L16.4670359,36.4271756 L16.4670359,12.4750798 Z" id="Fill-4"></path>
            </g>
        </g>
    </g>
</svg>