<?xml version="1.0" encoding="UTF-8"?>
<svg width="144px" height="37px" viewBox="0 0 144 37" version="1.1" xmlns="http://www.w3.org/2000/svg" xmlns:xlink="http://www.w3.org/1999/xlink">
    <!-- Generator: Sketch 47.1 (45422) - http://www.bohemiancoding.com/sketch -->
    <title>logotipo-ganamás-blanco</title>
    <desc>Created with Sketch.</desc>
    <defs></defs>
    <g id="Symbols" stroke="none" stroke-width="1" fill="none" fill-rule="evenodd">
        <g id="logotipo-ganamás-blanco" fill="#FFFFFF">
            <g>
                <path d="M15.1395,32.2261 C15.9955,32.2261 16.7545,32.1531 17.4155,32.0061 C18.0775,31.8591 18.7025,31.6631 19.2885,31.4181 L19.2885,27.3601 L16.6445,27.3601 C16.2525,27.3601 15.9475,27.2561 15.7275,27.0481 C15.5065,26.8401 15.3965,26.5771 15.3965,26.2581 L15.3965,22.8421 L24.9085,22.8421 L24.9085,34.1361 C24.2225,34.6371 23.5095,35.0701 22.7685,35.4311 C22.0295,35.7921 21.2395,36.0891 20.4005,36.3221 C19.5625,36.5541 18.6665,36.7251 17.7195,36.8351 C16.7705,36.9461 15.7505,37.0001 14.6615,37.0001 C12.7025,37.0001 10.8915,36.6551 9.2265,35.9631 C7.5615,35.2711 6.1185,34.3161 4.9015,33.0981 C3.6835,31.8801 2.7285,30.4361 2.0365,28.7641 C1.3455,27.0931 0.9995,25.2791 0.9995,23.3201 C0.9995,21.3251 1.3295,19.4921 1.9915,17.8201 C2.6525,16.1491 3.5985,14.7071 4.8275,13.4961 C6.0585,12.2841 7.5455,11.3401 9.2905,10.6681 C11.0355,9.9951 12.9845,9.6591 15.1395,9.6591 C16.2525,9.6591 17.2995,9.7491 18.2795,9.9331 C19.2585,10.1171 20.1615,10.3691 20.9875,10.6861 C21.8145,11.0051 22.5705,11.3841 23.2555,11.8261 C23.9415,12.2651 24.5525,12.7441 25.0925,13.2571 L23.2925,15.9941 C23.1205,16.2491 22.9155,16.4521 22.6765,16.5991 C22.4385,16.7471 22.1785,16.8201 21.8965,16.8201 C21.5305,16.8201 21.1505,16.6981 20.7585,16.4521 C20.2685,16.1591 19.8065,15.9051 19.3715,15.6911 C18.9375,15.4761 18.4935,15.3021 18.0395,15.1671 C17.5875,15.0331 17.1105,14.9341 16.6085,14.8721 C16.1065,14.8121 15.5425,14.7821 14.9185,14.7821 C13.7555,14.7821 12.7085,14.9861 11.7795,15.3961 C10.8475,15.8071 10.0555,16.3851 9.4015,17.1311 C8.7455,17.8781 8.2415,18.7751 7.8855,19.8231 C7.5315,20.8691 7.3535,22.0351 7.3535,23.3201 C7.3535,24.7401 7.5485,26.0011 7.9415,27.1031 C8.3325,28.2051 8.8735,29.1351 9.5655,29.8931 C10.2575,30.6531 11.0775,31.2311 12.0265,31.6291 C12.9755,32.0271 14.0125,32.2261 15.1395,32.2261" id="Fill-1"></path>
                <path d="M38.6063,26.479 L45.9153,26.479 L43.4553,19.152 C43.2953,18.686 43.1093,18.138 42.8943,17.508 C42.6803,16.878 42.4683,16.196 42.2603,15.46 C42.0653,16.208 41.8633,16.899 41.6553,17.537 C41.4473,18.172 41.2513,18.724 41.0673,19.188 L38.6063,26.479 Z M55.7943,36.708 L50.9843,36.708 C50.4443,36.708 50.0023,36.582 49.6523,36.33 C49.3033,36.08 49.0613,35.758 48.9263,35.367 L47.3473,30.702 L37.1743,30.702 L35.5953,35.367 C35.4733,35.709 35.2343,36.019 34.8793,36.293 C34.5243,36.569 34.0893,36.708 33.5753,36.708 L28.7273,36.708 L39.0843,9.952 L45.4383,9.952 L55.7943,36.708 Z" id="Fill-4"></path>
                <path d="M64.1122,9.9888 C64.2962,10.0138 64.4622,10.0588 64.6082,10.1278 C64.7562,10.1938 64.8962,10.2888 65.0312,10.4108 C65.1662,10.5328 65.3182,10.6988 65.4902,10.9068 L78.1972,26.9738 C78.1472,26.4608 78.1112,25.9618 78.0872,25.4778 C78.0612,24.9948 78.0502,24.5378 78.0502,24.1098 L78.0502,9.9518 L83.5222,9.9518 L83.5222,36.7078 L80.2902,36.7078 C79.8122,36.7078 79.4092,36.6338 79.0792,36.4868 C78.7492,36.3398 78.4292,36.0698 78.1242,35.6778 L65.5082,19.7398 C65.5452,20.2048 65.5752,20.6608 65.5992,21.1068 C65.6252,21.5538 65.6362,21.9728 65.6362,22.3648 L65.6362,36.7078 L60.1642,36.7078 L60.1642,9.9518 L63.4322,9.9518 C63.7022,9.9518 63.9282,9.9638 64.1122,9.9888" id="Fill-6"></path>
                <path d="M97.8456,26.479 L105.1546,26.479 L102.6946,19.152 C102.5346,18.686 102.3476,18.138 102.1336,17.508 C101.9196,16.878 101.7076,16.196 101.4996,15.46 C101.3036,16.208 101.1026,16.899 100.8946,17.537 C100.6866,18.172 100.4906,18.724 100.3066,19.188 L97.8456,26.479 Z M115.0336,36.708 L110.2226,36.708 C109.6836,36.708 109.2406,36.582 108.8916,36.33 C108.5426,36.08 108.3006,35.758 108.1656,35.367 L106.5866,30.702 L96.4136,30.702 L94.8346,35.367 C94.7126,35.709 94.4736,36.019 94.1186,36.293 C93.7636,36.569 93.3286,36.708 92.8146,36.708 L87.9666,36.708 L98.3236,9.952 L104.6776,9.952 L115.0336,36.708 Z" id="Fill-8"></path>
                <path d="M133.6552,9.8022 L133.6552,0.3032 L127.2142,0.3032 L127.2142,9.8022 L117.6682,9.8022 L117.6682,16.2422 L127.2142,16.2422 L127.2142,24.6662 C127.2572,24.8802 127.4992,25.6902 128.5652,25.7432 L133.6552,25.7432 L133.6552,16.2422 L143.1412,16.2422 L143.1412,9.8022 L133.6552,9.8022 Z" id="Fill-16"></path>
            </g>
        </g>
    </g>
</svg>