<?xml version="1.0" encoding="UTF-8"?>
<svg width="144px" height="50px" viewBox="0 0 144 50" version="1.1" xmlns="http://www.w3.org/2000/svg" xmlns:xlink="http://www.w3.org/1999/xlink">
    <!-- Generator: Sketch 47.1 (45422) - http://www.bohemiancoding.com/sketch -->
    <title>logotipo-club-ganamás-negro</title>
    <desc>Created with Sketch.</desc>
    <defs></defs>
    <g id="Symbols" stroke="none" stroke-width="1" fill="none" fill-rule="evenodd">
        <g id="logotipo-club-ganamás-negro" fill="#010202">
            <g>
                <path d="M15.1395,45.2261 C15.9955,45.2261 16.7545,45.1531 17.4155,45.0061 C18.0775,44.8591 18.7025,44.6631 19.2885,44.4181 L19.2885,40.3601 L16.6445,40.3601 C16.2525,40.3601 15.9475,40.2561 15.7275,40.0481 C15.5065,39.8401 15.3965,39.5771 15.3965,39.2581 L15.3965,35.8421 L24.9085,35.8421 L24.9085,47.1361 C24.2225,47.6371 23.5095,48.0701 22.7685,48.4311 C22.0295,48.7921 21.2395,49.0891 20.4005,49.3221 C19.5625,49.5541 18.6665,49.7251 17.7195,49.8351 C16.7705,49.9461 15.7505,50.0001 14.6615,50.0001 C12.7025,50.0001 10.8915,49.6551 9.2265,48.9631 C7.5615,48.2711 6.1185,47.3161 4.9015,46.0981 C3.6835,44.8801 2.7285,43.4361 2.0365,41.7641 C1.3455,40.0931 0.9995,38.2791 0.9995,36.3201 C0.9995,34.3251 1.3295,32.4921 1.9915,30.8201 C2.6525,29.1491 3.5985,27.7071 4.8275,26.4961 C6.0585,25.2841 7.5455,24.3401 9.2905,23.6681 C11.0355,22.9951 12.9845,22.6591 15.1395,22.6591 C16.2525,22.6591 17.2995,22.7491 18.2795,22.9331 C19.2585,23.1171 20.1615,23.3691 20.9875,23.6861 C21.8145,24.0051 22.5705,24.3841 23.2555,24.8261 C23.9415,25.2651 24.5525,25.7441 25.0925,26.2571 L23.2925,28.9941 C23.1205,29.2491 22.9155,29.4521 22.6765,29.5991 C22.4385,29.7471 22.1785,29.8201 21.8965,29.8201 C21.5305,29.8201 21.1505,29.6981 20.7585,29.4521 C20.2685,29.1591 19.8065,28.9051 19.3715,28.6911 C18.9375,28.4761 18.4935,28.3021 18.0395,28.1671 C17.5875,28.0331 17.1105,27.9341 16.6085,27.8721 C16.1065,27.8121 15.5425,27.7821 14.9185,27.7821 C13.7555,27.7821 12.7085,27.9861 11.7795,28.3961 C10.8475,28.8071 10.0555,29.3851 9.4015,30.1311 C8.7455,30.8781 8.2415,31.7751 7.8855,32.8231 C7.5315,33.8691 7.3535,35.0351 7.3535,36.3201 C7.3535,37.7401 7.5485,39.0011 7.9415,40.1031 C8.3325,41.2051 8.8735,42.1351 9.5655,42.8931 C10.2575,43.6531 11.0775,44.2311 12.0265,44.6291 C12.9755,45.0271 14.0125,45.2261 15.1395,45.2261" id="Fill-1"></path>
                <path d="M38.6063,39.479 L45.9153,39.479 L43.4553,32.152 C43.2953,31.686 43.1093,31.138 42.8943,30.508 C42.6803,29.878 42.4683,29.196 42.2603,28.46 C42.0653,29.208 41.8633,29.899 41.6553,30.537 C41.4473,31.172 41.2513,31.724 41.0673,32.188 L38.6063,39.479 Z M55.7943,49.708 L50.9843,49.708 C50.4443,49.708 50.0023,49.582 49.6523,49.33 C49.3033,49.08 49.0613,48.758 48.9263,48.367 L47.3473,43.702 L37.1743,43.702 L35.5953,48.367 C35.4733,48.709 35.2343,49.019 34.8793,49.293 C34.5243,49.569 34.0893,49.708 33.5753,49.708 L28.7273,49.708 L39.0843,22.952 L45.4383,22.952 L55.7943,49.708 Z" id="Fill-4"></path>
                <path d="M64.1122,22.9888 C64.2962,23.0138 64.4622,23.0588 64.6082,23.1278 C64.7562,23.1938 64.8962,23.2888 65.0312,23.4108 C65.1662,23.5328 65.3182,23.6988 65.4902,23.9068 L78.1972,39.9738 C78.1472,39.4608 78.1112,38.9618 78.0872,38.4778 C78.0612,37.9948 78.0502,37.5378 78.0502,37.1098 L78.0502,22.9518 L83.5222,22.9518 L83.5222,49.7078 L80.2902,49.7078 C79.8122,49.7078 79.4092,49.6338 79.0792,49.4868 C78.7492,49.3398 78.4292,49.0698 78.1242,48.6778 L65.5082,32.7398 C65.5452,33.2048 65.5752,33.6608 65.5992,34.1068 C65.6252,34.5538 65.6362,34.9728 65.6362,35.3648 L65.6362,49.7078 L60.1642,49.7078 L60.1642,22.9518 L63.4322,22.9518 C63.7022,22.9518 63.9282,22.9638 64.1122,22.9888" id="Fill-6"></path>
                <path d="M97.8456,39.479 L105.1546,39.479 L102.6946,32.152 C102.5346,31.686 102.3476,31.138 102.1336,30.508 C101.9196,29.878 101.7076,29.196 101.4996,28.46 C101.3036,29.208 101.1026,29.899 100.8946,30.537 C100.6866,31.172 100.4906,31.724 100.3066,32.188 L97.8456,39.479 Z M115.0336,49.708 L110.2226,49.708 C109.6836,49.708 109.2406,49.582 108.8916,49.33 C108.5426,49.08 108.3006,48.758 108.1656,48.367 L106.5866,43.702 L96.4136,43.702 L94.8346,48.367 C94.7126,48.709 94.4736,49.019 94.1186,49.293 C93.7636,49.569 93.3286,49.708 92.8146,49.708 L87.9666,49.708 L98.3236,22.952 L104.6776,22.952 L115.0336,49.708 Z" id="Fill-8"></path>
                <path d="M13.1171,12.7026 C13.2321,12.7026 13.3361,12.7486 13.4291,12.8436 L14.2501,13.7386 C13.6171,14.4726 12.8481,15.0456 11.9451,15.4546 C11.0431,15.8646 9.9541,16.0696 8.6801,16.0696 C7.5651,16.0696 6.5551,15.8776 5.6481,15.4926 C4.7421,15.1076 3.9691,14.5686 3.3281,13.8736 C2.6871,13.1796 2.1911,12.3466 1.8391,11.3746 C1.4851,10.4026 1.3101,9.3356 1.3101,8.1696 C1.3101,7.0046 1.4991,5.9356 1.8771,4.9656 C2.2541,3.9936 2.7851,3.1586 3.4691,2.4606 C4.1511,1.7636 4.9711,1.2226 5.9241,0.8366 C6.8771,0.4516 7.9291,0.2596 9.0801,0.2596 C10.2171,0.2596 11.1971,0.4346 12.0211,0.7876 C12.8461,1.1406 13.5771,1.6186 14.2181,2.2236 L13.5381,3.1836 C13.4871,3.2556 13.4291,3.3146 13.3651,3.3616 C13.3001,3.4086 13.2071,3.4316 13.0851,3.4316 C12.9901,3.4316 12.8911,3.3976 12.7881,3.3296 C12.6821,3.2616 12.5581,3.1766 12.4151,3.0756 C12.2701,2.9756 12.1021,2.8676 11.9081,2.7526 C11.7131,2.6376 11.4831,2.5296 11.2181,2.4286 C10.9511,2.3276 10.6401,2.2436 10.2891,2.1756 C9.9361,2.1056 9.5301,2.0716 9.0701,2.0716 C8.2421,2.0716 7.4841,2.2146 6.7981,2.4986 C6.1101,2.7826 5.5181,3.1876 5.0221,3.7126 C4.5261,4.2376 4.1391,4.8786 3.8621,5.6336 C3.5851,6.3896 3.4461,7.2346 3.4461,8.1696 C3.4461,9.1346 3.5851,9.9936 3.8621,10.7496 C4.1391,11.5056 4.5161,12.1426 4.9961,12.6656 C5.4741,13.1866 6.0411,13.5836 6.6951,13.8576 C7.3501,14.1316 8.0551,14.2666 8.8101,14.2666 C9.2701,14.2666 9.6841,14.2406 10.0521,14.1866 C10.4191,14.1326 10.7581,14.0486 11.0711,13.9326 C11.3841,13.8176 11.6761,13.6716 11.9451,13.4966 C12.2151,13.3206 12.4871,13.1096 12.7611,12.8636 C12.8831,12.7576 13.0021,12.7026 13.1171,12.7026" id="Fill-10"></path>
                <polygon id="Fill-12" points="18.21 15.897 20.132 15.897 20.132 0.001 18.21 0.001"></polygon>
                <path d="M26.4765,4.9653 L26.4765,11.9363 C26.4765,12.7643 26.6675,13.4033 27.0485,13.8583 C27.4295,14.3113 28.0055,14.5373 28.7755,14.5373 C29.3365,14.5373 29.8665,14.4043 30.3625,14.1383 C30.8595,13.8713 31.3155,13.5013 31.7335,13.0273 L31.7335,4.9653 L33.6545,4.9653 L33.6545,15.8973 L32.5095,15.8973 C32.2365,15.8973 32.0635,15.7643 31.9925,15.4983 L31.8405,14.3213 C31.3665,14.8473 30.8335,15.2693 30.2445,15.5893 C29.6535,15.9093 28.9765,16.0693 28.2145,16.0693 C27.6185,16.0693 27.0905,15.9713 26.6325,15.7733 C26.1765,15.5743 25.7925,15.2963 25.4845,14.9373 C25.1745,14.5773 24.9435,14.1423 24.7885,13.6313 C24.6325,13.1203 24.5565,12.5553 24.5565,11.9363 L24.5565,4.9653 L26.4765,4.9653 Z" id="Fill-14"></path>
                <path d="M43.0546,6.3237 C42.4286,6.3237 41.8786,6.4687 41.4086,6.7567 C40.9376,7.0437 40.5036,7.4507 40.1086,7.9757 L40.1086,13.2637 C40.4526,13.7387 40.8356,14.0737 41.2566,14.2667 C41.6786,14.4617 42.1476,14.5587 42.6656,14.5587 C43.6876,14.5587 44.4706,14.1957 45.0186,13.4697 C45.5646,12.7417 45.8376,11.7057 45.8376,10.3607 C45.8376,9.6477 45.7756,9.0377 45.6496,8.5257 C45.5236,8.0147 45.3426,7.5957 45.1046,7.2687 C44.8666,6.9407 44.5756,6.7017 44.2306,6.5517 C43.8856,6.3997 43.4926,6.3237 43.0546,6.3237 L43.0546,6.3237 Z M38.1766,15.8967 L38.1766,0.0007 L40.1086,0.0007 L40.1086,6.5407 C40.5616,6.0147 41.0796,5.5927 41.6666,5.2717 C42.2536,4.9517 42.9236,4.7927 43.6806,4.7927 C44.3126,4.7927 44.8846,4.9107 45.3966,5.1477 C45.9076,5.3867 46.3416,5.7407 46.7016,6.2107 C47.0616,6.6817 47.3386,7.2647 47.5326,7.9597 C47.7276,8.6537 47.8246,9.4547 47.8246,10.3607 C47.8246,11.1667 47.7166,11.9167 47.4996,12.6107 C47.2836,13.3047 46.9736,13.9057 46.5676,14.4127 C46.1596,14.9207 45.6636,15.3197 45.0776,15.6117 C44.4916,15.9017 43.8306,16.0487 43.0966,16.0487 C42.3926,16.0487 41.7926,15.9117 41.3006,15.6377 C40.8076,15.3647 40.3776,14.9837 40.0106,14.4947 L39.9126,15.4877 C39.8556,15.7617 39.6906,15.8967 39.4166,15.8967 L38.1766,15.8967 Z" id="Fill-15"></path>
                <path d="M133.6552,22.8022 L133.6552,13.3032 L127.2142,13.3032 L127.2142,22.8022 L117.6682,22.8022 L117.6682,29.2422 L127.2142,29.2422 L127.2142,37.6662 C127.2572,37.8802 127.4992,38.6902 128.5652,38.7432 L133.6552,38.7432 L133.6552,29.2422 L143.1412,29.2422 L143.1412,22.8022 L133.6552,22.8022 Z" id="Fill-16"></path>
            </g>
        </g>
    </g>
</svg>