<svg width="18" height="18" viewBox="0 0 18 18" fill="none" xmlns="http://www.w3.org/2000/svg">
<path fill-rule="evenodd" clip-rule="evenodd" d="M12.9186 6.34886L9.58142 3.01163L12.0989 0.447693L15.5465 3.72093L12.9186 6.34886ZM5.68025 13.5872L5.38957 12.4186C5.37306 12.3546 5.31987 12.3014 5.25583 12.2849L3.92281 11.994L3.52908 10.7384C3.51182 10.6778 3.46174 10.6277 3.40117 10.6105L2.40118 10.3256L9.31977 3.27325L10.7965 4.75L12.657 6.61049L5.68025 13.5872ZM2.58723 14.7849L1.20935 13.407L2.16282 10.6396L3.1977 10.9361L3.54074 12.1396C3.55725 12.2036 3.61042 12.2568 3.67446 12.2733L5.05817 12.6163L5.3605 13.8314L2.58723 14.7849ZM0.482544 15.5116L1.06975 13.8023L2.19185 14.9245L0.482544 15.5116ZM15.9368 3.58491C15.9094 3.56153 12.2612 0.0959525 12.2326 0.0639757C12.1985 0.0259439 12.1481 0 12.093 0C12.0343 0 11.9818 0.0272698 11.9477 0.0697655C11.9223 0.101455 1.94166 10.2582 1.91737 10.2824C1.89704 10.3027 1.88122 10.3274 1.87211 10.3547C1.87211 10.3547 0.0196678 15.7243 0.0116239 15.7442C0.00318221 15.7652 0 15.79 0 15.814C0 15.9167 0.083312 16 0.186049 16C0.208589 16 0.230047 15.9959 0.250025 15.9884C0.271482 15.9803 5.63954 14.1279 5.63954 14.1279C5.66553 14.1193 5.68818 14.1044 5.70665 14.0854C5.7187 14.073 15.906 3.88188 15.9327 3.86042C15.9736 3.82745 16 3.77795 16 3.72093C16 3.66588 15.9754 3.61782 15.9368 3.58491Z" transform="translate(1 1)" fill="white" stroke="white" stroke-width="0.5"/>
</svg>
