<svg width="26" height="24" viewBox="0 0 26 24" version="1.1" xmlns="http://www.w3.org/2000/svg" xmlns:xlink="http://www.w3.org/1999/xlink">
<title>Triangle</title>
<desc>Created using Figma</desc>
<g id="Canvas" transform="matrix(2 0 0 2 -562 -19366)">
<g id="Triangle">
<use xlink:href="#path0_fill" transform="matrix(-0.75471 0.656059 -0.656059 -0.75471 297.919 9689.48)" fill="#FFFFFF"/>
<use xlink:href="#path1_stroke" transform="matrix(-0.75471 0.656059 -0.656059 -0.75471 297.919 9689.48)" fill="#979797"/>
</g>
</g>
<defs>
<path id="path0_fill" fill-rule="evenodd" d="M 6.88819 0L 15.3563 7.36062L 0 7.92393L 6.88819 0Z"/>
<path id="path1_stroke" d="M 6.88819 0L 7.2162 -0.377369L 6.83885 -0.705368L 6.51083 -0.32803L 6.88819 0ZM 15.3563 7.36062L 15.3747 7.86029C 15.5798 7.85276 15.7595 7.72065 15.8278 7.5271C 15.8961 7.33356 15.8393 7.11791 15.6844 6.98325L 15.3563 7.36062ZM 0 7.92393L -0.377354 7.5959C -0.508054 7.74625 -0.537027 7.95984 -0.451103 8.13958C -0.365179 8.31932 -0.180756 8.4309 0.0183288 8.42359L 0 7.92393ZM 6.56017 0.377369L 15.0283 7.73799L 15.6844 6.98325L 7.2162 -0.377369L 6.56017 0.377369ZM 15.338 6.86096L -0.0183288 7.42426L 0.0183288 8.42359L 15.3747 7.86029L 15.338 6.86096ZM 0.377354 8.25196L 7.26554 0.32803L 6.51083 -0.32803L -0.377354 7.5959L 0.377354 8.25196Z"/>
</defs>
</svg>
