<?xml version="1.0" encoding="utf-8"?>
<!-- Generator: Adobe Illustrator 19.0.0, SVG Export Plug-In . SVG Version: 6.00 Build 0)  -->
<svg version="1.1" id="Capa_1" xmlns="http://www.w3.org/2000/svg" xmlns:xlink="http://www.w3.org/1999/xlink" x="0px" y="0px"
	 viewBox="0 0 20 20" style="enable-background:new 0 0 20 20;" xml:space="preserve">
<style type="text/css">
	.st0{fill:#5C1775;stroke:#000000;stroke-width:0.6557;stroke-miterlimit:10;}
</style>
<path id="XMLID_2_" class="st0" d="M19.4,16.3c0-0.2,0-0.3-0.1-0.4c-0.7-1-1.2-2.1-1.6-3.3c-0.4-1.2-0.7-2.9-1-5.1
	c-0.2-1.2-0.7-2.4-1.4-3.3c-0.3-0.4-0.7-0.7-1.1-1c-0.8-0.6-1.5-0.9-2-1l-0.1,0l0-0.1c-0.1-0.4-0.4-0.8-0.8-1.1
	c-0.4-0.3-0.9-0.5-1.5-0.5C9.5,0.5,8.9,0.6,8.5,1C8.2,1.3,7.9,1.7,7.8,2.1l0,0.1l-0.1,0c-0.8,0.2-1.3,0.5-2,1C5.3,3.5,5,3.8,4.6,4.2
	C3.9,5,3.4,6.2,3.3,7.4c-0.3,2.2-0.6,3.9-1,5.1c-0.4,1.2-0.9,2.3-1.6,3.3c-0.1,0.2-0.2,0.3-0.2,0.5c0,0.1,0,0.3,0.1,0.4
	c0.2,0.3,0.4,0.4,0.7,0.4h5.8l0,0.1c0.1,0.6,0.3,1.2,0.8,1.6c0.6,0.6,1.2,0.8,2,0.8c0.8,0,1.4-0.3,2-0.8c0.4-0.5,0.7-1,0.8-1.6
	l0-0.1h5.8c0.3,0,0.6-0.2,0.7-0.5C19.4,16.5,19.4,16.4,19.4,16.3z M12.2,17.3c-0.1,0.4-0.3,0.8-0.6,1.2c-0.4,0.5-1,0.7-1.6,0.7
	c-0.6,0-1.2-0.2-1.6-0.7c-0.4-0.4-0.6-0.7-0.6-1.2l0-0.1h4.6L12.2,17.3z M18.9,16.4c-0.1,0.1-0.1,0.2-0.3,0.2H1.4
	c-0.1,0-0.2,0-0.3-0.2c0,0,0-0.1,0-0.1c0-0.1,0-0.1,0.1-0.2c0.7-1.1,1.3-2.2,1.6-3.4c0.4-1.2,0.7-3,1-5.2c0.1-1.1,0.6-2.2,1.2-3
	c0.3-0.3,0.6-0.6,1-0.9c0.8-0.6,1.4-0.8,2-1l0.2,0l0-0.2c0.1-0.4,0.3-0.7,0.6-1C9.2,1.1,9.6,1,10,1c0.4,0,0.8,0.1,1.2,0.4
	c0.3,0.3,0.5,0.6,0.6,1l0,0.2l0.2,0c0.7,0.2,1.3,0.4,2,1c0.4,0.3,0.7,0.6,1,0.9c0.6,0.8,1.1,1.9,1.2,3c0.3,2.3,0.6,4,1,5.2
	c0.4,1.2,0.9,2.4,1.7,3.5c0,0.1,0.1,0.1,0.1,0.1c0,0,0,0,0,0L18.9,16.4L18.9,16.4z"/>
</svg>
