<svg width="18" height="18" viewBox="0 0 18 18" fill="none" xmlns="http://www.w3.org/2000/svg">
<path fill-rule="evenodd" clip-rule="evenodd" d="M12.9188 6.34892L9.58154 3.01169L12.099 0.447754L15.5467 3.72099L12.9188 6.34892ZM5.68044 13.5873L5.38975 12.4187C5.37324 12.3547 5.32005 12.3015 5.25601 12.285L3.92299 11.9941L3.52926 10.7385C3.512 10.6779 3.46193 10.6278 3.40135 10.6105L2.40137 10.3256L9.31996 3.27332L10.7967 4.75006L12.6572 6.61055L5.68044 13.5873ZM2.58735 14.7849L1.20947 13.407L2.16294 10.6395L3.19782 10.936L3.54086 12.1395C3.55737 12.2036 3.61054 12.2568 3.67458 12.2733L5.05829 12.6163L5.36062 13.8314L2.58735 14.7849ZM0.482422 15.5117L1.06963 13.8024L2.19173 14.9245L0.482422 15.5117ZM15.9368 3.58491C15.9094 3.56153 12.2612 0.0959525 12.2326 0.0639757C12.1985 0.0259439 12.1481 0 12.093 0C12.0343 0 11.9818 0.0272698 11.9477 0.0697655C11.9223 0.101455 1.94166 10.2582 1.91737 10.2824C1.89704 10.3027 1.88122 10.3274 1.87211 10.3547C1.87211 10.3547 0.0196678 15.7243 0.0116239 15.7442C0.00318221 15.7652 0 15.79 0 15.814C0 15.9167 0.083312 16 0.186049 16C0.208589 16 0.230047 15.9959 0.250025 15.9884C0.271482 15.9803 5.63954 14.1279 5.63954 14.1279C5.66553 14.1193 5.68818 14.1044 5.70665 14.0854C5.7187 14.073 15.906 3.88188 15.9327 3.86042C15.9736 3.82745 16 3.77795 16 3.72093C16 3.66588 15.9754 3.61782 15.9368 3.58491V3.58491Z" transform="translate(1 1)" fill="#642F80" stroke="#642F80" stroke-width="0.5"/>
</svg>
