<svg width="72" height="52" viewBox="0 0 72 52" fill="none" xmlns="http://www.w3.org/2000/svg">
<path d="M61.6451 21.2278C61.6451 9.57504 47.8216 0 30.8186 0C13.8155 0 0 9.5078 0 21.2009C0 27.925 3.97454 33.553 11.5341 37.5134C10.7392 43.7735 5.5564 48.198 5.50871 48.2719C5.16813 48.5545 5.05946 48.9816 5.23246 49.3577C5.40545 49.7338 5.82681 49.9864 6.30362 50C6.87595 50 18.0603 49.1931 24.7693 42.3749H30.7868C47.8216 42.3615 61.6451 32.8806 61.6451 21.2278Z" transform="translate(1 1)" fill="white" stroke="black"/>
<path d="M12.4333 5.719C12.382 5.82167 12.3213 5.894 12.2513 5.936C12.186 5.978 12.1067 5.999 12.0133 5.999C11.92 5.999 11.815 5.964 11.6983 5.894C11.5817 5.81933 11.444 5.73767 11.2853 5.649C11.1267 5.56033 10.94 5.481 10.7253 5.411C10.5153 5.33633 10.2657 5.299 9.97633 5.299C9.71499 5.299 9.48633 5.33167 9.29033 5.397C9.09899 5.45767 8.93566 5.544 8.80033 5.656C8.66966 5.768 8.57166 5.90333 8.50633 6.062C8.44099 6.216 8.40833 6.38633 8.40833 6.573C8.40833 6.811 8.47366 7.00933 8.60433 7.168C8.73966 7.32667 8.91699 7.462 9.13633 7.574C9.35566 7.686 9.60533 7.78633 9.88533 7.875C10.1653 7.96367 10.45 8.05933 10.7393 8.162C11.0333 8.26 11.3203 8.37667 11.6003 8.512C11.8803 8.64267 12.13 8.81067 12.3493 9.016C12.5687 9.21667 12.7437 9.464 12.8743 9.758C13.0097 10.052 13.0773 10.409 13.0773 10.829C13.0773 11.2863 12.998 11.7157 12.8393 12.117C12.6853 12.5137 12.4567 12.8613 12.1533 13.16C11.8547 13.454 11.4883 13.6873 11.0543 13.86C10.6203 14.028 10.1233 14.112 9.56333 14.112C9.24133 14.112 8.92399 14.0793 8.61133 14.014C8.29866 13.9533 7.99766 13.8647 7.70833 13.748C7.42366 13.6313 7.15533 13.4913 6.90333 13.328C6.65599 13.1647 6.43433 12.9827 6.23833 12.782L6.78433 11.879C6.83566 11.8137 6.89633 11.76 6.96633 11.718C7.04099 11.6713 7.12266 11.648 7.21133 11.648C7.32799 11.648 7.45399 11.697 7.58933 11.795C7.72466 11.8883 7.88333 11.9933 8.06533 12.11C8.25199 12.2267 8.46899 12.334 8.71633 12.432C8.96833 12.5253 9.26933 12.572 9.61933 12.572C10.156 12.572 10.5713 12.446 10.8653 12.194C11.1593 11.9373 11.3063 11.571 11.3063 11.095C11.3063 10.829 11.2387 10.612 11.1033 10.444C10.9727 10.276 10.7977 10.136 10.5783 10.024C10.359 9.90733 10.1093 9.80933 9.82933 9.73C9.54933 9.65067 9.26466 9.56433 8.97533 9.471C8.68599 9.37767 8.40133 9.26567 8.12133 9.135C7.84133 9.00433 7.59166 8.834 7.37233 8.624C7.15299 8.414 6.97566 8.15267 6.84033 7.84C6.70966 7.52267 6.64433 7.133 6.64433 6.671C6.64433 6.30233 6.71666 5.943 6.86133 5.593C7.01066 5.243 7.22533 4.93267 7.50533 4.662C7.78999 4.39133 8.13766 4.17433 8.54833 4.011C8.95899 3.84767 9.42799 3.766 9.95533 3.766C10.5527 3.766 11.1033 3.85933 11.6073 4.046C12.1113 4.23267 12.5407 4.494 12.8953 4.83L12.4333 5.719ZM19.5962 9.8C19.6755 9.94933 19.7479 10.1057 19.8132 10.269C19.8832 10.4277 19.9509 10.5887 20.0162 10.752C20.0815 10.584 20.1492 10.4183 20.2192 10.255C20.2892 10.0917 20.3639 9.93533 20.4432 9.786L23.4392 4.179C23.4765 4.109 23.5139 4.053 23.5512 4.011C23.5932 3.969 23.6375 3.93867 23.6842 3.92C23.7355 3.90133 23.7915 3.88967 23.8522 3.885C23.9129 3.88033 23.9852 3.878 24.0692 3.878H25.4902V14H23.8312V7.462C23.8312 7.34067 23.8335 7.20767 23.8382 7.063C23.8475 6.91833 23.8592 6.77133 23.8732 6.622L20.8142 12.362C20.7442 12.4927 20.6532 12.5953 20.5412 12.67C20.4292 12.74 20.2985 12.775 20.1492 12.775H19.8902C19.7409 12.775 19.6102 12.74 19.4982 12.67C19.3862 12.5953 19.2952 12.4927 19.2252 12.362L16.1242 6.601C16.1429 6.755 16.1545 6.90667 16.1592 7.056C16.1685 7.20067 16.1732 7.336 16.1732 7.462V14H14.5142V3.878H15.9352C16.0192 3.878 16.0915 3.88033 16.1522 3.885C16.2129 3.88967 16.2665 3.90133 16.3132 3.92C16.3645 3.93867 16.4112 3.969 16.4532 4.011C16.4952 4.053 16.5349 4.109 16.5722 4.179L19.5962 9.8ZM32.9548 5.719C32.9035 5.82167 32.8428 5.894 32.7728 5.936C32.7075 5.978 32.6281 5.999 32.5348 5.999C32.4415 5.999 32.3365 5.964 32.2198 5.894C32.1031 5.81933 31.9655 5.73767 31.8068 5.649C31.6481 5.56033 31.4615 5.481 31.2468 5.411C31.0368 5.33633 30.7871 5.299 30.4978 5.299C30.2365 5.299 30.0078 5.33167 29.8118 5.397C29.6205 5.45767 29.4571 5.544 29.3218 5.656C29.1911 5.768 29.0931 5.90333 29.0278 6.062C28.9625 6.216 28.9298 6.38633 28.9298 6.573C28.9298 6.811 28.9951 7.00933 29.1258 7.168C29.2611 7.32667 29.4385 7.462 29.6578 7.574C29.8771 7.686 30.1268 7.78633 30.4068 7.875C30.6868 7.96367 30.9715 8.05933 31.2608 8.162C31.5548 8.26 31.8418 8.37667 32.1218 8.512C32.4018 8.64267 32.6515 8.81067 32.8708 9.016C33.0901 9.21667 33.2651 9.464 33.3958 9.758C33.5311 10.052 33.5988 10.409 33.5988 10.829C33.5988 11.2863 33.5195 11.7157 33.3608 12.117C33.2068 12.5137 32.9781 12.8613 32.6748 13.16C32.3761 13.454 32.0098 13.6873 31.5758 13.86C31.1418 14.028 30.6448 14.112 30.0848 14.112C29.7628 14.112 29.4455 14.0793 29.1328 14.014C28.8201 13.9533 28.5191 13.8647 28.2298 13.748C27.9451 13.6313 27.6768 13.4913 27.4248 13.328C27.1775 13.1647 26.9558 12.9827 26.7598 12.782L27.3058 11.879C27.3571 11.8137 27.4178 11.76 27.4878 11.718C27.5625 11.6713 27.6441 11.648 27.7328 11.648C27.8495 11.648 27.9755 11.697 28.1108 11.795C28.2461 11.8883 28.4048 11.9933 28.5868 12.11C28.7735 12.2267 28.9905 12.334 29.2378 12.432C29.4898 12.5253 29.7908 12.572 30.1408 12.572C30.6775 12.572 31.0928 12.446 31.3868 12.194C31.6808 11.9373 31.8278 11.571 31.8278 11.095C31.8278 10.829 31.7601 10.612 31.6248 10.444C31.4941 10.276 31.3191 10.136 31.0998 10.024C30.8805 9.90733 30.6308 9.80933 30.3508 9.73C30.0708 9.65067 29.7861 9.56433 29.4968 9.471C29.2075 9.37767 28.9228 9.26567 28.6428 9.135C28.3628 9.00433 28.1131 8.834 27.8938 8.624C27.6745 8.414 27.4971 8.15267 27.3618 7.84C27.2311 7.52267 27.1658 7.133 27.1658 6.671C27.1658 6.30233 27.2381 5.943 27.3828 5.593C27.5321 5.243 27.7468 4.93267 28.0268 4.662C28.3115 4.39133 28.6591 4.17433 29.0698 4.011C29.4805 3.84767 29.9495 3.766 30.4768 3.766C31.0741 3.766 31.6248 3.85933 32.1288 4.046C32.6328 4.23267 33.0621 4.494 33.4168 4.83L32.9548 5.719Z" transform="translate(12 14.6)" fill="black"/>
<path fill-rule="evenodd" clip-rule="evenodd" d="M10 20C15.5228 20 20 15.5228 20 10C20 4.47715 15.5228 0 10 0C4.47715 0 0 4.47715 0 10C0 15.5228 4.47715 20 10 20Z" transform="translate(52 3)" fill="#642F80"/>
<path d="M1.62745 10.8807H3.4001V5.7806C3.4001 5.58297 3.40615 5.37525 3.41825 5.15745L2.15985 6.21015C2.10742 6.25452 2.05297 6.28477 1.9965 6.3009C1.94407 6.31703 1.89163 6.3251 1.8392 6.3251C1.75853 6.3251 1.68392 6.30897 1.61535 6.2767C1.55082 6.2404 1.50242 6.20007 1.47015 6.1557L0.99825 5.50835L3.6663 3.2396H4.89445V10.8807H6.46745V12H1.62745V10.8807Z" transform="translate(58 5)" fill="white"/>
</svg>
