<svg width="20" height="20" viewBox="0 0 20 20" fill="none" xmlns="http://www.w3.org/2000/svg">
<path fill-rule="evenodd" clip-rule="evenodd" d="M9 18C13.9706 18 18 13.9706 18 9C18 4.02944 13.9706 0 9 0C4.02944 0 0 4.02944 0 9C0 13.9706 4.02944 18 9 18Z" transform="translate(1 1)" stroke="#642F80"/>
<path d="M3.36 3.878V7.882C3.36 8.30667 3.339 8.72433 3.297 9.135C3.255 9.541 3.199 9.97267 3.129 10.43H1.96C1.89 9.97267 1.834 9.541 1.792 9.135C1.75 8.72433 1.729 8.30667 1.729 7.882V3.878H3.36ZM1.463 13.048C1.463 12.9033 1.48867 12.7657 1.54 12.635C1.596 12.5043 1.67067 12.3923 1.764 12.299C1.862 12.2057 1.97633 12.131 2.107 12.075C2.23767 12.019 2.37767 11.991 2.527 11.991C2.67167 11.991 2.80933 12.019 2.94 12.075C3.07067 12.131 3.18267 12.2057 3.276 12.299C3.36933 12.3923 3.444 12.5043 3.5 12.635C3.556 12.7657 3.584 12.9033 3.584 13.048C3.584 13.1973 3.556 13.3373 3.5 13.468C3.444 13.594 3.36933 13.7037 3.276 13.797C3.18267 13.8903 3.07067 13.9627 2.94 14.014C2.80933 14.07 2.67167 14.098 2.527 14.098C2.37767 14.098 2.23767 14.07 2.107 14.014C1.97633 13.9627 1.862 13.8903 1.764 13.797C1.67067 13.7037 1.596 13.594 1.54 13.468C1.48867 13.3373 1.463 13.1973 1.463 13.048Z" transform="translate(8 1)" fill="#642F80"/>
</svg>
