<svg width="18" height="18" viewBox="0 0 18 18" fill="none" xmlns="http://www.w3.org/2000/svg">
<mask id="mask0" mask-type="alpha" maskUnits="userSpaceOnUse" x="0" y="0" width="18" height="18">
<path fill-rule="evenodd" clip-rule="evenodd" d="M0 0H18V18H0V0Z" fill="white"/>
</mask>
<g mask="url(#mask0)">
<path fill-rule="evenodd" clip-rule="evenodd" d="M2.53635 8.95217C2.54511 12.612 5.37884 15.4675 8.99807 15.4635C12.5873 15.4596 15.4731 12.5845 15.4633 9.02202C15.4534 5.3953 12.5839 2.5229 8.98416 2.53644C5.40039 2.54995 2.52784 5.40819 2.53635 8.95217ZM8.18182 0H9.81818V1.71491C11.5265 1.90691 12.9742 2.60422 14.1715 3.8108C15.3716 5.02014 16.0448 6.48898 16.2787 8.18182H18V9.81818H16.3209C15.6663 13.5222 13.4543 15.6201 9.81818 16.3181V18H8.18182V16.2847C6.46309 16.1 5.01042 15.3945 3.81221 14.1822C2.61667 12.9726 1.93412 11.5057 1.71523 9.81818H0V8.18182H1.70978C1.89497 6.45918 2.57378 4.9886 3.78857 3.77936C5.00217 2.57137 6.47644 1.89802 8.18182 1.71407V0Z" fill="#642f80"/>
</g>
<path fill-rule="evenodd" clip-rule="evenodd" d="M8.992 5.7291C10.7897 5.71568 12.2499 7.17965 12.2708 9.01636C12.2907 10.7703 10.8048 12.2534 9.00804 12.2703C7.25729 12.2866 5.68029 10.8638 5.72556 8.87791C5.7631 7.23237 7.14018 5.73599 8.992 5.7291Z" fill="#642f80"/>
</svg>
