<svg width="15" height="18" viewBox="0 0 15 18" fill="none" xmlns="http://www.w3.org/2000/svg">
<mask id="path-1-outside-1" maskUnits="userSpaceOnUse" x="-1" y="-1" width="15" height="18" fill="black">
<rect fill="white" x="-1" y="-1" width="15" height="18"/>
<path fill-rule="evenodd" clip-rule="evenodd" d="M6.5 0C3.87305 0.00242615 1.74316 2.01596 1.74121 4.50055V6.50494H0.232422C0.103516 6.50494 0 6.60323 0 6.72447V15.7805C0 15.9017 0.103516 16 0.232422 16H12.7676C12.8965 16 13 15.9017 13 15.7805V6.72447C13 6.60323 12.8965 6.50494 12.7676 6.50494H11.2588V4.50055C11.2568 2.01596 9.12695 0.00242615 6.5 0ZM2.20508 4.50055C2.20508 2.25746 4.12793 0.439072 6.5 0.439072C8.87207 0.439072 10.7939 2.25746 10.7939 4.50055V6.50493H2.20508V4.50055ZM0.463867 6.94402V15.5609H12.5352V6.94402H0.463867Z"/>
</mask>
<path fill-rule="evenodd" clip-rule="evenodd" d="M6.5 0C3.87305 0.00242615 1.74316 2.01596 1.74121 4.50055V6.50494H0.232422C0.103516 6.50494 0 6.60323 0 6.72447V15.7805C0 15.9017 0.103516 16 0.232422 16H12.7676C12.8965 16 13 15.9017 13 15.7805V6.72447C13 6.60323 12.8965 6.50494 12.7676 6.50494H11.2588V4.50055C11.2568 2.01596 9.12695 0.00242615 6.5 0ZM2.20508 4.50055C2.20508 2.25746 4.12793 0.439072 6.5 0.439072C8.87207 0.439072 10.7939 2.25746 10.7939 4.50055V6.50493H2.20508V4.50055ZM0.463867 6.94402V15.5609H12.5352V6.94402H0.463867Z" transform="translate(1 1)" fill="#642F80"/>
<path d="M1.74121 4.50055L1.24121 4.50016V4.50055H1.74121ZM6.5 0L6.50046 -0.500001L6.49954 -0.5L6.5 0ZM1.74121 6.50494V7.00494H2.24121V6.50494H1.74121ZM11.2588 6.50494H10.7588V7.00494H11.2588V6.50494ZM11.2588 4.50055L11.7588 4.50055L11.7588 4.50016L11.2588 4.50055ZM10.7939 6.50493V7.00493H11.2939V6.50493H10.7939ZM2.20508 6.50493H1.70508V7.00493H2.20508V6.50493ZM0.463867 15.5609H-0.0361328V16.0609H0.463867V15.5609ZM0.463867 6.94402V6.44402H-0.0361328V6.94402H0.463867ZM12.5352 15.5609V16.0609H13.0352V15.5609H12.5352ZM12.5352 6.94402H13.0352V6.44402H12.5352V6.94402ZM2.24121 4.50094C2.24293 2.31817 4.12256 0.502196 6.50046 0.5L6.49954 -0.5C3.62353 -0.497344 1.2434 1.71375 1.24121 4.50016L2.24121 4.50094ZM2.24121 6.50494V4.50055H1.24121V6.50494H2.24121ZM0.232422 7.00494H1.74121V6.00494H0.232422V7.00494ZM0.5 6.72447C0.5 6.90514 0.353163 7.00494 0.232422 7.00494V6.00494C-0.146132 6.00494 -0.5 6.30131 -0.5 6.72447H0.5ZM0.5 15.7805V6.72447H-0.5V15.7805H0.5ZM0.232422 15.5C0.35321 15.5 0.5 15.5998 0.5 15.7805H-0.5C-0.5 16.2036 -0.146178 16.5 0.232422 16.5V15.5ZM12.7676 15.5H0.232422V16.5H12.7676V15.5ZM12.5 15.7805C12.5 15.5998 12.6468 15.5 12.7676 15.5V16.5C13.1462 16.5 13.5 16.2036 13.5 15.7805H12.5ZM12.5 6.72447V15.7805H13.5V6.72447H12.5ZM12.7676 7.00494C12.6468 7.00494 12.5 6.90514 12.5 6.72447H13.5C13.5 6.30131 13.1461 6.00494 12.7676 6.00494V7.00494ZM11.2588 7.00494H12.7676V6.00494H11.2588V7.00494ZM10.7588 4.50055V6.50494H11.7588V4.50055H10.7588ZM6.49954 0.5C8.87744 0.502196 10.7571 2.31817 10.7588 4.50094L11.7588 4.50016C11.7566 1.71375 9.37647 -0.497344 6.50046 -0.5L6.49954 0.5ZM6.5 -0.0609283C3.87848 -0.0609283 1.70508 1.95536 1.70508 4.50055H2.70508C2.70508 2.55956 4.37738 0.939072 6.5 0.939072V-0.0609283ZM11.2939 4.50055C11.2939 1.95551 9.12167 -0.0609283 6.5 -0.0609283V0.939072C8.62247 0.939072 10.2939 2.55942 10.2939 4.50055H11.2939ZM11.2939 6.50493V4.50055H10.2939V6.50493H11.2939ZM2.20508 7.00493H10.7939V6.00493H2.20508V7.00493ZM1.70508 4.50055V6.50493H2.70508V4.50055H1.70508ZM0.963867 15.5609V6.94402H-0.0361328V15.5609H0.963867ZM12.5352 15.0609H0.463867V16.0609H12.5352V15.0609ZM12.0352 6.94402V15.5609H13.0352V6.94402H12.0352ZM0.463867 7.44402H12.5352V6.44402H0.463867V7.44402Z" transform="translate(1 1)" fill="#642F80" mask="url(#path-1-outside-1)"/>
<path d="M0.297206 0.120072V2.04122" transform="translate(7.19727 11.3011)" stroke="#642F80" stroke-width="0.616" stroke-linecap="square"/>
</svg>
