<?xml version="1.0" encoding="utf-8"?>
<!-- Generator: Adobe Illustrator 20.0.0, SVG Export Plug-In . SVG Version: 6.00 Build 0)  -->
<svg version="1.1" id="Layer_1" xmlns="http://www.w3.org/2000/svg" xmlns:xlink="http://www.w3.org/1999/xlink" x="0px" y="0px"
	 viewBox="0 0 40.6 40.6" style="enable-background:new 0 0 40.6 40.6;" xml:space="preserve">
<style type="text/css">
	.st0{fill:#642F80;stroke:#642F80;stroke-width:0.5;}
	.st1{fill:none;stroke:#642F80;}
</style>
<path class="st0" d="M29.2,26.7V11.8c0-0.5-0.4-0.8-0.9-0.8h-2.3V8.2c0-0.1-0.1-0.3-0.2-0.3c-0.1-0.1-0.2-0.1-0.4-0.1L12.2,11
	c0,0,0,0-0.1,0c-0.3,0.1-0.5,0.4-0.5,0.8v21c0,0.5,0.4,0.8,0.9,0.8H15h7.4c0,0,0,0,0,0h2.6c0.1,0,0.2-0.1,0.3-0.1l3.7-4.1
	c0.1-0.1,0.1-0.2,0.1-0.3L29.2,26.7C29.2,26.8,29.2,26.8,29.2,26.7z M25.5,29.4C25.5,29.4,25.5,29.4,25.5,29.4l2.5,0l-2.5,2.8
	L25.5,29.4z M25.2,8.8V11H15.1h-0.1L25.2,8.8z M12.5,32.8C12.5,32.8,12.5,32.8,12.5,32.8l-0.1-21c0,0,0,0,0.1,0h2.6v0h13.2
	c0,0,0.1,0,0.1,0l0,16.7h-2.9c-0.5,0-0.9,0.4-0.9,0.8v3.4H12.5z"/>
<path id="Stroke-1" class="st1" d="M40.1,20.3c0,10.9-8.9,19.8-19.8,19.8S0.5,31.2,0.5,20.3C0.5,9.4,9.4,0.5,20.3,0.5
	S40.1,9.4,40.1,20.3L40.1,20.3z"/>
</svg>
