<?xml version="1.0" encoding="utf-8"?>
<!-- Generator: Adobe Illustrator 19.0.0, SVG Export Plug-In . SVG Version: 6.00 Build 0)  -->
<svg version="1.1" id="Capa_1" xmlns="http://www.w3.org/2000/svg" xmlns:xlink="http://www.w3.org/1999/xlink" x="0px" y="0px"
	 viewBox="-291 410.9 13 20" style="enable-background:new -291 410.9 13 20;" xml:space="preserve">
<style type="text/css">
	.st0{fill:#613C87;}
</style>
<title>97369F38-10B1-494F-B4E0-1010A67B9AC9</title>
<desc>Created with sketchtool.</desc>
<g id="Page-1">
	<g id="PENDIENTES-B---" transform="translate(-201.000000, -318.000000)">
		<g id="Group" transform="translate(201.000000, 318.000000)">
			<g id="noun_587567_cc" transform="translate(6.500000, 10.000000) scale(-1, 1) translate(-6.500000, -10.000000) ">
				<path id="Shape" class="st0" d="M294.3,430.7c-0.5,0-0.9-0.1-1.3-0.3c-0.1-0.1-0.3-0.1-0.4-0.2l-1.1-0.9
					c-0.4-0.3-0.6-0.9-0.3-1.4l1.4-3.1c0.3-0.6,0.9-0.9,1.3-0.7l1.6,0.7c0.8,0.4,2.1-0.4,2.7-1.8l1.3-2.8c0.4-0.7,0.5-1.6,0.2-2.4
					c-0.1-0.3-0.3-0.6-0.6-0.7c0,0,0,0,0,0l-1.5-0.7c-0.2-0.1-0.4-0.3-0.4-0.5c-0.1-0.3-0.1-0.7,0.1-1l1.4-3.1
					c0.2-0.5,0.7-0.7,1.2-0.6l1.4,0.3c0,0,0,0,0,0c0.2,0,0.3,0.1,0.5,0.2c0.9,0.4,1.6,1.2,1.9,2.2c0.9,2.3,0.4,6-1.2,9.4
					C300.2,427.8,297,430.7,294.3,430.7L294.3,430.7z M293.5,425c-0.1,0.1-0.2,0.2-0.3,0.3l-1.4,3.1c-0.1,0.1,0,0.3,0.1,0.4l1.1,0.9
					c0.1,0.1,0.2,0.1,0.3,0.2c2.3,1,6-2,8.2-6.7c1.5-3.3,1.9-6.7,1.1-8.8c-0.2-0.7-0.7-1.4-1.4-1.7c-0.1,0-0.2-0.1-0.3-0.1l-1.4-0.3
					c-0.1,0-0.3,0-0.3,0.2l-1.4,3.1c-0.1,0.1-0.1,0.3,0,0.4l1.6,0.7c0,0,0,0,0,0c0.5,0.2,0.9,0.7,1,1.2c0.3,1,0.2,2.1-0.2,3
					l-1.3,2.8c-0.8,1.8-2.5,2.7-3.7,2.2L293.5,425z"/>
			</g>
		</g>
	</g>
</g>
</svg>
