<svg width="28" height="31" viewBox="0 0 28 31" fill="none" xmlns="http://www.w3.org/2000/svg">
<path fill-rule="evenodd" clip-rule="evenodd" d="M2.60199 0H23.2969L25.7174 22.9787H0L2.60199 0Z" transform="translate(1 8.02128)" stroke="#642F80" stroke-width="2" stroke-linecap="round" stroke-linejoin="round"/>
<path d="M0 10.2128V5.78365C0 5.78365 0.424168 0 5.61517 0C10.8062 0 11.2101 5.77162 11.2101 5.77162V10.0441" transform="translate(8.25366 1)" stroke="#642F80" stroke-width="2"/>
<path fill-rule="evenodd" clip-rule="evenodd" d="M0.922403 1.78571C1.43183 1.78571 1.84481 1.38597 1.84481 0.892857C1.84481 0.399746 1.43183 0 0.922403 0C0.412974 0 0 0.399746 0 0.892857C0 1.38597 0.412974 1.78571 0.922403 1.78571Z" transform="translate(8.25366 18.234)" fill="#642F80"/>
<path fill-rule="evenodd" clip-rule="evenodd" d="M0.922403 1.78571C1.43183 1.78571 1.84481 1.38597 1.84481 0.892857C1.84481 0.399746 1.43183 0 0.922403 0C0.412974 0 0 0.399746 0 0.892857C0 1.38597 0.412974 1.78571 0.922403 1.78571Z" transform="translate(17.0459 18.234)" fill="#642F80"/>
<path d="M0 1.70213C0 1.70213 0.564867 -0.0549073 2.21035 0.0017712C3.85583 0.0584498 4.39614 1.70213 4.39614 1.70213" transform="translate(11.3309 22.0638)" stroke="#642F80" stroke-linecap="round"/>
<path fill-rule="evenodd" clip-rule="evenodd" d="M1.31884 2.55319C2.04722 2.55319 2.63768 1.98164 2.63768 1.2766C2.63768 0.571551 2.04722 0 1.31884 0C0.590465 0 0 0.571551 0 1.2766C0 1.98164 0.590465 2.55319 1.31884 2.55319Z" transform="translate(6.93481 9.93617)" fill="#642F80"/>
<path fill-rule="evenodd" clip-rule="evenodd" d="M1.31884 2.55319C2.04722 2.55319 2.63768 1.98164 2.63768 1.2766C2.63768 0.571551 2.04722 0 1.31884 0C0.590465 0 0 0.571551 0 1.2766C0 1.98164 0.590465 2.55319 1.31884 2.55319Z" transform="translate(18.1449 9.93617)" fill="#642F80"/>
</svg>
