<svg width="122" height="22" viewBox="0 0 122 22" fill="none" xmlns="http://www.w3.org/2000/svg">
<path fill-rule="evenodd" clip-rule="evenodd" d="M22 0V21H41V17.828H25.3525V0H22Z" fill="white"/>
<path fill-rule="evenodd" clip-rule="evenodd" d="M66.0392 10.2512C68.3663 11.064 69.5297 12.8324 69.5297 15.5593C69.5297 19.234 66.9532 21.0704 61.8024 21.0704H45.5297V0.0704346H62.0371C64.107 0.0704346 65.734 0.592627 66.9183 1.63754C68.1046 2.68035 68.6965 4.07391 68.6965 5.81429C68.6965 7.72821 67.8103 9.20789 66.0392 10.2512V10.2512ZM62.088 8.85923C63.0297 8.85923 63.8163 8.58413 64.4446 8.03341C65.0767 7.48452 65.3908 6.81418 65.3908 6.0229C65.3908 5.17326 65.1085 4.49742 64.5426 3.99538C63.9792 3.49439 63.2076 3.24232 62.23 3.24232H48.9082V8.85923H62.088ZM61.823 17.8983C64.6411 17.8983 66.0532 16.9549 66.0532 15.0656C66.0532 13.042 64.8201 12.0319 62.3578 12.0319H48.9082V17.8983H61.823Z" fill="white"/>
<path fill-rule="evenodd" clip-rule="evenodd" d="M74.5297 0.0704346V21.0704H96.5297V17.8985H78.0063V11.7804H90.3158V8.6066H78.0063V3.24215H95.9732V0.0704346H74.5297Z" fill="white"/>
<path fill-rule="evenodd" clip-rule="evenodd" d="M36.5297 0.0704346V4.95463C36.5297 6.66433 37.7735 8.06084 39.3049 8.06989L39.5297 8.07043V0.0704346H36.5297Z" fill="white"/>
<path fill-rule="evenodd" clip-rule="evenodd" d="M102.53 0.0704346V21.0704H121.53V17.8985H105.882V0.0704346H102.53Z" fill="white"/>
</svg>
