<svg width="74" height="16" viewBox="0 0 74 16" fill="none" xmlns="http://www.w3.org/2000/svg">
<path d="M14.2073 15.9717H0V0.258789H2.50418V13.5976H14.2073V15.9717Z" fill="#613C87"/>
<path fill-rule="evenodd" clip-rule="evenodd" d="M35.7991 11.8394C35.7991 9.80957 34.936 8.48975 33.2139 7.88525C34.5328 7.09521 35.181 5.98682 35.1791 4.54541C35.1791 3.24902 34.7457 2.21436 33.8602 1.42627C32.9858 0.651855 31.778 0.25293 30.2443 0.25293H18.0079V15.9717H30.0746C33.8903 15.9717 35.7991 14.5972 35.7991 11.8394ZM30.2876 6.82764C30.981 6.82764 31.5576 6.62598 32.0305 6.21533C32.4978 5.80078 32.7296 5.29639 32.7296 4.70947C32.7296 4.08008 32.5204 3.56348 32.0983 3.18799C31.6876 2.81445 31.111 2.62695 30.3837 2.62695H20.5139V6.82764H30.2876ZM30.0897 13.6035C32.1775 13.6035 33.2233 12.8994 33.2233 11.4839C33.2233 9.96826 32.315 9.21143 30.4816 9.21143H20.5139V13.6035H30.0897Z" fill="#613C87"/>
<path d="M55.5197 15.9717H39.6618V0.258789H55.1146V2.62697H42.166V6.64759H51.0427V9.0275H42.166V13.5976H55.5197V15.9717Z" fill="#613C87"/>
<path d="M73.5012 15.9717H59.2939V0.258789H61.8056V13.5976H73.5012V15.9717Z" fill="#613C87"/>
<path d="M11.8802 0.25293V3.73969C11.8802 4.96386 12.8563 5.95533 14.0471 5.95729H14.2224V0.25293H11.8802Z" fill="#613C87"/>
</svg>
