<svg width="192" height="102" viewBox="0 0 192 102" fill="none" xmlns="http://www.w3.org/2000/svg">
<path d="M19.5253 90.1946C20.6558 90.1946 21.6571 90.0977 22.5292 89.9039C23.4013 89.7101 24.2249 89.4517 25.0001 89.1287V83.775H21.5118C20.995 83.775 20.5912 83.6377 20.3005 83.3631C20.0098 83.0886 19.8645 82.7414 19.8645 82.3215V77.8156H32.413V92.714C31.5086 93.3761 30.5638 93.9494 29.5787 94.4339C28.6097 94.9023 27.568 95.2899 26.4536 95.5967C25.3554 95.9036 24.1765 96.1297 22.9168 96.275C21.6733 96.4204 20.3328 96.4931 18.8955 96.4931C16.3115 96.4931 13.9213 96.0409 11.7249 95.1365C9.52848 94.2159 7.62278 92.9562 6.00779 91.3574C4.40894 89.7424 3.14924 87.8367 2.2287 85.6403C1.3243 83.4277 0.872098 81.0295 0.872098 78.4455C0.872098 75.813 1.30815 73.3986 2.18025 71.2022C3.05234 68.9897 4.29589 67.084 5.91089 65.4851C7.54203 63.8863 9.50425 62.6427 11.7975 61.7545C14.107 60.8662 16.6829 60.4221 19.5253 60.4221C20.995 60.4221 22.3758 60.5432 23.6678 60.7855C24.9598 61.0277 26.1468 61.3588 27.2288 61.7787C28.327 62.1986 29.3283 62.6993 30.2327 63.2807C31.1371 63.8621 31.9446 64.4919 32.6552 65.1702L30.2812 68.7797C30.0551 69.1189 29.7805 69.3854 29.4575 69.5792C29.1507 69.773 28.8115 69.8699 28.4401 69.8699C27.9556 69.8699 27.4549 69.7084 26.9381 69.3854C26.2921 68.9978 25.6784 68.6667 25.097 68.3921C24.5318 68.1014 23.9504 67.8673 23.3528 67.6896C22.7553 67.512 22.1255 67.3828 21.4633 67.302C20.8012 67.2213 20.0583 67.1809 19.2346 67.1809C17.7004 67.1809 16.3195 67.4554 15.0921 68.0045C13.8647 68.5375 12.815 69.2965 11.9429 70.2817C11.087 71.2668 10.4248 72.4538 9.95645 73.8427C9.4881 75.2155 9.25393 76.7497 9.25393 78.4455C9.25393 80.3189 9.51233 81.9823 10.0291 83.4358C10.5459 84.8893 11.2565 86.1167 12.1609 87.118C13.0815 88.1193 14.1635 88.8864 15.4071 89.4194C16.6668 89.9362 18.0395 90.1946 19.5253 90.1946ZM74.1242 96.1055H67.7772C67.0666 96.1055 66.4772 95.944 66.0088 95.621C65.5566 95.2818 65.2417 94.8538 65.064 94.337L62.9807 88.1839H49.5601L47.4767 94.337C47.3152 94.7892 47.0003 95.2011 46.532 95.5725C46.0636 95.9278 45.4903 96.1055 44.812 96.1055H38.4166L52.0795 60.8097H60.4613L74.1242 96.1055ZM51.4496 82.6122H61.0911L57.845 72.9464C57.6351 72.3327 57.3847 71.614 57.094 70.7904C56.8195 69.9506 56.5449 69.0462 56.2704 68.0772C56.012 69.0624 55.7455 69.9748 55.471 70.8146C55.1964 71.6544 54.938 72.3812 54.6958 72.9949L51.4496 82.6122ZM85.1855 60.8097C85.5408 60.8097 85.8396 60.8259 86.0818 60.8582C86.3241 60.8905 86.5421 60.9551 86.7359 61.052C86.9297 61.1327 87.1154 61.2538 87.2931 61.4153C87.4707 61.5768 87.6726 61.7949 87.8987 62.0694L104.662 83.2662C104.598 82.5879 104.549 81.9339 104.517 81.304C104.485 80.658 104.469 80.0524 104.469 79.4872V60.8097H111.688V96.1055H107.424C106.794 96.1055 106.261 96.0086 105.825 95.8148C105.389 95.621 104.969 95.2657 104.565 94.7489L87.9229 73.7216C87.9714 74.3353 88.0118 74.9409 88.0441 75.5385C88.0764 76.1199 88.0925 76.669 88.0925 77.1858V96.1055H80.8735V60.8097H85.1855ZM154.22 96.1055H147.873C147.162 96.1055 146.573 95.944 146.104 95.621C145.652 95.2818 145.337 94.8538 145.16 94.337L143.076 88.1839H129.656L127.572 94.337C127.411 94.7892 127.096 95.2011 126.628 95.5725C126.159 95.9278 125.586 96.1055 124.908 96.1055H118.512L132.175 60.8097H140.557L154.22 96.1055ZM131.545 82.6122H141.187L137.941 72.9464C137.731 72.3327 137.48 71.614 137.19 70.7904C136.915 69.9506 136.641 69.0462 136.366 68.0772C136.108 69.0624 135.841 69.9748 135.567 70.8146C135.292 71.6544 135.034 72.3812 134.791 72.9949L131.545 82.6122Z" fill="#C8A05E"/>
<path d="M169.491 34.3586V45.3221H179.734V51.4683H169.491V62.4872H162.514V51.4683H152.326V45.3221H162.514V34.3586H169.491Z" fill="#C8A05E"/>
</svg>
