<svg width="105" height="27" viewBox="0 0 105 27" fill="none" xmlns="http://www.w3.org/2000/svg">
<path fill-rule="evenodd" clip-rule="evenodd" d="M44.1174 4.99969C44.1174 4.46319 44.0458 3.98149 43.9026 3.55527C43.7593 3.12905 43.5533 2.7671 43.2853 2.47009C43.0172 2.17174 42.6911 1.94442 42.3064 1.78611C41.9224 1.62915 41.4892 1.54932 41.0069 1.54932C40.5247 1.54932 40.0908 1.62915 39.7041 1.78611C39.3173 1.94442 38.9892 2.17174 38.7184 2.47009C38.4476 2.7671 38.2396 3.12905 38.0943 3.55527C37.949 3.98149 37.876 4.46319 37.876 4.99969C37.876 5.53687 37.949 6.01857 38.0943 6.44479C38.2396 6.87101 38.4476 7.23161 38.7184 7.52658C38.9892 7.82223 39.3173 8.04888 39.7041 8.20651C40.0908 8.36482 40.5247 8.44398 41.0069 8.44398C41.4892 8.44398 41.9224 8.36482 42.3064 8.20651C42.6911 8.04888 43.0172 7.82223 43.2853 7.52658C43.5533 7.23161 43.7593 6.87101 43.9026 6.44479C44.0458 6.01857 44.1174 5.53687 44.1174 4.99969ZM46 4.99966C46 5.71748 45.8793 6.38117 45.6385 6.99208C45.3977 7.60368 45.0587 8.13274 44.6221 8.57858C44.1855 9.0251 43.6603 9.3742 43.0464 9.62452C42.4325 9.87416 41.7531 10 41.0068 10C40.2613 10 39.5805 9.87416 38.9638 9.62452C38.3479 9.3742 37.8206 9.0251 37.3813 8.57858C36.9427 8.13274 36.6023 7.60368 36.3615 6.99208C36.1207 6.38117 36 5.71748 36 4.99966C36 4.28253 36.1207 3.61883 36.3615 3.00792C36.6023 2.39632 36.9427 1.86726 37.3813 1.42142C37.8206 0.9749 38.3479 0.625803 38.9638 0.375482C39.5805 0.125837 40.2613 0 41.0068 0C41.7531 0 42.4325 0.126514 43.0464 0.379541C43.6603 0.631892 44.1855 0.980313 44.6221 1.4248C45.0587 1.86862 45.3977 2.39632 45.6385 3.00792C45.8793 3.61883 46 4.28253 46 4.99966Z" fill="white"/>
<path fill-rule="evenodd" clip-rule="evenodd" d="M54 0V1.47994H49.7829V4.43983H53.3421V5.92669H49.7829V10H48V0H54Z" fill="white"/>
<path fill-rule="evenodd" clip-rule="evenodd" d="M62 0V1.47994H57.7829V4.25311H61.1053V5.68465H57.7829V8.51314H62V10H56V0H62Z" fill="white"/>
<path fill-rule="evenodd" clip-rule="evenodd" d="M65.9062 4.75798H67.0967C67.4559 4.75798 67.7684 4.71441 68.0356 4.62727C68.302 4.53944 68.5217 4.41842 68.6946 4.26351C68.8667 4.10929 68.9957 3.92603 69.0807 3.71372C69.1658 3.5021 69.2083 3.26904 69.2083 3.01524C69.2083 2.50832 69.0368 2.11897 68.6946 1.8465C68.3516 1.57402 67.8287 1.43848 67.125 1.43848H65.9062V4.75798ZM65.9061 6.09267V10H64V0H67.1249C67.8243 0 68.4223 0.0705394 68.9212 0.210927C69.4193 0.352006 69.8282 0.548409 70.147 0.802213C70.4659 1.05533 70.6997 1.35892 70.8485 1.71162C70.9973 2.06432 71.0717 2.45297 71.0717 2.8769C71.0717 3.21369 71.0207 3.53181 70.9194 3.83126C70.8174 4.1314 70.6714 4.40249 70.4801 4.6473C70.2888 4.89142 70.0528 5.1065 69.7715 5.29115C69.4902 5.4751 69.1699 5.62241 68.8113 5.73306C69.0523 5.86722 69.2599 6.05809 69.4349 6.30705L72 10H70.2852C70.1194 10 69.9791 9.9675 69.8636 9.90318C69.7474 9.83887 69.6496 9.74689 69.5695 9.62656L67.4154 6.42462C67.3346 6.30429 67.2461 6.21923 67.1497 6.16874C67.0526 6.11826 66.9102 6.09267 66.721 6.09267H65.9061Z" fill="white"/>
<path fill-rule="evenodd" clip-rule="evenodd" d="M80 0V1.52835H76.95V10H75.064V1.52835H72V0H80Z" fill="white"/>
<path fill-rule="evenodd" clip-rule="evenodd" d="M83.3662 6.22406H86.6334L85.3861 2.89764C85.3294 2.75034 85.267 2.57607 85.1982 2.37551C85.1295 2.17496 85.0622 1.95712 84.9963 1.72198C84.9303 1.95712 84.8651 2.17565 84.8014 2.37897C84.7376 2.5816 84.6752 2.75933 84.6136 2.91147L83.3662 6.22406ZM90 10H88.5259C88.36 10 88.2247 9.9592 88.1184 9.87898C88.012 9.79806 87.9348 9.69779 87.888 9.57815L87.1226 7.53804H82.8774L82.112 9.57815C82.0737 9.68396 81.9993 9.78147 81.8887 9.8686C81.7775 9.95574 81.6414 10 81.4812 10H80L84.0255 0H85.9745L90 10Z" fill="white"/>
<path fill-rule="evenodd" clip-rule="evenodd" d="M96.3408 1.88769C96.2885 1.98647 96.2276 2.05683 96.1581 2.09811C96.0886 2.13802 96.0062 2.15832 95.9102 2.15832C95.8157 2.15832 95.7075 2.12382 95.5885 2.05345C95.4689 1.98376 95.3285 1.90528 95.1658 1.82003C95.0039 1.7341 94.8133 1.65629 94.5962 1.5866C94.3791 1.51691 94.1219 1.48173 93.826 1.48173C93.558 1.48173 93.3259 1.51218 93.1274 1.57307C92.929 1.63396 92.762 1.71854 92.6259 1.82679C92.4898 1.93505 92.388 2.06495 92.3214 2.21583C92.254 2.36739 92.2211 2.53248 92.2211 2.71313C92.2211 2.94384 92.2892 3.13532 92.4253 3.28823C92.5621 3.44181 92.742 3.5724 92.9662 3.68065C93.1912 3.78958 93.4463 3.88566 93.7329 3.97158C94.0202 4.05751 94.3125 4.14885 94.6105 4.2456C94.9086 4.34303 95.2016 4.45535 95.4882 4.5839C95.7748 4.71245 96.0299 4.87483 96.2549 5.07104C96.4791 5.26725 96.659 5.50744 96.7965 5.79229C96.9319 6.07578 97 6.42084 97 6.82679C97 7.26861 96.9198 7.68268 96.76 8.06834C96.6002 8.45399 96.3659 8.79026 96.0571 9.07646C95.7497 9.36333 95.3729 9.58863 94.9294 9.75305C94.4852 9.91746 93.9765 10 93.4026 10C93.0737 10 92.7491 9.96955 92.4289 9.90866C92.1086 9.84777 91.8019 9.76116 91.5082 9.64817C91.2144 9.53586 90.9393 9.40054 90.6842 9.24222C90.4292 9.08457 90.2006 8.90866 90 8.71448L90.5589 7.84168C90.6112 7.77876 90.6749 7.72598 90.7487 7.68268C90.8225 7.64005 90.9049 7.6184 90.9959 7.6184C91.1156 7.6184 91.2445 7.66441 91.3828 7.7571C91.5211 7.8498 91.6844 7.95264 91.8736 8.06495C92.062 8.17794 92.2849 8.28011 92.5392 8.3728C92.7957 8.46549 93.1016 8.5115 93.4599 8.5115C94.0101 8.5115 94.435 8.38836 94.7366 8.14276C95.0376 7.89716 95.1873 7.54398 95.1873 7.0839C95.1873 6.82679 95.1192 6.61705 94.9824 6.45467C94.847 6.29229 94.6664 6.15629 94.4429 6.04601C94.2172 5.93437 93.9628 5.84168 93.6755 5.76455C93.3889 5.68809 93.0981 5.60419 92.8014 5.51421C92.5048 5.42422 92.2139 5.31529 91.9273 5.18945C91.6407 5.06292 91.385 4.89851 91.1607 4.69553C90.9364 4.49256 90.7559 4.23884 90.6198 3.93437C90.4836 3.62991 90.4156 3.25507 90.4156 2.80785C90.4156 2.45196 90.4908 2.10419 90.6412 1.7659C90.7917 1.4276 91.0117 1.12788 91.3004 0.866035C91.5892 0.604871 91.9438 0.395129 92.3644 0.237483C92.7842 0.079161 93.2643 0 93.8045 0C94.4157 0 94.9802 0.0906631 95.4947 0.270636C96.0113 0.451286 96.4505 0.703654 96.8137 1.02842L96.3408 1.88769Z" fill="white"/>
<path fill-rule="evenodd" clip-rule="evenodd" d="M44.0723 20.9997C44.0723 20.4512 43.998 19.9588 43.848 19.5231C43.6987 19.0874 43.4863 18.7187 43.2102 18.4172C42.9347 18.115 42.5989 17.8833 42.2043 17.7221C41.8097 17.5603 41.3646 17.4794 40.869 17.4794H38.8994V24.5207H40.869C41.3646 24.5207 41.8097 24.4397 42.2043 24.2779C42.5989 24.1168 42.9347 23.8851 43.2102 23.5828C43.4863 23.2813 43.6987 22.9127 43.848 22.4769C43.998 22.0412 44.0723 21.5488 44.0723 20.9997ZM46 20.9997C46 21.7335 45.8759 22.4064 45.6285 23.0198C45.3811 23.6333 45.0327 24.1603 44.5841 24.6036C44.1355 25.0463 43.5958 25.39 42.965 25.6334C42.3341 25.8783 41.6353 26 40.8692 26H37V16H40.8692C41.6353 16 42.3341 16.1231 42.965 16.37C43.5958 16.6162 44.1355 16.96 44.5841 17.4005C45.0327 17.8411 45.3811 18.3674 45.6285 18.9802C45.8759 19.5936 46 20.2665 46 20.9997Z" fill="white"/>
<path fill-rule="evenodd" clip-rule="evenodd" d="M48 26H50V16H48V26Z" fill="white"/>
<path fill-rule="evenodd" clip-rule="evenodd" d="M56.2635 24.5515C56.6899 24.5515 57.0622 24.5143 57.3788 24.4406C57.6955 24.3661 57.9966 24.2633 58.283 24.1327V22.3528H57.0094C56.8869 22.3528 56.7912 22.3203 56.7209 22.2547C56.6505 22.1897 56.6153 22.1099 56.6153 22.0145V20.9861H60V24.9439C59.7418 25.1252 59.4737 25.2815 59.1943 25.4141C58.9149 25.5481 58.6173 25.657 58.3006 25.7429C57.984 25.8282 57.6448 25.8924 57.2838 25.9357C56.9228 25.9777 56.533 26 56.1157 26C55.374 26 54.6922 25.8755 54.068 25.6279C53.4439 25.3796 52.9048 25.0346 52.4496 24.5928C51.9943 24.1503 51.6389 23.6226 51.3835 23.0097C51.1281 22.3954 51 21.7263 51 20.9997C51 20.2649 51.1238 19.5904 51.3729 18.9775C51.6213 18.3638 51.9746 17.8361 52.432 17.3944C52.8894 16.9526 53.4439 16.6096 54.0962 16.3653C54.7485 16.1218 55.4796 16 56.2916 16C57.122 16 57.8411 16.1184 58.4484 16.3559C59.0557 16.592 59.5708 16.8998 59.993 17.2787L59.4441 18.1047C59.3364 18.2712 59.1929 18.3551 59.0149 18.3551C58.9023 18.3551 58.7869 18.3185 58.6701 18.2468C58.5202 18.1609 58.3661 18.075 58.2091 17.9897C58.0522 17.9038 57.8784 17.8287 57.6884 17.7665C57.4984 17.7029 57.2852 17.6514 57.0481 17.6102C56.8109 17.5703 56.5379 17.5493 56.2283 17.5493C55.7259 17.5493 55.272 17.6311 54.8667 17.7935C54.4607 17.9552 54.1145 18.1879 53.8288 18.4897C53.5424 18.7921 53.3221 19.1547 53.1673 19.5789C53.0125 20.0031 52.9351 20.4774 52.9351 20.9997C52.9351 21.5639 53.0167 22.0652 53.1814 22.5056C53.3453 22.9447 53.5754 23.3161 53.871 23.6179C54.1665 23.9203 54.5184 24.1517 54.9265 24.312C55.3346 24.4717 55.7801 24.5515 56.2635 24.5515Z" fill="white"/>
<path fill-rule="evenodd" clip-rule="evenodd" d="M62 26H64V16H62V26Z" fill="white"/>
<path fill-rule="evenodd" clip-rule="evenodd" d="M73 16V17.5284H69.95V26H68.064V17.5284H65V16H73Z" fill="white"/>
<path fill-rule="evenodd" clip-rule="evenodd" d="M76.3662 22.2241H79.6334L78.3861 18.8976C78.3294 18.7503 78.267 18.5761 78.1982 18.3755C78.1295 18.175 78.0622 17.9571 77.9963 17.722C77.9303 17.9571 77.8651 18.1757 77.8014 18.379C77.7376 18.5816 77.6752 18.7593 77.6136 18.9115L76.3662 22.2241ZM83 26H81.5259C81.36 26 81.2247 25.9592 81.1184 25.879C81.012 25.7981 80.9348 25.6978 80.888 25.5781L80.1226 23.538H75.8774L75.112 25.5781C75.0737 25.684 74.9993 25.7815 74.8887 25.8686C74.7775 25.9557 74.6414 26 74.4812 26H73L77.0255 16H78.9745L83 26Z" fill="white"/>
<path fill-rule="evenodd" clip-rule="evenodd" d="M85.9033 24.4647H90V26H84V16H85.9033V24.4647Z" fill="white"/>
<path fill-rule="evenodd" clip-rule="evenodd" d="M97 16V17.4799H92.7829V20.2531H96.1053V21.6846H92.7829V24.5131H97V26H91V16H97Z" fill="white"/>
<path fill-rule="evenodd" clip-rule="evenodd" d="M104.341 17.8877C104.289 17.9865 104.228 18.0568 104.159 18.0981C104.089 18.138 104.006 18.1583 103.911 18.1583C103.816 18.1583 103.708 18.1238 103.589 18.0535C103.469 17.9838 103.328 17.9053 103.166 17.82C103.004 17.7341 102.814 17.6563 102.596 17.5866C102.379 17.5169 102.123 17.4817 101.826 17.4817C101.559 17.4817 101.326 17.5122 101.128 17.5731C100.929 17.634 100.763 17.7185 100.626 17.8268C100.49 17.935 100.389 18.065 100.322 18.2158C100.255 18.3674 100.221 18.5325 100.221 18.7131C100.221 18.9438 100.29 19.1353 100.425 19.2882C100.562 19.4418 100.742 19.5724 100.967 19.6806C101.191 19.7896 101.447 19.8857 101.733 19.9716C102.02 20.0575 102.312 20.1488 102.611 20.2456C102.909 20.343 103.202 20.4553 103.489 20.5839C103.776 20.7124 104.03 20.8748 104.256 21.071C104.479 21.2673 104.66 21.5074 104.797 21.7923C104.933 22.0758 105 22.4208 105 22.8268C105 23.2686 104.92 23.6827 104.761 24.0683C104.6 24.454 104.366 24.7903 104.058 25.0765C103.75 25.3633 103.374 25.5886 102.93 25.753C102.485 25.9175 101.977 26 101.403 26C101.074 26 100.749 25.9696 100.43 25.9087C100.109 25.8478 99.8027 25.7612 99.5089 25.6482C99.2151 25.5359 98.94 25.4005 98.6842 25.2422C98.4292 25.0846 98.2013 24.9087 98 24.7145L98.5596 23.8417C98.6119 23.7788 98.6749 23.726 98.7487 23.6827C98.8232 23.6401 98.9056 23.6184 98.9966 23.6184C99.1156 23.6184 99.2445 23.6644 99.3828 23.7571C99.5211 23.8498 99.6852 23.9526 99.8743 24.065C100.063 24.1779 100.285 24.2801 100.54 24.3728C100.796 24.4655 101.102 24.5115 101.461 24.5115C102.01 24.5115 102.435 24.3884 102.737 24.1428C103.038 23.8972 103.188 23.544 103.188 23.0839C103.188 22.8268 103.119 22.6171 102.983 22.4547C102.848 22.2923 102.667 22.1563 102.443 22.046C102.218 21.9344 101.963 21.8417 101.676 21.7645C101.39 21.6881 101.098 21.6042 100.802 21.5142C100.505 21.4242 100.214 21.3153 99.9273 21.1894C99.6407 21.0629 99.3857 20.8985 99.1614 20.6955C98.9364 20.4926 98.7559 20.2388 98.6205 19.9344C98.4843 19.6299 98.4156 19.2551 98.4156 18.8078C98.4156 18.452 98.4915 18.1042 98.6412 17.7659C98.7924 17.4276 99.0124 17.1279 99.3004 16.866C99.5899 16.6049 99.9438 16.3951 100.365 16.2375C100.785 16.0792 101.265 16 101.805 16C102.416 16 102.98 16.0907 103.495 16.2706C104.012 16.4513 104.451 16.7037 104.814 17.0284L104.341 17.8877Z" fill="white"/>
<mask id="mask0" mask-type="alpha" maskUnits="userSpaceOnUse" x="0" y="0" width="29" height="28">
<path fill-rule="evenodd" clip-rule="evenodd" d="M14.3458 0.811385L0.367098 14.139C-0.123072 14.6077 -0.122365 15.3678 0.36922 15.8365L11.7075 26.6469C12.1998 27.1163 12.9962 27.1184 13.4885 26.649L27.4658 13.3214C27.9574 12.8527 28.338 11.9368 28.316 11.277L27.9963 1.53969C27.9751 0.879231 27.3944 0.326769 26.7019 0.305308L16.4897 0.000692308C16.4713 0 16.4529 0 16.4338 0C15.7463 0 14.8247 0.354462 14.3458 0.811385ZM19.3808 8.55346C18.4075 7.61815 18.4026 6.10684 19.3688 5.17846C20.3364 4.24938 21.908 4.25354 22.8813 5.18884C23.8539 6.12415 23.8588 7.63615 22.8926 8.56454C22.4116 9.027 21.78 9.25823 21.147 9.25823C20.509 9.25823 19.8695 9.02354 19.3808 8.55346Z" fill="white"/>
</mask>
<g mask="url(#mask0)">
<path fill-rule="evenodd" clip-rule="evenodd" d="M-3.53613 30.4615H31.8538V-3.46155H-3.53613V30.4615Z" fill="#E81C36"/>
</g>
</svg>
