<svg xmlns="http://www.w3.org/2000/svg" xmlns:xlink="http://www.w3.org/1999/xlink" width="51" height="51" viewBox="0 0 51 51">
    <defs>
        <path id="a" d="M.062.35H50.63v50.567H.062z"/>
        <path id="c" d="M13.07.833L.624 5.933a.623.623 0 0 0-.387.584l.126 14.985c.001.255.16.484.396.577l12.532 4.888a.61.61 0 0 0 .464-.003l12.446-5.1a.628.628 0 0 0 .388-.583l-.066-7.82-.014-1.685-.046-5.48a.624.624 0 0 0-.4-.578L13.535.828a.617.617 0 0 0-.464.004M8.765 3.948l4.548-1.864 10.844 4.23-4.548 1.865M2.544 6.497L7.09 4.632l10.842 4.232-4.546 1.864m.633 1.091l11.202-4.591.048 5.615a8.708 8.708 0 0 1-4.982 1.623.621.621 0 0 0-.618.63.622.622 0 0 0 .628.619v-.001a9.95 9.95 0 0 0 4.985-1.39l.054 6.545-11.2 4.59M1.607 21.07L1.493 7.427 12.77 11.83l.115 13.641m-9.443-8.99a.624.624 0 0 0-.619.63l.026 3.122a.624.624 0 1 0 1.25-.01l-.027-3.123a.625.625 0 0 0-.625-.618h-.005m2.503.602a.627.627 0 0 0-.62.63l.029 3.123a.622.622 0 0 0 .628.62.626.626 0 0 0 .62-.631l-.027-3.122a.625.625 0 0 0-.624-.62h-.006"/>
    </defs>
    <g fill="none" fill-rule="evenodd">
        <g>
            <mask id="b" fill="#fff">
                <use xlink:href="#a"/>
            </mask>
            <path fill="#4F0036" d="M50.63 25.633C50.63 11.67 39.31.35 25.346.35 11.382.35.062 11.67.062 25.633c0 13.964 11.32 25.284 25.284 25.284 13.964 0 25.284-11.32 25.284-25.284" mask="url(#b)"/>
        </g>
        <path fill="#FFF" d="M37.509 23.775l-.047-5.48a.623.623 0 0 0-.397-.577l-12.531-4.89a.626.626 0 0 0-.463.004l-12.447 5.1a.627.627 0 0 0-.387.584l.127 14.986c0 .255.16.484.395.577l12.532 4.888a.62.62 0 0 0 .465-.003l12.445-5.1a.624.624 0 0 0 .388-.584l-.065-7.817-.015-1.688zm-17.744-7.83l4.548-1.862 10.844 4.23-4.548 1.865-10.844-4.233zm-6.222 2.552l4.547-1.865 10.843 4.232-4.547 1.864-10.843-4.231zm11.477 5.322l11.202-4.591.046 5.615a8.693 8.693 0 0 1-4.98 1.622.624.624 0 0 0-.62.63.623.623 0 0 0 .63.62v-.001a9.957 9.957 0 0 0 4.983-1.39l.056 6.545-11.202 4.59-.115-13.64zm-12.412 9.25l-.116-13.642 11.279 4.402.116 13.641-11.279-4.401zm1.217-3.959l.026 3.122a.624.624 0 1 0 1.248-.01l-.026-3.123a.624.624 0 0 0-1.248.011zm2.502.602l.027 3.124a.623.623 0 1 0 1.248-.011l-.026-3.122a.625.625 0 0 0-1.249.01z"/>
        <g transform="translate(11 12)">
            <mask id="d" fill="#fff">
                <use xlink:href="#c"/>
            </mask>
            <path fill="#FFF" d="M30.163 26.593L.19 26.846" mask="url(#d)"/>
        </g>
    </g>
</svg>
