<svg xmlns="http://www.w3.org/2000/svg" width="24" height="24" viewBox="0 0 24 24">
    <path fill="#000" fill-rule="evenodd" d="M19 7h.5a.5.5 0 1 1 0 1H19v.5a.5.5 0 1 1-1 0V8h-.5a.5.5 0 1 1 0-1h.5v-.5a.5.5 0 1 1 1 0V7zM5.422 7l1.535 7.002A.507.507 0 0 1 7 14h11.747a.496.496 0 0 0 .475-.346l.437-1.774a.5.5 0 0 1 .971.24l-.442 1.792A1.5 1.5 0 0 1 18.747 15H7.177l.07.323c.091.452.336.677.753.677h8a2 2 0 1 1-1.732 1h-2.536a2 2 0 1 1-3.464 0H8c-.92 0-1.552-.582-1.731-1.47L4.035 5.34c-.039-.19-.242-.343-.496-.34H1.5a.5.5 0 0 1 0-1h2.034c.714-.007 1.344.466 1.48 1.134l.19.866h8.28a.5.5 0 1 1 0 1H5.422zM11 18a1 1 0 1 0-2.001.001A1 1 0 0 0 11 18zm6 0a1 1 0 1 0-2.001.001A1 1 0 0 0 17 18zm4-10.5a2.5 2.5 0 1 0-5 0 2.5 2.5 0 0 0 5 0zm1 0a3.5 3.5 0 1 1-7 0 3.5 3.5 0 0 1 7 0z"/>
</svg>
