<?xml version="1.0" encoding="UTF-8"?>
<svg width="21px" height="16px" viewBox="0 0 21 16" version="1.1" xmlns="http://www.w3.org/2000/svg" xmlns:xlink="http://www.w3.org/1999/xlink">
    <!-- Generator: Sketch 53 (72520) - https://sketchapp.com -->
    <title>Icons/add_to_cart</title>
    <desc>Created with Sketch.</desc>
    <g id="Symbols" stroke="none" stroke-width="1" fill="none" fill-rule="evenodd">
        <g id="Buttons/contained/add_to_cart" transform="translate(-22.000000, -12.000000)" fill="#FFFFFF">
            <g id="Group" transform="translate(21.000000, 8.000000)">
                <g id="Icons/Actions/a-icon-add-to-cart">
                    <path d="M19,7 L19.5,7 C19.7761424,7 20,7.22385763 20,7.5 C20,7.77614237 19.7761424,8 19.5,8 L19,8 L19,8.5 C19,8.77614237 18.7761424,9 18.5,9 C18.2238576,9 18,8.77614237 18,8.5 L18,8 L17.5,8 C17.2238576,8 17,7.77614237 17,7.5 C17,7.22385763 17.2238576,7 17.5,7 L18,7 L18,6.5 C18,6.22385763 18.2238576,6 18.5,6 C18.7761424,6 19,6.22385763 19,6.5 L19,7 Z M5.42249065,7 L6.95744769,14.0017434 C6.97131216,14.0005888 6.98533732,14 6.9995,14 L18.7465,14 C18.9692144,14 19.1651313,13.8520125 19.2220131,13.6544071 L19.6590131,11.8804071 C19.7250624,11.6122801 19.9959659,11.4484638 20.2640929,11.5145131 C20.5322199,11.5805624 20.6960362,11.8514659 20.6299869,12.1195929 L20.1882198,13.9115082 C20.0039054,14.5558593 19.4159187,15 18.7465,15 L7.17629048,15 L7.24711113,15.3230501 C7.33838078,15.7751201 7.58276408,16 8,16 L16,16 C17.1041424,16 18,16.8958576 18,18 C18,19.1041424 17.1041424,20 16,20 C14.8958576,20 14,19.1041424 14,18 C14,17.6357754 14.0974827,17.2942153 14.2677676,17 L11.7322324,17 C11.9025173,17.2942153 12,17.6357754 12,18 C12,19.1041424 11.1041424,20 10,20 C8.89585763,20 8,19.1041424 8,18 C8,17.6357754 8.09748267,17.2942153 8.26776765,17 L8,17 C7.08074315,17 6.44793502,16.4176941 6.26859918,15.529073 L4.03501669,5.3405809 C3.99626657,5.14991272 3.79338276,4.99738808 3.53898552,5 L1.49998552,4.99994094 C1.22384314,4.99993294 0.999992002,4.77606883 1,4.49992646 C1.000008,4.22378408 1.22387211,3.99993294 1.50001448,3.99994094 L3.53381356,4.0000269 C4.24827847,3.99261544 4.87767149,4.46578252 5.01340082,5.13392696 L5.20326567,6 L13.484,6 C13.7601424,6 13.984,6.22385763 13.984,6.5 C13.984,6.77614237 13.7601424,7 13.484,7 L5.42249065,7 Z M11,18 C11,17.4481424 10.5518576,17 10,17 C9.44814237,17 9,17.4481424 9,18 C9,18.5518576 9.44814237,19 10,19 C10.5518576,19 11,18.5518576 11,18 Z M17,18 C17,17.4481424 16.5518576,17 16,17 C15.4481424,17 15,17.4481424 15,18 C15,18.5518576 15.4481424,19 16,19 C16.5518576,19 17,18.5518576 17,18 Z M21,7.5 C21,6.11914237 19.8808576,5 18.5,5 C17.1191424,5 16,6.11914237 16,7.5 C16,8.88085763 17.1191424,10 18.5,10 C19.8808576,10 21,8.88085763 21,7.5 Z M22,7.5 C22,9.43314237 20.4331424,11 18.5,11 C16.5668576,11 15,9.43314237 15,7.5 C15,5.56685763 16.5668576,4 18.5,4 C20.4331424,4 22,5.56685763 22,7.5 Z" id="a-icon-add-to-cart"></path>
                </g>
            </g>
        </g>
    </g>
</svg>