<svg xmlns="http://www.w3.org/2000/svg" xmlns:xlink="http://www.w3.org/1999/xlink" width="289" height="228" viewBox="0 0 289 228">
    <defs>
        <path id="a" d="M0 0h298v234H0z"/>
    </defs>
    <g fill="none" fill-rule="evenodd" opacity=".438" transform="translate(-9)">
        <mask id="b" fill="#fff">
            <use xlink:href="#a"/>
        </mask>
        <g mask="url(#b)">
            <path fill="#4E008E" d="M11.5 55a2.5 2.5 0 1 1 0 5 2.5 2.5 0 0 1 0-5"/>
            <path fill="#F9D41E" d="M61.5 22a2.5 2.5 0 1 1 0 5 2.5 2.5 0 0 1 0-5"/>
            <path fill="#4E008E" d="M77.5 55a2.5 2.5 0 1 1 0 5 2.5 2.5 0 0 1 0-5"/>
            <path fill="#F9D41E" d="M93.5 39a2.5 2.5 0 1 1 0 5 2.5 2.5 0 0 1 0-5"/>
            <path fill="#B9007E" d="M82.5-2a2.5 2.5 0 1 1 0 5 2.5 2.5 0 0 1 0-5M43.5 4a2.5 2.5 0 1 1 0 5 2.5 2.5 0 0 1 0-5"/>
            <path fill="#F9D41E" d="M120.5 44a2.5 2.5 0 1 1 0 5 2.5 2.5 0 0 1 0-5"/>
            <path fill="#4E008E" d="M152.5 61a2.5 2.5 0 1 1 0 5 2.5 2.5 0 0 1 0-5M202.5 28a2.5 2.5 0 1 1 0 5 2.5 2.5 0 0 1 0-5"/>
            <path fill="#F9D41E" d="M218.5 61a2.5 2.5 0 1 1 0 5 2.5 2.5 0 0 1 0-5"/>
            <path fill="#B9007E" d="M234.5 44a2.5 2.5 0 1 1 0 5 2.5 2.5 0 0 1 0-5"/>
            <path fill="#F9D41E" d="M223.5 3a2.5 2.5 0 1 1 0 5 2.5 2.5 0 0 1 0-5"/>
            <path fill="#4E008E" d="M141.5 3a2.5 2.5 0 1 1 0 5 2.5 2.5 0 0 1 0-5"/>
            <path fill="#F9D41E" d="M184.5 10a2.5 2.5 0 1 1 0 5 2.5 2.5 0 0 1 0-5M23.5 190a2.5 2.5 0 1 1 0 5 2.5 2.5 0 0 1 0-5"/>
            <path fill="#B9007E" d="M94.5 133a2.5 2.5 0 1 1 0 5 2.5 2.5 0 0 1 0-5"/>
            <path fill="#F9D41E" d="M77.5 107a2.5 2.5 0 1 1 0 5 2.5 2.5 0 0 1 0-5"/>
            <path fill="#B9007E" d="M103.5 87a2.5 2.5 0 1 1 0 5 2.5 2.5 0 0 1 0-5"/>
            <path fill="#F9D41E" d="M28.5 117a2.5 2.5 0 1 1 0 5 2.5 2.5 0 0 1 0-5"/>
            <path fill="#B9007E" d="M12.5 133a2.5 2.5 0 1 1 0 5 2.5 2.5 0 0 1 0-5"/>
            <path fill="#4E008E" d="M54.5 140a2.5 2.5 0 1 1 0 5 2.5 2.5 0 0 1 0-5"/>
            <path fill="#F9D41E" d="M157.5 31a2.5 2.5 0 1 1 0 5 2.5 2.5 0 0 1 0-5"/>
            <path fill="#4E008E" d="M286.5 55a2.5 2.5 0 1 1 0 5 2.5 2.5 0 0 1 0-5M259.5 156a2.5 2.5 0 1 1 0 5 2.5 2.5 0 0 1 0-5"/>
            <path fill="#F9D41E" d="M292.5 173a2.5 2.5 0 1 1 0 5 2.5 2.5 0 0 1 0-5M297.5 99a2.5 2.5 0 1 1 0 5 2.5 2.5 0 0 1 0-5"/>
            <path fill="#B9007E" d="M281.5 115a2.5 2.5 0 1 1 0 5 2.5 2.5 0 0 1 0-5M262.5 73a2.5 2.5 0 1 1 0 5 2.5 2.5 0 0 1 0-5"/>
            <path fill="#F9D41E" d="M231.5 142a2.5 2.5 0 1 1 0 5 2.5 2.5 0 0 1 0-5"/>
            <path fill="#4E008E" d="M215.5 117a2.5 2.5 0 1 1 0 5 2.5 2.5 0 0 1 0-5M240.5 97a2.5 2.5 0 1 1 0 5 2.5 2.5 0 0 1 0-5M257.5 219a2.5 2.5 0 1 1 0 5 2.5 2.5 0 0 1 0-5"/>
            <path fill="#B9007E" d="M166.5 126a2.5 2.5 0 1 1 0 5 2.5 2.5 0 0 1 0-5"/>
            <path fill="#4E008E" d="M149.5 142a2.5 2.5 0 1 1 0 5 2.5 2.5 0 0 1 0-5M130.5 100a2.5 2.5 0 1 1 0 5 2.5 2.5 0 0 1 0-5"/>
            <path fill="#F9D41E" d="M26.5 223a2.5 2.5 0 1 1 0 5 2.5 2.5 0 0 1 0-5"/>
        </g>
    </g>
</svg>
