<?xml version="1.0" encoding="UTF-8"?>
<svg width="42px" height="42px" viewBox="0 0 42 42" version="1.1" xmlns="http://www.w3.org/2000/svg" xmlns:xlink="http://www.w3.org/1999/xlink">
    <!-- Generator: Sketch 53 (72520) - https://sketchapp.com -->
    <title>brillante color deshabilitado</title>
    <desc>Created with Sketch.</desc>
    <g id="-Mobile" stroke="none" stroke-width="1" fill="none" fill-rule="evenodd">
        <g id="consultora" transform="translate(-299.000000, -167.000000)">
            <g id="brillante-color-deshabilitado" transform="translate(299.000000, 167.000000)">
                <g id="Group-49">
                    <circle id="Oval-Copy-5" fill="#ACA18E" cx="21" cy="21" r="21"></circle>
                    <path d="M14.5094154,9.68217863 L16.7462566,10.4539483 L11.106251,14.3763543 L17.7362428,27.7476425 L19.9786379,32.0241545 L16.0645129,26.6641384 L7.6503244,15.6051327 L14.5094154,9.68217863 Z M11.9226772,14.6063719 L17.5126975,10.7202845 L20.0536158,11.5994967 L18.2819154,12.2108593 L20.5617995,32.0347474 L11.9226772,14.6063719 Z M22.0891275,11.5994967 L24.6244919,10.7217978 L30.2200661,14.6063719 L21.5809438,32.0347474 L23.8608279,12.2108593 L22.0891275,11.5994967 Z M21.0713716,31.0738185 L20.699259,27.8338991 L20.6812088,27.7082973 L18.9539397,12.6845141 L21.0713716,11.9520895 L23.1860266,12.6845141 L21.0713716,31.0738185 Z M21.0713716,11.2469038 L18.1874988,10.2496563 L21.0644292,8.24910825 L23.9469136,10.2511696 L21.0713716,11.2469038 Z M25.9088358,26.8971825 L22.1488321,31.9742165 L24.5050826,27.5509169 L30.9740107,14.4928764 L31.0309384,14.3778676 L25.3923213,10.4554616 L27.630551,9.68217863 L34.4938074,15.6081592 L26.0810073,26.6626251 L25.9032819,26.8971825 L25.9088358,26.8971825 Z M27.8124418,8.98001954 L27.7582911,8.93310805 L24.7133546,9.98483341 L21.1338532,7.50155094 L21.0644292,7.4516129 L17.4238348,9.98332014 L14.4510992,8.95732044 L14.3844522,8.93310805 L6.87832955,15.4144602 L6.77419355,15.5052566 L21.0727601,34.2774194 L35.2838525,15.6187521 L35.3699382,15.5052566 L27.8124418,8.98001954 Z" id="Fill-24" fill="#FFFFFF" transform="translate(21.072066, 20.864516) rotate(-360.000000) translate(-21.072066, -20.864516) "></path>
                </g>
            </g>
        </g>
    </g>
</svg>