<svg xmlns="http://www.w3.org/2000/svg" xmlns:xlink="http://www.w3.org/1999/xlink" width="360" height="373.948" viewBox="0 0 360 373.948">
  <defs>
    <clipPath id="clip-_1_9">
      <rect width="360" height="373.948"/>
    </clipPath>
  </defs>
  <g id="_1_9" data-name="1 – 9" clip-path="url(#clip-_1_9)">
    <rect width="360" height="373.948" fill="#fff"/>
    <g id="Grupo_489" data-name="Grupo 489" transform="translate(51 89.215) rotate(-16)">
      <ellipse id="Elipse_4" data-name="Elipse 4" cx="57.746" cy="57.746" rx="57.746" ry="57.746" transform="translate(10.358 2.91)" fill="#4f0035" opacity="0.055"/>
      <path id="Trazado_456" data-name="Trazado 456" d="M39.671,118.476,7.049,10.881s9.559-14.768,16.29-9.9S47.555,65.3,47.555,65.3s8.75-8.487,17.127-6.81S72.82,65.3,72.82,65.3s3.78-11.216,7.294-11.434,15.411,4.624,15.411,4.624,7.892-10.7,13.675-8.629,8.539,8.968,10.593,15.439,13.3,43.5,13.3,43.5a36.715,36.715,0,0,1-13.3,28.038c-14.221,12.038-8.1,9.321-16.271,14.9a52.956,52.956,0,0,1-16.409,7.413s-17.469,5.952-27.516,0S29.128,143,29.128,143l-5.789-6.163S7.133,121.358,3.061,108.8-2.21,89.846,7.049,86.616,39.671,118.476,39.671,118.476Z" transform="translate(56.861 96.329)" fill="#fff"/>
      <g id="noun_Gesture_1910540" transform="translate(0 0)">
        <g id="Grupo_488" data-name="Grupo 488" transform="translate(0 0)">
          <path id="Trazado_455" data-name="Trazado 455" d="M52.421.067A2.415,2.415,0,0,0,50.557,3L59.08,40.466A2.415,2.415,0,1,0,63.786,39.4L55.351,1.931A2.415,2.415,0,0,0,52.421.067Zm50.607,8.612a2.414,2.414,0,0,0-1.865,1.154l-20.51,32.5a2.415,2.415,0,1,0,4.084,2.574l20.51-32.5a2.416,2.416,0,0,0-2.22-3.729ZM10.778,29.455a2.415,2.415,0,0,0-.71,4.439L42.474,54.4a2.415,2.415,0,1,0,2.575-4.085L12.643,29.81a2.414,2.414,0,0,0-1.865-.355ZM132.594,50.32a2.417,2.417,0,0,0-.533.089L94.591,58.844a2.456,2.456,0,1,0,1.065,4.794l37.379-8.523a2.416,2.416,0,0,0-.444-4.8ZM39.988,71.185a2.413,2.413,0,0,0-.444.089L2.166,79.708a2.415,2.415,0,1,0,.977,4.706l37.469-8.435a2.417,2.417,0,1,0-.622-4.794Zm51.141,8.879a2.415,2.415,0,0,0-.977,4.439l32.406,20.6a2.415,2.415,0,1,0,2.575-4.084l-32.406-20.6a2.414,2.414,0,0,0-1.6-.355Zm-39.154,8.79a2.415,2.415,0,0,0-1.509,1.154l-20.51,32.407a2.415,2.415,0,1,0,4.084,2.575L54.55,92.583a2.415,2.415,0,0,0-2.575-3.729Zm25.038,5.771a15.3,15.3,0,0,0-13.14,6.393,11.671,11.671,0,0,0-1.6,10.122C65.508,121.709,75.8,155.373,80.92,173.2h.089l9.056,29.21L78.256,185.72c-2.86-4.042-6.663-6.123-10.388-6.126a12.114,12.114,0,0,0-9.411,4.972c-4.675,5.934-5.4,16.129,2.22,25.482l.089.176,17.491,26.1c2.856,4.25,8.685,6.59,14.65,8.967s12.224,4.547,15.094,6.126c18.731,10.314,33.321,9.117,45.283,3.019s21.4-16.721,31.429-25.127c3.585-3.005,5.888-7.932,7.192-13.14s1.627-10.681.355-15l-12.519-42.529c-.014-.071-.074-.105-.089-.176-1.058-5.024-3.193-8.629-5.949-10.921a13.635,13.635,0,0,0-9.234-3.108,15.671,15.671,0,0,0-8.257,2.664,10.726,10.726,0,0,0-3.108,3.2c-3.956-2.172-8.3-3.664-12.785-3.2-4.531.473-8.615,3.557-11.631,8.346-4.321-4.094-9.5-5.423-14.117-4.439a18.194,18.194,0,0,0-9.411,5.771c-5.389-18.659-13.082-42.711-15.715-51.408-1.392-4.6-4.118-7.8-7.369-9.412a13.054,13.054,0,0,0-5.061-1.332Zm-2.042,4.884a8.909,8.909,0,0,1,4.972.8c2.01.995,3.8,2.915,4.883,6.481,2.915,9.626,11.756,36.646,17.047,55.579a2.415,2.415,0,0,0,4.439.444,14.52,14.52,0,0,1,9.234-7.1c3.786-.806,7.737.114,11.453,4.883a2.415,2.415,0,0,0,4.173-.532c2.37-5.694,5.683-7.761,9.589-8.168s8.583,1.151,12.342,3.729a2.415,2.415,0,0,0,3.729-1.865,4.521,4.521,0,0,1,2.131-2.663,11.165,11.165,0,0,1,5.682-1.865,8.5,8.5,0,0,1,5.949,1.953c1.812,1.508,3.472,4.106,4.35,8.435.027.06.057.119.089.176l12.608,42.793c.869,2.952.7,7.864-.444,12.43s-3.369,8.789-5.594,10.655c-10.393,8.713-19.715,18.984-30.543,24.5s-23.036,6.737-40.754-3.019c-3.773-2.077-9.86-4-15.626-6.3s-11.057-5.237-12.43-7.281L64.671,207.38a2.389,2.389,0,0,0-.178-.176c-6.6-7.991-5.5-15.576-2.308-19.622a7.391,7.391,0,0,1,5.682-3.107c2.025,0,4.295.993,6.481,4.084l20.6,29.122a2.415,2.415,0,0,0,4.262-2.131L85.536,171.867h.089c-5.15-17.932-15.5-51.584-18.734-62.151a6.657,6.657,0,0,1,.977-6.037,10.173,10.173,0,0,1,5.416-3.818,9.983,9.983,0,0,1,1.687-.355Z"/>
        </g>
      </g>
    </g>
  </g>
</svg>
