<?xml version="1.0" encoding="UTF-8"?>
<svg width="26px" height="35px" viewBox="0 0 26 35" version="1.1" xmlns="http://www.w3.org/2000/svg" xmlns:xlink="http://www.w3.org/1999/xlink">
    <!-- Generator: Sketch 53 (72520) - https://sketchapp.com -->
    <title>Group 27 Copy</title>
    <desc>Created with Sketch.</desc>
    <defs>
        <polygon id="path-1" points="0 0.150152417 9.96963699 0.150152417 9.96963699 2.87698413 0 2.87698413"></polygon>
        <polygon id="path-3" points="0.0264347826 0.180256133 19.8544099 0.180256133 19.8544099 20.835956 0.0264347826 20.835956"></polygon>
        <polygon id="path-5" points="0.201355418 0.0133387446 2.42523395 0.0133387446 2.42523395 33.2035553 0.201355418 33.2035553"></polygon>
        <path d="M0.05,19.91625 L19.2426316,11.378 C20.1636842,10.71525 20.1471053,9.39475 19.2097368,8.75325 L19.2097368,8.75325 L19.0065789,8.61425 L0.0263157895,0.1725 L0.05,19.91625 Z" id="path-7"></path>
    </defs>
    <g id="Desktop" stroke="none" stroke-width="1" fill="none" fill-rule="evenodd">
        <g id="Beneficios-consultora" transform="translate(-859.000000, -372.000000)">
            <g id="Group-27-Copy" transform="translate(852.000000, 371.000000)">
                <rect id="Rectangle" x="0" y="0" width="40" height="40"></rect>
                <g id="Group-14" transform="translate(7.142857, 1.428571)">
                    <g id="Group-10">
                        <g id="Group-3" transform="translate(0.000000, 31.646825)">
                            <mask id="mask-2" fill="white">
                                <use xlink:href="#path-1"></use>
                            </mask>
                            <g id="Clip-2"></g>
                            <path d="M9.96963699,1.51358135 C9.96963699,2.26656656 7.73789096,2.87701028 4.98479227,2.87701028 C2.23169358,2.87701028 -5.24499655e-05,2.26656656 -5.24499655e-05,1.51358135 C-5.24499655e-05,0.76059614 2.23169358,0.150152417 4.98479227,0.150152417 C7.73789096,0.150152417 9.96963699,0.76059614 9.96963699,1.51358135" id="Fill-1" fill="#CECCCB" mask="url(#mask-2)"></path>
                        </g>
                        <g id="Group-6" transform="translate(6.031746, 0.784632)">
                            <mask id="mask-4" fill="white">
                                <use xlink:href="#path-3"></use>
                            </mask>
                            <g id="Clip-5"></g>
                            <path d="M19.1761794,11.9034434 L19.1761794,11.9034434 L0.0497750173,20.835956 L0.0264347826,0.180256133 L18.9409413,9.01181277 L19.1433982,9.15723124 C20.0777943,9.82861472 20.0940538,11.2100902 19.1761794,11.9034434" id="Fill-4" fill="#B70F7E" mask="url(#mask-4)"></path>
                        </g>
                        <g id="Group-9" transform="translate(3.671498, 0.000000)">
                            <mask id="mask-6" fill="white">
                                <use xlink:href="#path-5"></use>
                            </mask>
                            <g id="Clip-8"></g>
                            <path d="M2.42523395,1.07873828 C2.42523395,0.492618146 1.94453002,0.0132079726 1.35682816,0.0132079726 C0.808463768,0.0132079726 0.358443064,0.432724567 0.300223602,0.964966631 L0.28868461,0.964966631 C0.277670117,5.8425009 0.268753623,10.7202967 0.254854382,15.5980925 C0.239643892,20.9976687 0.219450656,26.3975063 0.201355418,31.7970824 C0.221548654,32.6128382 0.271113872,33.2408054 1.45254934,33.2018353 C2.62139683,33.1633883 2.33161077,32.4266189 2.42523395,31.8114674 C2.42025121,28.4145337 2.41526846,25.0176001 2.41002346,21.6206665 C2.40268047,15.1751759 2.39533747,8.72994679 2.38799448,2.28445617 C2.41002346,2.19997745 2.42523395,2.1128833 2.42523395,2.02134289 L2.42523395,1.07873828 Z" id="Fill-7" fill="#DC9466" mask="url(#mask-6)"></path>
                        </g>
                    </g>
                    <g id="Group-13" transform="translate(5.714286, 1.428571)">
                        <mask id="mask-8" fill="white">
                            <use xlink:href="#path-7"></use>
                        </mask>
                        <g id="Clip-12"></g>
                        <path d="M0.05,19.91625 L19.2426316,11.378 C20.1636842,10.71525 20.1471053,9.39475 19.2097368,8.75325 L19.2097368,8.75325 L19.0065789,8.61425 L0.0263157895,0.1725 L0.05,19.91625 Z" id="Fill-11" mask="url(#mask-8)"></path>
                    </g>
                </g>
            </g>
        </g>
    </g>
</svg>