<svg xmlns="http://www.w3.org/2000/svg" xmlns:xlink="http://www.w3.org/1999/xlink" width="40" height="40" viewBox="0 0 40 40">
    <defs>
        <path id="a" d="M0 .129h21.544v19.395H0z"/>
        <linearGradient id="b" x1="0%" y1="50%" y2="50%">
            <stop offset="0%" stop-color="#E81C36"/>
            <stop offset="25.385%" stop-color="#E71B38"/>
            <stop offset="37.806%" stop-color="#CF0D5C"/>
            <stop offset="47.224%" stop-color="#B9007E"/>
            <stop offset="77.464%" stop-color="#7C0087"/>
            <stop offset="100%" stop-color="#4E008E"/>
        </linearGradient>
    </defs>
    <g fill="none" fill-rule="evenodd">
        <circle cx="20" cy="20" r="20" fill="#EAEAEA"/>
        <g transform="translate(10 10)">
            <mask id="c" fill="#fff">
                <use xlink:href="#a"/>
            </mask>
            <path fill="url(#b)" d="M20.412 2.749c-.343 1.931-.669 3.867-1.029 5.795-.106.57-.315 1.026-.76 1.43l-8.434 7.01c-.414.344-.819.706-1.246 1.035-.98.754-2.188.54-2.98-.35-1.315-1.478-2.596-2.987-3.893-4.48-.652-.75-1.303-1.524-.891-2.593.23-.6.766-.97 1.245-1.368l4.824-4.01c1.373-1.14 2.727-2.309 4.122-3.425.555-.444 1.152-.565 1.846-.572l3.146-.03c.951-.008 1.906-.038 2.857-.026 1.01.013 1.345.725 1.193 1.584m1.075-1.006C21.194.53 20.086.118 18.942.13c-2.048.02-4.108-.026-6.154.058-1.757.071-3.2 1.728-4.46 2.776l-5.72 4.753c-.5.416-1.012.823-1.503 1.25-1.056.919-1.424 2.372-.801 3.639.35.713 1.03 1.337 1.549 1.933l2.46 2.832c.548.63 1.085 1.406 1.845 1.804 1.207.631 2.564.367 3.583-.46 3.145-2.552 6.23-5.178 9.345-7.767l.288-.24c.865-.784 1.008-1.745 1.197-2.807l.648-3.654c.135-.761.455-1.731.268-2.503" mask="url(#c)"/>
        </g>
        <path fill="#4E008E" d="M24.953 17.18c-1.744.517-2.737-1.976-.985-2.595.73-.258 1.543.12 1.806.835.276.75-.141 1.434-.82 1.76m-1.373-3.496c-1.204.453-1.839 1.798-1.41 2.991.446 1.24 1.83 1.833 3.079 1.44a.566.566 0 0 0 .104-.045l.015-.004c1.208-.51 1.812-1.881 1.3-3.084-.498-1.168-1.88-1.753-3.088-1.298"/>
    </g>
</svg>
