<svg xmlns="http://www.w3.org/2000/svg" width="40" height="40" viewBox="0 0 40 40">
    <defs>
        <linearGradient id="a" x1="0%" y1="50%" y2="50%">
            <stop offset="0%" stop-color="#E81C36"/>
            <stop offset="25.385%" stop-color="#E71B38"/>
            <stop offset="37.806%" stop-color="#CF0D5C"/>
            <stop offset="47.224%" stop-color="#B9007E"/>
            <stop offset="77.464%" stop-color="#7C0087"/>
            <stop offset="100%" stop-color="#4E008E"/>
        </linearGradient>
    </defs>
    <g fill="none" fill-rule="evenodd">
        <circle cx="20" cy="20" r="20" fill="#EAEAEA"/>
        <path d="M8 10.665h23.333v19.167H8z"/>
        <path fill="url(#a)" d="M30.171 24.508c-.04 1.091-1.026.911-1.862.911a.567.567 0 0 0-.564.554v1.912l-1.22-1.27c-.52-.541-.905-1.196-1.706-1.196h-3.761c-.978 0-2.029.11-3.002 0-.825-.093-.698-.944-.698-1.544V22.62h2.53c.965.008 2.244.21 3.166-.116.537-.188.851-.515 1.034-.912a2.17 2.17 0 0 0 .25-.932c.011-.255.006-.51.003-.766 0-.156-.003-.31-.004-.46v-2.825h4.529c.583 0 1.244-.064 1.305.731v4.831c0 .777.03 1.56 0 2.337m-15.49-2.996c-.66.086-1.31 1.107-1.731 1.545l-1.174 1.222v-2.213c0-.3-.259-.554-.564-.554-.587 0-1.565.19-1.943-.365-.198-.29-.14-.731-.14-1.065v-4.011c0-1.097-.046-2.205 0-3.301.044-1.074.894-.972 1.683-.972h8.392c.996 0 1.998-.027 2.994 0 1.035.029 1.011.862 1.011 1.646v5.426c0 .399.08 1.004.026 1.536-.044.325-.13.614-.283.816a.837.837 0 0 1-.56.29h-5.639c-.67 0-1.407-.087-2.072 0m16.618-4.172a.586.586 0 0 0-.015-.134c-.126-.956-.787-1.66-1.816-1.705-.556-.025-1.12 0-1.676 0h-3.455v-.819c0-1.134.28-2.719-.703-3.544-.753-.632-1.943-.448-2.863-.448h-9.605c-1.134 0-2.365-.12-2.963 1.086-.224.45-.203.929-.203 1.412V20.269c0 .685.09 1.34.63 1.845.549.515 1.295.531 2.018.516v3.043c0 .47.623.745.962.392l3.31-3.445h1.296c-.032.806-.104 1.66.05 2.424.26 1.288 1.375 1.483 2.483 1.483h6.141l3.02 3.145c.339.352.963.078.963-.392v-2.757c1.072-.024 2.132-.199 2.39-1.48.133-.657.036-1.405.036-2.068V17.34z"/>
        <path fill="#E71B37" d="M13.5 16.499a.836.836 0 0 0-.833.833c0 .458.375.833.833.833a.836.836 0 0 0 .833-.833.836.836 0 0 0-.833-.833"/>
        <path fill="#800086" d="M17.352 17.332c0-.458-.417-.833-.926-.833-.51 0-.926.375-.926.833 0 .458.417.833.926.833.51 0 .926-.375.926-.833l1.481-.235"/>
        <path fill="#56008D" d="M19.667 18.165a.836.836 0 0 0 .833-.833.836.836 0 0 0-.833-.833.836.836 0 0 0-.834.833c0 .458.375.833.834.833"/>
    </g>
</svg>
