<svg xmlns="http://www.w3.org/2000/svg" width="40" height="40" viewBox="0 0 40 40">
    <defs>
        <linearGradient id="a" x1="0%" y1="50%" y2="50%">
            <stop offset="0%" stop-color="#E81C36"/>
            <stop offset="25.385%" stop-color="#E71B38"/>
            <stop offset="37.806%" stop-color="#CF0D5C"/>
            <stop offset="47.224%" stop-color="#B9007E"/>
            <stop offset="77.464%" stop-color="#7C0087"/>
            <stop offset="100%" stop-color="#4E008E"/>
        </linearGradient>
    </defs>
    <g fill="none" fill-rule="evenodd">
        <circle cx="20" cy="20" r="20" fill="#EAEAEA"/>
        <path d="M10 10.018h19.904V30H10z"/>
        <path fill="url(#a)" d="M18.178 19.138H4.136c-.726 0-1.475.046-2.2 0-.862-.056-.76-.716-.72-1.245l.493-6.458.46-6.02c.016-.223.01-.432.177-.623.229-.263.518-.242.847-.242h11.705c.718 0 1.506-.079 2.219 0 .817.09.728.772.768 1.297.315 4.13.733 8.265.946 12.4.021.398-.064.85-.653.89M10.01 1.014c1.827.006 2.92 1.158 3.134 2.532-1.357.003-2.714.01-4.071.01H6.874c.212-1.373 1.305-2.55 3.136-2.542m9.982 17.01c-.07-.929-.142-1.857-.213-2.786l-.604-7.919c-.054-.71-.087-1.423-.163-2.13-.108-1.001-.889-1.62-2.067-1.633a239.08 239.08 0 0 0-2.616-.011C14.086 1.636 12.482.018 10.01.018c-2.477 0-4.082 1.625-4.32 3.537H4.615c-.67 0-1.445-.088-2.109.032-1.24.224-1.466 1.18-1.534 2.078L.749 8.583l-.605 7.924c-.048.625-.138 1.26-.144 1.886-.01 1.08.898 1.73 2.114 1.739 5.195.04 10.394 0 15.59 0h.474a.73.73 0 0 0 .157-.018c1.277-.157 1.734-1.084 1.657-2.091" transform="translate(10 10)"/>
        <path fill="#E71C38" d="M16 19a1 1 0 1 0 0 2 1 1 0 0 0 0-2v.785"/>
        <path fill="#790087" d="M24 19a1 1 0 1 0 0 2 1 1 0 0 0 0-2"/>
        <path fill="#A70081" d="M20.922 23.516c-.093 1.816-2.751 1.823-2.844 0-.034-.686-1.112-.69-1.077 0C17.069 24.863 18.09 26 19.5 26s2.43-1.137 2.5-2.484c.034-.689-1.044-.687-1.078 0"/>
    </g>
</svg>
