<svg xmlns="http://www.w3.org/2000/svg" width="40" height="40" viewBox="0 0 40 40">
    <defs>
        <linearGradient id="a" x1="0%" y1="50%" y2="50%">
            <stop offset="0%" stop-color="#E81C36"/>
            <stop offset="25.385%" stop-color="#E71B38"/>
            <stop offset="37.806%" stop-color="#CF0D5C"/>
            <stop offset="47.224%" stop-color="#B9007E"/>
            <stop offset="77.464%" stop-color="#7C0087"/>
            <stop offset="100%" stop-color="#4E008E"/>
        </linearGradient>
        <linearGradient id="b" x1="0%" y1="50%" y2="50%">
            <stop offset="0%" stop-color="#E81C36"/>
            <stop offset="25.385%" stop-color="#E71B38"/>
            <stop offset="37.806%" stop-color="#CF0D5C"/>
            <stop offset="47.224%" stop-color="#B9007E"/>
            <stop offset="77.464%" stop-color="#7C0087"/>
            <stop offset="100%" stop-color="#4E008E"/>
        </linearGradient>
        <linearGradient id="c" x1="0%" y1="50%" y2="50%">
            <stop offset="0%" stop-color="#E81C36"/>
            <stop offset="25.385%" stop-color="#E71B38"/>
            <stop offset="37.806%" stop-color="#CF0D5C"/>
            <stop offset="47.224%" stop-color="#B9007E"/>
            <stop offset="77.464%" stop-color="#7C0087"/>
            <stop offset="100%" stop-color="#4E008E"/>
        </linearGradient>
        <linearGradient id="d" x1="0%" y1="50%" y2="50%">
            <stop offset="0%" stop-color="#E81C36"/>
            <stop offset="25.385%" stop-color="#E71B38"/>
            <stop offset="37.806%" stop-color="#CF0D5C"/>
            <stop offset="47.224%" stop-color="#B9007E"/>
            <stop offset="77.464%" stop-color="#7C0087"/>
            <stop offset="100%" stop-color="#4E008E"/>
        </linearGradient>
        <linearGradient id="e" x1="0%" y1="50%" y2="50%">
            <stop offset="0%" stop-color="#E81C36"/>
            <stop offset="25.385%" stop-color="#E71B38"/>
            <stop offset="37.806%" stop-color="#CF0D5C"/>
            <stop offset="47.224%" stop-color="#B9007E"/>
            <stop offset="77.464%" stop-color="#7C0087"/>
            <stop offset="100%" stop-color="#4E008E"/>
        </linearGradient>
        <linearGradient id="f" x1="0%" y1="50%" y2="50%">
            <stop offset="0%" stop-color="#E81C36"/>
            <stop offset="25.385%" stop-color="#E71B38"/>
            <stop offset="37.806%" stop-color="#CF0D5C"/>
            <stop offset="47.224%" stop-color="#B9007E"/>
            <stop offset="77.464%" stop-color="#7C0087"/>
            <stop offset="100%" stop-color="#4E008E"/>
        </linearGradient>
    </defs>
    <g fill="none" fill-rule="evenodd">
        <g>
            <circle cx="20" cy="20" r="20" fill="#EAEAEA"/>
            <path fill="url(#a)" d="M17.245 26.971c0 .827-.673 1.5-1.5 1.5h-2c-.827 0-1.5-.673-1.5-1.5v-5.5h5v5.5zm-5-8.5h5v2h-5v-2zm1-5.264c0-.572.317-1.086.83-1.34l1.446-.725a.494.494 0 0 1 .487.022.494.494 0 0 1 .237.425v5.882h-3v-4.264zm5 7.764v-3a.5.5 0 0 0-.5-.5h-.5V11.59c0-.523-.266-1-.71-1.275a1.485 1.485 0 0 0-1.46-.067l-1.448.724a2.485 2.485 0 0 0-1.382 2.236v4.264h-.5a.5.5 0 0 0-.5.5v9c0 1.38 1.121 2.5 2.5 2.5h2c1.38 0 2.5-1.12 2.5-2.5v-6z" transform="rotate(-1 14.745 19.78)"/>
            <path fill="url(#b)" d="M18.812 13.466a7.02 7.02 0 0 1 1.413-.143c3.86 0 7 3.14 7 7 0 1.31-.364 2.587-1.053 3.693a.501.501 0 0 0 .85.529 7.986 7.986 0 0 0 1.203-4.222c0-4.411-3.589-8-8-8-.544 0-1.088.055-1.614.164a.5.5 0 1 0 .201.979" transform="rotate(-1 23.218 18.551)"/>
            <path fill="url(#c)" d="M23.704 24.645a.505.505 0 0 0 .707.012 5.951 5.951 0 0 0 1.832-4.317 6.007 6.007 0 0 0-7.63-5.776.501.501 0 0 0 .272.963 5.006 5.006 0 0 1 6.358 4.813 4.961 4.961 0 0 1-1.527 3.598.5.5 0 0 0-.012.707" transform="rotate(-1 22.245 19.569)"/>
            <path fill="url(#d)" d="M27.878 25.322h-8a.5.5 0 0 0 0 1h7.45a2.504 2.504 0 0 1-2.45 2h-6a.5.5 0 0 0 0 1h6c1.93 0 3.5-1.57 3.5-3.5a.5.5 0 0 0-.5-.5" transform="rotate(-1 23.378 27.322)"/>
            <path fill="url(#e)" d="M19.403 22.211a.498.498 0 0 0 .707 0l3-3a.5.5 0 0 0-.707-.707l-3 3a.5.5 0 0 0 0 .707" transform="rotate(-1 21.256 20.358)"/>
            <path fill="url(#f)" d="M19.713 19.367a.502.502 0 0 0 .354-.146l2-2a.502.502 0 0 0-.708-.708l-2 2a.502.502 0 0 0 .354.854" transform="rotate(-1 20.713 17.867)"/>
        </g>
    </g>
</svg>
