<svg xmlns="http://www.w3.org/2000/svg" xmlns:xlink="http://www.w3.org/1999/xlink" width="40" height="40" viewBox="0 0 40 40">
    <defs>
        <path id="a" d="M0 0h18.625v22.21H0z"/>
        <linearGradient id="b" x1="0%" y1="50%" y2="50%">
            <stop offset="0%" stop-color="#E81C36"/>
            <stop offset="25.385%" stop-color="#E71B38"/>
            <stop offset="37.806%" stop-color="#CF0D5C"/>
            <stop offset="47.224%" stop-color="#B9007E"/>
            <stop offset="77.464%" stop-color="#7C0087"/>
            <stop offset="100%" stop-color="#4E008E"/>
        </linearGradient>
    </defs>
    <g fill="none" fill-rule="evenodd">
        <circle cx="20" cy="20" r="20" fill="#EAEAEA"/>
        <g transform="translate(11.25 8.75)">
            <mask id="c" fill="#fff">
                <use xlink:href="#a"/>
            </mask>
            <path fill="url(#b)" d="M16.928 21.085H3.773c-.652 0-1.33.053-1.98 0-.806-.066-.695-.82-.657-1.403l.462-7.164.424-6.589c.018-.268.013-.547.229-.752.218-.207.478-.178.748-.178h10.929c.65 0 1.365-.084 2.012 0 .759.099.676.853.714 1.43.293 4.556.682 9.115.881 13.675.02.438-.06.936-.607.981M9.322 1.099c1.699.007 2.715 1.273 2.917 2.785-1.24.005-2.48.017-3.717.017H6.403c.198-1.514 1.215-2.81 2.919-2.802m9.102 15.749c-.19-2.932-.378-5.864-.567-8.797-.102-1.585.172-4.11-2.058-4.15-.818-.015-1.637-.018-2.455-.018C13.115 1.78 11.622 0 9.322 0 7.015 0 5.521 1.791 5.298 3.9h-.95c-.628 0-1.316-.079-1.94.025C1.217 4.124.971 5.19.906 6.197L.702 9.381l-.565 8.751c-.045.706-.126 1.42-.137 2.126-.017 1.172.809 1.912 1.932 1.926 4.848.06 9.7 0 14.549 0h.447c.053 0 .1-.008.146-.02 1.19-.173 1.615-1.197 1.544-2.307l-.194-3.01z" mask="url(#c)"/>
            <path fill="#5B008C" d="M10.529 16.938c0-.783 1.165-.775 1.207 0-.042.775-1.207.781-1.207 0m2.344-.17c-.122-.877-.807-1.589-1.74-1.589-.959 0-1.752.805-1.758 1.759-.005.936.768 1.716 1.693 1.755.958.04 1.679-.686 1.805-1.583a.593.593 0 0 0 .017-.172.59.59 0 0 0-.017-.17" mask="url(#c)"/>
            <path fill="#E81C36" d="M8.22 11.079c-.041.775-1.207.78-1.207 0 0-.783 1.166-.775 1.208 0m-.668 1.755c.957.04 1.678-.686 1.804-1.584a.598.598 0 0 0 .017-.171.593.593 0 0 0-.016-.17c-.122-.877-.808-1.59-1.741-1.59-.958 0-1.752.805-1.758 1.76-.005.936.769 1.716 1.694 1.755" mask="url(#c)"/>
            <path fill="#5E008B" d="M11.866 10.667L6.014 16.6c-.509.516.358 1.267.87.747l5.852-5.932c.509-.516-.358-1.268-.87-.748" mask="url(#c)"/>
        </g>
    </g>
</svg>
