<svg xmlns="http://www.w3.org/2000/svg" width="40" height="40" viewBox="0 0 40 40">
    <defs>
        <linearGradient id="a" x1="0%" y1="50%" y2="50%">
            <stop offset="0%" stop-color="#E81C36"/>
            <stop offset="25.385%" stop-color="#E71B38"/>
            <stop offset="37.806%" stop-color="#CF0D5C"/>
            <stop offset="47.224%" stop-color="#B9007E"/>
            <stop offset="77.464%" stop-color="#7C0087"/>
            <stop offset="100%" stop-color="#4E008E"/>
        </linearGradient>
    </defs>
    <g fill="none" fill-rule="evenodd">
        <circle cx="20" cy="20" r="20" fill="#EAEAEA"/>
        <path d="M10 14h21v14H10z"/>
        <path fill="url(#a)" d="M19.427 12.93c-.324.034-.671 0-.997 0H2.946c-.436 0-.89.037-1.325 0-.584-.051-.623-.604-.603-1.135H19.988c.021.519-.014 1.076-.56 1.134zM4.947 3.074h11.11v7.595H4.948V3.075zm-1.67-1.964c.661-.133 1.478 0 2.148 0h9.176c.974 0 1.964-.053 2.937 0 .347.02.63.092.68.535.038.354 0 .735 0 1.09v7.996H17.09V2.544a.532.532 0 0 0-.517-.532H4.43a.532.532 0 0 0-.517.532v8.188H2.788V1.996c0-.41-.025-.78.489-.885zM21 11.263a.496.496 0 0 0-.138-.36l-.017-.017-.01-.01a.47.47 0 0 0-.352-.144h-1.232V3.139c0-1.097.234-2.652-1.112-3.032-.707-.2-1.592-.059-2.312-.059H6.12c-.922 0-1.85-.033-2.77 0-.67.024-1.294.366-1.515 1.057-.117.366-.08.782-.08 1.163v8.464H.522a.532.532 0 0 0-.517.531c0 .995-.133 2.256 1.023 2.647.344.116.727.083 1.084.083h16.453c.308 0 .621.016.93 0C21.03 13.908 21 12.45 21 11.263z" transform="translate(10 14)"/>
    </g>
</svg>
