<svg xmlns="http://www.w3.org/2000/svg" width="40" height="40" viewBox="0 0 40 40">
    <defs>
        <linearGradient id="a" x1="0%" y1="50%" y2="50%">
            <stop offset="0%" stop-color="#E81C36"/>
            <stop offset="25.385%" stop-color="#E71B38"/>
            <stop offset="37.806%" stop-color="#CF0D5C"/>
            <stop offset="47.224%" stop-color="#B9007E"/>
            <stop offset="77.464%" stop-color="#7C0087"/>
            <stop offset="100%" stop-color="#4E008E"/>
        </linearGradient>
    </defs>
    <g fill="none" fill-rule="evenodd">
        <circle cx="20" cy="20" r="20" fill="#EAEAEA"/>
        <path d="M9 11h22v19H9z"/>
        <path fill="url(#a)" d="M20.807 28.536c.46-.864 1.376-1.564 2.118-2a7.011 7.011 0 0 1 1.564-.667 8.306 8.306 0 0 1 2.538-.332.507.507 0 0 0 .378-.164.574.574 0 0 0 .16-.392v-9.54c.734.038 1.467.082 2.2.13l.14 11.327.013 1.1c-3.064-.204-6.158-.398-9.111.538m-10.725-.537l.138-11.257.015-1.174c3.117-.224 6.263-.44 9.253.663v12.406c-3.055-1.034-6.23-.848-9.406-.638m10.69-12.761c1.055-2.054 3.53-3.028 5.718-3.119v12.31c-.733.025-1.48.14-2.2.345a8.053 8.053 0 0 0-3.727 2.258V16.995c0-.384.01-.768 0-1.151l-.002-.062a2.49 2.49 0 0 1 .21-.544m10.083 1.504l-.02-1.692a.56.56 0 0 0-.538-.555c-.91-.064-1.82-.118-2.731-.166v-2.77c0-.2-.086-.343-.207-.431a.507.507 0 0 0-.33-.125c-2.219-.058-4.568.719-6.176 2.326-.514.514-.963 1.11-1.195 1.788-3.212-1.152-6.613-.859-9.953-.623a.54.54 0 0 0-.245.078.51.51 0 0 0-.293.478l-.145 11.848L9 28.59c-.003.287.25.575.537.556 3.411-.224 6.814-.518 10.083.712a.4.4 0 0 0 .404.13.478.478 0 0 0 .31-.113c3.268-1.267 6.715-.953 10.129-.729.287.019.54-.27.537-.556l-.146-11.848"/>
    </g>
</svg>
