<svg xmlns="http://www.w3.org/2000/svg" width="20" height="24" viewBox="0 0 20 24">
    <path fill="#FFF" fill-rule="evenodd" d="M8.839 15.354l-.002.734a1.75 1.75 0 0 1-1.75 1.745h-.12a3.503 3.503 0 0 0 6.065 0h-.11a1.75 1.75 0 0 1-1.75-1.743l-.004-.737a4.675 4.675 0 0 1-2.33.001zm-1.165-.474a4.665 4.665 0 0 1-2.34-4.047V6.75c0-.155.06-.303.17-.412l3.5-3.5A.583.583 0 0 1 10 3.25a2.916 2.916 0 0 0 2.917 2.917h1.166c.322 0 .584.26.584.583v4.083c0 1.728-.94 3.237-2.335 4.043l.001.038.005 1.172c.001.321.262.58.583.58h1.129c.631 0 1.239.146 1.783.41V7.334A5.833 5.833 0 0 0 10 1.5a5.833 5.833 0 0 0-5.833 5.833v9.744a4.077 4.077 0 0 1 1.786-.41h1.134c.321 0 .582-.26.583-.582l.004-1.205zm-1.996 2.966c-1.08.102-2.025.799-2.433 1.82L1.791 23.3a.583.583 0 0 1-1.083-.434l1.454-3.633c.197-.494.484-.934.838-1.304V7.333a7 7 0 0 1 7-7 7 7 0 0 1 7 7v10.594c.354.37.64.81.839 1.303l1.46 3.636a.583.583 0 0 1-1.083.435l-1.46-3.637a2.916 2.916 0 0 0-2.433-1.818 4.67 4.67 0 0 1-8.645 0zM13.5 7.333h-.583a4.085 4.085 0 0 1-3.898-2.86L6.5 6.991v3.841a3.5 3.5 0 1 0 7 0v-3.5z"/>
</svg>
