<svg xmlns="http://www.w3.org/2000/svg" width="125" height="130" viewBox="0 0 125 130">
    <defs>
        <linearGradient id="a" x1="13.491%" x2="89.873%" y1="59.637%" y2="48.541%">
            <stop offset="0%" stop-color="#FFE8F8"/>
            <stop offset="100%" stop-color="#FFF1FB"/>
        </linearGradient>
        <linearGradient id="b" x1="38.904%" x2="63.408%" y1="20.054%" y2="101.068%">
            <stop offset="0%" stop-color="#FFD19D"/>
            <stop offset="100%" stop-color="#F9AD87"/>
        </linearGradient>
        <linearGradient id="c" x1="50%" x2="50%" y1="-18.054%" y2="58.369%">
            <stop offset="0%" stop-color="#FFD19D"/>
            <stop offset="100%" stop-color="#F9AD87"/>
        </linearGradient>
        <linearGradient id="d" x1="50%" x2="50%" y1="-56.577%" y2="32.778%">
            <stop offset="0%" stop-color="#FFD19D"/>
            <stop offset="100%" stop-color="#F9AD87"/>
        </linearGradient>
        <linearGradient id="e" x1="53.834%" x2="47.969%" y1="28.282%" y2="70.731%">
            <stop offset="0%" stop-color="#FFD19D"/>
            <stop offset="100%" stop-color="#F9AD87"/>
        </linearGradient>
        <linearGradient id="f" x1="49.997%" x2="49.997%" y1="46.533%" y2="127.473%">
            <stop offset="0%" stop-color="#FFD19D"/>
            <stop offset="100%" stop-color="#F9AD87"/>
        </linearGradient>
        <linearGradient id="g" x1="50%" x2="50%" y1="-83.713%" y2="44.924%">
            <stop offset="0%" stop-color="#FFD19D"/>
            <stop offset="100%" stop-color="#F9AD87"/>
        </linearGradient>
        <linearGradient id="h" x1="50%" x2="50%" y1="-41.34%" y2="88.135%">
            <stop offset="0%" stop-color="#FFD19D"/>
            <stop offset="100%" stop-color="#F9AD87"/>
        </linearGradient>
        <linearGradient id="i" x1="54.504%" x2="47.035%" y1="40.18%" y2="51.897%">
            <stop offset="0%" stop-color="#FFD19D"/>
            <stop offset="100%" stop-color="#F9AD87"/>
        </linearGradient>
        <linearGradient id="j" x1="47.074%" x2="28.578%" y1="57.443%" y2="104.421%">
            <stop offset="8%" stop-color="#92278F"/>
            <stop offset="100%" stop-color="#5E188D"/>
        </linearGradient>
        <linearGradient id="k" x1="99.491%" x2="14.974%" y1="-45.286%" y2="122.876%">
            <stop offset="0%" stop-color="#FFF" stop-opacity=".6"/>
            <stop offset="100%" stop-color="#FFF" stop-opacity="0"/>
        </linearGradient>
    </defs>
    <g fill="none" fill-rule="evenodd">
        <path fill="url(#a)" d="M89.276 43.589a31.777 31.777 0 0 1 12.433-2.51c17.12 0 31 13.43 31 30 0 16.568-13.88 30-31 30-.586 0-1.169-.016-1.747-.047-8.086 12.624-22.641 21.046-39.253 21.046-25.405 0-46-19.699-46-44 0-24.3 20.595-44 46-44 10.794 0 20.72 3.557 28.567 9.511z" transform="scale(-1 1) rotate(-30 10.71 313.198)"/>
        <g fill-rule="nonzero">
            <path fill="url(#b)" d="M75.64 58c-.69.096-34.279-17.79-34.279-17.79s-4.883-6.912-5.191-9.953c-.07-.705.089-1.222.373-1.599.9-1.19 3.055-.995 3.27-.975h.02s-3.72-6.046-3.825-7.705c-.079-1.216.454-2.032 1.597-2.447.49-.17 1.001-.272 1.519-.305 2.177-.176 2.656.402 2.656.402s0-.025.025-.07c.167-.423 1.102-2.626 3.11-2.556 2.219.076 9.905 6.597 12.81 9.668 2.906 3.07 10.066 8.635 10.066 8.635s4.05 5.418 7.007 9.767c2.957 4.35 2.62 14.679.842 14.928z" transform="matrix(-1 0 0 1 125 0)"/>
            <path fill="url(#c)" d="M72 50.693L68.299 52 38 18.334a5.893 5.893 0 0 1 1.526-.301c2.187-.173 2.668.395 2.668.395s0-.024.025-.068L72 50.693z" transform="matrix(-1 0 0 1 125 0)"/>
            <path fill="url(#d)" d="M62 54.46L58.463 58 47.538 43.244 37 29.015c.904-1.209 3.072-1.011 3.29-.991l15 18.266L62 54.46z" transform="matrix(-1 0 0 1 125 0)"/>
            <path fill="url(#e)" d="M104 68s-1.283-12.57-4.527-20.703c-3.244-8.132-7.266-12.572-7.8-19.032-.535-6.46-.456-9.544-2.624-9.245-2.168.299-4.94 1.839-5.045 8.387C83.9 33.954 85.74 42.67 85.74 42.67s1.68 14.142 4.488 19.26C93.036 67.046 104 68 104 68z" transform="matrix(-1 0 0 1 125 0)"/>
            <path fill="#FFD19D" d="M68 69l4-3a12.69 12.69 0 0 0-4 3zM69 78l.946-.941L71 76a11.628 11.628 0 0 0-2 2z"/>
            <path fill="#FFD19D" d="M69 78a11.229 11.229 0 0 1 3.629-2.684l10.7-6.238c5.69-2.641 20.66-13.56 20.67-16.28.022-2.294-1.911-3.024-3.468-2.74L69 78z"/>
            <path fill="url(#f)" d="M119 76.41v.2l-.048.087L111.262 90l-.026.045L104.902 101c-3.115-1.998-6.23-3.996-8.986-5.762-1.89-1.212-3.61-2.32-5.045-3.243a12.067 12.067 0 0 0-8.355-1.767 33.79 33.79 0 0 1-9.614.013c-3.62-.712-7.689-1.688-11.741-3.374h-.02a54.112 54.112 0 0 1-2.06-.96c-4.246-2.087-15.372-8.888-22.864-14.021a34.586 34.586 0 0 1-2.789-2.371 53.783 53.783 0 0 1-2.465-2.596c-1.333-1.511-2.117-2.708-2.334-3.61-.116-.38-.073-.791.12-1.138v-.012a.603.603 0 0 1 .167-.158c.44-.308 1.434-.57 1.434-.57l-.045-.036c-.377-.304-3.03-2.447-4.806-3.907-.308-.255-.588-.488-.833-.688l-.2-.203c-1.265-1.059-2.747-2.33-3.167-3.683a2.309 2.309 0 0 1-.095-.416 2.172 2.172 0 0 1 .065-.934 3.384 3.384 0 0 1 .532-1.056 4.635 4.635 0 0 1 2.131-1.498s-.103-.078-.443-.345l-.025-.02c-.463-.364-1.334-1.062-2.944-2.349a10.662 10.662 0 0 1-1.666-1.606c-1.06-1.332-1.236-2.794.061-4.214.052-.059.109-.119.167-.177 1.333-1.332 3.725-.46 3.774-.428V39.853c-.022-.042-.04-.082-.06-.123a2.848 2.848 0 0 1-.252-.908 2.35 2.35 0 0 1 .393-1.54c.482-.736 1.427-1.037 2.577-1.087 2.415-.108 5.732.896 7.548 1.332 1.523.373 4.363 1.46 7.895 2.869 5.21 2.074 11.925 4.846 18.169 7.056 6.274 2.222 12.063 3.874 15.335 3.674.926-.055 1.105-.917 1.06-1.701a4.865 4.865 0 0 0-.187-1.054c-1.123-3.683-6.299-10.421-8.156-14.97-.153-.372-.283-.73-.386-1.072-.717-2.356-2.084-7.007.048-9.45a2.564 2.564 0 0 1 2.705-.757c.522.166.96.528 1.22 1.01.917 1.732 1.75 3.473 2.809 5.328.11.192.223.383.333.578 1.625 2.71 3.846 5.66 7.731 9.137.952.852 2.345 2.054 3.889 3.413l.273.243c3.429 3.025 7.634 6.66 9.096 9.11a34.05 34.05 0 0 1 4.027 10.261 9.717 9.717 0 0 0 3.537 5.627c1.934 1.51 4.56 3.142 7.19 4.646 3.788 2.15 7.578 4.045 9.35 4.934z" transform="matrix(-1 0 0 1 125 0)"/>
            <path fill="url(#g)" d="M53.73 70S24.54 52.921 22 50.812a4.545 4.545 0 0 1 2.09-1.473s-.101-.077-.435-.339c3.444 2.554 21.387 12.51 28.446 16.4a3.677 3.677 0 0 1 1.63 4.6z" transform="matrix(-1 0 0 1 125 0)"/>
            <path fill="#FFD19D" d="M67 59l.363 1s.595-.292 1.637-.81L67 59z"/>
            <path fill="url(#h)" d="M58.612 61L19 40.905c.052-.058.109-.117.167-.175 1.337-1.318 3.736-.455 3.784-.423v-.019c-.022-.04-.04-.08-.06-.122 2.539 1.246 25.303 11.886 34.021 15.96a3.625 3.625 0 0 1 1.89 2.084c.319.918.25 1.923-.19 2.79z" transform="matrix(-1 0 0 1 125 0)"/>
            <path fill="url(#i)" d="M111 90.88l-.027.045-6.34 11.075-8.997-5.825a3172.342 3172.342 0 0 1-5.051-3.28 11.986 11.986 0 0 0-8.364-1.785 33.503 33.503 0 0 1-9.625.014c-3.43-.468-7.392-1.483-11.754-3.412h-.02a53.93 53.93 0 0 1-2.063-.97c-4.25-2.11-15.389-8.986-22.89-14.175-2.683-1.851-4.9-3.5-6.174-4.629a4.85 4.85 0 0 1-1.001-1.262c-.768-1.365-.948-3.198-.289-3.927.057-.062.115-.12.167-.168.727-.663 1.435-.577 1.435-.577 1.188.898 2.408 1.785 3.608 2.625l.367.256.43.296.38.261c2.63 1.79 5.069 3.28 6.724 4.06L54.1 77.143l.404.165.217.105c3.905 1.851 8.844 5.404 18.714 5.61 3.793.079 6.664-.108 8.49-1.02 4.213-2.106 10.424-1.237 14.183.424.406.176.802.375 1.187.596l4.41 2.524L111 90.88z" transform="matrix(-1 0 0 1 125 0)"/>
            <path fill="url(#j)" d="M119.354 76.879l-.047.086-7.536 13.267-.027.045-.068.121-6.138 10.805-1.751 3.083A5.215 5.215 0 0 1 99.249 107a5.213 5.213 0 0 1-4.56-2.676 5.389 5.389 0 0 1 .044-5.351l1.998-3.517 5.914-10.413.03-.054 7.516-13.234.055-.098A5.226 5.226 0 0 1 114.79 69a5.111 5.111 0 0 1 2.597.707c2.462 1.452 3.335 4.635 1.967 7.172z" transform="matrix(-1 0 0 1 125 0)"/>
            <path fill="url(#k)" d="M119.33 76.732l-.05.085-7.815 13.02-.027.044-.072.119L102 84.745l.032-.054 7.794-12.988.058-.096c.973-1.616 2.77-2.61 4.712-2.607.946 0 1.875.239 2.694.694 2.553 1.425 3.458 4.549 2.04 7.038z" transform="matrix(-1 0 0 1 125 0)"/>
            <path fill="#FFDF40" d="M96.355 17c.435 0 .843-.21 1.099-.563l10.288-14.265c.44-.613.303-1.469-.305-1.912a1.353 1.353 0 0 0-1.899.307L95.26 14.83c-.3.415-.344.965-.113 1.423.231.458.698.747 1.208.747zM108.316 31c.195 0 .388-.043.563-.128l15.366-7.338a1.337 1.337 0 0 0 .628-1.772 1.312 1.312 0 0 0-1.754-.634l-15.366 7.34a1.334 1.334 0 0 0-.72 1.493A1.32 1.32 0 0 0 108.315 31zM112.312 39c.133 0 .266-.018.394-.054l9.351-2.64c.456-.12.804-.451.91-.866.106-.415-.046-.85-.398-1.135a1.427 1.427 0 0 0-1.3-.244l-9.35 2.64c-.619.174-1.002.727-.904 1.3.099.575.65.999 1.297.999zM89.227 13c.549 0 1.03-.389 1.18-.95l2.537-9.356a1.364 1.364 0 0 0-.28-1.287 1.18 1.18 0 0 0-1.195-.366 1.267 1.267 0 0 0-.882.931l-2.539 9.356c-.187.691.188 1.414.839 1.613.11.037.225.057.34.059zM103.383 22c.296 0 .585-.087.822-.246l8.244-5.538c.608-.407.732-1.179.277-1.723-.455-.544-1.316-.655-1.924-.247l-8.252 5.537c-.473.318-.666.871-.48 1.374.188.503.713.841 1.304.841l.009.002z"/>
        </g>
    </g>
</svg>
