<?xml version="1.0" encoding="UTF-8"?>
<svg width="84px" height="24px" viewBox="0 0 84 24" version="1.1" xmlns="http://www.w3.org/2000/svg" xmlns:xlink="http://www.w3.org/1999/xlink">
    <!-- Generator: Sketch 53 (72520) - https://sketchapp.com -->
    <title>tag ambar copy 2</title>
    <desc>Created with Sketch.</desc>
    <g id="Desktop" stroke="none" stroke-width="1" fill="none" fill-rule="evenodd">
        <g id="tag-brillante">
            <g id="Group-4-Copy-5">
                <g id="Group-3">
                    <g id="Rectangle-2" stroke="#B9007E">
                        <rect id="Rectangle" x="0.5" y="0.5" width="83" height="23" rx="10"></rect>
                    </g>
                    <g id="Group-2" transform="translate(17.000000, 0.000000)" fill="#B9007E" font-family="Lato-Bold, Lato" font-size="14" font-weight="bold" letter-spacing="1">
                        <text id="Brillante">
                            <tspan x="0.25" y="15.7">Brillante</tspan>
                        </text>
                    </g>
                </g>
                <g id="icono-nivel" transform="translate(5.000000, 4.800000)">
                    <g id="Group-73">
                        <rect id="Rectangle" x="0" y="0" width="12" height="14"></rect>
                        <g id="Group-43" transform="translate(0.750000, 1.312500)" fill="#B9007E">
                            <path d="M3.51653913,0.0204995282 L5.27519485,1.72240152 L6.987337,0.0204995282 L3.51653913,0.0204995282 Z M3.4185284,0.257800286 L3.19315911,2.78311551 L5.06699127,1.85227099 L3.4185284,0.257800286 Z M5.48007602,1.85363088 L7.34117233,2.82323226 L7.08424026,0.259160176 L5.48007602,1.85363088 Z M3.21253976,0.175526957 L0.760610438,3.18564287 L2.97221968,2.86810862 L3.21253976,0.175526957 Z M7.56432669,2.91230504 L9.74105076,3.18836265 L7.28967517,0.178246737 L7.56432669,2.91230504 Z M0.826504655,3.43858236 L2.11061127,5.42538125 L2.89968067,3.14144646 L0.826504655,3.43858236 Z M7.63354331,3.18292309 L8.39104993,5.48317657 L9.67460281,3.44198209 L7.63354331,3.18292309 Z M0.635466801,3.56233233 L0.635466801,7.81470751 L2.00374082,5.67900069 L0.635466801,3.56233233 Z M8.49681291,5.74019573 L9.8645332,7.81742729 L9.8645332,3.56709194 L8.49681291,5.74019573 Z M0.825950922,7.93913742 L2.86534923,8.23423349 L2.10895007,5.9353399 L0.825950922,7.93913742 Z M8.39049619,5.99245527 L7.6014268,8.27639007 L9.67349535,7.9418572 L8.39049619,5.99245527 Z M5.22259022,9.36566174 L5.24030967,9.38266037 L7.33342007,8.34302467 L7.33508127,8.3192266 L7.35778432,8.31514693 L8.23932711,5.76331385 L8.22659125,5.7442754 L8.24043458,5.72183722 L7.39433069,3.15232557 L7.37384257,3.15028574 L7.37107391,3.12172805 L5.29346803,2.03993578 L5.27740978,2.05557451 L5.25858286,2.03789594 L3.16657993,3.07753164 L3.164365,3.10336954 L3.14166195,3.10676927 L2.26067289,5.6579224 L2.27396248,5.6776408 L2.25956542,5.70007898 L3.10566931,8.26891068 L3.12615743,8.27163046 L3.12892609,8.29882825 L5.2070857,9.38130048 L5.22259022,9.36566174 Z M3.15882767,8.5966441 L3.41575974,11.1219593 L5.01770904,9.56488559 L3.15882767,8.5966441 Z M5.43522366,9.56624548 L7.0814716,11.1233192 L7.30684089,8.63744079 L5.43522366,9.56624548 Z M0.763379103,8.19275685 L3.2097711,11.1967533 L2.93567331,8.50621144 L0.763379103,8.19275685 Z M7.52778032,8.55040785 L7.28856771,11.1981132 L9.73440597,8.19479669 L7.52778032,8.55040785 Z M3.51875406,11.3545005 L6.97792354,11.3545005 L5.22480515,9.69611495 L3.51875406,11.3545005 Z M7.24869894,11.6149194 L3.25130106,11.6149194 L3.21973829,11.5768424 L0.423387097,8.14244093 L0.423387097,3.23255907 L0.45439614,3.19380221 L3.25130106,-0.239919355 L7.24869894,-0.239919355 L7.28026171,-0.201842442 L10.0760592,3.23119918 L10.0755054,3.23119918 L10.0766129,3.23255907 L10.0766129,8.14244093 L10.0456039,8.18119779 L7.24869894,11.6149194 Z" id="Fill-19" transform="translate(5.250000, 5.687500) rotate(-270.000000) translate(-5.250000, -5.687500) "></path>
                        </g>
                    </g>
                </g>
            </g>
        </g>
    </g>
</svg>