<?xml version="1.0" encoding="UTF-8"?>
<svg width="84px" height="24px" viewBox="0 0 84 24" version="1.1" xmlns="http://www.w3.org/2000/svg" xmlns:xlink="http://www.w3.org/1999/xlink">
    <!-- Generator: sketchtool 53 (72520) - https://sketchapp.com -->
    <title>1E114836-5C6B-4802-88EA-9F855D4F84E3</title>
    <desc>Created with sketchtool.</desc>
    <g id="Desktop" stroke="none" stroke-width="1" fill="none" fill-rule="evenodd">
        <g id="Ofertas-kit" transform="translate(-296.000000, -248.000000)">
            <g id="tag-coral" transform="translate(296.000000, 248.000000)">
                <g id="Group-4-Copy-6">
                    <g id="Group-3">
                        <g id="Rectangle-2" stroke="#B9007E">
                            <rect id="Rectangle" x="0.5" y="0.5" width="83" height="23" rx="10"></rect>
                        </g>
                        <g id="Group-2" transform="translate(26.222727, 0.000000)" fill="#B9007E" font-family="Lato-Bold, Lato" font-size="14" font-weight="bold" letter-spacing="1">
                            <text id="Coral">
                                <tspan x="0.0272727273" y="15.7">Coral</tspan>
                            </text>
                        </g>
                    </g>
                    <g id="icono-nivel" transform="translate(9.450000, 4.800000)">
                        <g id="Group-73">
                            <rect id="Rectangle" x="0" y="0" width="13" height="14"></rect>
                            <g id="Group-43" transform="translate(0.812500, 1.312500)" fill="#B9007E">
                                <path d="M3.80958405,0.0204995282 L5.71479442,1.72240152 L7.56961509,0.0204995282 L3.80958405,0.0204995282 Z M3.70340577,0.257800286 L3.4592557,2.78311551 L5.48924055,1.85227099 L3.70340577,0.257800286 Z M5.93674903,1.85363088 L7.95293669,2.82323226 L7.67459362,0.259160176 L5.93674903,1.85363088 Z M3.48025141,0.175526957 L0.823994642,3.18564287 L3.21990465,2.86810862 L3.48025141,0.175526957 Z M8.19468725,2.91230504 L10.552805,3.18836265 L7.8971481,0.178246737 L8.19468725,2.91230504 Z M0.895380043,3.43858236 L2.28649554,5.42538125 L3.14132072,3.14144646 L0.895380043,3.43858236 Z M8.26967192,3.18292309 L9.09030409,5.48317657 L10.4808197,3.44198209 L8.26967192,3.18292309 Z M0.688422368,3.56233233 L0.688422368,7.81470751 L2.17071922,5.67900069 L0.688422368,3.56233233 Z M9.20488066,5.74019573 L10.6865776,7.81742729 L10.6865776,3.56709194 L9.20488066,5.74019573 Z M0.894780165,7.93913742 L3.10412833,8.23423349 L2.28469591,5.9353399 L0.894780165,7.93913742 Z M9.08970421,5.99245527 L8.23487903,8.27639007 L10.47962,7.9418572 L9.08970421,5.99245527 Z M5.65780607,9.36566174 L5.67700215,9.38266037 L7.94453841,8.34302467 L7.94633804,8.3192266 L7.97093301,8.31514693 L8.9259377,5.76331385 L8.91214052,5.7442754 L8.92713746,5.72183722 L8.01052492,3.15232557 L7.98832945,3.15028574 L7.98533007,3.12172805 L5.73459037,2.03993578 L5.71719393,2.05557451 L5.6967981,2.03789594 L3.43046159,3.07753164 L3.42806208,3.10336954 L3.40346711,3.10676927 L2.4490623,5.6579224 L2.46345935,5.6776408 L2.44786254,5.70007898 L3.36447508,8.26891068 L3.38667055,8.27163046 L3.38966993,8.29882825 L5.64100951,9.38130048 L5.65780607,9.36566174 Z M3.42206331,8.5966441 L3.70040638,11.1219593 L5.43585146,9.56488559 L3.42206331,8.5966441 Z M5.88815896,9.56624548 L7.67159423,11.1233192 L7.9157443,8.63744079 L5.88815896,9.56624548 Z M0.826994028,8.19275685 L3.47725202,11.1967533 L3.18031275,8.50621144 L0.826994028,8.19275685 Z M8.15509535,8.55040785 L7.89594835,11.1981132 L10.5456065,8.19479669 L8.15509535,8.55040785 Z M3.81198356,11.3545005 L7.55941717,11.3545005 L5.66020558,9.69611495 L3.81198356,11.3545005 Z M7.85275718,11.6149194 L3.52224282,11.6149194 L3.48804981,11.5768424 L0.458669355,8.14244093 L0.458669355,3.23255907 L0.492262485,3.19380221 L3.52224282,-0.239919355 L7.85275718,-0.239919355 L7.88695019,-0.201842442 L10.9157308,3.23119918 L10.9151309,3.23119918 L10.9163306,3.23255907 L10.9163306,8.14244093 L10.8827375,8.18119779 L7.85275718,11.6149194 Z" id="Fill-19" transform="translate(5.687500, 5.687500) rotate(-270.000000) translate(-5.687500, -5.687500) "></path>
                            </g>
                        </g>
                    </g>
                </g>
            </g>
        </g>
    </g>
</svg>