<?xml version="1.0" encoding="UTF-8"?>
<svg width="48px" height="47px" viewBox="0 0 48 47" version="1.1" xmlns="http://www.w3.org/2000/svg" xmlns:xlink="http://www.w3.org/1999/xlink">
    <!-- Generator: Sketch 53 (72520) - https://sketchapp.com -->
    <title>Group 117</title>
    <desc>Created with Sketch.</desc>
    <defs>
        <polygon id="path-1" points="0.9801 0.3224 47.6581 0.3224 47.6581 47 0.9801 47"></polygon>
        <path d="M12.065,0.769 L0.576,5.477 C0.358,5.565 0.217,5.78 0.219,6.016 L0.219,6.016 L0.335,19.848 C0.336,20.083 0.483,20.295 0.701,20.381 L0.701,20.381 L12.269,24.893 C12.337,24.921 12.41,24.935 12.484,24.934 L12.484,24.934 C12.556,24.933 12.629,24.919 12.697,24.89 L12.697,24.89 L24.186,20.183 C24.404,20.092 24.546,19.879 24.544,19.644 L24.544,19.644 L24.483,12.426 L24.47,10.87 L24.427,5.812 C24.425,5.574 24.28,5.364 24.059,5.278 L24.059,5.278 L12.493,0.765 C12.426,0.739 12.355,0.726 12.284,0.726 L12.284,0.726 C12.209,0.726 12.135,0.74 12.065,0.769 M8.091,3.643 L12.289,1.923 L22.299,5.828 L18.101,7.549 M2.348,5.997 L6.545,4.276 L16.553,8.182 L12.356,9.903 M12.941,10.91 L23.281,6.672 L23.325,11.855 C22.026,12.781 20.443,13.335 18.726,13.353 L18.726,13.353 C18.408,13.355 18.152,13.615 18.156,13.935 L18.156,13.935 C18.157,14.252 18.417,14.509 18.736,14.506 L18.736,14.506 L18.736,14.505 C20.418,14.49 21.986,14.02 23.337,13.223 L23.337,13.223 L23.387,19.264 L13.048,23.501 M1.484,19.448 L1.378,6.856 L11.789,10.919 L11.895,23.511 M3.178,15.213 C2.86,15.216 2.604,15.476 2.607,15.794 L2.607,15.794 L2.631,18.676 C2.634,18.993 2.894,19.25 3.212,19.247 L3.212,19.247 C3.531,19.245 3.787,18.983 3.784,18.666 L3.784,18.666 L3.76,15.784 C3.756,15.467 3.5,15.213 3.183,15.213 L3.183,15.213 C3.181,15.213 3.179,15.213 3.178,15.213 M5.489,15.769 C5.171,15.773 4.915,16.033 4.917,16.351 L4.917,16.351 L4.943,19.233 C4.944,19.552 5.204,19.807 5.523,19.805 L5.523,19.805 C5.841,19.802 6.097,19.542 6.095,19.223 L6.095,19.223 L6.07,16.341 C6.068,16.025 5.81,15.769 5.494,15.769 L5.494,15.769 C5.492,15.769 5.491,15.769 5.489,15.769" id="path-3"></path>
    </defs>
    <g id="-Mobile" stroke="none" stroke-width="1" fill="none" fill-rule="evenodd">
        <g id="compromiso-consultora" transform="translate(-42.000000, -217.000000)">
            <g id="Group-117" transform="translate(42.000000, 217.000000)">
                <g id="Group-96-Copy">
                    <g id="Group-10">
                        <mask id="mask-2" fill="white">
                            <use xlink:href="#path-1"></use>
                        </mask>
                        <g id="Clip-9"></g>
                        <path d="M47.6581,23.6614 C47.6581,10.7714 37.2091,0.3224 24.3191,0.3224 C11.4291,0.3224 0.9801,10.7714 0.9801,23.6614 C0.9801,36.5514 11.4291,47.0004 24.3191,47.0004 C37.2091,47.0004 47.6581,36.5514 47.6581,23.6614" id="Fill-8" fill="#4F0036" mask="url(#mask-2)"></path>
                    </g>
                </g>
                <g id="Group-79" transform="translate(12.000000, 12.000000)">
                    <path d="M24.4696,10.869 L24.4266,5.811 C24.4246,5.574 24.2806,5.364 24.0596,5.278 L12.4926,0.765 C12.3556,0.711 12.2006,0.713 12.0656,0.768 L0.5756,5.476 C0.3586,5.565 0.2166,5.78 0.2186,6.015 L0.3356,19.848 C0.3366,20.083 0.4836,20.295 0.7006,20.381 L12.2686,24.893 C12.3366,24.921 12.4096,24.934 12.4836,24.933 C12.5556,24.932 12.6286,24.919 12.6976,24.89 L24.1856,20.182 C24.4046,20.092 24.5456,19.88 24.5436,19.643 L24.4836,12.427 L24.4696,10.869 Z M8.0906,3.642 L12.2886,1.923 L22.2986,5.828 L18.1006,7.549 L8.0906,3.642 Z M2.3476,5.997 L6.5446,4.276 L16.5536,8.182 L12.3566,9.903 L2.3476,5.997 Z M12.9416,10.91 L23.2816,6.672 L23.3246,11.855 C22.0266,12.781 20.4436,13.335 18.7266,13.352 C18.4076,13.355 18.1526,13.615 18.1556,13.934 C18.1576,14.252 18.4166,14.509 18.7366,14.506 L18.7366,14.505 C20.4176,14.49 21.9866,14.019 23.3366,13.223 L23.3876,19.264 L13.0476,23.501 L12.9416,10.91 Z M1.4846,19.448 L1.3776,6.856 L11.7886,10.919 L11.8956,23.511 L1.4846,19.448 Z M2.6076,15.794 L2.6316,18.676 C2.6336,18.993 2.8946,19.25 3.2116,19.247 C3.5316,19.245 3.7866,18.983 3.7836,18.666 L3.7596,15.784 C3.7566,15.466 3.4966,15.21 3.1776,15.213 C2.8606,15.216 2.6036,15.475 2.6076,15.794 L2.6076,15.794 Z M4.9176,16.35 L4.9426,19.233 C4.9446,19.552 5.2036,19.807 5.5236,19.805 C5.8406,19.802 6.0976,19.542 6.0946,19.223 L6.0706,16.341 C6.0676,16.023 5.8076,15.766 5.4896,15.769 C5.1706,15.772 4.9146,16.033 4.9176,16.35 L4.9176,16.35 Z" id="Fill-9" fill="#FFFFFF"></path>
                    <g id="Group-14">
                        <mask id="mask-4" fill="white">
                            <use xlink:href="#path-3"></use>
                        </mask>
                        <g id="Clip-13"></g>
                        <path d="M27.8426,24.5478 L0.1756,24.7808" id="Fill-12" fill="#FFFFFF" mask="url(#mask-4)"></path>
                    </g>
                </g>
            </g>
        </g>
    </g>
</svg>