<?xml version="1.0" encoding="UTF-8"?>
<svg width="48px" height="47px" viewBox="0 0 48 47" version="1.1" xmlns="http://www.w3.org/2000/svg" xmlns:xlink="http://www.w3.org/1999/xlink">
    <!-- Generator: Sketch 53 (72520) - https://sketchapp.com -->
    <title>Group 2</title>
    <desc>Created with Sketch.</desc>
    <defs>
        <polygon id="path-1" points="0.9801 0.3224 47.6581 0.3224 47.6581 47 0.9801 47"></polygon>
        <polygon id="path-3" points="0.9801 0.3224 47.6581 0.3224 47.6581 47 0.9801 47"></polygon>
        <path d="M12.065,0.769 L0.576,5.477 C0.358,5.565 0.217,5.78 0.219,6.016 L0.219,6.016 L0.335,19.848 C0.336,20.083 0.483,20.295 0.701,20.381 L0.701,20.381 L12.269,24.893 C12.337,24.921 12.41,24.935 12.484,24.934 L12.484,24.934 C12.556,24.933 12.629,24.919 12.697,24.89 L12.697,24.89 L24.186,20.183 C24.404,20.092 24.546,19.879 24.544,19.644 L24.544,19.644 L24.483,12.426 L24.47,10.87 L24.427,5.812 C24.425,5.574 24.28,5.364 24.059,5.278 L24.059,5.278 L12.493,0.765 C12.426,0.739 12.355,0.726 12.284,0.726 L12.284,0.726 C12.209,0.726 12.135,0.74 12.065,0.769 M8.091,3.643 L12.289,1.923 L22.299,5.828 L18.101,7.549 M2.348,5.997 L6.545,4.276 L16.553,8.182 L12.356,9.903 M12.941,10.91 L23.281,6.672 L23.325,11.855 C22.026,12.781 20.443,13.335 18.726,13.353 L18.726,13.353 C18.408,13.355 18.152,13.615 18.156,13.935 L18.156,13.935 C18.157,14.252 18.417,14.509 18.736,14.506 L18.736,14.506 L18.736,14.505 C20.418,14.49 21.986,14.02 23.337,13.223 L23.337,13.223 L23.387,19.264 L13.048,23.501 M1.484,19.448 L1.378,6.856 L11.789,10.919 L11.895,23.511 M3.178,15.213 C2.86,15.216 2.604,15.476 2.607,15.794 L2.607,15.794 L2.631,18.676 C2.634,18.993 2.894,19.25 3.212,19.247 L3.212,19.247 C3.531,19.245 3.787,18.983 3.784,18.666 L3.784,18.666 L3.76,15.784 C3.756,15.467 3.5,15.213 3.183,15.213 L3.183,15.213 C3.181,15.213 3.179,15.213 3.178,15.213 M5.489,15.769 C5.171,15.773 4.915,16.033 4.917,16.351 L4.917,16.351 L4.943,19.233 C4.944,19.552 5.204,19.807 5.523,19.805 L5.523,19.805 C5.841,19.802 6.097,19.542 6.095,19.223 L6.095,19.223 L6.07,16.341 C6.068,16.025 5.81,15.769 5.494,15.769 L5.494,15.769 C5.492,15.769 5.491,15.769 5.489,15.769" id="path-5"></path>
    </defs>
    <g id="-Mobile" stroke="none" stroke-width="1" fill="none" fill-rule="evenodd">
        <g id="compromiso-consultora" transform="translate(-119.000000, -217.000000)">
            <g id="Group-2" transform="translate(119.000000, 217.000000)">
                <g id="Group-93">
                    <g id="Group-92">
                        <g id="Group-23">
                            <mask id="mask-2" fill="white">
                                <use xlink:href="#path-1"></use>
                            </mask>
                            <g id="Clip-22"></g>
                            <path d="M47.6581,23.6614 C47.6581,10.7714 37.2091,0.3224 24.3191,0.3224 C11.4291,0.3224 0.9801,10.7714 0.9801,23.6614 C0.9801,36.5514 11.4291,47.0004 24.3191,47.0004 C37.2091,47.0004 47.6581,36.5514 47.6581,23.6614" id="Fill-21" fill="#A2A2A2" mask="url(#mask-2)"></path>
                        </g>
                        <path d="M23.7059,27.6799 C23.6359,27.9079 23.5269,28.1039 23.3789,28.2709 C23.2299,28.4369 23.0409,28.5689 22.8109,28.6649 C22.5809,28.7629 22.3089,28.8109 21.9929,28.8109 C21.6729,28.8109 21.3979,28.7629 21.1709,28.6649 C20.9439,28.5689 20.7569,28.4369 20.6079,28.2709 C20.4599,28.1039 20.3509,27.9079 20.2809,27.6799 C20.2109,27.4519 20.1769,27.2089 20.1769,26.9489 C20.1769,26.6639 20.2069,26.4039 20.2679,26.1669 C20.3279,25.9309 20.4279,25.7299 20.5669,25.5639 C20.7059,25.3969 20.8929,25.2669 21.1259,25.1729 C21.3589,25.0779 21.6479,25.0319 21.9929,25.0319 C22.3389,25.0319 22.6279,25.0779 22.8609,25.1729 C23.0939,25.2669 23.2799,25.3969 23.4199,25.5639 C23.5589,25.7299 23.6589,25.9309 23.7199,26.1669 C23.7799,26.4039 23.8099,26.6639 23.8099,26.9489 C23.8099,27.2089 23.7749,27.4519 23.7059,27.6799 M20.5309,20.4719 C20.5849,20.2779 20.6749,20.1069 20.7989,19.9579 C20.9229,19.8099 21.0819,19.6909 21.2749,19.5999 C21.4699,19.5089 21.7089,19.4629 21.9929,19.4629 C22.2709,19.4629 22.5099,19.5089 22.7069,19.5999 C22.9029,19.6909 23.0629,19.8099 23.1879,19.9579 C23.3119,20.1069 23.4009,20.2779 23.4559,20.4719 C23.5109,20.6649 23.5379,20.8659 23.5379,21.0719 C23.5379,21.3009 23.5169,21.5259 23.4749,21.7429 C23.4319,21.9609 23.3519,22.1559 23.2379,22.3249 C23.1229,22.4939 22.9659,22.6309 22.7659,22.7339 C22.5649,22.8359 22.3089,22.8879 21.9929,22.8879 C21.6789,22.8879 21.4209,22.8359 21.2219,22.7339 C21.0209,22.6309 20.8639,22.4939 20.7489,22.3249 C20.6339,22.1559 20.5549,21.9609 20.5129,21.7429 C20.4709,21.5259 20.4489,21.3009 20.4489,21.0719 C20.4489,20.8659 20.4769,20.6649 20.5309,20.4719 M26.1949,25.1139 C26.0169,24.8469 25.7859,24.6109 25.5049,24.4059 C25.2229,24.1999 24.8849,24.0269 24.4909,23.8869 C25.0909,23.6149 25.5389,23.2379 25.8359,22.7559 C26.1329,22.2749 26.2809,21.6949 26.2809,21.0169 C26.2809,20.5019 26.1749,20.0249 25.9629,19.5859 C25.7509,19.1469 25.4539,18.7669 25.0729,18.4459 C24.6909,18.1249 24.2379,17.8719 23.7149,17.6869 C23.1909,17.5019 22.6169,17.4099 21.9929,17.4099 C21.3699,17.4099 20.7959,17.5019 20.2719,17.6869 C19.7479,17.8719 19.2959,18.1249 18.9139,18.4459 C18.5319,18.7669 18.2349,19.1469 18.0229,19.5859 C17.8109,20.0249 17.7059,20.5019 17.7059,21.0169 C17.7059,21.6949 17.8539,22.2749 18.1499,22.7559 C18.4469,23.2379 18.8949,23.6149 19.4949,23.8869 C19.1019,24.0269 18.7639,24.1999 18.4819,24.4059 C18.2009,24.6109 17.9709,24.8469 17.7919,25.1139 C17.6129,25.3799 17.4809,25.6719 17.3959,25.9909 C17.3109,26.3079 17.2689,26.6459 17.2689,27.0029 C17.2689,27.5969 17.3829,28.1359 17.6099,28.6199 C17.8379,29.1049 18.1579,29.5179 18.5729,29.8609 C18.9879,30.2019 19.4859,30.4669 20.0669,30.6549 C20.6489,30.8429 21.2909,30.9369 21.9929,30.9369 C22.6959,30.9369 23.3379,30.8429 23.9189,30.6549 C24.5009,30.4669 24.9989,30.2019 25.4139,29.8609 C25.8279,29.5179 26.1489,29.1049 26.3769,28.6199 C26.6029,28.1359 26.7169,27.5969 26.7169,27.0029 C26.7169,26.6459 26.6749,26.3079 26.5899,25.9909 C26.5049,25.6719 26.3729,25.3799 26.1949,25.1139" id="Fill-26" fill="#FFFFFF"></path>
                        <path d="M39.2723,17.5559 C39.0363,17.5559 38.8503,17.5999 38.7173,17.6869 C38.5853,17.7749 38.4723,17.8699 38.3813,17.9739 L28.4073,30.7909 L30.5143,30.7909 C30.7093,30.7909 30.8743,30.7529 31.0093,30.6779 C31.1463,30.6019 31.2593,30.5069 31.3503,30.3919 L41.3253,17.5559 L39.2723,17.5559 Z" id="Fill-28" fill="#FFFFFF"></path>
                        <path d="M39.5946,28.4114 C39.5426,28.6044 39.4716,28.7594 39.3806,28.8744 C39.2896,28.9894 39.1826,29.0714 39.0586,29.1194 C38.9346,29.1684 38.7996,29.1924 38.6546,29.1924 C38.5086,29.1924 38.3756,29.1684 38.2546,29.1194 C38.1336,29.0714 38.0306,28.9894 37.9456,28.8744 C37.8616,28.7594 37.7936,28.6044 37.7456,28.4114 C37.6976,28.2174 37.6726,27.9744 37.6726,27.6844 C37.6726,27.3824 37.6976,27.1294 37.7456,26.9264 C37.7936,26.7234 37.8616,26.5604 37.9456,26.4394 C38.0306,26.3184 38.1336,26.2334 38.2546,26.1854 C38.3756,26.1374 38.5086,26.1124 38.6546,26.1124 C38.7996,26.1124 38.9346,26.1374 39.0586,26.1854 C39.1826,26.2334 39.2896,26.3184 39.3806,26.4394 C39.4716,26.5604 39.5426,26.7234 39.5946,26.9264 C39.6456,27.1294 39.6716,27.3824 39.6716,27.6844 C39.6716,27.9744 39.6456,28.2174 39.5946,28.4114 M40.9396,25.2674 C40.6566,24.9774 40.3216,24.7524 39.9306,24.5914 C39.5396,24.4314 39.1146,24.3504 38.6546,24.3504 C38.1946,24.3504 37.7716,24.4314 37.3866,24.5914 C37.0016,24.7524 36.6686,24.9774 36.3876,25.2674 C36.1066,25.5584 35.8866,25.9084 35.7296,26.3174 C35.5716,26.7254 35.4926,27.1824 35.4926,27.6844 C35.4926,28.1694 35.5716,28.6124 35.7296,29.0154 C35.8866,29.4184 36.1066,29.7634 36.3876,30.0514 C36.6686,30.3384 37.0016,30.5604 37.3866,30.7194 C37.7716,30.8764 38.1946,30.9544 38.6546,30.9544 C39.0726,30.9544 39.4736,30.8764 39.8586,30.7194 C40.2416,30.5604 40.5796,30.3384 40.8706,30.0514 C41.1606,29.7634 41.3946,29.4184 41.5706,29.0154 C41.7456,28.6124 41.8336,28.1694 41.8336,27.6844 C41.8336,27.1824 41.7546,26.7254 41.5976,26.3174 C41.4406,25.9084 41.2206,25.5584 40.9396,25.2674" id="Fill-30" fill="#FFFFFF"></path>
                        <path d="M30.1337,19.9944 C30.1817,19.7924 30.2477,19.6304 30.3327,19.5094 C30.4177,19.3884 30.5207,19.3034 30.6417,19.2544 C30.7627,19.2064 30.8967,19.1824 31.0417,19.1824 C31.1877,19.1824 31.3217,19.2064 31.4457,19.2544 C31.5707,19.3034 31.6777,19.3884 31.7687,19.5094 C31.8597,19.6304 31.9307,19.7924 31.9827,19.9944 C32.0327,20.1974 32.0597,20.4534 32.0597,20.7624 C32.0597,21.0534 32.0327,21.2954 31.9827,21.4884 C31.9307,21.6824 31.8597,21.8374 31.7687,21.9524 C31.6777,22.0674 31.5707,22.1484 31.4457,22.1974 C31.3217,22.2464 31.1877,22.2694 31.0417,22.2694 C30.8967,22.2694 30.7627,22.2464 30.6417,22.1974 C30.5207,22.1484 30.4177,22.0674 30.3327,21.9524 C30.2477,21.8374 30.1817,21.6824 30.1337,21.4884 C30.0847,21.2954 30.0607,21.0534 30.0607,20.7624 C30.0607,20.4534 30.0847,20.1974 30.1337,19.9944 M29.7747,23.7874 C30.1587,23.9444 30.5807,24.0234 31.0417,24.0234 C31.4597,24.0234 31.8607,23.9444 32.2447,23.7874 C32.6297,23.6304 32.9677,23.4074 33.2577,23.1194 C33.5487,22.8324 33.7817,22.4884 33.9577,22.0884 C34.1337,21.6884 34.2217,21.2474 34.2217,20.7624 C34.2217,20.2604 34.1427,19.8044 33.9857,19.3944 C33.8267,18.9864 33.6087,18.6374 33.3257,18.3464 C33.0447,18.0554 32.7087,17.8294 32.3187,17.6694 C31.9277,17.5094 31.5017,17.4284 31.0417,17.4284 C30.5807,17.4284 30.1587,17.5094 29.7747,17.6694 C29.3897,17.8294 29.0567,18.0554 28.7757,18.3464 C28.4927,18.6374 28.2747,18.9864 28.1157,19.3944 C27.9587,19.8044 27.8807,20.2604 27.8807,20.7624 C27.8807,21.2474 27.9587,21.6884 28.1157,22.0884 C28.2747,22.4884 28.4927,22.8324 28.7757,23.1194 C29.0567,23.4074 29.3897,23.6304 29.7747,23.7874" id="Fill-32" fill="#FFFFFF"></path>
                    </g>
                    <path d="M15.0536,28.2473 L12.5826,28.2473 C12.3036,28.2473 12.0006,28.2743 11.6746,28.3293 C11.3476,28.3843 11.0176,28.4633 10.6846,28.5653 L13.2736,25.9133 C13.6236,25.5563 13.9556,25.2033 14.2676,24.8543 C14.5796,24.5063 14.8536,24.1453 15.0896,23.7733 C15.3256,23.4013 15.5126,23.0093 15.6486,22.5973 C15.7846,22.1853 15.8536,21.7373 15.8536,21.2533 C15.8536,20.6893 15.7546,20.1733 15.5576,19.7043 C15.3616,19.2343 15.0776,18.8303 14.7086,18.4913 C14.3386,18.1523 13.8926,17.8873 13.3676,17.6963 C12.8446,17.5053 12.2556,17.4103 11.6016,17.4103 C10.9956,17.4103 10.4296,17.4903 9.9036,17.6503 C9.3756,17.8113 8.9076,18.0553 8.4986,18.3823 C8.0906,18.7093 7.7476,19.1183 7.4726,19.6083 C7.1976,20.0993 7.0106,20.6743 6.9136,21.3343 L8.4046,21.5983 C8.7846,21.6583 9.0786,21.6343 9.2846,21.5253 C9.4916,21.4163 9.6576,21.1953 9.7846,20.8623 C9.8936,20.5353 10.0916,20.2613 10.3796,20.0403 C10.6666,19.8183 11.0206,19.7083 11.4386,19.7083 C11.9526,19.7083 12.3356,19.8493 12.5866,20.1313 C12.8386,20.4123 12.9636,20.8163 12.9636,21.3443 C12.9636,21.6643 12.9246,21.9693 12.8466,22.2573 C12.7676,22.5443 12.6496,22.8323 12.4916,23.1193 C12.3336,23.4073 12.1346,23.6993 11.8926,23.9963 C11.6506,24.2933 11.3656,24.6043 11.0376,24.9323 L7.2226,28.7743 C7.0406,28.9373 6.9136,29.1193 6.8416,29.3193 C6.7686,29.5193 6.7326,29.7073 6.7326,29.8833 L6.7326,30.7913 L16.0346,30.7913 L16.0346,29.1563 C16.0346,28.8843 15.9476,28.6643 15.7716,28.4973 C15.5956,28.3313 15.3566,28.2473 15.0536,28.2473" id="Fill-24" fill="#FFFFFF"></path>
                </g>
                <g id="Group-117-Copy">
                    <g id="Group-96-Copy">
                        <g id="Group-10">
                            <mask id="mask-4" fill="white">
                                <use xlink:href="#path-3"></use>
                            </mask>
                            <g id="Clip-9"></g>
                            <path d="M47.6581,23.6614 C47.6581,10.7714 37.2091,0.3224 24.3191,0.3224 C11.4291,0.3224 0.9801,10.7714 0.9801,23.6614 C0.9801,36.5514 11.4291,47.0004 24.3191,47.0004 C37.2091,47.0004 47.6581,36.5514 47.6581,23.6614" id="Fill-8" fill="#909094" mask="url(#mask-4)"></path>
                        </g>
                    </g>
                    <g id="Group-79" transform="translate(12.000000, 12.000000)">
                        <path d="M24.4696,10.869 L24.4266,5.811 C24.4246,5.574 24.2806,5.364 24.0596,5.278 L12.4926,0.765 C12.3556,0.711 12.2006,0.713 12.0656,0.768 L0.5756,5.476 C0.3586,5.565 0.2166,5.78 0.2186,6.015 L0.3356,19.848 C0.3366,20.083 0.4836,20.295 0.7006,20.381 L12.2686,24.893 C12.3366,24.921 12.4096,24.934 12.4836,24.933 C12.5556,24.932 12.6286,24.919 12.6976,24.89 L24.1856,20.182 C24.4046,20.092 24.5456,19.88 24.5436,19.643 L24.4836,12.427 L24.4696,10.869 Z M8.0906,3.642 L12.2886,1.923 L22.2986,5.828 L18.1006,7.549 L8.0906,3.642 Z M2.3476,5.997 L6.5446,4.276 L16.5536,8.182 L12.3566,9.903 L2.3476,5.997 Z M12.9416,10.91 L23.2816,6.672 L23.3246,11.855 C22.0266,12.781 20.4436,13.335 18.7266,13.352 C18.4076,13.355 18.1526,13.615 18.1556,13.934 C18.1576,14.252 18.4166,14.509 18.7366,14.506 L18.7366,14.505 C20.4176,14.49 21.9866,14.019 23.3366,13.223 L23.3876,19.264 L13.0476,23.501 L12.9416,10.91 Z M1.4846,19.448 L1.3776,6.856 L11.7886,10.919 L11.8956,23.511 L1.4846,19.448 Z M2.6076,15.794 L2.6316,18.676 C2.6336,18.993 2.8946,19.25 3.2116,19.247 C3.5316,19.245 3.7866,18.983 3.7836,18.666 L3.7596,15.784 C3.7566,15.466 3.4966,15.21 3.1776,15.213 C2.8606,15.216 2.6036,15.475 2.6076,15.794 L2.6076,15.794 Z M4.9176,16.35 L4.9426,19.233 C4.9446,19.552 5.2036,19.807 5.5236,19.805 C5.8406,19.802 6.0976,19.542 6.0946,19.223 L6.0706,16.341 C6.0676,16.023 5.8076,15.766 5.4896,15.769 C5.1706,15.772 4.9146,16.033 4.9176,16.35 L4.9176,16.35 Z" id="Fill-9" fill="#FFFFFF"></path>
                        <g id="Group-14">
                            <mask id="mask-6" fill="white">
                                <use xlink:href="#path-5"></use>
                            </mask>
                            <g id="Clip-13"></g>
                            <path d="M27.8426,24.5478 L0.1756,24.7808" id="Fill-12" fill="#FFFFFF" mask="url(#mask-6)"></path>
                        </g>
                    </g>
                </g>
            </g>
        </g>
    </g>
</svg>