<svg xmlns="http://www.w3.org/2000/svg" width="16" height="15" viewBox="0 0 16 15">
    <path fill="#DBA28A" fill-rule="evenodd" stroke="#DBA28A" stroke-width=".1" d="M14.997 5.07L12.86 7.535l2.137 2.4V5.07zm-.298-.137l-3.17-.316 1.168 2.627 2.002-2.31zm-2.004 2.89l-1.217 2.608 3.219-.36-2.002-2.249zm2.107-3.179l-3.779-3.436.399 3.1 3.38.336zm-3.436 6.1l-.346 3.05 3.779-3.435-3.433.385zm-.66-9.444L8.21 3.1l2.868 1.106-.373-2.906zm.32 9.54L8.14 11.903l2.562 1.8.326-2.861zm-.476-9.807H5.212L7.893 2.95l2.657-1.917zM7.816 12.05l-2.608 1.916h5.336l-2.728-1.916zM5.056 1.3l-.37 2.858 2.885-1.06L5.056 1.3zM7.5 11.902l-2.868-1.106.42 2.904L7.5 11.902zm-4.235-4.44l-.021.024 1.305 2.934.03.002.005.032 3.203 1.236.024-.018.028.02 3.226-1.187.003-.028.035-.004 1.358-2.912-.02-.023.023-.026-1.305-2.932-.033-.003-.004-.032L7.92 3.31l-.024.019-.028-.02-3.225 1.186-.004.028-.034.004L3.245 7.44l.02.022zm.965-2.893l-3.17.36 1.955 2.245L4.23 4.57zM3.013 7.76l-1.955 2.308 3.121.316L3.013 7.76zm1.724-6.547L.967 4.64l3.377-.385.393-3.044zm-.449 9.48l-3.324-.335 3.77 3.428-.446-3.093zM.768 5.074v4.848L2.85 7.465.768 5.074zM.441 10.3V4.7l.048-.044L4.8.735h6.164l.049.044 4.31 3.92V10.3l-.047.044-4.31 3.919H4.8l-.048-.043-4.31-3.92z"/>
</svg>
