<svg xmlns="http://www.w3.org/2000/svg" width="48" height="48" viewBox="0 0 48 48">
    <g fill="none" fill-rule="evenodd">
        <g fill="#4F0036">
            <path d="M47.266 23.915c-.015 4.336-1.12 8.361-3.238 12.117-.402.711-.689.716-1.31.277a2778.831 2778.831 0 0 0-17.493-12.213c-.648-.45-.593-.632.014-1.053a2546.4 2546.4 0 0 0 17.29-12.086c.646-.455.894-.314 1.257.3 2.304 3.897 3.49 8.104 3.48 12.658M.511 23.942c.006-4.435 1.094-8.505 3.247-12.293.414-.73.693-.981 1.505-.406a1975.027 1975.027 0 0 0 16.695 11.679c.657.454.95.659.068 1.265A1683.789 1683.789 0 0 0 4.923 36.123c-.698.494-.942.316-1.306-.336A24.24 24.24 0 0 1 .51 23.942M24.178 24.488c6.218 4.337 12.215 8.527 18.224 12.701.467.324.55.558.177 1.041-4.537 5.889-10.454 9.052-17.782 9.485-.744.043-.616-.437-.617-.868-.004-1.918-.002-3.837-.002-5.756V24.488zM23.218 24.562v20.921c0 2.324-.006 2.365-2.15 2.068-6.52-.901-11.817-3.989-15.851-9.316-.388-.512-.611-.812.108-1.309 5.821-4.013 11.609-8.075 17.408-12.122.094-.065.207-.104.485-.242M24.178 22.42c0-7.223.012-14.409-.017-21.596-.003-.77.298-.856.923-.816 7.059.454 12.781 3.522 17.228 9.114.294.37.43.606-.068.951-5.954 4.119-11.892 8.26-17.837 12.392-.022.015-.072-.013-.229-.046M23.182 22.643c-2.483-1.727-4.846-3.367-7.202-5.012-3.46-2.414-6.905-4.85-10.381-7.237-.578-.397-.633-.637-.196-1.19C9.733 3.707 15.318.634 22.21.03c.75-.066 1.032.074 1.027.934-.035 7.016-.02 14.031-.02 21.046 0 .15-.016.3-.035.633"/>
        </g>
        <g transform="translate(16.185 16)">
            <ellipse cx="8.327" cy="8.5" fill="#FFF" rx="8.327" ry="8.5"/>
            <path fill="#B9007E" d="M8 9.988v.314a.75.75 0 0 1-.75.748h-.052a1.501 1.501 0 0 0 2.6 0H9.75a.75.75 0 0 1-.75-.747l-.001-.316a2.004 2.004 0 0 1-.999 0zm-.5-.204A2 2 0 0 1 6.499 8.05V6.3a.25.25 0 0 1 .073-.177l1.5-1.5a.25.25 0 0 1 .427.177c0 .69.56 1.25 1.25 1.25h.5a.25.25 0 0 1 .25.25v1.75a2 2 0 0 1-1 1.733v.016l.002.502a.25.25 0 0 0 .25.249h.483c.271 0 .531.062.765.176V6.55a2.5 2.5 0 1 0-5 0v4.176c.234-.114.494-.176.765-.176h.486a.25.25 0 0 0 .25-.25l.002-.516zm-.854 1.271a1.25 1.25 0 0 0-1.043.78l-.623 1.558a.25.25 0 0 1-.464-.186l.623-1.557c.084-.212.207-.4.359-.559V6.55a3 3 0 1 1 6 0v4.54c.152.159.275.347.36.558l.625 1.559a.25.25 0 0 1-.464.186l-.626-1.558a1.25 1.25 0 0 0-1.043-.78 2.001 2.001 0 0 1-3.704 0zM9.998 6.55h-.25a1.75 1.75 0 0 1-1.67-1.226l-1.08 1.08V8.05a1.5 1.5 0 1 0 3 0v-1.5z"/>
        </g>
    </g>
</svg>
