<?xml version="1.0" encoding="UTF-8"?>
<svg width="48px" height="47px" viewBox="0 0 48 47" version="1.1" xmlns="http://www.w3.org/2000/svg" xmlns:xlink="http://www.w3.org/1999/xlink">
    <!-- Generator: Sketch 53 (72520) - https://sketchapp.com -->
    <title>Group 116</title>
    <desc>Created with Sketch.</desc>
    <defs>
        <polygon id="path-1" points="0.0205102041 0.3224 47.6511224 0.3224 47.6511224 47 0.0205102041 47"></polygon>
    </defs>
    <g id="-Mobile" stroke="none" stroke-width="1" fill="none" fill-rule="evenodd">
        <g id="compromiso-consultora" transform="translate(-43.000000, -577.000000)">
            <g id="Group-116" transform="translate(43.000000, 577.000000)">
                <g id="Group-96-Copy-2">
                    <g id="Group-10">
                        <mask id="mask-2" fill="white">
                            <use xlink:href="#path-1"></use>
                        </mask>
                        <g id="Clip-9"></g>
                        <path d="M47.6511224,23.6614 C47.6511224,10.7714 36.9888776,0.3224 23.8358163,0.3224 C10.6827551,0.3224 0.0205102041,10.7714 0.0205102041,23.6614 C0.0205102041,36.5514 10.6827551,47.0004 23.8358163,47.0004 C36.9888776,47.0004 47.6511224,36.5514 47.6511224,23.6614" id="Fill-8" fill="#4F0036" mask="url(#mask-2)"></path>
                    </g>
                </g>
                <path d="M18.9255414,14.8007793 C18.6227173,14.8007793 18.3178878,14.8317674 18.0080446,14.8927439 C15.7990334,15.3315749 14.0643128,17.2558338 13.6943059,19.6789006 C13.3654109,21.8290725 13.7243877,27.4079239 24.0003512,33.1027307 C34.2763146,27.4089235 34.6362942,21.8290725 34.3073992,19.6799002 C33.9363896,17.2558338 32.201669,15.3315749 29.9926577,14.8927439 C27.8829166,14.476904 25.8985166,15.5035087 24.551852,17.7206548 C24.3172134,18.1055066 23.6824862,18.1055066 23.4478477,17.7206548 C22.2977179,15.8283835 20.6853302,14.8007793 18.9255414,14.8007793 M24.0003512,35 C23.8880456,35 23.7767427,34.9730104 23.6754671,34.9180316 C11.8232142,28.4725139 11.4552128,21.8240744 11.8452742,19.26506 C12.3205676,16.1612553 14.5706907,13.6932059 17.4465166,13.1214261 C19.9132291,12.6296155 22.3057397,13.6502224 24.0003512,15.8633701 C25.6939599,13.6492228 28.0814569,12.6296155 30.5531831,13.1214261 C33.4290089,13.6932059 35.6801348,16.1612553 36.1544254,19.26506 C36.5454896,21.8240744 36.1764855,28.4725139 24.3242325,34.9180316 C24.2229569,34.9730104 24.1116541,35 24.0003512,35" id="Fill-4" fill="#FFFFFF"></path>
            </g>
        </g>
    </g>
</svg>