<?xml version="1.0" encoding="UTF-8"?>
<svg width="42px" height="42px" viewBox="0 0 42 42" version="1.1" xmlns="http://www.w3.org/2000/svg" xmlns:xlink="http://www.w3.org/1999/xlink">
    <!-- Generator: Sketch 53 (72520) - https://sketchapp.com -->
    <title>topacio color deshabilitado</title>
    <desc>Created with Sketch.</desc>
    <g id="-Mobile" stroke="none" stroke-width="1" fill="none" fill-rule="evenodd">
        <g id="Brillante" transform="translate(-243.000000, -167.000000)">
            <g id="nivel-topacio" transform="translate(243.000000, 167.000000)">
                <g id="Group-49">
                    <circle id="Oval-Copy-4" fill="#2D7AB0" cx="21" cy="21" r="21"></circle>
                    <path d="M16.3774377,8.04685606 L21.0671863,11.9369178 L25.6328987,8.04685606 L16.3774377,8.04685606 Z M16.1160757,8.5892578 L15.515091,14.3614069 L20.5119767,12.2337623 L16.1160757,8.5892578 Z M21.6135361,12.2368706 L26.5764596,14.4531023 L25.8913074,8.59236612 L21.6135361,12.2368706 Z M15.5667727,8.40120447 L9.0282945,15.2814694 L14.9259191,14.5556768 L15.5667727,8.40120447 Z M27.1715379,14.6566972 L32.9761354,15.2876861 L26.4391338,8.40742111 L27.1715379,14.6566972 Z M9.20401241,15.8596168 L12.6282967,20.4008714 L14.7324818,15.180449 L9.20401241,15.8596168 Z M27.3561155,15.2752528 L29.3761331,20.532975 L32.7989408,15.8673876 L27.3561155,15.2752528 Z M8.69457814,16.1424739 L8.69457814,25.8621886 L12.3433089,20.980573 L8.69457814,16.1424739 Z M29.6581678,21.1204474 L33.3054219,25.8684052 L33.3054219,16.153353 L29.6581678,21.1204474 Z M9.20253579,26.1465998 L14.6409313,26.8211051 L12.6238669,21.5664912 L9.20253579,26.1465998 Z M29.3746565,21.6970406 L27.2704715,26.917463 L32.7959876,26.1528165 L29.3746565,21.6970406 Z M20.9269073,29.4072268 L20.9741591,29.4460808 L26.5557869,27.0697707 L26.5602167,27.0153751 L26.6207582,27.0060501 L28.971539,21.1732888 L28.9375767,21.1297723 L28.9744922,21.0784851 L26.7182152,15.2053156 L26.6635802,15.2006531 L26.6561971,15.1353784 L21.1159148,12.6627103 L21.0730927,12.698456 L21.0228876,12.6580479 L15.4442131,15.034358 L15.4383067,15.0934161 L15.3777652,15.1011869 L13.028461,20.9323941 L13.0638999,20.9774647 L13.0255078,21.028752 L15.2817848,26.9003673 L15.3364198,26.9065839 L15.3438029,26.9687503 L20.8855619,29.4429725 L20.9269073,29.4072268 Z M15.4235404,27.6494722 L16.1086926,33.4216213 L20.3805575,29.8625956 L15.4235404,27.6494722 Z M21.4939298,29.865704 L25.8839243,33.4247296 L26.484909,27.7427218 L21.4939298,29.865704 Z M9.03567761,26.7263014 L15.5593896,33.5925789 L14.8284621,27.442769 L9.03567761,26.7263014 Z M27.0740809,27.5437894 L26.4361805,33.5956872 L32.9584159,26.7309639 L27.0740809,27.5437894 Z M16.3833442,33.9531439 L25.6077961,33.9531439 L20.9328137,30.1625485 L16.3833442,33.9531439 Z M26.3298638,34.5483871 L15.6701362,34.5483871 L15.5859688,34.4613542 L8.12903226,26.6112936 L8.12903226,15.3887064 L8.21172304,15.3001193 L15.6701362,7.4516129 L26.3298638,7.4516129 L26.4140312,7.53864585 L33.8694911,15.3855981 L33.8680145,15.3855981 L33.8709677,15.3887064 L33.8709677,26.6112936 L33.788277,26.6998807 L26.3298638,34.5483871 Z" id="Fill-19-Copy-4" fill="#FFFFFF" transform="translate(21.000000, 21.000000) rotate(-270.000000) translate(-21.000000, -21.000000) "></path>
                </g>
            </g>
        </g>
    </g>
</svg>