<?xml version="1.0" encoding="UTF-8"?>
<svg width="10px" height="6px" viewBox="0 0 10 6" version="1.1" xmlns="http://www.w3.org/2000/svg" xmlns:xlink="http://www.w3.org/1999/xlink">
    <!-- Generator: Sketch 53 (72520) - https://sketchapp.com -->
    <title>Icon / Keyboard Arrow - Down / Rounded</title>
    <desc>Created with Sketch.</desc>
    <defs>
        <path d="M13.2291667,7.499994 L9.99583333,10.7333273 L6.7625,7.499994 C6.60680706,7.34395011 6.39543137,7.256256 6.175,7.256256 C5.95456863,7.256256 5.74319294,7.34395011 5.5875,7.499994 C5.2625,7.824994 5.2625,8.349994 5.5875,8.674994 L9.4125,12.499994 C9.7375,12.824994 10.2625,12.824994 10.5875,12.499994 L14.4125,8.674994 C14.7375,8.349994 14.7375,7.824994 14.4125,7.499994 C14.0875,7.18332734 13.5541667,7.174994 13.2291667,7.499994 L13.2291667,7.499994 Z" id="path-1"></path>
    </defs>
    <g id="Desktop" stroke="none" stroke-width="1" fill="none" fill-rule="evenodd">
        <g id="Beneficios-Consultora-desplegado" transform="translate(-669.000000, -1032.000000)">
            <g id="Group-15" transform="translate(597.000000, 1025.000000)">
                <g id="Icon-/-Keyboard-Arrow---Down-/-Rounded" transform="translate(77.000000, 10.000000) scale(-1, -1) rotate(-360.000000) translate(-77.000000, -10.000000) translate(67.000000, 0.000000)">
                    <mask id="mask-2" fill="white">
                        <use xlink:href="#path-1"></use>
                    </mask>
                    <g id="icon/navigation/expand_more_24px" fill-rule="nonzero"></g>
                    <g id="✱-/-Color-/-Icons-/-Selected-/-On-Primary-/-Active-" mask="url(#mask-2)" fill="#000000" fill-rule="evenodd">
                        <rect id="Rectangle-3" x="0" y="0" width="20" height="20"></rect>
                    </g>
                </g>
            </g>
        </g>
    </g>
</svg>